<?xml version="1.0" encoding="UTF-8"?> <svg xmlns="http://www.w3.org/2000/svg" id="Layer_2" data-name="Layer 2" viewBox="0 0 547.6 406.66"> <defs> <style> .cls-1 { fill: #968ca2; } .cls-2 { fill: #d2bdc8; } .cls-3 { fill: #aea7c1; } .cls-4 { fill: #bcb7c9; } .cls-5 { fill: #988895; } .cls-6 { fill: #9894b0; } .cls-7 { fill: #a48e99; } .cls-8 { fill: #d0c4ce; } .cls-9 { fill: #a494a0; } .cls-10 { fill: #8d7b87; } .cls-11 { fill: #bda5ae; } .cls-12 { fill: #bab3c7; } .cls-13 { fill: #d4c4cd; } .cls-14 { fill: #cdb7c1; } .cls-15 { fill: #d3c1cd; } .cls-16 { fill: #98848f; } .cls-17 { fill: #c5b1bc; } .cls-18 { fill: #d8dddc; } .cls-19 { fill: #bba5b0; } .cls-20 { fill: #d3ced8; } .cls-21 { fill: #c4c0d0; } .cls-22 { fill: #e1d9e4; } .cls-23 { fill: #ccb9c4; } .cls-24 { fill: #918293; } .cls-25 { fill: #cac5d2; } </style> </defs> <g id="clipping_mask" data-name="clipping mask"> <g> <path class="cls-18" d="m392.26,256.56c-.06-.07-.34,1.56-2.52,3.29-2.15,1.76-6.11,2.96-11.31,3.69-10.32,1.91-25.43,3.7-44.17,3.95-9.37.07-19.63-.19-30.62-.86-2.59-.16-5.22-.34-7.88-.54,8.09-1.02,16.53-2.71,25.1-5.43,10.46-3.32,21.14-8.19,30.91-15.29,9.75-7.1,18.42-16.22,25.85-26.46,7.42-10.26,13.45-21,18.93-31.44,5.46-10.46,10.42-20.65,15.44-30.16,5-9.52,10.1-18.35,15.47-26.21,5.42-7.81,11.03-14.7,16.87-20.29,5.78-5.64,11.73-10.05,16.7-14.25,5-4.17,9.12-8.05,12.02-11.63,2.92-3.56,4.73-6.67,5.74-8.86.55-1.07.82-1.96,1.08-2.52.23-.57.35-.86.35-.86,0,0-.14.29-.4.84-.28.55-.61,1.41-1.21,2.45-1.13,2.12-3.08,5.09-6.13,8.45-3.03,3.38-7.27,7-12.41,10.92-5.12,3.95-11.26,8.12-17.41,13.67-6.18,5.49-12.17,12.34-17.93,20.15-5.71,7.84-11.13,16.69-16.37,26.18-5.26,9.49-10.4,19.61-15.94,29.93-5.55,10.3-11.54,20.81-18.75,30.76-7.21,9.92-15.49,18.65-24.73,25.46-9.24,6.8-19.41,11.56-29.47,14.88-10.08,3.33-20.07,5.24-29.5,6.28-6.9.78-13.51,1.08-19.74,1.14-.56-.06-1.11-.11-1.67-.17-24.69-2.46-51.87-6-80.73-6.76-16.55-.43-32.77.17-48.17,2.08,6.22-2.13,12.85-4.76,19.69-8.11,11.64-5.64,23.55-13.66,34.76-23.46,11.26-9.77,20.53-20.55,28.42-30.64,7.86-10.13,14.27-19.72,19.49-27.84,5.22-8.13,9.2-14.84,11.97-19.47,2.73-4.65,4.24-7.23,4.24-7.23,0,0-1.74,2.43-4.88,6.81-3.15,4.38-7.65,10.75-13.35,18.51-5.7,7.75-12.56,16.92-20.68,26.64-8.15,9.68-17.46,20.04-28.44,29.55-10.93,9.55-22.36,17.41-33.56,23.11-11.18,5.75-21.89,9.68-30.99,12.62-9.11,2.94-16.64,4.88-21.83,6.28-5.2,1.4-8.08,2.22-8.01,2.57.02.1.39.15,1.02.13-8.47,2.91-16.39,6.34-23.66,10.14-9.87,5.29-18.51,11.14-25.99,16.94-7.34,5.69-13.66,11.2-19.08,16.21-.25.18-.51.37-.75.55-4.05,3.05-7.45,6.14-10.37,8.9-2.86,2.83-5.19,5.38-7,7.55-1.17,1.42-2.11,2.63-2.86,3.67-.36.28-.71.55-1.08.84-1.11.89-2.3,1.83-3.55,2.83-.66.55-1.37,1.17-2.03,2.07-.64.87-1.3,2.25-1.11,3.84l.19,1.55,1.67.27c.71.11,1.52-.02,2.13-.28.63-.26,1.1-.61,1.51-.95.82-.72,1.27-1.21,1.94-1.86,1.25-1.27,2.65-2.68,4.07-4.12,10.88-11.21,20.05-20.6,22.06-23.84,7.5-4.82,16.6-9.6,27.17-13.2,6.14-2.07,12.74-3.89,19.66-4.76,6.91-.88,14.13-.8,21.16,1.12,7.05,1.9,13.88,4.98,20.55,7.63,6.64,2.72,13.05,5.39,19.22,7.82,12.32,4.9,23.67,8.82,33.43,11.3,9.75,2.54,17.84,3.68,23.43,4.13,2.79.3,4.97.31,6.44.37,1.47.05,2.25.08,2.25.08,0,0-.77-.1-2.23-.29-1.46-.2-3.62-.4-6.36-.92-5.5-.9-13.39-2.63-22.84-5.72-9.47-3.03-20.45-7.46-32.53-12.76-6.05-2.65-12.41-5.44-18.99-8.33-6.65-2.77-13.41-5.95-21.11-8.04-7.73-2.11-15.71-2.15-23.03-1.14-7.37,1-14.19,2.99-20.52,5.26-4.45,1.61-8.62,3.44-12.53,5.39,1.04-.79,2.1-1.59,3.18-2.39,7.5-5.54,16.09-11.1,25.79-16.11,9.75-4.91,20.66-9.16,32.51-12.39,23.71-6.55,50.98-8.76,79.47-8.02,17.83.47,35.12,1.9,51.64,3.4,6.08.75,13.05,1.45,20.8,1.89,2.7.24,5.38.47,8.03.69,12.4,1.03,24.22,1.85,35.3,2.23,11.08.38,21.42.34,30.85-.04,18.86-.86,33.99-3.27,44.25-5.64,5.15-.96,9.19-2.38,11.29-4.28,2.14-1.87,2.32-3.52,2.39-3.45Z"></path> <g> <g> <path class="cls-22" d="m539.41,40.67s-.07.08-.11.12c-.29.1-.58.2-.87.29.33-.14.65-.27.97-.41Z"></path> <path class="cls-22" d="m429.24,131.46c-1.28-.73-2.48-1.54-3.61-2.43,32.14-18.66,37.59-51.06,95.76-80.17-40.47,22.9-71.24,71.36-92.14,82.61Z"></path> <path class="cls-22" d="m537.09,41.53c.45-.16.89-.3,1.34-.45-6.15,2.56-11.82,5.15-17.05,7.77,5.09-2.88,10.32-5.38,15.71-7.32Z"></path> </g> <path class="cls-2" d="m545.59,34.16c-2.23,2.18-4.28,4.35-6.18,6.51-.05.02-.09.04-.14.06-11.21-3.64-31.95-6.27-49.86-4.96,18.62-3.22,38.38-3.39,56.18-1.6Z"></path> <path class="cls-14" d="m455.23,102.53c14.41-16.48,30.23-35.7,66.15-53.68,1.88-1.06,3.79-2.06,5.71-3.01-11.43-6.17-31.03-6.49-44.58-1.6-39.52,14.25-43.9,39.05-40.19,49.34,1.55,4.3,6.95,8.21,12.92,8.96Zm1.59-8.95c-3.22,1.16-6.52.27-7.73-3.1-5.37-14.89,7.96-35.97,24.31-41.87,10.79-3.89,32.54-4.65,35.58,1.32-.81.23-1.59.49-2.36.76-19.8,7.14-38.35,38.76-49.8,42.89Z"></path> <path class="cls-5" d="m421.26,110.65c3.76,10.43,9.68,10.3,16.8,7.73,1.25-.45,2.47-.98,3.68-1.51-4.76,4.47-9.95,8.57-16.12,12.15-3.59-2.83-6.38-6.47-8.01-10.99-.98-2.72-1.54-5.76-1.6-9.11-.57-30.96,15.24-50.48,37.91-61.96-20.97,19.86-40.87,40.91-32.66,63.69Z"></path> <path class="cls-11" d="m430.58,99.23c-6.72-18.63,16.88-42.49,38.83-58.58,6.41-2.08,13.12-3.69,20-4.88,17.91-1.31,38.65,1.33,49.86,4.96-.28.12-.56.23-.84.35-.45.15-.9.29-1.34.45-3.4,1.23-6.72,2.69-10,4.31-11.43-6.17-31.03-6.49-44.58-1.6-39.52,14.25-43.9,39.05-40.19,49.34,1.55,4.3,6.95,8.21,12.92,8.96-2.36,2.7-4.69,5.33-7.06,7.87-6.95.36-14.68-3.1-17.59-11.17Z"></path> <path class="cls-9" d="m421.26,110.65c-8.21-22.78,11.69-43.83,32.66-63.69,3.76-1.9,7.71-3.6,11.81-5.07,1.22-.44,2.45-.84,3.69-1.25-21.95,16.09-45.55,39.95-38.83,58.58,2.91,8.07,10.63,11.53,17.59,11.17-2.09,2.24-4.22,4.4-6.43,6.48-1.21.54-2.43,1.06-3.68,1.51-7.11,2.56-13.04,2.69-16.8-7.73Z"></path> <path class="cls-2" d="m449.09,90.48c-5.37-14.89,7.96-35.97,24.31-41.87,10.79-3.89,32.54-4.65,35.58,1.32-.81.23-1.59.49-2.36.76-19.8,7.14-38.35,38.76-49.8,42.89-3.22,1.16-6.52.27-7.73-3.1Z"></path> <path class="cls-24" d="m476.55,121.47c9.93-3.58,19.33-8.58,28.38-14.17-3.57,5.82-8.12,11.15-14.65,15.85-4.46,2.34-8.9,4.37-12.8,5.78-9.6,3.46-34.26,10.27-37.5,1.29-.35-.97-.9-3.35-1.02-5.82,1.26-1.1,2.55-2.28,3.87-3.53.11.75.26,1.49.52,2.21,2.88,8,25.51,1.16,33.2-1.61Z"></path> <path class="cls-10" d="m477.47,128.93c3.9-1.41,8.34-3.44,12.8-5.78-5.09,3.66-11.37,6.96-19.31,9.82-14.15,5.1-30.55,4.87-41.73-1.51,3.03-1.63,6.27-4.06,9.72-7.07.12,2.48.67,4.85,1.02,5.82,3.24,8.98,27.9,2.18,37.5-1.29Z"></path> <path class="cls-1" d="m484.53,115.97c8.8-3.17,17.01-9.14,24.47-16.34-1.23,2.64-2.57,5.2-4.08,7.67-9.04,5.6-18.44,10.59-28.38,14.17-7.69,2.77-30.32,9.61-33.2,1.61-.26-.72-.42-1.46-.52-2.21,4.28-4.06,8.84-8.84,13.7-14.04.1,1.99.38,3.87.96,5.48,3.08,8.54,18.63,6.71,27.05,3.67Z"></path> <path class="cls-3" d="m511.41,57.03c-1.42.51-2.02,1.49-2.63,2.76-13.47,14.16-12.65,13.47-12.65,13.47l-15.3,15.21c-8.93,8.23-18.24,12.88-15.44,20.65,1.73,4.8,13.68,2.38,18.53.63,1.31-.47,2.6-.98,3.9-1.45,23.08-8.32,31.92-38.59,27.94-49.64-.61-1.68-3.04-2.1-4.35-1.63Zm-11.15,18.9c4.02-1.45,8.31.28,10.24,2.05-.97,7.75-10.75,23.37-21.72,27.32-1.73.62-12.46,2.67-15.62-2.97-.02-.03-.03-.06-.04-.1,0,0,20.39-21.93,20.39-21.93,1.76-1.62,3.82-3.31,6.75-4.37Z"></path> <path class="cls-12" d="m510.5,77.98c-.97,7.75-10.75,23.37-21.72,27.32-1.73.62-12.46,2.67-15.62-2.97-.02-.03-.03-.06-.04-.09,0,0,20.39-21.93,20.39-21.93,1.76-1.62,3.82-3.31,6.75-4.37,4.02-1.45,8.31.28,10.24,2.05Z"></path> <path class="cls-1" d="m538.43,41.08c.29-.09.58-.2.87-.29-13.36,15.2-19.02,29.86-24,43.16,2.2-15.69,9.6-32.49,9.6-32.49-.51-1.42-3.02-1.83-5.95-1.18.81-.48,1.61-.97,2.42-1.43,5.24-2.62,10.9-5.21,17.05-7.77Z"></path> <path class="cls-6" d="m518.95,50.27c-24.42,14.57-45.25,38.14-62.43,56.55.1,1.99.38,3.87.96,5.48,3.08,8.54,18.63,6.71,27.05,3.67,8.8-3.17,17.01-9.14,24.47-16.34,2.3-4.96,4.25-10.2,6.29-15.68,2.2-15.69,9.6-32.49,9.6-32.49-.51-1.42-3.02-1.83-5.95-1.18Zm-10.17,9.51c.61-1.27,1.21-2.24,2.63-2.76,1.31-.47,3.74-.05,4.35,1.63,3.98,11.05-4.86,41.32-27.94,49.64-1.3.47-2.6.98-3.9,1.45-4.85,1.75-16.8,4.17-18.53-.63-2.8-7.77,6.51-12.41,15.44-20.65l15.3-15.21s-.82.69,12.65-13.47Z"></path> </g> <g> <path class="cls-22" d="m329.2,375.73c2.1-.71,4.11-1.35,5.99-1.87-.74-.53-1.46-1.07-2.18-1.61-.31,0-.62.03-.92.03-63.5.66-127.31-57.86-169.78-57.42-2.51.03-5.01.21-7.47.52-.52.89-1.04,1.78-1.52,2.7.02.12.04.24.06.36,3.23-.17,6.45-.33,9.66-.36,37.83-.39,111.97,57.94,166.18,57.65Z"></path> <path class="cls-14" d="m181.35,365.48c.29,27.66,36.65,36.77,67.1,38.64,6.54-1.35,13.15-3.16,19.71-5.24,18.26-7.85,39.5-18.64,39.43-24.64,0-.35-.03-.7-.06-1.04-27.78-6.09-58.44-22.04-85.93-35.23-.26,0-.53,0-.79,0-20.19.21-39.67,6.97-39.45,27.5Zm111.8,11.23c-.64,3.02-3.67,3.36-5.64,5.08-6.73,5.89-11.83,12.32-54.86,12.77-36.12.38-41.63-13.15-41.77-26.6-.15-14.83,5.99-23.65,20.82-23.81,25.69-.27,32.43,14.76,81.44,32.56Z"></path> <path class="cls-11" d="m268.16,398.89c22.81-7.24,44.98-17.72,61.04-23.16-6.94.04-14.2-.89-21.67-2.53.03.35.06.69.06,1.04.06,6-21.18,16.79-39.43,24.64Z"></path> <path class="cls-5" d="m181.17,323.34c2.09-.02,4.2-.09,6.32-.15-9.17-3.22-17.44-5.18-24.47-5.1-3.2.03-6.43.19-9.66.36,5.12,32.95,10.76,63.89,34.47,78.84-16.45-17.97-25.93-39.59-26.11-57.04-.12-11.46,3.27-16.74,19.45-16.91Z"></path> <path class="cls-11" d="m169.54,347.32c.32,30.56,24.25,48.73,49.63,59.1,2.51.16,5.08.25,7.8.22,6.93-.07,14.15-1.01,21.46-2.52-30.44-1.87-66.81-10.98-67.1-38.64-.21-20.53,19.26-27.29,39.45-27.5.26,0,.53,0,.79,0-6.37-3.06-12.57-5.96-18.53-8.57-4.59-.92-9.41-1.55-14.53-1.49-13.56.14-19.11,6.74-18.98,19.41Z"></path> <path class="cls-9" d="m169.54,347.32c-.13-12.67,5.43-19.27,18.98-19.41,5.12-.05,9.94.57,14.53,1.49-5.41-2.37-10.63-4.48-15.58-6.22-2.12.07-4.23.13-6.32.15-16.18.17-19.57,5.45-19.45,16.91.18,17.45,9.66,39.06,26.11,57.04,8.1,5.11,18.33,8.33,31.35,9.14-25.39-10.38-49.32-28.54-49.63-59.1Z"></path> <path class="cls-2" d="m190.89,367.97c.14,13.45,5.64,26.97,41.77,26.6,43.03-.45,48.13-6.88,54.86-12.77,1.97-1.72,5-2.06,5.64-5.08-49.01-17.8-55.75-32.82-81.44-32.56-14.83.15-20.98,8.98-20.82,23.81Zm73.43,3.7c.71.75.91,1.57.92,2.38.07,7.2-11.73,15.71-31.09,15.91-27.92.29-34.53-13.23-34.59-18.94-.05-4.46,4.75-18.84,15.17-18.95,9.11-.09,38.43,7.81,49.6,19.59Z"></path> <path class="cls-13" d="m199.56,371.02c.06,5.7,6.67,19.23,34.59,18.94,19.36-.2,31.16-8.71,31.09-15.91,0-.81-.21-1.64-.92-2.38-11.17-11.78-40.48-19.69-49.6-19.59-10.42.11-15.21,14.49-15.17,18.95Z"></path> <path class="cls-1" d="m184,308.15c-.09-8.21,14.6-21.94,36.12-22.16,8.08-.08,21.5,2.31,36.25,7.15-6.89-5.54-14.24-9.78-22.63-12.12-3.04-.85-6.23-1.41-9.57-1.73-17.94.93-54.06,14.07-53.89,30.16.02,1.9.54,4.22,1.51,6.2,4.68.77,9.58,2.06,14.66,3.77-1.43-3.33-2.38-6.82-2.41-9.83,0-.51-.03-.98-.04-1.44Z"></path> <path class="cls-24" d="m224.17,279.28c-2.08-.2-4.21-.33-6.42-.31-1.13.01-2.27.08-3.4.15-21.16,1.3-42.44,12.57-55.56,30.31-.6.82-1.22,1.63-1.79,2.47-.76,1.13-1.48,2.3-2.18,3.48,2.47-.32,4.97-.5,7.47-.52,3.06-.03,6.23.25,9.49.79-.97-1.98-1.49-4.29-1.51-6.2-.17-16.09,35.95-29.23,53.89-30.16Z"></path> <path class="cls-6" d="m226.59,296.26c26.95-.28,46.56,19.58,65,38.01-1.1-1.97-2.04-3.99-2.75-6.05-11.19-13.46-21.2-26.01-32.47-35.08-14.75-4.83-28.17-7.23-36.25-7.15-21.52.22-36.2,13.95-36.12,22.16,0,.46.03.93.04,1.44.03,3.01.99,6.5,2.41,9.83,6.32,2.13,12.93,4.88,19.79,8.02-1.69-3.94-2.88-8.25-2.92-12.23-.15-14.35,8.56-18.8,23.27-18.95Z"></path> <path class="cls-3" d="m291.59,334.27c-18.45-18.43-38.06-38.29-65-38.01-14.71.15-23.42,4.6-23.27,18.95.04,3.98,1.23,8.3,2.92,12.23,34.66,15.87,75.53,41.46,116.71,44.54,0-.02,0-.05,0-.07-.08-7.5-21.9-20.75-31.36-37.64Zm-77.27-21.58c-.06-5.88,3.93-9.15,7.8-9.19,43.65-.45,56.95,17.49,80.54,54.04.23.35.33.73.34,1.1.02,2.4-3.9,4-6.63,4.03-13.01.14-81.81-28.29-82.04-49.98Z"></path> <path class="cls-20" d="m333,372.25c-9.77-7.22-18.22-15.1-25.84-23.12-6.63-6.98-12.63-14.06-18.32-20.91.71,2.07,1.65,4.08,2.75,6.05,9.47,16.89,31.29,30.14,31.36,37.64,0,.03,0,.05,0,.07,3.04.23,6.09.33,9.13.3.31,0,.62-.02.92-.03Z"></path> <path class="cls-4" d="m302.99,358.64c0-.37-.11-.74-.34-1.1-23.59-36.54-36.88-54.49-80.54-54.04-3.87.04-7.86,3.31-7.8,9.19.23,21.68,69.03,50.11,82.04,49.98,2.73-.03,6.66-1.63,6.63-4.03Zm-83.23-44.13c-.04-3.56,2.14-7.69,7.23-7.74.64,0,1.27.01,1.85,0,36.05-.38,53.44,27.59,54.52,30.22-2.98,3.04-6.28,5.48-10.3,6.8-2.01.66-4.3,1.08-6.39,1.1-11.86.12-46.75-15.59-46.9-30.39Z"></path> <path class="cls-21" d="m283.37,337c-1.08-2.62-18.48-30.59-54.52-30.22-.57,0-1.2-.01-1.85,0-5.09.05-7.27,4.18-7.23,7.74.15,14.79,35.04,30.51,46.9,30.39,2.1-.02,4.39-.44,6.39-1.1,4.02-1.32,7.32-3.76,10.3-6.8Z"></path> </g> <g> <path class="cls-22" d="m286.2,80.52c11.08-36.67,26.38-60.85,36.8-74.3,1.36-2.11,2.83-4.19,4.46-6.22-2.65,1.18-5.32,2.4-8,3.64-50.5,59.69-34.02,163.34-113.36,206.41-.35.19-.7.38-1.06.57-.04.02-.08.04-.13.07-.66.36-1.32.79-1.96,1.28.4.63.83,1.29,1.27,1.96,1.9-.86,3.78-1.76,5.6-2.75,58.22-31.6,72.11-116.54,76.37-130.65Z"></path> <path class="cls-13" d="m310.1,75.92c-.98-24.83-.41-48.99,12.9-69.7-4.64,5.98-10.24,14.1-16.01,24.5.03.05.07.1.1.16,0,0-2.23,22.35,3.01,45.05Z"></path> <path class="cls-2" d="m268.99,171.86c27.61-14.99,22.61-45.62,28.78-70.97,3.64-14.95,10.01-22.19,5.06-31.31-.85-1.56-1.88-2.52-2.94-3.01-.13.05-.26.1-.39.17-19.63,10.65-4.56,52.77-38.87,96.19-2.29,2.9-4.78,6.81-2.97,10.15,1.88,3.46,7.25.99,11.33-1.22Z"></path> <path class="cls-14" d="m310.44,83.53c-.12-2.54-.24-5.08-.34-7.61-5.24-22.69-3.01-45.05-3.01-45.05-.03-.06-.07-.1-.1-.16-7.19,12.96-14.64,29.46-20.79,49.8-3.15,10.43-11.57,59.56-39.26,97.25,7.65,3.03,16.01,3.38,23.63-.75,31.45-17.07,32.06-64.72,39.87-93.48Zm-52.77,89.55c-1.81-3.34.68-7.25,2.97-10.15,34.31-43.43,19.24-85.54,38.87-96.19.13-.07.26-.11.39-.17,1.06.5,2.09,1.45,2.94,3.01,4.95,9.12-1.42,16.36-5.06,31.31-6.18,25.35-1.17,55.98-28.78,70.97-4.08,2.21-9.45,4.68-11.33,1.22Z"></path> <path class="cls-9" d="m223.35,205.06c4.83,8.89,28.77-1.23,38.22-6.36,17.38-9.43,31.51-25.09,42.17-41.41,4.75-11.56,6.72-23.74,7.35-36.18-8.69,27.29-17.32,56.86-45.57,72.2-13.68,7.43-26.89,4.74-32.07.16-3.38,3.34-6.97,6.49-10.8,9.4.13.68.32,1.36.63,2.05.02.05.05.1.07.15Z"></path> <path class="cls-5" d="m303.74,157.29c-10.67,16.32-24.79,31.98-42.17,41.41-9.45,5.13-33.39,15.25-38.22,6.36-.03-.05-.05-.1-.07-.15-.31-.68-.5-1.36-.63-2.05-4.01,3.05-8.28,5.84-12.82,8.3-1.82.99-3.7,1.89-5.6,2.75.57.87,1.17,1.75,1.81,2.65,18.78.47,36.94-4.21,52.76-12.8,24.47-13.28,37.82-29.18,44.94-46.48Z"></path> <path class="cls-11" d="m265.52,193.31c28.25-15.33,36.89-44.91,45.57-72.2.63-12.38-.06-25.03-.66-37.58-7.81,28.76-8.42,76.41-39.87,93.48-7.61,4.13-15.97,3.79-23.63.75-4.07,5.53-8.55,10.82-13.49,15.7,5.19,4.58,18.39,7.27,32.07-.16Z"></path> <path class="cls-17" d="m215.92,156.66c6.15,11.33,19.59,12.72,26.1,9.18,6-3.26,13.06-10.99,19.18-18.86,18.02-40.68,23.89-88.87,46.16-126.24-3.77-6.53-13.39-1.07-42.77,14.88-1.96,1.06-3.9,2.14-5.85,3.22-2.51,1.84-4.98,3.72-7.4,5.62-27.89,34.84-52.78,80.22-35.42,112.19Zm72.31-125.96c.29-.16.88-.48,1.18-.64,1.19.18,2.23.57,2.63,1.3,3.76,6.92-33.69,115.25-49.86,124.02-2.86,1.55-16.75,3.39-21.05-4.53-8.6-15.83,4.58-86.32,56.12-114.29,3.62-1.97,7.3-3.86,10.99-5.86Z"></path> <path class="cls-19" d="m307.36,20.74c3.58-6,7.57-11.73,12.11-17.1-8.09,3.77-16.26,7.84-24.34,12.23-12.84,6.97-25.07,14.66-36.38,22.96,1.95-1.07,3.89-2.15,5.85-3.22,29.38-15.95,39-21.4,42.77-14.88Z"></path> <path class="cls-10" d="m201.54,200.17c-11.15-20.54-14.29-48.43-11.22-74.16-7.52,25.57-5.51,52.96,9.74,81.04.65,1.21,1.67,2.94,2.91,4.91.64-.48,1.3-.92,1.96-1.28.04-.02.08-.05.13-.07.35-.19.71-.38,1.06-.57,2.22-1.21,4.36-2.47,6.44-3.77-5.49.22-8.76-1.97-11.01-6.11Z"></path> <path class="cls-16" d="m201.81,185.28c-15.12-27.85.14-74.3,15.11-107.57-12.37,15.08-21.6,31.29-26.6,48.31-3.06,25.72.07,53.62,11.22,74.16,2.25,4.14,5.52,6.33,11.01,6.11,5.95-3.73,11.33-7.82,16.19-12.24-11.99,2.05-22.01.27-26.92-8.77Z"></path> <path class="cls-7" d="m201.81,185.28c4.91,9.04,14.93,10.82,26.92,8.77,6.05-5.5,11.31-11.49,15.95-17.87-3,2.61-5.65,4.64-7.74,5.77-9.43,5.12-20.57,6.66-25.8-2.97-27.06-49.85,10.05-100.61,31.92-127.74-9.74,8.34-18.54,17.19-26.16,26.46-14.97,33.27-30.23,79.71-15.11,107.57Z"></path> <path class="cls-19" d="m211.15,178.98c5.23,9.63,16.36,8.09,25.8,2.97,2.09-1.13,4.74-3.16,7.74-5.77,6.6-9.05,11.95-18.88,16.52-29.2-6.13,7.86-13.18,15.6-19.18,18.86-6.51,3.54-19.95,2.15-26.1-9.18-17.36-31.97,7.54-77.35,35.42-112.19-2.82,2.22-5.58,4.48-8.27,6.78-21.87,27.12-58.98,77.89-31.92,127.74Z"></path> <path class="cls-23" d="m221.12,150.85c4.3,7.92,18.19,6.08,21.05,4.53,16.17-8.78,53.62-117.1,49.86-124.02-.4-.73-1.43-1.12-2.63-1.3-.29.16-.88.48-1.18.64-3.69,2-7.36,3.89-10.99,5.86-51.53,27.97-64.71,98.46-56.12,114.29Zm41.39-83.35c1.21.36,1.84,1.2,2.36,2.16.26.48.49.99.76,1.48,11.32,20.86-10.05,69.21-26.94,78.37-6.82,3.7-11.96,1.82-14.62-3.08-13.39-24.68,25.03-71.82,35.43-77.46.98-.53,2.03-.93,3.01-1.47Z"></path> <path class="cls-8" d="m224.07,146.42c2.66,4.9,7.8,6.78,14.62,3.08,16.89-9.17,38.26-57.51,26.94-78.37-.27-.49-.5-1-.76-1.48-.52-.96-1.15-1.8-2.36-2.16-.98.53-2.03.93-3.01,1.47-10.4,5.65-48.83,52.79-35.43,77.46Z"></path> </g> <g> <path class="cls-10" d="m358.16,239.28c2.89-15.32,15.82-34.4,33.5-53.22-22.68,16.7-40.08,38.88-45.8,69.18-.61,3.21-1.11,7.21-1.17,11.21,5.26-4.98,11.78-9.34,19.18-13.31-5.16-2.53-6.88-7.63-5.71-13.85Z"></path> <path class="cls-24" d="m373.28,226.05c2.7-14.3,26.07-38.95,51.49-59.38-11.72,5.51-22.95,11.9-33.13,19.39-17.67,18.81-30.6,37.89-33.5,53.22-1.18,6.22.55,11.33,5.71,13.85,6.95-3.73,14.68-7.12,22.87-10.34-6.97-3.04-15.02-8.47-13.45-16.75Z"></path> <g> <path class="cls-22" d="m393.76,244.6c68.61-31.48,101.3-32.46,119.55-65.02,9.93-17.71,20.75-34.73,33.79-49.87.17-.35.33-.7.5-1.05-.71.23-1.44.46-2.18.69-14.49,15.94-26.46,34.89-38.76,52.21-32.29,45.46-126.26,51.07-161.98,84.89-.01.98-.01,1.96.04,2.93.49.09.98.18,1.47.27,2.09.4,4.18.81,6.27,1.23,9.78-20.79,26.18-19.33,41.3-26.27Z"></path> <path class="cls-3" d="m520.89,144.73c-11.42-2.16-32.5,1.07-48.88,4.23-6.01,1.82-12.09,3.79-18.16,5.92-28.9,15.59-55.04,34.72-58.99,55.62-2.41,12.78,6.08,20.86,16.93,22.91.15.03.33.05.49.08,36.64-12.76,75.77-25.73,94.38-51.94,7.05-9.93,14.01-20.39,21.39-30.52.32-4.32-3.12-5.54-7.16-6.3Zm-99.45,67.86c-3.67-.69-12-5.48-10.08-15.64,4.44-23.5,69.13-52.94,105.81-46.02.51.1.96.32,1.24.83.47.84.49,1.74.32,2.62-6.36,33.68-67.73,63.78-97.3,58.2Z"></path> <path class="cls-25" d="m472.01,148.96c16.38-3.16,37.46-6.39,48.88-4.23,4.04.76,7.49,1.98,7.16,6.3,5.48-7.53,11.19-14.89,17.37-21.69-17.74,5.47-44.81,10.95-73.41,19.62Z"></path> <path class="cls-1" d="m394.86,210.51c3.95-20.9,30.08-40.04,58.99-55.62-9.81,3.44-19.59,7.33-29.07,11.79-25.43,20.43-48.79,45.08-51.49,59.38-1.56,8.28,6.48,13.71,13.45,16.75,8.16-3.21,16.78-6.25,25.55-9.3-.16-.03-.34-.05-.49-.08-10.85-2.05-19.35-10.13-16.93-22.91Z"></path> <path class="cls-12" d="m517.18,150.94c-36.67-6.93-101.37,22.52-105.81,46.02-1.92,10.16,6.41,14.95,10.08,15.64,29.56,5.58,90.93-24.52,97.3-58.2.17-.88.15-1.79-.32-2.62-.28-.51-.74-.73-1.24-.83Zm-81.38,48.59c-10.92-2.06-13.33-7.21-11.93-14.62,2.76-14.61,62.24-32.18,64.64-31.73.78.15,1.49.63,2.25.85,2.27.67,4.58,1.43,6.2,3.21.78.85.88,3.74.66,4.89-3.26,17.26-44.73,40.62-61.82,37.39Z"></path> <path class="cls-25" d="m490.75,154.03c-.76-.22-1.47-.71-2.25-.85-2.4-.45-61.88,17.12-64.64,31.73-1.4,7.41,1.01,12.55,11.93,14.62,17.09,3.23,58.56-20.12,61.82-37.39.22-1.15.12-4.04-.66-4.89-1.63-1.78-3.93-2.55-6.2-3.21Z"></path> <path class="cls-11" d="m531.48,162.06c-.87,4.63-2.93,9.05-3.84,13.86-.59,3.12-.22,3.59-1.04,7.94-.79,4.18-2.06,8.27-2.85,12.45-1.74,9.21,1.31,6.28-.9,20.88.84-3.29,1.61-6.73,2.29-10.31.91-4.8,1.09-7.94,2.91-17.59,3.17-16.76,7.93-33.59,14.52-49.4-.07-.43-.14-.87-.21-1.3.07.43.14.87.21,1.3,1.43-3.44,2.92-6.84,4.53-10.17-6.27,7.28-12.01,15-17.4,23.01,1.81,2.32,2.53,5.37,1.78,9.34Z"></path> <path class="cls-11" d="m416.75,275.29c30.92,5.84,57.08.43,78.4-9.27,6.93-5.95,12.97-13.51,17.96-22.94-22,22.44-50.42,29.66-67.25,26.49-13.07-2.47-22.67-12.79-19.57-29.24.44-2.33,1.94-6.82,3.88-11.2-7.64,3.02-15.88,6.39-24.78,10.28-7.08,6.97-11.14,13.74-11.94,17.95-1.71,9.06,13.45,16.07,23.3,17.93Z"></path> <path class="cls-9" d="m413.08,280c9.61,1.81,39.21,1.05,73.4-7.63,3.02-1.87,5.91-3.98,8.67-6.35-21.32,9.7-47.48,15.11-78.4,9.27-9.85-1.86-25.01-8.88-23.3-17.93.79-4.21,4.85-10.98,11.94-17.95-3.76,1.64-7.63,3.36-11.63,5.2-4.78,2.19-9.69,3.55-14.48,5.03-5.93,5.49-10.55,9.58-10.58,9.72-2.12,11.2,28.75,17.69,44.37,20.64Z"></path> <path class="cls-14" d="m445.86,269.56c16.83,3.18,45.25-4.04,67.25-26.49,3.93-7.43,7.21-16.02,9.75-25.89,2.2-14.61-.84-11.67.9-20.88.79-4.18,2.06-8.26,2.85-12.45.82-4.35.45-4.82,1.04-7.94.91-4.8,2.97-9.23,3.84-13.86.75-3.97.03-7.02-1.78-9.34-5.83,8.66-11.23,17.66-16.39,26.86-14.66,26.17-38.67,31.95-83.14,49.55-1.93,4.38-3.43,8.87-3.88,11.2-3.11,16.45,6.5,26.77,19.57,29.24Zm-6.27-33.94c14.98-12.35,31.4.37,79.42-47.31.22,2.43,1.48,5.03,1.66,7.46.5,7.09,1.89,7.94-.35,19.8-6.37,33.73-45.01,53.12-64.26,49.48-7.16-1.35-23.07-8.87-20.65-21.71.88-4.68,2.78-6.56,4.18-7.72Z"></path> <path class="cls-5" d="m413.08,280c-15.62-2.95-46.49-9.44-44.37-20.64.03-.14,4.64-4.24,10.58-9.72-10.35,3.21-20.14,7.02-26.82,21.24,15.49,3.15,30.89,7.01,46.39,9.93,33.4,6.31,64.32,6.02,87.64-8.44-34.2,8.68-63.79,9.45-73.4,7.63Z"></path> <path class="cls-2" d="m456.05,265.06c19.26,3.64,57.89-15.75,64.26-49.48,2.24-11.86.85-12.71.35-19.8-.17-2.43-1.43-5.04-1.66-7.46-48.02,47.68-64.44,34.97-79.42,47.31-1.41,1.16-3.3,3.04-4.18,7.72-2.43,12.84,13.49,20.36,20.65,21.71Zm32.99-44.27c.55,2.49,2.16,4.53,3.16,6.73,1.34,2.96.81,7.95.21,11.13-3.42,18.12-28.28,20.72-33.75,19.69-4.38-.83-17.73-6.56-16.28-14.26,2.42-12.8,25.92-16.79,46.66-23.28Z"></path> <path class="cls-15" d="m458.66,258.34c5.48,1.03,30.33-1.56,33.75-19.69.6-3.18,1.12-8.17-.21-11.13-.99-2.2-2.6-4.24-3.16-6.73-20.74,6.49-44.24,10.48-46.66,23.28-1.45,7.7,11.9,13.43,16.28,14.26Z"></path> </g> </g> </g> </g> </svg> 