<?xml version="1.0" encoding="UTF-8"?> <svg xmlns="http://www.w3.org/2000/svg" id="Layer_2" data-name="Layer 2" viewBox="0 0 153.1 145.02"> <defs> <style> .cls-1 { fill: #d8dae6; } .cls-2 { fill: #aba8d3; } .cls-3 { fill: #5477bb; } .cls-4 { fill: #c7c9e4; } .cls-5 { fill: #d0cfe8; } .cls-6 { fill: #dedfee; } .cls-7 { fill: #777dbc; } .cls-8 { fill: #a4a5d1; } .cls-9 { fill: #e8e9f4; } .cls-10 { fill: #e3e0f0; } .cls-11 { fill: #d4d2ea; } .cls-12 { fill: #bdbdde; } .cls-13 { fill: #9ba2d1; } .cls-14 { stroke-linecap: round; stroke-linejoin: round; } .cls-14, .cls-15 { fill: none; stroke: #ad8955; stroke-width: .98px; } .cls-16 { fill: #929ccf; } .cls-17 { fill: #7582bf; } .cls-18 { fill: #d1d4eb; } .cls-19 { fill: #7b80be; } .cls-20 { fill: #d9daed; } .cls-21 { fill: #b7b6da; } .cls-22 { fill: #bbd; } .cls-23 { fill: #787cba; } .cls-24 { fill: #d1d0e7; } .cls-25 { fill: #6c6fb3; } .cls-26 { fill: #939cce; } .cls-27 { fill: #ebebf0; } .cls-28 { fill: #b1b9de; } .cls-29 { fill: #ededf5; } .cls-30 { fill: #acabd5; } .cls-31 { fill: #425fab; } .cls-32 { fill: #8e92c7; } .cls-33 { fill: #979dce; } .cls-34 { fill: #626bb2; } .cls-35 { fill: #5164ae; } .cls-36 { fill: #d3cce6; } .cls-37 { fill: #dfe2ee; } .cls-38 { fill: #f3f6fb; } .cls-39 { fill: #c3c1e0; } .cls-40 { fill: #273d68; } .cls-41 { fill: #a2a2d0; } .cls-42 { fill: #9a99cb; } .cls-43 { fill: #e2e2eb; } .cls-44 { fill: #e1e2ec; } .cls-45 { fill: #dcd6eb; } .cls-46 { fill: #a1a2cf; } .cls-15 { stroke-miterlimit: 10; } .cls-47 { fill: #9b9ecf; } .cls-48 { fill: #a7a8d4; } .cls-49 { fill: #817ebc; } .cls-50 { fill: #b9bdde; } .cls-51 { fill: #d2d1e9; } .cls-52 { fill: #9ca2d1; } .cls-53 { fill: #8995ca; } .cls-54 { fill: #c8c5e1; } .cls-55 { fill: #b1b4db; } .cls-56 { fill: #c3c1df; } .cls-57 { fill: #dcddef; } .cls-58 { fill: #a4a4d1; } .cls-59 { fill: #b3bcde; } .cls-60 { fill: #dfdaec; } .cls-61 { fill: #a3a3d1; } .cls-62 { fill: #f7f9fd; } .cls-63 { fill: #a7a7d3; } .cls-64 { fill: #d9d8ed; } .cls-65 { fill: #9797ca; } </style> </defs> <g id="clipping_mask" data-name="clipping mask"> <g> <path class="cls-33" d="m76.33,50.51c-1.95-1.26-5.2-2.16-6.88.44-1.02,1.58-1.36,4.01-1.67,6.07.19,2.3.76,4.55,1.18,6.12.41.25.82.51,1.23.77-.1-.72-.18-1.43-.21-2.15,0-.09,0-.18-.01-.27.04-.02.08-.03.12-.05-.3-1.22-.57-2.34-.57-2.34-.34-1.39-.07-2.77.62-3.84,1.63-2.53,4.91-2.42,6.3-1.53.27.17.54.42.76.75.49-.3,1.01-.58,1.56-.86-.23-1.05-.93-2.12-2.43-3.09h0Zm-6.36,3.03c-.19.3-.35.68-.36.69-.13.2-.49.31-.64.21-.16-.1-.15-.58.28-1.24.11-.16.22-.33.33-.49.1-.24.22-.48.36-.7,1.44-2.23,3.91-2.21,5.92-.91.28.18.76.71.51,1.1-.57.89-4.68-1.35-6.41,1.34h0Z"></path> <path class="cls-24" d="m99.56,88.87c-.09-.06-.19-.12-.28-.18-5.87-1.91-14.87-3.79-19.06-6.49-4.24-2.74-7.69-7.28-9.92-8.72-2.79-1.8-5.78-1.81-7.77-3.09-2.6-1.68-4.17-5.21-6.41-6.66-.51-.33-1.08-.57-1.67-.75.05.66.06,1.32.05,1.98,1.44,4.76.03,15.6,6.55,19.81,4.08,2.63,15.64,1.3,24.18,2.22,6.21.67,14.47,4.47,17.77,6.17-.56-1.89-1.81-3.25-3.44-4.31h0Zm-23.59-3.73c-6.61-1.5-8.97-.17-11.87-2.05-4.03-2.6-4.66-8.74-5.62-11.65,1.18-.27,2.4.03,3.44.69,1.31.84,3.2,3.38,5.52,4.88,2.86,1.85,4.15.95,5.38,1.74.09.06.27.18.45.3.88.57,1.85,1.05,2.73,1.62,1.25.8,2.92,2.27,2.12,3.52-.42.65-1.32,1.13-2.15.94h0Z"></path> <path class="cls-65" d="m91.77,115.3c-.62.21-1.24.46-1.85.75-3.37,1.58-9.72-.57-13.28,1.72.75,1.01,1.26,1.97,1.6,2.87.1-.33.23-.62.4-.89,2.1-3.26,7.33-1.34,13.13-4.45h0Z"></path> <path class="cls-29" d="m109.49,121.65c-3.88.34-6.9,1.93-9.46,4.78-1.83,2.04-4.62-.9-7.21-.48,2.73,1.67,7.27,3.27,9.2.27.39-.61.39-.9.76-1.48,2.59-4.01,8.84,1.05,11.11-2.47.12-.18.01-.44-.08-.58-.85-1.26-1.52-2.35-2.04-3.31.04.84-.06,1.69-.43,2.27-.35.54-.92.91-1.83.99h0Z"></path> <path class="cls-45" d="m87.42,121.13c-.85-.55-5.07,1.62-6.61,3.06-.38,1.12-.16,2.38.9,3.06.97.62,1.82.66,2.55-.48.05-.07.48-1.03.92-1.71.73-1.13,2.36-2.86,2.38-2.89.3-.47.12-.87-.15-1.04h0Z"></path> <path class="cls-60" d="m61.95,114.85c-1.71-1.11-3.71-1.9-5.65-1.06-.36-.08-.69-.09-.84.13-.09.14-.16.57.38.92.82.53,6.87,2.56,7.56,1.49.19-.29.2-.4-1.46-1.48h0Z"></path> <path class="cls-38" d="m41.87,112.15c-.37.57-.28,1.66.61,2.23,1.56,1.01,4.31.14,6.78-1.09.27-.19.53-.38.81-.57,1.77-1.26,3.66-2.62,5.84-3.3-4.65,0-12.5.34-14.04,2.73h0Z"></path> <path class="cls-45" d="m56.98,107.97c3.32-1.28,6.23.38,8.89,2.09.42.27.83.54,1.24.8.31.2.55.45.85.64,0,0,.54.31.97.59,2.02,1.31,11.44,8.63,7.29,15.05-.03.05-.07.1-.1.15.56.12,1.07.04,1.53-.35.17-.15.33-.33.48-.57.64-1,1.61-4.48-1.49-8.61-.21-.28-.43-.56-.68-.84-1.13-1.3-2.68-2.66-4.77-4.01-2.45-1.58-5.1-2.96-7.29-4.38-.31-.2-.67-.44-.68-.45-4.62-2.98-6.34,1.77-14.59.39-1.73-.29-3.75-.85-6.14-1.81-2.08-.83-3.76.44-5,2.22.2.51.43,1.03.68,1.54.41.81.89,1.61,1.43,2.32-.13-.98,0-1.97.48-2.73,2.33-3.6,7.52,1.55,16.89-2.06h0Z"></path> <path class="cls-29" d="m76.22,127.15c4.14-6.42-5.27-13.75-7.29-15.05-.43-.28-.97-.59-.97-.59-.3-.2-.54-.44-.85-.64-.41-.26-.82-.54-1.24-.8-2.65-1.71-5.57-3.36-8.89-2.09-9.38,3.61-14.57-1.54-16.89,2.06-.49.76-.61,1.75-.48,2.73.63.83,1.34,1.54,2.13,2.05,2.59,1.67,4.93.31,7.52-1.52-2.47,1.23-5.22,2.1-6.78,1.09-.89-.57-.98-1.66-.61-2.23,1.54-2.39,9.39-2.72,14.04-2.73,1.68-.52,3.53-.65,5.61-.03,1.27.18,2.44.65,3.5,1.34,6.37,4.11,6.16,12.91,10.83,16.5.09.03.18.05.27.07.03-.05.07-.1.1-.15h0Zm-1.22-2.7c-2.49-1.61-1.2-5.92-3.14-8.65,0,0,0,0,0-.01.16-.24.56-.13.79.02.43.28.7.84.96,1.43,1.96,2.08,3.87,4.99,2.44,7.2-.2.31-.71.23-1.06,0h0Z"></path> <path class="cls-38" d="m73.63,117.24c-.27-.6-.53-1.15-.96-1.43-.23-.15-.63-.26-.79-.02,0,0,0,0,0,.01,1.93,2.72.65,7.04,3.14,8.65.35.23.86.31,1.06,0,1.43-2.21-.48-5.12-2.44-7.2h0Z"></path> <path class="cls-62" d="m61.52,109.39c1.11.33,2.28.88,3.54,1.68,2.81,1.81,3.99,5.04,5.11,8.16,1.07,2.97,2.07,5.84,4.36,7.32.46.3.91.54,1.33.67-4.68-3.59-4.46-12.38-10.83-16.5-1.06-.69-2.23-1.16-3.5-1.34h0Z"></path> <path class="cls-45" d="m30.54,100.11c-1.62-1.05-3.45-1.79-5.32-2.1.2.26.44.53.7.78,3.55,3.42,9.76,9.86,10.63,10.77-.48-2.96-.93-6.17-6.02-9.45Z"></path> <path class="cls-29" d="m29.58,93.61c-3.65-2.35-3.45-5.51-1.18-9.02.88-1.36,1.94-2.69,2.77-3.98,1.13-1.75,1.2-2.22.45-3.92-1.67-.34-3.4-.16-4.8,2.02-1.93,3-.58,7.65-1.67,10.81-.54,1.56-1.02,3.09-1.1,4.55.38.53.84.99,1.38,1.35,1.15.74,5.47,1.59,10.46,4.82,3.02,1.95,5.16,4.12,6.49,6.43.03.01.06.02.09.03.58.23,1.14.44,1.67.63-1.97-4.47-6.68-8.85-10.56-11.35-2.15-1.39-3.3-1.87-4.02-2.34h0Z"></path> <path class="cls-10" d="m32.09,88.5c-.59-.38-1.42-.54-2.11-.35-.27.21-.51.47-.7.76-.78,1.21-.62,2.66,1.23,3.86.73.47,1.5.88,2.24,1.35.78.5,1.56,1.19,1.56,1.19.31.2.64.19.84-.13.38-.59-2.19-6.12-3.06-6.68h0Z"></path> <path class="cls-10" d="m25.44,95.41c-.54-.35-1-.81-1.38-1.35-.07,1.38.21,2.71,1.16,3.95,1.87.32,3.69,1.05,5.32,2.1,5.08,3.28,5.54,6.49,6.02,9.45.07.07.1.11.1.11.08.05.16.1.25.15.4.23.84.42,1.26.62-.26-.51-.49-1.03-.68-1.54,1.22-1.75,2.86-3.01,4.91-2.25-1.33-2.31-3.47-4.47-6.49-6.43-4.99-3.22-9.31-4.07-10.46-4.82Z"></path> <path class="cls-65" d="m63.22,108.09s.37.25.68.45c2.17,1.4,4.8,2.77,7.24,4.34-1.28-1.73-2.78-3.29-4.48-4.38-6.09-3.93-14.18-1-18.94-4.07-3.18-2.05-5.18-5.94-6.73-9.63.59,2.49,1.71,5.25,3.71,8.4,1.35,1.21,2.61,2.51,3.91,3.34,2.41,1.55,4.51,1.34,6.79,1.7,3.08-.79,4.85-2.07,7.82-.15h0Z"></path> <path class="cls-30" d="m66.66,108.5c1.69,1.09,3.2,2.65,4.48,4.38.02.01.03.02.05.03,2.09,1.35,3.64,2.7,4.77,4.01.31-.23.65-.44,1.01-.64-1.08-3.19-3.74-5.89-6.85-7.9-8.44-5.45-14.74-3.2-19.95-6.56-4.46-2.88-4.26-9.9-9.67-13.83-.15,2.08-.1,4.31.49,6.81,1.56,3.68,3.56,7.57,6.73,9.63,4.76,3.07,12.85.14,18.94,4.07h0Z"></path> <path class="cls-7" d="m44.7,103.2c1.05,1.65,2.34,3.4,3.92,5.28,2.95.49,5.06.2,6.77-.24-2.28-.36-4.38-.15-6.79-1.7-1.3-.84-2.56-2.13-3.91-3.34Z"></path> <path class="cls-7" d="m105.07,102.25c-.44.19-.88.35-1.33.5-5.21,7.13-16.29,12.47-22.3,8.59,0,0,0,0,0,0,.36,1,.55,2.07.5,3.19,7.11-1.82,17.27-3.17,23-12.05.05-.08.1-.15.15-.23h0Z"></path> <path class="cls-65" d="m103.74,102.75c-.3.1-.61.18-.93.26-8.63,9.88-16.87,5.78-24.67,2.88.58.54,1.34,1.35,1.86,2.28.23.41.41.84.5,1.28.38.6.69,1.23.93,1.89,0,0,0,0,0,0,6.01,3.88,17.09-1.46,22.3-8.59h0Z"></path> <path class="cls-5" d="m119.2,83.73c-.07-.04-.14-.08-.21-.13,1.06,1.44.34,3.23-.2,4.69-.71,1.95-1.17,4.51.57,5.64.99.64,1.12.4,1.53-.23,1.72-2.66,1.44-7.95-1.7-9.98h0Z"></path> <path class="cls-33" d="m75.42,104.85c.97.63,2.18,1.53,2.99,2.58.3.11.59.25.89.39.45.52.85,1.06,1.21,1.63-.1-.44-.28-.87-.5-1.28-.87-1.57-2.45-2.81-2.65-2.94,0,0-13.45-7.15-16.75-9.28-.67-.43-1.33-.88-1.98-1.35-1.72-1.24-3.36-2.59-4.91-4.03-.05-.04-.09-.09-.14-.13,1.47,2.05,4.32,4.3,5.9,5.31,2.33,1.51,15.94,9.11,15.94,9.11h0Z"></path> <path class="cls-33" d="m50.9,87.74c-.19-.21-.38-.42-.57-.63-1.85-2.04-3.55-4.22-5.12-6.5.65,1.8,1.6,3.53,3.12,5.22,1.09,1.22,2.47,2.42,4.24,3.62-.57-.56-1.12-1.13-1.66-1.71h0Z"></path> <path class="cls-45" d="m56.38,96.82c-5.19-3.35-8.58-8.61-11.98-13.69-4.12-6.14-13.01-7.73-12.56-16.73-.8,3.74-.75,7.68,1.98,9.44.26.17.44.25.96.58.63.41,1.22.86,1.78,1.35,1.85,1.62,3.28,3.59,4.53,5.38,1.23,1.76,2.28,3.33,3.38,4.21,10.99,8.76,9.52,9.47,13.39,11.97,3.15,2.03,8.23,3.36,12.15,5.89.16.1.34.22.39.25,1.29.83,2.78,1.27,4.36,1.49-1.11-1.21-2.44-2.28-3.91-3.22-5.6-3.62-10.44-4.33-14.46-6.93h0Z"></path> <path class="cls-24" d="m78.41,107.43c-.81-1.05-2.02-1.95-2.99-2.58,0,0-13.61-7.6-15.94-9.11-1.57-1.02-4.42-3.26-5.9-5.31-.16-.15-.32-.3-.48-.46-.18-.17-.35-.34-.53-.52-1.77-1.2-3.15-2.4-4.24-3.62-12.31-8.7-2.63-18.33-13.61-27.26-.8,1.37-2.18,4.52-2.89,7.82-.44,9,8.44,10.58,12.56,16.73,3.41,5.07,6.79,10.34,11.98,13.69,4.02,2.59,8.85,3.31,14.46,6.93,1.46.95,2.8,2.01,3.91,3.22.76.11,1.54.16,2.33.18.47.01.92.13,1.34.28h0Zm-40.83-32.41c-2.35-1.51-5.5-7.82-2.41-12.76.03.36.24.67.45.88,4.43,4.56,3.55,10.38,2.57,11.9-.13.2-.4.11-.61-.02Z"></path> <path class="cls-20" d="m35.61,63.14c-.2-.21-.42-.53-.45-.88-3.09,4.94.07,11.24,2.41,12.76.21.13.48.22.61.02.98-1.52,1.85-7.34-2.57-11.9Z"></path> <path class="cls-24" d="m114.32,94.58c-2.56-.62-5.43-.48-7.92-.07-14.42,2.36-32.81-8.65-51.42-2.82.33.29.67.58,1.02.86.17.03.34.07.52.1,19.09-5.86,31.35,14.16,57.81,1.92h0Zm-14.41,1.39s.02,0,.02,0c.05.03,0,.13-.06.21-.19.29-8.33,2.76-22.03-3.07,7.44.36,14.72,1.29,22.07,2.85h0Z"></path> <path class="cls-50" d="m117.53,93.98c-1.98-1.28-4.3-1.6-6.66-1.38-1.64.16-3.31.57-4.91,1.12-.42.14-.94.24-1.56.3-.37.03-.77.06-1.2.07-10.54.2-39.08-7.38-49.5-3.52.41.38.83.76,1.26,1.13,18.61-5.83,37.01,5.17,51.42,2.82,2.49-.41,5.36-.56,7.92.07,1.13.27,2.19.69,3.14,1.31.12.08.24.16.35.24.05-.05.09-.11.13-.17.21-.32.52-1.37-.42-1.99h0Z"></path> <path class="cls-45" d="m117.47,95.89c-.95-.61-2.02-1.03-3.14-1.31-26.46,12.24-38.72-7.78-57.81-1.92,32.65,6.41,27.42,11.4,56.94,5.03,2-.82,3.64-.74,4.38-1.56-.11-.08-.23-.16-.35-.24h0Z"></path> <path class="cls-29" d="m56.51,92.66c-.17-.03-.34-.07-.52-.1.08.06.15.13.23.19.78.64,1.58,1.25,2.4,1.84,14.14,6.43,37.39,9.31,42.97,8.63,1.24-.15,2.38-.5,3.47-.97,2.69-1.15,5.09-3.01,7.91-4.35.16-.07.31-.14.46-.21-29.52,6.37-24.29,1.38-56.94-5.03h0Z"></path> <path class="cls-20" d="m99.87,96.19c.05-.08.11-.18.06-.21,0,0-.01,0-.02,0-7.35-1.56-14.64-2.49-22.07-2.85,13.71,5.84,21.85,3.36,22.03,3.07h0Z"></path> <path class="cls-57" d="m75.97,85.14c.83.19,1.73-.29,2.15-.94.8-1.25-.87-2.71-2.12-3.52-.88-.57-1.86-1.05-2.73-1.62-.18-.12-.36-.24-.45-.3-1.22-.79-2.51.11-5.38-1.74-2.32-1.5-4.22-4.04-5.52-4.88-1.03-.67-2.26-.97-3.44-.69.96,2.9,1.59,9.04,5.62,11.65,2.9,1.87,5.26.55,11.87,2.05h0Z"></path> <path class="cls-50" d="m59.7,87.37c6.97,4.5,25.17.58,42.8,6.71.25,0,.49,0,.72,0-.05-.32-.12-.62-.21-.91-3.3-1.7-11.56-5.5-17.77-6.17-8.54-.92-20.11.41-24.18-2.22-6.52-4.21-5.11-15.05-6.55-19.81-.04,1.83-.32,3.66-.8,5.44,2.87,6.88-.37,12.85,5.99,16.96h0Z"></path> <path class="cls-33" d="m59.7,87.37c-6.36-4.11-3.13-10.08-5.99-16.96-.31,1.14-.7,2.27-1.17,3.35.48,1.96.97,3.97,1.3,5.98,2.1,3.88,1.47,7.77,2.75,8.6,1.23.8,2.69.87,3.94,1.15,12.56-.39,32.86,4.5,41.97,4.6-17.63-6.13-35.83-2.22-42.8-6.71h0Z"></path> <path class="cls-17" d="m53.84,79.75c.57,3.54.64,7.06-.74,10.23.21.2.41.39.62.59,1.79-.66,4.12-.99,6.81-1.07-1.26-.28-2.71-.35-3.94-1.15-1.28-.82-.65-4.72-2.75-8.6h0Z"></path> <path class="cls-17" d="m57.45,55.5c-1.06,1.64-3.63.62-4.86,2.08,2.3-.38,4.65-.04,7.1.8.04-2.82,1.12-5.48,2.73-7.98,1.51-2.34,2.94-4.28,4.28-5.89-2.39,1.45-4.86,3.76-7.08,7.2-1.13,1.76-2.17,3.79-2.17,3.79h0Z"></path> <path class="cls-33" d="m57.12,53.68c-1.44,2.23-4.64,2.21-6.37,4.89-2.22,3.44-.34,9.8,1.83,15.38-.02-.06-.03-.13-.05-.19.13-.31.26-.62.38-.93-.24-2.08.41-5.07-.89-11.61-.22-1.1-.2-2.49.4-3.42.02-.03.04-.06.06-.09-.04-.03-.09-.06-.13-.09.08-.02.15-.03.23-.04,1.23-1.47,3.8-.44,4.86-2.08,0,0,1.03-2.03,2.17-3.79,2.22-3.45,4.69-5.75,7.08-7.2.54-.64,1.07-1.23,1.58-1.77-.22-.2-.45-.4-.69-.59-2.68,1.26-5.61,3.53-8.37,7.8-1.04,1.61-2.09,3.71-2.1,3.73h0Z"></path> <path class="cls-17" d="m52.02,61.22c1.3,6.54.65,9.53.89,11.61,1.76-4.57,2.18-9.7.69-14.31-.36-.28-.74-.55-1.11-.81-.02.03-.04.06-.06.09-.6.93-.62,2.32-.4,3.42Z"></path> <path class="cls-29" d="m43.1,50.51c.4-1.43-1.61-3.22-.79-4.49,1.94-3.01,12.61-6.01,18.58-7.42-3.02-.8-6.22-.62-9.1,1.15-3.7,2.28-10.88,4.43-11.84,5.92-.87,1.35,1.19,3.44.89,4.76-.3,1.31-.23,3.03.05,4.98.46,3.16,1.47,6.92,2.41,10.59.28-2.91,1.58-5.22,1.1-7.18-.68-2.8-2.14-5.31-1.3-8.3h0Z"></path> <path class="cls-24" d="m54.11,86.15c-1.65-4.31-2.15-8.92-3.96-13.43-2.48-6.2-3.22-13.82.11-18.98,2.94-4.55,7.17-4.52,12.11-9.64,1.09-1.13,2.88-1.57,4.68-2.38-.14-.11-.29-.21-.44-.32-3.82.33-13.81-.05-16.45,4.04-11.2,17.35,4.77,32.7,2.29,43.91.21.21.43.42.64.63.54-1.23.85-2.51,1.01-3.82h0Zm-6.16-33.92c.12-1.9.71-3.65,1.65-5.1,3.19-4.94,9.31-4.51,10.29-3.88.18.11.27.47,0,.88-.03.04-8.9,5.72-11.29,8.02-.06.06-.4.15-.66.08h0Z"></path> <path class="cls-50" d="m50.26,53.74c-3.33,5.17-2.6,12.78-.11,18.98,1.8,4.5,2.3,9.12,3.96,13.43.46-3.94-.53-8.18-1.52-12.19-2.18-5.59-4.05-11.95-1.83-15.38,1.73-2.68,4.93-2.66,6.37-4.89.01-.02,1.06-2.12,2.1-3.73,2.76-4.28,5.69-6.54,8.37-7.8-.18-.15-.36-.29-.54-.43-1.8.81-3.59,1.25-4.68,2.38-4.94,5.12-9.18,5.1-12.11,9.64h0Z"></path> <path class="cls-45" d="m50.17,45.44c2.64-4.09,12.63-3.71,16.45-4.04-.28-.2-.57-.4-.86-.59-1.5-.97-3.15-1.73-4.85-2.19-.01,0-.02,0-.03,0-5.97,1.41-16.63,4.41-18.58,7.42-.82,1.27,1.2,3.07.79,4.49-.84,2.99.62,5.5,1.3,8.3.48,1.97-.83,4.27-1.1,7.18.66,2.56,1.28,5.07,1.64,7.28.04.26.08.52.12.78.1.72.39,1.33.76,1.9.09.14.18.27.28.41.66.89,1.48,1.71,2.06,2.72.83,1.44,1.95,5.79,2.75,8.66.51.54,1.02,1.08,1.55,1.6,2.48-11.21-13.49-26.56-2.29-43.91h0Z"></path> <path class="cls-57" d="m59.89,43.25c-.98-.63-7.11-1.06-10.29,3.88-.94,1.45-1.52,3.2-1.65,5.1.26.07.6-.02.66-.08,2.38-2.29,11.26-7.97,11.29-8.02.27-.42.17-.77,0-.88h0Z"></path> <path class="cls-7" d="m61.6,38.82c1.46.46,2.86,1.15,4.16,1.99.9.58,1.74,1.23,2.52,1.94,2.16-2.26,4.12-3.62,5.92-4.34-1.51.47-3,1.24-4.39,2.2-2.26,1.55-4.71-1.33-8.2-1.77h0Z"></path> <path class="cls-20" d="m74.74,34.3c-3.15.75-6.7,1.22-9.86,2.33,1.72-.42,3.16-.19,5.34-.6,5.27-1,8.36-4.16,15.28.31,2.25,1.45,6.35,6.35,9.91,11.57-2.18-5.54-6.41-10.03-11.42-13.26-6.8-4.39-4.8-1.41-9.25-.35h0Z"></path> <path class="cls-24" d="m95.92,49.36c-.04-.1-.09-.2-.14-.3.01,0,.03,0,.04,0-.13-.39-.27-.77-.42-1.15-3.56-5.22-7.66-10.12-9.91-11.57-6.92-4.47-10.01-1.31-15.28-.31-2.18.41-3.63.18-5.34.6-.2.07-.4.15-.61.22-1.08.42-2.11.92-3.05,1.55,4.13.28,6.02,1.65,7.79.97,6.61-2.53,11.52-2.71,17.6,1.2,3.55,2.29,7.6,5.96,9.84,10.31-.14-.53-.31-1.04-.52-1.54h0Z"></path> <path class="cls-50" d="m69.01,39.38c-1.77.68-3.66-.69-7.79-.97-.1.07-.2.14-.3.21.23.06.46.13.69.2,3.49.44,5.94,3.33,8.2,1.77,1.39-.96,2.88-1.72,4.39-2.2,3.83-1.53,6.97-.16,9.9,1.72,4.52,2.92,8.04,7.76,11.9,11.67.29.3.56.61.79.93-.08-.62-.2-1.23-.35-1.82-2.24-4.36-6.29-8.03-9.84-10.31-6.07-3.92-10.98-3.74-17.6-1.2h0Z"></path> <path class="cls-24" d="m84.57,44.45s4.74,3.74,11.21,8.67c-5.05-6.51-12.41-12.19-12.49-12.24-6.7-4.33-14.19.71-19.66,7.7-.4.58-.8,1.19-1.22,1.83-1.61,2.5-2.69,5.16-2.73,7.98.09.03.18.06.26.1.59-1.01,1.23-2.06,1.91-3.11,8.85-13.71,17.51-14.28,22.71-10.92h0Z"></path> <path class="cls-42" d="m79.68,51.08s-.27-.19-.53-.36c-4.83-3.12-11.56-3.69-14.78,1.3,0,0-.33.87-3.65,6.74.24.09.47.19.71.29.67-1.26,1.08-2.47,1.98-3.87,1.43-2.22,3.52-4.11,5.85-4.97,1.66-1.82,5.01-1.47,7.07-.13,1.23.8,2.18,1.99,2.58,3.44,4-1.97,9.55-3.2,15.44-.24-.06-.04-.12-.08-.17-.12-4.9-3.16-14.5-2.08-14.5-2.08h0Z"></path> <path class="cls-33" d="m97.98,54.8c-.08-.07-.17-.14-.25-.2-.66-.5-1.31-.99-1.94-1.47-6.47-4.93-11.21-8.67-11.21-8.67-5.21-3.36-13.86-2.8-22.71,10.92-.68,1.05-1.31,2.1-1.91,3.11.25.09.51.18.76.28,3.32-5.87,3.65-6.74,3.65-6.74,3.22-4.99,9.95-4.42,14.78-1.3.26.17.53.36.53.36,0,0,9.6-1.08,14.5,2.08.06.04.11.08.17.12.59.3,1.19.64,1.79,1.02.08.05.74.7,1.64,1.66.3.32.63.68.97,1.06-.22-.76-.47-1.51-.78-2.22h0Zm-24.21-7.22c-.38-.25-.33-.87-.09-1.25.09-.15.22-.25.37-.34.05-.05.1-.1.16-.15,2.67-1.1,7.2-1.13,9.14.12.88.57,2.11,1.9,1.25,3.23-1.78,2.75-10.68-1.53-10.82-1.62Z"></path> <path class="cls-50" d="m83.34,45.97c-1.94-1.25-6.47-1.23-9.14-.12-.06.05-.11.1-.16.15-.15.08-.28.19-.37.34-.24.38-.29,1.01.09,1.25.14.09,9.05,4.37,10.82,1.62.86-1.33-.36-2.66-1.25-3.23Z"></path> <path class="cls-33" d="m98.43,55.97c.12.35.23.7.33,1.05.53.6,1.1,1.26,1.66,1.95,5.14-.64,10.68-1.41,15.4.76-5.28-3.12-13.31-1.03-16.63-3.17-.27-.17-.52-.37-.76-.58Z"></path> <path class="cls-24" d="m113.95,57.61c-.81-.52-10.79-5.62-17.29-5.73.05.28.1.56.13.84.73.98,1.23,2.08,1.63,3.24.24.21.49.41.76.58,3.32,2.14,11.35.05,16.63,3.17.39.18.77.37,1.14.59-.85-1.04-1.86-1.97-3-2.7h0Z"></path> <path class="cls-57" d="m114.17,79.52c-1.87,1.11-3.6,2.66-4.78,4.5-2.38,3.69-1.5,7.12-1.32,7.23.45.29,4.3-4.04,5.22-5.47,1.21-1.88,1.81-3.94.88-6.26h0Z"></path> <path class="cls-49" d="m108.92,63.52c-.37-.24-.77-.43-1.2-.59,2.26,1.52,3.62,3.4-.26,9.4-.45.69-.96,1.36-1.51,2.01,1.47-.84,2.79-2.21,3.95-4,1.63-2.52,1.34-5.33-.98-6.83Z"></path> <path class="cls-49" d="m111.38,62.81c-1.57-1.02-3.74-1.08-5.89-1.01.7.25,1.36.57,1.98.97.09.06.17.11.26.17.43.16.83.35,1.2.59,2.32,1.5,2.61,4.3.98,6.83-1.15,1.78-2.48,3.16-3.95,4-.68.79-1.41,1.54-2.17,2.25,2.73-1.33,5.19-3.88,7.19-6.98,2.93-4.53,2.23-5.62.4-6.8h0Z"></path> <path class="cls-29" d="m118.19,61.1c-.24-.16-.49-.32-.74-.49-2.64-1.71-5.62-2.27-8.68-2.33.53.09,1.05.2,1.57.36,2.29.73,4.7.99,6.71,2.3,2.38,1.53,6.25,5.02,4.71,7.4-.11.18-15.72,15.44-24.98,13.37,0,0-.02.01-.03.02.61.46,1.17.9,1.7,1.33,4.05-1.07,4.03.15,8.65-2.79,2.36-1.5,5.94-4.08,11.88-8.6.62-.47,1.26-.96,1.94-1.48.8-.61,1.57-1.34,2.1-2.17,1.45-2.25-.71-4.21-4.84-6.93h0Z"></path> <path class="cls-24" d="m121.77,68.35c1.54-2.38-2.33-5.86-4.71-7.4-2.02-1.3-4.42-1.57-6.71-2.3-.52-.16-1.04-.28-1.57-.36-2.77-.05-5.62.33-8.35.67.54.66,1.07,1.35,1.55,2.03,4.69-.69,9.61-2.17,13.77.51,1.89,1.22,1.79,3.01,1.01,4.22-2.48,3.84-10.99,12.05-17.53,14.45-.98.67-1.83,1.18-2.43,1.53,9.26,2.07,24.87-13.19,24.98-13.37h0Z"></path> <path class="cls-33" d="m115.73,61.51c-4.16-2.69-9.08-1.2-13.77-.51.04.06.09.12.13.18,1.15.03,2.31.23,3.39.62,2.15-.07,4.32,0,5.89,1.01,1.83,1.18,2.53,2.26-.4,6.8-2,3.1-4.46,5.65-7.19,6.98-1.55,1.44-3.19,2.66-4.57,3.59,6.55-2.4,15.06-10.61,17.53-14.45.78-1.2.88-3-1.01-4.22h0Z"></path> <path class="cls-45" d="m61.04,64.13c-3.76-2.43-4.21-4.12-5.46-4.93-.65-.42-1.44-.69-2.27-.89.1.07.19.14.29.22,4.42,3.41,7.79,8.21,9.03,9.01,1.39.89,5.37,1.46,8.17,3.26,3.27,2.11,7.46,8.32,12.66,11.67.02.01.04.02.06.04-3.51-3.94-5.34-9.38-10.07-12.44-2.56-1.66-8.21-3.23-12.4-5.94h0Z"></path> <path class="cls-17" d="m103.49,87.91c-1.03-1.38-2.66-2.94-5.04-4.85-.53-.43-1.1-.87-1.7-1.33-.24-.18-.48-.36-.73-.55-4.95-3.7-12.31-8.57-22.91-15.41-.99-.64-1.97-1.27-2.92-1.87-.41-.26-.82-.52-1.23-.77-1.54-.95-3.04-1.84-4.5-2.62-1.63-.87-3.22-1.59-4.78-2.12-2.43-.83-4.78-1.17-7.07-.8,6.65.79,12.73,3.41,18.34,7.03,3.98,2.57,8.35,6.23,11.7,9.33,1.44,1.1,3.68,2.72,6.68,4.65,2.89,1.86,5.82,3.64,8.69,5.49,3.85,2.48,5.99,5.3,6.92,8.01.12-1.3-.29-2.61-1.45-4.17h0Z"></path> <path class="cls-24" d="m104.94,92.08c-.93-2.71-3.07-5.52-6.92-8.01-2.87-1.85-5.8-3.62-8.69-5.49-2.99-1.93-5.23-3.56-6.68-4.65-3.35-3.1-7.72-6.75-11.7-9.33-5.61-3.62-11.69-6.24-18.34-7.03-.09.01-.17.03-.26.04.33.22.64.45.96.69.82.2,1.62.47,2.27.89,1.25.81,1.7,2.5,5.46,4.93,4.2,2.71,9.84,4.28,12.4,5.94,4.73,3.06,6.56,8.5,10.07,12.44,1.12.72,2.3,1.29,3.5,1.76,4.87,1.41,10.67,1.89,14.62,4.43,1.68,1.08,2.79,2.55,3.17,4.14.06-.26.11-.51.13-.77h0Z"></path> <path class="cls-45" d="m87.02,84.27c4.32,1.72,8.94,2.27,12.54,4.6,1.88,1.21,3.26,2.84,3.65,5.22.43,0,.83-.03,1.2-.07.17-.4.31-.79.41-1.17-.38-1.6-1.5-3.06-3.17-4.14-3.95-2.55-9.75-3.02-14.62-4.43h0Z"></path> <path class="cls-33" d="m100.27,72.42c.95-1.48.73-.09-10.49-2.66-.65-.15-1.5-.05-1.84.47,0,0,0,0,0,.01.58.46,1.21.91,1.87,1.34,5.6,3.61,9.6,2.2,10.47.85h0Z"></path> <path class="cls-52" d="m104.79,70.08c.04-.08.09-.15.14-.23.38-.59.85-1.13,1.23-1.72.16-.25.31-.53.43-.81-.03.06-.07.11-.1.17-.47.72-1.07,1.26-1.79,1.63-7.69,4.01-28.47-10.35-34.72-7.38.03.66.1,1.32.19,1.99,8.54-.21,26.4,8.41,34.62,6.35h0Z"></path> <path class="cls-34" d="m80.62,70.65c6.7,4.38,11.72,7.79,15.4,10.54,2.35-1.75,3.71-3.07,4.95-4.29.55-.65,1.12-1.39,1.59-2.11.58-.9.95-1.63,1.22-2.25-1.61,1.3-3.03,2.84-4.2,4.55-6.49,2.49-13.41-4.98-18.96-6.45h0Z"></path> <path class="cls-49" d="m101.04,73.02c-9.28,6.87-17.66-7.6-28.59-7.68.22.14.44.28.66.43,2.71,1.75,5.21,3.37,7.51,4.87,5.54,1.46,12.46,8.94,18.96,6.45,1.17-1.71,2.59-3.25,4.2-4.55.29-.66.46-1.19.64-1.67-1.19.59-2.31,1.36-3.38,2.15h0Z"></path> <path class="cls-57" d="m76.33,50.51c1.5.97,2.2,2.04,2.43,3.09.05-.03.1-.05.15-.08-.4-1.46-1.35-2.65-2.58-3.44-2.22-1.43-5.92-1.74-7.41.57-1.04,1.61-1.29,3.73-1.17,5.86,0,.17.02.34.03.51.31-2.06.65-4.48,1.67-6.07,1.68-2.6,4.92-1.7,6.88-.44h0Z"></path> <path class="cls-17" d="m70.14,55.24c-.69,1.08-.96,2.45-.62,3.84,0,0,.27,1.12.57,2.34.09-.04.18-.07.27-.11-.32-1.14.02-2.33.69-3.36,1.52-2.35,3.57-2.72,4.67-2.51.45-.32.95-.66,1.49-.98-.23-.32-.49-.57-.76-.75-1.38-.89-4.67-1-6.3,1.53h0Z"></path> <path class="cls-59" d="m75.86,51.1c-2.01-1.3-4.48-1.32-5.92.91-.14.22-.26.46-.36.7-.11.16-.22.32-.33.49-.42.66-.44,1.13-.28,1.24.15.1.51,0,.64-.21,0,0,.16-.39.36-.69,1.73-2.68,5.84-.45,6.41-1.34.25-.39-.24-.92-.51-1.1h0Z"></path> <path class="cls-33" d="m95.71,55.55c-5.07-3.27-16.15-4.17-22.27,5.23.26,0,.52,0,.79,0,2.91-2.7,10.99-8.89,18.3-5.01.28.15.56.31.84.49,4.04,2.61,2.17,5.75,6.18,8.34.93.6,1.9.85,2.84.88.19-2.47-.93-6.22-6.67-9.93h0Zm3.84,7.48c-1.72-1.11-1.94-2.56-2.49-3.61-.06-.45-.11-.9-.2-1.36-.11-.56-.72-.91-.56-1.15.08-.12.33,0,.45.08.07.04.13.09.19.13.04.03.38.2.62.36.59.38,4,4.12,3.32,6.1-.47-.09-.92-.28-1.32-.54h0Z"></path> <path class="cls-50" d="m96.86,58.06c.09.46.14.92.2,1.36.56,1.05.77,2.5,2.49,3.61.4.26.84.45,1.32.54.68-1.98-2.73-5.72-3.32-6.1-.23-.15-.58-.33-.62-.36-.06-.04-.13-.09-.19-.13-.12-.08-.37-.2-.45-.08-.16.24.45.59.56,1.15h0Z"></path> <path class="cls-29" d="m94.6,54.11c1.31.85,7.22,5.68,9.05,10.45.05-.06.11-.12.16-.18-.14-.47-.38-.99-.68-1.54-.29-.53-.65-1.09-1.04-1.66-.51-.74-1.09-1.49-1.67-2.21-.56-.69-1.13-1.35-1.66-1.95-1.37-1.54-2.5-2.65-2.62-2.72-6.54-4.22-12.83-2.95-17.23-.78-2.48,1.22-4.35,2.72-5.33,3.69,6.77-4.67,14.07-7.58,21.03-3.09h0Z"></path> <path class="cls-31" d="m75.44,60.85c1.68.15,3.51.5,5.41.96,3.12-.57,5.81-2.5,8.14-4.68-.26.08-.51.19-.73.33-8.67,5.47-10.11,1.86-12.82,3.38h0Z"></path> <path class="cls-35" d="m74.89,60.81c.18.01.37.03.55.04,2.71-1.52,4.15,2.09,12.82-3.38.22-.14.47-.25.73-.33.01-.01.03-.02.04-.03.15-.11.29-.22.42-.33-.02-.2.01-.38.09-.52-3.91.12-9.47-.55-14.66,4.56h0Z"></path> <path class="cls-49" d="m99.54,64.6c-4.01-2.59-2.14-5.73-6.18-8.34-.28-.18-.56-.34-.84-.49-.05.02-.09.04-.14.06.09.04.17.09.26.15,1.69,1.09,2.73,4.02,3.76,5.69.74,1.2.43,2.68,1.05,3.94.06.13.12.26.18.38,1.89.19,3.51.09,4.74-.49v-.02c-.94-.03-1.91-.28-2.84-.88h0Z"></path> <path class="cls-45" d="m94.6,54.11c-6.96-4.49-14.25-1.58-21.03,3.09-.35.34-.58.62-.69.79-.59.91-.92,1.94-.38,2.85.3-.03.62-.05.94-.06,6.12-9.41,17.2-8.51,22.27-5.23,5.74,3.71,6.86,7.46,6.67,9.93v.02s.02-.01.03-.02c.48-.23.9-.53,1.24-.92-1.84-4.77-7.74-9.6-9.05-10.45h0Z"></path> <path class="cls-49" d="m74.23,60.79c.22,0,.44.02.66.03,5.19-5.11,10.75-4.44,14.66-4.56,0-.01.01-.03.02-.04.31-.48,1.61-.99,2.82-.39.05-.02.09-.04.14-.06-7.3-3.87-15.38,2.31-18.3,5.01h0Z"></path> <path class="cls-34" d="m70.78,60.92s.02-.03.03-.05c.2-.31.5-.53.69-.82.05-.08.34-1.25.82-1.99.52-.8,1.2-1.2,1.8-1.36.44-.39.97-.82,1.6-1.27-1.09-.21-3.15.16-4.67,2.51-.67,1.03-1.01,2.22-.69,3.36.1-.03.19-.07.29-.1.01-.07.03-.13.07-.2.03-.04.05-.07.07-.1h0Z"></path> <path class="cls-35" d="m72.89,57.99c.16-.25.58-.71,1.23-1.28-.6.16-1.28.56-1.8,1.36-.48.74-.76,1.9-.82,1.99-.18.29-.49.51-.69.82-.01.02-.02.03-.03.05-.02.03-.04.06-.07.1-.04.06-.06.13-.07.2.57-.19,1.19-.31,1.86-.38-.53-.91-.2-1.94.38-2.85h0Z"></path> <path class="cls-42" d="m104.79,70.08c-8.22,2.06-26.08-6.56-34.62-6.35,0,.05.01.11.02.16.74.47,1.5.96,2.26,1.45,10.93.08,19.31,14.55,28.59,7.68,1.08-.8,2.2-1.57,3.38-2.15.11-.28.22-.53.36-.79h0Zm-4.51,2.33c-.87,1.35-4.88,2.77-10.47-.85-.66-.42-1.28-.88-1.87-1.34,0,0,0,0,0-.01.34-.52,1.19-.62,1.84-.47,11.22,2.58,11.44,1.18,10.49,2.66h0Z"></path> <path class="cls-40" d="m92.8,58.1c-1.45,2.49,1.76,4.17,4.58,7.85.09.01.17.02.26.03-.05-.12-.11-.25-.18-.38-.48-.97-.41-2.05-.68-3.05-1-2.31-2.39-3.89-2.76-4.13-.35-.23-.75-.35-1.23-.32Z"></path> <path class="cls-31" d="m97.38,65.95c-2.82-3.68-6.03-5.35-4.58-7.85.47-.03.87.09,1.23.32.37.24,1.76,1.82,2.76,4.13-.08-.31-.2-.61-.37-.89-1.03-1.67-2.07-4.6-3.76-5.69,0,0,0,0,0,0-.46-.1-.89.16-1.06.43-.99,1.54.06,3.82,1.51,5.83,1.3,1.44,2.66,2.79,3.53,3.62.26.04.51.07.76.1h0Z"></path> <path class="cls-24" d="m91.58,56.4c.17-.27.6-.53,1.06-.43-1.28-.82-2.74-.27-3.07.25-.1.15-.13.34-.11.56.1,1.23,1.81,3.43,3.64,5.45-1.45-2.01-2.51-4.29-1.51-5.83Z"></path> <path class="cls-19" d="m94.24,64.41c-2.61-1.68-5.18-3.82-5.53-7.01-.35.32-.71.64-1.07.94-.09.12-.18.25-.28.38-.42.37-.84.78-1.12,1.22-.79,1.23-.06,2.38.95,3.03.67.43,5.45,1.79,8.96,2.55-.47-.23-1.08-.57-1.91-1.11h0Z"></path> <path class="cls-25" d="m96.38,65.62c-.07-.03-.15-.07-.23-.11-3.51-.76-8.29-2.12-8.96-2.55-1.01-.65-1.74-1.8-.95-3.03.28-.44.71-.85,1.12-1.22.1-.13.2-.26.28-.38-1.02.84-2.09,1.6-3.24,2.21-1.12.59-2.3,1.04-3.54,1.27,4.85,1.17,10.16,3.01,14.54,3.83.42.08.82.15,1.22.21-.08-.07-.16-.15-.24-.23h0Z"></path> <path class="cls-42" d="m96.3,65.55c-2.24-2.17-6.69-6.77-6.85-8.77-.13.11-.27.22-.42.33-.1.1-.21.2-.32.29.35,3.19,2.92,5.33,5.53,7.01.83.54,1.44.88,1.91,1.11.08.04.15.07.23.11-.02-.02-.05-.05-.08-.07h0Z"></path> <path class="cls-49" d="m104.26,65.54c.27-.43.42-1.48-.42-2.57-.24-.05-.48-.1-.71-.13.3.55.54,1.07.68,1.54-1.21,1.53-3.41,1.88-6.17,1.6-.33-.03-.67-.08-1.02-.13-4.59-.67-10.45-2.75-15.76-4.04-3.09-.74-5.99-1.21-8.36-.98-.93.09-1.77.29-2.52.63,9.82-1.79,31.02,9.13,34.28,4.07h0Z"></path> <path class="cls-42" d="m105.83,67.71c.74-1.15.94-2.48.4-3.63-.13-.11-.27-.21-.42-.31-.49-.32-1.08-.56-1.68-.73-.1-.03-.19-.05-.29-.07.84,1.09.69,2.14.42,2.57-3.26,5.05-24.46-5.87-34.28-4.07,0,0-.02,0-.02,0,0,.09,0,.18.01.27,1.83-.87,4.89-.25,8.51.95,9.75,2.39,24.39,9.59,27.35,5.01h0Z"></path> <path class="cls-25" d="m105.75,69.89c.5-.77,1.19-1.52,1.67-2.27.85-1.32,1.01-2.68-1.36-4.2-.89-.58-1.96-.92-3.05-.79.04.07.08.14.12.21.33.04.67.11,1,.2.61.16,1.19.41,1.68.73,1.26.81,1.62,1.89.94,3.25-.05.1-.11.2-.17.3-.12.28-.27.56-.43.81-.39.6-.86,1.14-1.23,1.72-.76,1.18-.71,2.36-2.36,4.93-.47.72-1.04,1.46-1.59,2.11-1.08,1.07-2.25,2.2-4.1,3.64,2.38-1.31,5.09-3.55,6.69-6.02,1.6-2.48,1.35-3.34,2.18-4.62h0Z"></path> <path class="cls-19" d="m107.03,63.18c-1.35-.87-2.97-1.26-4.59-1.47.21.31.39.62.57.93,1.09-.13,2.16.21,3.05.79,2.36,1.53,2.21,2.88,1.36,4.2-.48.75-1.17,1.5-1.67,2.27-.83,1.28-.58,2.15-2.18,4.62-1.59,2.47-4.31,4.71-6.69,6.02-.27.21-.55.43-.85.65.25.19.49.37.73.55.49-.29,1.17-.7,1.96-1.22,3.53-2.88,7.14-6.2,8.4-8.16,2.3-3.56,3.64-6.78-.07-9.18h0Z"></path> <path class="cls-29" d="m107.47,62.77c-1.58-1.02-3.49-1.54-5.37-1.59.12.18.24.35.35.53,1.62.22,3.24.61,4.59,1.47,3.71,2.4,2.37,5.62.07,9.18-1.26,1.95-4.87,5.28-8.4,8.16,2.63-1.73,6.47-4.65,8.75-8.18,4.02-6.23,2.42-8.01,0-9.57h0Z"></path> <path class="cls-26" d="m106.63,80.57c-4.15,2.55-4.27,1.45-8.18,2.49.36.29.71.57,1.03.85,1.39-.48,4.75-.17,7.14-3.34h0Z"></path> <path class="cls-3" d="m105.09,84.77s-.07.1-.1.15c-.09.14-.18.28-.26.41-.92,1.43-1.41,1.53-1.95,1.18-.24-.16-.48-.39-.74-.58-.15-.06-.3-.11-.44-.14.78.76,1.4,1.45,1.89,2.11.5-.85,1.05-1.95,1.6-3.14h0Z"></path> <path class="cls-53" d="m105,84.92s.07-.1.1-.15c.68-1.47,1.38-3.07,2.02-4.5-.08.05-.16.1-.24.15-.37.79-.77,1.59-1.23,2.31-2.37,3.67-4.09,2.52-5.16,2.04.4.36.77.71,1.12,1.04.15.02.3.08.44.14.26.19.49.42.74.58.54.35,1.03.25,1.95-1.18.09-.14.18-.28.26-.41h0Z"></path> <path class="cls-13" d="m105.64,82.73c.47-.72.86-1.52,1.23-2.31-.08.05-.16.1-.24.15-2.39,3.17-5.76,2.86-7.14,3.34.35.29.68.58.99.86,1.07.48,2.79,1.64,5.16-2.04h0Z"></path> <path class="cls-52" d="m68.95,63.1c-.44-1.68-1.07-4.14-1.2-6.6-.21.29-.42.58-.64.87.83,1.41.63,3.46,1.84,5.73Z"></path> <path class="cls-49" d="m68.95,63.1c-1.21-2.27-1.01-4.32-1.84-5.73-.47.63-.96,1.25-1.46,1.85-.64,1.43,1.49,2.21,2.87,3.63.15.09.3.18.44.27,0,0,0-.02,0-.02h0Z"></path> <path class="cls-34" d="m65.65,59.22c-.38.44-.77.88-1.18,1.29,1.32.7,2.67,1.49,4.05,2.34-1.38-1.43-3.51-2.2-2.87-3.63h0Z"></path> <path class="cls-17" d="m45.57,78.01c-.24.79-.43,1.58-.52,2.37,1.62,2.37,3.4,4.64,5.32,6.77-1.42-3.28-4.68-4.69-4.8-9.14h0Z"></path> <path class="cls-47" d="m50.77,87.26c-.79-2.85-1.84-6.81-2.62-8.17-.58-1.01-1.4-1.83-2.06-2.72-.06.19-.12.37-.18.56.54,1.09,1.81,1.87,2.25,3.03.73,1.93,1.69,5.5,2.62,7.3h0Z"></path> <path class="cls-58" d="m50.77,87.26c-.93-1.8-1.89-5.37-2.62-7.3-.44-1.16-1.7-1.94-2.25-3.03-.12.36-.23.72-.34,1.09.11,4.44,3.38,5.86,4.8,9.14.18.2.36.4.54.59-.04-.16-.09-.32-.13-.49h0Z"></path> <path class="cls-17" d="m106.42,67.57c.75-1.16.68-2.53-.14-3.38.48,1.13.28,2.41-.44,3.53-2.95,4.58-17.6-2.63-27.35-5.01,3.94,1.31,8.53,3.31,12.89,4.86,2.6.69,6.6,1.9,8.34,1.99,2.59.13,5.3.19,6.71-1.98h0Z"></path> <path class="cls-29" d="m106.24,64.08s.03.07.04.1c.82.85.89,2.23.14,3.38-1.4,2.17-4.12,2.11-6.71,1.98-1.74-.09-5.74-1.3-8.34-1.99,5.34,1.9,10.32,3.13,13.32,1.57.72-.38,1.32-.91,1.79-1.63.91-1.41.77-2.54-.25-3.41h0Z"></path> <path class="cls-29" d="m83.72,40.01c.83.53.69.77,1.36,1.2.24.16.51.29.74.44,1.5.97,3.94,4.32,6.84,6.53-2.67-2.98-5.37-6-8.56-8.07-4.16-2.69-8.76-4.32-15.15,1.94,3.89-3.2,8.98-5.8,14.78-2.05h0Z"></path> <path class="cls-45" d="m96.8,52.72c-.24-.32-.5-.63-.79-.93-1.13-1.15-2.23-2.37-3.34-3.61-2.91-2.21-5.33-5.56-6.84-6.53-.24-.15-.5-.28-.74-.44-.67-.43-.53-.67-1.36-1.2-5.8-3.74-10.89-1.15-14.78,2.05-.22.21-.44.44-.66.67-1.45,1.52-3,3.44-4.65,5.84,5.47-6.99,12.96-12.03,19.66-7.7.08.05,7.44,5.73,12.49,12.24.63.48,1.28.97,1.94,1.47.09.07.17.13.25.2-.32-.73-.7-1.43-1.18-2.07h0Z"></path> <path class="cls-57" d="m94.49,86.63c.75.31,1.76.69,2.86,1.06-.92-.41-1.87-.75-2.86-1.06Z"></path> <path class="cls-57" d="m91.72,85.81c-.55-.16-1.11-.32-1.66-.49.08.07.15.14.24.2.22.14.78.2,1.42.29h0Z"></path> <path class="cls-63" d="m116.76,85.77c.59-1.63,1.2-3.25,1.14-4.98-.02-.39-.07-.8-.16-1.21-.08.33-.17.66-.27.98-.84,2.96-2.04,5.8-3.68,8.34-.85,1.32-1.82,2.56-2.93,3.69.8-.08,1.6-.09,2.38-.02-.04-1.34.9-2.89,1.88-4.4.52-.81,1.08-1.61,1.63-2.4h0Z"></path> <path class="cls-2" d="m116.04,92.47c-.81-2.41-.06-4.56.72-6.7-.55.79-1.11,1.59-1.63,2.4-.97,1.51-1.91,3.06-1.88,4.4,1.03.09,2.03.31,2.97.71-.03-.25-.09-.53-.18-.82h0Z"></path> <path class="cls-12" d="m116.76,85.77c.57-.82,1.14-1.64,1.68-2.48.37-.57.73-1.16,1.06-1.75-.51-.28-.98-.44-1.6-.75.07,1.73-.54,3.35-1.14,4.98Z"></path> <path class="cls-43" d="m120.32,79.89c.21-.48.4-.97.56-1.47-.84-.61-1.73-1.26-2.5-1.83-.1.57-.21,1.14-.34,1.7.07.04.13.08.2.13.75.48,1.43.97,2.08,1.47h0Z"></path> <path class="cls-29" d="m123.89,80.61s-1.41-1.03-3-2.19c-.16.5-.35.99-.56,1.47,7.31,5.67,7.9,12.33,3.66,18.89-5.85,9.07-30.99,13.91-42.81,17.86,3.12-.12,6.56.43,8.75-.59,4.9-2.29,9.9-1.92,14.84-3.99.18-.08,2.62-1.26,5.82-2.89,1.95-.99,4.18-2.15,6.36-3.34,3.13-1.89,5.82-3.9,7.4-6.34,3.69-5.71,6.13-14.08-.44-18.89h0Z"></path> <path class="cls-27" d="m121.03,77.95c-.86-.6-1.73-1.19-2.57-1.78-.02.14-.05.28-.07.42.77.56,1.66,1.21,2.5,1.83.05-.15.1-.31.14-.47h0Z"></path> <path class="cls-38" d="m129.01,87.42c-.86-4.17-4.38-6.96-7.98-9.47-.05.16-.09.31-.14.47,1.6,1.17,3,2.19,3,2.19,6.57,4.8,4.13,13.17.44,18.89-1.57,2.44-4.27,4.45-7.4,6.34,4.74-2.57,9.23-5.23,10.04-6.49,1-1.56,2.32-10.54,2.03-11.93Z"></path> <path class="cls-45" d="m120.32,79.89c-.25.56-.53,1.12-.83,1.66.14.08.28.16.43.26,3.08,1.99,5.55,7.49,2.48,12.24-2.64,4.1-20.93,14.54-27.66,16.77-4.39,1.91-9.04,2.75-12.82,3.72-2.46.63-4.55,1.32-5.97,2.39.25.28.47.56.68.84,1.25-.8,2.84-1.06,4.53-1.13,11.82-3.96,36.96-8.8,42.81-17.86,4.23-6.56,3.65-13.22-3.66-18.89Z"></path> <path class="cls-51" d="m119.5,81.54c.3-.54.58-1.09.83-1.66-.64-.5-1.33-.99-2.08-1.47-.07-.04-.13-.08-.2-.13-.1.43-.2.87-.31,1.3.09.41.14.81.16,1.21.62.31,1.09.48,1.6.75h0Z"></path> <path class="cls-8" d="m113.94,97.5c-.31.11-.63.24-.96.39-2.82,1.35-5.22,3.2-7.91,4.35-.05.08-.1.15-.15.23-.68,1.05-1.43,2-2.22,2.86,2.46-1.8,3.6-3.1,7.23-4.72,1.44-1.11,2.84-2.2,4-3.11h0Z"></path> <path class="cls-2" d="m101.92,106.75c.08-.06,4.16-3.16,8.01-6.13-3.63,1.62-4.77,2.93-7.23,4.72-1.24,1.33-2.59,2.44-4.02,3.37,1.15-.58,2.25-1.24,3.24-1.96Z"></path> <path class="cls-56" d="m109.94,100.62c-3.86,2.98-7.93,6.08-8.01,6.13-.99.72-2.08,1.38-3.24,1.96-1.26.82-2.59,1.51-3.94,2.1,6.73-2.23,25.02-12.67,27.66-16.77,3.07-4.76.59-10.26-2.48-12.24-.15-.1-.3-.18-.43-.26-.33.59-.69,1.18-1.06,1.75-.54.84-1.11,1.66-1.68,2.48-.78,2.13-1.54,4.28-.72,6.7.1.29.16.56.18.82.45.19.89.42,1.31.69.95.61.63,1.66.42,1.99s-.5.51-.89.66c-1.34,1.36-6.04,3.52-6.44,3.69-.24.1-.47.2-.69.3h0Zm8.86-12.31c.53-1.47,1.25-3.26.2-4.69.07.04.14.08.21.13,3.14,2.03,3.42,7.32,1.7,9.98-.41.64-.54.87-1.53.23-1.74-1.13-1.28-3.69-.57-5.64Z"></path> <path class="cls-22" d="m110.63,100.32c.4-.17,5.1-2.33,6.44-3.69-.77.31-1.86.43-3.13.88-1.16.91-2.56,2-4,3.11.22-.1.45-.2.69-.3h0Z"></path> <path class="cls-8" d="m96.91,114.05c-1.72.32-3.43.66-5.14,1.25-.9.48-1.79.85-2.65,1.13,2.45-.08,4.88-.46,7.32-.94.13-.48.28-.96.47-1.44h0Z"></path> <path class="cls-2" d="m95.84,118.54s.17-1.46.6-3.06c-2.44.49-4.87.87-7.32.94-4.69,1.52-8.7.58-10.47,3.33-.17.26-.31.56-.4.89.5,1.35.61,2.56.53,3.53.17-.38.36-.73.57-1.06,4.26-6.59,15.23-2.6,16.5-4.57Z"></path> <path class="cls-39" d="m102.45,114.18c.91-.2,1.85-.27,2.79-.27,1.74-.68,3.49-.65,4.77-.03-.28-1.96.45-2.98.56-4.71-3.2,1.63-5.64,2.81-5.82,2.89-2.61,1.09-5.23,1.5-7.85,1.99-.18.47-.34.96-.47,1.44,1.99-.4,3.99-.87,6.01-1.3h0Z"></path> <path class="cls-36" d="m81.03,128.79c2.87,1.85,5.73-1.25,7.47-3.94.12-.19.27-.43.3-.47,2.27-3.52,7.13-4.2,11.16-3.22-.3-1.17.15-2.4.86-3.5,1.23-1.91,2.82-3.13,4.42-3.75-.95,0-1.89.08-2.79.27-2.02.43-4.02.9-6.01,1.3-.43,1.6-.58,3.02-.6,3.06-1.27,1.97-12.24-2.03-16.5,4.57-.21.33-.4.68-.57,1.06-.08,1.01-.36,1.76-.61,2.17.1.06.2.11.3.18,1.35.87,1.44,1.55,2.58,2.28h0Zm6.38-7.66c.27.17.45.57.15,1.04-.02.02-1.65,1.76-2.38,2.89-.44.68-.87,1.64-.92,1.71-.74,1.14-1.59,1.1-2.55.48-1.06-.68-1.28-1.94-.9-3.06,1.53-1.44,5.75-3.61,6.61-3.06h0Z"></path> <path class="cls-64" d="m105.24,113.91c1.65,0,3.32.22,4.86.43-.03-.16-.06-.31-.08-.46-1.29-.62-3.03-.65-4.77.03Z"></path> <path class="cls-10" d="m110.09,114.34c-1.54-.21-3.21-.43-4.86-.43-1.59.62-3.18,1.84-4.42,3.75-.71,1.1-1.16,2.33-.86,3.5-4.04-.98-8.89-.3-11.16,3.22-.03.04-.17.28-.3.47-1.74,2.69-4.6,5.79-7.47,3.94-1.13-.73-1.23-1.41-2.58-2.28-.1-.06-.2-.12-.3-.18,0,.02-.02.03-.03.05-.15.24-.31.42-.48.57.61,1.58,1.65,2.95,2.97,3.8,6.7,4.33,9.59-6.41,12.1-4.85.03.02.07.04.1.06,2.59-.42,5.38,2.52,7.21.48,2.56-2.85,5.58-4.45,9.46-4.78.91-.08,1.49-.45,1.83-.99.38-.58.48-1.43.43-2.27-.96-1.74-1.45-3.02-1.67-4.06h0Z"></path> <path class="cls-36" d="m67.94,117.18c-.14-.43-.32-.87-.52-1.3-5.48.04-7.03-7.57-16.2-1.8.23.24.46.48.7.71,3.42,1.25,11.05,4.44,16.02,2.39h0Zm-12.08-2.33c-.54-.35-.48-.77-.38-.92.14-.22.48-.21.84-.13,1.94-.84,3.93-.05,5.65,1.06,1.66,1.07,1.65,1.18,1.46,1.48-.69,1.07-6.74-.96-7.56-1.49h0Z"></path> <path class="cls-54" d="m67.94,117.18c.42-.17.82-.39,1.2-.64-.11-.27-.23-.54-.36-.81-.48.11-.93.15-1.36.16.2.43.38.86.52,1.3h0Z"></path> <path class="cls-1" d="m62.81,110.63c1.01.32,1.92.79,2.76,1.33.69.45,1.37,1,2,1.61-.67-.97-1.48-1.83-2.51-2.49-1.83-1.18-3.5-1.8-5.03-2.01.87.39,1.7.86,2.51,1.38.09.06.18.12.28.19h0Z"></path> <path class="cls-6" d="m62.81,110.63c-.09-.06-.18-.13-.28-.19-.81-.52-1.64-.99-2.51-1.38-4.04-.57-7.17,1.65-9.96,3.65.14.18.28.35.42.53,5.52-3.26,9.34-3.57,12.32-2.61h0Z"></path> <path class="cls-61" d="m69.14,116.54c-.38.25-.78.46-1.2.64.28.85.45,1.7.53,2.54.57-.13,1.14-.29,1.7-.49-.32-.9-.65-1.81-1.03-2.69h0Z"></path> <path class="cls-2" d="m67.94,117.18c-4.98,2.05-12.61-1.13-16.02-2.39.88.85,1.85,1.62,2.88,2.29,4.04,2.61,9.05,3.7,13.67,2.64-.08-.84-.25-1.7-.53-2.54h0Z"></path> <path class="cls-44" d="m62.81,110.63c2.2,1.49,3.71,3.32,4.62,5.25.43,0,.88-.05,1.36-.16-.35-.76-.75-1.48-1.21-2.15-.64-.61-1.31-1.16-2-1.61-.85-.55-1.76-1.01-2.76-1.33h0Z"></path> <path class="cls-29" d="m67.42,115.88c-.91-1.93-2.41-3.76-4.62-5.25-2.98-.95-6.8-.64-12.32,2.61.24.29.48.57.73.84,9.18-5.77,10.72,1.84,16.2,1.8h0Z"></path> <path class="cls-36" d="m41.94,97.85c-2.35-3.36-4.83-6.63-5.81-10.52.54-1.5.96-3.01,1.19-4.53-.42-1.31-1.02-2.68-1.92-4.09-1.62,4.25-5.64,10.27,8.52,25.28,1.36,1.44,3.02,2.89,4.42,4.45.09.02.19.03.28.05-3.42-4.07-5.48-7.55-6.68-10.64h0Z"></path> <path class="cls-54" d="m37.33,82.79c.21-1.4.26-2.8.1-4.19-.28-.28-.57-.56-.88-.83-.26.07-.54.09-.84.06-.08.28-.18.57-.3.87.9,1.41,1.5,2.78,1.92,4.09h0Z"></path> <path class="cls-32" d="m40.04,85.97c0,1.44.13,2.9.39,4.33-.04-2.58.35-4.9.64-7.16-1.01-1.45-2.15-3.02-3.53-4.43,1.01,3.74,2.5,5.11,2.5,7.25h0Z"></path> <path class="cls-2" d="m37.33,82.79c-.23,1.52-.65,3.04-1.19,4.53.98,3.89,3.46,7.16,5.81,10.52-.17-.45-.33-.88-.47-1.31-3.81-3.78-2.43-8.34-4.15-13.74h0Z"></path> <path class="cls-41" d="m41.48,96.54c-.74-2.27-1.01-4.32-1.04-6.23-.26-1.43-.39-2.89-.39-4.33,0-2.14-1.49-3.52-2.5-7.25-.04-.04-.08-.08-.12-.12.16,1.4.11,2.8-.1,4.19,1.72,5.4.34,9.96,4.15,13.74h0Z"></path> <path class="cls-11" d="m35.71,77.83c-.33-.03-.68-.12-1.06-.23.27.37.53.74.76,1.1.11-.3.22-.59.3-.87h0Z"></path> <path class="cls-45" d="m35.41,78.7c-.23-.36-.48-.73-.76-1.1-.92-.27-1.96-.7-3.02-.92.75,1.7.68,2.18-.45,3.92-.83,1.29-1.9,2.62-2.77,3.98-2.27,3.51-2.47,6.67,1.18,9.02.73.47,1.87.96,4.02,2.34,3.87,2.5,8.59,6.88,10.56,11.35,1.56.54,2.95.9,4.19,1.13-1.4-1.56-3.06-3.01-4.42-4.45-14.16-15.01-10.14-21.03-8.52-25.28Zm-1.1,16.6s-.78-.68-1.56-1.19c-.74-.48-1.51-.88-2.24-1.35-1.85-1.2-2.01-2.65-1.23-3.86.19-.29.43-.55.7-.76.68-.18,1.51-.03,2.11.35.87.56,3.43,6.09,3.06,6.68-.2.32-.53.33-.84.13h0Z"></path> <path class="cls-21" d="m47.94,90.72c.36.24.69.48.98.73-.2-.31-.41-.61-.61-.93-1.08-.92-2.35-1.97-3.86-3.17-1.1-.88-2.15-2.45-3.38-4.21-.12.94-.26,1.9-.37,2.87.53.67,1.22,1.19,1.95,1.66,2.03,1.31,3.81,2.08,5.29,3.04h0Z"></path> <path class="cls-55" d="m57.15,99.03c2.58,1.66,6.25,3.21,9.67,4.46-3.21-1.52-6.63-2.65-8.98-4.16-3.34-2.16-2.7-2.98-9.54-8.8.2.31.4.62.61.93,2.21,1.86,2.93,4.16,8.24,7.58h0Z"></path> <path class="cls-48" d="m48.92,91.45c2.55,3.82,5.33,7.06,9.01,9.79.79.34,1.39.55,1.4.56.21.14.56.44.42.69,4.53,2.91,9.72,4.64,15.09,4.49-1.61-.21-3.14-.66-4.45-1.51-.05-.03-.22-.15-.39-.25-1-.64-2.07-1.21-3.17-1.73-3.42-1.25-7.1-2.79-9.67-4.46-5.3-3.42-6.03-5.73-8.24-7.58h0Z"></path> <path class="cls-2" d="m80.5,109.44c-.35-.57-.76-1.11-1.21-1.63-.71-.34-1.42-.65-2.23-.67-.76-.02-1.51-.07-2.24-.17-5.37.15-10.56-1.58-15.09-4.49,0,0,0,.01,0,.02-.65,1-7.24-1.07-8.1-1.63-3.45-2.23-3.01-5.24-4.33-6.95.76-.36,1.76-.08,2.55.43,1.45.94,2.1,3.34,5.74,5.69.73.47,1.61.89,2.33,1.21-3.68-2.72-6.46-5.97-9.01-9.79-.3-.25-.62-.49-.98-.73-1.48-.95-3.25-1.73-5.29-3.04-.73-.47-1.42-1-1.95-1.66-.08.65-.15,1.31-.2,1.98,5.4,3.92,5.2,10.95,9.67,13.83,5.21,3.36,11.51,1.11,19.95,6.56,3.11,2.01,5.77,4.71,6.85,7.9,1.33-.72,3.03-1.25,4.95-1.75.08-1.87-.48-3.56-1.42-5.09h0Z"></path> <path class="cls-55" d="m59.33,101.79s-.61-.22-1.4-.56c.56.42,1.15.82,1.76,1.22.02.01.03.02.05.03.14-.25-.2-.55-.42-.69h0Z"></path> <path class="cls-21" d="m57.93,101.24c-.72-.31-1.6-.74-2.33-1.21-3.64-2.35-4.29-4.75-5.74-5.69-.79-.51-1.79-.79-2.55-.43,1.31,1.72.87,4.73,4.33,6.95.87.56,7.46,2.63,8.1,1.63,0,0,0-.01,0-.02-.02-.01-.03-.02-.05-.03-.61-.39-1.2-.8-1.76-1.22h0Z"></path> <path class="cls-46" d="m89.88,104.92c2.47-.1,4.99.04,5.83.58.06.04.11.07.16.1,2.41-.29,4.65-1.26,6.77-2.56-.34.08-.69.14-1.04.18-1.7.21-5.02.08-9.23-.37-3.69.18-6.75.25-9.3.22,1.99.55,4.25,1.17,6.82,1.85h0Z"></path> <path class="cls-2" d="m95.87,105.6c.23.16.26.21.13.42-.94,1.45-6.48,3.14-11.71.77-.28-.27-.28-.6-.05-.95.28-.43,2.93-.81,5.65-.92-2.57-.68-4.83-1.3-6.82-1.85-14.21-.15-12.72-3.16-17.28-4.13,5.07,2.82,11.57,6.28,11.57,6.28.08.05.39.29.79.66,7.8,2.89,16.04,7,24.67-2.88-.06.01-.11.02-.17.04-2.12,1.3-4.35,2.28-6.77,2.56h0Z"></path> <path class="cls-21" d="m89.88,104.92c-2.72.11-5.37.49-5.65.92-.23.35-.23.68.05.95,5.24,2.36,10.77.68,11.71-.77.13-.21.1-.26-.13-.42-1.49.18-3.05.1-4.69-.34-.44-.12-.88-.23-1.3-.34h0Z"></path> <path class="cls-55" d="m89.88,104.92c.43.11.86.23,1.3.34,1.64.43,3.2.51,4.69.34-.05-.03-.1-.06-.16-.1-.84-.54-3.36-.67-5.83-.58h0Z"></path> <path class="cls-54" d="m92.36,102.86c-6.85-.73-16.04-2.34-24.31-4.81,1.95,1.05,5.29,2.33,15.01,5.04,2.55.03,5.61-.03,9.3-.22h0Z"></path> <path class="cls-36" d="m68.05,98.04c-3.36-1.01-6.58-2.15-9.42-3.45.65.46,1.3.92,1.98,1.35,1.01.65,2.96,1.77,5.18,3,4.56.97,3.07,3.97,17.28,4.13-9.72-2.7-13.06-3.98-15.01-5.04h0Z"></path> <path class="cls-16" d="m43.45,71.78c.52,1.1,1.12,2.16,1.83,3.17-.11-.28-.19-.57-.23-.89-.76-5.45-3.36-13.02-4.17-18.65-1.09-.52-2.27-.31-3.34.3,4.12,6.27,5.22,11.49,5.91,16.07h0Z"></path> <path class="cls-33" d="m45.07,80.21c.17-1.28.6-2.57,1.02-3.85-.33-.44-.61-.91-.81-1.42-.71-1.01-1.31-2.07-1.83-3.17.46,3.05.75,5.82,1.62,8.43Z"></path> <path class="cls-28" d="m37.54,55.71c-.25.14-.49.3-.72.48,3.45,4.2,4.13,10.27,6.64,15.59-.69-4.58-1.8-9.8-5.91-16.07Z"></path> <path class="cls-50" d="m45.05,80.39c0-.06.02-.11.02-.17-.87-2.61-1.15-5.38-1.62-8.43-2.51-5.31-3.18-11.39-6.64-15.59-.74.57-1.41,1.31-1.93,2.12-.05.08-.11.17-.16.27,10.97,8.93,1.3,18.56,13.61,27.26-1.51-1.69-2.47-3.42-3.12-5.22-.05-.08-.11-.16-.16-.24h0Z"></path> <path class="cls-18" d="m73.01,73.81c-.61-.61-1.09-1.05-1.4-1.26-.27-.17-.54-.33-.81-.51-.98-.63-1.37-1.25-1.37-1.25,0,0-4.4-1.23-7.3-3.1-3.78-2.44-3.97-4.73-6.61-6.43-.43-.28-.88-.5-1.38-.64.08.39.14.78.19,1.17,2.84,2,4.16,4.98,6.9,6.75,3.17,2.05,7.9,3.2,11.78,5.28h0Z"></path> <path class="cls-57" d="m97.34,87.69c-1.1-.37-2.11-.75-2.86-1.06-.9-.29-1.83-.55-2.76-.82-.64-.09-1.2-.15-1.42-.29-.08-.05-.16-.13-.24-.2-.09-.03-.18-.05-.27-.08-.92-.14-4.84-.77-6.7-1.97-3.43-2.21-7.7-7.07-10.09-9.46-3.88-2.08-8.61-3.23-11.78-5.28-2.74-1.77-4.05-4.74-6.9-6.75.05.4.1.8.12,1.2.59.18,1.16.42,1.67.75,2.24,1.44,3.81,4.98,6.41,6.66,1.98,1.28,4.97,1.29,7.77,3.09,2.23,1.44,5.68,5.98,9.92,8.72,4.19,2.7,13.18,4.58,19.06,6.49-.62-.38-1.27-.71-1.94-1h0Z"></path> <path class="cls-50" d="m73.01,73.81c2.38,2.39,6.66,7.24,10.09,9.46,1.86,1.2,5.78,1.83,6.7,1.97-2.17-.67-4.33-1.47-6.34-2.76-2.72-1.76-5.17-4.3-7.35-6.62-.58-.44-1.09-.83-1.69-1.22-.45-.29-.93-.57-1.41-.83h0Z"></path> <path class="cls-59" d="m62.13,67.69c2.89,1.87,7.3,3.1,7.3,3.1,0,0,.39.62,1.37,1.25.27.17.54.34.81.51.32.2.8.65,1.4,1.26.49.26.96.53,1.41.83.6.39,1.11.77,1.69,1.22-1.99-2.11-3.75-4.05-5.31-5.05-2.79-1.8-6.78-2.36-8.17-3.26-1.25-.8-4.62-5.6-9.03-9.01.22.69.4,1.38.54,2.09.49.15.95.37,1.38.64,2.63,1.7,2.82,3.99,6.61,6.43h0Z"></path> <path class="cls-4" d="m113.44,76.96c1.5-.74,3.07-1.37,4.62-1.76.36-1.23.67-2.39.93-3.44,0-.03,0-.06,0-.08-.21.16-.43.32-.64.48-.11.21-.23.42-.36.62-.92,1.42-2.65,2.74-4.56,4.18Z"></path> <path class="cls-24" d="m118.06,75.2c-1.55.39-3.13,1.03-4.62,1.76-2.4,1.81-5.09,3.8-6.76,6.4-2.86,4.42-1.41,7.42-.98,10.44.1-.03.19-.05.28-.08.58-.2,1.18-.38,1.78-.54,2.08-1.53,3.82-3.5,5.27-5.74,1.97-3.05,3.8-8.01,5.05-12.24Zm-9.99,16.05c-.18-.11-1.06-3.55,1.32-7.23,1.18-1.84,2.91-3.39,4.78-4.5.93,2.32.34,4.38-.88,6.26-.92,1.42-4.77,5.76-5.22,5.47h0Z"></path> <path class="cls-33" d="m113.44,76.96c-2.67,1.31-5.09,2.95-6.69,4.13-1.07,2.4-2.25,5.12-3.25,6.82,1.75,2.33,1.79,4.12.92,6.11.48-.05.91-.12,1.28-.22-.42-3.02-1.87-6.02.98-10.44,1.68-2.6,4.36-4.59,6.76-6.4h0Z"></path> <path class="cls-16" d="m118,72.78c.13-.2.25-.41.36-.62-5.57,4.22-8.97,6.67-11.25,8.12-.12.26-.24.54-.36.81,1.6-1.18,4.02-2.82,6.69-4.13,1.91-1.44,3.64-2.76,4.56-4.18h0Z"></path> <path class="cls-37" d="m118.63,75.06c.16-1.1.28-2.2.36-3.3-.25,1.04-.57,2.21-.93,3.44.19-.05.38-.09.57-.13h0Z"></path> <path class="cls-9" d="m118.63,75.06c-.19.04-.38.09-.57.13-1.25,4.23-3.08,9.19-5.05,12.24-1.44,2.23-3.19,4.21-5.27,5.74,1.04-.28,2.09-.48,3.13-.58,1.1-1.13,2.08-2.37,2.93-3.69,2.44-3.77,3.9-8.21,4.66-12.74.06-.37.12-.74.17-1.11h0Z"></path> <path class="cls-35" d="m66.18,57.24c-1.58,1.64-3.3,2-4.15,2.07.8.36,1.61.76,2.43,1.2.09-.09.18-.18.27-.28.03-.05.07-.1.1-.14.62-.97,1.04-1.92,1.35-2.85Z"></path> <path class="cls-31" d="m67.73,55.04c-.19.34-.38.67-.54.92-.32.5-.66.92-1.01,1.28-.31.93-.73,1.88-1.35,2.85-.03.05-.06.1-.1.14,1.1-1.15,2.08-2.43,3.02-3.73-.03-.49-.03-.98-.02-1.46h0Z"></path> <path class="cls-49" d="m66.18,57.24c.74-2.18.92-4.19,1.95-5.79.28-.44.62-.83,1.05-1.15.03-.03.05-.06.08-.09-2.33.86-4.42,2.75-5.85,4.97-.9,1.4-1.31,2.61-1.98,3.87.2.08.4.17.61.26.85-.07,2.58-.43,4.15-2.07h0Z"></path> <path class="cls-23" d="m66.18,57.24c.35-.36.69-.79,1.01-1.28.16-.25.35-.57.54-.92.06-1.61.39-3.15,1.19-4.39.08-.12.17-.24.26-.34-.43.33-.77.71-1.05,1.15-1.03,1.59-1.21,3.6-1.95,5.79h0Z"></path> </g> </g> <g> <circle class="cls-15" cx="84.64" cy="36.8" r="16" transform="translate(21.04 103.68) rotate(-69.94)"></circle> <path class="cls-15" d="m95.86,31.9c2.7,6.2-.13,13.42-6.33,16.12-6.2,2.7-13.42-.13-16.12-6.33-2.7-6.2.13-13.42,6.33-16.12,6.2-2.7,13.42.13,16.12,6.33Z"></path> <path class="cls-15" d="m76.33,50.47c-2.92,3.86-7.55,6.35-12.76,6.35-8.83,0-16-7.16-16-16s7.16-16,16-16c3.04,0,5.88.85,8.3,2.32"></path> <path class="cls-15" d="m74.83,29.45c2.93,2.9,4.74,6.92,4.74,11.36,0,2.21-.45,4.31-1.26,6.23"></path> <path class="cls-15" d="m73.38,48.16c-2.23,2.98-5.79,4.9-9.8,4.9-6.76,0-12.25-5.48-12.25-12.25s5.48-12.25,12.25-12.25c2.35,0,4.55.66,6.41,1.81"></path> <path class="cls-15" d="m73,32.99c1.77,2.12,2.83,4.85,2.83,7.83,0,1.27-.19,2.49-.55,3.64"></path> <g> <polyline class="cls-14" points="73.99 15.01 72.79 18.75 76.43 22.93"></polyline> <polyline class="cls-14" points="76.13 17.29 82.57 14.48 78.05 13.24 74.95 14.59 71.86 15.94 69.69 20.1 76.13 17.29"></polyline> <polyline class="cls-14" points="81.43 20.99 82.57 14.48 76.13 17.29 69.69 20.1 75.24 23.69"></polyline> <polyline class="cls-14" points="75.91 14.17 79.47 15.84 80.06 21.34"></polyline> </g> </g> </svg> 