<?xml version="1.0" encoding="UTF-8"?> <svg xmlns="http://www.w3.org/2000/svg" id="Layer_2" data-name="Layer 2" viewBox="0 0 517.59 488.79"> <defs> <style> .cls-1 { fill: #d8dae6; } .cls-2 { fill: #aba8d3; } .cls-3 { fill: #5477bb; } .cls-4 { fill: #c7c9e4; } .cls-5 { fill: #d0cfe8; } .cls-6 { fill: #dedfee; } .cls-7 { fill: #777dbc; } .cls-8 { fill: #a4a5d1; } .cls-9 { fill: #e8e9f4; } .cls-10 { fill: #e3e0f0; } .cls-11 { fill: #d4d2ea; } .cls-12 { fill: #bdbdde; } .cls-13 { fill: #9ba2d1; } .cls-14 { fill: #929ccf; } .cls-15 { fill: #7582bf; } .cls-16 { fill: #d1d4eb; } .cls-17 { fill: #7b80be; } .cls-18 { fill: #d9daed; } .cls-19 { fill: #b7b6da; } .cls-20 { fill: #bbd; } .cls-21 { fill: #787cba; } .cls-22 { fill: #d1d0e7; } .cls-23 { fill: #6c6fb3; } .cls-24 { fill: #939cce; } .cls-25 { fill: #ebebf0; } .cls-26 { fill: #b1b9de; } .cls-27 { fill: #ededf5; } .cls-28 { fill: #acabd5; } .cls-29 { fill: #425fab; } .cls-30 { fill: #8e92c7; } .cls-31 { fill: #979dce; } .cls-32 { fill: #626bb2; } .cls-33 { fill: #5164ae; } .cls-34 { fill: #d3cce6; } .cls-35 { fill: #dfe2ee; } .cls-36 { fill: #f3f6fb; } .cls-37 { fill: #c3c1e0; } .cls-38 { fill: #273d68; } .cls-39 { fill: #a2a2d0; } .cls-40 { fill: #9a99cb; } .cls-41 { fill: #e2e2eb; } .cls-42 { fill: #e1e2ec; } .cls-43 { fill: #dcd6eb; } .cls-44 { fill: #a1a2cf; } .cls-45 { fill: #9b9ecf; } .cls-46 { fill: #a7a8d4; } .cls-47 { fill: #817ebc; } .cls-48 { fill: #b9bdde; } .cls-49 { fill: #d2d1e9; } .cls-50 { fill: #9ca2d1; } .cls-51 { fill: #8995ca; } .cls-52 { fill: #c8c5e1; } .cls-53 { fill: #b1b4db; } .cls-54 { fill: #c3c1df; } .cls-55 { fill: #dcddef; } .cls-56 { fill: #a4a4d1; } .cls-57 { fill: #b3bcde; } .cls-58 { fill: #dfdaec; } .cls-59 { fill: #a3a3d1; } .cls-60 { fill: #f7f9fd; } .cls-61 { fill: #a7a7d3; } .cls-62 { fill: #d9d8ed; } .cls-63 { fill: #9797ca; } </style> </defs> <g id="clipping_mask" data-name="clipping mask"> <g> <path class="cls-31" d="m226.5,402.32c8.49,7.74,23.55,14.79,33.85,3.5,6.27-6.87,9.91-18.41,13.12-28.19.97-11.36,0-22.81-.73-30.76-1.78-1.57-3.57-3.16-5.37-4.77-.1,3.57-.31,7.11-.72,10.65-.05.45-.11.9-.17,1.34-.21.05-.42.1-.63.15.45,6.19.86,11.88.86,11.88.52,7.04-1.92,13.54-6.18,18.21-10.02,10.99-25.93,7.79-31.94,2.3-1.16-1.06-2.26-2.5-3.11-4.26-2.61,1.04-5.39,2.02-8.3,2.92.29,5.31,2.79,11.07,9.32,17.02Zm33.47-9.57c1.18-1.3,2.28-3.04,2.29-3.05.81-.89,2.62-1.11,3.29-.5.68.62.23,2.95-2.37,5.79-.65.72-1.35,1.41-2,2.1-.67,1.11-1.44,2.15-2.32,3.12-8.84,9.69-20.87,7.55-29.6-.41-1.21-1.1-3.14-4.08-1.6-5.77,3.52-3.86,21.69,10.37,32.32-1.28Z"></path> <path class="cls-22" d="m144.66,196.43c.4.37.82.72,1.23,1.08,27.06,14.12,69.37,30.62,87.55,47.2,18.4,16.79,31.52,41.74,41.19,50.56,12.13,11.07,26.7,13.55,35.31,21.4,11.3,10.3,16.06,28.8,25.78,37.67,2.23,2.03,4.82,3.65,7.54,5.04.31-3.25.77-6.48,1.39-9.69-3.13-24.35,12.59-76.04-15.72-101.87-17.71-16.15-75.13-19.13-116-30.6-29.73-8.34-66.84-33.62-81.53-44.58,1.19,9.66,6.17,17.34,13.26,23.8Zm111.87,37.46c30.99,12.71,43.56,8.17,56.17,19.67,17.5,15.96,15.58,46.41,17.87,61.34-5.95.37-11.69-2.09-16.18-6.18-5.69-5.19-12.82-19.1-22.92-28.31-12.44-11.35-19.47-8.01-24.78-12.86-.4-.36-1.16-1.11-1.96-1.84-3.81-3.47-8.17-6.62-12-10.11-5.42-4.94-12.39-13.44-7.45-18.86,2.58-2.83,7.37-4.43,11.25-2.84Z"></path> <path class="cls-63" d="m204.21,74.02c3.19-.54,6.4-1.23,9.64-2.13,17.71-4.92,46.89,10.75,66.08,2.48-2.85-5.52-4.55-10.64-5.45-15.31-.74,1.52-1.64,2.85-2.69,4-12.91,14.15-36.82.53-67.59,10.97Z"></path> <path class="cls-27" d="m123.06,28.58c19.18,1.53,35.2-3.76,50-15.57,10.58-8.44,21.77,8.16,34.74,8.22-11.95-10.35-32.73-21.87-44.61-8.86-2.43,2.66-2.62,4.08-4.89,6.56-15.91,17.44-42.21-12.34-56.15,2.94-.73.81-.41,2.15-.07,2.91,3.09,6.84,5.46,12.71,7.25,17.81.49-4.14,1.67-8.18,3.97-10.7,2.13-2.34,5.25-3.68,9.74-3.32Z"></path> <path class="cls-43" d="m230.17,49.17c3.71,3.39,26.03-3.74,34.69-9.53,2.75-5.14,2.71-11.46-1.89-15.65-4.2-3.83-8.31-4.71-12.83.25-.29.32-3.18,4.62-5.89,7.59-4.5,4.93-13.86,12.03-13.95,12.13-1.85,2.03-1.29,4.13-.12,5.2Z"></path> <path class="cls-58" d="m349.13,100.55c7.45,6.79,16.5,12.28,26.65,9.78,1.67.7,3.31.99,4.17.04.56-.62,1.22-2.63-1.13-4.77-3.55-3.24-31.39-18.06-35.62-13.43-1.16,1.27-1.31,1.79,5.93,8.38Z"></path> <path class="cls-36" d="m444.76,130.15c2.27-2.49,2.7-7.86-1.14-11.36-6.78-6.18-20.9-4.19-33.93-.24-1.45.7-2.91,1.42-4.4,2.14-9.63,4.72-19.99,9.75-31.17,11.28,22.65,3.78,61.17,8.57,70.64-1.82Z"></path> <path class="cls-43" d="m367.72,138.17c-17.19,3.51-30.06-6.93-41.59-17.44-1.82-1.66-3.61-3.33-5.38-4.94-1.34-1.22-2.3-2.63-3.62-3.83-.03-.02-2.39-1.97-4.26-3.67-8.79-8.02-48.66-51.41-23.23-79.29.2-.22.41-.44.62-.65-2.63-1.06-5.19-1.07-7.73.48-.94.57-1.88,1.34-2.81,2.36-3.95,4.34-11.48,20.51.22,43.18.79,1.52,1.66,3.08,2.63,4.66,4.45,7.27,10.87,15.13,19.96,23.42,10.66,9.72,22.45,18.61,31.95,27.28,1.34,1.22,2.92,2.72,2.95,2.75,20.07,18.31,32.35-3.45,71.42,10.01,8.2,2.82,17.58,7.2,28.46,13.82,9.47,5.77,18.67.91,26.15-6.73-.55-2.65-1.24-5.36-2.07-8.05-1.33-4.3-3.02-8.56-5.09-12.47-.16,4.9-1.59,9.62-4.58,12.91-14.28,15.65-35.37-13.69-83.99-3.78Z"></path> <path class="cls-27" d="m289.64,29c-25.43,27.88,14.44,71.27,23.23,79.29,1.86,1.7,4.23,3.65,4.26,3.67,1.32,1.2,2.28,2.61,3.62,3.83,1.77,1.61,3.56,3.28,5.38,4.94,11.53,10.51,24.4,20.94,41.59,17.44,48.63-9.92,69.71,19.43,83.99,3.78,3-3.29,4.42-8.01,4.58-12.91-2.39-4.54-5.29-8.61-8.71-11.73-11.27-10.27-23.79-5.54-37.9,1.24,13.03-3.95,27.15-5.94,33.93.24,3.84,3.51,3.42,8.87,1.14,11.36-9.48,10.39-47.99,5.6-70.64,1.82-8.61,1.18-17.71.28-27.34-4.46-6.03-1.9-11.34-5.16-15.97-9.38-27.69-25.25-19.45-67.91-39.31-89.23-.41-.21-.83-.4-1.24-.57-.21.22-.41.43-.62.65Zm3.72,14.14c10.81,9.86,1.03,29.84,8.22,44.68-.01.01-.02.03-.04.04-.95,1.05-2.83.18-3.83-.73-1.88-1.71-2.71-4.64-3.53-7.76-7.86-11.74-14.75-27.49-6-37.09,1.24-1.36,3.64-.55,5.18.85Z"></path> <path class="cls-36" d="m294.19,79.38c.81,3.12,1.65,6.05,3.53,7.76,1,.91,2.87,1.77,3.83.73.01-.02.03-.03.04-.04-7.19-14.84,2.59-34.83-8.22-44.68-1.54-1.4-3.93-2.21-5.18-.85-8.75,9.6-1.86,25.35,6,37.09Z"></path> <path class="cls-60" d="m346.77,127.52c-5.13-2.52-10.41-6.13-15.85-11.09-12.21-11.14-15.35-27.81-18.25-43.92-2.76-15.33-5.31-30.16-15.27-39.24-2.02-1.84-3.98-3.35-5.91-4.35,19.86,21.32,11.62,63.98,39.31,89.23,4.62,4.22,9.94,7.47,15.97,9.38Z"></path> <path class="cls-43" d="m490.14,198.05c7.06,6.44,15.34,11.52,24.19,14.6-.77-1.45-1.69-2.91-2.78-4.38-14.51-19.55-39.49-56.04-43-61.18-.09,14.83-.5,30.81,21.59,50.96Z"></path> <path class="cls-27" d="m489.49,230.51c15.85,14.45,12.28,29.65-1.64,44.92-5.39,5.91-11.67,11.52-16.76,17.11-6.92,7.59-7.64,9.86-5.39,18.75,7.87,3.03,16.42,3.54,25.03-5.89,11.87-13.01,9.07-36.82,16.95-51.3,3.88-7.14,7.5-14.21,9.08-21.29-1.42-2.91-3.28-5.53-5.65-7.68-4.99-4.55-25.32-12.23-47.01-32.01-13.14-11.98-21.79-24.28-26.37-36.61-.14-.08-.28-.14-.42-.23-2.64-1.61-5.19-3.08-7.65-4.43,5.95,23.39,25.33,48.59,42.16,63.95,9.33,8.51,14.52,11.82,17.68,14.7Z"></path> <path class="cls-10" d="m473.06,253.37c2.59,2.36,6.5,3.77,9.98,3.44,1.51-.81,2.89-1.85,4.04-3.12,4.79-5.25,5.22-12.45-2.84-19.8-3.18-2.9-6.6-5.51-9.8-8.43-3.39-3.1-6.62-7.06-6.62-7.06-1.36-1.24-2.94-1.44-4.2-.06-2.32,2.54,5.68,31.6,9.44,35.02Z"></path> <path class="cls-10" d="m511.1,225.14c2.36,2.15,4.23,4.77,5.65,7.68,1.49-6.68,1.18-13.37-2.42-20.17-8.85-3.08-17.13-8.16-24.19-14.6-22.09-20.14-21.67-36.12-21.59-50.96-.27-.4-.42-.61-.42-.61-.35-.32-.72-.63-1.09-.93-1.78-1.45-3.75-2.71-5.66-4.04.83,2.7,1.52,5.41,2.07,8.05-7.37,7.52-16.41,12.33-25.74,6.96,4.59,12.34,13.24,24.63,26.37,36.61,21.69,19.78,42.02,27.46,47.01,32.01Z"></path> <path class="cls-63" d="m337.43,132.47s-1.61-1.53-2.95-2.75c-9.43-8.6-21.13-17.43-31.73-27.07,4.8,9.49,10.87,18.3,18.23,25.02,26.46,24.13,68.29,16.45,88.95,35.29,13.8,12.59,20.36,33.18,24.94,52.4-.82-12.62-4.04-26.97-11.23-43.94-5.58-7.01-10.67-14.35-16.3-19.48-10.45-9.53-20.86-10.19-31.67-13.83-15.65,1.35-25.33,6.13-38.24-5.64Z"></path> <path class="cls-28" d="m320.98,127.66c-7.36-6.71-13.43-15.53-18.23-25.02-.07-.07-.15-.13-.23-.2-9.09-8.29-15.51-16.14-19.96-23.42-1.68.88-3.51,1.64-5.46,2.31,2.65,16.42,13.43,31.74,26.94,44.06,36.66,33.44,69.21,27.62,91.83,48.25,19.38,17.68,12.67,51.74,35.79,75.26,2.43-10.03,4.02-20.92,3.2-33.56-4.58-19.22-11.14-39.81-24.94-52.4-20.66-18.84-62.49-11.16-88.95-35.29Z"></path> <path class="cls-7" d="m423.63,171.42c-3.77-8.89-8.62-18.49-14.79-28.94-13.95-4.8-24.49-5.12-33.18-4.37,10.81,3.64,21.22,4.3,31.67,13.83,5.63,5.13,10.72,12.47,16.3,19.48Z"></path> <path class="cls-7" d="m128.75,126.73c2.28-.55,4.58-1.01,6.91-1.34,31.21-30.5,89.54-47.47,115.67-23.64.01.01.02.02.03.03-.95-5.18-.98-10.52.19-15.96-36.13,3.08-86.72,1.34-121.9,39.91-.3.33-.6.67-.9,1.01Z"></path> <path class="cls-63" d="m135.65,125.39c1.56-.22,3.13-.39,4.72-.49,50.12-41.08,86.94-14.35,122.55,6.13-2.38-3.09-5.43-7.68-7.19-12.63-.78-2.18-1.3-4.43-1.41-6.65-1.34-3.24-2.35-6.57-2.97-9.97-.01-.01-.02-.02-.03-.03-26.12-23.83-84.46-6.86-115.67,23.64Z"></path> <path class="cls-5" d="m44.8,205.4c.29.27.59.53.9.78-3.97-7.87,1-16,4.79-22.71,5.03-8.91,9.39-21.04,1.82-27.95-4.31-3.93-5.12-2.88-7.64-.13-10.53,11.55-13.52,37.55.14,50.01Z"></path> <path class="cls-31" d="m275.34,138.31c-4.22-3.84-9.35-9.25-12.46-15.02-1.38-.79-2.7-1.69-4.01-2.62-1.76-2.89-3.3-5.87-4.55-8.92.11,2.22.63,4.47,1.41,6.65,2.98,8.37,9.64,15.71,10.5,16.49,0,0,59.68,45.83,74.02,58.9,2.92,2.66,5.76,5.39,8.53,8.18,7.38,7.45,14.25,15.36,20.61,23.65.19.25.38.51.57.76-5.5-11.2-17.55-24.46-24.38-30.7-10.14-9.25-70.24-57.39-70.24-57.39Z"></path> <path class="cls-31" d="m380.8,241.67c.77,1.17,1.52,2.35,2.28,3.53,7.33,11.47,13.85,23.47,19.64,35.83-1.69-9.3-4.92-18.49-10.92-27.97-4.32-6.83-10.06-13.8-17.7-21.09,2.3,3.18,4.54,6.42,6.7,9.7Z"></path> <path class="cls-43" d="m361.55,193.01c22.54,20.56,34.75,48.97,47.19,76.49,15.06,33.31,57.06,48.27,47.54,91.76,6.98-17.58,9.93-36.82-1.91-47.61-1.15-1.05-1.95-1.56-4.2-3.62-2.75-2.51-5.25-5.21-7.55-8.03-7.7-9.43-13.06-20.2-17.68-29.89-4.56-9.57-8.39-18.09-13.03-23.26-46.39-51.67-38.66-53.93-55.46-69.26-13.67-12.47-37.35-23.12-54.36-38.64-.7-.64-1.45-1.35-1.67-1.55-5.61-5.11-12.52-8.47-20.02-10.83,4.4,6.82,10.03,13.08,16.39,18.89,24.34,22.2,47.32,29.63,64.78,45.55Z"></path> <path class="cls-22" d="m262.88,123.29c3.11,5.77,8.24,11.18,12.46,15.02,0,0,60.1,48.14,70.24,57.39,6.84,6.23,18.88,19.49,24.38,30.7.66.87,1.33,1.75,1.98,2.63.73.98,1.44,1.96,2.16,2.94,7.64,7.28,13.38,14.26,17.7,21.09,52.85,52.45-2.15,91.45,44.01,143.95,5.03-6.02,14.31-20.24,20.47-35.75,9.53-43.49-32.47-58.45-47.54-91.76-12.44-27.51-24.65-55.92-47.19-76.49-17.46-15.92-40.44-23.35-64.78-45.55-6.36-5.8-11.99-12.07-16.39-18.89-3.62-1.14-7.38-2.05-11.19-2.8-2.29-.45-4.35-1.36-6.31-2.48Zm172.44,191.28c10.19,9.3,20.41,42.59,1.34,64.14.17-1.75-.63-3.47-1.46-4.66-17.84-25.83-8.82-53.5-2.81-60.09.78-.85,2.02-.22,2.93.61Z"></path> <path class="cls-18" d="m435.2,374.04c.82,1.19,1.63,2.91,1.46,4.66,19.07-21.55,8.85-54.84-1.34-64.14-.91-.83-2.15-1.46-2.93-.61-6.01,6.59-15.03,34.26,2.81,60.09Z"></path> <path class="cls-22" d="m77.4,156.55c11.98,5.12,26.06,6.75,38.54,6.8,72.16.29,152.78,68.94,248.24,55.74-1.39-1.7-2.81-3.37-4.24-5.03-.82-.31-1.63-.61-2.43-.91-97.82,12.97-141.17-94.59-280.1-56.59Zm71.35,4.99s-.07-.03-.09-.05c-.21-.19.13-.63.46-.99,1.16-1.27,42.84-6.66,104.84,32.96-35.93-7.83-70.69-18.32-105.21-31.92Z"></path> <path class="cls-48" d="m61.29,156.87c8.61,7.86,19.63,11.31,31.32,12.15,8.13.58,16.6-.1,24.81-1.45,2.17-.36,4.79-.41,7.82-.19,1.82.13,3.78.35,5.87.66,51.52,7.61,184.36,67.87,238.27,57.61-1.7-2.21-3.44-4.4-5.21-6.56-95.46,13.2-176.08-55.45-248.24-55.74-12.47-.05-26.56-1.67-38.54-6.8-5.26-2.25-10.12-5.18-14.25-8.94-.52-.48-1.03-.97-1.53-1.47-.27.22-.53.45-.77.72-1.28,1.4-3.67,6.27.44,10.01Z"></path> <path class="cls-43" d="m63.15,147.6c4.13,3.77,8.99,6.69,14.25,8.94,138.93-38,182.28,69.56,280.1,56.59-153.81-57.92-124.27-77.93-273.28-71.03-10.4,2.39-18.36.62-22.59,4.03.5.5,1,.99,1.53,1.47Z"></path> <path class="cls-27" d="m357.5,213.13c.81.3,1.62.61,2.43.91-.32-.37-.64-.74-.97-1.11-3.28-3.75-6.67-7.4-10.19-10.95-63.65-42.86-174.56-75.91-202.31-77.15-6.15-.28-12,.51-17.72,1.9-14.02,3.41-27.24,10.5-42.1,14.75-.83.24-1.64.44-2.43.62,149.01-6.9,119.47,13.11,273.28,71.03Z"></path> <path class="cls-18" d="m149.12,160.49c-.33.36-.67.8-.46.99.02.02.05.04.09.05,34.52,13.6,69.28,24.08,105.21,31.92-62-39.63-103.68-34.24-104.84-32.96Z"></path> <path class="cls-55" d="m256.53,233.89c-3.88-1.59-8.67.01-11.25,2.84-4.95,5.42,2.03,13.92,7.45,18.86,3.83,3.49,8.19,6.64,12,10.11.79.72,1.56,1.47,1.96,1.84,5.32,4.85,12.34,1.51,24.78,12.86,10.1,9.21,17.24,23.13,22.92,28.31,4.49,4.1,10.23,6.56,16.18,6.18-2.29-14.93-.37-45.37-17.87-61.34-12.61-11.5-25.18-6.96-56.17-19.67Z"></path> <path class="cls-48" d="m337.66,236.3c-30.28-27.62-122.17-23.4-203.05-67.69-1.2-.21-2.37-.41-3.49-.58,0,1.59.1,3.12.28,4.61,14.7,10.97,51.8,36.25,81.53,44.58,40.87,11.46,98.29,14.45,116,30.6,28.32,25.83,12.6,77.52,15.72,101.87,1.7-8.87,4.55-17.57,8.34-25.85-8.34-35.86,12.31-62.32-15.33-87.54Z"></path> <path class="cls-31" d="m337.66,236.3c27.64,25.21,6.99,51.68,15.33,87.54,2.44-5.32,5.26-10.47,8.43-15.38-.76-9.94-1.5-20.16-1.45-30.22-7.04-20.61-.82-39.06-6.37-44.12-5.36-4.89-12.37-6.43-18.26-8.83-61.53-8.36-156.42-48.75-200.73-56.69,80.88,44.29,172.77,40.07,203.05,67.69Z"></path> <path class="cls-15" d="m359.97,278.24c.09-17.72,2.65-34.93,11.97-49.22-.84-1.14-1.7-2.26-2.56-3.39-9.28,1.77-20.9,1.44-34.04-.34,5.89,2.4,12.9,3.94,18.26,8.83,5.54,5.06-.67,23.51,6.37,44.12Z"></path> <path class="cls-15" d="m322.56,393.43c6.51-7.13,18.18-.04,25.38-6.18-11.5-.05-22.7-3.63-33.93-9.7-2.5,13.69-9.91,25.79-19.81,36.65-9.27,10.17-17.8,18.48-25.68,25.22,12.83-5.1,26.72-14.34,40.37-29.3,6.96-7.64,13.66-16.68,13.66-16.68Z"></path> <path class="cls-31" d="m322.67,402.54c8.85-9.7,24.41-6.96,35.04-18.62,13.62-14.93,9.67-47.45,3.64-76.44.02.32.05.65.07.97-.89,1.39-1.76,2.79-2.6,4.21-.53,10.36-6.13,24.39-5.16,57.31.16,5.53-1.06,12.3-4.75,16.35-.12.13-.25.25-.37.37.19.18.37.38.57.56-.39,0-.78,0-1.16,0-7.2,6.15-18.88-.95-25.38,6.18,0,0-6.7,9.04-13.66,16.68-13.65,14.96-27.54,24.2-40.37,29.3-3.15,2.69-6.2,5.14-9.15,7.34.92,1.16,1.88,2.31,2.85,3.44,14.07-3.95,30.21-12.6,47.15-31.18,6.38-6.99,13.21-16.38,13.28-16.46Z"></path> <path class="cls-15" d="m353.66,369.97c-.97-32.92,4.62-46.95,5.16-57.31-12.29,20.85-18.53,45.49-15.04,69.16,1.54,1.67,3.14,3.29,4.76,4.86.12-.12.25-.24.37-.37,3.69-4.05,4.91-10.81,4.75-16.35Z"></path> <path class="cls-27" d="m388.41,429.44c-3.12,6.62,5.22,17.03.2,22.53-11.92,13.07-66.33,18.97-96.56,20.96,14.08,6.37,29.82,8.11,45.26,1.82,19.88-8.09,56.63-12.71,62.51-19.16,5.34-5.86-2.98-17.74-.44-23.9,2.53-6.16,3.61-14.58,3.84-24.32.36-15.75-1.51-34.94-3.1-53.55-3.72,13.95-11.96,24.12-11.25,34.09,1.01,14.19,6.09,27.62-.46,41.52Z"></path> <path class="cls-22" d="m363.9,246.83c4.53,22.33,3.21,45.23,8.3,68.64,7.03,32.26,4.41,69.96-16.06,92.4-18.02,19.76-38.65,16.15-66.9,37.09-6.23,4.62-15.3,5.29-24.73,7.76.61.65,1.23,1.29,1.86,1.92,18.9,1.52,67.24,11.55,83.46-6.24,68.74-75.36,3.49-163.2,24.73-215.8-.86-1.2-1.73-2.39-2.61-3.58-3.62,5.55-6.21,11.53-8.05,17.81Zm2.31,170.28c-2.16,9.17-6.44,17.2-12.19,23.51-19.58,21.47-49.06,14.37-53.33,10.48-.77-.7-.95-2.5.7-4.31.17-.19,48.05-20.61,61.55-29.83.35-.24,2.06-.39,3.27.15Z"></path> <path class="cls-48" d="m356.14,407.87c20.47-22.44,23.09-60.14,16.06-92.4-5.1-23.41-3.77-46.31-8.3-68.64-5.48,18.8-4.1,40.27-2.55,60.65,6.03,28.99,9.98,61.51-3.64,76.44-10.63,11.66-26.19,8.92-35.04,18.62-.07.08-6.9,9.47-13.28,16.46-16.94,18.58-33.08,27.23-47.15,31.18.74.86,1.49,1.71,2.27,2.54,9.43-2.48,18.5-3.15,24.73-7.76,28.25-20.94,48.88-17.33,66.9-37.09Z"></path> <path class="cls-43" d="m349.82,448.4c-16.23,17.79-64.56,7.76-83.46,6.24,1.2,1.22,2.42,2.43,3.7,3.59,6.52,5.94,13.91,11.01,21.82,14.62.06.03.11.05.17.07,30.23-1.98,84.64-7.89,96.56-20.96,5.02-5.5-3.32-15.91-.2-22.53,6.56-13.89,1.47-27.33.46-41.52-.71-9.97,7.53-20.15,11.25-34.09-1.11-13.02-2.07-25.74-2.03-36.82,0-1.32.02-2.62.05-3.89.1-3.58-.8-6.79-2.15-9.87-.32-.74-.67-1.48-1.04-2.2-2.48-4.88-5.82-9.54-7.82-14.94-2.85-7.7-4.8-29.79-6.33-44.43-2.02-3.06-4.1-6.09-6.25-9.07-21.24,52.6,44.01,140.44-24.73,215.8Z"></path> <path class="cls-55" d="m300.69,451.11c4.26,3.89,33.74,10.99,53.33-10.48,5.76-6.31,10.04-14.34,12.19-23.51-1.21-.54-2.92-.38-3.27-.15-13.49,9.22-61.38,29.64-61.55,29.83-1.65,1.81-1.47,3.61-.7,4.31Z"></path> <path class="cls-7" d="m288.7,471.3c-6.72-3.45-13.01-7.93-18.64-13.07-3.9-3.56-7.47-7.43-10.68-11.49-12.36,9.23-23.01,14.27-32.39,16.31,7.77-1.07,15.62-3.59,23.19-7.11,12.29-5.72,21.88,10.33,38.52,15.36Z"></path> <path class="cls-18" d="m221.01,482.58c15.95-1.1,33.66-.46,49.96-3.3-8.71.65-15.57-1.66-26.53-1.43-26.49.56-44.14,13.43-74.2-13.99-9.76-8.9-25.73-36.13-38.83-64.47,6.08,28.78,23.04,54.08,44.81,73.93,29.53,26.94,22.23,10.8,44.79,9.25Z"></path> <path class="cls-22" d="m130.09,391.91c.13.53.27,1.07.42,1.6-.07-.02-.13-.05-.2-.07.31,2.01.68,4,1.1,5.97,13.1,28.35,29.07,55.57,38.83,64.47,30.06,27.42,47.71,14.55,74.2,13.99,10.96-.23,17.82,2.07,26.53,1.43,1.05-.18,2.09-.38,3.13-.6,5.62-1.15,11.05-2.77,16.14-5.07-19.89-4.73-27.98-12.96-37.16-11.1-34.29,6.93-58.37,3.81-84.74-20.24-15.41-14.06-32.18-35.24-39.52-58.3.24,2.68.64,5.33,1.28,7.93Z"></path> <path class="cls-48" d="m253.07,462.51c9.18-1.85,17.27,6.37,37.16,11.1.55-.25,1.1-.5,1.64-.77-1.07-.49-2.13-1.01-3.18-1.55-16.64-5.02-26.23-21.07-38.52-15.36-7.57,3.52-15.42,6.04-23.19,7.11-19.91,4.33-34.11-4.89-46.82-16.49-19.62-17.9-32.84-44.37-48.46-66.6-1.18-1.68-2.21-3.4-3.11-5.17-.11,3.07-.05,6.14.22,9.18,7.33,23.06,24.1,44.24,39.52,58.3,26.37,24.06,50.45,27.17,84.74,20.24Z"></path> <path class="cls-22" d="m181.39,425.09s-20.04-22.1-47.53-51.4c19.28,35.85,50.49,69.54,50.85,69.87,29.12,26.56,69.73,8.15,102.08-21.46,2.42-2.5,4.89-5.13,7.42-7.91,9.9-10.85,17.31-22.95,19.81-36.65-.4-.22-.81-.45-1.22-.68-3.72,4.45-7.67,9.03-11.85,13.61-54.33,59.56-96.95,55.25-119.57,34.61Z"></path> <path class="cls-40" d="m210.65,396.8s1.18,1.15,2.3,2.18c20.97,19.13,53.31,27.43,73.08,5.75,0,0,2.32-3.98,23.31-29.87-1.07-.64-2.14-1.3-3.22-1.98-4.28,5.58-7.26,11.14-12.82,17.23-8.8,9.65-20.5,17.16-32.57,19.44-9.55,7.54-25.59,3.08-34.58-5.12-5.36-4.89-9.01-11.47-9.77-18.88-21.08,6.32-49.17,7.77-75.43-11.45.26.25.51.49.76.71,21.29,19.42,68.95,21.99,68.95,21.99Z"></path> <path class="cls-31" d="m124.54,363.72c.35.41.7.81,1.07,1.2,2.81,2.98,5.56,5.9,8.24,8.76,27.5,29.3,47.53,51.4,47.53,51.4,22.62,20.63,65.25,24.95,119.57-34.61,4.17-4.58,8.13-9.16,11.85-13.61-1.16-.64-2.32-1.31-3.48-2-20.98,25.89-23.31,29.87-23.31,29.87-19.77,21.67-52.11,13.37-73.08-5.75-1.12-1.02-2.3-2.17-2.3-2.18,0,0-47.66-2.57-68.95-21.99-.24-.22-.5-.46-.76-.71-2.64-1.93-5.27-4.07-7.86-6.44-.36-.33-3.05-3.99-6.66-9.44-1.2-1.81-2.51-3.82-3.86-5.97.43,3.89,1.04,7.73,1.97,11.47Zm112.04,54.96c1.65,1.51.91,4.53-.58,6.17-.58.63-1.3,1.05-2.08,1.34-.26.19-.56.39-.88.58-13.92,3.19-36.01-.39-44.43-8.07-3.84-3.5-8.71-10.98-3.44-16.76,10.9-11.95,50.79,16.18,51.41,16.74Z"></path> <path class="cls-48" d="m188.6,418.7c8.42,7.68,30.5,11.26,44.43,8.07.32-.19.62-.39.88-.58.79-.29,1.51-.7,2.08-1.34,1.49-1.64,2.24-4.67.58-6.17-.62-.56-40.51-28.69-51.41-16.74-5.28,5.78-.4,13.26,3.44,16.76Z"></path> <path class="cls-31" d="m123.3,357.66c-.29-1.79-.54-3.59-.74-5.41-2.11-3.35-4.34-7.03-6.51-10.84-25.58-1.07-53.18-1.83-74.4-16.27,23.17,19.53,64.01,15.91,78.41,29.05,1.17,1.06,2.25,2.22,3.23,3.47Z"></path> <path class="cls-22" d="m48.99,336.95c3.51,3.2,47.98,36.21,79.56,42.03-.02-1.39,0-2.79.04-4.18-2.75-5.39-4.32-11.17-5.29-17.13-.99-1.24-2.07-2.4-3.23-3.47-14.4-13.14-55.24-9.52-78.41-29.05-1.74-1.18-3.43-2.45-5.08-3.82,3.27,5.78,7.47,11.11,12.42,15.62Z"></path> <path class="cls-55" d="m65.85,230.04c10.04-3.87,19.7-10.04,26.98-18.01,14.61-16.02,13.11-33.45,12.33-34.16-1.96-1.78-24.27,16.19-29.91,22.37-7.45,8.17-12.04,17.72-9.4,29.8Z"></path> <path class="cls-47" d="m78.34,312.27c1.6,1.46,3.41,2.73,5.37,3.85-9.79-9.27-14.84-19.49,8.96-45.6,2.75-3.02,5.78-5.86,8.97-8.55-7.83,2.88-15.43,8.49-22.49,16.24-10,10.96-10.89,24.86-.81,34.05Z"></path> <path class="cls-47" d="m65.79,313.74c6.83,6.23,17.35,8.31,27.89,9.75-3.2-1.78-6.19-3.89-8.87-6.34-.38-.34-.75-.69-1.11-1.04-1.96-1.11-3.77-2.39-5.37-3.85-10.08-9.19-9.19-23.09.81-34.05,7.07-7.75,14.66-13.36,22.49-16.24,3.95-3.31,8.15-6.37,12.42-9.17-14.4,4.24-28.46,14.65-40.76,28.14-17.97,19.7-15.46,25.54-7.51,32.79Z"></path> <path class="cls-27" d="m31.18,316.47c1.05.97,2.12,1.96,3.23,2.97,11.49,10.48,25.52,15.67,40.39,18.42-2.51-.85-4.98-1.82-7.37-3.04-10.57-5.43-22.08-8.68-30.84-16.67-10.32-9.41-26.33-29.54-16.9-39.88.71-.78,89.22-62.36,132.66-44.72.05-.02.1-.04.15-.06-2.58-2.74-4.98-5.36-7.21-7.86-20.63,1.92-19.5-4.01-44.44,6.5-12.73,5.37-32.25,15.02-64.93,32.18-3.4,1.79-6.94,3.65-10.63,5.6-4.38,2.32-8.74,5.25-12.03,8.87-8.93,9.79.02,21.08,17.91,37.69Z"></path> <path class="cls-22" d="m19.71,278.28c-9.43,10.34,6.58,30.47,16.9,39.88,8.76,7.99,20.27,11.24,30.84,16.67,2.39,1.22,4.86,2.19,7.37,3.04,13.48,2.49,27.65,2.97,41.25,3.54-2.09-3.67-4.09-7.45-5.87-11.16-23.4-.48-48.59,2.72-66.67-13.76-8.22-7.5-6.26-16.15-1.48-21.38,15.2-16.66,63.38-49.72,97.24-56.07,5.33-2.44,9.9-4.28,13.09-5.49-43.43-17.64-131.95,43.95-132.66,44.72Z"></path> <path class="cls-31" d="m43.52,316.49c18.07,16.48,43.26,13.28,66.67,13.76-.16-.33-.32-.66-.48-.98-5.58-1.07-11.05-3.02-16.02-5.79-10.54-1.43-21.07-3.52-27.89-9.75-7.95-7.25-10.46-13.09,7.51-32.79,12.3-13.48,26.36-23.9,40.76-28.14,8.75-5.73,17.73-10.34,25.21-13.77-33.85,6.35-82.04,39.41-97.24,56.07-4.77,5.23-6.74,13.88,1.48,21.38Z"></path> <path class="cls-43" d="m312.11,348.44c16.35,14.92,17.14,23.54,22.58,28.5,2.82,2.58,6.48,4.53,10.32,6.18-.41-.43-.82-.85-1.23-1.29-18.73-20.24-31.24-46.37-36.65-51.3-6.02-5.49-24.99-11.49-37.13-22.56-14.19-12.94-29.56-46.63-52.13-67.21-.09-.08-.17-.15-.26-.23,13.91,22.05,18.35,50.08,38.91,68.84,11.14,10.16,37.34,22.43,55.58,39.06Z"></path> <path class="cls-15" d="m124.73,197.88c3.9,7.55,10.54,16.5,20.58,27.76,2.23,2.5,4.64,5.12,7.21,7.86,1.01,1.07,2.04,2.16,3.1,3.27,21.1,22.06,52.97,51.8,99.04,93.82,4.31,3.93,8.54,7.79,12.71,11.52,1.8,1.61,3.59,3.21,5.37,4.77,6.72,5.91,13.28,11.45,19.76,16.42,7.25,5.56,14.4,10.4,21.52,14.25,11.18,6.04,22.33,9.62,33.78,9.69-31.75-9.29-59.25-27.02-83.6-49.23-17.31-15.79-35.6-37.17-49.4-55-6.13-6.52-15.72-16.27-28.72-28.13-12.54-11.44-25.39-22.48-37.85-33.84-16.72-15.25-24.85-30.7-27.18-44.67-1.65,6.22-.74,12.96,3.67,21.5Z"></path> <path class="cls-22" d="m121.05,176.37c2.33,13.97,10.46,29.43,27.18,44.67,12.45,11.36,25.31,22.4,37.85,33.84,13,11.86,22.59,21.61,28.72,28.13,13.8,17.83,32.09,39.22,49.4,55,24.35,22.21,51.85,39.94,83.6,49.23.44,0,.87.01,1.31,0-1.4-1.33-2.76-2.72-4.1-4.13-3.84-1.65-7.5-3.6-10.32-6.18-5.44-4.96-6.23-13.58-22.58-28.5-18.23-16.63-44.43-28.9-55.58-39.06-20.57-18.76-25-46.79-38.91-68.84-4.89-4.42-10.15-8.15-15.61-11.45-22.56-10.86-50.47-17.91-67.62-33.55-7.29-6.65-11.52-14.7-12.08-22.79-.51,1.19-.94,2.4-1.26,3.63Z"></path> <path class="cls-43" d="m202.01,229.08c-19.63-11.89-41.68-18.36-57.35-32.65-8.18-7.46-13.57-16.53-13.54-28.4-2.1-.31-4.06-.53-5.87-.66-1.17,1.79-2.15,3.57-2.93,5.38.56,8.09,4.79,16.14,12.08,22.79,17.15,15.64,45.06,22.69,67.62,33.55Z"></path> <path class="cls-31" d="m127.74,276.01c-5.86,6.43-3.63-.17,48.93,21.55,3.04,1.26,7.29,1.48,9.35-.78.02-.02.03-.03.04-.05-2.47-2.72-5.14-5.44-7.99-8.05-24.31-22.17-44.98-18.55-50.33-12.68Z"></path> <path class="cls-50" d="m103.85,283.68c-.27.34-.56.67-.86,1-2.32,2.54-5.05,4.79-7.43,7.39-1,1.09-1.96,2.32-2.76,3.59.21-.25.41-.49.64-.74,2.87-3.14,6.25-5.25,10.05-6.49,40.75-13.27,130.27,73.67,163.15,64.32.38-3.26.58-6.53.69-9.82-41.77-5.96-121.75-62.56-163.48-59.25Z"></path> <path class="cls-32" d="m222.05,300.69c-29.05-26.83-50.74-47.51-66.44-63.93-12.9,6.6-20.6,11.9-27.62,16.85-3.21,2.73-6.58,5.84-9.45,8.99-3.56,3.91-5.96,7.16-7.78,9.95,8.91-5.02,17.09-11.36,24.21-18.75,33.67-6.83,61.27,35.24,87.09,46.89Z"></path> <path class="cls-47" d="m124.51,272.42c50.83-25.87,79.82,51.44,133.02,60.78-.96-.88-1.91-1.74-2.88-2.62-11.78-10.74-22.62-20.68-32.6-29.89-25.81-11.66-53.41-53.73-87.09-46.89-7.12,7.4-15.3,13.73-24.21,18.75-1.93,2.97-3.2,5.42-4.5,7.6,6.27-1.89,12.35-4.73,18.25-7.73Z"></path> <path class="cls-55" d="m226.5,402.32c-6.52-5.95-9.03-11.71-9.32-17.02-.27.08-.54.17-.81.25.76,7.42,4.41,13.99,9.77,18.88,9.65,8.8,27.43,13.3,36.58,3.27,6.39-7.01,9.33-17.14,10.49-27.58.09-.83.17-1.66.24-2.49-3.2,9.77-6.85,21.32-13.12,28.19-10.3,11.29-25.36,4.25-33.85-3.5Z"></path> <path class="cls-15" d="m260.53,384.34c4.26-4.68,6.7-11.17,6.18-18.21,0,0-.41-5.69-.86-11.88-.46.11-.93.22-1.41.31.64,5.82-2.02,11.35-6.11,15.82-9.31,10.2-19.64,10.36-24.79,8.43-2.47,1.21-5.17,2.42-8.07,3.57.85,1.76,1.94,3.2,3.11,4.26,6.02,5.49,21.92,8.69,31.94-2.3Z"></path> <path class="cls-57" d="m229.25,399.8c8.73,7.96,20.77,10.1,29.6.41.88-.96,1.65-2.01,2.32-3.12.66-.69,1.35-1.38,2-2.1,2.6-2.85,3.05-5.17,2.37-5.79-.67-.61-2.48-.39-3.29.5,0,0-1.11,1.76-2.29,3.05-10.63,11.66-28.8-2.57-32.32,1.28-1.53,1.68.4,4.67,1.6,5.77Z"></path> <path class="cls-31" d="m136.2,361.92c22.04,20.1,75.3,33.54,112.79-7.3-1.26-.18-2.55-.41-3.85-.66-16.4,10.79-60.81,34.33-93.23,9.48-1.25-.96-2.48-1.99-3.69-3.09-17.55-16-5.87-29.77-23.29-45.66-4.04-3.68-8.57-5.68-13.1-6.59-2.94,11.89-.56,31.07,24.38,53.82Zm-12.62-39.6c7.47,6.81,7.35,14.08,9.2,19.63-.06,2.23-.2,4.48-.13,6.8.08,2.83,2.76,5.02,1.8,6.07-.48.53-1.6-.25-2.14-.73-.28-.26-.55-.53-.82-.78-.18-.17-1.71-1.31-2.73-2.24-2.56-2.33-16.12-23.35-11.17-32.44,2.23.81,4.23,2.1,5.98,3.69Z"></path> <path class="cls-48" d="m132.65,348.75c-.06-2.32.07-4.57.13-6.8-1.85-5.55-1.73-12.82-9.2-19.63-1.75-1.59-3.75-2.88-5.98-3.69-4.95,9.08,8.61,30.1,11.17,32.44,1.02.93,2.55,2.07,2.73,2.24.27.24.54.52.82.78.54.49,1.65,1.26,2.14.73.95-1.05-1.73-3.24-1.8-6.07Z"></path> <path class="cls-27" d="m140.41,369.83c-5.69-5.19-30.52-33.56-35.56-58.32-.31.25-.62.49-.92.76.32,2.42,1.04,5.15,2.06,8.07.99,2.84,2.26,5.85,3.71,8.94,1.89,4.02,4.08,8.15,6.35,12.14,2.16,3.81,4.4,7.49,6.51,10.84,5.43,8.6,10.03,14.97,10.52,15.41,28.4,25.9,60.09,24.85,83.29,17.89,13.06-3.92,23.42-9.7,28.99-13.6-36.81,17.22-74.72,25.45-104.96-2.13Z"></path> <path class="cls-29" d="m239.28,352.62c-8.07-2.1-16.7-5.33-25.59-9.11-15.69.23-30.38,7.43-43.47,16.14,1.33-.19,2.62-.53,3.83-1.03,46.71-19.58,50.77-.81,65.24-6Z"></path> <path class="cls-33" d="m241.94,353.28c-.88-.21-1.77-.43-2.67-.66-14.47,5.18-18.53-13.58-65.24,6-1.2.5-2.5.84-3.83,1.03-.07.05-.14.09-.22.14-.82.42-1.59.83-2.31,1.25-.09,1.01-.38,1.83-.88,2.47,19.14,2.6,45.69,10.42,75.14-10.23Z"></path> <path class="cls-47" d="m124.91,314.69c17.43,15.9,5.75,29.66,23.29,45.66,1.21,1.11,2.44,2.13,3.69,3.09.24-.06.48-.11.72-.16-.39-.28-.77-.59-1.14-.93-7.34-6.7-10.04-21.8-13.69-30.78-2.61-6.42.08-13.39-1.92-20.05-.2-.68-.38-1.34-.55-2-9.03-2.46-17.05-3.29-23.49-1.51,0,.03-.01.05-.02.08,4.53.91,9.06,2.91,13.1,6.59Z"></path> <path class="cls-43" d="m140.41,369.83c30.23,27.58,68.15,19.35,104.96,2.13,1.97-1.38,3.35-2.53,4.03-3.27,3.6-3.94,6.06-8.7,4.2-13.57-1.5-.1-3.04-.27-4.61-.49-37.49,40.83-90.75,27.4-112.79,7.3-24.95-22.75-27.32-41.93-24.38-53.82,0-.03.01-.05.02-.08-.06.02-.12.03-.18.05-2.53.72-4.8,1.86-6.8,3.45,5.04,24.76,29.87,53.12,35.56,58.32Z"></path> <path class="cls-47" d="m245.13,353.96c-1.05-.21-2.12-.43-3.19-.68-29.45,20.65-56,12.83-75.14,10.23-.05.06-.09.13-.14.19-1.9,2.08-8.64,3.52-14.04-.41-.24.05-.48.1-.72.16,32.42,24.85,76.83,1.31,93.23-9.48Z"></path> <path class="cls-32" d="m262.03,356.12c-.06.07-.12.16-.19.23-1.22,1.34-2.87,2.17-4.01,3.41-.34.37-2.67,5.79-5.61,9.01-3.19,3.5-6.83,4.88-9.86,5.16-2.44,1.52-5.41,3.2-8.82,4.88,5.15,1.93,15.49,1.77,24.79-8.43,4.08-4.48,6.75-10.01,6.11-15.82-.49.1-.99.18-1.5.25-.12.32-.28.63-.52.89-.15.17-.28.3-.4.42Z"></path> <path class="cls-33" d="m249.4,368.68c-.98,1.07-3.42,2.99-7.03,5.25,3.03-.28,6.67-1.66,9.86-5.16,2.94-3.22,5.27-8.64,5.61-9.01,1.13-1.24,2.79-2.08,4.01-3.41.07-.07.12-.15.19-.23.12-.12.25-.25.4-.42.24-.26.4-.57.52-.89-2.94.44-6.06.53-9.35.31,1.86,4.87-.61,9.63-4.2,13.57Z"></path> <path class="cls-40" d="m103.85,283.68c41.73-3.32,121.71,53.29,163.48,59.25,0-.27.02-.55.03-.82-3.23-2.9-6.52-5.88-9.83-8.9-53.2-9.34-82.19-86.65-133.02-60.78-5.9,3.01-11.98,5.84-18.25,7.73-.75,1.25-1.51,2.41-2.4,3.53Zm23.89-7.67c5.36-5.87,26.02-9.5,50.33,12.68,2.85,2.6,5.52,5.33,7.99,8.05-.01.02-.03.03-.04.05-2.06,2.26-6.31,2.03-9.35.78-52.57-21.72-54.79-15.12-48.93-21.55Z"></path> <path class="cls-38" d="m152.47,351.85c9.1-10.95-5.16-21.74-15.9-41.97-.41-.12-.83-.24-1.24-.35.17.65.34,1.32.55,2,1.52,5.09.33,10.35.83,15.41,2.97,12.06,8.46,20.92,10.06,22.38,1.52,1.39,3.38,2.32,5.71,2.54Z"></path> <path class="cls-29" d="m136.57,309.87c10.74,20.23,25,31.02,15.9,41.97-2.33-.22-4.19-1.16-5.71-2.54-1.59-1.45-7.09-10.32-10.06-22.38.16,1.57.47,3.12,1.09,4.65,3.65,8.98,6.35,24.09,13.69,30.78.01.01.02.02.04.03,2.14.84,4.45-.07,5.51-1.23,6.1-6.69,2.83-18.66-2.6-29.64-5.15-8.08-10.66-15.75-14.23-20.54-1.23-.39-2.43-.75-3.63-1.09Z"></path> <path class="cls-22" d="m157.03,361.15c-1.06,1.16-3.37,2.07-5.51,1.23,5.54,5.02,13.12,3.53,15.15,1.31.6-.66.93-1.56,1.02-2.66.51-6.05-6.02-18.18-13.26-29.53,5.43,10.98,8.7,22.95,2.6,29.64Z"></path> <path class="cls-17" d="m150.58,319.95c11.33,10.33,22.11,22.85,21.2,38.67,1.97-1.28,3.97-2.52,6-3.7.52-.5,1.1-1.05,1.69-1.62,2.34-1.48,4.72-3.12,6.47-5.03,4.85-5.32,2.24-11.52-2.16-15.53-2.91-2.66-25.11-13.16-41.59-19.76,2.1,1.49,4.78,3.67,8.39,6.96Z"></path> <path class="cls-23" d="m141.17,312.29c.32.22.66.45,1.02.7,16.48,6.59,38.68,17.1,41.59,19.76,4.4,4.01,7.01,10.21,2.16,15.53-1.74,1.91-4.12,3.55-6.47,5.03-.59.57-1.17,1.12-1.69,1.62,5.63-3.27,11.51-6.1,17.6-8.13,5.92-1.97,12.03-3.19,18.3-3.28-22.69-9.67-47.02-22.96-67.7-30.54-1.97-.72-3.9-1.39-5.8-2,.31.42.64.86.98,1.32Z"></path> <path class="cls-40" d="m141.48,312.71c9.13,12.39,27.04,38.46,26.21,48.33.72-.41,1.49-.83,2.31-1.25.59-.39,1.19-.78,1.78-1.17.91-15.82-9.87-28.34-21.2-38.67-3.6-3.29-6.29-5.47-8.39-6.96-.36-.25-.69-.48-1.02-.7.1.14.2.28.31.42Z"></path> <path class="cls-47" d="m102.69,306.25c-1.68,1.84-3.26,6.87-.05,12.86,1.11.46,2.24.89,3.36,1.22-1.02-2.92-1.75-5.65-2.06-8.07,7.13-6.46,18.18-6.35,31.39-2.74,1.59.43,3.22.92,4.87,1.45,21.83,7.01,48.64,21.95,73.49,32.54,14.42,6.14,28.18,10.81,39.91,11.61,4.6.31,8.88.03,12.77-.99-49.31.71-143.65-69.82-163.68-47.87Z"></path> <path class="cls-40" d="m96.81,294.41c-4.57,5.01-6.57,11.3-4.93,17.35.53.63,1.13,1.26,1.8,1.88,2.13,1.94,4.8,3.61,7.61,4.92.44.2.89.38,1.34.57-3.21-5.99-1.63-11.01.05-12.86,20.03-21.96,114.37,48.57,163.68,47.87.04,0,.08-.02.11-.03.06-.45.11-.9.17-1.34-9.61,2.73-24.05-2.76-40.7-11.57-45.55-19.61-111-66.66-129.14-46.78Z"></path> <path class="cls-23" d="m99,283.82c-3.07,3.37-7.04,6.44-10.02,9.7-5.25,5.75-7.09,12.21,3.18,21.58,3.88,3.54,8.8,6.09,14.23,6.33-.14-.37-.28-.74-.41-1.1-1.57-.47-3.16-1.07-4.7-1.79-2.81-1.3-5.48-2.97-7.61-4.92-5.46-4.98-6.35-10.56-1.93-16.62.32-.45.68-.89,1.06-1.34.8-1.27,1.76-2.5,2.76-3.59,2.37-2.6,5.11-4.85,7.43-7.39,4.67-5.12,5.36-10.93,15.55-22.09,2.87-3.15,6.25-6.25,9.45-8.99,6.13-4.31,12.77-8.9,22.92-14.38-12.65,4.43-27.72,13.13-37.5,23.85-9.81,10.76-9.33,15.17-14.41,20.75Z"></path> <path class="cls-17" d="m87.26,315.48c5.84,5.33,13.45,8.55,21.15,10.93-.75-1.7-1.42-3.36-2.01-4.98-5.43-.24-10.35-2.79-14.23-6.33-10.27-9.37-8.43-15.83-3.18-21.58,2.97-3.26,6.94-6.33,10.02-9.7,5.08-5.57,4.6-9.98,14.41-20.75,9.78-10.72,24.85-19.42,37.5-23.85,1.49-.8,3.05-1.62,4.7-2.47-1.06-1.11-2.09-2.2-3.1-3.27-2.65,1-6.29,2.46-10.55,4.34-19.55,11.13-39.84,24.4-47.57,32.87-14.09,15.44-23.26,30.08-7.14,44.78Z"></path> <path class="cls-27" d="m84.82,317.15c6.85,6.25,15.73,10.37,24.89,12.12-.45-.96-.88-1.91-1.29-2.86-7.7-2.38-15.31-5.6-21.15-10.93-16.12-14.7-6.95-29.34,7.14-44.78,7.73-8.47,28.02-21.75,47.57-32.87-14.22,6.28-35.33,17.37-49.3,32.69-24.7,27.08-18.33,37.07-7.85,46.63Z"></path> <path class="cls-24" d="m103.42,231.07c22.31-9.03,21.99-3.59,41.88-5.44-1.53-1.72-2.97-3.37-4.35-4.98-7.15,1.22-23.29-3.05-37.53,10.42Z"></path> <path class="cls-3" d="m114.35,211.87c.2-.21.4-.43.6-.65.54-.6,1.08-1.2,1.63-1.81,5.67-6.21,8.12-6.31,10.47-4.16,1.06.96,2.03,2.29,3.12,3.41.68.4,1.36.8,2.05,1.04-3.16-4.32-5.64-8.23-7.5-11.82-3.15,3.72-6.71,8.65-10.37,13.99Z"></path> <path class="cls-51" d="m114.95,211.22c-.2.22-.4.43-.6.65-4.53,6.61-9.22,13.85-13.49,20.27.44-.19.86-.36,1.28-.53,2.47-3.55,5.03-7.1,7.89-10.23,14.54-15.94,21.97-8.93,26.79-5.7-1.67-2.08-3.2-4.06-4.59-5.97-.69-.24-1.37-.64-2.05-1.04-1.1-1.12-2.06-2.45-3.12-3.41-2.35-2.14-4.8-2.05-10.47,4.16-.55.6-1.09,1.21-1.63,1.81Z"></path> <path class="cls-13" d="m110.03,221.37c-2.86,3.13-5.42,6.68-7.89,10.23.43-.18.87-.36,1.28-.53,14.24-13.47,30.38-9.21,37.53-10.42-1.46-1.71-2.85-3.38-4.14-4.98-4.82-3.23-12.25-10.24-26.79,5.7Z"></path> <path class="cls-50" d="m272.75,347c.79,8.53,1.82,21.03.47,33.13,1.26-1.25,2.53-2.48,3.8-3.71-2.88-7.55-.23-17.36-4.28-29.42Z"></path> <path class="cls-47" d="m272.75,347c4.05,12.05,1.4,21.86,4.28,29.42,2.81-2.69,5.68-5.32,8.65-7.8,4.28-6.46-5.44-11.97-11-20.05-.65-.56-1.29-1.12-1.94-1.69,0,.04,0,.08.01.12Z"></path> <path class="cls-32" d="m285.67,368.61c2.22-1.86,4.49-3.65,6.83-5.32-5.85-4.49-11.78-9.46-17.82-14.73,5.55,8.08,15.28,13.59,11,20.05Z"></path> <path class="cls-15" d="m398.86,293.44c1.79-3.67,3.4-7.36,4.47-11.13-5.97-12.89-12.75-25.39-20.38-37.32,4.24,17.16,18.98,26.7,15.91,48.44Z"></path> <path class="cls-45" d="m381.06,244.15c1.49,14.54,3.38,34.67,6.07,41.95,2,5.4,5.34,10.06,7.82,14.94.45-.86.91-1.72,1.36-2.58-1.74-5.75-7.28-10.6-8.46-16.6-1.97-10-3.72-28.19-6.79-37.71Z"></path> <path class="cls-56" d="m381.06,244.15c3.08,9.52,4.82,27.7,6.79,37.71,1.18,6,6.71,10.85,8.46,16.6.87-1.67,1.73-3.34,2.55-5.02,3.07-21.75-11.67-31.28-15.91-48.44-.71-1.11-1.42-2.23-2.15-3.33.08.8.17,1.63.26,2.48Z"></path> <path class="cls-15" d="m93.85,294.62c-4.58,5.02-5.38,11.78-2.09,16.61-1.39-5.88.62-11.96,5.05-16.82,18.14-19.89,83.58,27.16,129.14,46.78-18.12-9.59-38.86-23.1-58.82-34.23-12.09-5.5-30.6-14.67-38.99-16.51-12.52-2.75-25.7-5.24-34.29,4.18Z"></path> <path class="cls-27" d="m91.88,311.76c-.05-.18-.08-.35-.12-.53-3.29-4.83-2.49-11.58,2.09-16.61,8.6-9.43,21.77-6.93,34.29-4.18,8.39,1.84,26.9,11.02,38.99,16.51-24.46-13.64-47.75-23.69-63.63-18.52-3.8,1.24-7.18,3.35-10.05,6.49-5.58,6.11-5.85,11.76-1.57,16.83Z"></path> <path class="cls-27" d="m181.92,447.41c-3.6-3.28-2.72-4.31-5.64-6.98-1.06-.96-2.22-1.81-3.25-2.75-6.54-5.96-15.64-24.28-27.99-37.41,10.58,16.7,21.26,33.64,35.13,46.3,18.08,16.49,39.16,28.19,75.42,2.91-21.54,12.41-48.47,20.92-73.67-2.07Z"></path> <path class="cls-43" d="m128.6,374.79c.9,1.77,1.93,3.5,3.11,5.17,4.58,6.51,8.95,13.39,13.33,20.3,12.35,13.14,21.45,31.45,27.99,37.41,1.03.94,2.19,1.79,3.25,2.75,2.92,2.67,2.05,3.7,5.64,6.98,25.2,22.99,52.13,14.48,73.67,2.07,1.25-.87,2.51-1.78,3.79-2.73,8.32-6.21,17.41-14.3,27.41-24.65-32.35,29.61-72.96,48.02-102.08,21.46-.36-.33-31.58-34.02-50.85-69.87-2.68-2.86-5.43-5.78-8.24-8.76-.37-.39-.72-.79-1.07-1.2.95,3.82,2.25,7.53,4.06,11.07Z"></path> <path class="cls-55" d="m167.55,211.49c-3.39-2.13-8.02-4.82-13.05-7.5,4.14,2.73,8.52,5.17,13.05,7.5Z"></path> <path class="cls-55" d="m180.34,217.76c2.56,1.23,5.13,2.47,7.69,3.74-.33-.38-.62-.82-.99-1.16-.95-.87-3.63-1.63-6.7-2.58Z"></path> <path class="cls-61" d="m58.35,197.47c-4.23,7.45-8.52,14.86-9.62,23.34-.25,1.94-.34,3.94-.22,6.01.68-1.54,1.38-3.06,2.1-4.57,6.52-13.75,14.66-26.6,24.72-37.63,5.23-5.73,10.98-10.97,17.28-15.6-3.97-.28-7.87-.88-11.62-1.84-.92,6.57-6.76,13.37-12.75,19.93-3.21,3.52-6.55,6.94-9.9,10.36Z"></path> <path class="cls-2" d="m67.33,165.42c2,12.44-3.44,22.28-8.98,32.05,3.35-3.42,6.69-6.84,9.9-10.36,5.98-6.56,11.83-13.36,12.75-19.93-4.93-1.27-9.61-3.17-13.89-5.89-.08,1.26-.01,2.63.23,4.13Z"></path> <path class="cls-12" d="m58.35,197.47c-3.45,3.53-6.91,7.06-10.22,10.69-2.28,2.5-4.49,5.05-6.58,7.68,2.26,1.76,4.4,2.95,7.17,4.98,1.1-8.48,5.39-15.89,9.62-23.34Z"></path> <path class="cls-41" d="m36.18,223.22c-1.42,2.17-2.74,4.4-3.95,6.71,3.59,3.67,7.41,7.58,10.7,10.94.96-2.69,1.97-5.36,3.04-8.01-.29-.26-.58-.51-.88-.78-3.24-2.96-6.19-5.92-8.91-8.87Z"></path> <path class="cls-27" d="m19.38,216.79s6.01,6.15,12.85,13.14c1.21-2.31,2.53-4.55,3.95-6.71-30.97-33.6-28.39-66.52-2.4-95.02,35.93-39.39,162.33-42.45,223.17-52.05-15.29-1.98-31.6-7.45-43.09-4.26-25.76,7.16-49.8,1.26-75.53,7.3-.94.22-13.78,3.98-30.72,9.32-10.31,3.25-22.13,7.08-33.72,11.05-16.77,6.66-31.56,14.25-41.22,24.84-22.64,24.83-41.38,63.61-13.29,92.39Z"></path> <path class="cls-25" d="m31.15,232.1c3.72,3.65,7.47,7.22,11.07,10.76.23-.66.47-1.32.71-1.98-3.29-3.37-7.11-7.27-10.7-10.94-.37.71-.73,1.43-1.08,2.16Z"></path> <path class="cls-36" d="m0,179.44c.78,21.02,15.66,37.48,31.14,52.66.35-.73.71-1.45,1.08-2.16-6.83-6.99-12.85-13.14-12.85-13.14-28.09-28.77-9.35-67.56,13.29-92.39,9.66-10.59,24.44-18.18,41.22-24.84-25.17,8.63-49.24,17.94-54.22,23.4C13.5,129.73-.26,172.44,0,179.44Z"></path> <path class="cls-43" d="m36.18,223.22c1.67-2.55,3.48-5,5.38-7.39-.62-.48-1.25-1-1.91-1.6-13.37-12.19-20.95-41.01-2.09-61.68,16.23-17.79,113.86-53.72,148.48-59.09,22.93-5.72,46.27-5.99,65.51-7.64,12.48-1.07,23.22-2.71,31.02-6.79-.97-1.58-1.84-3.13-2.63-4.66-6.74,2.9-14.71,2.85-22.99,1.78-60.84,9.61-187.25,12.66-223.17,52.05-25.99,28.5-28.57,61.41,2.4,95.02Z"></path> <path class="cls-49" d="m41.55,215.83c-1.9,2.39-3.71,4.84-5.38,7.39,2.72,2.95,5.67,5.91,8.91,8.87.29.27.58.52.88.78.82-2.03,1.66-4.05,2.55-6.06-.12-2.07-.04-4.06.22-6.01-2.78-2.03-4.91-3.22-7.17-4.98Z"></path> <path class="cls-8" d="m81.67,142.62c1.6-.28,3.26-.65,4.98-1.14,14.86-4.25,28.07-11.34,42.1-14.75.3-.34.59-.67.9-1.01,4.18-4.58,8.58-8.58,13.14-12.1-13.44,6.74-20.09,12.15-39.08,17.1-7.91,4.23-15.65,8.4-22.04,11.9Z"></path> <path class="cls-2" d="m147.77,107.38c-.44.22-22.83,11.98-44.06,23.34,18.99-4.95,25.64-10.36,39.08-17.1,7.11-5.48,14.63-9.77,22.36-13.15-6.1,1.87-11.96,4.21-17.38,6.91Z"></path> <path class="cls-54" d="m103.71,130.72c21.23-11.36,43.62-23.12,44.06-23.34,5.42-2.7,11.28-5.04,17.38-6.91,6.84-2.98,13.84-5.26,20.89-7.02-34.62,5.37-132.25,41.3-148.48,59.09-18.85,20.67-11.28,49.49,2.09,61.68.66.6,1.29,1.12,1.91,1.6,2.09-2.63,4.3-5.18,6.58-7.68,3.31-3.63,6.76-7.16,10.22-10.69,5.54-9.77,10.98-19.61,8.98-32.05-.24-1.5-.31-2.87-.23-4.13-2.03-1.29-3.98-2.75-5.82-4.43-4.11-3.75-1.72-8.61-.44-10.01,1.22-1.34,2.86-2.06,4.85-2.5,7.62-5.55,32.29-12.24,34.4-12.74,1.25-.3,2.45-.6,3.61-.9Zm-53.22,52.75c-3.79,6.71-8.76,14.84-4.79,22.71-.31-.25-.61-.51-.9-.78-13.66-12.46-10.67-38.46-.14-50.01,2.52-2.76,3.33-3.81,7.64.13,7.57,6.91,3.21,19.05-1.82,27.95Z"></path> <path class="cls-20" d="m100.1,131.62c-2.11.5-26.77,7.19-34.4,12.74,3.99-.88,9.43-.59,15.97-1.74,6.39-3.5,14.13-7.67,22.04-11.9-1.16.3-2.35.6-3.61.9Z"></path> <path class="cls-8" d="m178.17,75.93c8.62-.14,17.26-.43,26.05-1.91,4.79-1.62,9.4-2.66,13.84-3.32-12-1.63-24.15-1.77-36.44-1.4-1.02,2.21-2.16,4.47-3.45,6.62Z"></path> <path class="cls-2" d="m187.05,54.9c-.15.16-2.02,6.98-5.44,14.41,12.29-.38,24.45-.24,36.44,1.4,24.1-3.55,42.85,4.3,53.75-7.65,1.04-1.14,1.94-2.47,2.69-4-1.35-7-.88-12.95.3-17.62-1.13,1.71-2.34,3.27-3.64,4.69-26.12,28.64-76.32.23-84.1,8.77Z"></path> <path class="cls-37" d="m151.29,70.74c-4.57.21-9.21-.19-13.82-.96-9.04,1.9-17.51.33-23.28-3.75-.22,9.77-4.64,14.15-6.58,22.5,16.94-5.34,29.78-9.1,30.72-9.32,13.58-3.19,26.7-3.06,39.84-3.27,1.28-2.16,2.43-4.41,3.45-6.62-10.03.31-20.14.96-30.33,1.43Z"></path> <path class="cls-34" d="m267.54,17.05c-12.46-11.36-28.96,1.42-39.61,13.1-.74.82-1.65,1.85-1.82,2.03-13.96,15.3-38.17,14.66-57.02,6.56.52,5.94-2.67,11.57-7.04,16.36-7.57,8.3-16.31,12.94-24.59,14.67,4.61.77,9.25,1.17,13.82.96,10.19-.47,20.3-1.12,30.33-1.43,3.42-7.43,5.29-14.25,5.44-14.41,7.79-8.54,57.98,19.87,84.1-8.77,1.3-1.42,2.51-2.99,3.64-4.69,1.23-4.84,3.21-8.28,4.75-10.05-.45-.36-.89-.73-1.32-1.11-5.86-5.34-5.76-8.74-10.68-13.23Zm-37.37,32.12c-1.17-1.07-1.73-3.18.12-5.2.1-.11,9.45-7.2,13.95-12.13,2.71-2.97,5.6-7.27,5.89-7.59,4.52-4.96,8.63-4.08,12.83-.25,4.6,4.19,4.64,10.51,1.89,15.65-8.66,5.78-30.98,12.91-34.69,9.53Z"></path> <path class="cls-62" d="m137.46,69.77c-8.03-1.34-15.97-3.78-23.3-6.04.03.79.04,1.56.02,2.29,5.76,4.08,14.24,5.65,23.28,3.75Z"></path> <path class="cls-10" d="m114.16,63.73c7.33,2.27,15.27,4.71,23.3,6.04,8.27-1.74,17.02-6.37,24.59-14.67,4.37-4.79,7.56-10.42,7.04-16.36,18.85,8.1,43.06,8.74,57.02-6.56.17-.18,1.07-1.22,1.82-2.03,10.65-11.68,27.16-24.46,39.61-13.1,4.92,4.49,4.82,7.89,10.68,13.23.43.39.87.75,1.32,1.11.06-.07.12-.14.18-.2.94-1.03,1.87-1.79,2.81-2.36-1.69-8.2-5.64-15.74-11.36-20.96-29.11-26.55-51.94,23.41-62.91,13.75-.15-.13-.3-.26-.45-.39-12.98-.06-24.16-16.66-34.74-8.22-14.8,11.81-30.82,17.1-50,15.57-4.49-.36-7.61.98-9.74,3.32-2.3,2.52-3.48,6.56-3.97,10.7,3.25,9.24,4.6,15.92,4.81,21.13Z"></path> <path class="cls-34" d="m321.85,84.34c.35,2.24.84,4.48,1.47,6.73,26.72,4.3,28.06,42.63,77.47,22.02-.9-1.37-1.84-2.7-2.82-4.02-15.62-8.9-50.2-30.66-76.13-24.73Zm56.97,21.25c2.35,2.14,1.69,4.16,1.13,4.77-.87.95-2.5.66-4.17-.04-10.15,2.5-19.2-2.98-26.65-9.78-7.23-6.59-7.08-7.11-5.93-8.38,4.23-4.63,32.07,10.19,35.62,13.43Z"></path> <path class="cls-52" d="m321.85,84.34c-2.2.5-4.33,1.2-6.39,2.13.34,1.43.7,2.85,1.09,4.26,2.43-.12,4.67,0,6.76.35-.63-2.25-1.12-4.49-1.47-6.73Z"></path> <path class="cls-1" d="m341.52,120.44c-4.64-2.39-8.69-5.41-12.37-8.76-3-2.74-5.84-5.98-8.44-9.46,2.47,5.28,5.73,10.12,10.22,14.21,7.96,7.26,15.57,11.61,22.88,13.91-3.9-2.62-7.59-5.57-11.09-8.77-.41-.37-.79-.76-1.19-1.13Z"></path> <path class="cls-6" d="m341.52,120.44c.4.38.78.76,1.19,1.13,3.51,3.2,7.2,6.15,11.09,8.77,19.24,6.06,36.27-2.19,51.49-9.65-.52-.98-1.06-1.95-1.61-2.92-29.54,11.37-48.43,9.75-62.16,2.67Z"></path> <path class="cls-59" d="m315.47,86.47c2.06-.92,4.19-1.63,6.39-2.13-.67-4.35-.81-8.66-.5-12.84-2.9.17-5.8.49-8.68.99.84,4.66,1.7,9.36,2.79,13.97Z"></path> <path class="cls-2" d="m321.85,84.34c25.93-5.93,60.5,15.83,76.13,24.73-3.61-4.88-7.69-9.42-12.17-13.5-17.57-16.03-41.07-25.41-64.45-24.06-.32,4.18-.17,8.48.5,12.84Z"></path> <path class="cls-42" d="m341.52,120.44c-9.53-9.06-15.35-19.21-18.2-29.37-2.09-.34-4.33-.47-6.76-.35,1.1,3.98,2.44,7.84,4.15,11.49,2.6,3.49,5.44,6.72,8.44,9.46,3.67,3.35,7.73,6.37,12.37,8.76Z"></path> <path class="cls-27" d="m323.32,91.08c2.84,10.16,8.67,20.3,18.2,29.37,13.73,7.08,32.62,8.7,62.16-2.67-.91-1.59-1.88-3.15-2.88-4.68-49.42,20.61-50.75-17.72-77.47-22.02Z"></path> <path class="cls-34" d="m432.72,199.76c8.68,18.29,18.1,36.27,19.7,56.02-3.86,6.86-7.14,13.9-9.5,21.11.96,6.74,2.77,13.87,6.01,21.5,11.35-19.39,35.87-45.46-20.84-130.15-5.45-8.13-12.34-16.55-17.9-25.29-.45-.16-.89-.32-1.33-.47,13.35,22.62,20.55,41.29,23.87,57.28Z"></path> <path class="cls-52" d="m442.91,276.89c-2.17,6.63-3.57,13.41-3.91,20.35,1.15,1.61,2.34,3.2,3.61,4.76,1.3-.15,2.69.02,4.14.41.64-1.32,1.37-2.65,2.17-4.02-3.24-7.63-5.05-14.76-6.01-21.5Z"></path> <path class="cls-30" d="m432.26,259.17c1.17-7.03,1.71-14.23,1.62-21.42-1.9,12.6-5.73,23.58-8.95,34.35,3.75,7.87,7.99,16.45,13.58,24.45-1.86-19.03-8-26.93-6.25-37.38Z"></path> <path class="cls-2" d="m442.91,276.89c2.36-7.22,5.64-14.25,9.5-21.11-1.6-19.75-11.02-37.72-19.7-56.02.48,2.32.87,4.57,1.2,6.78,15.45,21.53,5.04,42.62,9,70.35Z"></path> <path class="cls-39" d="m433.91,206.54c1.72,11.67,1.38,21.89-.03,31.21.09,7.19-.45,14.39-1.62,21.42-1.74,10.45,4.39,18.35,6.25,37.38.16.23.33.46.49.69.34-6.94,1.74-13.72,3.91-20.35-3.95-27.73,6.46-48.82-9-70.35Z"></path> <path class="cls-11" d="m446.75,302.4c1.58.43,3.24,1.13,4.97,1.96-1.03-2.03-1.96-4.02-2.79-5.98-.8,1.37-1.54,2.7-2.17,4.02Z"></path> <path class="cls-43" d="m448.92,298.39c.83,1.96,1.76,3.96,2.79,5.98,4.28,2.07,8.99,5,13.98,6.93-2.25-8.89-1.53-11.16,5.39-18.75,5.1-5.59,11.37-11.2,16.76-17.11,13.93-15.27,17.49-30.46,1.64-44.92-3.16-2.88-8.35-6.19-17.68-14.7-16.83-15.35-36.21-40.56-42.16-63.95-7.16-3.92-13.62-6.82-19.48-8.92,5.56,8.74,12.46,17.16,17.9,25.29,56.71,84.69,32.2,110.77,20.84,130.15Zm18.9-79.98s3.22,3.96,6.62,7.06c3.2,2.92,6.62,5.53,9.8,8.43,8.06,7.35,7.64,14.55,2.84,19.8-1.15,1.26-2.53,2.31-4.04,3.12-3.48.33-7.39-1.08-9.98-3.44-3.76-3.43-11.76-32.48-9.44-35.02,1.25-1.37,2.83-1.18,4.2.06Z"></path> <path class="cls-19" d="m397.7,229.6c-1.58-1.45-2.96-2.89-4.2-4.35.74,1.65,1.47,3.32,2.2,5.01,4.52,5.38,9.85,11.52,16.2,18.58,4.64,5.17,8.48,13.69,13.03,23.26,1.35-4.49,2.8-9.03,4.17-13.7-2.05-3.68-4.97-6.81-8.13-9.7-8.82-8.04-16.85-13.27-23.26-19.11Z"></path> <path class="cls-53" d="m359.57,181.58c-11.19-10.21-27.84-20.76-43.48-29.62,14.4,10.04,30.15,18.33,40.34,27.62,14.5,13.23,10.73,16.73,39.27,50.68-.72-1.69-1.46-3.36-2.2-5.01-9.23-10.85-10.89-22.66-33.93-43.67Z"></path> <path class="cls-46" d="m393.5,225.25c-9.3-20.7-20.19-38.77-35.91-55.06-3.56-2.31-6.3-3.83-6.34-3.86-.93-.85-2.35-2.59-1.46-3.71-19.68-17.88-43.56-30.53-69.84-34.2,7.67,2.36,14.74,5.76,20.45,10.97.22.2.97.91,1.67,1.55,4.33,3.95,9.1,7.58,14.02,11.01,15.64,8.86,32.29,19.41,43.48,29.62,23.04,21.01,24.7,32.82,33.93,43.67Z"></path> <path class="cls-2" d="m254.32,111.75c1.26,3.05,2.79,6.03,4.55,8.92,3.16,2.25,6.4,4.33,10.31,5.1,3.66.72,7.28,1.58,10.76,2.66,26.28,3.67,50.16,16.32,69.84,34.2.02-.02.03-.05.05-.07,3.97-4.35,34.38,11.14,38.14,14.58,14.99,13.67,10.39,27.98,15.4,37.41-4,1.15-8.66-1.03-12.09-4.16-6.29-5.74-7.51-17.98-23.32-32.4-3.18-2.9-7.12-5.68-10.38-7.79,15.72,16.29,26.61,34.35,35.91,55.06,1.24,1.46,2.61,2.9,4.2,4.35,6.41,5.85,14.45,11.07,23.26,19.11,3.16,2.88,6.09,6.02,8.13,9.7.91-3.09,1.78-6.24,2.57-9.49-23.12-23.53-16.41-57.58-35.79-75.26-22.62-20.63-55.18-14.81-91.83-48.25-13.51-12.32-24.28-27.65-26.94-44.06-7.07,2.44-15.78,3.64-25.57,4.47-1.93,9.02-.6,17.74,2.78,25.94Z"></path> <path class="cls-53" d="m351.25,166.33s2.78,1.55,6.34,3.86c-2.41-2.5-4.93-4.96-7.58-7.37-.07-.07-.14-.13-.22-.19-.89,1.11.53,2.86,1.46,3.71Z"></path> <path class="cls-19" d="m357.59,170.19c3.26,2.11,7.2,4.89,10.38,7.79,15.81,14.42,17.03,26.67,23.32,32.4,3.43,3.13,8.1,5.31,12.09,4.16-5-9.44-.4-23.74-15.4-37.41-3.77-3.44-34.18-18.93-38.14-14.58-.02.02-.03.05-.05.07.07.07.14.13.22.19,2.65,2.42,5.17,4.88,7.58,7.37Z"></path> <path class="cls-44" d="m204.93,126.11c-12.12-1.55-24.3-4.26-27.94-7.58-.27-.25-.49-.45-.69-.63-12-.57-23.7,2.35-35.07,6.96,1.72-.09,3.46-.12,5.23-.04,8.43.38,24.55,3.7,44.69,9.33,18.14,2.12,33.08,4.31,45.49,6.53-9.25-4.32-19.76-9.15-31.71-14.58Z"></path> <path class="cls-2" d="m176.31,117.9c-1.02-.96-1.12-1.26-.3-2.16,5.76-6.32,34.11-9.99,57.7,5.82,1.12,1.56.87,3.16-.53,4.69-1.7,1.86-14.93,1.56-28.25-.14,11.96,5.42,22.47,10.26,31.71,14.58,69.08,12.36,59.4,25.77,80.81,34.23-22.4-17.89-51.23-40.03-51.23-40.03-.35-.32-1.67-1.73-3.31-3.86-35.61-20.47-72.43-47.21-122.55-6.13.29-.02.58-.02.87-.03,11.37-4.62,23.07-7.53,35.07-6.96Z"></path> <path class="cls-19" d="m204.93,126.11c13.32,1.7,26.55,2,28.25.14,1.4-1.53,1.65-3.13.53-4.69-23.59-15.81-51.94-12.14-57.7-5.82-.82.9-.72,1.2.3,2.16,7.41.35,14.93,2.02,22.56,5.47,2.07.93,4.08,1.84,6.06,2.74Z"></path> <path class="cls-53" d="m204.93,126.11c-1.99-.9-4-1.81-6.06-2.74-7.63-3.44-15.15-5.12-22.56-5.47.2.19.42.39.69.63,3.63,3.31,15.82,6.03,27.94,7.58Z"></path> <path class="cls-52" d="m191.15,134.16c32.79,9.18,76.22,24.51,114.52,43.33-8.64-6.71-23.88-15.7-69.03-36.8-12.41-2.22-27.36-4.41-45.49-6.53Z"></path> <path class="cls-34" d="m305.67,177.49c15.57,7.65,30.29,15.87,43.1,24.5-2.77-2.79-5.61-5.52-8.53-8.18-4.37-3.99-12.96-11.02-22.79-18.87-21.4-8.46-11.72-21.87-80.81-34.23,45.15,21.1,60.39,30.08,69.03,36.8Z"></path> <path class="cls-14" d="m404.06,325.53c-1.63-5.76-3.66-11.43-6.32-16.92.29,1.44.45,2.94.4,4.5-.74,27.19,5.72,66.19,5.08,94.26,4.87,3.41,10.78,3.38,16.53,1.28-14.93-33.9-16.04-60.23-15.69-83.12Z"></path> <path class="cls-31" d="m403.07,283.12c-1.86,6.09-5.02,12.01-8.12,17.91,1.24,2.43,2.25,4.92,2.79,7.58,2.66,5.49,4.69,11.16,6.32,16.92.24-15.25,1.13-28.98-.98-42.41Z"></path> <path class="cls-26" d="m419.74,408.65c1.32-.48,2.63-1.08,3.92-1.76-13.39-23.27-11.72-53.42-19.6-81.36-.36,22.89.75,49.22,15.69,83.12Z"></path> <path class="cls-48" d="m403.33,282.31c-.08.27-.17.54-.25.81,2.11,13.43,1.22,27.16.98,42.41,7.89,27.94,6.21,58.09,19.6,81.36,4.09-2.16,7.96-5.25,11.14-8.73.31-.34.65-.74,1.02-1.17-46.16-52.5,8.84-91.5-44.01-143.95,6,9.48,9.23,18.67,10.92,27.97.2.43.41.86.61,1.29Z"></path> <path class="cls-16" d="m261.72,291.51c2.45,3.45,4.44,6.02,5.81,7.28,1.17,1.06,2.36,2.07,3.53,3.14,4.27,3.89,5.65,7.22,5.65,7.22,0,0,20.44,9.59,33.01,21.06,16.44,14.99,15.5,26.29,26.94,36.73,1.85,1.69,3.9,3.14,6.19,4.26-.05-1.95-.05-3.9.02-5.85-12.22-12.07-16.19-27.66-28.08-38.51-13.77-12.56-35.89-22.04-53.08-35.33Z"></path> <path class="cls-55" d="m154.5,203.99c5.03,2.68,9.66,5.37,13.05,7.5,4.17,2.14,8.47,4.19,12.79,6.27,3.07.96,5.75,1.71,6.7,2.58.37.34.66.78.99,1.16.41.21.82.41,1.24.62,4.35,1.41,22.95,7.7,31.03,15.07,14.89,13.58,31.76,40.74,41.42,54.32,17.19,13.3,39.31,22.77,53.08,35.33,11.89,10.85,15.86,26.43,28.08,38.51.07-1.99.19-3.98.38-5.97-2.72-1.38-5.31-3-7.54-5.04-9.72-8.87-14.48-27.37-25.78-37.67-8.61-7.85-23.18-10.33-35.31-21.4-9.67-8.82-22.79-33.77-41.19-50.56-18.18-16.58-60.49-33.09-87.55-47.2,2.71,2.35,5.6,4.49,8.61,6.47Z"></path> <path class="cls-48" d="m261.72,291.51c-9.66-13.58-26.53-40.74-41.42-54.32-8.08-7.37-26.68-13.66-31.03-15.07,10.02,5.04,19.91,10.72,28.6,18.65,11.82,10.78,21.66,25.15,30.4,38.25,2.49,2.63,4.65,4.94,7.25,7.31,1.97,1.8,4.05,3.52,6.2,5.18Z"></path> <path class="cls-57" d="m309.73,330.21c-12.57-11.46-33.01-21.06-33.01-21.06,0,0-1.39-3.33-5.65-7.22-1.17-1.07-2.36-2.08-3.53-3.14-1.37-1.25-3.36-3.82-5.81-7.28-2.15-1.66-4.23-3.38-6.2-5.18-2.6-2.37-4.76-4.68-7.25-7.31,7.95,11.92,14.97,22.79,21.73,28.96,12.13,11.07,31.11,17.06,37.13,22.56,5.41,4.93,17.91,31.06,36.65,51.3-.52-3.53-.82-7.08-.92-10.63-2.29-1.12-4.34-2.57-6.19-4.26-11.45-10.44-10.51-21.74-26.94-36.73Z"></path> <path class="cls-4" d="m67.32,243.12c-7.89,2.36-16.07,4.15-23.96,4.8-2.76,5.68-5.24,11.11-7.32,15.98-.03.14-.07.27-.1.41,1.18-.62,2.34-1.23,3.49-1.83.7-.94,1.45-1.86,2.25-2.73,5.63-6.17,15.16-11.19,25.64-16.63Z"></path> <path class="cls-22" d="m43.36,247.92c7.89-.65,16.07-2.45,23.96-4.8,13.19-6.84,27.88-14.35,38.19-25.65,17.52-19.21,12.91-35,13.33-50.08-.49.05-.97.11-1.42.18-3.01.5-6.05.9-9.1,1.18-11.39,5.74-21.49,13.93-30.35,23.64-12.1,13.26-25.07,35.92-34.61,55.53Zm61.8-70.05c.78.71,2.28,18.14-12.33,34.16-7.27,7.98-16.94,14.15-26.98,18.01-2.64-12.08,1.95-21.63,9.4-29.8,5.63-6.18,27.95-24.15,29.91-22.37Z"></path> <path class="cls-31" d="m67.32,243.12c14.08-4.21,27.2-10.2,35.97-14.66,7.15-10.83,15.12-23.13,21.43-30.58-6.6-12.77-5.36-21.51.52-30.51-2.39-.17-4.53-.17-6.4.01-.42,15.08,4.19,30.88-13.33,50.08-10.31,11.31-25,18.81-38.19,25.65Z"></path> <path class="cls-14" d="m41.68,259.75c-.8.87-1.55,1.79-2.25,2.73,30.58-16.02,49.16-25.18,61.43-30.35.8-1.2,1.61-2.43,2.43-3.67-8.77,4.46-21.89,10.45-35.97,14.66-10.48,5.44-20.01,10.46-25.64,16.63Z"></path> <path class="cls-35" d="m40.48,248.11c-1.67,5.23-3.14,10.51-4.44,15.79,2.08-4.87,4.56-10.3,7.32-15.98-.97.08-1.93.15-2.89.19Z"></path> <path class="cls-9" d="m40.48,248.11c.96-.04,1.92-.11,2.89-.19,9.54-19.61,22.52-42.27,34.61-55.53,8.86-9.71,18.97-17.9,30.35-23.64-5.27.5-10.56.64-15.71.27-6.3,4.63-12.05,9.86-17.28,15.6-14.95,16.39-25.69,36.8-33.11,58.24-.6,1.75-1.19,3.5-1.75,5.26Z"></path> <path class="cls-33" d="m281.46,377.82c9.02-6.72,17.73-7.06,21.92-6.72-3.61-2.4-7.23-5.02-10.88-7.81-.52.37-1.02.75-1.53,1.13-.2.21-.39.41-.59.62-3.83,4.2-6.64,8.52-8.92,12.77Z"></path> <path class="cls-29" d="m272.11,387.27c1.23-1.52,2.41-2.94,3.39-4.02,1.97-2.16,3.97-3.95,5.96-5.43,2.29-4.25,5.09-8.57,8.92-12.77.19-.21.39-.42.59-.62-6.29,4.68-12.12,10.12-17.75,15.7-.27,2.41-.64,4.8-1.11,7.14Z"></path> <path class="cls-47" d="m281.46,377.82c-5.39,10.02-7.91,19.67-14.22,26.6-1.73,1.9-3.72,3.51-6.05,4.75-.15.13-.3.27-.46.39,12.06-2.28,23.77-9.79,32.57-19.44,5.56-6.09,8.53-11.65,12.82-17.23-.91-.58-1.82-1.17-2.74-1.78-4.19-.35-12.9,0-21.92,6.72Z"></path> <path class="cls-21" d="m281.46,377.82c-1.99,1.48-3.99,3.27-5.96,5.43-.99,1.08-2.17,2.5-3.39,4.02-1.59,7.8-4.46,15.04-9.38,20.44-.49.53-1.01,1.01-1.54,1.46,2.33-1.23,4.32-2.85,6.05-4.75,6.31-6.92,8.83-16.57,14.22-26.6Z"></path> </g> </g> </svg> 