<?xml version="1.0" encoding="UTF-8"?> <svg xmlns="http://www.w3.org/2000/svg" id="Layer_2" data-name="Layer 2" viewBox="0 0 445.08 432.03"> <defs> <style> .cls-1 { fill: #e0d5e9; } .cls-2 { fill: #ece4f1; } .cls-3 { fill: #d5c4df; } .cls-4 { fill: #fff; } .cls-5 { fill: #d9cbe4; } .cls-6 { fill: #ece7f2; } .cls-7 { fill: #f6f6fa; } .cls-8 { fill: #f8f6fa; } .cls-9 { fill: #e3dcee; } .cls-10 { fill: #ebe6f1; } .cls-11 { fill: #f7f7fb; } .cls-12 { fill: #e6dbed; } .cls-13 { fill: #f3eef7; } .cls-14 { fill: #b8a6d0; } .cls-15 { fill: #eae1ef; } .cls-16 { fill: #d9c9e3; } .cls-17 { fill: #ccbadb; } .cls-18 { fill: #e9e0ee; } .cls-19 { fill: #fbf9fc; } .cls-20 { fill: #beafd6; } .cls-21 { fill: #f0ebf5; } .cls-22 { fill: #907db9; } .cls-23 { fill: #c7b7da; } .cls-24 { fill: #9d8ac1; } .cls-25 { fill: #fdfeff; } .cls-26 { fill: #f7f5fa; } .cls-27 { fill: #c2afd5; } .cls-28 { fill: #ece5f0; } .cls-29 { fill: #e6d8eb; } .cls-30 { fill: #af9dca; } .cls-31 { fill: #d0bcdb; } .cls-32 { fill: #f4eff6; } .cls-33 { fill: #ab95c7; } .cls-34 { fill: #e1d4e7; } .cls-35 { fill: #eee5f1; } .cls-36 { fill: #f6f1f8; } .cls-37 { fill: #a391c5; } .cls-38 { fill: #e4dbeb; } .cls-39 { fill: #f7f6fb; } .cls-40 { fill: #e3d9ec; } .cls-41 { fill: #d2c4df; } .cls-42 { fill: #e1d3e7; } .cls-43 { fill: #dacce4; } .cls-44 { fill: #decfe6; } .cls-45 { fill: #c8b6d8; } </style> </defs> <g id="clipping_mask" data-name="clipping mask"> <g> <path class="cls-34" d="m140.96,280.04c19.34-8.86,37.9,18.34,56.78,9.69,5.31-2.43,8.63-5.79,16.08-9.2,5.19-2.38,13.11-4.75,13.26-4.81,1.47-.68,2.73-1.7,3.74-2.92-.09-.13-.18-.25-.26-.37-3.71,1.69-6.79,1.24-12.44,3.83-6.99,3.2-13.62,9.3-20.41,12.42-8.93,4.09-34.02-9.52-34.55-9.72-15.45-5.93-23.78-.68-30.19-1.58-1.1,2.12-2.12,4.27-3.04,6.46,1.76-.1,4.08-.58,8.13-2.43.98-.45,1.95-.91,2.91-1.35Z"></path> <path class="cls-44" d="m197.7,288.67c6.79-3.11,13.42-9.21,20.41-12.42,5.65-2.59,8.74-2.14,12.44-3.83-.25-.36-.5-.71-.76-1.06-.06.03-.12.07-.18.1-3.77,1.73-13.69,4.22-20.57,7.36-5.15,2.36-5.9,3.54-9.79,5.32-6.31,2.89-13.55,3.6-20.69-.7-27.71-16.69-33.42-3.7-43.05-10.68-.9,1.51-1.75,3.04-2.56,4.59,6.41.9,14.74-4.35,30.19,1.58.53.2,25.61,13.81,34.55,9.72Z"></path> <path class="cls-16" d="m178.57,283.45c7.14,4.3,14.37,3.59,20.69.7,3.89-1.78,4.64-2.96,9.79-5.32,6.87-3.15,16.8-5.64,20.57-7.36.06-.03.12-.07.18-.1-.46-.63-.94-1.26-1.43-1.88-1,1.1-2.42,1.99-3.92,2.67-3.84,1.76-5.77.97-12.34,3.98-4.78,2.19-7.76,4.42-12.22,6.46-5.77,2.65-12.14,4.03-17.62.02-26.88-19.65-36.25-2.19-45.17-12.4-.54.84-1.07,1.7-1.59,2.56,9.63,6.97,15.34-6.02,43.05,10.68Z"></path> <g> <path class="cls-34" d="m226.51,268.21c.1.01.19.02.29.03-.07-.02-.13-.04-.2-.07-.03.01-.06.02-.09.04Z"></path> <polygon points="230.25 268.96 224.78 268.43 226.37 267.84 226.51 268.21 226.41 267.82 226.55 267.76 226.86 267.84 230.25 268.96"></polygon> </g> <path class="cls-1" d="m227.08,275.71c-.14.07-8.06,2.43-13.26,4.81-7.45,3.42-10.77,6.77-16.08,9.2-18.89,8.65-37.44-18.55-56.78-9.69-.97.44-1.94.91-2.91,1.35-4.04,1.85-6.36,2.33-8.13,2.43-1.38,3.26-2.57,6.59-3.58,9.99,3.14-4.61,7.64-8.6,12.67-10.91,20.33-9.32,35.21,19.32,53.58,10.91,3.52-1.61,7.73-5.81,18.05-10.55,8.45-3.87,16.21-5.68,23.21-5.64-.93-1.65-1.94-3.26-3.03-4.82-1.01,1.22-2.27,2.24-3.74,2.92Z"></path> <path class="cls-30" d="m186.97,269.76c10.5,3.85,17.82-5.67,30.13-5.35-.86-.39-1.68-.77-2.48-1.14-2.68-.2-5.38-.6-8.06-.93-5.14-.64-9.19,2.63-14,2.45-5.78-.22-10.8-3.29-16.67-4.27-6.28-1.05-12.88-.66-18.87-2.05-1,.05-2.01.1-3.01.14-2.01.08-4.26.02-6.73-.16,4.97,4.81,13.63,1.75,39.68,11.31Z"></path> <path class="cls-14" d="m185.54,274.28c3.4,2.89,7.37,2.41,11.01.75,4.11-1.88,6.86-4.86,11.82-7.14,7.62-3.49,9.91-.55,18.14.32.03-.01.06-.02.09-.04-3.54-1.2-6.69-2.5-9.5-3.76-12.31-.32-19.64,9.2-30.13,5.35-26.05-9.56-34.71-6.5-39.68-11.31-.34-.03-.69-.05-1.03-.08-.45.49-.9.99-1.34,1.49.05.36.15.76.35,1.2,4.98,10.86,19.53-4.45,40.28,13.22Z"></path> <path class="cls-27" d="m142.63,266.8c.94,2.06,5.24,3.92,10.54,1.87,21.74-8.4,33.13,15.89,43.93,10.94,2.91-1.33,3.71-3.56,9.73-6.31,7.7-3.53,16.83-3.97,19.69-5.08-8.23-.87-10.52-3.81-18.14-.32-4.96,2.27-7.71,5.26-11.82,7.14-3.64,1.67-7.61,2.15-11.01-.75-20.75-17.67-35.3-2.35-40.28-13.22-.2-.44-.31-.84-.35-1.2-.48.54-.94,1.09-1.4,1.64-.71,1.84-1.59,3.75-.89,5.3Z"></path> <path class="cls-31" d="m180.5,278.34c6.42,6.36,13.58,4.94,20.77,1.65,4.79-2.2,9.61-5.23,14.23-7.35,6.43-2.95,8.75-1.64,12.15-3.2.17-.08.33-.16.48-.25-.18-.23-.36-.46-.54-.68-.27-.09-.53-.18-.8-.27-.1,0-.19-.02-.29-.03-2.86,1.11-11.99,1.56-19.69,5.08-6.02,2.76-6.82,4.98-9.73,6.31-10.8,4.95-22.19-19.34-43.93-10.94-5.3,2.05-9.6.19-10.54-1.87-.71-1.54.18-3.46.89-5.3-1.74,2.08-3.36,4.22-4.87,6.41,7.47,8.48,25.19-6.09,41.86,10.43Z"></path> <path class="cls-3" d="m182.27,282.62c5.48,4.01,11.85,2.62,17.62-.02,4.45-2.04,7.44-4.27,12.22-6.46,6.57-3.01,8.51-2.22,12.34-3.98,1.5-.69,2.92-1.57,3.92-2.67-.08-.1-.15-.19-.23-.29-.16.09-.32.17-.48.25-3.4,1.56-5.71.26-12.15,3.2-4.63,2.12-9.44,5.15-14.23,7.35-7.2,3.3-14.35,4.71-20.77-1.65-16.67-16.51-34.39-1.94-41.86-10.43-.52.76-1.04,1.53-1.54,2.3,8.92,10.21,18.29-7.25,45.17,12.4Z"></path> <path class="cls-29" d="m233.85,277.62c-7-.04-14.76,1.77-23.21,5.64-10.33,4.73-14.54,8.93-18.05,10.55-18.37,8.42-33.25-20.22-53.58-10.91-5.03,2.3-9.52,6.29-12.67,10.91-2.12,7.13-3.44,14.54-4.06,22.09,3.33-11.1,9.57-26.66,18.33-30.68,16.95-7.76,31.37,19.8,57.98,7.6,4.29-1.97,7.35-3.79,9.98-5,11.98-5.49,24.29-6.87,31.01,3.72-1-3.43-2.23-6.76-3.7-9.95-.62-1.35-1.3-2.67-2.03-3.97Z"></path> <path class="cls-18" d="m184.4,389.93c.43-1.11.85-2.19,1.26-3.27-.53,1.06-.91,2.16-1.26,3.27Z"></path> <path class="cls-18" d="m208.57,287.82c-2.63,1.2-5.68,3.03-9.98,5-26.61,12.19-41.04-15.37-57.98-7.6-8.76,4.01-15,19.58-18.33,30.68-2.03,25,3.79,51.62,14.65,75.33,18.07,39.45,21.27,31.9,32.82,26.6,59.91-27.45,82-84.6,69.82-126.29-6.72-10.58-19.03-9.21-31.01-3.72Zm-50.35,130.34c-8.27-10.47-15.99-22.59-21.91-35.51-24.18-52.78-2.97-87.75,4.17-91.02,11.48-5.26,25.41,4.55,29.39,5.76,7.67,2.34,15.38-1.38,22.15,13.4,14.58,31.82-15.96,94.34-33.8,107.37Zm28.6-15.86c-1.93.88-3.6.5-4.81-2.13-.57-1.23-.74-2.68-.08-3.77,1.26-2.09,1.81-4.31,2.48-6.47.35-1.11.73-2.21,1.26-3.27,30.71-81.06-4.2-81.53,22.53-93.77,11.89-5.45,23.58-2.97,30.5,12.13,10.55,23.02-13.23,79.58-51.87,97.28Z"></path> <path class="cls-35" d="m169.86,297.39c-3.98-1.21-17.91-11.02-29.39-5.76-7.14,3.27-28.35,38.24-4.17,91.02,5.92,12.92,13.64,25.04,21.91,35.51,17.84-13.03,48.37-75.55,33.8-107.37-6.77-14.78-14.48-11.06-22.15-13.4Zm-19.05,99.42c-4.9-5.39-8.73-11.34-11.64-17.69-12.71-27.75-8.89-77.54,1.76-82.42,10.8-4.95,28.38.96,36.93,19.63,17.59,38.39-8.32,71.45-27.06,80.48Z"></path> <path class="cls-15" d="m208.19,292.89c-26.73,12.25,8.18,12.71-22.53,93.77-.41,1.08-.82,2.16-1.26,3.27-.67,2.16-1.22,4.37-2.48,6.47-.66,1.1-.48,2.54.08,3.77,1.21,2.64,2.88,3.02,4.81,2.13,38.64-17.7,62.42-74.26,51.87-97.28-6.92-15.1-18.61-17.58-30.5-12.13Zm6.07,80.36c-1.57-1.21-3.55-3.28-4.74-5.86-4.51-9.85,1.86-23.84,3.31-34.47,1.94-14.22-7.06-28.72,8.06-35.65,6.63-3.04,11.29,3.91,14.37,10.64,9.72,21.22-6.65,47.28-21.01,65.35Z"></path> <path class="cls-28" d="m220.89,297.26c-15.12,6.93-6.12,21.43-8.06,35.65-1.45,10.63-7.82,24.62-3.31,34.47,1.18,2.58,3.17,4.65,4.74,5.86,14.36-18.07,30.73-44.13,21.01-65.35-3.08-6.73-7.74-13.67-14.37-10.64Z"></path> <path class="cls-36" d="m149.23,300.4c-17.63,8.08-12.1,35.79-9.16,52.47,2.68.43,6.31.3,10.08-1.43,5.05-2.31,23.65-23.3,15.5-41.1-3.09-6.73-10.2-12.79-16.42-9.95Z"></path> <path class="cls-21" d="m140.94,296.7c-10.65,4.88-14.48,54.67-1.76,82.42,2.91,6.35,6.73,12.3,11.64,17.69,18.74-9.03,44.65-42.09,27.06-80.48-8.55-18.67-26.13-24.58-36.93-19.63Zm9.21,54.74c-3.77,1.73-7.39,1.86-10.08,1.43-2.94-16.69-8.47-44.4,9.16-52.47,6.21-2.85,13.33,3.21,16.42,9.95,8.15,17.8-10.45,38.78-15.5,41.1Z"></path> <g> <path class="cls-34" d="m114.97,188.84c16.51,12.88,1.58,40.9,17.7,53.47,4.54,3.54,8.95,4.94,15.31,9.91,4.43,3.46,10.11,9.29,10.23,9.38,1.26.98,2.72,1.63,4.23,1.96.07-.13.13-.26.2-.39-3.16-2.47-4.18-5.34-9.01-9.11-5.97-4.66-14.27-7.73-20.07-12.25-7.63-5.95-7.4-33.66-7.47-34.21-1.98-16-10.33-20.91-12.49-26.87-2.33-.02-4.65.04-6.96.19.89,1.49,2.37,3.29,5.82,5.98.84.65,1.68,1.29,2.5,1.93Z"></path> <path class="cls-44" d="m133.57,241.82c5.8,4.52,14.1,7.6,20.07,12.25,4.83,3.77,5.85,6.64,9.01,9.11.19-.37.38-.75.57-1.13-.06-.04-.12-.07-.17-.12-3.22-2.51-9.92-10.02-15.79-14.6-4.4-3.43-5.76-3.56-9.08-6.15-5.39-4.2-9.32-10.17-8.89-18.24,1.67-31.34-12.14-30.59-10.55-42-1.71-.12-3.43-.19-5.13-.2,2.17,5.95,10.52,10.87,12.49,26.87.07.55-.15,28.26,7.47,34.21Z"></path> <path class="cls-16" d="m129.29,222.95c-.43,8.07,3.5,14.03,8.89,18.24,3.32,2.59,4.68,2.72,9.08,6.15,5.87,4.58,12.57,12.09,15.79,14.6.05.04.11.08.17.12.33-.68.65-1.37.96-2.06-1.4-.38-2.82-1.23-4.1-2.22-3.28-2.55-3.49-4.58-9.1-8.95-4.08-3.18-7.38-4.79-11.18-7.76-4.93-3.85-9.04-8.76-8.1-15.26,4.6-31.91-14.74-32.39-10.03-44.59-.98-.1-1.96-.19-2.93-.25-1.59,11.41,12.22,10.66,10.55,42Z"></path> <g> <path class="cls-34" d="m164.43,257.83c.04.09.07.18.11.26-.01-.07-.02-.14-.03-.2-.02-.02-.05-.04-.07-.06Z"></path> <polygon points="165.5 261.39 163.44 256.42 164.68 257.54 164.43 257.83 164.72 257.56 164.83 257.66 164.9 257.96 165.5 261.39"></polygon> </g> <path class="cls-1" d="m158.22,261.61c-.12-.1-5.8-5.92-10.23-9.38-6.37-4.96-10.78-6.37-15.31-9.91-16.12-12.58-1.19-40.59-17.7-53.47-.83-.64-1.67-1.28-2.5-1.93-3.45-2.69-4.93-4.49-5.82-5.98-3.44.23-6.86.66-10.25,1.27,5.42.7,10.92,2.85,15.21,6.2,17.36,13.54-.5,39,15.19,51.23,3,2.34,8.56,4.15,17.38,11.03,7.21,5.63,12.34,11.56,15.51,17.64,1-1.53,1.92-3.11,2.77-4.74-1.51-.34-2.97-.98-4.23-1.96Z"></path> <path class="cls-30" d="m144.95,224.23c1.5,10.79,13.06,12.97,18.44,23.78-.06-.91-.11-1.8-.16-2.65-1.05-2.41-1.95-4.93-2.9-7.4-1.81-4.74-6.48-6.82-8.53-11.07-2.46-5.1-2.12-10.8-3.96-16.32-1.97-5.9-5.34-11.45-6.89-17.25-.5-.85-1.01-1.69-1.5-2.54-.99-1.7-1.98-3.69-2.95-5.9-1.86,6.42,4.75,12.58,8.46,39.36Z"></path> <path class="cls-14" d="m140.39,224.97c-.94,4.22,1.3,7.45,4.41,9.87,3.51,2.73,7.34,3.81,11.58,7.12,6.51,5.08,5.02,8.35,8.05,15.86.02.02.05.04.07.06-.59-3.6-.91-6.9-1.12-9.88-5.37-10.81-16.94-12.99-18.44-23.78-3.72-26.78-10.33-32.94-8.46-39.36-.13-.31-.27-.62-.4-.93-.63-.18-1.27-.34-1.9-.51-.29.2-.59.46-.87.83-7.08,9.08,12.8,14.98,7.09,40.71Z"></path> <path class="cls-27" d="m127.15,184.49c-1.34,1.72-.97,6.26,3.23,9.96,17.22,15.16,1.51,35.69,10.73,42.88,2.48,1.94,4.77,1.65,9.91,5.66,6.57,5.13,11.15,12.85,13.42,14.84-3.03-7.52-1.54-10.79-8.05-15.86-4.24-3.31-8.07-4.38-11.58-7.12-3.11-2.42-5.35-5.66-4.41-9.87,5.71-25.73-14.17-31.63-7.09-40.71.29-.37.58-.63.87-.83-.69-.17-1.37-.34-2.06-.5-1.91.19-3.97.27-4.97,1.55Z"></path> <path class="cls-31" d="m134.58,222.38c-2.54,8.36,1.97,13.94,8.11,18.73,4.09,3.19,8.91,6.04,12.86,9.12,5.49,4.29,5.43,6.86,8.34,9.13.14.11.29.21.44.31.11-.26.23-.51.34-.77-.05-.27-.09-.54-.14-.81-.04-.09-.07-.18-.11-.26-2.27-1.99-6.84-9.71-13.42-14.84-5.14-4.01-7.42-3.73-9.91-5.66-9.22-7.19,6.49-27.72-10.73-42.88-4.2-3.7-4.57-8.24-3.23-9.96,1-1.29,3.06-1.36,4.97-1.55-2.59-.59-5.18-1.06-7.76-1.41-3.89,10.19,16.81,19.17,10.22,40.86Z"></path> <path class="cls-3" d="m131.71,225.79c-.94,6.51,3.17,11.42,8.1,15.26,3.8,2.97,7.1,4.57,11.18,7.76,5.61,4.37,5.82,6.4,9.1,8.95,1.28,1,2.7,1.84,4.1,2.22.05-.11.1-.22.14-.33-.15-.1-.29-.2-.44-.31-2.91-2.27-2.84-4.84-8.34-9.13-3.95-3.08-8.77-5.93-12.86-9.12-6.14-4.79-10.65-10.37-8.11-18.73,6.59-21.69-14.11-30.67-10.22-40.86-.9-.12-1.79-.23-2.69-.32-4.71,12.21,14.64,12.68,10.03,44.59Z"></path> <path class="cls-29" d="m159.68,268.31c-3.17-6.09-8.3-12.02-15.51-17.64-8.82-6.88-14.37-8.68-17.38-11.03-15.69-12.24,2.18-37.69-15.19-51.23-4.29-3.35-9.79-5.49-15.21-6.2-7.12,1.29-14.11,3.39-20.9,6.17,11.1-1.98,27.37-3.4,34.86,2.44,14.47,11.29-2.67,35.87,20.05,53.6,3.67,2.86,6.64,4.71,8.89,6.46,10.23,7.98,17.07,18.05,11.02,28.51,2.5-2.37,4.8-4.9,6.88-7.57.88-1.13,1.71-2.3,2.49-3.5Z"></path> <path class="cls-18" d="m40.18,274.69c1.15-.11,2.28-.23,3.4-.34-1.16,0-2.28.16-3.4.34Z"></path> <path class="cls-18" d="m139.29,250.87c-2.25-1.75-5.22-3.6-8.89-6.46-22.72-17.73-5.58-42.31-20.05-53.6-7.48-5.84-23.76-4.42-34.86-2.44-22.48,9.2-42.75,25.92-58.21,45.73-25.71,32.96-17.74,32.42-7.87,40.12,51.15,39.9,110.56,33.99,140.9,5.15,6.04-10.46-.79-20.53-11.02-28.51ZM3.82,264.37c5.23-11.76,12.14-23.77,20.56-34.57,34.4-44.11,74.28-41.05,80.38-36.3,9.8,7.64,7.74,24.02,8.52,28,1.5,7.67,8.25,12.73-1.39,25.08-20.74,26.59-88.64,27.53-108.07,17.78Zm26.8,17.83c-1.65-1.29-2.09-2.9-.37-5.11.8-1.03,1.96-1.82,3.21-1.73,2.39.18,4.54-.32,6.71-.68,1.12-.19,2.24-.34,3.4-.34,83.97-8.92,68.35-39.39,91.17-21.59,10.15,7.92,13.38,19.14,3.54,31.76-15.01,19.24-74.67,23.43-107.66-2.31Z"></path> <path class="cls-15" d="m113.28,221.51c-.78-3.98,1.28-20.36-8.52-28-6.1-4.75-45.97-7.81-80.38,36.3-8.42,10.8-15.33,22.8-20.56,34.57,19.42,9.75,87.33,8.81,108.07-17.78,9.64-12.35,2.89-17.41,1.39-25.08Zm-94.44,27.07c2.39-6.61,5.77-12.54,9.91-17.84,18.09-23.19,62.77-41.7,71.86-34.61,9.22,7.19,12.2,25.02.03,40.62-25.03,32.08-65.41,24.12-81.79,11.83Z"></path> <path class="cls-15" d="m134.75,252.76c-22.82-17.8-7.2,12.67-91.17,21.59-1.12.12-2.24.23-3.4.34-2.17.36-4.33.86-6.71.68-1.25-.09-2.41.69-3.21,1.73-1.72,2.2-1.28,3.82.37,5.11,32.99,25.74,92.66,21.55,107.66,2.31,9.84-12.62,6.61-23.84-3.54-31.76Zm-66.49,40.49c.32-1.89,1.19-4.52,2.88-6.68,6.42-8.23,21.41-8.84,31.24-12.25,13.15-4.55,21.52-18.71,34.43-8.64,5.66,4.41,1.81,11.5-2.58,17.12-13.83,17.73-43.81,14.97-65.97,10.45Z"></path> <path class="cls-28" d="m136.81,265.69c-12.91-10.07-21.29,4.09-34.43,8.64-9.83,3.41-24.82,4.01-31.24,12.25-1.68,2.16-2.56,4.79-2.88,6.68,22.17,4.52,52.14,7.29,65.97-10.45,4.38-5.62,8.23-12.71,2.58-17.12Z"></path> <path class="cls-6" d="m101.22,204.94c-15.05-11.74-36.4,5.2-49.44,15.07.86,2.52,2.63,5.6,5.85,8.11,4.31,3.36,30.94,10.29,42.54-4.58,4.39-5.63,6.35-14.46,1.04-18.59Z"></path> <path class="cls-28" d="m100.6,196.13c-9.09-7.09-53.77,11.42-71.86,34.61-4.14,5.31-7.51,11.23-9.91,17.84,16.38,12.28,56.77,20.25,81.79-11.83,12.17-15.6,9.2-33.42-.03-40.62Zm-42.96,31.99c-3.22-2.51-5-5.59-5.85-8.11,13.04-9.87,34.39-26.81,49.44-15.07,5.3,4.14,3.35,12.96-1.04,18.59-11.6,14.87-38.23,7.95-42.54,4.58Z"></path> </g> <path class="cls-18" d="m390.61,194.61c-8.85-5.25-12.19-22.82-6.01-33.24,4.4-7.43,12.9-11.81,21.8-12.12-.32-.21-.65-.41-1-.62-3.21-1.9-6.63-3.19-10.18-3.98-4.05,4.73-7.78,5.83-12.57,14.17-11.94,20.79,2.65,33.57,9.08,37.38,5.71,3.39,12.24,1.83,23.29,8.39,1.32.78,2.34,1.72,3.1,2.75,1.15-.18,2.1-.15,2.79.26.11.07.21.14.31.21-1.04-1.76-2.53-3.29-4.53-4.48-5.97-3.54-17.69-3.76-26.08-8.73Z"></path> <path class="cls-14" d="m371.68,147.27c.24-.4.75-1.21,1.35-2.08-2.92.65-5.8,1.49-8.6,2.46-.19.14-.39.28-.58.42,1.74,10.99,2.3,22.34,1.98,33.11,1.53.35,3.15.98,4.68,1.69-4.05-9.55-5.14-24.97,1.16-35.6Z"></path> <path class="cls-27" d="m373.26,156.01c1.12-1.9,3.02-3.96,4.47-6.41.84-1.41,1.79-3.9,2.04-5.56-2.25.26-4.51.65-6.74,1.15-.6.88-1.12,1.68-1.35,2.08-6.3,10.62-5.22,26.04-1.16,35.6,1.37.63,2.67,1.34,3.78,1.98-4.83-6.01-9.84-14-1.04-28.84Z"></path> <path class="cls-34" d="m391.72,196.21c-6.43-3.81-21.02-16.59-9.08-37.38,4.79-8.34,8.52-9.44,12.57-14.17-3.12-.69-6.33-1-9.57-.98.39,3.1-.41,7.21-3.36,12.19-.17.29-.35.59-.52.88-8.85,14.93-5.12,27.89,6.87,40.24,4.58,4.72,17.63,10.38,23.65,9.73,1.97-.21,3.18.2,3.82,1.05.73-.19,1.4-.34,2.02-.44-.76-1.04-1.78-1.97-3.1-2.75-11.05-6.56-17.58-5-23.29-8.39Z"></path> <path class="cls-44" d="m412.27,206.73c-6.03.65-19.08-5.01-23.65-9.73-11.99-12.36-15.72-25.32-6.87-40.24.17-.29.35-.59.52-.88,2.95-4.98,3.75-9.09,3.36-12.19-.88,0-1.76.03-2.64.08,5.71,7.34-26.42,29.14-2.77,44.75,6.41,4.23,7.66,14.58,20.5,18.87,5.76,1.92,11.65.5,14.83.55.19-.05.37-.1.55-.14-.64-.85-1.85-1.27-3.82-1.05Z"></path> <path class="cls-31" d="m380.22,188.51c-23.64-15.61,8.48-37.4,2.77-44.75-1.07.06-2.15.15-3.22.28-.25,1.67-1.2,4.15-2.04,5.56-1.45,2.45-3.35,4.51-4.47,6.41-8.8,14.84-3.79,22.82,1.04,28.84.21.12.41.24.6.35,13.38,7.94,12.34,17.15,21.02,22.3,7.29,4.32,14.57,1.78,19.62.43-3.17-.05-9.06,1.38-14.83-.55-12.85-4.29-14.09-14.64-20.5-18.87Z"></path> <path class="cls-35" d="m442.3,204.82c.17.1.32.26.44.47,1.02-2.14,1.74-4.41,2.09-6.68-2.31,1.29-6.51,2.45-9.96,8.28-3.87,6.52-3.1,8.63-3.66,11.48-.4,2.03-1.65,6.17-4.69,5.01-2.7-1.03,1.25-11.89-4.43-17.05-.53-.48-5.5-4.77-6.86-5.57-6.44-3.82-17.76-3.12-22.54-5.95-4.22-2.5-16.04-17.49-6.54-33.51,3.9-6.57,16.72-11.02,26.17-5.5.9.53,1.69.97,2.4,1.35-1.95-2.34-3.94-5.07-8.35-7.89-8.9.31-17.4,4.69-21.8,12.12-6.18,10.41-2.83,27.99,6.01,33.24,8.39,4.97,20.1,5.19,26.08,8.73,2,1.19,3.49,2.72,4.53,4.48,6.48,4.26-.3,13.41,4.93,16.51,1.99,1.18,3.36.01,4.55-2,2.22-3.75,1.16-7.55,3.54-11.57,1.36-2.29,6-7.17,8.07-5.94Z"></path> <path class="cls-21" d="m434.87,206.89c3.46-5.83,7.66-6.99,9.96-8.28.24-1.55.31-3.1.16-4.61-2.36-24.53,1.56-25.65-3.53-28.67-5.6-3.32-16.63-.81-22.36-4.22-1.87-1.11-3.11-2.46-4.37-3.97-.71-.38-1.5-.82-2.4-1.35-9.46-5.52-22.28-1.07-26.17,5.5-9.5,16.03,2.31,31.01,6.54,33.51,4.78,2.83,16.1,2.13,22.54,5.95,1.36.8,6.33,5.09,6.86,5.57,5.68,5.16,1.73,16.02,4.43,17.05,3.04,1.16,4.29-2.98,4.69-5.01.56-2.85-.21-4.96,3.66-11.48Zm-8.88,11.87s4.08-11.06-7.03-17.65c-.38-.23-1.67-1.03-2.82-1.73-.98-.6-2.98-2.44-4.32-3.23-6.18-3.67-10.49,1.28-18.29-3.34-11.66-6.91-10.11-25.12-6.6-31.05,4.54-7.66,19.73-8.75,25.53-5.31,1.69,1,4.18,4.15,6.3,5.41,4.14,2.45,10.85,1.69,16.49,2.62,0,0,3.61.89,4.48,1.1.06.04.12.07.18.11.12.07.25.14.37.22,1.99,1.18,4.13,3.43,3.34,7.17-2.88,13.72,2.65,19.28.16,24.2-1.72,3.4-5.57,2.55-8.87,7.87-3.84,6.2-5.63,15.8-5.63,15.8-.92,3.87-3.79.42-3.3-2.17Z"></path> <path class="cls-13" d="m434.92,205.13c3.3-5.32,7.15-4.47,8.87-7.87,2.49-4.92-3.04-10.48-.16-24.2.78-3.74-1.35-5.98-3.34-7.17-.12-.07-.25-.14-.37-.22-.06-.03-.12-.07-.18-.11-.87-.21-4.48-1.1-4.48-1.1-5.64-.93-12.35-.16-16.49-2.62-2.12-1.26-4.61-4.4-6.3-5.41-5.8-3.44-20.98-2.35-25.53,5.31-3.52,5.93-5.06,24.13,6.6,31.05,7.8,4.62,12.1-.33,18.29,3.34,1.34.79,3.34,2.63,4.32,3.23,1.15.7,2.44,1.51,2.82,1.73,11.11,6.59,7.03,17.65,7.03,17.65-.5,2.59,2.37,6.04,3.3,2.17,0,0,1.78-9.61,5.63-15.8Zm-9.96-6.45c-4.12-2.44-9.43-7.19-14.21-11.21-3.62.38-7.62.41-13.68-3.18-8.36-4.96-10.68-15.47-7.19-21.36,2-3.37,11.68-9.83,17.87-6.16,3.51,2.08,5.25,5.55,8.47,7.46,7.68,4.55,13.77-.43,19.72,3.1,7.46,4.42,3,5.41,6.22,20.08.48,2.17,1.05,4.92-2.3,10.57-4.06,6.85-10.51,3.29-14.89.7Z"></path> <path class="cls-36" d="m442.14,187.41c-3.21-14.67,1.24-15.66-6.22-20.08-5.95-3.53-12.04,1.46-19.72-3.1-3.22-1.91-4.96-5.38-8.47-7.46-6.19-3.67-15.87,2.8-17.87,6.16-3.49,5.88-1.17,16.4,7.19,21.36,6.06,3.59,10.06,3.56,13.68,3.18,4.78,4.02,10.09,8.76,14.21,11.21,4.38,2.6,10.83,6.15,14.89-.7,3.35-5.65,2.77-8.4,2.3-10.57Z"></path> <path class="cls-35" d="m317.19,62.28c-6.95-4.12-7.46-10.11-6.86-17.58-.21.27-.41.55-.6.85-1.11,1.87-1.56,4.54-1.59,7.59.88,5.29,4.09,10.42,6.15,11.64,6.98,4.14,16.61,2.69,20.24,4.84.25.15.49.32.71.5,1.06.19,2.07.42,3.01.69-.69-.71-1.53-1.37-2.52-1.96-5.51-3.27-15.45-4.74-18.54-6.57Z"></path> <path class="cls-18" d="m314.29,64.78c-2.05-1.22-5.26-6.34-6.15-11.64-.03,3.63.54,7.78,1.33,11.77.7,1.06,1.61,2,2.25,2.38,4.42,2.62,17.58.27,21.08,2.34.08.05.16.1.23.15.76.09,1.49.2,2.2.33-.22-.18-.46-.35-.71-.5-3.63-2.15-13.27-.7-20.24-4.84Z"></path> <path class="cls-34" d="m311.73,67.29c-.64-.38-1.55-1.32-2.25-2.38.45,2.28.98,4.51,1.51,6.55,8.49-1.93,16.05-2.39,22.05-1.68-.08-.05-.15-.1-.23-.15-3.49-2.07-16.65.28-21.08-2.34Z"></path> <path class="cls-34" d="m357.11,122.46c3.11,7.91,5.3,16.54,6.72,25.41.01.07.02.13.03.2.2-.14.39-.28.58-.42.97-.7,1.89-1.46,2.78-2.25-3.49-3.15-8.01-17.14-10.04-23.22-.02.09-.04.19-.07.28Z"></path> <path class="cls-21" d="m368.54,139.66c.9.53,1.81.97,2.72,1.33.49-.67.96-1.35,1.39-2.06-.9-.28-1.76-.67-2.53-1.13-11.88-7.05-10.25-36.07-17.99-51.79-.29.88-.62,1.8-.98,2.76,5.42,11.51,9.71,46.33,17.4,50.89Z"></path> <path class="cls-18" d="m360.43,128.87l-9.21-33.96c-.29-2.2-.59-3.32-.87-3.99-.34.93-.66,1.88-.95,2.85.85,3.64-.74,7.11,1.25,11.54,1.58,3.53,3.54,3.13,4.33,7.25,1.73,2.8,3.08,6.26,2.21,9.62,2.03,6.08,6.54,20.07,10.04,23.22.97-.87,1.88-1.8,2.73-2.78-.6-.23-1.21-.52-1.84-.89-2.62-1.56-6.85-9.96-7.68-12.86Z"></path> <path class="cls-35" d="m368.54,139.66c-7.69-4.56-11.98-39.38-17.4-50.89-.26.7-.53,1.42-.8,2.15.29.68.59,1.8.87,3.99l9.21,33.96c.83,2.89,5.06,11.3,7.68,12.86.63.37,1.24.66,1.84.89.46-.53.9-1.07,1.31-1.63-.91-.36-1.82-.8-2.72-1.33Z"></path> <path class="cls-21" d="m320.64,60.42c-9.23-5.48-9.41-13.41-8.85-17.1-.54.38-1.03.84-1.46,1.38-.6,7.47-.09,13.46,6.86,17.58,3.08,1.83,13.02,3.3,18.54,6.57.99.59,1.83,1.25,2.52,1.96,1.74.5,3.26,1.13,4.53,1.89.1.06.19.11.29.17-1.64-1.67-3.63-3.18-5.95-4.56-4.3-2.55-11.59-4.99-16.48-7.89Z"></path> <path class="cls-34" d="m350.63,105.31c-1.99-4.43-.39-7.9-1.25-11.54-1.28,4.28-1.81,8.84,1.04,12.95.4.57,2.68,2.84,4.54,5.85-.79-4.12-2.75-3.73-4.33-7.25Z"></path> <path class="cls-36" d="m332.2,48.08c-1.15-1.18-2.07-2-2.68-2.36-5.59-3.32-13.3-5.51-17.73-2.41-.56,3.69-.38,11.62,8.85,17.1,4.89,2.9,12.18,5.35,16.48,7.89,2.32,1.38,4.31,2.89,5.95,4.56,5.37,3.2,7.39,4.72,7.34,5.52.23.13.46.25.69.39,2.37,1.41,2.08,4,1.02,7.23,7.74,15.72,6.11,44.74,17.99,51.79.78.46,1.63.85,2.53,1.13.06-.1.13-.19.18-.29,12.32-20.77-28.16-77.78-40.63-90.56Zm39.2,88.04c-.31.46-1.41,0-1.87-.28-13.35-7.92-.5-50.18-26.11-65.37-8.37-4.96-16.46-8.26-19.79-10.23-11.24-6.67-10.26-16.09-10.01-16.52.96-1.62,9.46-.38,12.71,1.54,3.23,1.91,5.32,4.19,7.2,6.33,11.79,14.66,50.46,65.82,37.86,84.52Z"></path> <path class="cls-11" d="m367.47,110.2c-.33.05-.69.26-.94.68-.59.99-.94,16.79,3.36,19.34.89.53,1.18.23,1.42-.18,2.72-4.58-1.08-14.27-3.84-19.84Z"></path> <path class="cls-11" d="m325.84,46.92c-2.23-1.32-5.01-1.89-7.1-2.03-.73.48-1.36,1.1-1.72,1.69-.65,1.09,1.29,3.83,4.88,5.96.46.27.93.54,1.39.81,4.53,2.69,6.46,6.6,9.51,8.41,1.03.61,4.51,1.93,5.63.39,0-.01.02-.03.03-.04.86-1.46-7.41-12.11-12.62-15.2Z"></path> <path class="cls-39" d="m333.54,51.61c-1.88-2.14-3.98-4.42-7.2-6.33-3.25-1.93-11.75-3.16-12.71-1.54-.25.42-1.23,9.85,10.01,16.52,3.33,1.97,11.43,5.27,19.79,10.23,25.6,15.18,12.76,57.45,26.11,65.37.45.27,1.56.74,1.87.28,12.6-18.7-26.07-69.86-37.86-84.52Zm4.88,10.55c-1.11,1.54-4.59.22-5.63-.39-3.05-1.81-4.97-5.72-9.51-8.41-.46-.27-.93-.54-1.39-.81-3.58-2.13-5.52-4.87-4.88-5.96.35-.6.99-1.22,1.72-1.69,2.09.14,4.87.7,7.1,2.03,5.2,3.08,13.48,13.74,12.62,15.2,0,.01-.02.03-.03.04Zm31.47,68.06c-4.3-2.55-3.95-18.35-3.36-19.34.25-.42.61-.63.94-.68,2.76,5.57,6.56,15.26,3.84,19.84-.25.41-.53.71-1.42.18Z"></path> <path class="cls-31" d="m336.3,251.38c7.48-.59,14.13-3.79,19.01-12,2.84-4.79,3.11-10.14,3.86-15.88-1.19,3.49-2.5,6.46-3.87,8.78-14.03,23.66-34.54,19.95-58.84,7.6-3.44-1.75-6.95-3.66-10.54-5.7.97,3.28,1.66,6.17,2.14,8.57,9.1-.02,20.29,4.16,31.24,6.75,5.75.7,11.53,1.56,17.01,1.88Z"></path> <path class="cls-29" d="m192.46,104.84c3.8-15.74,1.44-27.18,5.43-42.27-8.41,16.02-1.69,27.36-6.11,34.81-6.98,11.77-22.52-10.76-35.26,10.71-1.09,1.84-2.12,3.74-3.17,5.52-1.76,2.97-3.67,4.87-5.73,5.77.09.37.17.74.26,1.1.47,1.9,1.21,3.79,2.02,5.68,1.16-2.93,2.57-5.83,4.26-8.68.06-.1.12-.19.18-.29.31-1.06.62-2.13.95-3.2.84-2.72,1.77-5.38,3.12-7.66,6.45-10.88,20.96-7.55,34.03-1.48Z"></path> <path class="cls-36" d="m246.98,97.17c.45.27.92.52,1.38.79,4.6,2.73,19.51-12.12,35.57-16.25.49-.26.98-.52,1.47-.77-.04-.5-.09-1.02-.14-1.54-11.62,4.14-28.26,16.5-36.18,11.8-11.29-6.69-9.73-28.05-17.01-38.93,1.84,4.03,3.3,8.96,4.41,14.45,4.47,8.19,3.37,26.22,10.5,30.45Z"></path> <path class="cls-19" d="m249.07,91.2c7.92,4.7,24.56-7.67,36.18-11.8-.1-1.03-.22-2.12-.35-3.24-12.62,6.25-25.88,17.05-34.44,11.98-13.35-7.92-10.79-36.99-25.5-45.71-1.74-1.03-3.62-1.62-5.57-1.55-.02.05-.04.11-.07.16,1.99.19,3.71.77,5.21,1.66,3,1.78,5.5,5.13,7.53,9.57,7.28,10.88,5.72,32.24,17.01,38.93Z"></path> <path class="cls-21" d="m248.35,97.96c-.45-.27-.92-.52-1.38-.79-7.13-4.23-6.02-22.25-10.5-30.45,1.23,6.07,2.03,12.82,2.45,19.77.51,4.51.88,11.56,5.24,14.15,5.89,3.49,20.28-11.64,35.17-16.38,1.53-.89,3.06-1.74,4.58-2.55-16.05,4.13-30.97,18.98-35.57,16.25Z"></path> <path class="cls-35" d="m244.17,100.64c-4.36-2.59-4.74-9.64-5.24-14.15.17,2.89.28,5.82.33,8.74,2.14,3.09,1.22,9.65,4.68,11.71,4,2.37,8.48-7.45,20.65-13.81,1.25-.65,2.76-1.42,4.43-2.2,3.45-2.46,6.9-4.68,10.32-6.68-14.88,4.74-29.28,19.88-35.17,16.38Z"></path> <path class="cls-44" d="m263.27,95c-1.34.86-2.72,1.83-4.12,2.9-10.87,8.35-14.83,15.41-17.16,14.03-2.04-1.21-1.74-4.66-2.53-6.59-.06-.52-.15-1.02-.26-1.45-.16,5.92-.56,11.72-1.2,17.08,8.29-10.67,17.2-19.4,26.23-26.46.24-.18.47-.37.71-.55-.55.33-1.11.68-1.68,1.04Z"></path> <path class="cls-29" d="m264.59,93.14c-12.17,6.35-16.64,16.18-20.65,13.81-3.47-2.06-2.54-8.61-4.68-11.71.04,2.9.02,5.79-.06,8.65.11.44.2.93.26,1.45.79,1.93.49,5.38,2.53,6.59,2.33,1.38,6.28-5.68,17.16-14.03,1.4-1.08,2.78-2.04,4.12-2.9.56-.36,1.12-.71,1.68-1.04,1.36-1.04,2.71-2.05,4.07-3.02-1.67.78-3.18,1.55-4.43,2.2Z"></path> <path class="cls-11" d="m281.81,59.01c.47,4.53.48,9.47-.77,12.94-4.21,11.67-21.73,16.85-29.27,12.38-16.56-9.82-8.29-26.08-19.76-38.22-3.58-3.79-8.24-5.77-8.25-5.78-2.25-1.33-5.07-6.59-4.71-12.42-2.05,6.24,2.13,8.65.35,12.96,1.95-.08,3.83.51,5.57,1.55,14.71,8.72,12.15,37.8,25.5,45.71,8.55,5.07,21.82-5.73,34.44-11.98-.6-5.12-1.57-11.09-3.09-17.15Z"></path> <path class="cls-25" d="m281.04,71.95c1.25-3.47,1.24-8.41.77-12.94-.73-2.92-1.59-5.86-2.61-8.74-3.48-9.87-8.74-18.92-16.67-23.62-13.66-8.1-25.1-4.77-28.14-6.57-.61-.36-1.22-.8-1.85-1.17-2.15-1.27-4.5-.98-6.62.18-2.07,1.13-3.93,3.08-5.18,5.19-.8,1.35-1.34,2.55-1.7,3.64-.35,5.83,2.47,11.09,4.71,12.42.01,0,4.67,1.98,8.25,5.78,11.48,12.14,3.21,28.4,19.76,38.22,7.54,4.47,25.05-.71,29.27-12.38Zm-6.1,4.86c-3.69,6.23-16.53,8.53-23.2,4.58-16.04-9.52-2.71-25.15-25.9-43.33-1.6-1.25-5.43-7.6-1.78-13.75,4.56-7.69,13.59,1.65,20.28.21,1.59-.34,3.55-1.61,5.79-1.23.03,0,.07,0,.1.01.56.1,1.13.31,1.72.66.13.08.25.19.3.36,3.88,1.7,8.19,2.75,11.81,4.89,5.28,3.13,22.66,28.6,16.22,39.45-.43.72-.7,1.53-1.13,2.25-.57.95-2.43,2.87-3.39,4.49-.28.47-.54.95-.82,1.42Z"></path> <path class="cls-4" d="m263.2,33.1c-11.66-6.91-23.62-4.13-26.15-2.43-.09.06-.17.13-.26.2.13,8.87,10.13,31.16,18.11,35.9,3.62,2.15,13.22,3.91,15.99-.76,1.87-3.15,5.47-25.1-7.69-32.9Z"></path> <path class="cls-4" d="m279.14,70.9c.43-.72.7-1.53,1.13-2.25,6.44-10.86-10.94-36.32-16.22-39.45-3.62-2.14-7.92-3.2-11.81-4.89-.05-.16-.17-.28-.3-.36-.59-.35-1.16-.55-1.72-.66-.03,0-.07,0-.1-.01-2.24-.37-4.2.89-5.79,1.23-6.69,1.45-15.72-7.89-20.28-.21-3.65,6.15.18,12.5,1.78,13.75,23.19,18.18,9.86,33.82,25.9,43.33,6.67,3.96,19.51,1.65,23.2-4.58.28-.47.54-.95.82-1.42.96-1.62,2.82-3.54,3.39-4.49Zm-24.24-4.13c-7.98-4.73-17.98-27.03-18.11-35.9.08-.07.16-.14.26-.2,2.53-1.7,14.5-4.48,26.15,2.43,13.16,7.8,9.56,29.75,7.69,32.9-2.77,4.67-12.37,2.91-15.99.76Z"></path> <path class="cls-13" d="m156.92,96.25c15.84-9.36,22.83-.22,26.01-13.65,1.85-7.79,2.97-14.88,9.36-25.65,4.01-6.76,6.34-7.4,10.98-15.24,4.08-6.89,5.04-11.32,5.29-14.81-1.59-1.83-3.34-3.5-5.21-5.05,1.62,6.42,1.14,13.15-2.34,19.02-3.3,5.56-10.07,14.12-14.57,21.71-6.36,10.72-4.37,18.32-14.59,25.12-7.52,5-17.47,5.22-23.7-1.5-9.47-10.22-6.31-30.12-9.59-42.79,1.09,14.32,2.52,30.65,4.23,45.27,3.84,6.52,8.61,10.83,14.12,7.58Z"></path> <path class="cls-21" d="m156.93,99.94c8.6-8.02,22.8,1.71,28.81-8.41,3.8-6.41-3.04-12.61,5.75-27.44,3.69-6.22,7.8-12.03,11.47-18.22,5.58-9.41,6.32-13.15,7.75-16.28-.68-.93-1.4-1.83-2.15-2.69-.25,3.49-1.2,7.93-5.29,14.81-4.65,7.84-6.98,8.48-10.98,15.24-6.39,10.78-7.51,17.86-9.36,25.65-3.19,13.43-10.17,4.28-26.01,13.65-5.51,3.26-10.28-1.06-14.12-7.58.59,5.06,1.22,9.92,1.88,14.42.45.31.92.62,1.43.92,3.34,1.98,7.33-.83,10.81-4.08Z"></path> <path class="cls-18" d="m156.53,108.08c12.73-21.47,28.27,1.07,35.26-10.71,4.42-7.44-2.3-18.78,6.11-34.81,1.7-6.43,4.55-13.52,9.51-21.89,1.85-3.12,3.55-5.9,5.15-8.36-.13-.22-.27-.43-.41-.64-1.58,3.17-3.33,6.26-5.14,9.31-2.18,3.67-4.45,7.3-6.63,10.97-16.55,27.9-4.32,32.12-10.32,42.24-4.46,7.52-17.79,2.42-23.28,2.96-8.62.84-12.37,13.29-20.25,16.99.36,1.88.73,3.63,1.1,5.23,2.05-.9,3.97-2.8,5.73-5.77,1.05-1.77,2.08-3.68,3.17-5.52Z"></path> <path class="cls-35" d="m166.77,97.15c5.49-.53,18.82,4.56,23.28-2.96,6-10.12-6.22-14.34,10.32-42.24,2.18-3.67,4.45-7.3,6.63-10.97,1.81-3.06,3.56-6.14,5.14-9.31-.45-.72-.93-1.42-1.42-2.09-1.43,3.13-2.17,6.88-7.75,16.28-3.67,6.2-7.79,12.01-11.47,18.22-8.79,14.83-1.95,21.03-5.75,27.44-6,10.12-20.21.39-28.81,8.41-3.48,3.25-7.48,6.06-10.81,4.08-.51-.3-.99-.61-1.43-.92.59,4,1.2,7.72,1.84,11.05,7.88-3.7,11.63-16.15,20.25-16.99Z"></path> <path class="cls-36" d="m186.45,62.57c4.5-7.58,11.27-16.15,14.57-21.71,3.48-5.87,3.96-12.59,2.34-19.02-1.31-1.08-2.68-2.1-4.1-3.07,3.56,4.01,6.74,10.78.63,21.09-1.92,3.24-10.43,13.05-12.69,17.94-3.05,6.6-6.66,13.66-11.25,21.39-4.84,8.17-14.73,10.16-22.42,6.18-11.49-5.96-12.63-44.7-16.4-62.33.38,5.87.87,12.83,1.44,20.36,3.28,12.67.12,32.57,9.59,42.79,6.23,6.72,16.18,6.5,23.7,1.5,10.22-6.8,8.23-14.4,14.59-25.12Z"></path> <path class="cls-26" d="m199.89,39.86c6.11-10.3,2.93-17.08-.63-21.09-1.19-.82-2.42-1.6-3.67-2.35-41.04-24.34-51.14-17.31-57.58-6.45-.56.94-1.04,1.85-1.48,2.75-.01.02-.03.03-.04.05,0,.01,0,.02,0,.03.17,2.79.38,6.26.64,10.23,3.78,17.63,4.91,56.38,16.4,62.33,7.69,3.99,17.58,1.99,22.42-6.18,4.58-7.73,8.2-14.79,11.25-21.39,2.26-4.89,10.77-14.7,12.69-17.94Zm-42.05,41.05c-14.14-8.38-23.8-62.23-14.01-73.46,8.92-10.24,33.04.91,35.77,2.53.35.21.7.44,1.06.66,4.19,1.48,8.9,3.64,11.9,5.42,12.31,7.3,4.91,22.51,3.21,25.39-25.51,43.01-32.12,42.9-37.92,39.46Z"></path> <path class="cls-25" d="m189.42,18.04c-7.4-4.39-8.44.6-15.95-3.86-1.5-.89-2.83-1.94-4.3-2.81-3.88-2.3-9.51-2.4-13.97-.22-.37.43-.69.86-.9,1.21-.25.42-.53.83-.78,1.26-6.17,10.41,7.55,16.12,8.29,28.83.39,6.72-3.58,20.93,2.6,24.6.29.17.58.4.9.59,3.39,2.01,20.64-15.22,25.11-22.75,9.89-16.68,5.27-23.13-.99-26.85Z"></path> <path class="cls-11" d="m192.56,16.05c-3-1.78-7.71-3.94-11.9-5.42-.35-.22-.7-.45-1.06-.66-2.73-1.62-26.85-12.77-35.77-2.53-9.79,11.23-.13,65.08,14.01,73.46,5.8,3.44,12.42,3.55,37.92-39.46,1.71-2.88,9.1-18.09-3.21-25.39Zm-27.26,51.58c-.32-.19-.61-.42-.9-.59-6.17-3.66-2.2-17.88-2.6-24.6-.74-12.7-14.46-18.42-8.29-28.83.25-.42.53-.83.78-1.26.21-.35.53-.78.9-1.21,4.46-2.19,10.09-2.08,13.97.22,1.47.87,2.81,1.93,4.3,2.81,7.51,4.45,8.55-.53,15.95,3.86,6.26,3.71,10.88,10.17.99,26.85-4.46,7.53-21.72,24.76-25.11,22.75Z"></path> <path class="cls-34" d="m202.18,108.73c.17.1,1.15.54,1.79.92,12.54,7.43,14.51,20.51,21.37,24.57.68.4,1.72.58,2.98.62,1.74-2.76,3.51-5.43,5.33-7.99-3.49,2.35-7.08,3.62-10.29,1.71-8.33-4.94-6.31-12.44-17-18.78-.37-.22-.74-.44-1.11-.65-13.83-8.2-5.37-34.24-7.96-44.1-1.3,5.76-1.74,11.03-2.06,16.28,1.68,4.5-1.93,22.16,6.96,27.43Z"></path> <path class="cls-16" d="m225.34,134.21c-6.85-4.06-8.83-17.14-21.37-24.57-.64-.38-1.62-.81-1.79-.92-8.89-5.27-5.28-22.93-6.96-27.43-.45,7.43-.67,14.83-2.77,23.54,4.1,1.91,8.07,4.08,11.59,6.17,10.75,6.38,16.28,21.37,20.01,30.97.62-1.11,1.26-2.22,1.92-3.32.77-1.3,1.56-2.58,2.35-3.84-1.25-.03-2.3-.22-2.98-.62Z"></path> <path class="cls-29" d="m205.25,109.12c.37.22.74.44,1.11.65,10.69,6.34,8.67,13.84,17,18.78,3.21,1.9,6.8.64,10.29-1.71,1.43-2.02,2.88-3.97,4.35-5.87.53-4.52.91-9.35,1.11-14.31-3.07,6.9-2.89,10.98-5.37,15.16-1.8,3.04-6.99,6.22-9.72,4.6,0,0-5.99-6.89-18-18.96-11.05-11.09-7.03-34.91-7.29-47.81-.57,1.84-1.04,3.62-1.44,5.36,2.59,9.87-5.87,35.9,7.96,44.1Z"></path> <path class="cls-36" d="m223.64,48.59c-.7-.42-1.4-.82-2.09-1.23-2.96-1.76-4.72-3.43-5.67-4.67-.58.07-1.26.4-1.81,1.32-1.88,3.18-12.79,44.96,7.67,57.1,1.9,1.13,8.68,1.68,11.52-3.11,4.68-7.9,4.85-40.83-9.62-49.4Z"></path> <path class="cls-13" d="m226.38,45.64c-3.43-2.13-5.26-2.34-6.99-3.37-3.55-2.11-.19-9.07-2.31-12.43-.06-.09-.42-.26-.51-.31-.98.82-1.39,1.5-1.91,2.39-1.38,2.32-1.85,3.11-2.72,4.59-9.69,16.34-9.57,57.89,5.31,66.72,7.04,4.18,12.26,3.2,17.92-6.33,4.04-6.81,2-44.56-8.78-51.26Zm-4.64,55.46c-20.47-12.14-9.56-53.92-7.67-57.1.54-.92,1.23-1.25,1.81-1.32.96,1.24,2.71,2.92,5.67,4.67.69.41,1.39.81,2.09,1.23,14.46,8.58,14.3,41.51,9.62,49.4-2.84,4.79-9.61,4.24-11.52,3.11Z"></path> <path class="cls-44" d="m135.21,137.55c3.24,1.92,5.4-1.08,6.92-3.66,1.21-2.04,2.19-4.19,3.38-6.2.85-1.43,2.1-2.8,3.41-3.99-.2-.54-.4-1.08-.57-1.62-3.97,4.31-8.01,9.64-12.23,7.14-11.12-6.6-7.91-32.49-9.13-44.9-.36,4.92-.63,9.88-.69,14.89.43,12.5,2.36,34.46,8.91,38.35Z"></path> <path class="cls-3" d="m143.95,151.5c1.64-2.76-.19-17.25,4.52-25.18.22-.37.54-.86.92-1.41-.09-.23-.18-.46-.27-.69-.49.53-.9,1.07-1.2,1.58-3.59,6.05-3.93,15.48-5.33,17.84-.99,1.67-1.95,1.67-2.68,1.24-3.86-2.29-7.61-10.82-10.5-16.16.32,1.3.67,2.62,1.06,3.93,5.02,7.36,6.13,15.94,11.22,18.95.8.47,1.8.71,2.27-.09Z"></path> <path class="cls-31" d="m149.91,126.15c-.18-.41-.35-.83-.52-1.24-.38.55-.7,1.05-.92,1.41-4.7,7.93-2.88,22.42-4.52,25.18-.47.8-1.48.57-2.27.09-5.09-3.02-6.2-11.59-11.22-18.95,3,10.36,7.95,21.15,15.85,32.56-1.87-11.85-1.72-25.68,3.6-39.05Z"></path> <path class="cls-34" d="m136.12,129.21c4.21,2.5,8.26-2.83,12.23-7.14-.17-.53-.33-1.07-.46-1.6-.04-.15-.08-.32-.11-.47-.26.44-.51.88-.77,1.32-3.02,5.09-6.72,5.65-10.41,3.46-9.11-5.4-7.16-37.29-8.83-50.11-.27,3.21-.54,6.42-.78,9.65,1.22,12.42-1.99,38.31,9.13,44.9Z"></path> <path class="cls-16" d="m142.59,143.63c1.4-2.36,1.74-11.79,5.33-17.84.3-.51.72-1.05,1.2-1.58-.07-.17-.14-.35-.2-.52-1.3,1.19-2.56,2.56-3.41,3.99-1.19,2.01-2.17,4.16-3.38,6.2-1.53,2.58-3.68,5.58-6.92,3.66-6.55-3.89-8.48-25.85-8.91-38.35-.03,2.89,0,5.8.15,8.74.33,6.77,1.21,13.67,2.96,20.77,2.89,5.34,6.64,13.87,10.5,16.16.74.44,1.69.44,2.68-1.24Z"></path> <path class="cls-29" d="m147.77,120c-.79-3.28-1.54-7.19-2.26-11.57-.9,3.48-1.61,6.12-2.52,7.65-1.37,2.31-4.54,5.09-6.73,3.8-11.35-6.73-4.38-37.01-7.75-54.74-.22,3.17-.48,6.35-.75,9.53,1.67,12.83-.28,44.71,8.83,50.11,3.68,2.18,7.39,1.63,10.41-3.46.26-.44.51-.88.77-1.32Z"></path> <path class="cls-2" d="m135.97,116.23c2.34,1.39,4.83-1.75,6.13-3.94,2.85-4.81,1.45-10.11,1.72-15.5-3.77-28.67-6.34-67.68-7.32-83.98,0-.01,0-.02,0-.03-1.4,1.62-2.69,3.36-3.79,5.22-6.66,11.22-3.26,23.76-3.68,37.53-.04,1.22-.09,2.43-.15,3.64,6.13,32.99-.69,52.45,7.09,57.06Zm-2.5-97.67c.31-.44.94-1.07,1.36-.82.39.23,1.77,2.73,1.27,4.26.22,1.24.12,3.5-.29,8.12l2.52,18.68,2.8,37.02c.24,3.57,3.47,19.66.62,24.46-.63,1.06-4.26,8.06-5.67,2.93-1.52-5.56-10.4-83.58-2.62-94.66Z"></path> <path class="cls-18" d="m136.27,119.87c2.18,1.3,5.35-1.48,6.73-3.8.91-1.53,1.62-4.17,2.52-7.65-.59-3.6-1.16-7.51-1.7-11.64-.27,5.38,1.14,10.68-1.72,15.5-1.3,2.19-3.79,5.33-6.13,3.94-7.78-4.61-.96-24.08-7.09-57.06-.1,1.99-.22,3.98-.35,5.97,3.37,17.73-3.6,48.01,7.75,54.74Z"></path> <path class="cls-10" d="m133.77,58.48c.46,26.63,3.51,52.19,4.01,52.49.55.32,1.79.03,2.68-1.46,3.05-5.14-.14-10.22-1.81-23.42-.27-2.14.45-22.59-4.87-27.61Z"></path> <path class="cls-35" d="m141.75,110.29c2.85-4.8-.38-20.89-.62-24.46l-2.8-37.02-2.52-18.68c.4-4.62.51-6.88.29-8.12.49-1.53-.88-4.02-1.27-4.26-.42-.25-1.05.38-1.36.82-7.78,11.08,1.1,89.11,2.62,94.66,1.41,5.13,5.03-1.87,5.67-2.93Zm-3.97.68c-.5-.3-3.55-25.86-4.01-52.49,5.32,5.02,4.6,25.46,4.87,27.61,1.67,13.2,4.86,18.28,1.81,23.42-.88,1.49-2.13,1.79-2.68,1.46Z"></path> <path class="cls-34" d="m256.84,167.05c-17.03-19.82-8.6-41.57-14.09-51.9-1.6,1.88-3.19,3.82-4.75,5.83-1.62,2.09-3.22,4.25-4.79,6.49,2.33-.27,4.7.17,6.58,1.29,2.11,1.25,3.62,3.34,3.83,6.21,3.63,49.93,40.58,48.81,44.04,100.19,1.32.74,2.64,1.47,3.94,2.18-1.51-14.23-4.66-35.24-34.77-70.29Z"></path> <path class="cls-21" d="m291.2,203.75c-1.27-37.58-63.01-48.91-28.63-106.87.41-.69.84-1.38,1.27-2.06-1.17.92-2.33,1.87-3.5,2.84-31.15,70.54,24.68,67.85,26.44,98.34,1.04,18.09,7.56,34.78,18.31,47.93,2.5,1.07,4.95,2.01,7.35,2.81-12.65-9.18-20.66-25.85-21.23-43Z"></path> <path class="cls-18" d="m253.23,106.82c.52-1.15.72-2.36.74-3.48-3.81,3.6-7.56,7.53-11.21,11.81,5.49,10.33-2.94,32.08,14.09,51.9,30.11,35.05,33.25,56.05,34.77,70.29,1.63.88,3.24,1.73,4.84,2.54.79.4,1.59.8,2.37,1.18-11.67-20.42-11.94-43.44-22.58-54.28-21.23-21.61-36.22-50.54-23.01-79.96Z"></path> <path class="cls-35" d="m286.78,196.01c-1.76-30.49-57.58-27.8-26.44-98.34-2.14,1.79-4.26,3.68-6.37,5.68-.02,1.13-.22,2.33-.74,3.48-13.21,29.42,1.78,58.35,23.01,79.96,10.64,10.83,10.91,33.86,22.58,54.28,2.12,1.04,4.21,2,6.26,2.88-10.75-13.16-17.26-29.85-18.31-47.93Z"></path> <path class="cls-44" d="m251.45,169.65c23.97,23.99,29.16,34.03,35.27,64.98.31.18.63.35.94.53-3.46-51.38-40.41-50.25-44.04-100.19-.21-2.87-1.72-4.96-3.83-6.21-1.89-1.12-4.25-1.56-6.58-1.29-.79,1.13-1.57,2.27-2.35,3.44,12.04.05,11.01,29.16,20.59,38.75Z"></path> <path class="cls-43" d="m251.45,169.65c-9.58-9.59-8.55-38.69-20.59-38.75-.94,1.41-1.86,2.84-2.78,4.31.06.03.13.06.19.1,9.35,5.55,2.86,18.23,29.2,41.48,16.52,14.59,25.31,35.67,28.14,56.36.1.34.21.69.31,1.02.27.15.54.31.81.46-6.11-30.95-11.3-40.98-35.27-64.98Z"></path> <path class="cls-31" d="m283.35,226.46c.87,2.37,1.62,4.61,2.25,6.7-2.82-20.69-11.61-41.77-28.14-56.36-26.34-23.25-19.84-35.93-29.2-41.48-.06-.04-.13-.07-.19-.1-.71,1.14-1.41,2.28-2.11,3.45-.25.43-.49.86-.74,1.29,3.52,5.58,13.04,18.07,37.98,46.11,10.49,11.79,17.39,24.14,20.13,40.39Z"></path> <path class="cls-27" d="m263.21,186.07c-24.95-28.04-34.46-40.54-37.98-46.11-.39.68-.79,1.35-1.17,2.03,1.59,4.1,2.86,7.22,4.07,8.25,32.39,27.77,48.03,56.58,55.22,76.22-2.75-16.26-9.64-28.6-20.13-40.39Z"></path> <path class="cls-36" d="m312.14,240.98c-24.9-14.76-6.97-43.14-25.62-61.95-18.2-18.37-45.84-46.11-21.57-79.39,7.49-10.27,22.95-18.52,33.42-24.41-4.22,1.55-8.57,3.45-12.98,5.71-7.1,3.63-14.37,8.22-21.55,13.88-.43.68-.86,1.37-1.27,2.06-34.37,57.96,27.36,69.29,28.63,106.87.58,17.14,8.58,33.82,21.23,43,14.54,4.82,27.23,4.22,37.34-6.9-11.92,8.75-26.74,7.59-37.64,1.13Z"></path> <path class="cls-39" d="m361.48,215.52c2.36-9.62,3.98-21.58,4.36-34.34.32-10.78-.24-22.12-1.98-33.11-.01-.07-.02-.13-.03-.2-1.42-8.87-3.61-17.5-6.72-25.41-1.26-3.21-2.67-6.3-4.24-9.23-5.88-10.96-26.66-18.57-22.02-26.4,5.4-9.11,19.42-6.36,19.56-8.44.06-.82-2.03-2.38-7.62-5.7-6.03-3.58-17.63-4.45-31.79-1.23-4.02.92-8.25,2.16-12.61,3.77-10.48,5.89-25.93,14.14-33.42,24.41-24.27,33.27,3.37,61.02,21.57,79.39,18.65,18.82.72,47.19,25.62,61.95,10.89,6.46,25.72,7.62,37.64-1.13,1.94-2.13,3.78-4.64,5.52-7.57,2.33-3.93,4.46-9.72,6.19-16.75Zm-75.97-49.56c-22.44-13.31-33.28-37.57-18.83-61.95,13.38-22.56,41.69-29.15,67.01-29.69.68.77.88,1.56.6,2.04,0,.01-.01.02-.02.03-2.21,2.06-3.87,4.09-5.06,6.1-16.32,27.51,43.68,33.05,18.68,75.22-13.24,22.33-44.13,19.07-62.38,8.24Zm33.34,70.98c-14.14-8.38-20.54-34.26-13.99-45.3,8.04-13.55,33.7-.56,44.34-18.51.28-.47.53-.96.78-1.46,2.72-.66,5.21-.76,7.01.31,4.46,2.65,11.9,28.33-3.3,53.95-8.24,13.9-17.36,21.39-34.84,11.02Z"></path> <path class="cls-26" d="m329.21,82.5c1.19-2.01,2.86-4.05,5.06-6.1,0,0,.02-.02.02-.03.29-.48.09-1.27-.6-2.04-25.32.54-53.63,7.13-67.01,29.69-14.46,24.38-3.62,48.64,18.83,61.95,18.25,10.82,49.14,14.09,62.38-8.24,25.01-42.17-34.99-47.71-18.68-75.22Zm-43.46,67.7c-18.38-10.9-14.9-30.45-4.04-48.76,7.42-12.52,18.72-22.15,34.14-21.28.38.16.76.35,1.12.56,3.28,1.94,5.89,5.88,5.8,9.08-.98,34.8,35.1,30.11,20.2,55.23-9.71,16.37-44.13,12.94-57.23,5.17Z"></path> <path class="cls-26" d="m356.98,171.98c-1.81-1.07-4.29-.97-7.01-.31-.24.51-.5,1-.78,1.46-10.64,17.94-36.3,4.96-44.34,18.51-6.55,11.04-.15,36.92,13.99,45.3,17.48,10.37,26.6,2.88,34.84-11.02,15.19-25.62,7.76-51.3,3.3-53.95Z"></path> <path class="cls-7" d="m322.77,89.8c.09-3.2-2.52-7.14-5.8-9.08-.37-.22-.74-.4-1.12-.56-15.43-.87-26.72,8.76-34.14,21.28-10.86,18.31-14.34,37.87,4.04,48.76,13.1,7.77,47.52,11.2,57.23-5.17,14.89-25.11-21.19-20.42-20.2-55.23Z"></path> <path class="cls-18" d="m159.01,177.28c6.35,9.02,16.54,14.12,21.53,24.53,7.56,15.76,7.06,36.04,23.62,45.87,11.23,6.66,13.09.13,22.93,5.96.24.14.48.28.72.43,5.97,3.54,18.69,7.11,30.15,9.74,4.88.16,9.03-.34,12.69-1.4-19.21.62-43.15-11.28-48.23-13.49-4.53-1.97-9.1.68-17.5-4.3-20.19-11.98-6.33-28.62-40.75-67.47-15.12-17.06-11.35-40.97-8.91-63.02-.31,1.02-.61,2.05-.91,3.07-.06.1-.12.19-.18.29-.31.53-.61,1.06-.9,1.59-.86,34.73-6.74,40.51,5.74,58.23Z"></path> <path class="cls-3" d="m174.5,224.68c2.93-16.18-2.87-23.5-8.47-29.99,8.93,13.18,11.39,22.99,2.4,38.15-1.68,2.84-3.68,5.47-5.89,7.81,1.92,4.37,4.92,7.49,8.63,9.69,2.15,1.27,4.54,2.24,7.09,2.97-10.05-9.07-4.36-25.27-3.75-28.63Z"></path> <path class="cls-29" d="m257.96,263.8c-11.45-2.63-24.18-6.2-30.15-9.74-.24-.14-.48-.29-.72-.43-9.83-5.83-11.7.7-22.93-5.96-16.56-9.82-16.06-30.11-23.62-45.87-5-10.41-15.18-15.51-21.53-24.53-12.48-17.71-6.6-23.49-5.74-58.23-1.19,2.14-2.22,4.31-3.11,6.49,1.44,11.34-1.4,22.59-1.36,34.2.08,20.96,28.59,32.63,30.39,44.37,2.56,16.76,5.94,37.72,19.48,45.75,8.06,4.78,13.82,2.07,23.86,5.8.11.03.22.06.32.1,14.97,5.26,26.23,7.74,35.11,8.03Z"></path> <path class="cls-34" d="m179.2,204.11c-1.8-11.74-30.31-23.41-30.39-44.37-.04-11.61,2.8-22.87,1.36-34.2-.08.2-.17.4-.25.6-.89,2.24-1.63,4.49-2.24,6.75.11,1.34.2,2.68.07,4.03-4.84,52.3,21.77,43.71,27.87,71.98,3.35,15.53-.51,32.52,16.83,46.41.36.01.72.03,1.08.04,11.97.35,23.84-1.28,29.02.31-10.04-3.73-15.8-1.02-23.86-5.8-13.54-8.03-16.91-28.99-19.48-45.75Z"></path> <path class="cls-44" d="m175.61,208.91c-6.1-28.27-32.7-19.68-27.87-71.98.12-1.35.04-2.69-.07-4.03-3.06,11.2-2.91,22.43-1.36,32.3.24,1.5.5,2.97.8,4.4,5.84,7.79,11.05,14.25,15.3,19.99,1.31,1.77,2.52,3.46,3.63,5.1,5.61,6.49,11.4,13.81,8.47,29.99-.61,3.36-6.3,19.56,3.75,28.63.6.17,1.2.33,1.82.48,3.91.93,8.13,1.36,12.36,1.53-17.34-13.9-13.48-30.88-16.83-46.41Z"></path> <path class="cls-36" d="m230.56,154.13c-2.02-1.2-4.21-1.83-6.65-1.54.1-.09.18-.19.25-.3,1.01-1.7-1.99-4.86-7.29-24.71-1.61-6.05-6.28-10.67-11.23-13.61-21.7-12.87-32.69-17.79-41.84-2.37-22.06,37.2,13.4,59.14,19.68,70.53,15.64,28.35,10.82,47.27,26.3,56.45,2.62,1.56,65.07,28.6,74.12,13.35,12.55-21.17-41.06-90.52-53.35-97.81Zm-38.25,28.34c-6.77-4.01-6.12-10.27-17.64-19.98-17.29-14.58-12.05-44.9-9.87-48.59,4.4-7.41,14.41-11.98,22.32-7.29,36.12,21.42,35.96,41.65,18.59,72.98-3.7,3.39-8.05,6.04-13.39,2.88Zm36.93,61.36c-2.28.61-8.54-3.08-9.24-3.49-14.69-8.71-22.14-37.34-5.39-65.58,1.19-2,2.47-3.94,3.82-5.81,6.38-5.92,14.21-6.61,18.31-4.18,14.04,8.33,51.26,66.49,40.12,85.27-6.08,10.26-29.68-11-47.62-6.21Z"></path> <path class="cls-11" d="m191.41,112.42c-4.21-2.5-9.04-3.87-13.96-3.89-3.15,1.3-5.36,3.39-6.9,5.99-8.73,14.72-1.74,41.27,9.09,47.7,8.4,4.98,15.66,1.43,19.59-5.21,1.52-2.57,13.57-31.91-7.82-44.59Z"></path> <path class="cls-11" d="m238.31,197.64c-.93-1.05-1.94-1.88-3-2.51-8.55-5.07-20.05,3.27-22.68,7.7-.33.55-.61,1.07-.87,1.57-2.32,11.67,2.19,24.35,12.21,30.29.43.26,40.43,17.82,45.82,8.73,11.95-20.15-20.14-32.96-31.49-45.78Z"></path> <g> <path class="cls-26" d="m187.13,106.61c-7.91-4.69-17.92-.12-22.32,7.29-2.19,3.69-7.43,34.01,9.87,48.59,11.52,9.71,10.88,15.97,17.64,19.98,5.34,3.17,9.7.51,13.39-2.88,17.37-31.33,17.54-51.56-18.59-72.98Zm-7.49,55.62c-10.83-6.42-17.82-32.98-9.09-47.7,1.54-2.6,3.75-4.69,6.9-5.99,4.92.01,9.75,1.39,13.96,3.89,21.39,12.69,9.34,42.02,7.82,44.59-3.93,6.63-11.19,10.19-19.59,5.21Z"></path> <path class="cls-26" d="m236.75,164.77c-4.1-2.43-11.93-1.74-18.31,4.18-1.36,1.87-2.64,3.81-3.82,5.81-16.75,28.24-9.3,56.86,5.39,65.58.7.41,6.95,4.1,9.24,3.49,17.95-4.79,41.54,16.47,47.62,6.21,11.14-18.78-26.08-76.94-40.12-85.27Zm-12.78,69.93c-10.02-5.94-14.53-18.62-12.21-30.29.26-.5.55-1.02.87-1.57,2.63-4.43,14.13-12.77,22.68-7.7,1.06.63,2.06,1.45,3,2.51,11.35,12.82,43.44,25.63,31.49,45.78-5.39,9.09-45.39-8.47-45.82-8.73Z"></path> </g> <path class="cls-31" d="m170.77,228.48c-4.11.07-8.96-.61-15.04-4.22-21.79-12.92-27.66-53.6-43.43-79.42,2.42,7.09,5,14.38,7.68,21.57,1.62,2.48,4.4,8.21,10.64,24.55,4.81,12.59,15.84,34.44,27.53,41.38,2.84,1.69,5.78,2.63,8.64,3.07.58-.83,1.13-1.69,1.65-2.56.89-1.5,1.67-2.95,2.34-4.36Z"></path> <path class="cls-16" d="m170.77,228.48c1.04-2.18,1.82-4.25,2.36-6.25-5.05,1.3-10.28.52-16.31-3.05-21.64-12.83-31.21-55.77-53.49-101.79,2.57,8.23,5.62,17.64,8.96,27.45,15.76,25.83,21.64,66.5,43.43,79.42,6.08,3.6,10.93,4.29,15.04,4.22Z"></path> <path class="cls-27" d="m130.62,190.96c-6.24-16.33-9.02-22.07-10.64-24.55,3.6,9.69,7.38,19.19,11.18,27.77,3.39,7.67,6.8,14.6,10.11,20.26,1.79,3.06,3.55,5.75,5.27,7.98,5.02,6.54,10.51,12.82,13.54,20.65.85-.76,1.67-1.57,2.47-2.42,1.53-1.62,2.95-3.38,4.24-5.25-2.86-.44-5.8-1.38-8.64-3.07-11.69-6.93-22.72-28.79-27.53-41.38Z"></path> <path class="cls-18" d="m110.95,112.66c-.57-1.29-.41-2.79-1.26-3.99-4.77-6.76-5.14-14.36-9.67-17.05-.84-.5-3.23-3.33-3.74-2.47s-.21,1.88.12,2.53c.83,1.44,21.48,45.27,28.6,63.29,7.47,18.87,12.62,41.96,29.58,52.02,2.55,1.51,12.09,6.39,14.25,2.76,4.22-7.12-42.87-63.05-57.88-97.09Zm43.31,88.65c-7.52-4.46-11.76-15.46-15.29-23.54-3.25-7.44-6.89-13.82-9.15-21.27l.34-.57c1.57-.22,2.95.15,4.16.87,1.93,1.14,30.71,41.13,29.93,46.27-3.88.67-7.17-.09-9.99-1.76Z"></path> <path class="cls-35" d="m134.32,156.81c-1.21-.72-2.59-1.09-4.16-.87l-.34.57c2.26,7.45,5.9,13.84,9.15,21.27,3.53,8.08,7.76,19.08,15.29,23.54,2.82,1.67,6.11,2.43,9.99,1.76.78-5.14-28.01-45.13-29.93-46.27Z"></path> <path class="cls-34" d="m85.68,146.54c21.16,20.26,24.7,34.67,35.5,44.37.36.07.73.15,1.1.23-6.61-8.04-10.93-18.46-16.26-28.22-4.73-8.67-30.86-26.51-12.97-61.85,1.27-2.5,1.58-5.12,1.59-7.8-.43-.68-.85-1.35-1.27-2.01-2.43,20.26-27.35,36.45-7.69,55.27Z"></path> <path class="cls-1" d="m85.68,146.54c-19.65-18.82,5.26-35.02,7.69-55.27-.49-.77-.97-1.54-1.44-2.29-2.07,12.92-10.86,24.64-14.48,37.35-5.11,17.93,15.83,29.44,25.59,43.78,4.52,6.63,6.3,13.52,15.03,20.27,1.02.15,2.05.33,3.1.54-10.8-9.71-14.34-24.11-35.5-44.37Z"></path> <path class="cls-3" d="m94.97,133.8c21.5,40.88,26.22,52.67,31.55,58.52,1.17.39,2.36.84,3.6,1.39-.92-1.37-1.75-2.8-2.47-4.21-30.6-59.55-39.28-53.64-29.53-89.29-.28-.95-.54-1.85-.79-2.7-.11-.17-.21-.33-.32-.5-2.48,16.2-8.52,24.47-2.04,36.79Z"></path> <path class="cls-16" d="m96.11,144.44c14.67,23.68,18.84,37.7,28.46,47.28.64.18,1.29.38,1.95.6-5.32-5.86-10.04-17.64-31.55-58.52-6.48-12.32-.45-20.59,2.04-36.79-.37-.58-.74-1.17-1.11-1.74-1.72,12.51-10.59,31.74.21,49.17Z"></path> <path class="cls-31" d="m127.65,189.51c.72,1.41,1.55,2.84,2.47,4.21.34.15.69.3,1.03.46-2.11-4.78-4.22-9.84-6.3-15.07-2.17-2.88-3.71-5.98-5.42-9.43-17.77-35.88-27.68-44.12-20.18-65.62-.41-1.36-.79-2.64-1.14-3.84-9.75,35.65-1.06,29.74,29.53,89.29Z"></path> <path class="cls-14" d="m119.52,165.18c-7.92-21.41-14.96-43.55-19.47-58.47-.45,14.09,10.01,40.67,19.47,58.47Z"></path> <path class="cls-27" d="m119.43,169.68c1.71,3.45,3.24,6.55,5.42,9.43-1.81-4.55-3.59-9.22-5.34-13.93-9.46-17.81-19.92-44.39-19.47-58.47-.27-.91-.54-1.79-.79-2.64-7.5,21.5,2.41,29.74,20.18,65.62Z"></path> <path class="cls-44" d="m106.02,162.92c5.33,9.76,9.65,20.18,16.26,28.22.75.17,1.52.36,2.29.58-9.62-9.58-13.79-23.6-28.46-47.28-10.8-17.43-1.93-36.66-.21-49.17-.43-.67-.84-1.34-1.26-1.99-.02,2.67-.32,5.29-1.59,7.8-17.89,35.34,8.24,53.18,12.97,61.85Z"></path> <path class="cls-29" d="m103.04,170.1c-9.76-14.33-30.7-25.85-25.59-43.78,3.62-12.71,12.4-24.43,14.48-37.35-.13-.2-.25-.4-.38-.6-1.74,11.43-9.82,25.16-14,29.54-23.75,24.9,38.04,49.53,25.89,70.02,0,.01-.02.02-.02.04,5.14,1.43,9.78,1.67,14.65,2.4-8.73-6.76-10.52-13.64-15.03-20.27Z"></path> <path class="cls-18" d="m77.55,117.92c4.18-4.39,12.26-18.12,14-29.54-25.19-40.21-28.09-48.61-42.88-57.38-21.85-12.96-35.37,105.24,44.16,152.4,3.86,2.29,7.32,3.67,10.58,4.57,0-.01.02-.02.02-.04,12.15-20.49-49.64-45.12-25.89-70.02Zm14.41,63.87C43.86,156.89,21.49,65.84,38.14,37.76c5.16-8.7,8.38-6.4,13.17-3.34.44.28.89.56,1.36.85.38.27.78.57,1.19.9,10.44,7.27,15.23,22.16,23.08,32.26,10.75,13.83,16.52,20.87,8.62,34.19-2.89,4.87-6.87,9.41-9.85,14.44-19.11,32.22,32.62,50.1,23.92,64.77-1.69,2.85-4.57,1.54-7.66-.06Z"></path> <path class="cls-18" d="m52.34,35.19c.52.31,1.02.64,1.51.98-.41-.33-.81-.63-1.19-.9-.47-.28-.92-.57-1.36-.85l.33.38c.23.13.47.25.7.39Z"></path> <path class="cls-28" d="m75.71,117.07c2.98-5.03,6.97-9.57,9.85-14.44,7.9-13.31,2.12-20.36-8.62-34.19-7.85-10.1-12.64-24.99-23.08-32.26-.49-.34-1-.68-1.51-.98-.23-.14-.47-.26-.7-.39l-.33-.38c-4.79-3.06-8.02-5.36-13.17,3.34-16.65,28.07,5.72,119.12,53.82,144.02,3.1,1.6,5.97,2.91,7.66.06,8.71-14.68-43.02-32.56-23.92-64.77Zm11.68,56.23c-.36-.22-.71-.48-1.06-.74-.55-.17-1.4-.58-2.8-1.41C47.54,149.81,30.52,63.14,42.72,42.57c2.75-4.64,5.74-6.66,9.92-4.18,7.86,4.66,11.64,20.72,22.61,31,7.27,6.81,13.57,18.17,8.41,26.87,0,0-1.73,2.73-3.21,5.22-11.39,19.21-22.06,45.62,1.02,59.31.91.54,2.06,1.14,2.26,1.27,5.82,3.45,7.48,10.08,6.95,10.99-.45.76-1.72,1.18-3.29.25Z"></path> <path class="cls-21" d="m83.73,162.06c-.21-.12-1.36-.73-2.26-1.27-23.08-13.68-12.41-40.1-1.02-59.31,1.48-2.5,3.21-5.22,3.21-5.22,5.16-8.7-1.14-20.05-8.41-26.87-10.97-10.28-14.75-26.34-22.61-31-4.19-2.48-7.17-.47-9.92,4.18-12.2,20.57,4.82,107.24,40.81,128.58,1.4.83,2.25,1.24,2.8,1.41.35.26.7.52,1.06.74,1.57.93,2.84.51,3.29-.25.54-.91-1.12-7.54-6.95-10.99Zm-18.92-16.52c-1.64.51-5.08-3.68-7.28-7.85-4.41-8.35-7.03-18.3-8.68-25.77-.15-.66-13.13-55.05-6.04-67.02.66-1.12,2.61-4.14,4.38-5.09,1.08-.27,2.45-.06,4.32,1.05,2.6,1.54,4.85,3.35,6.44,5.72,23.86,35.32,28.73,37.68,18.06,55.67-3,5.06-8.59,12.02-8.73,12.26-2.45,4.12-.7,14.21-2.76,17.7-.25.43,2.74,12.56.29,13.32Z"></path> <path class="cls-13" d="m64.53,132.22c2.07-3.48.32-13.57,2.76-17.7.14-.24,5.73-7.2,8.73-12.26,10.67-17.99,5.8-20.35-18.06-55.67-1.6-2.36-3.84-4.17-6.44-5.72-1.87-1.11-3.25-1.32-4.32-1.05-1.77.95-3.71,3.97-4.38,5.09-7.1,11.96,5.89,66.36,6.04,67.02,1.65,7.47,4.27,17.42,8.68,25.77,2.2,4.17,5.64,8.36,7.28,7.85,2.45-.76-.54-12.89-.29-13.32Zm-3.93-4.74c-11.42-6.77-18.98-74.87-14.1-83.1.04-.07.09-.15.13-.22,1.39-.48,3.56-.35,6.33,1.29,5.68,3.37,27.09,32.8,23.31,47.78l-2.88,7.03c-.34.56-.62,1.1-.93,1.63-2.28,3.84-4.7,4.3-9.04,11.62-5.3,8.93.1,10.75-1.66,13.72-.28.47-.73.5-1.16.24Z"></path> <path class="cls-36" d="m63.42,113.52c4.34-7.32,6.76-7.79,9.04-11.62.32-.53.6-1.07.93-1.63l2.88-7.03c3.78-14.98-17.63-44.41-23.31-47.78-2.77-1.65-4.94-1.78-6.33-1.29-.04.07-.09.14-.13.22-4.88,8.23,2.68,76.33,14.1,83.1.43.26.87.23,1.16-.24,1.76-2.97-3.63-4.79,1.66-13.72Zm-2.95-13.98c-8.93-5.29-14.22-40.67-12.02-50.22,1.13-.04,2.98.29,5.16,1.58,6,3.56,13.25,14.45,13.63,15.07,6.12,10.01,4.49,27.56,1.91,31.91-1.83,3.08-3.9,4.49-8.68,1.66Z"></path> <path class="cls-26" d="m67.24,65.98c-.38-.62-7.62-11.51-13.63-15.07-2.19-1.3-4.03-1.62-5.16-1.58-2.2,9.55,3.09,44.92,12.02,50.22,4.78,2.84,6.86,1.43,8.68-1.66,2.58-4.35,4.21-21.9-1.91-31.91Z"></path> <path class="cls-33" d="m167.68,265.45c3.24,4.97,9.39,6.82,12.4,12.43,1.57,2.93,3.09,5.92,4.79,8.75-.56-3.14-1.01-5.95-1.46-8.4-.04-.09-.08-.18-.12-.26-2.67-6.6-1.94-14.17-7.43-19.28-8.23-7.66-17.97-14.79-21.04-25.32-1.88-2.76-3.95-5.4-6.01-8.03,2.86,6.98,7.94,13.36,11.34,20.4,3.18,6.58,3.66,13.74,7.54,19.71Z"></path> <path class="cls-37" d="m183.29,277.97c.04.09.08.18.12.26-.4-2.19-.81-4.08-1.33-5.65.24-.41.32-1.46.8-2.27,2.63,2.03,5.38,3.94,8.19,5.79.65.08,1.31.17,2,.27,1.54.22,3.19.46,4.93.74-1.65-1.13-3.26-2.31-4.78-3.56-5.16-4.22-9.28-9.12-10.39-14.85-1.13-1.46-2.06-3.1-2.77-4.93-3.23-.77-6.25-1.87-8.9-3.45-3.71-2.2-6.71-5.32-8.63-9.69-.8.85-1.62,1.66-2.47,2.42-1.35-3.49-3.19-6.66-5.25-9.69,3.08,10.53,12.81,17.66,21.04,25.32,5.49,5.1,4.76,12.68,7.43,19.28Z"></path> <path class="cls-5" d="m272.54,293.7c-9.21-2.48-18.64-4.85-27.82-7.02-12.38-.54-23.16-2.71-25.39,1.06-1.83,3.09,5.77,8.07,8.36,14.28,2.42,3.1,3.84,6.06,4.61,8.93.38-5.93-2.53-13.22.18-17.78,5.09-8.58,23.01-1.13,40.06.53Z"></path> <path class="cls-34" d="m288.09,298.07c-5.04-1.48-10.26-2.94-15.55-4.37-17.05-1.66-34.97-9.11-40.06-.53-2.71,4.56.2,11.85-.18,17.78.54,2.02.76,4,.78,5.95,2.75-5.64.38-12.9,3.81-18.69,8.97-15.13,37.82,3.19,51.2-.14Z"></path> <path class="cls-21" d="m244.71,316.81c14.1-23.77,43.95-6.27,48.57-7.51,10.91-2.92,21.69-1.64,32.04,1.69-6.03-2.67-13.63-5.47-22.18-8.27-1.76.89-3.45,1.87-5.02,2.88-4.85,3.12-43.1-13.22-56.7,9.71-11.79,19.88,3.7,33.16,2.71,42.1,3.94.72,7.85,1.54,11.67,2.65-7.7-10.39-20.61-27.23-11.09-43.27Z"></path> <path class="cls-18" d="m237.61,307.04c12.1-20.41,39.22-4.54,60.45-5.94-3.22-1.01-6.55-2.02-9.96-3.03-13.38,3.33-42.23-14.99-51.2.14-3.43,5.78-1.06,13.05-3.81,18.69.08,11.78-7.34,22.48,4.2,35.62.65.74,1.32,1.46,2.03,2.18-1.44-11.27-11.72-30.79-1.71-47.66Z"></path> <path class="cls-13" d="m248.77,317.52c11.75-19.82,33-8.45,42.8-6.21,14.95,3.42,21.03-6.65,51.3,11.3,6.99,4.14,13.7,8.85,20.49,13.25-9.19-7.98-20.18-14.99-30.02-20.83-2.19-1.3-4.89-2.65-8.01-4.03-10.34-3.33-21.12-4.62-32.04-1.69-4.62,1.24-34.47-16.26-48.57,7.51-9.51,16.04,3.4,32.88,11.09,43.27,1.15.34,2.29.7,3.43,1.1-12.36-12.2-20.24-27.17-10.46-43.66Z"></path> <path class="cls-35" d="m241.42,315.32c13.6-22.93,51.85-6.59,56.7-9.71,1.57-1.01,3.26-1.99,5.02-2.88-1.33-.44-2.68-.87-4.06-1.31-.34-.11-.68-.21-1.02-.32-21.23,1.4-48.35-14.47-60.45,5.94-10,16.87.27,36.39,1.71,47.66.75.77,1.53,1.53,2.33,2.28.83.14,1.66.29,2.48.44.99-8.94-14.5-22.22-2.71-42.1Z"></path> <path class="cls-45" d="m204.01,282.27c2.57-4.33,26.14,2.34,38.84,4.32.62.03,1.24.07,1.87.09-17.81-4.2-34.61-7.63-46.72-9.56-1.75-.28-3.39-.53-4.93-.74-.69-.1-1.36-.19-2-.27.64.42,1.29.85,1.94,1.26,3.31,2.13,6.7,4.17,10.09,6.18,2.18,1.29,4.36,2.57,6.52,3.85,1.14.67,2.22,1.34,3.26,2-.38-.33-.63-.53-.71-.59-3.05-2.21-8.71-5.6-8.14-6.55Z"></path> <path class="cls-17" d="m219.33,287.75c2.12-3.58,11.94-1.8,23.52-1.16-12.69-1.98-36.27-8.65-38.84-4.32-.56.95,5.09,4.33,8.14,6.55.08.06.33.26.71.59,7.03,4.49,11.74,8.67,14.83,12.62-2.59-6.21-10.19-11.19-8.36-14.28Z"></path> <path class="cls-36" d="m342.86,322.61c-30.27-17.95-36.35-7.88-51.3-11.3-9.8-2.24-31.04-13.61-42.8,6.21-9.78,16.49-1.9,31.46,10.46,43.66,1.13.4,2.26.83,3.37,1.3-12.9-10.94-22.73-29.98-9.47-47.5,7.49-9.9,18.83-7.16,46.49-1.64,4.42.88,14.59-6.53,46.7,12.52,7.09,4.2,14.56,8.76,21.24,13.87-1.35-1.31-2.76-2.6-4.22-3.86-6.79-4.39-13.5-9.1-20.49-13.25Z"></path> <path class="cls-11" d="m382.14,372.55c1.69-9.74-8.11-29.12-34.66-44.86-31.49-18.67-46.72-10.34-59.94-14.59-26.01-8.36-31.35-.1-35.82,7.43-1.4,2.37-2.34,5.02-2.37,7.61-5.92,13.86,9.88,29.34,12.63,30.97.75.45,6.68,3.32,10.23,5.93,2.57,1.89,6.52,6.66,14.88,11.62,8.7,5.16,11.77,5.72,18.29,8.27,21.31,8.34,24.53.09,43.74,11.48,1.68,1,3.25,2.07,3.25,2.07,4.24,2.52,14.52-1,20.9-8.38,3.88-4.5,7.56-9.97,8.87-17.54Zm-39.5,15.89c-6.53-3.87-7.17-6.9-17.15-12.82-17.37-10.3-41.52-13.65-54.54-21.37-14.84-8.8-15.92-23-15.03-30.12.6-1.17,1.31-2.3,1.74-3.04,2.33-3.93,6.93-6.51,11.06-5.74,25.92,4.87,54.13.18,83.14,17.39,24.53,14.55,29.46,37.48,23.4,47.7-6.94,11.69-18.35,16.47-32.64,8Z"></path> <path class="cls-26" d="m367.57,339.72c-6.68-5.11-14.15-9.67-21.24-13.87-32.11-19.04-42.28-11.64-46.7-12.52-27.66-5.52-39-8.25-46.49,1.64-13.27,17.52-3.43,36.56,9.47,47.5,1.98.84,3.92,1.8,5.82,2.92,3.91,2.32,12.48,9.08,21.78,14.59,28.52,16.92,34.76,6.07,48.76,13.36.5.26,1.02.55,1.54.86,1.83,1.08,3.64,2.27,5.52,3.39,15.22,9.03,28.05-3.59,32.94-11.84,10.16-17.13,2.3-32.78-11.39-46.05Zm-15.19,58.74s-1.57-1.08-3.25-2.07c-19.21-11.39-22.43-3.14-43.74-11.48-6.52-2.55-9.6-3.11-18.29-8.27-8.36-4.96-12.31-9.73-14.88-11.62-3.55-2.61-9.48-5.48-10.23-5.93-2.74-1.63-18.55-17.11-12.63-30.97.03-2.59.97-5.24,2.37-7.61,4.47-7.54,9.81-15.79,35.82-7.43,13.22,4.25,28.45-4.08,59.94,14.59,26.55,15.75,36.35,35.13,34.66,44.86-1.32,7.57-4.99,13.04-8.87,17.54-6.38,7.38-16.65,10.9-20.9,8.38Z"></path> <path class="cls-25" d="m351.88,332.74c-29.01-17.21-57.22-12.52-83.14-17.39-4.13-.78-8.73,1.81-11.06,5.74-.44.74-1.14,1.87-1.74,3.04-.89,7.12.19,21.32,15.03,30.12,13.01,7.72,37.16,11.06,54.54,21.37,9.98,5.92,10.62,8.94,17.15,12.82,14.29,8.47,25.71,3.69,32.64-8,6.06-10.22,1.13-33.15-23.4-47.7Zm-11.45,51.87c-9.92-5.89-13.59-16.25-37.84-30.63-10.53-6.25-23.58-11.66-23.6-11.67-6.2-3.68-7.81-11.71-4.53-17.25,1.21-2.04,2.9-3.56,4.8-4.6,23.11-.77,47.19,3.32,66.97,15.05,17.74,10.52,32.69,28.52,25.5,40.64-.67,1.12-1.77,1.91-2.45,3.06-.59.99-.92,2.37-1.54,3.41-.89,1.5-14.69,9.48-27.32,1.99Z"></path> <path class="cls-4" d="m348.83,338.93c-10.77-6.39-23.49-9.56-36.01-8.88-7.29,16.35,18.24,25.14,27.82,35.98,4.4,4.98,8.6,10.23,14.14,13.52,6.48,3.84,12.95-2.8,14.48-5.39,6.69-11.28-6.28-26.83-20.44-35.22Z"></path> <path class="cls-4" d="m371.73,376.15c7.19-12.12-7.76-30.12-25.5-40.64-19.78-11.73-43.86-15.82-66.97-15.05-1.9,1.04-3.59,2.57-4.8,4.6-3.28,5.54-1.68,13.57,4.53,17.25.01,0,13.06,5.42,23.6,11.67,24.25,14.38,27.92,24.74,37.84,30.63,12.63,7.49,26.43-.48,27.32-1.99.61-1.03.95-2.41,1.54-3.41.68-1.15,1.78-1.93,2.45-3.06Zm-16.94,3.39c-5.54-3.29-9.74-8.54-14.14-13.52-9.58-10.83-35.11-19.62-27.82-35.98,12.52-.67,25.24,2.49,36.01,8.88,14.15,8.39,27.13,23.94,20.44,35.22-1.53,2.59-8,9.24-14.48,5.39Z"></path> <path class="cls-20" d="m187.25,275.47c.31-.52.64-.94.98-1.28-1.82-1.25-3.61-2.54-5.35-3.88-.48.81-.56,1.86-.8,2.27,1.95,5.94,2.42,16.49,6.57,30.13-2.54-13.05-3.68-23.36-2.15-25.94.26-.45.5-.88.75-1.3Z"></path> <path class="cls-23" d="m190.15,280.15c.89-1.5,2.22-2.27,3.36-2.46-.17-.11-.34-.21-.51-.32-.65-.42-1.29-.84-1.94-1.26-.96-.63-1.9-1.27-2.84-1.92-.34.34-.67.76-.98,1.28-.25.42-.48.86-.75,1.3-1.53,2.58-.39,12.89,2.15,25.94.06.19.11.38.17.57.53,1.72,1.13,3.5,1.79,5.31-1.82-13.6-2.27-25.34-1.09-27.34.2-.33.4-.73.61-1.1Z"></path> <g> <path class="cls-16" d="m267.28,391.71c0-.26,0-.52,0-.78-16.23-10.31-33.69-23-47.54-36.97,11.47,12.08,26.84,24.8,47.55,37.76Z"></path> <path class="cls-16" d="m198.1,292.83c2.11-3.56,5.61-5.99,8.22-7.37-1.08-.63-2.15-1.27-3.22-1.91-.81-.48-1.62-.97-2.43-1.45-.52.56-.95,1.1-1.17,1.48-8.97,15.12-7.06,30.66,1.04,45.55,3.58,5.9,7.99,12.08,13.46,18.46-15.01-19.97-24.41-40.4-15.89-54.77Z"></path> </g> <path class="cls-3" d="m199.49,283.58c.22-.38.65-.92,1.17-1.48-.92-.55-1.84-1.11-2.75-1.67-1.28.72-2.23,2.02-2.95,3.23-7.15,12.05-3.86,23.32-.31,34.55,1.66,3.51,3.6,7.15,5.88,10.91-8.1-14.89-10-30.43-1.04-45.55Z"></path> <path class="cls-31" d="m194.96,283.67c.72-1.21,1.66-2.52,2.95-3.23-1.48-.9-2.94-1.82-4.4-2.74-1.15.19-2.47.96-3.36,2.46-.22.37-.42.77-.61,1.1-1.19,2-.73,13.75,1.09,27.34,1.13,3.08,2.45,6.29,4.03,9.62-3.55-11.23-6.83-22.5.31-34.55Z"></path> <path class="cls-44" d="m266.91,387.24c-4.75.03-16.85-8.82-23.66-13.97-27.11-20.5-52.84-61.34-46.12-74.75,5.06-10.12,13.47-8.84,16.87-8.38-1.37-.9-2.82-1.81-4.38-2.73-1.09-.65-2.19-1.3-3.29-1.94-2.61,1.37-6.1,3.8-8.22,7.37-8.52,14.37.88,34.79,15.89,54.77.58.68,1.18,1.37,1.79,2.05,1.26,1.43,2.58,2.86,3.95,4.31,13.85,13.97,31.31,26.66,47.54,36.97-.02-1.27-.15-2.5-.37-3.69Z"></path> <path class="cls-42" d="m241.65,356.98c-1.55-1.46-3.03-2.94-4.36-4.46-19.42-22.11,14.85-37.32-23.3-62.39-3.4-.46-11.8-1.74-16.87,8.38-6.71,13.41,19.01,54.25,46.12,74.75,6.81,5.15,18.91,14,23.66,13.97-2.32-12.6-15.42-21.03-25.26-30.26Zm11.98,22.64c-14.08-8.38-27.51-23.06-27.51-23.06-6.74-6.15-34.2-43.25-24.89-58.16,2.3-3.68,5.49-5.38,7.82-6.03,1.81.18,4.38.85,7.94,2.71,33.98,17.76-13.79,44.99,41.38,77.85,3.16,1.88,6.68,10.35,5.96,11.56-.43.72-7.6-3.02-10.7-4.86Z"></path> <path class="cls-29" d="m258.36,372.93c-55.17-32.86-7.39-60.09-41.38-77.85-3.56-1.86-6.12-2.53-7.94-2.71-2.33.65-5.52,2.35-7.82,6.03-9.32,14.91,18.15,52.02,24.88,58.16,0,0,13.44,14.68,27.52,23.06,3.1,1.84,10.27,5.58,10.7,4.86.71-1.2-2.81-9.68-5.96-11.56Zm-32.16-19.43c-1.2-1.63-31.25-35.12-21.65-51.31,1.68-2.83,3.45-4.6,5.04-5.72,4.4.44,11.19,4,12.03,4.5,11.62,6.89-.72,18.25,11.02,50.4.68,1.87,10.08,14.12,9.81,14.58-1.19,2-11.56-6.11-16.25-12.46Z"></path> <path class="cls-35" d="m219.53,302.35c-2.4-1.42-5.12-1.82-7.05-1.74-1.96,1.23-3.75,3.43-4.64,4.94-6.26,10.56,3.81,24.06,9.58,27.48,2.28,1.35,6.16,3.55,7.46,1.37.9-1.51,1.88-27.77-5.35-32.05Z"></path> <path class="cls-18" d="m232.65,351.37c-11.73-32.16.61-43.51-11.02-50.4-.85-.5-7.64-4.06-12.03-4.5-1.59,1.12-3.36,2.89-5.04,5.72-9.6,16.18,20.45,49.68,21.65,51.31,4.69,6.35,15.06,14.46,16.25,12.46.28-.47-9.12-12.71-9.81-14.58Zm-15.23-18.33c-5.78-3.43-15.85-16.92-9.58-27.48.9-1.51,2.68-3.7,4.64-4.94,1.93-.08,4.65.31,7.05,1.74,7.23,4.29,6.25,30.54,5.35,32.05-1.3,2.19-5.18-.01-7.46-1.37Z"></path> <path class="cls-14" d="m259.04,369.17c-1.6,2.7,6.46,8.12,6.94,14.58.6,1.66,1,3.39,1.19,5.21.09-.12.18-.25.27-.39,2.72-4.58-3.99-8.01-1.5-12.21,3.73-6.29,13,3.53,20.35,1.23-.59-.38-1.18-.76-1.77-1.14-10.88,2.06-22.95-11.54-25.48-7.27Z"></path> <path class="cls-37" d="m276.22,370.76c-3.32-2.34-6.04-4.3-7.81-5.35-8.27-4.9-17.47-6.8-26.76-8.42,1.81,1.7,3.73,3.37,5.68,5.05,3-4.42,18.03,3.76,28.9,8.73Z"></path> <path class="cls-27" d="m265.93,376.36c-2.49,4.2,4.22,7.62,1.5,12.21-.08.14-.17.27-.27.39.06.6.09,1.22.1,1.84.32-.31.6-.65.83-1.03,1.83-3.09-.74-7.97,1.06-11.01,2.28-3.84,11.71,1.53,20.06.66-.99-.6-1.97-1.21-2.94-1.83-7.34,2.3-16.62-7.52-20.35-1.23Z"></path> <path class="cls-30" d="m259.04,369.17c2.53-4.27,14.6,9.33,25.48,7.27-.04-.03-.09-.06-.14-.09-2.37.77-5.7-.98-8.86-2.85-2.11-1.25-4.12-2.64-6.23-3.89-3.22-1.91-14.18-7.03-15.63-4.59-.48.81.59,2.45,2.1,4.51,4.46,4.29,8.29,8.87,10.21,14.21-.48-6.46-8.55-11.87-6.94-14.58Z"></path> <path class="cls-33" d="m253.67,365.02c1.44-2.44,12.41,2.69,15.63,4.59,2.11,1.25,4.12,2.64,6.23,3.89,3.15,1.87,6.48,3.63,8.86,2.85-2.94-1.93-5.71-3.87-8.16-5.6-10.86-4.97-25.9-13.15-28.9-8.73,2.86,2.46,5.76,4.93,8.44,7.51-1.51-2.07-2.58-3.71-2.1-4.51Z"></path> <path class="cls-3" d="m252.74,403.03c5.58-9.41,18.82-3.61,21.85-8.72,1.46-2.46,1.75-6.28,3.3-8.88,5.01-8.44,26.88,9.72,44.1,4.93-3.36-.07-7.11-.31-11.74-1.49-11.22-.92-30.83-13.32-35.97-4.65-1.31,2.2-1.68,7.36-2.32,8.43-2.56,4.32-15.47,1.46-20.79,10.44-.26.43-.52.96-.58,1.07-.14.24-.3.46-.43.68-1.85,3.11,2.89,12.03,12.45,21.33,3.18,1.72,6.45,3.01,9.8,3.93-1.99-.89-3.92-1.87-5.77-2.97-8.31-4.93-18.89-15.67-13.89-24.09Z"></path> <path class="cls-31" d="m250.15,404.82c.13-.22.29-.44.43-.68.06-.11.32-.63.58-1.07,5.32-8.97,18.23-6.12,20.79-10.44.64-1.08,1.02-6.23,2.32-8.43,5.14-8.67,24.75,3.73,35.97,4.65-4.14-1.06-8.99-2.86-14.91-5.98-8.86-.29-18.31-8-22.72-.57-1.49,2.51-1.68,6.24-2.73,8.01-4.81,8.12-17.18,1.47-22.41,10.29-3.16,5.32.55,10.98,3.01,15.78,2.68,3.19,5.99,6.18,10.53,8.87.53.31,1.05.61,1.58.89-9.56-9.31-14.29-18.22-12.45-21.33Z"></path> <path class="cls-23" d="m247.48,400.61c5.23-8.82,17.59-2.17,22.41-10.29,1.05-1.77,1.24-5.5,2.73-8.01,4.41-7.43,13.86.28,22.72.57-1.63-.86-3.34-1.81-5.14-2.88-.33-.19-.65-.39-.98-.59-8.35.87-17.78-4.5-20.06-.66-1.8,3.04.77,7.92-1.06,11.01-.23.38-.5.72-.83,1.03,0,.3.01.6,0,.91-.21-.13-.42-.26-.63-.4-5.12,3.76-17.94,1.98-21.48,7.94-1.2,2.02-.91,5.63-.41,8.83,1.71,2.88,3.51,5.66,5.73,8.3-2.45-4.8-6.16-10.46-3.01-15.78Z"></path> <path class="cls-37" d="m234.6,376.88c2.43-4.09,12.22,1.19,13.32,1.84.47.28.93.57,1.38.87-2.32-1.69-4.55-3.37-6.7-5.05-2.4-1.59-4.79-3.17-7.27-4.64-2.7-1.6-10.05-5.32-11.65-2.63-2.29,3.86,6.01,11.96,6.99,20.26.8,1.05,1.64,2.08,2.54,3.1,1.86,2.11,3.43,4.23,4.84,6.33,1.99-7.84-7.03-14.05-3.46-20.08Z"></path> <path class="cls-24" d="m223.69,367.27c1.6-2.69,8.95,1.03,11.65,2.63,2.48,1.47,4.87,3.04,7.27,4.64-6.5-5.07-12.24-10.08-17.33-14.99-.21-.15-.43-.29-.65-.42-1.19-.71-3.7-2.03-4.4-.83-2.84,4.78,4.43,13.41,5.28,21.29,1.49,2.72,3.2,5.38,5.18,7.96-.98-8.3-9.28-16.4-6.99-20.26Z"></path> <path class="cls-22" d="m220.22,358.29c.71-1.19,3.22.13,4.4.83.22.13.44.27.65.42-3.46-3.34-6.63-6.64-9.51-9.89,1.92,9.9,4.43,20.26,9.73,29.92-.85-7.88-8.12-16.5-5.28-21.29Z"></path> <path class="cls-33" d="m240.55,386.18c4.43-7.46,13.13,3.59,18.3.08-3.33-2.23-6.51-4.46-9.55-6.67-.46-.3-.91-.59-1.38-.87-1.09-.65-10.89-5.93-13.32-1.84-3.58,6.03,5.45,12.24,3.46,20.08,1.24,1.84,2.35,3.67,3.41,5.48.07-5.55-4.3-10.56-.92-16.26Z"></path> <path class="cls-30" d="m260.67,387.46c-.49-.32-.98-.64-1.46-.97-.12-.08-.23-.16-.35-.24-5.17,3.51-13.88-7.54-18.3-.08-3.38,5.7.98,10.71.92,16.26.39.67.78,1.34,1.16,2-.09-4.1.49-8.4,2.02-10.98,2.43-4.1,11.06,1.29,16.02-6Z"></path> <path class="cls-14" d="m245.11,396.08c3.92-6.62,16.83-.65,20.63-5.35-.19-.12-.38-.24-.57-.36-.42-.27-.83-.53-1.24-.8-1.1-.71-2.19-1.42-3.26-2.13-4.96,7.29-13.59,1.9-16.02,6-1.53,2.57-2.11,6.88-2.02,10.98.61,1.05,1.21,2.09,1.81,3.12-.98-3.32-1.81-7.3.67-11.47Z"></path> <path class="cls-27" d="m266.65,391.31c-.31-.19-.61-.38-.91-.58-3.8,4.69-16.7-1.27-20.63,5.35-2.48,4.18-1.65,8.16-.67,11.47.1.18.21.36.31.53-.5-3.2-.79-6.81.41-8.83,3.54-5.96,16.37-4.18,21.48-7.94Z"></path> <path class="cls-16" d="m256.42,402.81c4.43-6.97,15.14,1.53,19.97-6.6,1.59-2.68.48-5.91,2.79-9.6,1.66-2.65,4.14-2.23,9.69-.41,37.51,12.32,33.54.15,46.66,7.93,2.43,1.44,4.46,3.52,6.01,5.44-.98-2.04-1.83-4.13-2.58-6.21-6.32-3.29-11.05-2.89-16.97-3.01-17.22,4.79-39.09-13.37-44.1-4.93-1.55,2.61-1.84,6.42-3.3,8.88-3.03,5.12-16.27-.69-21.85,8.72-4.99,8.42,5.58,19.16,13.89,24.09,1.84,1.09,3.77,2.07,5.77,2.97,1.8.5,3.62.89,5.46,1.18-16.39-7.56-27.16-19.47-21.44-28.47Z"></path> <path class="cls-44" d="m357.41,415.88s-1.78-.76-3.52-1.8c-5.66-3.36-9.55-8.7-12.35-14.52-1.55-1.92-3.58-4-6.01-5.44-13.12-7.78-9.15,4.39-46.66-7.93-5.55-1.82-8.03-2.24-9.69.41-2.31,3.68-1.2,6.92-2.79,9.6-4.83,8.14-15.54-.37-19.97,6.6-5.72,9,5.05,20.91,21.44,28.47,24.44,3.95,52.35-8.7,78.53-12.47,0,0,.67-.63,1.09-1.34.35-.6.52-1.24-.06-1.59Zm-85.01,10.54c-9.28-5.5-20.01-13.36-14.85-22.07.68-1.14,2.43-3.23,3.7-3.11,3.41-.67,12.73,2.81,17.45-5.14,2.42-4.09,1.75-8.92,1.75-8.92,2.22-3.74,8.25.39,8.87.65,16.92,7.02,37.37,2.03,46.2,7.26,8.7,5.16,3.71,11.55,15.16,18.34.8.47,1.6.93,2.4,1.4,2.96,1.75,3.26,2.03,3.01,2.45-.25.42-67.58,18.67-83.69,9.12Z"></path> <path class="cls-34" d="m353.08,414.86c-.8-.47-1.61-.93-2.4-1.4-11.45-6.79-6.46-13.19-15.16-18.34-8.83-5.24-29.28-.24-46.2-7.26-.62-.26-6.65-4.39-8.87-.65,0,0,.67,4.83-1.75,8.92-4.71,7.95-14.04,4.46-17.45,5.14-1.27-.13-3.03,1.97-3.7,3.11-5.16,8.71,5.57,16.56,14.85,22.07,16.11,9.55,83.43-8.7,83.69-9.12.25-.42-.05-.7-3.01-2.45Zm-83.6,7.21c-4.99-2.96-9.33-6.69-6.23-11.91,3.96-6.67,17.72-7.53,20.72-12.59.79-1.33.79-2.43.86-4.08.05-.99-.24-2.01-.56-2.91.76.76,1.12,1.16,1.79,1.55,9.5,5.63,35.43,1.3,43.71,6.21.44.26.85.54,1.27.79,2.9,1.72,3.09,4.07,4.83,5.87,3.96,4.11,10.44,5.77,8.13,9.66-4.3,7.25-55.47,18.71-74.51,7.42Z"></path> <path class="cls-1" d="m335.86,404.99c-1.74-1.8-1.92-4.15-4.83-5.87-.42-.25-.83-.53-1.27-.79-8.28-4.91-34.21-.57-43.71-6.21-.66-.39-1.02-.8-1.79-1.55.32.91.61,1.92.56,2.91-.08,1.66-.08,2.76-.86,4.08-3,5.06-16.76,5.92-20.72,12.59-3.09,5.22,1.24,8.94,6.23,11.91,19.04,11.29,70.21-.17,74.51-7.42,2.31-3.89-4.18-5.55-8.13-9.66Zm-66.06,15.01c-3.67-2.18-5.78-4.62-3.63-8.23,3.6-6.07,17.01-4.06,19.89-8.9.29-.49.56-1,.85-1.5,4.52-7.62,20.89-.41,26.93,3.16.13.08.26.15.39.23,6.25,3.7,14.93,1.37,22.6,5.92.17.1.34.21.5.31.49,1.13.54,2.32-.16,3.49-6.76,11.4-58.34,10.88-67.37,5.52Z"></path> <path class="cls-9" d="m317.78,411.49s-16.01-3.23-25.46-5.6c-2.99,4.65-12.24,1.55-15.02,6.23-1.86,3.13,0,5.48,3.12,7.34,5.64,3.35,34.12,4.38,38.22-2.53,1.29-2.18,1.39-4.11-.85-5.44Z"></path> <path class="cls-38" d="m337.33,410.99c-.17-.1-.33-.21-.5-.31-7.67-4.55-16.35-2.21-22.6-5.92-.13-.08-.26-.15-.39-.23-6.04-3.58-22.41-10.78-26.93-3.16-.29.5-.56,1.01-.85,1.5-2.87,4.84-16.29,2.83-19.89,8.9-2.14,3.62-.04,6.06,3.63,8.23,9.03,5.36,60.61,5.88,67.37-5.52.7-1.17.64-2.36.16-3.49Zm-56.92,8.47c-3.13-1.85-4.98-4.21-3.12-7.34,2.78-4.68,12.04-1.59,15.02-6.23,9.46,2.37,25.46,5.6,25.46,5.6,2.24,1.33,2.15,3.26.85,5.44-4.1,6.91-32.57,5.87-38.22,2.53Z"></path> <path class="cls-35" d="m245.2,272.49c5.64,1.5,6.29-1.74,58.81-14.68,28.76-7.09,58.82,18.96,73.98-6.61,6.15-10.37-.81-21.74-5.8-34.73-1.53-.33-3.07-.58-4.62-.74,1.8,9.34,17.9,21.28,9.05,36.21-13.93,23.48-39.66-17.78-119.92,17.84-9.92,4.4-6.71-1.48-49.54-9.01-8.77-1.54-18.37-2.09-26.09-4.8.38.71.79,1.38,1.24,2.03,7.47,3.32,17,4.37,25.18,4.17,13.39-.32,24.81,6.91,37.69,10.32Z"></path> <path class="cls-44" d="m336.3,251.38c11.13.66,20.98-.87,26.62-10.38,5.46-9.21-2.47-19.26-.78-25.48-.22,0-.44,0-.67.01-.71,2.88-1.48,5.55-2.31,7.98-.75,5.73-1.02,11.09-3.86,15.88-4.87,8.21-11.53,11.41-19.01,12Z"></path> <path class="cls-34" d="m316.38,252c18.55.48,44.52,7.22,54.98-10.43,6.23-10.51-6.11-14.89-6.64-26.05-.86-.03-1.71-.03-2.57-.01-1.7,6.22,6.24,16.28.78,25.48-5.65,9.52-15.5,11.05-26.62,10.38-5.37.42-11.16-.5-17.01-1.88-10.28-1.25-20.43-1.99-28.45,1.74-1.91.89-3.89,1.77-5.91,2.52-2.34,2.27-4.79,4.22-7.52,5.78,11.66-3.67,23.7-7.93,38.97-7.53Z"></path> <path class="cls-18" d="m181.08,255.97c7.72,2.71,17.32,3.26,26.09,4.8,42.83,7.53,39.62,13.42,49.54,9.01,80.26-35.62,105.99,5.64,119.92-17.84,8.85-14.92-7.26-26.86-9.05-36.21-.95-.1-1.91-.18-2.86-.21.53,11.15,12.88,15.54,6.64,26.05-10.47,17.65-36.43,10.91-54.98,10.43-15.27-.4-27.31,3.86-38.97,7.53-4.59,2.63-9.95,4.16-16.8,4.28-10.67,1.7-22.14.92-36.43-6.07-2.39-1.17-17.45.36-33.44-2.51-3.66-.21-7.27-.64-10.66-1.45.29.76.64,1.49,1.01,2.18Z"></path> <path class="cls-44" d="m260.61,263.82c-9.26.16-21.25-2.25-37.76-8.05-4.99-1.75-17.11-.05-29.33-.41-.93-.03-1.85-.07-2.78-.12,15.99,2.88,31.05,1.35,33.44,2.51,14.29,6.99,25.75,7.77,36.43,6.07Z"></path> <g> <path class="cls-43" d="m336.3,251.38c-5.48-.33-11.27-1.19-17.01-1.88,5.86,1.38,11.65,2.31,17.01,1.88Z"></path> <path class="cls-43" d="m319.29,249.49c-10.96-2.59-22.15-6.77-31.24-6.75.61,3.08.86,5.37.89,6.72-1.32,1.53-2.64,2.97-4.01,4.3,2.02-.75,4-1.63,5.91-2.52,8.02-3.74,18.17-3,28.45-1.74Z"></path> </g> <path class="cls-21" d="m248.86,273.78c31.56-5.91,52.29-16.46,71.63-16.23,11.74.14,45.89,21.72,60.44-2.83,8.96-15.12-1.47-25.8,1.15-30.22,1.06-1.79,2.51-2.51,4.13-2.59-4.41-2.52-9.14-4.38-14.02-5.43,4.98,12.99,11.95,24.36,5.8,34.73-15.16,25.57-45.22-.48-73.98,6.61-52.52,12.94-53.17,16.17-58.81,14.68-12.89-3.42-24.3-10.65-37.69-10.32-8.18.2-17.71-.85-25.18-4.17.17.24.34.49.51.72,1.65,2.14,3.71,3.89,6.05,5.27,1.58.94,3.11,1.69,4.58,2.28,1.07.43,2.12.77,3.14,1.05,10.74-13.3,41.71,8.44,52.25,6.47Z"></path> <path class="cls-13" d="m407.79,246.08c-2.98-8.89-9.78-17.2-20.85-23.76-.24-.14-.48-.27-.72-.41-1.62.08-3.07.8-4.13,2.59-2.62,4.43,7.81,15.11-1.15,30.22-14.56,24.55-48.7,2.97-60.44,2.83-19.34-.23-40.07,10.32-71.63,16.23-10.54,1.97-41.5-19.77-52.25-6.47,12.54,3.4,21.54-3.72,32.41,2.73,2.52,1.5,4.91,3.29,7.34,4.73,15.33,9.09,20.7-11.93,62.26-3.97,53.88,10.32,85.82,18.99,105.38,5.71,5.65-9.8,7.12-20.48,3.79-30.42Zm-105.26,24.21c-38.5-2.46-2.79-10.43,15.33-11.05,16.8-.58,50.27,19.22,63.85-1.69,7.86-12.1,1.49-28.26,2.99-33.72,2.17-1.48,5.29,1.48,7.25,2.64,4.58,2.72,24.02,25.77,12.99,44.37-14.83,25-71.83,1.41-102.41-.55Z"></path> <path class="cls-36" d="m391.95,226.47c-1.96-1.16-5.07-4.12-7.25-2.64-1.5,5.46,4.87,21.62-2.99,33.72-13.58,20.91-47.04,1.11-63.85,1.69-18.13.62-53.83,8.59-15.33,11.05,30.58,1.95,87.59,25.55,102.41.55,11.03-18.6-8.41-41.65-12.99-44.37Zm-57.86,44.68c-2.64-1.35-6.02-.47-8.77-1.95-.02,0-.03-.02-.04-.03-.67-.4-.82-1.32-.45-1.95,4.41-7.43,46.23,17.22,62.41-10.06,6.96-11.73.04-18.58,3.86-25.03.19-.33.42-.55.66-.71,13.44,10.95,14.24,32.65,10.72,38.58-5.23,8.82-36.14,17.64-68.38,1.14Z"></path> <path class="cls-26" d="m396.92,241.7c-1.04-.44-2.23-.61-2.91.53-1.5,2.52.89,8.98-2.26,14.3-2.79,4.7-9.69,9.83-12.07,13.86-1.02,1.73-2.47,3.62-.75,4.64,5.85,3.47,17.47.81,21.54-6.06,3.98-6.72,2.5-22.32-3.55-27.27Z"></path> <path class="cls-39" d="m391.75,231.43c-.24.16-.47.38-.66.71-3.82,6.44,3.1,13.3-3.86,25.03-16.18,27.28-58,2.63-62.41,10.06-.37.62-.22,1.55.45,1.95.01,0,.03.02.04.03,2.75,1.48,6.13.61,8.77,1.95,32.24,16.49,63.14,7.68,68.38-1.14,3.52-5.94,2.72-27.63-10.72-38.58Zm-12.82,43.6c-1.73-1.02-.28-2.91.75-4.64,2.39-4.02,9.29-9.16,12.07-13.86,3.15-5.32.76-11.77,2.26-14.3.68-1.14,1.87-.97,2.91-.53,6.06,4.95,7.53,20.55,3.55,27.27-4.07,6.87-15.69,9.53-21.54,6.06Z"></path> <path class="cls-3" d="m249.05,287.39c-7.31-2.8-20.77-8.13-48.15-12.05-6.4-.92-12.78-7.15-14.63-13.16-1.27-1.02-2.42-2.16-3.42-3.46,1.11,5.73,5.23,10.63,10.39,14.85,1.52,1.24,3.13,2.43,4.78,3.56,24.61,3.94,68.6,14.01,101.07,24.3,7.56.81,15.25,1.4,22.86,1.69-10.95-2.13-13.29.21-27.69-5.66-22.57-9.21-36.58-6.76-45.19-10.06Z"></path> <path class="cls-44" d="m242.5,284.26c-18.22-10.45-33.66-5.15-44.21-11.41-3.25-1.93-6.01-4.56-7.95-8.06-.48-.25-.96-.52-1.45-.81-.92-.55-1.8-1.15-2.63-1.81,1.85,6.01,8.23,12.24,14.63,13.16,27.39,3.93,40.84,9.25,48.15,12.05,8.62,3.3,22.62.86,45.19,10.06,14.4,5.87,16.74,3.53,27.69,5.66,1.14.04,2.28.08,3.42.11-26.31-3.91-44.75-16.17-62.11-16.44-8.31-.13-13.58,1.59-20.75-2.52Z"></path> <path class="cls-42" d="m278.94,287.4c-15.39-6.76-24.88,3.53-41.22-6.43-5.93-3.61-7.93-3.76-9.48-4.06-6.59-1.26-18.84,1.16-29.77-5.33-1.62-.96-3.55-3.22-5.24-5.42-.94-.39-1.9-.84-2.88-1.36,1.94,3.49,4.7,6.13,7.95,8.06,10.54,6.25,25.99.96,44.21,11.41,7.18,4.12,12.44,2.39,20.75,2.52,17.36.27,35.8,12.54,62.11,16.44,12.06.32,23.87-.17,34.62-1.83-15.21-1.73-27.36,9.59-81.04-13.99Z"></path> <path class="cls-18" d="m381.67,285.25c-.54-.06-57.72-5.22-90.28-14.38-.76-.21-7.13-.57-8.32-.71-18.5-2.23-34.94,14.94-48.44,4.5-13.27-10.26-20.75-5.04-36.3-5.35-.25.42,3.06,2.16,3.33,2.36.28.21.57.4.87.58,8.53,5.06,24.6,1.83,30.53,5.6,18.7,11.87,31.9,3.42,42.94,7.43,32.26,11.72,80.58,29.4,122.61-3.15,5.15-3.99-8.73,4.09-16.94,3.13Zm-47.81,13.65s-33.5-5.91-34.08-6.25c-.02-.01-8.01-2.83-9.67-3.56-27.17-12.03-30.88-1.27-43.52-6.91-5.03-2.24,7.81-4.6,19.16-6.27,7.88-2.49,15.32-4.75,19.78-3.38,53.91,16.68,159.26,9.28,48.32,26.37Z"></path> <path class="cls-21" d="m364.14,287.61s-53-6.09-73.73-10.85c-1.16.5-2.21,1.22-2.96,2.31,0,0,0,.01-.01.02-.52.87.44,1.75,1.24,2.23,0,0,20,4.36,34.6,11.35,9.13,4.37,40.62-1.12,41.98-3.41.45-.76-.19-1.09-1.13-1.64Z"></path> <path class="cls-35" d="m285.54,272.53c-4.45-1.38-11.89.89-19.78,3.38-11.36,1.67-24.19,4.03-19.16,6.27,12.64,5.64,16.35-5.12,43.52,6.91,1.66.73,9.65,3.55,9.67,3.56.57.34,34.08,6.25,34.08,6.25,110.94-17.09,5.59-9.69-48.32-26.37Zm37.74,20.13c-14.6-6.99-34.6-11.35-34.6-11.35-.8-.47-1.76-1.35-1.24-2.23,0,0,0-.01.01-.02.75-1.09,1.79-1.81,2.96-2.31,20.72,4.76,73.73,10.85,73.73,10.85.93.55,1.58.88,1.13,1.64-1.36,2.29-32.85,7.78-41.98,3.41Z"></path> <path class="cls-18" d="m336.18,85.18c2-3.37,11.86-4.35,15.37-2.27.14.08.69.51,1.17.9.4-1.99.22-3.62-1.16-4.7-.03.07-.06.13-.1.2-2.27,3.82-13.38-1.34-17.69,5.91-4.66,7.86,6.08,13.27,11.39,19.39,1.84,1.55,3.58,3.16,5.05,4.86-5.51-7.89-18.89-16.07-14.03-24.28Z"></path> <path class="cls-40" d="m333.76,85.22c4.3-7.25,15.42-2.09,17.69-5.91.04-.07.07-.13.1-.2-.14-.11-.29-.22-.46-.32-.23-.14-.46-.26-.69-.39-.14,2.08-14.16-.67-19.56,8.44-3.32,5.6,6.37,11.09,14.31,17.77-5.31-6.11-16.05-11.53-11.39-19.39Z"></path> <path class="cls-35" d="m336.97,85.74c1.99-3.35,7.82-4.75,12.7-1.85,1.84,1.09,2.25,1.58,2.48,2.04.24-.74.44-1.45.57-2.12-.48-.39-1.03-.81-1.17-.9-3.51-2.08-13.37-1.09-15.37,2.27-4.86,8.2,8.52,16.39,14.03,24.28,1.05,1.21,1.96,2.47,2.66,3.77,1.19,2.22,2.28,4.53,3.29,6.9-1.52-14.36-24.38-25.63-19.18-34.39Z"></path> <path class="cls-21" d="m350.42,106.71c-4.71-6.8-.19-14.87,1.72-20.78-.23-.46-.64-.95-2.48-2.04-4.88-2.89-10.71-1.5-12.7,1.85-5.19,8.76,17.66,20.03,19.18,34.39.33.77.64,1.55.95,2.33,2.09-7.06-5.91-14.62-6.69-15.75Zm-3.66-4.19c-3.57-5.08-12.3-10-8.85-15.82,2.86-4.83,8.37-3.71,11.21-2.03,1.2.71,1.9,1.25,2.07,1.93,0,.02-4.76,10.22-2.78,17.97-.38-.8-1.14-1.33-1.65-2.05Z"></path> <path class="cls-32" d="m351.19,86.61c-.17-.68-.87-1.22-2.07-1.93-2.84-1.69-8.35-2.8-11.21,2.03-3.45,5.82,5.28,10.73,8.85,15.82.51.72,1.26,1.25,1.65,2.05-1.98-7.75,2.79-17.95,2.78-17.97Zm-7.51,9.99c-5.56-3.3-5.8-7.3-4.49-9.5,1.89-3.19,6.18-3.9,8.85-2.32,3.63,2.15-.51,10.64-1.63,12.78-.69.28-1.73-.37-2.72-.96Z"></path> <path class="cls-19" d="m346.41,85.5c-1.41-.26-4.65-.16-5.96,2.05-1.12,1.88-.62,2.81.19,3.29.42.25,5.39,1.91,7.28-1.27.94-1.58-.05-3.18-1.51-4.06Z"></path> <path class="cls-8" d="m348.03,84.77c-2.67-1.58-6.95-.87-8.85,2.32-1.3,2.2-1.06,6.2,4.49,9.5.99.59,2.03,1.24,2.72.96,1.13-2.13,5.26-10.63,1.63-12.78Zm-7.38,6.06c-.81-.48-1.31-1.4-.19-3.29,1.31-2.2,4.55-2.31,5.96-2.05,1.46.88,2.45,2.48,1.51,4.06-1.89,3.18-6.85,1.53-7.28,1.27Z"></path> <path class="cls-12" d="m396.3,221.49c8.69,5.15,14.1,12.13,14.1,12.13,6.13,3.63,13.03,1.98,19.75-.31,2.67-2.36,4.94-4.79,6.71-7.15-8.05,6.55-17.47,10.27-26.04,5.19-6.8-4.03-5.31-6.71-11.76-10.54-2.81-1.67-12.07-5.56-17.95-9.04-11.74-6.96-10.16-13.33-15.6-23.46-.1,1.57-.23,3.12-.37,4.65,4.07,4.55,1.9,13.3,13.2,20,3.54,2.1,10.05,3.85,17.97,8.54Z"></path> <path class="cls-31" d="m384.12,220.06c-3.92-2.19-5.86-2.83-7.98-3.72-1.66-.7-2.84-1.22-7.68-3.05-2.36-.89-3.85-1.5-5.63-3.97-.42,2.15-.87,4.23-1.35,6.2,8.85-.35,17.69,2.18,25.46,6.79,11.07,6.56,17.87,14.87,20.85,23.76,1.26-.4,2.51-.84,3.74-1.33-1.89-3.25-3.85-7.77-14.44-17.28-2.98-2.68-9.62-5.54-12.98-7.41Z"></path> <path class="cls-41" d="m395.63,224.66c-.6-.35-14.52-6.62-16.78-7.96-9.89-5.86-7.97-11.15-14.67-15.54-.39,2.83-.85,5.57-1.35,8.17,1.78,2.47,3.28,3.07,5.63,3.97,4.83,1.83,6.02,2.35,7.68,3.05,2.12.89,4.05,1.53,7.98,3.72,3.35,1.87,9.99,4.73,12.98,7.41,10.59,9.51,12.55,14.03,14.44,17.28,1.58-.62,3.12-1.32,4.63-2.07-.86-.31-1.66-.66-2.37-1.09-8.73-5.17-10.36-12.32-18.16-16.94Z"></path> <path class="cls-44" d="m398.39,224.06c-10.31-6.11-9.51-2.81-18.01-7.86-12.33-7.31-12.15-15.22-15.75-18.54-.14,1.18-.29,2.35-.45,3.5,6.71,4.39,4.79,9.68,14.67,15.54,2.26,1.34,16.18,7.61,16.78,7.96,7.79,4.62,9.43,11.76,18.16,16.94.71.42,1.51.78,2.37,1.09,3.86-1.92,7.47-4.2,10.67-6.66-6.08.57-11.13,2.48-14.62.41-3.5-2.08-11.67-11.1-13.82-12.37Z"></path> <path class="cls-34" d="m410.39,233.61s-5.41-6.97-14.1-12.13c-7.91-4.69-14.42-6.44-17.97-8.54-11.31-6.71-9.14-15.45-13.2-20-.15,1.59-.31,3.17-.5,4.71,3.59,3.32,3.42,11.23,15.75,18.54,8.51,5.05,7.71,1.75,18.01,7.86,2.15,1.27,10.32,10.3,13.82,12.37,3.49,2.07,8.54.16,14.62-.41,1.16-.89,2.26-1.8,3.31-2.72-6.71,2.29-13.62,3.95-19.75.31Z"></path> <path class="cls-18" d="m442.75,205.29c-.12-.2-.27-.37-.44-.47-2.07-1.23-6.72,3.66-8.07,5.94-2.38,4.02-1.32,7.82-3.54,11.57-1.19,2.01-2.55,3.18-4.55,2-5.31-3.15,1.78-12.55-5.24-16.72-3.65-2.16-14.31,6.21-24.97-.11-8.68-5.15-7.64-14.37-21.02-22.3-2.38-1.41-5.92-3.29-9.07-4.02-.06,1.98-.15,3.93-.27,5.86-.03.42-.04.84-.07,1.25,1.66,3.1,2.67,5.84,3.61,8.36-.95-3.4-1.31-7.26-1.64-11.86,2.31-1.56,5.19-.07,8.32,1.79,10.59,6.28,8.09,14.72,17.79,20.47.52.31,8.22,3.74,11.61,4.5,3,.68,11.82-5.31,15.98-2.88,5.41,3.16-.58,13.46,3.51,15.89,2.5,1.48,4.5.86,5.95-1.59,1.61-2.71,2.37-7.9,4.16-11.71.89-1.89,5.73-7.06,7.46-6.03,1.18.7.23,10.56-3.47,16.8-6.96,11.73-20.42,12.76-26.06,9.41-10.88-6.45-5.8-7.36-12.94-11.59-4.39-2.6-8.37-3.91-9.81-4.39-1.57-.52-4.5-1.68-7.88-3.69-5.53-3.28-8.85-6.47-10.92-10.07,1.75,3.53,4.31,6.72,9.92,10.05s15.14,7.38,17.95,9.04c6.45,3.82,4.97,6.51,11.76,10.54,8.57,5.08,17.99,1.36,26.04-5.19.7-.93,1.32-1.85,1.85-2.74,3.69-6.23,5.55-15.66,4.05-18.12Z"></path> <path class="cls-35" d="m442.25,205.23c-1.73-1.03-6.57,4.14-7.46,6.03-1.79,3.81-2.55,9-4.16,11.71-1.45,2.45-3.45,3.07-5.95,1.59-4.09-2.43,1.89-12.73-3.51-15.89-4.16-2.43-12.98,3.56-15.98,2.88-3.39-.77-11.09-4.19-11.61-4.5-9.7-5.75-7.2-14.19-17.79-20.47-3.13-1.85-6.01-3.35-8.32-1.79.32,4.61.69,8.46,1.64,11.86.66,1.78,1.29,3.45,2.08,5.05,2.07,3.61,5.39,6.79,10.92,10.07,3.38,2.01,6.31,3.17,7.88,3.69,1.44.48,5.42,1.79,9.81,4.39,7.13,4.23,2.06,5.14,12.94,11.59,5.64,3.35,19.1,2.32,26.06-9.41,3.7-6.23,4.65-16.1,3.47-16.8Zm-58.17,6.46c-16.43-9.75-15.15-23.94-14.58-24.9.07-.12.22-.19.29-.31.25-.42.74-.6,1.22-.61,2.13-.05,2.6.16,4.08,1.04,9.68,5.74,5.9,14.24,19.25,22.16.67.4,1.35.75,2.01,1.14,1.13.67,2.01,1.52,1.33,2.68-2.37,3.99-9.49,1.23-13.59-1.2Zm28.2,15.64c-3.87-2.3-8.89-8.31-6.47-12.38,1.01-1.7,3.29-2.49,6.57-3.9,2.47-1.64,5.27-3.33,6.85-2.39,5.9,3.5-3.43,11.77,4.38,16.4.16.1.37.21.41.23.15.09.29.19.44.28,1.5.89,5.48.74,8.58-4.48,1.68-2.83.98-4.81,4.28-10.37.87-1.46,2.53-4.25,3.45-3.71.14.08.26.2.39.29,2.45,1.45-2.13,9.46-3.61,11.96-5.82,9.81-14.97,14.18-25.27,8.07Z"></path> <path class="cls-13" d="m423.67,226.17c-.47-.28-.99-.5-1.48-.79-1.9-1.13-2.71-5.43-2.77-6.05-.32-3.66,1.14-7.46-.79-8.61-2.22-1.32-4.02.89-7.59,2.47-.62.54-1.17,1.14-1.54,1.75-3.04,5.12,5.74,11.41,6.4,11.8,4.84,2.87,8.21,2.26,8.82,1.22.46-.78-.35-1.39-1.06-1.81Z"></path> <path class="cls-21" d="m441.17,207.31c-.14-.08-.25-.2-.39-.29-.92-.54-2.59,2.25-3.45,3.71-3.3,5.56-2.6,7.54-4.28,10.37-3.1,5.22-7.08,5.37-8.58,4.48-.15-.09-.29-.19-.44-.28-.05-.03-.25-.14-.41-.23-7.81-4.63,1.52-12.9-4.38-16.4-1.58-.94-4.38.74-6.85,2.39-3.28,1.4-5.56,2.19-6.57,3.9-2.41,4.07,2.6,10.09,6.47,12.38,10.3,6.11,19.45,1.75,25.27-8.07,1.48-2.5,6.05-10.51,3.61-11.96Zm-25.26,19.45c-.66-.39-9.43-6.68-6.4-11.8.36-.62.91-1.21,1.54-1.75,3.57-1.59,5.36-3.79,7.59-2.47,1.93,1.14.47,4.94.79,8.61.05.62.87,4.93,2.77,6.05.48.29,1,.51,1.48.79.71.42,1.52,1.02,1.06,1.81-.61,1.03-3.98,1.65-8.82-1.22Z"></path> <path class="cls-13" d="m386.4,204.04c-6.17-4.68-3.63-11.39-10.84-15.67-.28-.17-1.63-.75-2.66-1.09-.58.38-1.17,1.01-1.49,1.55-2.95,4.98,4.8,14.91,10.83,18.49,1.82,1.08,5.51,2.97,6.63,1.06.8-1.35-.23-2.64-2.47-4.34Z"></path> <path class="cls-21" d="m396.35,210.21c-.66-.39-1.34-.74-2.01-1.14-13.35-7.92-9.57-16.42-19.25-22.16-1.48-.88-1.95-1.09-4.08-1.04-.48.01-.97.19-1.22.61-.07.12-.22.18-.29.31-.57.96-1.85,15.16,14.58,24.9,4.1,2.43,11.23,5.19,13.59,1.2.69-1.16-.19-2.01-1.33-2.68Zm-14.12-2.89c-6.03-3.58-13.79-13.5-10.83-18.49.32-.54.91-1.17,1.49-1.55,1.03.34,2.38.92,2.66,1.09,7.22,4.28,4.68,10.99,10.84,15.67,2.24,1.7,3.27,2.98,2.47,4.34-1.13,1.9-4.81.02-6.63-1.06Z"></path> <path class="cls-35" d="m294.47,68.49c2.48,1.47,4.34,2.15,6.4,3.38.9.54.87.58,1.84,1.16.26.16.53.31.79.46.23-.07.46-.14.68-.21-.99-.47-1.95-.97-2.86-1.51-12.34-7.32-12.31-20.97-6.23-31.23.57-.96,1.29-1.77,2.11-2.46-.76.23-1.51.5-2.25.78-.31.5-.64,1.04-1,1.64-5.6,9.44-9.04,22.32.52,27.99Z"></path> <path class="cls-16" d="m282.7,46.5c-.62.58-1.21,1.18-1.79,1.81,2.29,5.81,3.56,28.62,7.49,30.95,0,0,.11.02.3.05,1.58-.75,3.15-1.45,4.71-2.11-.74-.11-1.49-.34-2.18-.75-8.36-4.96-6.51-24.24-8.52-29.95Z"></path> <path class="cls-31" d="m280.91,48.31c-.59.63-1.16,1.28-1.71,1.96,3.81,10.8,5.49,22.57,6.19,30.67,1.11-.57,2.21-1.11,3.31-1.63-.19-.04-.3-.05-.3-.05-3.92-2.33-5.19-25.14-7.49-30.95Z"></path> <path class="cls-18" d="m302.71,73.03c-.98-.58-.94-.62-1.84-1.16-2.06-1.22-3.92-1.91-6.4-3.38-9.56-5.67-6.12-18.54-.52-27.99.36-.6.69-1.15,1-1.64-2.16.82-4.25,1.84-6.25,3.06.53,8.33-6.81,21.81,7.29,30.16,2.68,1.59,3.87,1.75,5.25,2.15.76-.26,1.52-.5,2.27-.74-.26-.15-.53-.31-.79-.46Z"></path> <path class="cls-29" d="m288.7,41.92c-1.57.96-3.07,2.05-4.5,3.25,6.21,6.48-1.86,22.87,8.28,28.89,2.52,1.5,4.54-.41,7.74.52.34-.12.67-.23,1.01-.34-1.37-.4-2.57-.56-5.25-2.15-14.09-8.36-6.75-21.83-7.29-30.16Z"></path> <path class="cls-34" d="m284.21,45.17c-.51.43-1.02.88-1.51,1.34,2.01,5.71.16,24.99,8.52,29.95.69.41,1.44.64,2.18.75,2.31-.98,4.58-1.85,6.82-2.63-3.2-.93-5.22.98-7.74-.52-10.14-6.01-2.06-22.41-8.28-28.89Z"></path> <path class="cls-21" d="m329.51,45.73c.61.36,1.53,1.17,2.68,2.36-2.04-2.86-4.69-5.19-7.73-6.99-8.45-5.01-18.32-5.75-27.27-3.01-.82.69-1.53,1.5-2.11,2.46-6.08,10.25-6.11,23.91,6.23,31.23.92.54,1.87,1.04,2.86,1.51,2.32-.71,4.59-1.31,6.8-1.82-2.23-8.59-4.44-20.55-1.25-25.92,3.61-6.09,13.18-3.74,19.79.18Zm-21.74.13c-1.29,2.17-1.62,4.33-1.37,6.87.11,1.13.48,2.07.77,3.31.62,4.8,2.33,12.13,1.6,13.37-.92,1.55-4.22,2.33-7.38.46-5.55-3.29-12.99-15.05-5.77-27.24,5.07-8.55,22.23-3.46,22.66-3.21.18.11.66.44.55.62-.14.24-.61.62-1.2.83-3.66,1.3-6.64-.44-9.86,4.99Z"></path> <path class="cls-13" d="m307.17,56.04c-.3-1.24-.67-2.18-.77-3.31-.24-2.54.08-4.69,1.37-6.87,3.22-5.43,6.2-3.69,9.86-4.99.59-.21,1.06-.59,1.2-.83.11-.19-.36-.51-.55-.62-.42-.25-17.59-5.33-22.66,3.21-7.23,12.19.22,23.95,5.77,27.24,3.15,1.87,6.46,1.09,7.38-.46.73-1.23-.98-8.57-1.6-13.37Zm-4.34,12.77c-5.82-3.45-8.79-14.77-3.63-23.47.92-1.56,7.81-5.89,9.86-4.67.19.11.4.19.59.29-1.13.6-2.42,1.64-3.33,3.17-5.52,9.3,4.54,18.99,1.23,24.57-.6,1.01-2.11,1.67-4.73.11Z"></path> <path class="cls-36" d="m306.33,44.13c.91-1.53,2.2-2.57,3.33-3.17-.19-.09-.41-.18-.59-.29-2.05-1.22-8.93,3.11-9.86,4.67-5.16,8.7-2.19,20.02,3.63,23.47,2.62,1.55,4.13.9,4.73-.11,3.31-5.58-6.75-15.27-1.23-24.57Zm-2.72,22.7c-2.9-1.72-4.17-10.99-2.03-16.68.24,0,.52.09.86.29.42.25.73.64.73,1.04.02,9.97,5.06,12.24,3.33,15.15-.63,1.05-1.84.82-2.89.2Z"></path> <path class="cls-39" d="m303.17,51.48c0-.4-.31-.79-.73-1.04-.34-.2-.62-.28-.86-.29-2.15,5.68-.88,14.96,2.03,16.68,1.05.62,2.27.86,2.89-.2,1.73-2.91-3.31-5.17-3.33-15.15Z"></path> <path class="cls-16" d="m128.11,122.65c-.91-4.98-1.42-9.88-1.66-14.71-.35-.56-.71-1.13-1.08-1.71.72,12.3,5.37,27.81,1.65,30.99-.36.31-.97.28-1.72.03,4.49,7.53,8.87,14.22,13.04,20.23.12-.25.21-.53.25-.79.55-3.88-10.34-20.18-10.48-34.04Z"></path> <path class="cls-35" d="m123.18,117.75c3.37-5.68-2.62-15.53-3.34-19.67-.86-1.22-1.74-2.43-2.61-3.63,2.22,8.8,8.14,16,5.19,20.99-1.48,2.5-5.08,2.29-8.47,1.23.39.76.78,1.51,1.16,2.25,3.2.55,6.95.71,8.07-1.17Z"></path> <path class="cls-18" d="m124.26,120.91c2.59-4.36-.29-12.93-2.14-19.57-.74-1.09-1.51-2.18-2.28-3.27.72,4.15,6.7,14,3.34,19.67-1.11,1.88-4.86,1.72-8.07,1.17.2.4.41.8.61,1.19,1.62.61,3.21,1.3,4.78,2.11,1.66.86,2.53.74,3.75-1.31Z"></path> <path class="cls-40" d="m126.74,129.28c1.85-3.11-1.93-18.26-2.53-24.81-.68-1.04-1.38-2.08-2.09-3.13,1.85,6.63,4.72,15.2,2.14,19.57-1.21,2.04-2.08,2.16-3.75,1.31-1.57-.81-3.17-1.49-4.78-2.11,2.13,4.07,4.25,7.94,6.35,11.61,1.62.48,3.32-.17,4.67-2.44Z"></path> <path class="cls-34" d="m128.37,129.97c-.42-6.44-2.53-15.76-3-23.73-.37-.58-.76-1.17-1.15-1.76.6,6.55,4.38,21.7,2.53,24.81-1.35,2.27-3.05,2.93-4.67,2.44,1.08,1.89,2.15,3.73,3.22,5.53.75.25,1.36.28,1.72-.03,1.31-1.12,1.58-3.76,1.35-7.25Z"></path> <path class="cls-3" d="m146.31,165.2c-10.47-15.12-15.76-29.15-18.2-42.55.14,13.86,11.03,30.16,10.48,34.04-.04.26-.13.54-.25.79,3.04,4.38,5.98,8.4,8.77,12.11-.29-1.43-.56-2.9-.8-4.4Z"></path> <path class="cls-21" d="m117.23,94.45c-1.67-2.27-3.34-4.48-4.97-6.55,4.17,9.05,11.62,19.86,8.19,26.63-.82,1.62-3.32,2.04-4.66.81-2.8-2.56-6.85-10.01-6.85-10.01h0c1.4,3.39,2.76,6.88,4.43,10.17.2.39.4.78.59,1.17,3.38,1.06,6.98,1.27,8.47-1.23,2.95-4.98-2.97-12.19-5.19-20.99Z"></path> <path class="cls-13" d="m112.26,87.9c-5.39-6.86-10.22-12.24-12.32-13.48-3.51-2.08-5.94-2.96-8.16.79-2.2,3.71-.93,12.45,4.41,18.33-.86-3.06-1.32-4.81-1.29-4.86.35-.58,1.03-1.08,1.81-.62,6.28,3.72,9.35,10.3,12.23,17.27h0s4.05,7.46,6.85,10.01c1.34,1.23,3.84.81,4.66-.81,3.43-6.77-4.01-17.58-8.19-26.63Zm4.41,25.92c-3.24-1.92-6.51-7.04-7.23-9h0s-.11-.1-.11-.1c.04.03.07.06.11.09-1.76-4.48-5.28-12.19-11.13-16.38-.72-.51-2.41-1.68-3.18-2.12-2.37-1.37-6.1-3.98-2.56-11.22,2-4.09,7.46-.31,9.1,1.1,10.28,8.85,21.23,31.51,18.03,36.92-.86,1.46-1.81,1.43-3.02.71Z"></path> <polygon class="cls-13" points="109.43 104.81 109.44 104.82 109.44 104.82 109.43 104.82 109.43 104.81"></polygon> <path class="cls-13" d="m109.32,104.73l.11.1s0,0,0,0c-.04-.03-.07-.06-.11-.09Z"></path> <path class="cls-36" d="m101.66,76.19c-1.64-1.41-7.11-5.2-9.1-1.1-3.53,7.24.19,9.85,2.56,11.22.77.44,2.47,1.61,3.18,2.12,5.85,4.2,9.37,11.91,11.13,16.38h0s0,0,0,0c.72,1.96,3.99,7.07,7.23,9,1.21.72,2.16.74,3.02-.71,3.21-5.41-7.75-28.07-18.03-36.92Zm12.66,32.97c-2.95-1.75-4.61-9.55-5.72-12.26-4.73-11.44-19.21-11.89-14.58-19.69.53-.9,1.5-1.5,2.51-1.83.76.19,1.51.54,2.22.96,9.94,5.89,19.52,29.76,17.8,32.65-.53.89-1.48.61-2.22.17Z"></path> <path class="cls-11" d="m100,78.76c-1.48-.88-2.71-1.64-4.19-1.33-1.4,2.36,1.44,6.04,3.77,7.42.07.04.15.09.22.13,2.99,1.78,3.59,4.93,5.63,6.14,1.05.62,2.26.36,2.56-.15.6-1.01-.28-7.63-7.99-12.2Z"></path> <path class="cls-39" d="m98.74,76.34c-.71-.42-1.46-.76-2.22-.96-1,.34-1.97.93-2.51,1.83-4.63,7.8,9.85,8.24,14.58,19.69,1.12,2.71,2.78,10.51,5.72,12.26.74.44,1.69.72,2.22-.17,1.72-2.9-7.87-26.76-17.8-32.65Zm6.68,14.77c-2.04-1.21-2.63-4.36-5.63-6.14-.07-.04-.15-.09-.22-.13-2.33-1.38-5.17-5.06-3.77-7.42,1.48-.3,2.71.46,4.19,1.33,7.71,4.57,8.59,11.19,7.99,12.2-.31.52-1.51.78-2.56.15Z"></path> <path class="cls-34" d="m172.68,214.61c-4.47,2.75-9.74,2.93-15.55-.52-28.53-16.92-44.6-90.4-60.55-119.17.23.8.48,1.66.75,2.6,1.46,5.02,3.51,11.89,6.01,19.88,22.28,46.02,31.85,88.96,53.49,101.79,6.03,3.57,11.26,4.35,16.31,3.05.05-.17.08-.34.13-.51.03-2.41-.17-4.79-.57-7.12Z"></path> <path class="cls-36" d="m173.26,221.72c.7-2.78.94-5.43.75-8.02-.43.33-.88.62-1.33.9.4,2.33.61,4.71.57,7.12Z"></path> <path class="cls-29" d="m172.68,214.61c-3.55-20.54-22.6-37.97-31.18-52.64-8.65-12.06-18.33-27.02-28.15-46.47-5.08-10.05-7.32-21.9-16.65-27.44-.77-.46-1.46.03-1.81.62-.03.05.42,1.8,1.29,4.86.12.43.25.9.39,1.38,15.96,28.77,32.03,102.25,60.55,119.17,5.82,3.45,11.08,3.27,15.55.52Zm-47.69-59.63c-7.13-18.02-27.78-61.85-28.6-63.29-.33-.64-.61-1.71-.12-2.53.51-.87,2.9,1.97,3.74,2.47,4.54,2.69,4.9,10.29,9.67,17.05.85,1.2.69,2.7,1.26,3.99,15.01,34.04,62.1,89.97,57.88,97.09-2.16,3.64-11.7-1.25-14.25-2.76-16.96-10.06-22.12-33.14-29.58-52.02Z"></path> <path class="cls-36" d="m172.68,214.61c.45-.28.89-.57,1.33-.9-.56-7.75-4.86-15.01-11.61-24.12-4.25-5.74-9.45-12.21-15.3-19.99-1.81-2.41-3.68-4.95-5.6-7.63,8.58,14.67,27.63,32.11,31.18,52.64Z"></path> <path class="cls-35" d="m251.35,258.22c-9.57-2.92-19.09-6.74-22.79-8.93-5.01-2.97-13.16-1.79-21.91-6.98-22.2-13.17-6.7-39.31-37.63-67.42-17.48-15.89-18.26-46.23-6.12-71.6-1.65.79-3.17,1.82-4.55,3.13-1.32,2.25-2.25,4.88-3.07,7.56-.01.04-.03.09-.04.13-2.44,22.05-6.21,45.96,8.91,63.02,34.42,38.85,20.55,55.49,40.75,67.47,8.4,4.98,12.97,2.33,17.5,4.3,5.09,2.22,29.02,14.11,48.23,13.49,4.62-1.34,8.45-3.58,11.93-6.52-9.25,4.61-19.44,5.93-31.22,2.34Z"></path> <path class="cls-11" d="m164.1,100.91c-2.25,1.14-4.18,2.89-5.68,5.41-.02.03-.04.06-.05.1,1.37-1.31,2.9-2.34,4.55-3.13.38-.8.78-1.59,1.19-2.38Z"></path> <path class="cls-11" d="m199.25,108.97c7.56,4.12,12.63,9.27,15.89,13.7-2.94-4.72-6.55-8.96-11.09-11.66-3.53-2.09-7.49-4.27-11.59-6.17-10.04-4.66-20.92-7.7-28.36-3.93-.41.79-.8,1.58-1.19,2.38,10.34-4.94,25.41-.27,36.33,5.68Z"></path> <path class="cls-21" d="m285.91,234.17c-5.67-19.23-20.85-52.27-57.78-83.93-1.21-1.04-2.48-4.15-4.07-8.25-2.15-5.54-4.91-12.88-8.92-19.32-3.26-4.43-8.33-9.58-15.89-13.7-10.92-5.95-26-10.62-36.33-5.68-12.14,25.37-11.37,55.71,6.12,71.6,30.93,28.11,15.42,54.25,37.63,67.42,8.75,5.19,16.9,4.01,21.91,6.98,3.7,2.19,13.21,6.01,22.79,8.93,11.78,3.59,21.97,2.27,31.22-2.34,2.22-1.87,4.3-4.03,6.36-6.42-.05-2.4-.81-7.79-3.02-15.28Zm-76.11,4.41c-15.49-9.18-10.66-28.1-26.3-56.45-6.28-11.39-41.75-33.33-19.68-70.53,9.15-15.42,20.14-10.5,41.84,2.37,4.95,2.93,9.61,7.56,11.23,13.61,5.3,19.86,8.29,23.01,7.29,24.71-.07.11-.15.21-.25.3,2.44-.29,4.62.34,6.65,1.54,12.3,7.29,65.91,76.65,53.35,97.81-9.04,15.25-71.5-11.8-74.12-13.35Z"></path> <path class="cls-26" d="m374.56,284.54c10.98.41,21.26-1.11,28.83-6.03.06-.1.13-.2.19-.3.46-.77.9-1.55,1.33-2.34-.3.22-.6.42-.9.63-13.53,9.18-32.98,7.87-61.53,2.77,4.78,1.26,9.83,2.42,14.94,3.33,6.91.85,12.86,1.5,17.13,1.94Z"></path> <path class="cls-29" d="m374.56,284.54c4.37.45,7,.69,7.12.71,8.21.97,22.09-7.12,16.94-3.13-42.02,32.55-90.34,14.87-122.61,3.15-11.04-4.01-24.24,4.44-42.94-7.43-5.93-3.77-22-.54-30.53-5.6-.3-.18-.59-.37-.87-.58-.26-.19-3.58-1.93-3.33-2.36,15.55.31,23.03-4.91,36.3,5.35,13.5,10.44,29.94-6.73,48.44-4.5,1.19.14,7.56.5,8.32.71,19.01,5.35,46.4,9.33,66.02,11.73-5.12-.91-10.16-2.07-14.94-3.33-12.72-2.27-27.24-5.3-43.86-8.48-41.56-7.96-46.93,13.06-62.26,3.97-2.43-1.44-4.82-3.23-7.34-4.73-11.75-6.97-21.32,1.93-35.55-3.77-.08-.03-.16-.07-.24-.1,1.69,2.2,3.62,4.46,5.24,5.42,10.94,6.49,23.18,4.07,29.77,5.33,1.54.29,3.55.45,9.48,4.06,16.34,9.95,25.83-.33,41.22,6.43,53.68,23.58,65.83,12.26,81.04,13.99,19.49-3.02,35.53-9.91,43.41-22.88-7.57,4.92-17.85,6.44-28.83,6.03Z"></path> <path class="cls-2" d="m219.68,116.64c7.92,4.7,10.85,2.33,12.92-1.16.2-.34.4-.69.6-1.03.31-.53.59-.95.73-1.17,1.89-3.19,3.55-9.7,5.34-15.79,0-2.08-.05-4.17-.12-6.24-.33,4.27-1.6,9.25-5.49,15.81-5.37,9.06-9.75,6.65-14.6,3.77-22.24-13.19-22.46-31.84-14.26-65.52-.59,1.12-1.15,2.22-1.67,3.29-.1,8.54-15.07,49.29,16.55,68.05Z"></path> <path class="cls-18" d="m239.11,106.67c.12-3.02.18-6.09.17-9.17-1.8,6.08-3.45,12.59-5.34,15.79-.13.22-.41.65-.73,1.17-.2.34-.4.69-.6,1.03-2.07,3.49-5,5.86-12.92,1.16-31.62-18.75-16.66-59.51-16.55-68.05-1.91,3.95-3.33,7.61-4.4,11.06.25,12.9-3.76,36.72,7.29,47.81,12.02,12.07,18,18.96,18,18.96,2.74,1.62,7.92-1.56,9.72-4.6,2.48-4.18,2.3-8.26,5.37-15.16Z"></path> <path class="cls-35" d="m219.06,110.82c4.85,2.88,9.23,5.29,14.6-3.77,3.89-6.56,5.17-11.54,5.49-15.81-.05-1.38-.11-2.75-.19-4.12-1.47,5.85-2.4,11.51-5.12,16.1-3.72,6.28-11.43,8.5-18.08,4.56-14.89-8.83-18.84-48.56-6.05-70.96-.75,1.22-1.51,2.5-2.31,3.84-.94,1.59-1.8,3.13-2.6,4.63-8.2,33.68-7.98,52.33,14.26,65.52Z"></path> <path class="cls-4" d="m219.31,41.63s2.83.75,5.06,1.87c5.28,2.66,9.59,12.27,12.25,23.91-2.32-11.86-6.24-21.24-12.08-24.7-1.5-.89-3.22-1.47-5.21-1.66,1.23-2.77,0-4.74-.59-7.38-.18,4.01.32,7.82.57,7.97Z"></path> <path class="cls-21" d="m215.77,107.79c6.64,3.94,14.35,1.72,18.08-4.56,2.72-4.59,3.65-10.24,5.12-16.1-.39-6.92-1.16-13.64-2.35-19.72-2.66-11.64-6.97-21.25-12.25-23.91-2.23-1.12-5.06-1.87-5.06-1.87-.25-.15-.75-3.96-.57-7.97-.51-2.3-.53-5.1,2.01-9.38,1.25-2.11,3.11-4.06,5.18-5.19-4.06.66-8.12,5.13-13.38,13.22-.91,1.4-1.85,2.9-2.83,4.51-12.79,22.4-8.84,62.13,6.05,70.96Zm-1.1-75.87c.53-.89.93-1.57,1.91-2.39.09.05.45.22.51.31,2.11,3.36-1.25,10.33,2.31,12.43,1.73,1.03,3.56,1.24,6.99,3.37,10.77,6.7,12.82,44.45,8.78,51.26-5.65,9.53-10.87,10.5-17.92,6.33-14.88-8.82-15-50.38-5.31-66.72.88-1.48,1.35-2.27,2.72-4.59Z"></path> </g> </g> </svg> 