<?xml version="1.0" encoding="UTF-8"?> <svg xmlns="http://www.w3.org/2000/svg" id="Layer_2" data-name="Layer 2" viewBox="0 0 483.97 458.44"> <defs> <style> .cls-1 { fill: #d8dae6; } .cls-2 { fill: #aba8d3; } .cls-3 { fill: #5477bb; } .cls-4 { fill: #c7c9e4; } .cls-5 { fill: #d0cfe8; } .cls-6 { fill: #dedfee; } .cls-7 { fill: #777dbc; } .cls-8 { fill: #a4a5d1; } .cls-9 { fill: #e8e9f4; } .cls-10 { fill: #e3e0f0; } .cls-11 { fill: #d4d2ea; } .cls-12 { fill: #bdbdde; } .cls-13 { fill: #9ba2d1; } .cls-14 { fill: #929ccf; } .cls-15 { fill: #7582bf; } .cls-16 { fill: #d1d4eb; } .cls-17 { fill: #7b80be; } .cls-18 { fill: #d9daed; } .cls-19 { fill: #b7b6da; } .cls-20 { fill: #bbd; } .cls-21 { fill: #787cba; } .cls-22 { fill: #d1d0e7; } .cls-23 { fill: #6c6fb3; } .cls-24 { fill: #939cce; } .cls-25 { fill: #ebebf0; } .cls-26 { fill: #b1b9de; } .cls-27 { fill: #ededf5; } .cls-28 { fill: #acabd5; } .cls-29 { fill: #425fab; } .cls-30 { fill: #8e92c7; } .cls-31 { fill: #979dce; } .cls-32 { fill: #626bb2; } .cls-33 { fill: #5164ae; } .cls-34 { fill: #d3cce6; } .cls-35 { fill: #dfe2ee; } .cls-36 { fill: #f3f6fb; } .cls-37 { fill: #c3c1e0; } .cls-38 { fill: #273d68; } .cls-39 { fill: #a2a2d0; } .cls-40 { fill: #9a99cb; } .cls-41 { fill: #e2e2eb; } .cls-42 { fill: #e1e2ec; } .cls-43 { fill: #dcd6eb; } .cls-44 { fill: #a1a2cf; } .cls-45 { fill: #9b9ecf; } .cls-46 { fill: #a7a8d4; } .cls-47 { fill: #817ebc; } .cls-48 { fill: #b9bdde; } .cls-49 { fill: #d2d1e9; } .cls-50 { fill: #9ca2d1; } .cls-51 { fill: #8995ca; } .cls-52 { fill: #c8c5e1; } .cls-53 { fill: #b1b4db; } .cls-54 { fill: #c3c1df; } .cls-55 { fill: #dcddef; } .cls-56 { fill: #a4a4d1; } .cls-57 { fill: #b3bcde; } .cls-58 { fill: #dfdaec; } .cls-59 { fill: #a3a3d1; } .cls-60 { fill: #f7f9fd; } .cls-61 { fill: #a7a7d3; } .cls-62 { fill: #d9d8ed; } .cls-63 { fill: #9797ca; } </style> </defs> <g id="clipping_mask" data-name="clipping mask"> <g> <path class="cls-31" d="m240.97,83.82c-9.01-5.82-23.95-9.97-31.69,2.01-4.71,7.29-6.28,18.47-7.72,27.96.86,10.6,3.51,20.99,5.42,28.19,1.88,1.17,3.77,2.35,5.68,3.56-.46-3.3-.81-6.59-.98-9.91-.02-.42-.04-.84-.05-1.26.18-.08.37-.16.55-.23-1.36-5.62-2.62-10.8-2.62-10.8-1.56-6.4-.33-12.75,2.88-17.71,7.53-11.66,22.65-11.17,29.04-7.05,1.23.8,2.47,1.95,3.51,3.44,2.24-1.36,4.64-2.69,7.18-3.97-1.08-4.84-4.28-9.75-11.2-14.22Zm-29.32,13.97c-.89,1.37-1.63,3.15-1.64,3.16-.61.94-2.24,1.42-2.95.96-.72-.47-.67-2.68,1.28-5.7.49-.76,1.02-1.51,1.52-2.24.44-1.12,1-2.2,1.66-3.23,6.64-10.28,18.04-10.17,27.3-4.19,1.28.83,3.52,3.27,2.37,5.06-2.64,4.09-21.56-6.2-29.54,6.17Z"></path> <path class="cls-22" d="m348.06,260.64c-.43-.28-.87-.54-1.3-.81-27.07-8.81-68.56-17.47-87.85-29.92-19.53-12.61-35.45-33.55-45.71-40.17-12.87-8.31-26.66-8.34-35.8-14.24-11.99-7.74-19.22-24.03-29.54-30.68-2.37-1.53-5-2.62-7.72-3.47.22,3.03.29,6.08.22,9.13,6.63,21.92.15,71.92,30.19,91.31,18.79,12.13,72.08,6.01,111.46,10.25,28.64,3.08,66.69,20.62,81.91,28.44-2.58-8.71-8.36-15-15.87-19.85Zm-108.72-17.2c-30.48-6.91-41.34-.79-54.73-9.43-18.57-11.99-21.5-40.3-25.91-53.68,5.42-1.26,11.08.12,15.84,3.19,6.03,3.89,14.75,15.6,25.46,22.51,13.2,8.52,19.15,4.37,24.79,8.01.42.27,1.24.84,2.08,1.39,4.04,2.61,8.54,4.83,12.6,7.45,5.75,3.71,13.48,10.46,9.76,16.21-1.94,3-6.1,5.21-9.91,4.35Z"></path> <path class="cls-63" d="m312.15,382.47c-2.85.99-5.7,2.12-8.54,3.45-15.54,7.26-44.81-2.65-61.19,7.92,3.47,4.64,5.83,9.09,7.38,13.25.45-1.52,1.07-2.88,1.85-4.09,9.69-15.01,33.8-6.17,60.5-20.52Z"></path> <path class="cls-27" d="m393.83,411.76c-17.88,1.55-31.81,8.89-43.61,22.04-8.43,9.4-21.29-4.15-33.24-2.2,12.59,7.68,33.5,15.08,42.41,1.26,1.82-2.82,1.78-4.16,3.49-6.8,11.94-18.5,40.74,4.84,51.21-11.37.55-.85.05-2.04-.39-2.69-3.9-5.82-6.99-10.85-9.42-15.26.18,3.88-.28,7.79-2,10.46-1.6,2.48-4.26,4.19-8.45,4.56Z"></path> <path class="cls-43" d="m292.1,409.35c-3.94-2.54-23.37,7.46-30.45,14.12-1.74,5.15-.72,10.96,4.16,14.11,4.45,2.88,8.37,3.05,11.77-2.21.22-.34,2.22-4.74,4.25-7.89,3.38-5.23,10.89-13.2,10.97-13.32,1.39-2.15.55-4-.7-4.81Z"></path> <path class="cls-58" d="m174.71,380.42c-7.9-5.1-17.08-8.75-26.03-4.88-1.65-.39-3.2-.4-3.85.6-.42.66-.72,2.61,1.77,4.22,3.77,2.43,31.68,11.78,34.85,6.86.87-1.35.92-1.85-6.75-6.8Z"></path> <path class="cls-36" d="m82.14,367.94c-1.71,2.64-1.27,7.65,2.81,10.28,7.19,4.64,19.88.63,31.26-5.02,1.23-.87,2.46-1.75,3.72-2.65,8.14-5.83,16.89-12.06,26.94-15.19-21.43.02-57.61,1.56-64.72,12.58Z"></path> <path class="cls-43" d="m151.8,348.68c15.28-5.88,28.73,1.73,40.96,9.63,1.93,1.25,3.84,2.5,5.71,3.71,1.42.92,2.53,2.06,3.92,2.96.03.02,2.51,1.44,4.48,2.72,9.33,6.02,52.71,39.79,33.61,69.38-.15.24-.31.47-.47.7,2.58.57,4.94.19,7.04-1.63.78-.67,1.52-1.52,2.22-2.61,2.97-4.6,7.4-20.64-6.87-39.7-.96-1.28-2-2.57-3.14-3.88-5.21-6-12.34-12.24-21.98-18.47-11.31-7.3-23.53-13.66-33.61-20.17-1.42-.91-3.11-2.05-3.14-2.07-21.3-13.75-29.24,8.16-67.26,1.82-7.98-1.33-17.28-3.91-28.32-8.32-9.61-3.84-17.32,2.05-23.03,10.23.91,2.35,1.97,4.74,3.15,7.09,1.89,3.75,4.1,7.41,6.61,10.69-.61-4.53-.03-9.1,2.23-12.58,10.72-16.61,34.66,7.14,77.87-9.49Z"></path> <path class="cls-27" d="m240.49,437.08c19.1-29.58-24.28-63.36-33.61-69.38-1.98-1.28-4.46-2.7-4.48-2.72-1.4-.9-2.5-2.05-3.92-2.96-1.87-1.21-3.78-2.47-5.71-3.71-12.23-7.89-25.68-15.51-40.96-9.63-43.22,16.63-67.15-7.12-77.87,9.49-2.25,3.49-2.83,8.05-2.23,12.58,2.9,3.81,6.19,7.11,9.82,9.45,11.95,7.72,22.74,1.43,34.68-6.99-11.38,5.65-24.07,9.66-31.26,5.02-4.08-2.63-4.51-7.64-2.81-10.28,7.12-11.02,43.29-12.56,64.72-12.58,7.74-2.41,16.25-2.99,25.85-.12,5.84.82,11.24,3,16.14,6.17,29.37,18.96,28.37,59.49,49.94,76.04.41.13.82.24,1.23.33.16-.23.31-.46.47-.7Zm-5.61-12.44c-11.47-7.4-5.55-27.3-14.46-39.85,0-.01.02-.03.03-.05.72-1.11,2.58-.6,3.63.08,1.99,1.29,3.21,3.85,4.44,6.59,9.04,9.59,17.82,23.02,11.24,33.2-.93,1.45-3.26,1.07-4.89.02Z"></path> <path class="cls-36" d="m228.53,391.42c-1.23-2.75-2.45-5.31-4.44-6.59-1.06-.68-2.92-1.19-3.63-.08-.01.02-.02.03-.03.05,8.9,12.55,2.99,32.45,14.46,39.85,1.63,1.05,3.96,1.43,4.89-.02,6.57-10.18-2.2-23.61-11.24-33.2Z"></path> <path class="cls-60" d="m172.71,355.24c5.11,1.53,10.52,4.04,16.3,7.76,12.95,8.36,18.41,23.22,23.57,37.6,4.91,13.68,9.54,26.93,20.11,33.75,2.14,1.38,4.18,2.47,6.11,3.09-21.57-16.55-20.57-57.08-49.94-76.04-4.9-3.17-10.3-5.34-16.14-6.17Z"></path> <path class="cls-43" d="m29.91,312.47c-7.49-4.84-15.89-8.23-24.51-9.7.93,1.22,2.01,2.42,3.23,3.6,16.37,15.75,44.98,45.47,49.01,49.66-2.21-13.66-4.3-28.43-27.73-43.56Z"></path> <path class="cls-27" d="m25.49,282.5c-16.81-10.85-15.88-25.39-5.42-41.59,4.05-6.27,8.96-12.4,12.78-18.33,5.2-8.05,5.51-10.25,2.07-18.09-7.71-1.58-15.66-.72-22.12,9.29-8.91,13.81-2.67,35.28-7.68,49.82-2.47,7.17-4.71,14.23-5.07,20.99,1.75,2.46,3.88,4.58,6.38,6.2,5.29,3.42,25.19,7.34,48.2,22.2,13.94,9,23.79,18.98,29.92,29.62.14.05.28.09.42.14,2.67,1.07,5.25,2.03,7.72,2.89-9.09-20.6-30.81-40.8-48.67-52.33-9.9-6.39-15.19-8.63-18.53-10.8Z"></path> <path class="cls-10" d="m37.08,258.93c-2.74-1.77-6.56-2.47-9.71-1.63-1.26.98-2.37,2.15-3.24,3.49-3.6,5.57-2.88,12.26,5.67,17.78,3.37,2.17,6.92,4.05,10.32,6.24,3.6,2.32,7.18,5.47,7.18,5.47,1.45.93,2.93.87,3.87-.59,1.74-2.7-10.1-28.2-14.09-30.77Z"></path> <path class="cls-10" d="m6.43,290.78c-2.51-1.62-4.63-3.74-6.38-6.2-.34,6.38.98,12.49,5.34,18.19,8.62,1.47,17.02,4.86,24.51,9.7,23.43,15.13,25.52,29.9,27.73,43.56.31.32.48.5.48.5.37.24.76.47,1.15.69,1.86,1.06,3.87,1.92,5.83,2.84-1.18-2.35-2.24-4.74-3.15-7.09,5.62-8.06,13.2-13.88,22.61-10.37-6.12-10.64-15.98-20.62-29.92-29.62-23.01-14.85-42.9-18.78-48.2-22.2Z"></path> <path class="cls-63" d="m180.55,349.25s1.72,1.16,3.14,2.07c10.01,6.46,22.13,12.78,33.37,20.02-5.88-7.99-12.83-15.17-20.63-20.21-28.07-18.12-65.38-4.6-87.29-18.75-14.64-9.45-23.86-27.39-31.03-44.37,2.7,11.48,7.88,24.19,17.11,38.7,6.22,5.59,12.04,11.55,18,15.41,11.09,7.16,20.77,6.16,31.28,7.84,14.19-3.65,22.36-9.55,36.06-.71Z"></path> <path class="cls-28" d="m196.42,351.13c7.81,5.04,14.75,12.21,20.63,20.21.08.05.16.1.24.15,9.64,6.22,16.76,12.46,21.98,18.47,1.41-1.07,2.98-2.05,4.67-2.97-4.97-14.7-17.25-27.14-31.59-36.39-38.89-25.11-67.95-14.73-91.95-30.22-20.56-13.28-19.64-45.65-44.55-63.73-.69,9.6-.47,19.87,2.24,31.38,7.18,16.98,16.39,34.91,31.03,44.37,21.92,14.15,59.22.63,87.29,18.75Z"></path> <path class="cls-7" d="m95.21,326.71c4.84,7.6,10.79,15.69,18.07,24.35,13.58,2.27,23.32.93,31.21-1.1-10.51-1.68-20.19-.68-31.28-7.84-5.97-3.85-11.78-9.82-18-15.41Z"></path> <path class="cls-7" d="m373.45,322.32c-2.01.86-4.06,1.63-6.15,2.3-24.01,32.88-75.07,57.5-102.78,39.61-.01,0-.02-.02-.04-.02,1.67,4.62,2.52,9.53,2.29,14.72,32.77-8.41,79.59-14.62,106.01-55.53.23-.35.45-.71.67-1.07Z"></path> <path class="cls-63" d="m367.31,324.62c-1.4.45-2.82.84-4.27,1.18-39.78,45.53-77.78,26.62-113.71,13.27,2.66,2.47,6.18,6.23,8.57,10.51,1.05,1.89,1.88,3.87,2.32,5.9,1.73,2.78,3.17,5.69,4.27,8.72.01,0,.02.02.04.02,27.71,17.89,78.77-6.73,102.78-39.61Z"></path> <path class="cls-5" d="m438.56,236.98c-.31-.2-.63-.39-.95-.58,4.87,6.63,1.55,14.88-.9,21.64-3.25,8.97-5.39,20.81,2.64,26,4.58,2.95,5.16,1.86,7.05-1.06,7.91-12.25,6.64-36.64-7.84-46Z"></path> <path class="cls-31" d="m236.78,334.29c4.47,2.89,10.03,7.07,13.78,11.9,1.39.52,2.74,1.13,4.09,1.79,2.06,2.39,3.94,4.89,5.57,7.5-.44-2.03-1.27-4.02-2.32-5.9-4.03-7.24-11.29-12.96-12.21-13.55,0,0-61.99-32.96-77.2-42.78-3.09-2-6.13-4.07-9.11-6.22-7.94-5.72-15.48-11.94-22.62-18.58-.22-.2-.43-.41-.65-.61,6.79,9.46,19.92,19.8,27.18,24.48,10.75,6.94,73.49,41.97,73.49,41.97Z"></path> <path class="cls-31" d="m123.78,255.46c-.89-.96-1.77-1.93-2.64-2.9-8.51-9.42-16.37-19.46-23.6-29.94,2.99,8.3,7.38,16.26,14.36,24.05,5.03,5.61,11.39,11.15,19.54,16.67-2.61-2.58-5.16-5.21-7.66-7.89Z"></path> <path class="cls-43" d="m149.01,297.27c-23.92-15.44-39.53-39.7-55.23-63.1-19-28.32-59.96-35.61-57.9-77.1-3.7,17.26-3.45,35.41,9.11,43.52,1.22.78,2.03,1.14,4.43,2.68,2.92,1.89,5.64,3.98,8.19,6.22,8.54,7.49,15.14,16.57,20.88,24.78,5.67,8.1,10.52,15.35,15.58,19.39,50.66,40.38,43.9,43.66,61.72,55.17,14.51,9.37,37.94,15.51,55.98,27.16.75.48,1.55,1.02,1.78,1.17,5.95,3.84,12.83,5.86,20.1,6.88-5.1-5.59-11.25-10.49-18-14.85-25.82-16.67-48.12-19.96-66.64-31.92Z"></path> <path class="cls-22" d="m250.56,346.19c-3.75-4.83-9.31-9.01-13.78-11.9,0,0-62.73-35.02-73.49-41.97-7.25-4.68-20.39-15.02-27.18-24.48-.75-.7-1.49-1.4-2.23-2.11-.82-.79-1.63-1.58-2.44-2.38-8.15-5.52-14.52-11.06-19.54-16.67-56.73-40.1-12.13-84.48-62.71-125.66-3.7,6.32-10.05,20.84-13.32,36.05-2.05,41.49,38.9,48.78,57.9,77.1,15.7,23.39,31.31,47.65,55.23,63.1,18.52,11.96,40.81,15.25,66.64,31.92,6.75,4.36,12.9,9.26,18,14.85,3.51.49,7.1.74,10.73.85,2.18.06,4.22.58,6.19,1.31ZM62.37,196.8c-10.81-6.98-25.36-36.04-11.13-58.81.12,1.64,1.12,3.09,2.06,4.06,20.4,21.01,16.38,47.86,11.86,54.86-.59.91-1.83.51-2.79-.11Z"></path> <path class="cls-18" d="m53.3,142.05c-.94-.97-1.95-2.43-2.06-4.06-14.23,22.77.32,51.83,11.13,58.81.96.62,2.21,1.02,2.79.11,4.51-6.99,8.54-33.84-11.86-54.86Z"></path> <path class="cls-22" d="m416.1,286.96c-11.81-2.87-25.02-2.19-36.51-.31-66.45,10.87-151.22-39.86-237.03-12.98,1.54,1.35,3.1,2.67,4.68,3.98.8.16,1.59.31,2.38.46,88.01-27.03,144.5,65.25,266.47,8.84Zm-66.43,6.42s.07.02.09.04c.22.14-.02.6-.27.99-.87,1.35-38.39,12.74-101.56-14.15,34.27,1.66,67.87,5.95,101.73,13.13Z"></path> <path class="cls-48" d="m430.88,284.18c-9.14-5.9-19.81-7.38-30.7-6.34-7.57.72-15.26,2.65-22.61,5.17-1.94.66-4.35,1.11-7.17,1.39-1.69.16-3.53.26-5.51.3-48.58.94-180.12-34-228.14-16.24,1.91,1.77,3.84,3.52,5.81,5.23,85.8-26.88,170.58,23.85,237.03,12.98,11.49-1.88,24.7-2.56,36.51.31,5.19,1.26,10.11,3.2,14.49,6.03.56.36,1.1.73,1.63,1.12.22-.24.42-.5.6-.78.96-1.49,2.41-6.33-1.95-9.15Z"></path> <path class="cls-43" d="m430.59,292.99c-4.38-2.83-9.3-4.77-14.49-6.03-121.97,56.41-178.46-35.87-266.47-8.84,150.47,29.56,126.38,52.53,262.43,23.18,9.2-3.8,16.8-3.4,20.17-7.2-.53-.38-1.08-.76-1.63-1.12Z"></path> <path class="cls-27" d="m149.63,278.12c-.79-.15-1.58-.31-2.38-.46.35.29.71.58,1.06.87,3.6,2.94,7.28,5.78,11.07,8.5,65.18,29.62,172.34,42.91,198.06,39.77,5.7-.7,10.97-2.32,16.01-4.48,12.38-5.3,23.44-13.87,36.46-20.07.72-.34,1.44-.66,2.14-.95-136.05,29.35-111.96,6.38-262.43-23.18Z"></path> <path class="cls-18" d="m349.5,294.4c.25-.39.49-.84.27-.99-.02-.02-.05-.03-.09-.04-33.86-7.19-67.47-11.47-101.73-13.13,63.17,26.9,100.69,15.5,101.56,14.15Z"></path> <path class="cls-55" d="m239.33,243.44c3.81.86,7.97-1.35,9.91-4.35,3.71-5.75-4.01-12.5-9.76-16.21-4.06-2.62-8.56-4.84-12.6-7.45-.84-.54-1.66-1.11-2.08-1.39-5.64-3.64-11.59.51-24.79-8.01-10.71-6.92-19.43-18.62-25.46-22.51-4.76-3.08-10.42-4.45-15.84-3.19,4.41,13.38,7.34,41.69,25.91,53.68,13.38,8.64,24.25,2.52,54.73,9.43Z"></path> <path class="cls-48" d="m164.31,253.74c32.13,20.74,116.03,2.68,197.29,30.95,1.13.01,2.24.01,3.3,0-.24-1.46-.57-2.86-.97-4.2-15.22-7.83-53.26-25.36-81.91-28.44-39.38-4.24-92.67,1.88-111.46-10.25-30.04-19.4-23.56-69.39-30.19-91.31-.2,8.42-1.47,16.87-3.68,25.08,13.21,31.71-1.71,59.25,27.62,78.18Z"></path> <path class="cls-31" d="m164.31,253.74c-29.33-18.94-14.41-46.47-27.62-78.18-1.42,5.27-3.22,10.45-5.38,15.45,2.23,9.03,4.49,18.32,5.99,27.58,9.66,17.88,6.79,35.82,12.67,39.62,5.69,3.67,12.38,4,18.17,5.3,57.91-1.8,151.45,20.72,193.46,21.18-81.26-28.27-165.16-10.21-197.29-30.95Z"></path> <path class="cls-15" d="m137.3,218.6c2.65,16.32,2.95,32.55-3.42,47.13.95.91,1.91,1.82,2.88,2.72,8.27-3.06,19.01-4.55,31.38-4.94-5.79-1.3-12.48-1.63-18.17-5.3-5.88-3.8-3.01-21.74-12.67-39.62Z"></path> <path class="cls-15" d="m153.95,106.83c-4.89,7.57-16.73,2.84-22.4,9.61,10.59-1.73,21.44-.17,32.71,3.69.19-12.99,5.14-25.26,12.58-36.78,6.96-10.79,13.53-19.75,19.74-27.17-11.02,6.67-22.38,17.32-32.63,33.2-5.23,8.1-10,17.46-10,17.46Z"></path> <path class="cls-31" d="m152.45,98.46c-6.64,10.29-21.39,10.17-29.37,22.54-10.23,15.84-1.57,45.15,8.45,70.9-.07-.29-.15-.59-.22-.88.61-1.41,1.19-2.84,1.74-4.28-1.11-9.61,1.88-23.39-4.1-53.53-1-5.07-.92-11.48,1.85-15.77.09-.14.19-.27.28-.4-.2-.14-.4-.29-.61-.43.36-.07.71-.12,1.07-.18,5.68-6.77,17.52-2.04,22.4-9.61,0,0,4.77-9.36,10-17.46,10.25-15.88,21.61-26.52,32.63-33.2,2.48-2.96,4.91-5.68,7.28-8.16-1.02-.93-2.08-1.83-3.16-2.72-12.34,5.81-25.85,16.26-38.58,35.97-4.79,7.42-9.63,17.11-9.68,17.2Z"></path> <path class="cls-15" d="m128.95,133.21c5.98,30.14,2.99,43.92,4.1,53.53,8.09-21.08,10.03-44.72,3.16-65.96-1.68-1.3-3.39-2.54-5.13-3.74-.09.13-.19.26-.28.4-2.77,4.29-2.85,10.71-1.85,15.77Z"></path> <path class="cls-27" d="m87.8,83.86c1.85-6.57-7.43-14.86-3.66-20.7,8.95-13.87,58.11-27.69,85.62-34.19-13.94-3.69-28.69-2.86-41.93,5.31-17.04,10.51-50.15,20.43-54.56,27.27-4.01,6.21,5.48,15.86,4.1,21.92-1.38,6.05-1.08,13.97.22,22.97,2.1,14.55,6.78,31.91,11.11,48.8,1.27-13.41,7.28-24.04,5.09-33.11-3.12-12.9-9.87-24.48-5.98-38.27Z"></path> <path class="cls-22" d="m138.54,248.1c-7.62-19.85-9.93-41.12-18.23-61.88-11.44-28.6-14.85-63.69.52-87.5,13.54-20.97,33.07-20.83,55.84-44.45,5.02-5.21,13.26-7.23,21.56-10.96-.66-.51-1.33-.99-2.01-1.48-17.63,1.52-63.65-.25-75.84,18.63-51.62,79.95,21.97,150.71,10.55,202.39.98.97,1.96,1.94,2.95,2.89,2.47-5.66,3.94-11.57,4.65-17.63Zm-28.4-156.33c.57-8.77,3.27-16.82,7.59-23.51,14.71-22.78,42.93-20.79,47.45-17.87.81.53,1.26,2.15.02,4.07-.13.2-41.04,26.38-52.03,36.95-.28.27-1.83.68-3.03.37Z"></path> <path class="cls-48" d="m120.83,98.72c-15.37,23.81-11.97,58.9-.52,87.5,8.31,20.76,10.62,42.03,18.23,61.88,2.14-18.14-2.44-37.69-7.01-56.2-10.03-25.75-18.68-55.06-8.45-70.9,7.98-12.37,22.73-12.25,29.37-22.54.06-.09,4.89-9.78,9.68-17.2,12.72-19.71,26.24-30.16,38.58-35.97-.81-.67-1.64-1.34-2.48-1.99-8.3,3.73-16.54,5.75-21.56,10.96-22.77,23.62-42.3,23.49-55.84,44.45Z"></path> <path class="cls-43" d="m120.38,60.45c12.19-18.87,58.21-17.1,75.84-18.63-1.29-.94-2.61-1.86-3.95-2.73-6.91-4.46-14.5-7.98-22.34-10.08-.05-.01-.11-.03-.16-.04-27.51,6.49-76.67,20.32-85.62,34.19-3.77,5.84,5.51,14.13,3.66,20.7-3.89,13.8,2.86,25.37,5.98,38.27,2.19,9.07-3.82,19.7-5.09,33.11,3.03,11.81,5.88,23.37,7.55,33.57.2,1.21.39,2.41.55,3.58.46,3.31,1.79,6.13,3.5,8.75.41.63.84,1.25,1.29,1.87,3.03,4.11,6.83,7.88,9.5,12.54,3.82,6.65,9.01,26.67,12.68,39.91,2.33,2.51,4.72,4.97,7.15,7.38,11.42-51.68-62.17-122.44-10.55-202.39Z"></path> <path class="cls-55" d="m165.18,50.38c-4.52-2.92-32.75-4.9-47.45,17.87-4.32,6.69-7.02,14.74-7.59,23.51,1.2.31,2.75-.1,3.03-.37,10.99-10.56,51.9-36.75,52.03-36.95,1.24-1.92.8-3.55-.02-4.07Z"></path> <path class="cls-7" d="m173.09,29.94c6.71,2.14,13.19,5.29,19.17,9.15,4.14,2.67,8.02,5.69,11.6,8.92,9.95-10.4,18.97-16.68,27.29-20-6.98,2.18-13.82,5.71-20.24,10.12-10.42,7.16-21.73-6.13-37.81-8.18Z"></path> <path class="cls-18" d="m233.64,9.12c-14.5,3.47-30.9,5.62-45.46,10.74,7.91-1.94,14.58-.87,24.63-2.78,24.29-4.6,38.54-19.17,70.43,1.42,10.36,6.69,29.25,29.27,45.68,53.33-10.04-25.55-29.55-46.21-52.64-61.11-31.33-20.23-22.12-6.51-42.64-1.6Z"></path> <path class="cls-22" d="m331.29,78.52c-.2-.47-.41-.94-.63-1.4.06.01.13.02.19.04-.6-1.8-1.24-3.57-1.93-5.32-16.43-24.06-35.32-46.65-45.68-53.33-31.89-20.59-46.14-6.02-70.43-1.42-10.05,1.9-16.72.84-24.63,2.78-.94.33-1.86.68-2.79,1.03-5,1.93-9.74,4.25-14.07,7.16,19.03,1.29,27.75,7.6,35.91,4.48,30.48-11.67,53.12-12.51,81.1,5.55,16.35,10.56,35.05,27.46,45.36,47.54-.63-2.43-1.41-4.81-2.4-7.1Z"></path> <path class="cls-48" d="m207.23,32.53c-8.16,3.12-16.88-3.2-35.91-4.48-.47.31-.94.63-1.39.96,1.06.28,2.12.6,3.17.93,16.08,2.05,27.39,15.34,37.81,8.18,6.42-4.41,13.26-7.94,20.24-10.12,17.66-7.06,32.14-.76,45.63,7.95,20.82,13.44,37.06,35.76,54.87,53.8,1.34,1.36,2.56,2.79,3.66,4.28-.38-2.85-.9-5.66-1.62-8.41-10.31-20.09-29.01-36.99-45.36-47.54-27.98-18.07-50.62-17.22-81.1-5.55Z"></path> <path class="cls-22" d="m278.97,55.9s21.85,17.24,51.67,39.96c-23.27-30.02-57.19-56.2-57.58-56.44-30.9-19.95-65.42,3.26-90.62,35.5-1.84,2.68-3.71,5.48-5.61,8.42-7.43,11.51-12.39,23.79-12.58,36.78.41.14.82.29,1.22.44,2.74-4.67,5.67-9.5,8.8-14.35,40.8-63.19,80.69-65.8,104.68-50.31Z"></path> <path class="cls-40" d="m256.41,86.45s-1.26-.88-2.45-1.65c-22.25-14.36-53.29-17.01-68.13,5.98,0,0-1.52,4.02-16.84,31.08,1.09.42,2.17.86,3.27,1.33,3.08-5.79,4.96-11.37,9.13-17.83,6.61-10.24,16.22-18.95,26.97-22.91,7.63-8.41,23.07-6.78,32.61-.62,5.69,3.67,10.06,9.16,11.91,15.87,18.42-9.07,44.04-14.74,71.17-1.11-.28-.19-.55-.37-.8-.54-22.59-14.58-66.84-9.59-66.84-9.59Z"></path> <path class="cls-31" d="m340.75,103.6c-.38-.32-.77-.64-1.17-.94-3.05-2.31-6.03-4.57-8.94-6.79-29.82-22.72-51.67-39.96-51.67-39.96-24-15.49-63.89-12.89-104.68,50.31-3.13,4.85-6.06,9.68-8.8,14.35,1.17.41,2.33.85,3.51,1.31,15.31-27.06,16.84-31.08,16.84-31.08,14.84-22.99,45.88-20.35,68.13-5.98,1.19.77,2.45,1.65,2.45,1.65,0,0,44.25-4.99,66.84,9.59.26.17.53.35.8.54,2.73,1.37,5.48,2.93,8.23,4.71.38.25,3.42,3.21,7.58,7.66,1.39,1.48,2.89,3.13,4.47,4.9-1-3.52-2.15-6.96-3.59-10.25Zm-111.58-33.28c-1.75-1.13-1.54-4.03-.41-5.77.43-.67,1.03-1.17,1.71-1.55.21-.22.45-.44.72-.67,12.32-5.09,33.2-5.19,42.12.57,4.07,2.63,9.71,8.76,5.75,14.89-8.19,12.68-49.23-7.05-49.89-7.47Z"></path> <path class="cls-48" d="m273.31,62.9c-8.93-5.76-29.81-5.66-42.12-.57-.27.23-.51.45-.72.67-.68.39-1.28.88-1.71,1.55-1.12,1.74-1.34,4.64.41,5.77.66.42,41.7,20.15,49.89,7.47,3.96-6.14-1.68-12.27-5.75-14.89Z"></path> <path class="cls-31" d="m342.82,108.99c.55,1.6,1.05,3.22,1.52,4.86,2.46,2.75,5.08,5.8,7.66,8.97,23.7-2.96,49.22-6.52,70.97,3.49-24.34-14.39-61.36-4.76-76.64-14.63-1.24-.8-2.41-1.7-3.51-2.69Z"></path> <path class="cls-22" d="m414.4,116.58c-3.72-2.4-49.74-25.91-79.7-26.4.23,1.28.44,2.56.61,3.86,3.36,4.53,5.69,9.61,7.51,14.95,1.1.99,2.27,1.89,3.51,2.69,15.28,9.86,52.3.24,76.64,14.63,1.78.82,3.54,1.72,5.26,2.73-3.9-4.81-8.59-9.07-13.83-12.45Z"></path> <path class="cls-55" d="m415.38,217.55c-8.64,5.11-16.58,12.28-22.04,20.74-10.97,16.99-6.9,32.8-6.07,33.33,2.07,1.34,19.84-18.64,24.07-25.2,5.6-8.67,8.34-18.16,4.05-28.87Z"></path> <path class="cls-47" d="m391.21,143.82c-1.7-1.09-3.56-1.99-5.53-2.71,10.43,7.02,16.67,15.65-1.21,43.34-2.07,3.2-4.41,6.29-6.94,9.25,6.76-3.86,12.88-10.2,18.19-18.42,7.51-11.63,6.19-24.55-4.51-31.46Z"></path> <path class="cls-47" d="m402.52,140.53c-7.24-4.68-17.25-4.97-27.17-4.67,3.21,1.14,6.29,2.63,9.14,4.46.4.26.8.52,1.18.78,1.97.72,3.84,1.62,5.53,2.71,10.69,6.9,12.02,19.83,4.51,31.46-5.31,8.22-11.43,14.55-18.19,18.42-3.12,3.66-6.52,7.12-10.01,10.35,12.6-6.12,23.92-17.88,33.16-32.18,13.5-20.9,10.28-25.89,1.85-31.33Z"></path> <path class="cls-27" d="m433.94,132.67c-1.12-.73-2.26-1.48-3.43-2.24-12.19-7.87-25.9-10.48-40.01-10.72,2.44.4,4.86.9,7.25,1.66,10.56,3.36,21.65,4.58,30.95,10.58,10.95,7.07,28.79,23.12,21.7,34.09-.53.82-72.48,71.15-115.16,61.62-.04.02-.09.05-.13.08,2.79,2.12,5.41,4.16,7.85,6.12,18.69-4.95,18.57.68,39.89-12.84,10.89-6.9,27.36-18.79,54.78-39.63,2.85-2.17,5.82-4.43,8.92-6.8,3.67-2.81,7.23-6.18,9.7-10.02,6.7-10.38-3.27-19.39-22.3-31.92Z"></path> <path class="cls-22" d="m450.4,166.05c7.08-10.97-10.75-27.02-21.7-34.09-9.3-6-20.39-7.22-30.95-10.58-2.38-.76-4.81-1.27-7.25-1.66-12.79-.21-25.9,1.53-38.5,3.1,2.49,3.06,4.92,6.23,7.13,9.36,21.61-3.17,44.29-10,63.47,2.37,8.72,5.63,8.25,13.89,4.66,19.44-11.41,17.68-50.65,55.53-80.82,66.6-4.53,3.07-8.45,5.46-11.2,7.07,42.69,9.53,114.63-60.8,115.16-61.62Z"></path> <path class="cls-31" d="m422.59,134.55c-19.17-12.38-41.86-5.54-63.47-2.37.2.28.4.55.59.83,5.3.12,10.63,1.07,15.64,2.85,9.92-.31,19.93-.01,27.17,4.67,8.43,5.44,11.65,10.43-1.85,31.33-9.24,14.31-20.56,26.06-33.16,32.18-7.16,6.62-14.72,12.25-21.08,16.56,30.17-11.07,69.41-48.92,80.82-66.6,3.59-5.55,4.06-13.81-4.66-19.44Z"></path> <path class="cls-43" d="m170.52,146.61c-17.35-11.2-19.4-19.01-25.17-22.74-3-1.93-6.66-3.17-10.45-4.09.44.33.89.66,1.33,1,20.36,15.73,35.9,37.84,41.64,41.55,6.39,4.12,24.77,6.71,37.64,15.02,15.06,9.72,34.4,38.34,58.34,53.8.09.06.18.11.28.17-16.2-18.14-24.61-43.25-46.43-57.34-11.82-7.63-37.82-14.88-57.17-27.37Z"></path> <path class="cls-15" d="m366.17,256.23c-4.75-6.34-12.24-13.56-23.22-22.36-2.44-1.96-5.06-4-7.85-6.12-1.09-.83-2.21-1.67-3.35-2.53-22.82-17.04-56.74-39.49-105.61-71.04-4.58-2.95-9.06-5.85-13.48-8.64-1.91-1.21-3.8-2.4-5.68-3.56-7.09-4.4-13.99-8.49-20.72-12.06-7.53-4-14.85-7.35-22.01-9.79-11.22-3.84-22.03-5.41-32.58-3.71,30.65,3.65,58.69,15.72,84.53,32.4,18.36,11.86,38.49,28.71,53.94,42.99,6.65,5.06,16.98,12.54,30.77,21.45,13.3,8.59,26.83,16.76,40.05,25.29,17.74,11.45,27.61,24.42,31.9,36.91.55-5.98-1.32-12.04-6.7-19.22Z"></path> <path class="cls-22" d="m372.87,275.45c-4.3-12.49-14.17-25.46-31.9-36.91-13.21-8.53-26.74-16.7-40.05-25.29-13.79-8.9-24.12-16.39-30.77-21.45-15.45-14.27-35.58-31.13-53.94-42.99-25.84-16.68-53.88-28.75-84.53-32.4-.4.06-.8.12-1.21.2,1.5,1.01,2.96,2.08,4.41,3.17,3.79.93,7.46,2.16,10.45,4.09,5.77,3.72,7.83,11.54,25.17,22.74,19.35,12.49,45.35,19.74,57.17,27.37,21.82,14.09,30.23,39.2,46.43,57.34,5.18,3.32,10.6,5.93,16.13,8.13,22.44,6.51,49.2,8.69,67.4,20.44,7.73,4.99,12.87,11.75,14.63,19.1.29-1.18.49-2.35.6-3.53Z"></path> <path class="cls-43" d="m290.24,239.45c19.9,7.92,41.19,10.46,57.81,21.19,8.67,5.6,15.03,13.11,16.84,24.05,1.98-.04,3.82-.14,5.51-.3.8-1.83,1.43-3.62,1.87-5.4-1.77-7.36-6.9-14.11-14.63-19.1-18.19-11.75-44.96-13.93-67.4-20.44Z"></path> <path class="cls-31" d="m351.34,184.81c4.4-6.82,3.37-.4-48.35-12.28-2.99-.69-6.93-.24-8.48,2.16-.01.02-.02.04-.03.05,2.69,2.12,5.57,4.21,8.6,6.17,25.79,16.65,44.25,10.13,48.27,3.9Z"></path> <path class="cls-50" d="m372.14,174.06c.2-.35.41-.71.64-1.06,1.74-2.7,3.91-5.19,5.69-7.95.75-1.16,1.44-2.43,1.98-3.73-.15.26-.3.52-.47.78-2.15,3.34-4.94,5.8-8.25,7.52-35.45,18.5-131.24-47.69-160.05-34,.16,3.06.47,6.1.88,9.15,39.36-.96,121.69,38.78,159.58,29.29Z"></path> <path class="cls-32" d="m260.75,176.65c30.88,20.2,54.02,35.89,71,48.57,10.85-8.07,17.12-14.13,22.82-19.76,2.53-3.01,5.16-6.39,7.31-9.73,2.68-4.15,4.38-7.51,5.62-10.36-7.42,6-13.98,13.09-19.38,20.99-29.93,11.49-61.82-22.97-87.37-29.71Z"></path> <path class="cls-47" d="m354.87,187.61c-42.78,31.65-81.39-35.02-131.78-35.4,1.02.66,2.03,1.3,3.06,1.97,12.49,8.07,24,15.53,34.61,22.47,25.55,6.74,57.44,41.19,87.37,29.71,5.41-7.9,11.96-14.99,19.38-20.99,1.32-3.03,2.11-5.48,2.97-7.69-5.48,2.71-10.63,6.25-15.6,9.93Z"></path> <path class="cls-55" d="m240.97,83.82c6.92,4.47,10.12,9.38,11.2,14.22.23-.12.47-.24.7-.35-1.85-6.71-6.22-12.2-11.91-15.87-10.24-6.61-27.29-8.01-34.17,2.64-4.8,7.44-5.94,17.21-5.4,26.99.04.78.1,1.55.16,2.33,1.44-9.49,3.01-20.67,7.72-27.96,7.73-11.98,22.68-7.82,31.69-2.01Z"></path> <path class="cls-15" d="m212.44,105.62c-3.2,4.96-4.44,11.31-2.88,17.71,0,0,1.26,5.18,2.62,10.8.41-.18.83-.34,1.25-.5-1.49-5.26.11-10.75,3.18-15.5,6.99-10.83,16.47-12.56,21.51-11.58,2.08-1.49,4.38-3.02,6.87-4.53-1.05-1.48-2.28-2.64-3.51-3.44-6.38-4.12-21.51-4.61-29.04,7.05Z"></path> <path class="cls-57" d="m238.83,86.57c-9.26-5.98-20.67-6.09-27.3,4.19-.66,1.02-1.21,2.11-1.66,3.23-.5.74-1.02,1.48-1.52,2.24-1.95,3.02-2.01,5.23-1.28,5.7.71.46,2.34-.02,2.95-.96,0,0,.75-1.79,1.64-3.16,7.99-12.37,26.9-2.08,29.54-6.17,1.15-1.78-1.09-4.23-2.37-5.06Z"></path> <path class="cls-31" d="m330.3,107.06c-23.38-15.09-74.46-19.24-102.66,24.12,1.19-.03,2.41-.02,3.65.01,13.43-12.46,50.66-40.98,84.33-23.11,1.3.69,2.59,1.44,3.88,2.27,18.62,12.02,9.99,26.49,28.48,38.42,4.28,2.77,8.76,3.9,13.07,4.05.87-11.39-4.28-28.68-30.74-45.76Zm17.72,34.49c-7.92-5.12-8.94-11.82-11.5-16.64-.29-2.06-.51-4.15-.93-6.27-.51-2.59-3.31-4.2-2.6-5.31.36-.56,1.51-.02,2.08.35.3.19.59.41.88.59.19.12,1.77.94,2.86,1.64,2.72,1.75,18.43,19,15.28,28.13-2.18-.4-4.22-1.28-6.07-2.47Z"></path> <path class="cls-48" d="m335.6,118.63c.42,2.13.64,4.22.93,6.27,2.56,4.82,3.57,11.53,11.5,16.64,1.85,1.2,3.89,2.08,6.07,2.47,3.15-9.12-12.57-26.37-15.28-28.13-1.08-.7-2.67-1.51-2.86-1.64-.28-.18-.58-.4-.88-.59-.57-.37-1.72-.91-2.08-.35-.72,1.11,2.09,2.72,2.6,5.31Z"></path> <path class="cls-27" d="m325.2,100.43c6.04,3.9,33.26,26.17,41.72,48.17.25-.27.5-.54.73-.84-.66-2.17-1.75-4.58-3.14-7.11-1.35-2.46-2.99-5.04-4.8-7.65-2.36-3.41-5.01-6.87-7.72-10.19-2.58-3.17-5.2-6.22-7.66-8.97-6.32-7.08-11.54-12.22-12.06-12.55-30.13-19.45-59.13-13.59-79.41-3.61-11.41,5.62-20.06,12.54-24.58,16.99,31.21-21.53,64.83-34.95,96.91-14.24Z"></path> <path class="cls-29" d="m236.89,131.52c7.75.69,16.19,2.32,24.95,4.44,14.4-2.63,26.8-11.52,37.51-21.56-1.19.38-2.33.89-3.36,1.54-39.96,25.22-46.59,8.58-59.1,15.58Z"></path> <path class="cls-33" d="m234.33,131.33c.84.05,1.69.12,2.55.2,12.51-7,19.14,9.64,59.1-15.58,1.03-.65,2.17-1.16,3.36-1.54.06-.05.12-.11.18-.16.69-.51,1.34-1.01,1.94-1.51-.08-.94.06-1.75.43-2.41-18.01.56-43.65-2.54-67.56,21.01Z"></path> <path class="cls-47" d="m347.97,148.78c-18.49-11.94-9.87-26.4-28.48-38.42-1.29-.83-2.58-1.59-3.88-2.27-.21.09-.42.18-.64.26.4.2.8.42,1.19.68,7.79,5.03,12.6,18.51,17.35,26.21,3.39,5.51,2,12.33,4.86,18.16.29.59.56,1.18.81,1.75,8.69.87,16.19.4,21.85-2.24,0-.03,0-.05,0-.08-4.31-.14-8.79-1.28-13.07-4.05Z"></path> <path class="cls-43" d="m325.2,100.43c-32.08-20.71-65.69-7.28-96.91,14.24-1.6,1.57-2.69,2.84-3.2,3.63-2.7,4.18-4.23,8.94-1.77,13.14,1.4-.14,2.84-.22,4.32-.26,28.2-43.36,79.28-39.22,102.66-24.12,26.47,17.09,31.61,34.37,30.74,45.76,0,.03,0,.05,0,.08.05-.02.11-.05.16-.07,2.21-1.05,4.13-2.45,5.73-4.23-8.46-22-35.68-44.27-41.72-48.17Z"></path> <path class="cls-47" d="m231.29,131.2c1,.03,2.01.07,3.04.13,23.92-23.54,49.55-20.45,67.56-21.01.03-.06.06-.13.1-.19,1.43-2.21,7.41-4.57,12.99-1.79.22-.08.43-.17.64-.26-33.67-17.86-70.9,10.66-84.33,23.11Z"></path> <path class="cls-32" d="m215.41,131.82c.05-.08.09-.16.14-.24.92-1.42,2.31-2.44,3.16-3.76.25-.39,1.56-5.74,3.77-9.16,2.4-3.71,5.53-5.54,8.28-6.27,2.01-1.78,4.48-3.78,7.36-5.85-5.04-.98-14.52.76-21.51,11.58-3.07,4.75-4.66,10.25-3.18,15.5.44-.16.89-.32,1.34-.46.06-.32.16-.62.34-.9.12-.18.21-.32.3-.45Z"></path> <path class="cls-33" d="m225.1,118.3c.74-1.14,2.68-3.28,5.66-5.92-2.75.73-5.88,2.56-8.28,6.27-2.21,3.42-3.52,8.77-3.77,9.16-.85,1.32-2.24,2.34-3.16,3.76-.05.08-.09.16-.14.24-.09.13-.19.27-.3.45-.18.28-.28.59-.34.9,2.64-.86,5.5-1.42,8.56-1.73-2.46-4.19-.93-8.95,1.77-13.14Z"></path> <path class="cls-40" d="m372.14,174.06c-37.89,9.49-120.22-30.25-159.58-29.29.03.25.06.51.1.76,3.42,2.17,6.91,4.41,10.42,6.67,50.4.38,89,67.05,131.78,35.4,4.97-3.68,10.12-7.22,15.6-9.93.49-1.27,1.01-2.45,1.67-3.62Zm-20.8,10.75c-4.02,6.23-22.48,12.76-48.27-3.9-3.03-1.95-5.91-4.05-8.6-6.17.01-.02.02-.04.03-.05,1.55-2.4,5.49-2.84,8.48-2.16,51.72,11.88,52.75,5.46,48.35,12.28Z"></path> <path class="cls-38" d="m316.88,118.84c-6.68,11.48,8.11,19.21,21.11,36.17.4.05.8.09,1.2.13-.25-.57-.52-1.16-.81-1.75-2.19-4.45-1.9-9.47-3.14-14.05-4.6-10.64-11.02-17.95-12.71-19.04-1.61-1.04-3.47-1.61-5.65-1.46Z"></path> <path class="cls-29" d="m337.99,155.01c-13-16.96-27.8-24.68-21.11-36.17,2.18-.15,4.03.42,5.65,1.46,1.69,1.09,8.11,8.4,12.71,19.04-.39-1.42-.92-2.8-1.72-4.11-4.74-7.7-9.56-21.18-17.35-26.21-.01,0-.02-.01-.04-.02-2.1-.44-4.08.75-4.88,1.98-4.58,7.1.27,17.61,6.97,26.88,5.99,6.64,12.24,12.85,16.27,16.7,1.19.17,2.35.32,3.5.45Z"></path> <path class="cls-22" d="m311.25,110.98c.79-1.23,2.78-2.43,4.88-1.98-5.88-3.77-12.62-1.23-14.14,1.14-.45.7-.61,1.57-.53,2.6.46,5.65,8.35,15.8,16.76,25.12-6.69-9.27-11.55-19.78-6.97-26.88Z"></path> <path class="cls-17" d="m323.55,147.9c-12.02-7.76-23.87-17.61-25.48-32.31-1.61,1.48-3.26,2.93-4.95,4.33-.4.54-.85,1.14-1.31,1.75-1.93,1.72-3.86,3.6-5.17,5.62-3.64,5.65-.28,10.95,4.39,13.96,3.09,1.99,25.13,8.24,41.32,11.76-2.16-1.05-4.97-2.64-8.79-5.11Z"></path> <path class="cls-23" d="m333.38,153.49c-.33-.15-.68-.31-1.04-.49-16.18-3.52-38.23-9.77-41.32-11.76-4.67-3.01-8.03-8.31-4.39-13.96,1.31-2.03,3.25-3.9,5.17-5.62.46-.61.9-1.21,1.31-1.75-4.68,3.88-9.65,7.39-14.94,10.2-5.14,2.73-10.58,4.79-16.33,5.85,22.37,5.39,46.81,13.87,67.01,17.65,1.92.36,3.8.68,5.64.95-.35-.34-.72-.69-1.11-1.06Z"></path> <path class="cls-40" d="m333.04,153.16c-10.31-10-30.82-31.22-31.57-40.43-.6.49-1.25,1-1.94,1.51-.48.45-.97.9-1.46,1.35,1.6,14.7,13.46,24.55,25.48,32.31,3.82,2.47,6.63,4.06,8.79,5.11.37.18.71.34,1.04.49-.11-.11-.23-.22-.35-.34Z"></path> <path class="cls-47" d="m369.72,153.11c1.26-1.96,1.94-6.83-1.93-11.84-1.1-.25-2.2-.47-3.28-.61,1.39,2.53,2.48,4.93,3.14,7.11-5.57,7.04-15.74,8.65-28.46,7.37-1.53-.15-3.1-.35-4.7-.58-21.17-3.08-48.15-12.69-72.65-18.6-14.22-3.43-27.59-5.6-38.52-4.52-4.28.42-8.17,1.35-11.6,2.89,45.26-8.26,142.96,42.08,158,18.78Z"></path> <path class="cls-40" d="m376.96,163.1c3.43-5.31,4.31-11.42,1.86-16.72-.59-.5-1.23-.99-1.95-1.45-2.26-1.46-4.97-2.59-7.76-3.35-.44-.12-.88-.21-1.32-.31,3.87,5.01,3.2,9.88,1.93,11.84-15.04,23.29-112.74-27.05-158-18.78-.03.01-.07.03-.1.04.02.42.03.84.05,1.26,8.42-4,22.56-1.17,39.24,4.36,44.94,11.02,112.43,44.21,126.05,23.11Z"></path> <path class="cls-23" d="m376.58,173.18c2.31-3.57,5.49-7.02,7.72-10.47,3.94-6.1,4.64-12.33-6.26-19.37-4.11-2.66-9.04-4.24-14.07-3.63.18.32.37.64.54.95,1.52.19,3.07.5,4.6.92,2.79.76,5.5,1.89,7.76,3.35,5.79,3.74,7.47,8.73,4.34,14.99-.23.46-.49.93-.77,1.4-.54,1.3-1.23,2.57-1.98,3.73-1.78,2.76-3.95,5.25-5.69,7.95-3.51,5.43-3.25,10.88-10.9,22.72-2.15,3.34-4.78,6.72-7.31,9.73-4.97,4.91-10.38,10.16-18.88,16.77,10.96-6.03,23.48-16.36,30.82-27.73,7.37-11.42,6.24-15.4,10.06-21.31Z"></path> <path class="cls-17" d="m382.5,142.23c-6.2-4-13.7-5.79-21.15-6.79.95,1.45,1.82,2.88,2.62,4.27,5.03-.61,9.96.97,14.07,3.63,10.9,7.04,10.2,13.27,6.26,19.37-2.23,3.46-5.41,6.9-7.72,10.47-3.82,5.91-2.69,9.9-10.06,21.31-7.34,11.37-19.87,21.7-30.82,27.73-1.25.97-2.55,1.97-3.94,3,1.15.86,2.26,1.7,3.35,2.53,2.28-1.33,5.41-3.23,9.03-5.62,16.27-13.26,32.9-28.6,38.7-37.59,10.58-16.39,16.76-31.27-.34-42.31Z"></path> <path class="cls-27" d="m384.49,140.33c-7.27-4.69-16.07-7.11-24.77-7.31.56.82,1.1,1.62,1.63,2.43,7.46,1,14.95,2.79,21.15,6.79,17.1,11.04,10.92,25.92.34,42.31-5.8,8.99-22.43,24.34-38.7,37.59,12.12-7.97,29.83-21.43,40.32-37.69,18.55-28.73,11.15-36.94.03-44.12Z"></path> <path class="cls-24" d="m380.65,222.4c-19.14,11.76-19.68,6.7-37.7,11.47,1.67,1.34,3.25,2.64,4.77,3.91,6.39-2.22,21.9-.79,32.93-15.38Z"></path> <path class="cls-3" d="m373.56,241.76c-.15.23-.3.46-.45.69-.41.63-.81,1.28-1.22,1.91-4.26,6.59-6.5,7.06-8.99,5.45-1.12-.72-2.22-1.8-3.4-2.66-.69-.26-1.37-.52-2.04-.64,3.58,3.49,6.46,6.7,8.73,9.72,2.32-3.91,4.84-8.99,7.38-14.47Z"></path> <path class="cls-51" d="m373.11,242.45c.15-.23.3-.46.45-.69,3.15-6.78,6.35-14.17,9.29-20.73-.38.24-.73.46-1.1.69-1.72,3.65-3.54,7.31-5.68,10.63-10.92,16.92-18.84,11.61-23.77,9.38,1.86,1.65,3.57,3.25,5.15,4.79.67.11,1.36.37,2.04.64,1.18.86,2.28,1.93,3.4,2.66,2.49,1.61,4.74,1.15,8.99-5.45.41-.64.81-1.28,1.22-1.91Z"></path> <path class="cls-13" d="m376.07,232.35c2.15-3.33,3.96-6.99,5.68-10.63-.37.23-.74.46-1.1.68-11.03,14.6-26.54,13.16-32.93,15.38,1.61,1.35,3.14,2.67,4.58,3.95,4.93,2.23,12.85,7.54,23.77-9.38Z"></path> <path class="cls-50" d="m206.96,141.86c-2.04-7.73-4.92-19.07-5.55-30.41-.96,1.34-1.94,2.68-2.93,4,3.82,6.5,2.89,15.94,8.48,26.41Z"></path> <path class="cls-47" d="m206.96,141.86c-5.59-10.47-4.66-19.9-8.48-26.41-2.17,2.91-4.41,5.77-6.75,8.51-2.94,6.61,6.86,10.18,13.21,16.75.68.42,1.36.83,2.05,1.25,0-.04-.02-.08-.03-.11Z"></path> <path class="cls-32" d="m191.73,123.97c-1.76,2.05-3.57,4.05-5.46,5.95,6.08,3.23,12.3,6.88,18.67,10.8-6.35-6.58-16.16-10.15-13.21-16.75Z"></path> <path class="cls-15" d="m99.18,210.61c-1.09,3.65-1.99,7.3-2.4,10.93,7.48,10.94,15.65,21.4,24.51,31.19-6.55-15.13-21.59-21.64-22.12-42.12Z"></path> <path class="cls-45" d="m123.17,253.22c-3.62-13.15-8.46-31.38-12.06-37.67-2.67-4.66-6.47-8.44-9.5-12.54-.28.86-.57,1.72-.85,2.59,2.49,5.02,8.33,8.63,10.35,13.97,3.36,8.9,7.77,25.37,12.07,33.65Z"></path> <path class="cls-56" d="m123.17,253.22c-4.3-8.28-8.71-24.75-12.07-33.65-2.01-5.34-7.85-8.95-10.35-13.97-.55,1.67-1.08,3.34-1.57,5.01.53,20.48,15.56,26.99,22.12,42.12.83.91,1.65,1.83,2.49,2.73-.2-.73-.41-1.48-.62-2.24Z"></path> <path class="cls-15" d="m379.66,162.45c3.44-5.33,3.13-11.67-.64-15.6,2.19,5.2,1.28,11.1-2.05,16.26-13.62,21.1-81.1-12.1-126.05-23.11,18.16,6.02,39.32,15.26,59.41,22.42,11.97,3.19,30.42,8.78,38.42,9.18,11.94.6,24.45.86,30.91-9.14Z"></path> <path class="cls-27" d="m378.82,146.38c.07.15.13.31.2.47,3.77,3.94,4.08,10.27.64,15.6-6.46,10-18.97,9.74-30.91,9.14-8-.4-26.45-5.99-38.42-9.18,24.61,8.77,47.59,14.43,61.41,7.22,3.31-1.73,6.09-4.19,8.25-7.52,4.19-6.49,3.57-11.72-1.16-15.73Z"></path> <path class="cls-27" d="m275.03,35.45c3.81,2.46,3.17,3.55,6.27,5.55,1.12.72,2.33,1.33,3.41,2.03,6.93,4.48,18.14,19.92,31.53,30.11-12.32-13.73-24.75-27.67-39.47-37.18-19.18-12.38-40.38-19.9-69.85,8.96,17.91-14.74,41.37-26.73,68.11-9.47Z"></path> <path class="cls-43" d="m335.31,94.04c-1.1-1.49-2.32-2.92-3.66-4.28-5.22-5.28-10.3-10.94-15.4-16.63-13.39-10.18-24.59-25.63-31.53-30.11-1.09-.7-2.3-1.31-3.41-2.03-3.1-2-2.45-3.09-6.27-5.55-26.74-17.26-50.2-5.28-68.11,9.47-1.01.99-2.03,2.02-3.06,3.1-6.69,7-13.81,15.85-21.41,26.91,25.2-32.24,59.72-55.45,90.62-35.5.38.25,34.3,26.43,57.58,56.44,2.91,2.22,5.89,4.48,8.94,6.79.4.3.79.62,1.17.94-1.47-3.37-3.23-6.58-5.44-9.56Z"></path> <path class="cls-55" d="m324.67,250.32c3.45,1.44,8.12,3.2,13.17,4.89-4.23-1.87-8.64-3.45-13.17-4.89Z"></path> <path class="cls-55" d="m311.93,246.53c-2.54-.73-5.1-1.48-7.66-2.26.36.3.7.66,1.09.91,1.01.65,3.6.94,6.56,1.34Z"></path> <path class="cls-61" d="m427.31,246.37c2.74-7.51,5.55-14.99,5.25-22.96-.07-1.82-.3-3.68-.73-5.56-.39,1.52-.8,3.03-1.23,4.53-3.87,13.66-9.39,26.74-16.94,38.44-3.93,6.08-8.41,11.79-13.49,17.02,3.7-.35,7.38-.41,10.97-.1-.17-6.19,4.16-13.34,8.65-20.3,2.41-3.73,4.96-7.4,7.51-11.06Z"></path> <path class="cls-2" d="m423.99,277.24c-3.75-11.13-.27-21.03,3.32-30.87-2.55,3.66-5.1,7.33-7.51,11.06-4.49,6.96-8.82,14.12-8.65,20.3,4.73.4,9.34,1.44,13.69,3.27-.12-1.17-.4-2.42-.85-3.76Z"></path> <path class="cls-12" d="m427.31,246.37c2.63-3.78,5.27-7.56,7.75-11.41,1.71-2.65,3.35-5.34,4.87-8.08-2.35-1.27-4.5-2.04-7.37-3.47.3,7.97-2.51,15.45-5.25,22.96Z"></path> <path class="cls-41" d="m443.74,219.25c.97-2.21,1.85-4.47,2.6-6.79-3.87-2.83-7.99-5.83-11.54-8.42-.47,2.62-.99,5.24-1.56,7.84.31.2.61.38.93.58,3.44,2.22,6.61,4.49,9.57,6.78Z"></path> <path class="cls-27" d="m460.19,222.57s-6.48-4.73-13.85-10.11c-.75,2.32-1.63,4.57-2.6,6.79,33.68,26.14,36.39,56.83,16.87,87.06-26.98,41.79-142.82,64.11-197.32,82.34,14.37-.54,30.23,1.98,40.31-2.73,22.6-10.56,45.63-8.84,68.38-18.38.83-.35,12.06-5.79,26.83-13.32,8.98-4.58,19.27-9.93,29.32-15.38,14.41-8.72,26.84-17.98,34.09-29.21,17-26.34,28.26-64.92-2.03-87.06Z"></path> <path class="cls-25" d="m447,210.31c-3.98-2.78-7.99-5.49-11.85-8.19-.11.64-.23,1.29-.34,1.93,3.55,2.59,7.66,5.59,11.54,8.42.23-.71.45-1.43.66-2.16Z"></path> <path class="cls-36" d="m483.79,253.95c-3.96-19.22-20.19-32.07-36.78-43.65-.21.72-.43,1.44-.66,2.16,7.37,5.38,13.85,10.11,13.85,10.11,30.29,22.14,19.03,60.72,2.03,87.06-7.25,11.24-19.69,20.5-34.09,29.21,21.83-11.83,42.54-24.11,46.28-29.9,4.63-7.17,10.69-48.59,9.37-54.99Z"></path> <path class="cls-43" d="m443.74,219.25c-1.14,2.6-2.43,5.14-3.81,7.63.65.35,1.3.73,2,1.18,14.18,9.16,25.6,34.51,11.44,56.44-12.19,18.88-96.48,67-127.5,77.29-20.22,8.8-41.65,12.66-59.1,17.14-11.32,2.91-20.95,6.08-27.5,11.03,1.13,1.31,2.18,2.6,3.14,3.88,5.75-3.71,13.1-4.9,20.88-5.19,54.5-18.23,170.34-40.55,197.32-82.34,19.52-30.23,16.81-60.92-16.87-87.06Z"></path> <path class="cls-49" d="m439.94,226.88c1.38-2.49,2.66-5.03,3.81-7.63-2.96-2.3-6.13-4.56-9.57-6.78-.31-.2-.62-.39-.93-.58-.44,2-.9,3.99-1.41,5.97.43,1.88.66,3.73.73,5.56,2.87,1.44,5.02,2.2,7.37,3.47Z"></path> <path class="cls-8" d="m414.32,300.44c-1.43.51-2.9,1.1-4.41,1.82-13.02,6.2-24.08,14.77-36.46,20.07-.22.36-.44.71-.67,1.07-3.14,4.86-6.57,9.22-10.22,13.16,11.32-8.28,16.61-14.28,33.32-21.76,6.62-5.11,13.1-10.15,18.44-14.35Z"></path> <path class="cls-2" d="m358.94,343.06c.37-.27,19.16-14.55,36.94-28.27-16.71,7.48-21.99,13.49-33.32,21.76-5.7,6.14-11.95,11.25-18.55,15.55,5.32-2.66,10.35-5.72,14.93-9.04Z"></path> <path class="cls-54" d="m395.88,314.79c-17.78,13.73-36.57,28.01-36.94,28.27-4.57,3.32-9.6,6.38-14.93,9.04-5.83,3.8-11.93,6.98-18.14,9.68,31.03-10.29,115.32-58.41,127.5-77.29,14.16-21.93,2.74-47.28-11.44-56.44-.7-.45-1.36-.83-2-1.18-1.52,2.74-3.16,5.43-4.87,8.08-2.49,3.85-5.12,7.63-7.75,11.41-3.59,9.84-7.08,19.74-3.32,30.87.45,1.34.73,2.59.85,3.76,2.07.87,4.09,1.92,6.04,3.17,4.36,2.81,2.91,7.66,1.95,9.15s-2.32,2.34-4.08,3.05c-6.16,6.29-27.82,16.24-29.68,17.03-1.11.47-2.16.93-3.18,1.38Zm40.83-56.75c2.45-6.76,5.77-15.01.9-21.64.32.19.64.38.95.58,14.49,9.35,15.76,33.74,7.84,46-1.89,2.93-2.47,4.02-7.05,1.06-8.03-5.19-5.9-17.03-2.64-26Z"></path> <path class="cls-20" d="m399.06,313.41c1.86-.79,23.53-10.74,29.68-17.03-3.54,1.42-8.59,1.99-14.42,4.06-5.34,4.21-11.82,9.24-18.44,14.35,1.02-.46,2.07-.92,3.18-1.38Z"></path> <path class="cls-8" d="m335.82,376.69c-7.91,1.46-15.81,3.06-23.67,5.77-4.15,2.23-8.24,3.9-12.22,5.19,11.29-.35,22.5-2.1,33.75-4.34.59-2.19,1.3-4.44,2.15-6.62Z"></path> <path class="cls-2" d="m330.89,397.42c.11-.17.78-6.74,2.78-14.1-11.25,2.24-22.46,3.99-33.75,4.34-21.63,6.99-40.09,2.66-48.28,15.34-.78,1.21-1.41,2.57-1.85,4.09,2.32,6.23,2.81,11.78,2.44,16.26.77-1.74,1.65-3.37,2.62-4.88,19.62-30.39,70.19-11.99,76.04-21.05Z"></path> <path class="cls-37" d="m361.35,377.32c4.18-.9,8.51-1.24,12.87-1.25,8.02-3.14,16.07-3,22-.14-1.3-9.03,2.09-13.74,2.58-21.72-14.76,7.53-26,12.97-26.83,13.32-12.01,5.04-24.1,6.93-36.16,9.16-.85,2.18-1.56,4.44-2.15,6.62,9.18-1.83,18.38-3.99,27.68-5.99Z"></path> <path class="cls-34" d="m262.66,444.67c13.22,8.53,26.43-5.78,34.43-18.17.56-.87,1.24-1.96,1.36-2.15,10.48-16.24,32.86-19.38,51.46-14.84-1.4-5.39.67-11.06,3.95-16.14,5.69-8.81,13.01-14.42,20.36-17.3-4.36,0-8.69.35-12.87,1.25-9.3,2-18.51,4.16-27.68,5.99-2,7.36-2.67,13.93-2.78,14.1-5.85,9.06-56.42-9.34-76.04,21.05-.97,1.51-1.85,3.13-2.62,4.88-.38,4.64-1.68,8.12-2.82,9.98.47.27.93.53,1.38.82,6.22,4.01,6.65,7.16,11.87,10.53Zm29.43-35.32c1.24.8,2.08,2.65.7,4.81-.07.11-7.59,8.09-10.97,13.32-2.04,3.15-4.03,7.55-4.25,7.89-3.4,5.26-7.32,5.09-11.77,2.21-4.88-3.15-5.9-8.96-4.16-14.11,7.07-6.66,26.51-16.66,30.45-14.12Z"></path> <path class="cls-62" d="m374.22,376.08c7.6-.01,15.28,1.01,22.38,1.96-.15-.73-.28-1.43-.38-2.1-5.93-2.86-13.98-3-22,.14Z"></path> <path class="cls-10" d="m396.6,378.04c-7.1-.95-14.78-1.97-22.38-1.96-7.34,2.87-14.67,8.49-20.36,17.3-3.28,5.09-5.35,10.76-3.95,16.14-18.6-4.54-40.98-1.4-51.46,14.84-.12.19-.8,1.28-1.36,2.15-8,12.39-21.21,26.7-34.43,18.17-5.22-3.37-5.65-6.51-11.87-10.53-.45-.29-.92-.56-1.38-.82-.04.07-.09.15-.13.21-.7,1.09-1.45,1.94-2.22,2.61,2.82,7.28,7.61,13.61,13.69,17.53,30.89,19.94,44.18-29.56,55.76-22.37.16.1.32.19.48.29,11.95-1.94,24.81,11.6,33.24,2.2,11.8-13.15,25.72-20.5,43.61-22.04,4.19-.36,6.85-2.08,8.45-4.56,1.73-2.68,2.19-6.58,2-10.46-4.42-8-6.69-13.94-7.69-18.7Z"></path> <path class="cls-34" d="m202.31,391.13c-.66-2-1.46-4-2.39-5.97-25.25.17-32.4-34.89-74.69-8.3,1.04,1.12,2.11,2.2,3.21,3.26,15.75,5.78,50.92,20.46,73.86,11Zm-55.7-10.76c-2.49-1.61-2.2-3.56-1.77-4.22.65-1.01,2.2-.99,3.85-.6,8.95-3.87,18.13-.22,26.03,4.88,7.67,4.95,7.61,5.45,6.75,6.8-3.17,4.91-31.08-4.43-34.85-6.86Z"></path> <path class="cls-52" d="m202.31,391.13c1.94-.8,3.8-1.78,5.55-2.94-.53-1.26-1.08-2.51-1.66-3.75-2.22.49-4.3.71-6.28.73.93,1.97,1.73,3.96,2.39,5.97Z"></path> <path class="cls-1" d="m178.64,360.95c4.64,1.49,8.83,3.64,12.73,6.15,3.19,2.06,6.3,4.6,9.23,7.4-3.09-4.48-6.84-8.43-11.59-11.5-8.44-5.45-16.12-8.28-23.2-9.27,3.99,1.81,7.84,3.95,11.56,6.36.43.28.84.57,1.27.86Z"></path> <path class="cls-6" d="m178.64,360.95c-.42-.29-.83-.58-1.27-.86-3.72-2.4-7.57-4.55-11.56-6.36-18.64-2.61-33.03,7.61-45.89,16.83.63.83,1.28,1.63,1.93,2.44,25.43-15.02,43.06-16.44,56.78-12.05Z"></path> <path class="cls-59" d="m207.85,388.18c-1.75,1.17-3.6,2.14-5.55,2.94,1.29,3.9,2.09,7.84,2.44,11.73,2.64-.6,5.26-1.34,7.83-2.25-1.49-4.16-3.01-8.35-4.73-12.42Z"></path> <path class="cls-2" d="m202.31,391.13c-22.94,9.46-58.11-5.22-73.86-11,4.07,3.94,8.53,7.48,13.28,10.55,18.64,12.04,41.71,17.04,63.02,12.19-.35-3.89-1.15-7.83-2.44-11.73Z"></path> <path class="cls-42" d="m178.64,360.95c10.16,6.87,17.09,15.31,21.28,24.21,1.97-.01,4.06-.24,6.28-.73-1.63-3.49-3.46-6.84-5.59-9.93-2.93-2.81-6.04-5.35-9.23-7.4-3.9-2.52-8.09-4.67-12.73-6.15Z"></path> <path class="cls-27" d="m199.92,385.16c-4.19-8.91-11.11-17.34-21.28-24.21-13.73-4.4-31.36-2.97-56.78,12.05,1.09,1.32,2.21,2.61,3.38,3.87,42.29-26.59,49.43,8.47,74.69,8.3Z"></path> <path class="cls-34" d="m82.48,302.03c-10.81-15.49-22.25-30.58-26.77-48.5,2.49-6.91,4.43-13.89,5.49-20.89-1.92-6.05-4.69-12.34-8.85-18.85-7.46,19.59-25.99,47.36,39.27,116.54,6.27,6.64,13.91,13.32,20.38,20.51.43.08.87.16,1.29.23-15.78-18.75-25.28-34.82-30.81-49.03Z"></path> <path class="cls-52" d="m61.2,232.64c.98-6.44,1.22-12.89.46-19.33-1.3-1.31-2.65-2.59-4.06-3.82-1.18.34-2.47.4-3.87.26-.38,1.31-.85,2.65-1.38,4.03,4.15,6.52,6.92,12.8,8.85,18.85Z"></path> <path class="cls-30" d="m73.73,247.3c0,6.65.62,13.36,1.81,19.96-.19-11.89,1.63-22.58,2.94-32.99-4.67-6.67-9.9-13.9-16.27-20.4,4.65,17.22,11.51,23.55,11.52,33.43Z"></path> <path class="cls-2" d="m61.2,232.64c-1.06,7.01-2.99,13.99-5.49,20.89,4.52,17.93,15.96,33.01,26.77,48.5-.8-2.06-1.51-4.07-2.15-6.05-17.54-17.43-11.22-38.44-19.13-63.35Z"></path> <path class="cls-39" d="m80.33,295.98c-3.39-10.47-4.64-19.93-4.79-28.73-1.19-6.6-1.81-13.31-1.81-19.96,0-9.88-6.87-16.21-11.52-33.43-.18-.19-.37-.37-.56-.56.76,6.44.52,12.89-.46,19.33,7.91,24.9,1.59,45.92,19.13,63.35Z"></path> <path class="cls-11" d="m53.73,209.75c-1.52-.15-3.15-.54-4.87-1.04,1.26,1.71,2.43,3.4,3.49,5.07.53-1.38,1-2.72,1.38-4.03Z"></path> <path class="cls-43" d="m52.35,213.78c-1.07-1.68-2.23-3.37-3.49-5.07-4.26-1.24-9.05-3.22-13.93-4.22,3.44,7.84,3.13,10.03-2.07,18.09-3.83,5.93-8.74,12.06-12.78,18.33-10.46,16.2-11.39,30.73,5.42,41.59,3.35,2.16,8.64,4.41,18.53,10.8,17.86,11.53,39.58,31.73,48.67,52.33,7.2,2.51,13.58,4.17,19.3,5.2-6.46-7.19-14.11-13.86-20.38-20.51-65.26-69.18-46.72-96.95-39.27-116.54Zm-5.05,76.51s-3.58-3.15-7.18-5.47c-3.4-2.19-6.95-4.07-10.32-6.24-8.55-5.52-9.27-12.21-5.67-17.78.87-1.34,1.97-2.52,3.24-3.49,3.15-.84,6.97-.14,9.71,1.63,3.99,2.57,15.83,28.07,14.09,30.77-.94,1.46-2.43,1.52-3.87.59Z"></path> <path class="cls-19" d="m110.1,269.18c1.68,1.09,3.17,2.2,4.53,3.35-.94-1.41-1.87-2.83-2.8-4.27-4.99-4.25-10.84-9.08-17.77-14.6-5.07-4.04-9.91-11.29-15.58-19.39-.54,4.34-1.18,8.74-1.72,13.25,2.45,3.07,5.63,5.5,8.98,7.67,9.35,6.04,17.56,9.61,24.36,14Z"></path> <path class="cls-53" d="m152.59,307.48c11.87,7.66,28.82,14.8,44.58,20.54-14.8-7.02-30.57-12.21-41.38-19.19-15.39-9.94-12.46-13.74-43.95-40.57.93,1.44,1.86,2.86,2.8,4.27,10.17,8.56,13.52,19.17,37.96,34.95Z"></path> <path class="cls-46" d="m114.63,272.53c11.75,17.62,24.56,32.56,41.54,45.12,3.63,1.58,6.39,2.55,6.43,2.58.98.63,2.56,2.02,1.92,3.18,20.87,13.42,44.8,21.37,69.55,20.69-7.42-.99-14.45-3.02-20.51-6.94-.23-.15-1.03-.68-1.78-1.17-4.59-2.97-9.54-5.57-14.6-7.97-15.76-5.74-32.71-12.88-44.58-20.54-24.44-15.78-27.8-26.39-37.96-34.95Z"></path> <path class="cls-2" d="m260.22,355.48c-1.63-2.61-3.5-5.12-5.57-7.5-3.25-1.59-6.56-2.99-10.28-3.1-3.48-.1-6.94-.33-10.32-.79-24.75.68-48.68-7.27-69.55-20.69-.01.02-.02.05-.04.07-2.98,4.62-33.35-4.95-37.35-7.53-15.91-10.27-13.88-24.14-19.94-32.05,3.5-1.68,8.13-.39,11.77,1.96,6.67,4.31,9.68,15.39,26.46,26.22,3.38,2.18,7.43,4.12,10.75,5.57-16.98-12.56-29.79-27.5-41.54-45.12-1.37-1.15-2.85-2.27-4.53-3.35-6.8-4.39-15-7.96-24.36-14-3.36-2.17-6.53-4.6-8.98-7.67-.36,2.98-.67,6.02-.9,9.13,24.9,18.08,23.98,50.46,44.55,63.73,24,15.5,53.06,5.12,91.95,30.22,14.33,9.25,26.61,21.69,31.59,36.39,6.13-3.34,13.96-5.78,22.83-8.06.39-8.6-2.19-16.42-6.56-23.44Z"></path> <path class="cls-53" d="m162.6,320.22s-2.79-1-6.43-2.58c2.6,1.93,5.3,3.8,8.11,5.62.08.05.15.1.23.14.65-1.16-.93-2.55-1.92-3.18Z"></path> <path class="cls-19" d="m156.17,317.65c-3.32-1.44-7.38-3.39-10.75-5.57-16.78-10.83-19.79-21.91-26.46-26.22-3.64-2.35-8.27-3.64-11.77-1.96,6.06,7.91,4.03,21.78,19.94,32.05,4,2.58,34.37,12.14,37.35,7.53.02-.02.02-.05.04-.07-.08-.05-.15-.1-.23-.14-2.81-1.82-5.51-3.69-8.11-5.62Z"></path> <path class="cls-44" d="m303.45,334.65c11.39-.44,23.02.17,26.87,2.66.29.18.52.34.73.48,11.13-1.33,21.44-5.82,31.19-11.82-1.57.35-3.16.64-4.8.84-7.82.95-23.16.39-42.56-1.69-17.02.85-31.1,1.14-42.87,1.01,9.18,2.55,19.59,5.37,31.43,8.52Z"></path> <path class="cls-2" d="m331.05,337.78c1.08.72,1.22.99.61,1.94-4.33,6.7-29.85,14.45-53.99,3.55-1.27-1.26-1.29-2.77-.24-4.4,1.27-1.97,13.5-3.74,26.02-4.23-11.84-3.14-22.26-5.97-31.43-8.52-65.48-.71-58.64-14.55-79.64-19.03,23.37,13.01,53.32,28.93,53.32,28.93.37.24,1.8,1.34,3.64,3.04,35.93,13.34,73.93,32.26,113.71-13.27-.26.06-.53.11-.8.17-9.75,6-20.07,10.49-31.19,11.82Z"></path> <path class="cls-19" d="m303.45,334.65c-12.52.49-24.74,2.26-26.02,4.23-1.05,1.63-1.04,3.14.24,4.4,24.14,10.9,49.66,3.15,53.99-3.55.62-.95.48-1.22-.61-1.94-6.87.82-14.05.45-21.6-1.55-2.05-.54-4.04-1.07-6-1.59Z"></path> <path class="cls-53" d="m303.45,334.65c1.97.52,3.96,1.05,6,1.59,7.55,1.99,14.73,2.37,21.6,1.55-.21-.14-.45-.29-.73-.48-3.85-2.49-15.49-3.1-26.87-2.66Z"></path> <path class="cls-52" d="m314.88,325.11c-31.59-3.38-73.92-10.79-112.07-22.19,8.99,4.84,24.39,10.76,69.2,23.21,11.77.13,25.85-.16,42.87-1.01Z"></path> <path class="cls-34" d="m202.82,302.92c-15.51-4.64-30.32-9.93-43.44-15.89,2.98,2.14,6.01,4.22,9.11,6.22,4.64,2.99,13.63,8.14,23.88,13.85,21,4.48,14.16,18.32,79.64,19.03-44.8-12.45-60.21-18.36-69.2-23.21Z"></path> <path class="cls-14" d="m89.44,181.88c2.39,5.05,5.14,9.95,8.43,14.59-.49-1.28-.86-2.63-1.07-4.08-3.52-25.13-15.48-60.02-19.22-85.95-5.01-2.39-10.44-1.44-15.41,1.38,18.97,28.89,24.06,52.94,27.26,74.06Z"></path> <path class="cls-31" d="m96.89,220.75c.77-5.89,2.77-11.83,4.71-17.74-1.51-2.05-2.83-4.18-3.73-6.54-3.29-4.64-6.04-9.54-8.43-14.59,2.13,14.07,3.44,26.84,7.45,38.87Z"></path> <path class="cls-26" d="m62.18,107.82c-1.14.65-2.25,1.4-3.33,2.22,15.91,19.35,19.03,47.35,30.59,71.84-3.2-21.12-8.29-45.17-27.26-74.06Z"></path> <path class="cls-48" d="m96.78,221.54c.03-.26.08-.52.11-.78-4.02-12.03-5.32-24.8-7.45-38.87-11.57-24.49-14.68-52.5-30.59-71.84-3.43,2.62-6.51,6.06-8.9,9.75-.24.37-.49.78-.75,1.23,50.58,41.18,5.98,85.56,62.71,125.66-6.98-7.8-11.37-15.76-14.36-24.05-.25-.36-.51-.72-.76-1.09Z"></path> <path class="cls-16" d="m225.66,191.22c-2.79-2.8-5.02-4.86-6.47-5.8-1.24-.8-2.49-1.54-3.73-2.34-4.53-2.92-6.32-5.78-6.32-5.78,0,0-20.29-5.67-33.63-14.28-17.44-11.26-18.32-21.8-30.46-29.64-1.96-1.27-4.07-2.29-6.35-2.96.35,1.79.65,3.58.89,5.39,13.11,9.22,19.17,22.95,31.79,31.1,14.6,9.43,36.42,14.74,54.29,24.32Z"></path> <path class="cls-55" d="m337.83,255.21c-5.05-1.69-9.72-3.45-13.17-4.89-4.17-1.33-8.44-2.55-12.74-3.79-2.97-.41-5.55-.69-6.56-1.34-.39-.25-.73-.61-1.09-.91-.41-.13-.82-.25-1.23-.38-4.22-.63-22.31-3.54-30.88-9.08-15.8-10.2-35.51-32.59-46.49-43.59-17.87-9.58-39.69-14.89-54.29-24.32-12.62-8.15-18.68-21.87-31.79-31.1.25,1.84.44,3.69.57,5.55,2.72.85,5.35,1.94,7.72,3.47,10.31,6.66,17.55,22.95,29.54,30.68,9.13,5.9,22.93,5.93,35.8,14.24,10.26,6.62,26.18,27.56,45.71,40.17,19.29,12.45,60.77,21.11,87.85,29.92-2.85-1.75-5.84-3.26-8.92-4.63Z"></path> <path class="cls-48" d="m225.66,191.22c10.98,11,30.7,33.39,46.49,43.59,8.57,5.54,26.66,8.45,30.88,9.08-10-3.09-19.98-6.79-29.2-12.74-12.54-8.1-23.81-19.8-33.88-30.51-2.69-2.04-5.04-3.83-7.8-5.61-2.09-1.35-4.27-2.61-6.5-3.81Z"></path> <path class="cls-57" d="m175.51,163.02c13.34,8.61,33.63,14.28,33.63,14.28,0,0,1.79,2.85,6.32,5.78,1.24.8,2.49,1.55,3.73,2.34,1.46.94,3.68,3,6.47,5.8,2.24,1.2,4.41,2.46,6.5,3.81,2.76,1.78,5.1,3.57,7.8,5.61-9.15-9.74-17.3-18.66-24.47-23.29-12.87-8.31-31.26-10.9-37.64-15.02-5.74-3.7-21.28-25.82-41.64-41.55,1.02,3.16,1.84,6.38,2.48,9.64,2.28.68,4.39,1.7,6.35,2.96,12.14,7.84,13.02,18.38,30.46,29.64Z"></path> <path class="cls-4" d="m412.01,205.75c6.9-3.39,14.15-6.3,21.31-8.12,1.67-5.66,3.11-11.03,4.27-15.84,0-.13.02-.26.03-.39-.99.75-1.97,1.49-2.93,2.23-.5.98-1.05,1.93-1.65,2.86-4.23,6.55-12.23,12.64-21.03,19.26Z"></path> <path class="cls-22" d="m433.32,197.63c-7.16,1.82-14.41,4.73-21.31,8.12-11.08,8.33-23.44,17.5-31.18,29.5-13.16,20.38-6.48,34.2-4.54,48.14.45-.12.88-.25,1.28-.39,2.69-.92,5.43-1.76,8.19-2.49,9.59-7.04,17.63-16.14,24.28-26.44,9.08-14.07,17.53-36.92,23.28-56.44Zm-46.05,74c-.83-.53-4.9-16.34,6.07-33.33,5.46-8.46,13.4-15.63,22.04-20.74,4.29,10.71,1.55,20.21-4.05,28.87-4.23,6.55-21.99,26.54-24.07,25.2Z"></path> <path class="cls-31" d="m412.01,205.75c-12.3,6.04-23.45,13.58-30.84,19.04-4.91,11.07-10.35,23.62-15,31.45,8.05,10.73,8.25,18.97,4.23,28.15,2.23-.22,4.2-.54,5.89-1-1.94-13.94-8.62-27.77,4.54-48.14,7.74-12,20.1-21.17,31.18-29.5Z"></path> <path class="cls-14" d="m433.04,186.49c.6-.93,1.15-1.88,1.65-2.86-25.67,19.46-41.35,30.75-51.84,37.41-.55,1.22-1.11,2.48-1.67,3.75,7.38-5.46,18.53-12.99,30.84-19.04,8.8-6.62,16.8-12.71,21.03-19.26Z"></path> <path class="cls-35" d="m435.95,197.01c.73-5.07,1.27-10.15,1.65-15.22-1.16,4.8-2.61,10.18-4.27,15.84.88-.22,1.75-.43,2.63-.62Z"></path> <path class="cls-9" d="m435.95,197.01c-.87.19-1.75.4-2.63.62-5.75,19.52-14.19,42.37-23.28,56.44-6.65,10.3-14.69,19.4-24.28,26.44,4.78-1.27,9.62-2.22,14.42-2.67,5.08-5.23,9.57-10.94,13.49-17.02,11.23-17.39,17.96-37.82,21.48-58.7.29-1.7.55-3.4.79-5.11Z"></path> <path class="cls-33" d="m194.18,114.84c-7.26,7.58-15.22,9.23-19.13,9.56,3.69,1.65,7.43,3.5,11.22,5.51.42-.42.82-.85,1.23-1.28.15-.22.3-.44.44-.66,2.88-4.46,4.79-8.87,6.24-13.13Z"></path> <path class="cls-29" d="m201.33,104.71c-.89,1.59-1.76,3.07-2.5,4.22-1.48,2.29-3.05,4.24-4.64,5.91-1.45,4.27-3.36,8.67-6.24,13.13-.14.22-.29.44-.44.66,5.07-5.28,9.59-11.18,13.91-17.19-.12-2.26-.15-4.51-.08-6.74Z"></path> <path class="cls-47" d="m194.18,114.84c3.41-10.05,4.24-19.32,8.98-26.67,1.3-2.01,2.88-3.81,4.83-5.3.12-.14.24-.29.36-.43-10.75,3.96-20.36,12.68-26.97,22.91-4.17,6.46-6.05,12.04-9.13,17.83.93.39,1.86.8,2.79,1.22,3.91-.33,11.87-1.98,19.13-9.56Z"></path> <path class="cls-21" d="m194.18,114.84c1.6-1.67,3.16-3.62,4.64-5.91.74-1.15,1.61-2.63,2.5-4.22.26-7.43,1.78-14.53,5.47-20.25.37-.57.77-1.09,1.19-1.58-1.96,1.5-3.54,3.29-4.83,5.3-4.74,7.34-5.57,16.61-8.98,26.67Z"></path> </g> </g> </svg> 