<?xml version="1.0" encoding="UTF-8"?> <svg xmlns="http://www.w3.org/2000/svg" id="Layer_2" data-name="Layer 2" viewBox="0 0 553.38 378.67"> <defs> <style> .cls-1 { fill: #9795a4; } .cls-2 { fill: #736c75; } .cls-3 { fill: #8d868f; } .cls-4 { fill: #9896a4; } .cls-5 { fill: #88838e; } .cls-6 { fill: #b2b1be; } .cls-7 { fill: #b7b9c7; } .cls-8 { fill: #cac9d3; } .cls-9 { fill: #978c95; } .cls-10 { fill: #b5b5c5; } .cls-11 { fill: #716b74; } .cls-12 { fill: #79737a; } .cls-13 { fill: #8c8790; } .cls-14 { fill: #9998a6; } .cls-15 { fill: #89848e; } .cls-16 { fill: #d3d5df; } .cls-17 { opacity: .61; } </style> </defs> <g id="clipping_mask" data-name="clipping mask"> <g class="cls-17"> <path class="cls-9" d="m338.17,326.32c-.69-1-1.73-2.46-3.24-4.22-2.95-3.55-7.7-8.44-14.62-13.17-6.91-4.71-15.96-9.3-26.67-12.36-10.69-3.14-22.94-4.68-35.67-4.66-12.75,0-24.76,1.3-35.58,2.71-2.09.29-4.15.57-6.15.84,6.18-2.93,12.43-5.95,18.71-9.03,28.8-14.1,55.85-28.58,80-42.86,7.69-2.98,16.17-5.89,25.24-8.34,9.69-2.52,19.05-4.38,27.65-5.73,4.33-.56,8.42-1.22,12.28-1.51,1.94-.18,3.8-.43,5.61-.54,1.8-.11,3.54-.21,5.17-.32,3.31-.28,6.31-.24,8.95-.34,2.64-.11,4.92-.08,6.79-.04,3.73.04,5.81.05,5.81.05,0,0-2.05-.36-5.73-.99-1.84-.34-4.11-.69-6.76-.94-2.64-.28-5.67-.7-9.04-.81-1.67-.07-3.44-.15-5.27-.25-1.84-.07-3.74-.01-5.74,0-3.97-.08-8.18.25-12.66.54-8.88.8-18.64,2.33-28.63,4.94-.15.05-.3.09-.45.14,16.85-10.72,31.75-21.32,43.96-31.77,8.43-7.21,15.64-14.19,21.49-20.75,5.83-6.6,10.55-12.54,13.98-17.71,1.81-2.5,3.18-4.9,4.41-6.92,1.28-2.01,2.21-3.79,2.94-5.26,1.47-2.91,2.16-4.47,1.97-4.56-.47-.27-3.86,5.64-11.28,15.32-3.65,4.88-8.58,10.5-14.54,16.77-6.01,6.22-13.3,12.87-21.75,19.72-16.91,13.78-38.85,27.87-63.89,42.42-.94.54-1.88,1.1-2.85,1.65-.49.2-.95.42-1.42.61-4.05,1.89-7.92,3.65-11.37,5.6-1.75.96-3.45,1.81-5.03,2.76-1.58.96-3.08,1.88-4.52,2.77-2.43,1.55-4.62,3.01-6.57,4.39-.01.03-.05.05-.07.06-16.29,8.78-33.5,17.62-51.39,26.38-12.85,6.32-25.5,12.37-37.85,18.18-.23.03-.45.09-.67.14-1.57.34-3.08.73-4.5,1.13,8.47-5.39,18.04-12.4,27.31-21,6.74-6.27,12.82-12.5,17.95-18.78,5.09-6.26,8.93-12.67,11.06-18.52,2.22-5.87,2.57-11.07,2.2-14.53-.11-.85-.22-1.63-.32-2.27-.16-.66-.32-1.22-.47-1.64-.3-.86-.58-1.29-.78-1.25-.21.02-.37.51-.47,1.39-.04.43-.08.99-.1,1.61-.08.62-.15,1.34-.25,2.14-.37,3.18-1.33,7.72-3.82,12.84-2.43,5.14-6.31,10.81-11.38,16.57-5.06,5.73-11.24,11.81-17.79,17.9-13.15,12.22-25.98,22.28-35.58,29.28-4.78,3.52-8.77,6.22-11.5,8.1-.78.53-1.46,1-2.04,1.39-5.55,2.54-11.02,5.05-16.37,7.52-13.19,6.06-25.72,11.79-37.46,17.19-11.72,5.39-22.68,10.32-32.78,14.52-20.21,8.48-37.21,13.61-49.17,16.26-.22.05-.42.1-.64.15-4.96.41-10.39.6-16.19.47l-10.62-.27,9.45,5.18c.32.17.65.35,1.05.51,1.48.72,3.25,1.31,5.16,1.64,2.37.43,4.95.45,7.59.19,5.29-.49,10.63-2.03,15.96-3.67,5.38-1.66,10.69-3.14,15.7-4.86,4.93-1.99,9.68-3.91,14.22-5.73,8.94-3.76,16.85-7.26,23.56-10.36,6.4-2.96,11.45-6.03,14.68-8.61,1.24-.53,2.48-1.06,3.72-1.59,11.88-5.1,24.54-10.55,37.9-16.3,16.45-7.19,33.89-14.89,51.95-23.24,6.57-.82,14.07-1.51,22.11-2.38,10.78-1.08,22.59-2.19,34.92-2.19,12.35,0,24.02,1.09,34.37,3.54,10.36,2.37,19.28,6.04,26.37,9.93,7.06,3.93,12.19,8.13,15.54,11.23,1.69,1.53,2.91,2.84,3.72,3.73.85.87,1.28,1.33,1.28,1.33,0,0-.36-.51-1.07-1.5Z"></path> <g> <path class="cls-16" d="m297.32,158.84c1.08-2.28,2.38-4.45,3.46-6.73,7.71-16.24,13.86-38.91,18.33-62.98-2.16,6.25-4.67,12.36-7.5,18.31-5.11,10.77-11.04,16.16-17.4,27.71-1.02-11.09-3.63-22.71-5.77-35.05.28,13.48-.6,25.44-1.31,26.93-.27.56-.73.93-1,1.49,0,0,.03,7.94-3.67,15.73-1.9,3.99-5.14,8.56-8.06,12.32,6.18-21.8,2.55-52.88-.39-70.46-1.44,14.97-2.92,31.79-3.46,32.93-.59,1.24-2.33,18.64-5.66,25.66-3.51,7.39-8.8,14.15-12.31,21.56-.65,1.37-1.17,2.78-1.63,4.21.33-20.19,4.4-43.9,8.03-61.04-11.86,26.86-21.02,65.36-21.29,90.21-4.61-18.57-5.96-49.67.23-78.45-16.02,43.6-11.15,72.22-6.4,96.07-1.94-2.93-3.01-5.29-3.73-7.48-5.64-20.39-11.89-60.04,1.37-97.73-3.39,4.82-6.49,9.81-8.93,14.95-10.48,22.09-11.14,57.63-6.71,86.98.65,4.3,1.4,8.47,2.25,12.44,4.97,9.96,10.6,20.58,16.37,32.27,4.68-.85,9.33-1.81,13.94-2.94,10.91-11.18,21.4-26.43,32.42-49.65,9.14-19.25,18.65-46.95,18.8-47.25Z"></path> <path class="cls-10" d="m311.62,107.44c2.82-5.94,5.33-12.06,7.5-18.31,5.05-27.12,7.96-56.01,8.48-79.51-.33-3.2-.62-6.41-.83-9.62-.71,1.29-1.5,2.51-2.24,3.77-.26,14.24-9.86,42.41-10.86,44.52-.76,1.61-4.02,7.47-7.21,11.83,2.48-6.98,3.83-14.47,4.63-22.06-2.26,3.88-4.91,7.59-6.83,11.64-2.44,5.14-3.42,10.89-5.8,15.91-.65,1.38-1.92,3.02-3.44,4.4,1.42-5.29,2.13-11.96,2.6-18.24-5.21,7.48-11.97,15.56-12.93,17.17-.47.78-1.17,1.45-1.93,2.08.19-.91.39-1.79.58-2.72.1-.5.31-1,.55-1.5.11-.24.23-.48.35-.72.38-.8,2.95-11.72,4.04-18.44-4.54,4.2-9.11,8.16-13.61,11.88,0,0,0,.01-.01.02-1.9,4-2.01,11.1-2.1,11.29-.29.6-.76,1.06-1.12,1.83,0,0,1.22,5.27,2.59,13.46,2.94,17.58,6.57,48.66.39,70.46,2.92-3.75,6.17-8.32,8.06-12.32,3.7-7.79,3.67-15.73,3.67-15.73.27-.57.73-.93,1-1.49.71-1.49,1.59-13.45,1.31-26.93,2.14,12.34,4.75,23.96,5.77,35.05,6.36-11.56,12.29-16.94,17.4-27.71Z"></path> <path class="cls-14" d="m306.45,60.12c3.18-4.36,6.45-10.22,7.21-11.83,1.01-2.12,10.6-30.29,10.86-44.52-10.08,17.16-23,31.61-36.25,43.86-1.09,6.72-3.65,17.63-4.04,18.44-.11.24-.23.48-.35.72-.24.5-.45.99-.55,1.5-.18.93-.39,1.81-.58,2.72.76-.64,1.46-1.3,1.93-2.08.96-1.61,7.72-9.69,12.93-17.17-.48,6.29-1.19,12.96-2.6,18.24,1.52-1.37,2.78-3.02,3.44-4.4,2.38-5.02,3.37-10.77,5.8-15.91,1.92-4.05,4.57-7.76,6.83-11.64-.81,7.59-2.15,15.08-4.63,22.06Z"></path> <path class="cls-10" d="m237.94,121.18c-6.19,28.78-4.84,59.88-.23,78.45.26-24.85,9.43-63.35,21.29-90.21-3.64,17.14-7.71,40.85-8.03,61.04.46-1.43.98-2.84,1.63-4.21,3.51-7.4,8.8-14.17,12.31-21.56,3.33-7.02,5.08-24.42,5.66-25.66.54-1.14,2.02-17.96,3.46-32.93-1.37-8.19-2.59-13.46-2.59-13.46.36-.77.84-1.23,1.12-1.83.09-.19.2-7.29,2.1-11.29,0,0,0-.01.01-.02-22.74,18.83-43.51,31.83-48.39,42.11-5.84,12.3-14.57,24.27-20.74,37.25-13.93,29.35-6.43,53.28,7.87,82.69.78,1.6,1.56,3.21,2.38,4.84-.85-3.97-1.6-8.14-2.25-12.44-4.42-29.35-3.77-64.89,6.71-86.98,2.44-5.14,5.54-10.13,8.93-14.95-13.26,37.69-7.02,77.34-1.37,97.73.72,2.19,1.79,4.55,3.73,7.48-4.75-23.85-9.62-52.47,6.4-96.07Z"></path> <path class="cls-5" d="m327.59,9.62c-.97,44.34-10.42,107.95-26.81,142.49-1.08,2.28-2.38,4.45-3.46,6.73-.06.13-1.91,5.48-4.73,13.07,13.07-9.38,25.1-20.46,31.59-34.13,9.82-20.69,2.75-42.04,1.55-48,9.9,20.88,5.57,40.44-2.8,58.08-3.75,7.9-7.04,13.99-9.89,18.76,7.62-4.93,12.82-13.81,18.24-25.23.25-.54.45-1.08.67-1.62-1.17,5.42-3.12,11.52-6.53,18.69-4.12,8.69-12.58,21.29-21.43,31.58,8.03-4.83,14.54-11.22,20.04-18.16-5.1,8.44-10.48,15.3-15.88,20.92,4.85-2.72,9.56-6.36,13.6-9.88-7.66,9.88-21.4,23.54-38.43,35.53,13.09-5.4,28.14-13.38,41.59-22.69.37-.74.77-1.44,1.13-2.2,31.53-66.43,7.62-124.66,1.55-183.94Z"></path> <path class="cls-11" d="m266.22,229.18c-6.7,11.05-13.33,19.59-20.12,26.55,31.4-7.69,60.43-23.03,78.81-59.97-13.45,9.31-28.5,17.29-41.59,22.69,17.02-11.99,30.77-25.65,38.43-35.53-4.05,3.52-8.75,7.16-13.6,9.88,5.4-5.62,10.78-12.48,15.88-20.92-5.5,6.94-12.01,13.33-20.04,18.16,8.85-10.28,17.31-22.89,21.43-31.58,3.4-7.17,5.35-13.27,6.53-18.69-.22.54-.41,1.08-.67,1.62-5.42,11.41-10.62,20.3-18.24,25.23,2.85-4.78,6.14-10.87,9.89-18.76,8.37-17.64,12.7-37.2,2.8-58.08,1.2,5.96,8.27,27.31-1.55,48-6.49,13.67-18.52,24.75-31.59,34.13-3.64,9.8-8.91,23.33-14.06,34.18-1.65,3.47-3.28,6.74-4.91,9.86-2.48,4.77-4.95,9.18-7.4,13.23Z"></path> </g> <g> <path class="cls-1" d="m464.43,72.94c-.76,1.14-1.59,2.51-2.39,3.99-9.59,8.64-35.85,70.46-48.24,86.63-.86,0-1.72-.03-2.58-.1,1.2-14.33,8.3-38,20.09-58.88-.91,2.64-1.63,5.14-2.2,7.34,3.11-7.22,8.37-13.76,11.47-16.34-2.64,3.62-3.56,7.99-3.29,11.47.69-5.14,3.56-9.47,6.63-13.06-.34,1.68-.05,3.31.17,4.84,2.15-5.55,4.89-12.68,5.15-12.93.93-.87,1.83-1.76,2.69-2.68-.23,1.35-.25,2.78-.21,3.92,4.71-8.15,9.7-12.22,12.71-14.22Z"></path> <path class="cls-7" d="m487,59.19c-.19.34-.37.69-.55,1.04-14.47,5.84-22.08,15.62-22.08,15.62-.27.09-.62.05-.9.13-.42.14-.91.46-1.44.94.8-1.48,1.64-2.85,2.39-3.99-3.01,2-7.99,6.07-12.71,14.22-.04-1.13-.02-2.57.21-3.92-.86.92-1.76,1.81-2.69,2.68-.27.25-3,7.37-5.15,12.93-.22-1.53-.51-3.16-.17-4.84-3.07,3.6-5.94,7.92-6.63,13.06-.26-3.48.65-7.85,3.29-11.47-3.1,2.57-8.36,9.11-11.47,16.34.57-2.2,1.29-4.7,2.2-7.34,10.56-18.71,24.88-35.19,42.1-40.69,1.82-.58,3.65-1.14,5.48-1.73,2.73-.87,5.45-1.82,8.12-2.98Z"></path> <path class="cls-15" d="m486.45,60.23c-5.6,10.9-9.3,29.28-15.52,47.6-3.65,10.75-8.17,21.47-14.44,30.65-.26.38-.52.74-.79,1.12-3.81,4.17-8.5,7.97-14.08,9.76-2.41.77-3.73.69-5.26.48,13.57-4.99,15.75-16.83,21.88-22.62-9.45,3.72-9.34,12.44-16.75,14.81-.92.3-1.88.53-2.85.68,14.14-6.11,12.99-19.62,18.78-24.28-1.04.04-1.73.05-1.81.08-2.96.95-5.87,7.12-9.58,11.63,3.95-7,8.28-18.31,14.73-22.18-.8.11-1.57.25-2.25.47-2.79.89-5.01,3.31-7.15,6.19,1.51-6,2.02-13.22,7.12-18.09-2.21,1.13-4.24,2.81-5.3,5.75-.9,2.48-1.83,4.55-2.76,6.28,1.47-5.52.69-11.66,2.23-17.49,1.76-3.17,3.41-5.99,4.9-8.3.23-.36.46-.7.68-1.03,2.17-3.24,3.98-5.32,5.26-5.73.28-.09.62-.05.9-.13,0,0,7.61-9.79,22.08-15.62Z"></path> <path class="cls-2" d="m450.41,108.54c.94-1.73,1.87-3.79,2.76-6.28,1.06-2.94,3.1-4.62,5.3-5.75-5.1,4.86-5.61,12.08-7.12,18.09,2.14-2.88,4.35-5.29,7.15-6.19.69-.22,1.45-.35,2.25-.47-6.45,3.87-10.78,15.18-14.73,22.18,3.72-4.51,6.62-10.68,9.58-11.63.08-.03.77-.04,1.81-.08-5.79,4.66-4.65,18.17-18.78,24.28.97-.15,1.92-.38,2.85-.68,7.41-2.37,7.3-11.09,16.75-14.81-6.13,5.79-8.31,17.62-21.88,22.62,1.53.21,2.85.29,5.26-.48,5.58-1.79,10.27-5.59,14.08-9.76-7.07,9.97-16.32,17.99-28.93,22.03-4.11,1.32-8.49,1.99-12.96,1.94,9.4-12.28,26.8-50.85,38.83-72.51-1.54,5.83-.76,11.97-2.23,17.49Z"></path> </g> <g> <path class="cls-16" d="m439.35,209.68c1.79-.18,3.57-.53,5.37-.7,12.79-1.26,29.55.09,46.82,2.91-4.73-.06-9.45.15-14.14.61-8.48.83-13.55,3.52-22.86,5,7.22,3.37,14.41,7.94,22.2,12.37-9-3.45-17.27-5.75-18.44-5.64-.44.04-.8.27-1.25.31,0,0-5.34-1.94-11.48-1.34-3.15.31-7.01,1.39-10.24,2.44,16.17,1.12,36.21,11.08,47.33,17.32-10.42-2.66-22.1-5.73-23-5.64-.97.1-13.11-2.94-18.64-2.4-5.82.57-11.65,2.49-17.49,3.07-1.08.11-2.15.11-3.23.08,13.67,4.67,30.61,7.67,43.03,9.37-20.95,1.48-49.08-1.67-65.87-7.51,11.38,7.6,31.99,16.03,52.86,18.83-33.22.23-51.31-9.98-66.21-18.95,1.5,2.02,2.83,3.31,4.13,4.32,12.36,8.73,37.53,22.53,66.11,22.73-4.07,1.11-8.17,1.99-12.22,2.39-17.4,1.71-41.49-6.46-60.17-16.54-2.74-1.48-5.36-2.99-7.83-4.53-5.5-5.76-11.28-12.12-17.76-18.83,1.7-2.94,3.48-5.84,5.35-8.67,10.17-4.64,22.97-8.01,41.26-9.8,15.17-1.49,36.11-1.19,36.35-1.21Z"></path> <path class="cls-10" d="m477.4,212.49c4.68-.46,9.41-.67,14.14-.61,19.48,3.17,39.63,8.2,55.57,13.54,2.08,1,4.16,1.97,6.28,2.89-1.04.16-2.05.4-3.08.6-9.65-3.27-30.93-3.63-32.6-3.47-1.27.12-6,.9-9.71,1.99,5.3.02,10.67.93,15.97,2.22-3.16.58-6.3,1.46-9.49,1.78-4.05.4-8.16-.33-12.11.06-1.09.11-2.5.56-3.79,1.25,3.9.33,8.56,1.46,12.91,2.66-6.3,1.69-13.37,4.29-14.69,4.54-.64.12-1.26.44-1.87.79.66.09,1.3.17,1.97.27.36.05.75.03,1.14,0,.19-.02.38-.04.57-.06.63-.06,8.6.85,13.39,1.75-3.93,2.04-7.7,4.16-11.29,6.28,0,0-.01,0-.02,0-3.15.31-7.95-1.33-8.1-1.32-.48.05-.9.25-1.5.31,0,0-3.25-2.1-8.43-5-11.12-6.24-31.16-16.2-47.33-17.32,3.23-1.06,7.1-2.14,10.24-2.44,6.14-.6,11.48,1.34,11.48,1.34.45-.04.8-.27,1.25-.31,1.17-.12,9.44,2.19,18.44,5.64-7.79-4.43-14.98-8.99-22.2-12.37,9.32-1.48,14.38-4.17,22.86-5Z"></path> <path class="cls-14" d="m508,227.43c3.7-1.09,8.44-1.86,9.71-1.99,1.67-.16,22.95.2,32.6,3.47-13.99,2.63-26.84,7.83-38.3,13.78-4.79-.89-12.75-1.81-13.39-1.75-.19.02-.38.04-.57.06-.39.04-.78.06-1.14,0-.67-.1-1.31-.18-1.97-.27.61-.36,1.23-.67,1.87-.79,1.32-.25,8.39-2.85,14.69-4.54-4.35-1.2-9.01-2.34-12.91-2.66,1.29-.69,2.71-1.14,3.79-1.25,3.96-.39,8.06.34,12.11-.06,3.19-.31,6.33-1.2,9.49-1.78-5.31-1.3-10.67-2.2-15.97-2.22Z"></path> <path class="cls-10" d="m450.32,258.75c-20.87-2.8-41.48-11.24-52.86-18.83,16.79,5.84,44.92,8.99,65.87,7.51-12.41-1.7-29.36-4.7-43.03-9.37,1.07.04,2.15.03,3.23-.08,5.83-.57,11.67-2.5,17.49-3.07,5.53-.54,17.66,2.49,18.64,2.4.9-.09,12.57,2.99,23,5.64,5.18,2.9,8.43,5,8.43,5,.61-.06,1.03-.27,1.5-.31.15-.01,4.95,1.63,8.1,1.32,0,0,.01,0,.02,0-18.18,10.75-31.95,21.58-40.05,22.38-9.69.95-19.86,3.93-30.09,4.94-23.13,2.27-37.42-8.57-53.75-25.31-.89-.91-1.78-1.83-2.68-2.77,2.47,1.53,5.09,3.05,7.83,4.53,18.68,10.08,42.76,18.25,60.17,16.54,4.05-.4,8.16-1.28,12.22-2.39-28.58-.2-53.76-14-66.11-22.73-1.3-1.02-2.63-2.31-4.13-4.32,14.9,8.97,32.99,19.17,66.21,18.95Z"></path> <path class="cls-5" d="m547.11,225.42c-30.08-10.08-75.18-19.12-102.39-16.45-1.79.18-3.57.53-5.37.7-.1.01-4.15-.04-9.94.02,9.48-6.53,19.85-11.94,30.62-13,16.3-1.6,28.96,8.33,32.68,10.58-11.66-11.71-25.87-13.54-39.77-12.17-6.22.61-11.12,1.35-15.02,2.11,5.16-3.94,12.4-5.29,21.39-6.17.42-.04.83-.04,1.25-.06-3.94-.52-8.51-.69-14.16-.13-6.84.67-17.38,3.31-26.44,6.78,5.2-4.24,11.07-7.07,17.07-9.09-6.91,1.39-12.84,3.35-17.92,5.62,3.01-2.61,6.59-4.89,9.95-6.76-8.5,2.76-21.02,8.71-33.22,17.26,6.8-7.51,15.82-15.7,25.34-22.5.59-.07,1.16-.17,1.76-.23,52.34-5.14,85.75,25.05,124.17,43.48Z"></path> <path class="cls-11" d="m384.47,213.58c-9.06,1.83-16.41,4.23-22.74,7.11,12.78-19.27,30.13-35.1,59.44-38.53-9.52,6.8-18.54,14.99-25.34,22.5,12.19-8.55,24.71-14.5,33.22-17.26-3.35,1.87-6.94,4.16-9.95,6.76,5.09-2.27,11.01-4.23,17.92-5.62-6,2.02-11.88,4.86-17.07,9.09,9.06-3.47,19.59-6.11,26.44-6.78,5.65-.55,10.23-.39,14.16.13-.42.02-.83.02-1.25.06-8.99.88-16.23,2.23-21.39,6.17,3.9-.76,8.8-1.5,15.02-2.11,13.9-1.37,28.11.46,39.77,12.17-3.72-2.25-16.38-12.18-32.68-10.58-10.77,1.06-21.14,6.47-30.62,13-7.48.08-17.86.35-26.41,1.19-2.73.27-5.33.58-7.83.91-3.81.52-7.38,1.11-10.7,1.78Z"></path> </g> <g> <path class="cls-8" d="m381.98,350.56c-20.81-10.09-43.59-9.84-57-8.41,20.04,6.36,42.48,16.64,50.84,20.86-56.5-21.94-62.05-.49-84.63-17.07-.17-.12-.35-.27-.53-.4,1.54,2.09,3.49,4.17,5.99,6.01,11.81,8.68,28.79,16.35,47.3,19.18-22.31,1.59-38.91-3.71-52.48-13.68-4.31-3.17-8.39-6.59-12.07-10.01,4.14,5.16,9.83,10.97,19.41,18.01,1.43,1.05,8.13,5.8,13.49,8.61-10.95-3.27-25-9.06-38.57-19.03-7.84-5.76-15.31-12.07-23.08-17.94,6.78,8.35,17.61,20.6,28.8,28.82,6.11,4.49,13.82,8.39,22.09,11.7-11.75-1.81-22.23-5.42-30.69-11.63-7.03-5.17-53.51-43.94-64.04-65.14,28.81,11.35,82.43,15.96,136.13,24.51,5.61,2.41,10.83,5.12,14.88,8.09,3.8,2.79,7.18,6.14,10.97,8.92.14.11,6.13,3.77,13.19,8.58Z"></path> <path class="cls-3" d="m443.64,361.37c-12.16,1.6-25.73,4.16-39.89,6.82-3.6-1.95-7.85-3.43-12.07-4.5,8.78-2.45,26.94-3.58,34.11-2.75-5.75-1.35-19.83-4.21-36.47-4.42,13.19-2.59,32.07-4.72,44.69-2.27-11.67-7.62-19.69-9.71-25.48-9.77,4.23-.93,8.68-1.27,13.17-1.23,4.14,1.16,8.15,2.33,12,3.48,10.03,3.79,19.35,8.09,27.66,13.04h0c-5.44.19-11.39.77-17.72,1.61Z"></path> <path class="cls-12" d="m270.43,284.11c.37.12.72.3,1.03.53.51.37,5.79-.45,6.09-.23,0,0,21.92-1.88,22.01-1.89,0,0,.83.18,2.07.45-11.14,1.53-16.53,4.54-20.82,7.32,11.53,5.96,35.61-1.62,50.95,5.39-9.09-1.03-21.99,4.25-32.94,7.94,12.77,1.91,27.37,7.81,41.54,12.48-21.51-1.47-47.18-6.4-62.2-.48-28.98-4.17-54.44-8.51-71.35-15.17-.87-1.75-1.52-3.39-1.86-4.87,16.96-7.51,55.65-20.78,98.23-22.54-13.25,3.56-24.5,7.68-32.75,11.07Z"></path> <path class="cls-6" d="m403.76,299.81c-2.03-.47-4.57-.86-7.32-1.14-11.15-3.88-27.76-9.6-41.39-11.81,8.46-1.27,18.29-1.07,26.68-.07,7.46,3.46,14.7,7.63,21.58,12.68.15.11.3.22.45.34Z"></path> <path class="cls-6" d="m406.83,302.14c1.83,1.43,3.55,2.83,5.16,4.21-9.57-3.43-21.06-5.51-37.05-6.36,3.75-2,13.47-2.15,21.5-1.33,2.75.28,5.29.67,7.32,1.14,1.06.79,2.08,1.56,3.07,2.34Z"></path> <path class="cls-13" d="m396.44,298.67c-8.03-.82-17.74-.68-21.5,1.33,15.99.85,27.48,2.93,37.05,6.36.29.25.53.48.81.73-9.57,1.47-17.92,3.92-23.46,6.05,8.84-2.78,17.23-2.76,26.81,4.28.82.61,1.59,1.13,2.36,1.69,1.05.77,2.71,2.16,4.51,3.7-2.52-.6-5.5-1.17-8.29-1.54-.55-.17-1.19-.24-1.93-.22-1.52.05-3.34.44-5.06.95,6.02.34,13.28,3.41,18.93,7.56.62.46,1.23.95,1.84,1.43-4.36-.92-9.3-1.43-13.37-.4,3.38.03,7.41.75,11.46,3.73,1.45,1.06,4.53,3.21,7.37,4.57-6.93,1.66-12.23,2.31-16.34,2.33-42.96-13.26-95.32-19.25-139.48-25.6,15.02-5.92,40.69-.99,62.2.48-14.17-4.67-28.77-10.57-41.54-12.48,10.95-3.69,23.85-8.97,32.94-7.94-15.34-7.01-39.42.57-50.95-5.39,4.29-2.78,9.68-5.79,20.82-7.32-1.24-.27-2.07-.45-2.07-.45-.09,0-22.01,1.89-22.01,1.89-.3-.22-5.58.6-6.09.23-.31-.23-.66-.4-1.03-.53,8.25-3.38,19.51-7.51,32.75-11.07,26.09-1.08,53.63,2.2,78.55,13.74-8.39-1.01-18.22-1.21-26.68.07,13.63,2.22,30.23,7.93,41.39,11.81Z"></path> <path class="cls-6" d="m461.36,359.77c-12.59-7.5-27.49-13.54-43.72-18.55,4.11-.02,9.41-.67,16.34-2.33-2.84-1.36-5.92-3.5-7.37-4.57-4.05-2.97-8.08-3.7-11.46-3.73,4.07-1.02,9-.52,13.37.4-.61-.48-1.22-.97-1.84-1.43-5.65-4.15-12.91-7.23-18.93-7.56,1.73-.52,3.54-.9,5.06-.95.63.06,1.27.13,1.93.22,2.79.36,5.76.93,8.29,1.54-1.79-1.53-3.46-2.93-4.51-3.7-.77-.57-1.54-1.09-2.36-1.69-9.58-7.04-17.98-7.06-26.81-4.28,5.54-2.13,13.89-4.58,23.46-6.05,21.69,18.9,24.31,33.7,48.55,52.69Z"></path> <path class="cls-8" d="m421.7,343.25c.77,0,1.55,0,2.32.03,3.3,1.1,6.52,2.25,9.68,3.45-3.85-1.15-7.87-2.32-12-3.48Z"></path> <path class="cls-8" d="m348.81,327.71c-1.89-.95-3.85-1.88-5.88-2.75,28.21,4.49,56.41,10.09,81.08,18.32-.77-.03-1.55-.02-2.32-.03-24.13-6.77-52.07-13.31-72.88-15.54Z"></path> <path class="cls-4" d="m408.53,344.48c5.79.07,13.81,2.16,25.48,9.77-12.61-2.44-31.49-.31-44.69,2.27,16.64.2,30.72,3.07,36.47,4.42-7.17-.83-25.33.3-34.11,2.75,4.22,1.06,8.48,2.55,12.07,4.5-34.46,6.49-72.45,13.6-102.21,9.02-8.27-3.32-15.98-7.21-22.09-11.7-11.2-8.23-22.02-20.47-28.8-28.82,7.78,5.87,15.24,12.18,23.08,17.94,13.57,9.97,27.63,15.76,38.57,19.03-5.36-2.81-12.05-7.56-13.49-8.61-9.58-7.04-15.27-12.85-19.41-18.01,3.68,3.42,7.75,6.84,12.07,10.01,13.57,9.97,30.17,15.27,52.48,13.68-18.52-2.83-35.5-10.5-47.3-19.18-2.5-1.84-4.44-3.92-5.99-6.01.17.13.36.28.53.4,22.15,16.28,27.95-4.05,81.55,15.92,1.02.38,2.02.74,3.07,1.15-.76-.38-1.66-.83-2.64-1.3-9.8-4.77-29.97-13.78-48.2-19.56,13.41-1.43,36.19-1.67,57,8.41-7.06-4.81-13.04-8.47-13.19-8.58-3.79-2.79-7.18-6.13-10.97-8.92-2.58-1.9-5.67-3.67-9-5.34,20.81,2.23,48.75,8.77,72.88,15.54-4.49-.04-8.94.3-13.17,1.23Z"></path> </g> </g> </g> </svg> 