<?xml version="1.0" encoding="UTF-8"?> <svg xmlns="http://www.w3.org/2000/svg" id="Layer_2" data-name="Layer 2" viewBox="0 0 290.56 723.79"> <defs> <style> .cls-1 { fill: #9e9798; } .cls-2 { fill: #8a9ca9; } .cls-3 { fill: #dce2eb; } .cls-4 { fill: #81909b; } .cls-5 { fill: #abb8c4; } .cls-6 { fill: #92929e; } .cls-7 { fill: #b8bec8; } .cls-8 { fill: #9797a3; } .cls-9 { fill: #aaacb6; } .cls-10 { fill: #b6bfca; } .cls-11 { fill: #d2d3d7; } .cls-12 { fill: #7f828c; } .cls-13 { fill: #b2b5c0; } .cls-14 { fill: #d2d3da; } .cls-15 { fill: #d8d6da; } .cls-16 { fill: #9faebb; } .cls-17 { fill: #7a838e; } .cls-18 { fill: #9fa1ad; } .cls-19 { opacity: .61; } .cls-20 { fill: #c6cad2; } .cls-21 { fill: #bec3cc; } </style> </defs> <g id="clipping_mask" data-name="clipping mask"> <g class="cls-19"> <g> <path class="cls-1" d="m28.19,672.68c-.22-.1-1.24,1.81-1.24,1.81,0,0-.67,2.05-.45,2.15.22.1.77-.71,1.24-1.81.47-1.1.67-2.05.45-2.15Z"></path> <path class="cls-1" d="m172.6,434.74c-1.47.63-3.66,1.53-6.51,2.58-2.86,1.05-6.38,2.24-10.5,3.59-4.1,1.36-8.82,2.85-13.92,4.87-10.22,3.97-21.98,9.97-33.74,18.6-11.74,8.62-23.4,19.94-33.13,33.72-6.14,8.67-11.13,17.72-15.04,26.72-.15-.14-.32-.23-.5-.28-.06-.02-.12-.02-.18-.03,0-.04,0-.1-.07-.16-.07-.07-.16-.1-.28-.11.66-3.97,1.37-7.98,2.12-12.02,1.97-10.58,4.25-21.38,6.62-32.42,2.42-11.03,4.77-22.34,7.56-33.67,2.78-11.33,6.07-22.73,10.49-33.84,4.42-11.11,10.02-21.95,16.29-32.6.76-1.29,1.53-2.58,2.31-3.85,3.96-5.04,8.8-10.34,14.65-15.33,4.01-3.43,8.48-6.64,13.52-9.35,5.02-2.75,10.62-5.21,16.13-8.26,11.06-5.97,20.94-12.84,29.29-19.79,8.4-6.91,15.24-13.94,20.65-20.09,5.4-6.17,9.35-11.49,11.96-15.23,1.32-1.86,2.26-3.37,2.94-4.36.58-.88.92-1.39.99-1.51-.09.11-.48.59-1.14,1.4-.77.92-1.84,2.33-3.33,4.06-2.91,3.49-7.26,8.44-12.99,14.17-5.74,5.72-12.85,12.26-21.34,18.72-8.46,6.52-18.25,13.01-29.08,18.85-5.36,2.97-10.89,5.42-16.13,8.35-5.27,2.9-9.99,6.4-14.08,10.05-.32.29-.64.58-.96.88,2.12-3.23,4.27-6.43,6.41-9.61,6.77-10.05,13.53-19.89,20.19-29.58,13.3-19.36,26.11-38.1,37.66-56.41,2.91-4.56,5.69-9.13,8.45-13.63,2.69-4.53,5.39-8.99,7.91-13.46,2.59-4.43,4.99-8.89,7.4-13.24,2.31-4.42,4.65-8.71,6.78-13.05,4.37-8.59,8.2-17.08,11.73-25.31,1.69-4.14,3.42-8.17,4.91-12.2.76-2.01,1.51-3.99,2.25-5.95.69-1.98,1.38-3.94,2.05-5.87,5.35-15.5,9.08-29.89,11.49-42.68,2.44-12.79,3.55-23.96,4.12-33.08.11-2.29.2-4.44.29-6.47.02-.51.05-1.01.07-1.49,0-.49,0-.97,0-1.45,0-.94,0-1.86,0-2.73,0-3.52.04-6.5-.13-8.9-.18-3.9-.29-6.31-.33-7.07,0,.76.04,3.16.09,7.07.08,2.4-.04,5.38-.15,8.88-.03.87-.05,1.79-.08,2.73-.01.47-.03.95-.05,1.45-.04.48-.07.98-.11,1.49-.15,2.01-.32,4.16-.48,6.43-.82,9.08-2.24,20.15-4.97,32.8-2.72,12.64-6.76,26.83-12.39,42.1-.7,1.91-1.42,3.84-2.15,5.78-.77,1.93-1.56,3.89-2.35,5.86-1.55,3.96-3.35,7.93-5.1,12-3.66,8.1-7.6,16.44-12.09,24.89-2.17,4.26-4.57,8.49-6.93,12.84-2.47,4.28-4.91,8.67-7.55,13.03-2.57,4.41-5.31,8.8-8.04,13.27-2.8,4.44-5.62,8.94-8.58,13.44-7.4,11.44-15.31,23.08-23.53,34.96-.04-.02-.08-.05-.13-.07-.67-.29-1.65.46-2.36,1.72-.04-.03-.07-.05-.1-.06,1.14-2.99,2.18-6.15,3.03-9.49,1.49-5.67,2.24-11.78,2.82-18.03.56-6.26,1.02-12.71,1.53-19.33,1-13.22,2.11-25.78,3.88-37.08.86-5.65,1.93-10.94,3.79-15.58,1.83-4.63,4.51-8.54,7.07-12.01,5.25-6.94,9.49-12.55,12.42-16.43,2.74-3.66,4.32-5.77,4.51-6.02-.22.26-1.93,2.27-4.88,5.72-3.14,3.72-7.7,9.07-13.26,15.79-2.73,3.4-5.69,7.3-7.81,12.14-2.11,4.82-3.39,10.28-4.41,15.96-2.07,11.38-3.37,24.03-4.38,37.27-.5,6.62-1,13.07-1.47,19.31-.52,6.2-1.21,12.14-2.56,17.61-2.65,11.01-7.3,20.28-11.52,27.78-.88,1.56-1.75,3.04-2.59,4.45-1.92,2.76-3.85,5.53-5.79,8.32-.09-.28-.27-.49-.5-.6-.18-.09-.39-.09-.61-.05.84-3.65,1.33-7.2,1.59-10.52.41-5.13.38-9.75.24-13.6-.14-3.86-.38-6.97-.56-9.12-.17-1.98-.28-3.15-.29-3.31-.02.28-.27,4.98-.68,12.41-.25,3.83-.59,8.38-1.28,13.34-.68,4.97-1.77,10.37-3.6,15.78-.24.68-.48,1.34-.71,2.01-.27.65-.54,1.29-.8,1.94-.52,1.29-1.12,2.52-1.72,3.74-.73,1.46-1.49,2.86-2.25,4.24-.52.75-1.03,1.5-1.54,2.26-6.82,10.05-13.67,20.35-20.04,31.17-6.38,10.82-12.1,21.92-16.64,33.37-4.52,11.46-7.85,23.11-10.64,34.58-2.79,11.49-5.1,22.8-7.46,33.86-2.33,11.07-4.56,21.93-6.46,32.6-1.93,10.66-3.52,21.13-4.72,31.34-.12,1.1-.25,2.2-.36,3.29-.02-.03-.05-.07-.07-.1l-.26-.33-.76.64c-.47-3.62-.96-7.43-1.41-11.38-1.03-9.51-1.43-20.04-.9-31.07.52-11.03,1.84-21.49,3.64-30.9,1.8-9.42,4.08-17.77,6.29-24.71.28-.87.54-1.72.8-2.54.28-.82.56-1.61.83-2.39.54-1.55,1.06-3.02,1.53-4.38,1.06-2.69,1.93-5.04,2.7-6.94,1.59-3.77,2.46-5.85,2.46-5.85,0,0-1.09,1.98-3.07,5.57-.96,1.82-2.04,4.08-3.34,6.69-.6,1.33-1.24,2.76-1.91,4.28-.33.75-.68,1.53-1.04,2.33-.32.82-.65,1.65-.99,2.51-2.75,6.82-5.59,15.16-7.82,24.67-2.24,9.5-3.86,20.17-4.4,31.45-.54,11.28,0,22.06,1.26,31.75.63,4.84,1.41,9.38,2.1,13.62.69,4.24,1.29,8.17,1.72,11.75.19,1.49.33,2.93.45,4.3-.65,4.83-1.03,9.41-1.19,13.68-.09,1.37-.05,2.71-.09,4.02,0,1.3-.05,2.58.01,3.8.08,2.46.15,4.78.22,6.94.13,4.33.34,8.07.39,11.09,0,.44.02.87.03,1.28-.05,1.37-.11,2.72-.18,4.07v.02c-.69,3.7-1.63,8.76-2.88,14.85-1.38,6.68-3.18,14.61-5.51,23.33-2.38,8.69-5.06,18.28-8.94,27.84-3.88,9.54-9.07,18.03-13.34,26.05-2.16,4-4.08,7.9-5.69,11.63-.41.93-.76,1.87-1.13,2.78-.42.98-.65,2.12-.52,3.24.03.3.08.55.2.91.03.1.07.2.13.29.11.48.59,1.1,1.23,1.26.04,0-.02,0,.08.03-.51,1.11-.74,1.7-.66,1.75.09.05.53-.53,1.31-1.72,0,0,.01,0,.01,0,.01,0,.03,0,.04,0,.1,0,.2,0,.3-.01.34-.04.67-.16.95-.33.29-.18.54-.42.71-.61.35-.42.59-.86.8-1.29.24-.59.47-1.17.7-1.74.08-.09.15-.18.22-.26.18-.24.33-.51.45-.79l.24-.56c.77-1.81,1.48-3.53,2.12-5.12,1.94-3.33,4.21-7.31,6.73-11.94,4.34-8.05,9.52-18.03,14.31-30.2,2.38-6.08,4.65-12.72,6.52-19.92.4-1.51.76-3.06,1.12-4.63,1.34-5.86,2.38-12.05,3.16-18.51,2.05-16.35,2.21-34.35,3.06-53.45.3-7.2.84-14.54,1.6-22.03.75-2.92,1.62-5.9,2.6-8.91,4.38-13.52,11.13-27.79,20.6-41.17,9.45-13.39,20.58-24.58,31.81-33.31,11.24-8.75,22.51-15.1,32.38-19.51,4.92-2.24,9.53-3.97,13.56-5.57,4.03-1.58,7.49-3,10.28-4.24,2.79-1.24,4.91-2.29,6.34-3.04,1.24-.66,1.96-1.06,2.12-1.14-.18.08-.93.42-2.19.98Zm-25.44-132.5c.06-.11.11-.23.16-.35.04-.01.08-.02.11-.04-.08.13-.17.25-.27.38ZM28.26,688.31c.09-.38.15-.72.2-1.01,1.12-2.11,2.21-4.3,3.23-6.55-1.16,2.7-2.33,5.27-3.47,7.73.01-.05.03-.11.04-.16Zm9.82-24.85c.24-.4.48-.81.74-1.25-.67,2.02-1.36,3.98-2.05,5.89-.77,2.1-1.56,4.14-2.35,6.12,1.38-3.62,2.59-7.23,3.67-10.75Z"></path> </g> <g> <path class="cls-3" d="m255.4,83.46c10.98-25.62,11.62-55.05,7.43-75.22-.04.26-.08.52-.13.78,4.25,28.26-1.75,57.44-13.45,84.76-3.38,7.89-8.57,18.06-8.71,18.4-1.76,4.12-2.83,8.5-3.26,12.98.52.3,1.05.61,1.57.9.61-.14,1.23-.28,1.86-.42.29-4.86,1.18-11.46,6.68-24.29,2.58-6.03,5.44-11.88,8.01-17.89Z"></path> <path class="cls-21" d="m265.37,94.76c3.36,1.44,12.88-1.93,16.1-9.44,7.42-17.31-1.03-54.51-9.05-60.51-2.55-.84-3.66.15-4.76,2.6.73,4.91,1.98,20.07-4.4,46.52-1.74,7.21-2.35,18.93,2.1,20.84Zm11.42-46.02c.53.23.97.63,1.41,1.03.68.63,8.26,16.93.09,35.99-1.27,2.97-6.05,6.33-9.01,5.06-9.34-4,2.76-38.72,3.1-39.51.77-1.79,2.92-3.22,4.41-2.57Z"></path> <path class="cls-7" d="m286.32,45.4c-1.27-4.35-2.78-8.6-4.44-12.69-5-7.77-14.27-20.92-18.59-22.78-.04-.02-.09-.04-.13-.05,3.82,20.1,2.93,48.64-7.76,73.58-.38.88-.77,1.75-1.16,2.63,1.61,5.46,5.35,11.58,10.29,13.69,6.24,2.67,14.03-3.16,18.41-13.39,3.81-8.89,4.65-25.44,3.38-40.99Zm-20.95,49.36c-4.45-1.91-3.84-13.63-2.1-20.84,6.38-26.45,5.13-41.61,4.4-46.52,1.1-2.44,2.21-3.44,4.76-2.6,8.02,6,16.47,43.2,9.05,60.51-3.22,7.51-12.74,10.88-16.1,9.44Z"></path> <path class="cls-20" d="m281.88,32.71c-5.55-13.62-12.87-25.39-19.18-32.71.58,2.74.57,5.51.13,8.24.11.54.22,1.09.32,1.64.04.02.09.04.13.05,4.32,1.85,13.6,15.01,18.59,22.78Z"></path> <path class="cls-5" d="m257.53,110.22c9.17,3.93,24.33-11.43,28.27-20.63,2.12-4.94,3.63-9.51,4.7-13.77.41-10.09-1.27-20.5-4.18-30.42,1.27,15.55.43,32.1-3.38,40.99-4.38,10.23-12.17,16.06-18.41,13.39-4.93-2.11-8.67-8.23-10.29-13.69-1.58,3.57-3.22,7.11-4.83,10.67,1.57,5.8,3.21,11.35,8.12,13.46Z"></path> <path class="cls-16" d="m284.22,100.49c.62-1.12,1.19-2.3,1.72-3.53,2.85-6.66,4.26-13.81,4.56-21.14-1.07,4.25-2.58,8.82-4.7,13.77-3.94,9.21-19.1,24.56-28.27,20.63-4.91-2.1-6.55-7.66-8.12-13.46-.69,1.52-1.36,3.05-2.02,4.59-1.95,4.55-3.31,8.3-4.28,11.48.92,2,2.35,3.96,3.86,4.61,7.38,3.16,24.59-3.25,37.25-16.95Z"></path> <path class="cls-2" d="m246.97,117.44c-1.51-.65-2.95-2.62-3.86-4.61-1.77,5.8-2.22,9.67-2.4,12.81,14.74-3.32,34.02-7.82,43.52-25.15-12.66,13.7-29.87,20.11-37.25,16.95Z"></path> <path class="cls-20" d="m269.28,90.82c2.96,1.27,7.74-2.09,9.01-5.06,8.17-19.06.6-35.36-.09-35.99-.44-.4-.88-.81-1.41-1.03-1.5-.64-3.65.79-4.41,2.57-.34.79-12.44,35.51-3.1,39.51Z"></path> <path class="cls-16" d="m228.49,97.7c7.36,3.15,13.83,2.13,19.57-1.22.41-.92.81-1.82,1.18-2.7,8.36-19.5,13.8-39.96,14.69-60.35-.89-2.49-1.02-4.67-3.26-5.63-.95-.41-2.23.34-3.11,1.03-11.51,9.09-17.75,12.82-21.87,14.37-2.5,1.77-5,3.49-7.47,5.21-3.54,4.16-6.89,9.18-9.61,15.52-6.77,15.81-.67,29.26,9.87,33.77Zm28.08-59.42c.4.17.92.29,1.38.49,4.49,1.92.26,26.41-5.23,39.22-3.18,7.41-13.7,18.52-21.33,15.25-9.55-4.09-12.91-19.34-8.66-29.28.4-.93.83-1.84,1.23-2.76,4.45-10.38,22.19-18.75,32.62-22.92Z"></path> <path class="cls-2" d="m257.57,28.83c.87-.69,2.16-1.43,3.11-1.03,2.24.96,2.37,3.14,3.26,5.63.35-8.17-.02-16.33-1.24-24.41-.42,2.22-1.1,4.42-2.03,6.57-5.47,12.77-15.1,20.6-24.97,27.6,4.12-1.54,10.36-5.28,21.87-14.37Z"></path> <path class="cls-2" d="m228.49,97.7c-10.54-4.51-16.64-17.96-9.87-33.77,2.72-6.34,6.07-11.35,9.61-15.52-3.11,2.18-6.14,4.39-8.98,6.74-.52,1.19-1.06,2.42-1.62,3.74-8.43,19.66-5.19,41.85,6.29,46.77,7.99,3.42,14.14,2.16,20.6-1.58,1.15-2.38,2.4-5.03,3.54-7.59-5.74,3.35-12.21,4.37-19.57,1.22Z"></path> <path class="cls-4" d="m223.92,105.65c-11.47-4.92-14.71-27.11-6.29-46.77.56-1.32,1.1-2.55,1.62-3.74-5.72,4.74-10.61,10.1-13.64,17.17-1.34,3.14-2.16,6.13-2.54,9,3.03,13.24,10.92,26.47,22.7,31.52,3.98,1.7,9.71,2.29,14.12.94.2-.54.42-1.07.64-1.6.08-.2,1.85-3.68,3.99-8.11-6.46,3.73-12.61,5-20.6,1.58Z"></path> <path class="cls-17" d="m203.07,81.32c-2.56,19.36,15.36,32.94,34.21,43.84.37-3.91,1.23-7.74,2.61-11.38-4.41,1.35-10.14.77-14.12-.94-11.78-5.05-19.67-18.28-22.7-31.52Z"></path> <path class="cls-5" d="m231.39,93.23c7.64,3.27,18.16-7.84,21.33-15.25,5.49-12.81,9.72-37.3,5.23-39.22-.46-.2-.98-.32-1.38-.49-10.43,4.17-28.17,12.54-32.62,22.92-.4.93-.83,1.84-1.23,2.76-4.26,9.93-.89,25.18,8.66,29.28Zm6.95-39.27c2.5,1.3,4.99,2.62,7.52,4.4,3.83,2.69,4.81,12.75,1.1,21.39-2.49,5.82-9.13,13.48-15.17,10.89-4.73-2.03-9.25-11.09-3.2-25.2,2.77-6.46,5.35-9.12,9.75-11.47Z"></path> <path class="cls-10" d="m231.79,90.63c6.04,2.59,12.68-5.07,15.17-10.89,3.7-8.64,2.73-18.7-1.1-21.39-2.53-1.78-5.02-3.09-7.52-4.4-4.4,2.36-6.98,5.01-9.75,11.47-6.05,14.11-1.53,23.17,3.2,25.2Z"></path> </g> <g> <path class="cls-2" d="m169,189.35c-.42-.18-.82-.41-1.2-.7-1.28,4.17-2.85,8.45-4.75,12.88-1.19,2.78-2.46,5.54-3.76,8.27.54.3,1.08.59,1.63.88,13.41-11.61,26.32-27.07,33.6-44.06.48-1.12.92-2.22,1.35-3.3-8.72,14.68-19.54,29.16-26.87,26.02Z"></path> <path class="cls-16" d="m195.87,163.33c8.08-20.79,5.66-35.33-1.53-46.9,4.95,14.9,4.25,36.24-.7,47.79-3.52,8.21-8.62,15.01-18.39,10.83-1.29-.55-2.57-1.36-3.77-2.46-.76,5.14-1.96,10.49-3.67,16.06.38.29.78.52,1.2.7,7.33,3.14,18.15-11.34,26.87-26.02Z"></path> <g> <path class="cls-3" d="m139.37,51.62c-.22-2.14-.27-4.38-.1-6.74-.35.67-.68,1.35-.97,2.04-2.9,6.77-2.52,11.7-1.5,16.92,12.32,39.18,49.48,76.68,25.79,131.96-1.83,4.27-3.76,8.49-5.67,12.66.78.45,1.58.89,2.38,1.33,1.31-2.74,2.57-5.49,3.76-8.27,31.13-72.64-24.6-109.07-23.68-149.9Z"></path> <path class="cls-20" d="m139.37,51.62c-.15,6.87,1.3,13.62,3.67,20.43,11.56,6.32,22.1,19.57,35.54,26.94-16.69-14.38-36.97-26.07-39.2-47.37Z"></path> <path class="cls-5" d="m193.64,164.22c4.95-11.55,5.66-32.9.7-47.79-3.58-5.77-8.34-10.8-13.57-15.49,9.94,12.65,20.12,29.71,13.1,46.07-4.88,11.39-12.35,15.14-21.38,12.75-.05,4.14-.37,8.41-1.02,12.84,1.2,1.1,2.49,1.91,3.77,2.46,9.77,4.19,14.87-2.61,18.39-10.83Z"></path> <path class="cls-7" d="m193.88,147c7.01-16.36-3.16-33.42-13.1-46.07-.73-.65-1.46-1.29-2.2-1.93-13.44-7.37-23.98-20.61-35.54-26.94,8.72,25.08,29.89,51.1,29.46,87.69,9.04,2.39,16.5-1.36,21.38-12.75Zm-14.46,5.47c-10.53-4.51-2.66-24.83-12-39.76-5.04-8.06-10.44-15.13-11.76-24.47.17-.4.26-.98.48-1.48.57-1.32,1.97-1.07,3.29-.5,11.55,4.95,41.05,37.06,31.56,59.21-2.57,6-8.58,8.28-11.56,7Z"></path> <path class="cls-21" d="m159.42,86.26c-1.31-.56-2.72-.82-3.29.5-.21.5-.31,1.08-.48,1.48,1.32,9.34,6.72,16.4,11.76,24.47,9.34,14.94,1.47,35.25,12,39.76,2.98,1.28,8.99-1.01,11.56-7,9.49-22.15-20.01-54.26-31.56-59.21Zm22.12,57.58c-.06-.02-.11-.05-.17-.08-9.59-5.4-7.6-21.74-9.53-32.6.61.19,1.22.42,1.82.68,11.36,4.87,18.14,19.31,14.64,27.49-1.11,2.58-4.79,5.37-6.77,4.52Z"></path> <path class="cls-20" d="m173.66,111.83c-.6-.26-1.21-.48-1.82-.68,1.93,10.85-.06,27.2,9.53,32.6.05.03.11.06.17.08,1.98.85,5.66-1.94,6.77-4.52,3.5-8.18-3.28-22.62-14.64-27.49Z"></path> <path class="cls-17" d="m161.51,198.25c-2.29,3.3-5.33,5.38-11.33,2.81-3.83-1.64-16.27-13.93-21.9-19.7,6.1,10.69,15.8,19.72,28.64,27.11,1.54-3.37,3.09-6.78,4.59-10.22Z"></path> <path class="cls-16" d="m144.53,182.94c11.53,4.94,19.84-.04,24.86-10.68,4.84-32.61-10.43-58.99-22.65-84.41-3.81,1.04-6.99,5.67-8.07,8.2-1.02,2.37-.94,3.36-2.73,7.54-3.01,7.03-6.68,13.63-9.75,20.45-2.78,7.9-4.44,15.36-5.05,22.39,2.82,15.71,9.48,30.55,23.4,36.52Zm.73-85.06c2.87,2.8,5.16,5.85,7,9.26,8.07,15.01,20.4,39.22,13.05,56.37-3.77,8.81-11.67,15.13-20.94,11.16-12.66-5.43-23.38-30.98-12.08-57.36,3.05-7.12,7.47-13.74,12.98-19.44Z"></path> <path class="cls-2" d="m138.66,96.05c1.08-2.53,4.26-7.16,8.07-8.2-3.87-8.04-7.43-15.99-9.95-24,1.91,9.8,6.05,20.64-5.08,46.62-.83,1.93-1.66,3.84-2.48,5.76-1.13,2.65-2.15,5.25-3.05,7.81,3.08-6.82,6.74-13.42,9.75-20.45,1.79-4.18,1.72-5.17,2.73-7.54Z"></path> <path class="cls-4" d="m161.51,198.25c.36-.81.72-1.62,1.08-2.44,1.54-3.58,2.81-7.09,3.86-10.53-6.4,6.52-15.12,6.62-20.98,4.11-10.71-4.59-18.91-21.99-24.52-33.29.5,9.27,3.01,17.68,7.34,25.26,5.63,5.77,18.07,18.06,21.9,19.7,6,2.57,9.04.5,11.33-2.81Z"></path> <path class="cls-2" d="m166.44,185.28c1.36-4.45,2.32-8.78,2.95-13.01-5.02,10.64-13.33,15.62-24.86,10.68-13.92-5.97-20.59-20.81-23.4-36.52-.29,3.32-.35,6.54-.18,9.67,5.61,11.31,13.82,28.71,24.52,33.29,5.86,2.51,14.57,2.41,20.98-4.11Z"></path> <path class="cls-5" d="m144.35,174.68c9.27,3.97,17.17-2.35,20.94-11.16,7.35-17.15-4.98-41.36-13.05-56.37-1.83-3.41-4.12-6.47-7-9.26-5.51,5.7-9.93,12.32-12.98,19.44-11.31,26.38-.58,51.93,12.08,57.36Zm-6.55-52.1c3.09-.18,6.58-.64,9.63.67,9.24,3.96,20.35,18.74,13.73,34.2-4.17,9.72-13.43,14.2-15.76,13.2-.53-.23-1.25-.37-1.85-.63-4.54-1.95-16.86-22.52-8.14-42.86.68-1.59,1.48-3.12,2.39-4.57Z"></path> <path class="cls-10" d="m143.55,170.02c.61.26,1.32.4,1.85.63,2.33,1,11.59-3.48,15.76-13.2,6.62-15.45-4.49-30.24-13.73-34.2-3.04-1.3-6.53-.85-9.63-.67-.92,1.46-1.71,2.99-2.39,4.57-8.72,20.35,3.6,40.92,8.14,42.86Z"></path> </g> </g> <g> <path class="cls-3" d="m283.17,219.05c.32-.81.65-1.62.99-2.41.06-.14.12-.28.18-.42-.63.21-1.29.41-1.98.61-69.25,31.27-60.92,82.16-103.95,102.3,1.92.06,3.93.12,6.02.16,10.27-5.56,20.17-11.83,24.67-22.34,14.41-33.62,41.14-62.68,74.07-77.9Z"></path> <path class="cls-10" d="m264.69,226.18c5.27-3.26,11.12-6.39,17.66-9.35-10.21,2.87-25.96,3.49-42.61,6.99,9.86-1.34,18.4-1.74,22.33-.05.92.39,2.3,1.19,2.62,2.42Z"></path> <path class="cls-4" d="m189.33,291.59c-9.38-4.02-6.83-21.29-2.7-30.93,3.53-8.25,16.1-18.52,28.14-28.83-8.11,3.78-15.87,8.9-22.74,15.97-3.87,4.82-8.09,10.95-11.09,17.96-9.86,23-3.98,38.03.12,39.78,6.57,2.81,16.89-3.55,22.48-7.1,2.08-2.69,4.03-5.49,5.93-8.4-6.61,2.96-14.32,4.04-20.13,1.55Z"></path> <path class="cls-17" d="m181.06,305.54c-4.1-1.76-9.98-16.78-.12-39.78,3-7,7.22-13.13,11.09-17.96-6.25,6.44-11.77,14.48-16.11,24.63-6.56,15.32-7.27,32.23,2.08,46.69.14,0,.28,0,.42.01,11.02-5.16,18.67-12.34,25.12-20.69-5.59,3.55-15.91,9.91-22.48,7.1Z"></path> <path class="cls-2" d="m197.87,281.1c-7.35-3.15-6.25-15.02-3.09-22.41,4.67-10.89,13.04-20.12,22.33-27.91-.78.34-1.57.69-2.34,1.06-12.03,10.31-24.6,20.58-28.14,28.83-4.13,9.64-6.68,26.91,2.7,30.93,5.81,2.49,13.52,1.41,20.13-1.55,2.69-4.12,5.29-8.42,7.98-12.83-7.14,3.59-14.96,5.86-19.57,3.89Z"></path> <path class="cls-16" d="m262.07,223.76c-3.93-1.68-12.46-1.29-22.33.05-7.5,1.58-15.19,3.74-22.63,6.96-9.29,7.79-17.66,17.02-22.33,27.91-3.16,7.38-4.26,19.26,3.09,22.41,4.6,1.97,12.43-.3,19.57-3.89,10.34-16.96,22.19-35.5,47.26-51.03-.32-1.23-1.71-2.03-2.62-2.42Zm-28.72,23.9c-12.5,9.74-20.23,33.12-29.03,29.35-3.69-1.58-8.71-11.7-4.38-21.8,4.47-10.42,28.4-32.11,54.36-28.65.11.01.2.04.28.07.65.28.12,2.37-.12,2.93-1.88,4.38-4.51,5.18-21.1,18.1Z"></path> <path class="cls-5" d="m254.58,226.63c-.08-.03-.17-.06-.28-.07-25.96-3.46-49.89,18.23-54.36,28.65-4.33,10.1.69,20.22,4.38,21.8,8.79,3.77,16.52-19.61,29.03-29.35,16.59-12.92,19.22-13.72,21.1-18.1.24-.56.77-2.65.12-2.93Zm-26.86,22.85c-10.49,11.56-13.7,22.72-21.23,19.49-2.41-1.03-5.81-7.82-3.4-13.43,3.46-8.08,24.28-22.95,30.23-23.87.6-.09,1.19-.55,1.83-.62.25-.03.45.03.63.1.14.06.25.13.36.17.07.03.33.09.54.18,2.46,1.05,1.78,5.47.72,7.94-3.32,7.75-6.6,6.64-9.69,10.04Z"></path> <path class="cls-10" d="m236.68,231.5c-.21-.09-.47-.15-.54-.18-.11-.05-.23-.12-.36-.17-.17-.07-.38-.13-.63-.1-.64.07-1.23.53-1.83.62-5.95.92-26.76,15.8-30.23,23.87-2.41,5.62.99,12.4,3.4,13.43,7.53,3.23,10.73-7.93,21.23-19.49,3.09-3.4,6.36-2.28,9.69-10.04,1.06-2.47,1.73-6.88-.72-7.94Z"></path> <path class="cls-8" d="m268.27,275.92c.22-.36.45-.72.67-1.08,4.66-16.14,7.32-38.26,14.23-55.79-4.17,1.93-8.25,4.08-12.21,6.44,3.6,3.89,5.03,10.78-2.69,50.43Z"></path> <path class="cls-8" d="m267.7,278.84c.43-1.28.84-2.62,1.24-4-.22.36-.44.72-.67,1.08-9.7,15.53-23.53,29.91-36.69,24.27-7.02-3.01-11.51-14.54-10.05-26.54-2.85,4.41-5.48,8.95-7.87,13.61-1.71,8.76-2.24,19.77,4.85,22.81,13.09,5.61,31.13-8.13,46.1-23.65.44-.88.86-1.79,1.26-2.72.65-1.52,1.26-3.15,1.84-4.87Z"></path> <path class="cls-12" d="m205.55,316.29c-4.92-2.11-1.7-8.72-.16-12.32.25-.57.5-1.14.76-1.71-5.15,7.44-13.31,12.48-21.72,17.03,19.23.38,44.77-.62,63.21-13.28-21.48,9.29-40.24,11.08-42.09,10.28Z"></path> <path class="cls-18" d="m231.58,300.19c13.16,5.64,26.99-8.73,36.69-24.27,7.72-39.65,6.28-46.54,2.69-50.43-19.79,11.76-36.78,28.61-49.43,48.16-1.46,12,3.03,23.53,10.05,26.54Zm37.36-66.11c1.7,4.8-.13,9.31-.6,13.84-.81,7.75-2.52,19.53-5.59,26.7-4.9,11.43-21.99,21.99-30.68,18.26-3.14-1.34-6.65-8.08-1.52-20.04,12.96-30.25,34.78-37.31,38.4-38.76Z"></path> <path class="cls-6" d="m218.5,310.07c-7.08-3.03-6.56-14.04-4.85-22.81-1.63,3.18-3.16,6.41-4.56,9.69-.81,1.9-1.81,3.66-2.95,5.3-.26.57-.51,1.13-.76,1.71-1.54,3.6-4.77,10.22.16,12.32,1.86.8,20.61-.99,42.09-10.28,6.88-4.72,12.77-11.07,16.96-19.58-14.97,15.52-33.01,29.26-46.1,23.65Z"></path> <path class="cls-9" d="m232.06,292.88c8.69,3.73,25.78-6.84,30.68-18.26,3.07-7.17,4.78-18.94,5.59-26.7.48-4.53,2.31-9.04.6-13.84-3.61,1.45-25.43,8.51-38.4,38.76-5.13,11.96-1.62,18.7,1.52,20.04Zm25.42-47.42c.4-.01.77.07,1.1.21,8.08,3.46,5.82,22.02,2.39,30.04-5.27,12.29-21.58,10.38-23.11,9.72-5.49-2.35-4.04-9.02-1.7-14.48,2.92-6.82,13.58-25.29,21.32-25.5Z"></path> <path class="cls-13" d="m237.86,285.44c1.53.66,17.84,2.57,23.11-9.72,3.44-8.02,5.7-26.57-2.39-30.04-.34-.14-.7-.23-1.1-.21-7.74.21-18.4,18.68-21.32,25.5-2.34,5.46-3.79,12.13,1.7,14.48Z"></path> </g> <g> <path class="cls-3" d="m118.13,253.66c-2.24-14.95-.04-29.22-1.43-43.46-.08-.87-.18-1.73-.29-2.59-1.21-2.94-2.13-5.97-2.65-9.15-.06.76-.11,1.53-.16,2.29.15,1.65.26,3.31.32,4.96,3.2,89.06,14.24,74.24,15.06,107.75.3.27.59.55.89.83.41-.56.8-1.12,1.2-1.69-.11-15.23-8.57-29.71-12.94-58.95Z"></path> <path class="cls-14" d="m139.76,245.19c-.07-.31-.13-.61-.21-.92-7.19-13.06-17.9-23.95-23.13-36.65.1.86.2,1.72.29,2.59.33,3.33.45,6.66.48,10.01.59-.07,1.21.03,1.78.28.7.3,13.44,13.42,20.79,24.7Z"></path> <path class="cls-20" d="m139.38,270.92c2.96-6.9,2.51-16.16.38-25.73-7.35-11.29-20.08-24.4-20.79-24.7-.57-.24-1.19-.35-1.78-.28.12,10.95-.77,22,.94,33.46.8,5.36,1.74,10.23,2.74,14.7,2.58,3.38,6.29,7.13,8.82,8.21,3.92,1.68,8.35-2.53,9.68-5.65Zm-17.34-39.23c.07-.16.14-.31.23-.46,0,0,0-.01.01-.02.03-.06.04-.16.07-.23.1-.24,1.37.28,1.61.38,10.36,4.44,18.69,23.9,13.3,36.46-1.46,3.41-5.63,7.24-9.06,5.77-7.84-3.36-9.36-34.43-6.16-41.9Z"></path> <path class="cls-5" d="m141.15,294.83c4.73-11.03,6.13-20.44,5.42-28.75-1.54,10.77-4.14,19.55-5.98,23.84-1.37,3.2-4.3,8.95-7.52,7.58-1.66-.71-4.91-6.15-7.26-10.44,2.85,9.8,5.2,17.58,5.26,25.57,3.92-5.57,7.4-11.55,10.08-17.79Z"></path> <path class="cls-7" d="m140.59,289.91c1.84-4.29,4.44-13.06,5.98-23.84-.52-6.1-2.17-11.61-4.48-16.74.82,12.53,3.41,23.83-.78,33.61-1.52,3.54-4.91,4.71-7.54,3.58-2.48-1.06-7.02-5.77-11.14-10.92,1.07,4.14,2.16,7.92,3.18,11.44,2.35,4.28,5.6,9.72,7.26,10.44,3.22,1.38,6.15-4.38,7.52-7.58Z"></path> <path class="cls-21" d="m142.09,249.33c-.23-.5-.46-1-.7-1.5-.58-1.21-1.19-2.39-1.84-3.56.07.31.14.61.21.92,2.13,9.56,2.58,18.82-.38,25.73-1.34,3.12-5.77,7.33-9.68,5.65-2.53-1.08-6.24-4.83-8.82-8.21.57,2.54,1.16,4.95,1.75,7.25,4.12,5.15,8.67,9.85,11.14,10.92,2.62,1.12,6.02-.05,7.54-3.58,4.19-9.79,1.6-21.08.78-33.61Z"></path> <path class="cls-11" d="m137.25,267.82c5.39-12.57-2.94-32.02-13.3-36.46-.23-.1-1.51-.62-1.61-.38-.03.07-.04.17-.07.23,0,0,0,.02-.01.02-.09.15-.16.3-.23.46-3.2,7.47-1.68,38.54,6.16,41.9,3.43,1.47,7.6-2.36,9.06-5.77Zm-8.84,4.41c-3.08-1.32-6.03-20.3-3.51-26.18.37-.86,1.88-3.98,2.76-3.6.03.01.07.04.11.07.25-.21.47-.19.67-.1s.37.24.5.29c7.7,3.3,9.79,20.15,8.55,23.05-.74,1.72-6.17,7.72-9.08,6.47Z"></path> <path class="cls-15" d="m128.94,242.71c-.13-.06-.3-.21-.5-.29s-.43-.1-.67.1c-.04-.03-.07-.06-.11-.07-.88-.38-2.39,2.75-2.76,3.6-2.52,5.88.43,24.87,3.51,26.18,2.9,1.24,8.34-4.76,9.08-6.47,1.24-2.9-.84-19.75-8.55-23.05Z"></path> <path class="cls-16" d="m113.32,218.52c.17-.4.57-1.32,1.05-2.22-.16-3.36-.31-6.87-.44-10.58-.06-1.65-.16-3.31-.32-4.96-.56,7.97-1.11,16-4.03,22.82-2.44,5.7-7.98,10.8-13.53,16.96,5.47-4.04,11.75-8.73,14.98-16.28.81-1.9,1.47-3.84,2.29-5.74Z"></path> <path class="cls-7" d="m98.16,280.65c7.34,3.15,14.86.61,18.4-7.64,1.19-2.77,1.93-5.47,2.36-8.13-1.81-10.66-3.46-25.7-4.55-48.58-.47.9-.87,1.81-1.05,2.22-.82,1.91-1.47,3.84-2.29,5.74-3.24,7.55-9.51,12.24-14.98,16.28-2.84,3.16-5.68,6.6-8.1,10.55-1.7,17.74,5.61,27.59,10.21,29.56Zm11.53-46.04c.35,0,.67.11.97.23,3.55,1.52,7.97,30.25,3.46,40.76-1.9,4.44-6.78,6.26-10.78,4.54-8.44-3.62-15.05-17.7-10.89-27.42,3.7-8.64,14.84-18.17,17.24-18.11Z"></path> <path class="cls-16" d="m124.93,295.95c.43-1,.7-2.53.85-4.35-1.46-4.87-3.24-9.68-5.01-17.35-.05,4.12-.34,8.16-2.26,12.64-2.36,5.51-3.88,7.42-11.87,4-12.47-5.35-21.1-20.66-22.02-33.36-1.85,4.42-2.68,8.22-2.65,11.59,5.42,11.37,22.31,24.7,31.32,28.56,3.82,1.64,10,2.09,11.64-1.74Z"></path> <path class="cls-2" d="m128.98,313.47c-.26-10.45-1.51-16.2-3.2-21.87-.15,1.82-.42,3.35-.85,4.35-1.64,3.82-7.82,3.37-11.64,1.74-9.01-3.86-25.9-17.2-31.32-28.56.15,17.96,24.55,23.62,47.01,44.35Z"></path> <path class="cls-5" d="m106.64,290.89c7.98,3.42,9.51,1.51,11.87-4,1.92-4.48,2.21-8.52,2.26-12.64-.63-2.72-1.25-5.8-1.86-9.37-.43,2.66-1.17,5.35-2.36,8.13-3.54,8.25-11.05,10.79-18.4,7.64-4.6-1.97-11.91-11.82-10.21-29.56-1.18,1.91-2.26,3.94-3.19,6.11-.05.11-.09.22-.14.33.92,12.71,9.54,28.02,22.02,33.36Z"></path> <path class="cls-21" d="m103.34,280.15c4,1.71,8.88-.1,10.78-4.54,4.5-10.51.09-39.23-3.46-40.76-.29-.13-.62-.22-.97-.23-2.39-.06-13.54,9.47-17.24,18.11-4.17,9.72,2.44,23.8,10.89,27.42Zm2.46-34.98c2.14,4.52,4,9.05,5.22,14.14.6,2.51,1.81,10.97,0,15.21-1.94,4.53-6.68,4.39-9.57,3.15-5.03-2.16-10.72-10.98-6.39-21.09,1.15-2.67,7.64-12.07,10.75-11.42Z"></path> <path class="cls-20" d="m101.44,277.67c2.89,1.24,7.63,1.38,9.57-3.15,1.82-4.25.61-12.7,0-15.21-1.22-5.1-3.08-9.62-5.22-14.14-3.11-.65-9.6,8.74-10.75,11.42-4.33,10.11,1.36,18.93,6.39,21.09Z"></path> </g> <g> <path class="cls-3" d="m232.16,383.74c4.53-6.81,8.04-14.27,12.09-21.23-1.18.03-2.38.05-3.6.04-39.12,85.03-74.68,70.63-111.65,86.3.51,1.69,1.05,3.18,1.58,4.48,17.78-16.15,50.95,6.45,101.57-69.58Z"></path> <path class="cls-20" d="m178.3,361.26c23.47.33,46.97,4.48,49.38,5.52,3.4,1.46,7.58,3.16,8.05,5.99,1.64-3.24,3.28-6.64,4.93-10.22-18.54-.16-41.5-4.8-62.36-1.29Z"></path> <path class="cls-16" d="m143,392.86c3.55-8.27,8.25-16.2,13.52-23.81-7.37,4.47-14.01,10.99-19.53,20.35-5.34,17.22-11.08,46.27,2.91,55.56,8.02-2.4,15.99-3.98,23.97-6.08-5.71.61-11.27.11-16.51-2.13-16.95-7.27-11.63-26.96-4.37-43.89Z"></path> <path class="cls-2" d="m137,389.4c-1.67,2.84-3.24,5.94-4.7,9.34-8.77,20.47-6.6,39.18-3.29,50.11,3.64-1.54,7.28-2.79,10.9-3.88-14-9.3-8.25-38.34-2.91-55.56Z"></path> <path class="cls-7" d="m227.69,366.78c-2.41-1.03-25.92-5.19-49.38-5.52-5.66.95-11.16,2.51-16.38,4.91-4.49,5.83-8.28,11.94-10.93,18.13-13.39,31.26-2.82,38.93,7.39,43.31,13.62,5.84,28.53,1.31,41.43-6.06,11.74-9.61,23.66-24.53,35.92-48.79-.47-2.82-4.65-4.53-8.05-5.99Zm-61.32,57.21c-11.37-4.87-12.72-28.49-8.54-38.25,8.68-20.26,38.2-18.5,61.16-11.83.66,4.04,2.33,7.56,1.94,11.42-.11,1.12-.24,2.33-.72,3.47-5.53,12.9-30.28,45.29-53.84,35.19Z"></path> <path class="cls-5" d="m158.39,427.61c-10.21-4.37-20.79-12.05-7.39-43.31,2.65-6.19,6.44-12.31,10.93-18.13-1.84.85-3.64,1.81-5.4,2.88-5.27,7.61-9.98,15.54-13.52,23.81-7.26,16.94-12.58,36.63,4.37,43.89,5.24,2.25,10.8,2.74,16.51,2.13,11.9-3.13,23.82-7.42,35.93-17.33-12.9,7.37-27.81,11.9-41.43,6.06Z"></path> <path class="cls-21" d="m218.99,373.91c-22.96-6.67-52.48-8.44-61.16,11.83-4.18,9.76-2.83,33.38,8.54,38.25,23.56,10.1,48.31-22.29,53.84-35.19.49-1.13.61-2.35.72-3.47.39-3.86-1.28-7.38-1.94-11.42Zm-47.83,41.88c-6.35-2.72-14.37-17.85-10.87-26.02,3.87-9.02,26.31-19.44,46.61-13.18,1.24,1.9,2.8,3.18,3.67,4.99,1.06,2.21,1.33,5.23.29,7.65-2.12,4.94-23.02,33.71-39.71,26.56Z"></path> <path class="cls-20" d="m210.58,381.58c-.87-1.81-2.43-3.09-3.67-4.99-20.31-6.26-42.75,4.16-46.61,13.18-3.5,8.17,4.52,23.3,10.87,26.02,16.69,7.15,37.59-21.61,39.71-26.56,1.04-2.42.77-5.44-.29-7.65Z"></path> <path class="cls-5" d="m184.72,456.04c22.6,9.69,41.16-4.47,54.56-24.67.57-2.86,1.05-5.82,1.46-8.85,2.15-19.8,2.39-44.41-.86-52.06-2.42,4.5-4.86,9.02-7.7,13.28-23.45,35.22-43.15,49.27-59.31,55.81-.87,6.95,2.74,12.57,11.86,16.48Zm51.29-69.55c.54-.22,1.29-.29,1.83-.06,4.09,1.75,5.01,25.49-1.31,40.23-8.17,19.06-27.55,34.62-51.53,24.35-3.12-1.34-6.43-3.83-5.08-6.98,0,0,31.7-23.09,56.08-57.54Z"></path> <path class="cls-2" d="m240.73,422.52c2.87-21.25,2.28-45.79,4.63-60.04-.36.01-.73.02-1.1.03-1.51,2.6-2.95,5.27-4.39,7.95,3.25,7.65,3.02,32.26.86,52.06Z"></path> <path class="cls-16" d="m167.86,458.49c2.23.96,4.52,2.29,6.81,3.27,14.54,6.23,41.76-.32,60.23-15.44,1.87-4.41,3.28-9.49,4.36-14.96-13.4,20.2-31.96,34.35-54.56,24.67-9.12-3.91-12.73-9.53-11.86-16.48-3.25,1.31-6.35,2.33-9.31,3.15-.72,1.06-1.39,2.18-1.92,3.42-2.57,5.99,2.68,10.84,6.23,12.36Z"></path> <path class="cls-4" d="m156.28,457.65c-4.94-2.12-12.63-5.8-10.37-11.06.01-.02.03-.05.04-.08-6.01,1.31-11.12,2.95-15.35,6.8.09.21.17.43.26.63,33.73,4.39,74.48,33.49,97.15,4.43-18.04,10.23-42.57,11.77-71.73-.72Z"></path> <path class="cls-2" d="m156.28,457.65c29.16,12.5,53.69,10.95,71.73.72,2.5-3.21,4.79-7.11,6.81-11.84.03-.07.06-.14.08-.21-18.48,15.12-45.69,21.67-60.23,15.44-2.29-.98-4.58-2.32-6.81-3.27-3.56-1.52-8.8-6.37-6.23-12.36.53-1.24,1.2-2.36,1.92-3.42-6.55,1.81-12.41,2.69-17.59,3.82-.01.03-.03.05-.04.08-2.25,5.26,5.43,8.94,10.37,11.06Z"></path> <path class="cls-10" d="m185,451c23.97,10.27,43.36-5.29,51.53-24.35,6.32-14.74,5.4-38.48,1.31-40.23-.54-.23-1.29-.16-1.83.06-24.38,34.44-56.08,57.54-56.08,57.54-1.35,3.15,1.95,5.64,5.08,6.98Zm38.83-39.03c1.8.33,3.83.27,5.56,1.01,4.15,1.78,2.58,13.82.25,19.26-6.54,15.27-29.55,23.57-38.46,19.76-3.39-1.45-5.15-4.89-3.37-9.04,1.44-3.36,32.64-31.6,36.02-30.99Z"></path> <path class="cls-21" d="m191.18,452.01c8.9,3.81,31.91-4.49,38.46-19.76,2.33-5.44,3.9-17.49-.25-19.26-1.73-.74-3.76-.69-5.56-1.01-3.37-.61-34.58,27.63-36.02,30.99-1.78,4.15-.02,7.59,3.37,9.04Z"></path> </g> <g> <path class="cls-3" d="m71.12,300.49c15.46,68.61-25.07,133.47-26.98,183.67,1.58,1.04,3.18,2.04,4.8,3.01.4-.89.82-1.77,1.27-2.65-5.46-54.3,41.58-119.82,24.29-176.93-1.32-2.31-2.47-4.67-3.37-7.11Z"></path> <path class="cls-13" d="m100,337.44c-9.39-9.82-19.41-19.22-25.5-29.85,1.54,5.09,2.56,10.26,3.17,15.47.48.19.97.39,1.45.6,7.77,3.33,14.78,8.06,20.89,13.78Z"></path> <path class="cls-6" d="m59.42,459.04c25.92-14.56,50.05-39.07,62.3-67.65.39-.9.75-1.82,1.12-2.73,1-6.24.66-11.96-.67-17.29-1.07,9.61-3.49,19.04-7.24,27.79-8.25,19.26-30.08,43.79-43.03,38.24-5.14-2.2-9.61-7.86-12.84-14.15-2.32,8.11-4.44,16.14-6.06,24.05.66,4.53,2.42,8.64,6.44,11.74Z"></path> <path class="cls-18" d="m119.05,364.08c.04-.36.08-.72.12-1.08-2.43-5.23-5.75-10.1-9.53-14.77-2.99-3.7-6.27-7.27-9.64-10.78-6.11-5.72-13.12-10.45-20.89-13.78-.48-.21-.96-.4-1.45-.6,3.29,28.54-6.26,58.67-15.07,88.09,1.62,5.03,4.49,9.26,9.65,11.47,10.28,4.41,29.27.1,38.3-20.97,4.31-10.05,7.02-24.05,8.52-37.58Zm-36.57,53.15c-16.68-7.15-10.53-25.28-.49-81.06q.4.17.79.34c.91-1.02,2.37-2.23,2.78-2.1.85.26,1.67.57,2.46.91,15.87,6.8,33.18,31.19,18.94,64.42-7.65,17.84-17.82,20.34-24.48,17.49Z"></path> <path class="cls-8" d="m122.16,371.37c-.73-2.9-1.74-5.68-2.99-8.38-.04.36-.08.72-.12,1.08-1.49,13.54-4.21,27.54-8.52,37.58-9.03,21.07-28.01,25.38-38.3,20.97-5.15-2.21-8.02-6.43-9.65-11.47-1.21,4.04-2.41,8.07-3.55,12.08,3.24,6.29,7.71,11.95,12.84,14.15,12.96,5.55,34.78-18.98,43.03-38.24,3.75-8.75,6.17-18.18,7.24-27.79Z"></path> <path class="cls-12" d="m118.82,402.1c2.03-4.75,3.33-9.21,4.01-13.44-.36.91-.73,1.82-1.12,2.73-12.25,28.58-36.37,53.09-62.3,67.65-4.02-3.11-5.78-7.21-6.44-11.74-2.63,12.81-3.97,25.29-2.77,37.23,15.08-29.84,55.5-51.81,68.62-82.42Z"></path> <path class="cls-9" d="m82.48,417.23c6.66,2.86,16.83.36,24.48-17.49,14.24-33.24-3.07-57.62-18.94-64.42-.79-.34-1.61-.64-2.46-.91-.41-.13-1.87,1.08-2.78,2.1q-.4-.17-.79-.34c-10.04,55.78-16.2,73.91.49,81.06Zm-1.47-53.8c1.53-3.56,3.42-6.96,5.86-10.13,14.69,7.12,21.75,24.77,15.29,39.85-4.16,9.7-12.64,23.46-22.55,19.22-14.45-6.19-.16-45.3,1.4-48.94Z"></path> <path class="cls-13" d="m102.16,393.16c6.46-15.08-.59-32.73-15.29-39.85-2.44,3.17-4.33,6.57-5.86,10.13-1.56,3.64-15.85,42.75-1.4,48.94,9.91,4.25,18.39-9.52,22.55-19.22Z"></path> <path class="cls-17" d="m44.14,484.16c.26-6.74,1.22-13.74,2.63-20.98-4.71,5.99-11.62,6.57-18.6,3.58-5.6-2.4-29.56-29.56-24.3-75.06-13.11,36.88,8.72,71.69,40.26,92.46Z"></path> <path class="cls-2" d="m71.12,300.49c-.95-2.56-1.65-5.21-2.04-7.95-.38-2.71-.47-5.52-.2-8.45-.31,1.57-.63,3.13-.95,4.69-1.67,8-3.64,15.85-6.79,23.22-4.92,11.47-15.1,21.9-25.86,33.56,19.66-11.59,27.46-37.4,37.76-34.73-.51-3.44-1.14-6.88-1.92-10.34Z"></path> <path class="cls-16" d="m34.55,436.3c7.24,3.1,15.48.12,20.6-5.9,10.61-36.45,24.14-77.18,17.89-119.57-10.3-2.68-18.09,23.13-37.76,34.73-5.16,5.59-10.44,11.46-15.34,17.86-15.44,42.07-.05,66.6,14.62,72.88Zm31.71-110.94c1.59.68,2.66,1.98,3.55,3.4,4.94,7.87-3.57,61.18-11.18,78.93-2.74,6.41-12.56,25.77-19.97,22.59-9.72-4.17-27.18-28.49-13.86-59.56,8-18.68,24.58-35.3,41.46-45.37Z"></path> <path class="cls-2" d="m27.05,448.42c7.7,3.3,16.02,3.35,24.67-5.89,1.09-3.98,2.24-8.03,3.43-12.12-5.12,6.02-13.36,9-20.6,5.9-14.67-6.29-30.06-30.81-14.62-72.88-2.4,3.13-4.71,6.39-6.86,9.8-5.46,30.15-13.46,63.44,13.98,75.2Z"></path> <path class="cls-4" d="m28.18,466.76c6.98,2.99,13.89,2.41,18.6-3.58,1.31-6.69,3.02-13.58,4.95-20.65-8.66,9.23-16.97,9.19-24.67,5.89-27.44-11.76-19.44-45.05-13.98-75.2-2.81,4.44-5.36,9.14-7.52,14.18-.62,1.44-1.17,2.87-1.68,4.3-5.26,45.5,18.7,72.66,24.3,75.06Z"></path> <path class="cls-5" d="m38.67,430.28c7.41,3.18,17.23-16.19,19.97-22.59,7.61-17.75,16.12-71.06,11.18-78.93-.89-1.42-1.97-2.72-3.55-3.4-16.88,10.07-33.46,26.69-41.46,45.37-13.31,31.07,4.14,55.39,13.86,59.56Zm17.27-87.42c.6-.22,1.15-.16,1.67.06,10.24,4.39,4.73,51.55.23,62.04-2.85,6.65-11.7,19.02-17.05,16.73-8.12-3.48-18.39-31.66-7.95-56.01,4.41-10.28,12.09-18.76,23.09-22.81Z"></path> <path class="cls-10" d="m40.8,421.69c5.35,2.29,14.2-10.08,17.05-16.73,4.49-10.49,10.01-57.65-.23-62.04-.52-.22-1.08-.28-1.67-.06-11,4.05-18.69,12.53-23.09,22.81-10.44,24.36-.16,52.53,7.95,56.01Z"></path> </g> </g> </g> </svg> 