<?xml version="1.0" encoding="UTF-8"?> <svg xmlns="http://www.w3.org/2000/svg" id="Layer_2" data-name="Layer 2" viewBox="0 0 581.69 924.38"> <defs> <style> .cls-1 { fill: #e5d8db; } .cls-2 { fill: #f6f2f3; } .cls-3 { fill: #d7c7ca; } .cls-4 { fill: #ded0d3; } .cls-5 { fill: #fff; } .cls-6 { fill: #d9c1ca; } .cls-7 { fill: #e9e0e2; } .cls-8 { fill: #eeebec; } .cls-9 { fill: #c2a7aa; } .cls-10 { fill: #cab0b3; } .cls-11 { fill: #ece0e5; } .cls-12 { fill: #aa8d90; } .cls-13 { fill: #dfcdd3; } .cls-14 { fill: #e8dde1; } .cls-15 { fill: #e7dde0; } .cls-16 { fill: #d7bfc6; } .cls-17 { fill: #a78b8b; } .cls-18 { fill: #d4b6be; } .cls-19 { fill: #ece8e9; } .cls-20 { fill: #d2b9be; } .cls-21 { fill: #e8dbdf; } .cls-22 { fill: #f6f2f1; } .cls-23 { fill: #b29798; } .cls-24 { fill: #e4d5da; } .cls-25 { fill: #dfd0d3; } .cls-26 { fill: #d0b8bc; } .cls-27 { fill: #f7f5f7; } .cls-28 { fill: #e3d8dc; } .cls-29 { fill: #8fa39f; } .cls-30 { fill: #fffefe; } </style> </defs> <g id="clipping_mask" data-name="clipping mask"> <g> <g> <path class="cls-29" d="m265.9,787.16c-.1.2-.17.37-.23.48.06-.12.13-.28.23-.48Z"></path> <path class="cls-29" d="m269.16,780.3c2.43-4.97,6.18-12.22,11.48-21.31,2.63-4.55,5.7-9.52,9.11-14.93,3.45-5.39,7.27-11.19,11.48-17.35,8.4-12.35,18.36-26.14,29.1-41.58,6.03-8.62,12.29-17.77,18.73-27.43-.1.2-.19.4-.28.6-.14.19-.32.48-.54.86h0s-.05.06-.07.09c-.34.4-.52.84-.61,1.2-.95,1.84-2.25,4.61-3.63,7.72-2.45,5.54-3.93,10.31-4.02,10.61.02-.04.08-.14.17-.3-.08.17-.15.35-.22.54-2.28,5.71-4.59,12.06-6.7,18.84-.81,2.64-1.55,5.24-2.23,7.79-.03.07-.06.13-.09.2-.17.4-.35.84-.55,1.29-.18.12-.59.84-1.3,1.91h-.05c-1.72.07-2.4,1.63-2.11,2.94-.46.55-.95,1.12-1.49,1.72-1.09,1.2-2.34,2.48-3.67,3.81-2.69,2.66-5.01,5.25-6.42,7.33-.04.05-.07.11-.11.16-.26-.09-.54-.14-.84-.13h-.08c-1.22.05-2.37,1.18-2.26,2.45.11,1.27,1.13,2.31,2.45,2.26h.08c1.23-.05,2.37-1.19,2.26-2.45-.07-.77-.47-1.45-1.07-1.86,0-.02.03-.04.04-.06,1.61-1.86,4.09-4.18,6.79-6.84,1.34-1.35,2.59-2.67,3.66-3.94.4-.49.78-.97,1.13-1.43.13.16.28.29.44.4-.42,1.06-.85,2.17-1.29,3.3-1.96,5.09-3.51,9.69-4.44,12.56-.15-.03-.3-.03-.47-.03-3.03.12-2.84,4.83.19,4.71,2.69-.11,2.84-3.84.71-4.58,1.25-2.75,3.18-7.17,5.13-12.23.44-1.15.87-2.27,1.28-3.35h.05c-.27,1.17-.53,2.31-.77,3.44-.55,2.75-1.1,5.36-1.52,7.85-.17-.03-.34-.04-.52-.03-1.27.11-2.31,1.13-2.26,2.45v.14c.05,1.07.91,2.07,1.97,2.24-.18,1.19-.34,2.32-.48,3.42-.36,2.3-.56,4.39-.77,6.22-.23,1.83-.36,3.41-.47,4.71-.08.96-.14,1.75-.19,2.38-.79-.17-1.67.06-2.2.69-.83.98-.83,2.44.14,3.32.02.03.05.05.07.07.91.84,2.51.83,3.33-.14.83-.98.83-2.44-.14-3.33-.03-.02-.05-.05-.08-.06-.29-.27-.66-.45-1.05-.55.09-.62.19-1.41.31-2.36.15-1.29.36-2.86.66-4.68.28-1.82.56-3.9.98-6.18.19-1.12.4-2.3.62-3.52.62-.12,1.16-.44,1.53-.9.32-.42.51-.94.48-1.52v-.14c-.04-.77-.49-1.51-1.14-1.92.47-2.51,1.1-5.16,1.71-7.95.3-1.28.61-2.57.94-3.89,1.3-.61,1.57-2.35.88-3.47h0c.74-2.83,1.55-5.75,2.41-8.72-.04,1.06-.03,2.08.04,3.02-1.06,3.68-2.23,8.83-2.96,14.6-.41,3.19-.61,6.22-.69,8.95-.6.14-1.14.53-1.49,1.03-.27.4-.41.87-.37,1.36.09,1.07.83,1.97,1.84,2.2.01.51.02,1,.04,1.47.06,1.52.14,2.8.23,3.8-.6.17-1.18.73-1.43,1.26-.52,1.11-.2,2.61.98,3.19.74.35,1.65.3,2.35-.11.12-.06.23-.13.35-.22.3-.23.55-.54.69-.81.28-.51.37-1.26.17-1.82-.21-.57-.59-1.1-1.14-1.37-.58-.27-1.1-.28-1.71-.17.03-.99.06-2.26.12-3.74.02-.45.04-.93.05-1.42,1.22-.06,2.35-1.19,2.24-2.45-.09-1.1-.89-2.04-1.95-2.22.21-2.68.5-5.66.9-8.78.58-4.55,1.35-8.71,2.07-12.1.03.18.05.35.09.51.01.07.02.15.05.22v.02c.11,2.01.34,4.27.68,6.62.2,1.42.43,2.77.66,4.06-1.21,1.1-.91,3.48.76,4.03.17.93.34,1.78.48,2.55.15.78.27,1.48.39,2.07-1.16.13-2.39,1.16-2.21,2.45.08.67.28,1.35.84,1.78.97.76,2.46.89,3.32-.14.71-.83.88-2.25.1-3.11-.02-.03-.04-.05-.06-.07-.07-.1-.15-.19-.25-.28-.36-.33-.9-.58-1.4-.63-.03-.61-.07-1.34-.14-2.14-.06-.71-.13-1.5-.23-2.35h.03c3.03-.13,2.84-4.83-.19-4.71-.14,0-.27.02-.39.04-.16-1.19-.34-2.44-.52-3.71-.61-4.16-.98-7.93-1.07-10.68,0-.22-.02-.42-.02-.63-.03-.62-.04-1.18-.05-1.66,0,0,0-.03,0-.05.03-.49.06-.99.12-1.5.04-.41.08-.81.13-1.21.14-1.21.32-2.36.51-3.42,1.8-5.57,3.7-10.83,5.57-15.64,1.14-2.83,2.21-5.54,3.3-8.03,1.06-2.51,2.11-4.81,3.08-6.92.94-2.11,1.88-3.98,2.67-5.65.03-.07.06-.13.1-.2.23-.48.45-.94.66-1.38.49-1,.94-1.89,1.33-2.66,1.16-2.31,1.77-3.62,1.69-3.65,0,0-.04.01-.08.08.08-.17.13-.34.18-.49h0c3.53-5.37,7.11-10.88,10.7-16.55,4.22-6.63,8.48-13.47,12.75-20.5,7.77-12.77,15.55-26.21,23.19-40.32,4.46-8.25,8.88-16.72,13.19-25.43-.3.86-.6,1.72-.9,2.58-4.77,14.43-9.49,30.47-14.05,47.39-4.52,16.93-8.62,33.09-12.48,47.76-1.96,7.32-3.78,14.29-5.65,20.77-.92,3.24-1.76,6.39-2.66,9.38-.9,3-1.78,5.87-2.61,8.61-1.59,5.51-3.31,10.4-4.71,14.74-.72,2.16-1.36,4.19-2,6.02-.67,1.83-1.28,3.5-1.83,5.02-1.91,5.28-3.07,8.49-3.34,9.21.29-.71,1.6-3.87,3.72-9.07.61-1.49,1.28-3.15,2.02-4.95.71-1.82,1.41-3.82,2.21-5.96,1.55-4.29,3.42-9.15,5.18-14.62.91-2.73,1.85-5.58,2.85-8.56.98-2.97,1.89-6.1,2.89-9.33,2.03-6.44,3.99-13.39,6.07-20.69,4.11-14.62,8.36-30.75,12.88-47.66,4.55-16.9,9.17-32.9,13.81-47.31,2.44-7.16,4.64-14.02,7.09-20.29.53-1.39,1.03-2.76,1.53-4.11,3.56-7.84,7.03-15.85,10.35-24.02.58-1.43,1.16-2.87,1.73-4.31,1.38-3.44,2.72-6.92,4.04-10.44,7.8-20.73,14.63-42.48,19.96-65.06,2.39-9.74,4.38-19.49,6.04-29.19.12-.6.22-1.19.3-1.79.62-3.62,1.19-7.23,1.72-10.83.83-5.66,1.58-11.29,2.25-16.9.12,3.69.28,7.49.49,11.38.76,15.23,2.1,31.93,3.26,49.46.58,8.76,1.07,17.31,1.41,25.58.33,8.26.46,16.23.42,23.83-.15,15.18-1.14,28.84-2.88,40.2-.83,5.68-1.8,10.79-2.78,15.25-.52,2.22-.97,4.29-1.45,6.2-.52,1.88-.98,3.61-1.41,5.16-.21.77-.4,1.52-.61,2.19-.21.68-.42,1.32-.6,1.91-.38,1.18-.69,2.18-.95,2.98-.51,1.62-.78,2.47-.78,2.47,0,0,.3-.84.88-2.43.3-.8.65-1.79,1.08-2.95.21-.58.44-1.22.68-1.89.24-.68.45-1.4.69-2.18.48-1.54,1.02-3.25,1.61-5.12.54-1.89,1.06-3.95,1.66-6.17,1.14-4.43,2.28-9.54,3.28-15.23,2.07-11.37,3.4-25.11,3.79-40.38.17-7.64.14-15.65-.13-23.95-.27-8.3-.72-16.88-1.3-25.66-1.17-17.55-2.57-34.23-3.46-49.42-.47-7.59-.76-14.8-.99-21.56-.05-2.22-.1-4.39-.14-6.51.24-2.45.45-4.9.65-7.35,1.12-13.51,1.75-26.8,2.16-39.82.42-13.02.5-25.78.43-38.22-.09-16.07-.47-31.62-.99-46.57.38,4.85.82,9.94,1.29,15.23,1.25,13.67,2.81,28.68,4.75,44.4,1.96,15.73,4.14,30.66,6.32,44.21,1.12,6.77,2.17,13.21,3.28,19.21,1.05,6.01,2.11,11.6,3.09,16.69.95,5.1,1.91,9.7,2.72,13.73.82,4.05,1.55,7.52,2.17,10.35,1.15,5.32,1.83,8.4,1.91,8.77-.06-.37-.59-3.48-1.5-8.84-.49-2.86-1.09-6.36-1.75-10.43-.67-4.07-1.47-8.69-2.26-13.81-.82-5.13-1.71-10.73-2.62-16.76-.94-6.03-1.85-12.48-2.86-19.26-1.93-13.57-3.94-28.5-5.9-44.19-1.93-15.7-3.56-30.68-4.94-44.31-.66-6.82-1.31-13.3-1.83-19.37-.57-6.07-1.04-11.73-1.47-16.89-.84-10.34-1.52-18.7-1.99-24.48-.36-4.33-.64-7.22-.83-8.38,0,0,0,0,0,0-.62-10.93-1.29-21.39-1.98-31.35-2.62-37.52-5.61-67.83-7.91-88.74-.06-.54-.12-1.09-.18-1.62-.01-2.82.01-5.83.09-8.99.08-3.18.21-6.52.41-9.98.09-1.73.22-3.48.35-5.28.12-1.8.26-3.66.3-5.61.04-2.27-.1-4.58-.47-6.54l-.57-3.11-2.77,1.44c-1.3.68-2.22,1.91-2.65,2.99-.45,1.1-.61,2.11-.7,3.06-.09.96-.08,1.8-.09,2.59,0,.8,0,1.6-.01,2.4,0,3.16.06,6.19.17,9.07.21,5.75.61,10.87,1.05,15.13.43,4.26.9,7.67,1.24,10.01.35,2.33.58,3.62.58,3.62.72,14.53,1.73,31.88,3.14,50.47,1.03,13.02,2,25.42,2.89,36.71.92,11.28,1.81,21.43,2.64,29.96,1.63,17.04,2.95,27.57,3.6,27.52t.02-.01c0,.06.01.12.02.19.11,1.5.18,3.12.28,4.86.15,1.75.07,3.62.11,5.6.06,1.99-.11,4.08-.18,6.27-.02.56-.05,1.11-.07,1.67-.05.56-.1,1.13-.16,1.7-.1,1.15-.21,2.31-.31,3.51-.09,1.19-.31,2.41-.45,3.64-.18,1.23-.3,2.5-.52,3.78-.46,2.55-.85,5.19-1.48,7.88-.3,1.34-.56,2.72-.9,4.09-.35,1.38-.7,2.77-1.05,4.18-1.51,5.62-3.26,11.48-5.44,17.44-2.16,5.96-4.62,12.05-7.34,18.21-5.51,12.29-11.36,23.75-16.67,34.2-5.32,10.43-10.08,19.88-13.8,27.93-3.74,8.06-6.54,14.68-8.32,19.31-.92,2.3-1.55,4.13-2.01,5.35-.39,1.07-.63,1.7-.68,1.84.06-.13.33-.75.78-1.8.53-1.19,1.24-2.98,2.27-5.23,2.01-4.52,5.09-11,9.12-18.88,4.01-7.9,9.05-17.16,14.59-27.49,5.53-10.33,11.55-21.76,17.11-34.15,2.74-6.22,5.22-12.38,7.36-18.42,2.17-6.03,3.89-11.99,5.37-17.7.34-1.44.67-2.86,1.01-4.25.33-1.4.57-2.81.86-4.17.59-2.74.94-5.43,1.36-8.03.21-1.29.31-2.58.46-3.84.04-.41.09-.81.14-1.2.36,13.07.62,26.57.66,40.45.05,12.42-.06,25.15-.51,38.14-.08,2.57-.18,5.14-.29,7.73h0c-.92,6.4-1.77,15.69-2.16,27.19-.11,3.05-.17,6.26-.19,9.61-1.07,11.9-2.47,23.94-4.28,36.1-.89,6-1.88,12.03-3.01,18.06-2.3,4.57-5.5,11.05-9.66,18.84-4.34,8.11-9.73,17.67-16.75,27.56-6.95,9.92-15.9,19.86-26.06,29.51-10.18,9.65-20.4,18.34-29.53,26.44-9.15,8.06-17.35,15.37-24.23,21.53-13.33,11.93-21.64,19.55-22.14,20.01.53-.44,9.27-7.57,23-19.02,7.09-5.9,15.51-12.97,24.83-20.85,9.29-7.92,19.63-16.48,29.89-26.21,10.25-9.73,19.3-19.87,26.24-30.02,7-10.11,12.26-19.84,16.42-28.09,2.92-5.82,5.29-10.92,7.15-15.09-1.24,6.31-2.62,12.63-4.16,18.95-6.59,27.86-15.43,54.46-25.54,79.49-.29.72-.58,1.44-.88,2.16-.89,1.45-1.96,3.18-3.2,5.11-2.05,3.17-4.55,6.89-7.71,10.74-3.14,3.85-6.98,7.76-11.31,11.55-2.98,2.6-5.94,5.02-8.8,7.26-.29.1-.62.21-1.01.32-1.35.41-3.29.68-5.48.8h-.2c-.97-.06-2.12-.22-3.36-.45-1.35-.25-2.83-.6-4.41-.93-1.57-.34-3.11-.59-4.53-.65-1.41-.07-2.7.02-3.74.23-.25.05-.49.1-.71.15-.4-.79-1.2-1.33-2.17-1.29h-.11c-1.23.06-2.37,1.19-2.26,2.46.11,1.27,1.13,2.31,2.45,2.26h.11c1.23-.06,2.38-1.19,2.26-2.46-.02-.22-.06-.41-.13-.61.2-.03.4-.04.62-.06,1.02-.1,2.26-.07,3.62.08,1.25.14,2.6.4,4.04.7-.98.31-1.77,1.27-1.67,2.34.11,1.27,1.12,2.31,2.45,2.26h.11c1.23-.06,2.37-1.19,2.26-2.46-.02-.16-.04-.32-.09-.47,1.42-.11,3.34-.08,5.49-.2,1.84-.09,3.54-.38,4.85-.81-.3.24-.6.47-.91.69-.54.27-1.1.55-1.68.82-1.7.78-3.59,1.59-5.6,2.41-4.01,1.62-7.63,3.22-10.11,4.64-.54.31-1.03.59-1.47.86-.38-.61-1.05-1.03-1.99-.99-3.03.12-2.84,4.83.19,4.71,1.96-.08,2.57-2.09,1.94-3.45.45-.23.97-.47,1.54-.73,2.56-1.2,6.22-2.58,10.25-4.2,1.23-.5,2.43-1.01,3.56-1.53-3.2,2.38-6.14,4.49-8.65,6.35-3.82,2.84-6.72,5-8.35,6.21-.39-.51-1.02-.85-1.86-.82-3.03.12-2.84,4.83.19,4.71,2.14-.09,2.67-2.46,1.73-3.81,1.69-1.14,4.69-3.15,8.64-5.81,2.08-1.42,4.45-3.01,7.01-4.79-1.06,1.06-2.13,2.29-3.13,3.66-2.22,3.03-3.86,5.97-5.22,7.97-.1.15-.2.29-.29.43-.96-.62-2.24-.55-3.05.33-.04.04-.08.09-.12.13-.83.9-.83,2.51.14,3.32.98.83,2.44.83,3.33-.14.04-.04.07-.08.11-.12.82-.89.84-2.45-.09-3.29.11-.13.22-.26.33-.4,1.56-1.88,3.41-4.73,5.58-7.69,3.35-4.6,7.25-7.52,8.78-8.74,0,0,0,0,0,0,.36-.26.71-.53,1.08-.8.09-.06.17-.11.26-.17.87-.58,1.59-1.12,2.15-1.58-.1.15-.2.3-.29.46-.79,1.26-1.64,2.96-2.41,4.92-.7-.37-1.56-.34-2.34.09-.07.05-.15.09-.23.13-1.08.6-1.41,2.26-.71,3.25.23.33.51.58.82.76-.72.95-1.54,2.04-2.38,3.2-1.31,1.83-2.45,3.55-3.28,4.89-.18-.04-.36-.05-.56-.04-3.03.12-2.84,4.83.19,4.71,2.62-.11,2.83-3.62.89-4.51.99-1.2,2.22-2.76,3.49-4.52.89-1.24,1.72-2.42,2.43-3.46.06.02.11.01.17.02-.6,2.2-.98,4.22-1.23,5.77-.02.14-.05.28-.07.41-.83.39-1.46,1.27-1.37,2.23.11,1.27,1.13,2.31,2.45,2.26.04,0,.08-.01.11-.01,1.23-.05,2.38-1.17,2.26-2.45-.11-1.27-1.12-2.31-2.45-2.26-.04,0-.07.01-.11.01-.14,0-.29.03-.42.06.02-.05.02-.1.04-.14.45-1.59,1.03-3.68,1.73-5.98.18-.05.35-.13.53-.22.07-.05.15-.09.23-.13,1.08-.6,1.41-2.26.71-3.25-.06-.09-.13-.17-.19-.25.75-2.04,1.54-3.82,2.24-5.16.38-.75.73-1.38.98-1.85,1.86-1.47,3.76-3.03,5.65-4.68,4.36-3.82,8.22-7.82,11.37-11.75,3.15-3.94,5.59-7.76,7.56-11,.17-.27.33-.54.49-.8-.59,1.26-1.17,2.57-1.73,3.92-1.15,2.64-2.36,5.4-3.62,8.28-.53,1.26-1.05,2.55-1.56,3.87,0,.02-.02.04-.03.06-7.43,16.55-15.32,32.35-23.38,47.39-8.09,15.11-16.35,29.46-24.55,43.06-1.88,1.55-4.61,3.88-8.05,6.73-3.33,2.78-7.35,6-11.88,9.49-4.55,3.46-9.63,7.17-15.08,10.9-5.46,3.7-10.74,7.1-15.61,10.12-4.88,2.99-9.31,5.62-13.1,7.74-1.87,1.1-3.61,2.01-5.12,2.85-1.5.84-2.81,1.54-3.88,2.1-1.99,1.07-3.15,1.69-3.31,1.78.14-.05,1.36-.55,3.48-1.41,1.13-.45,2.51-1.03,4.09-1.73,1.58-.7,3.39-1.48,5.35-2.43,3.95-1.84,8.58-4.19,13.62-7,5.02-2.83,10.44-6.13,15.96-9.86,5.49-3.76,10.58-7.57,15.09-11.17,4.48-3.62,8.42-7.01,11.61-9.98,1.71-1.59,3.21-3.04,4.51-4.31-2.91,4.77-5.81,9.44-8.68,14.03-11.74,18.71-23.15,35.86-33.8,51.35-10.6,15.52-20.47,29.38-28.75,41.82-4.15,6.22-7.92,12.06-11.32,17.48-3.37,5.45-6.39,10.46-8.97,15.04-5.2,9.15-8.88,16.45-11.25,21.45-1.21,2.49-2.04,4.44-2.64,5.72-.22.49-.4.88-.54,1.19.15-.31.33-.7.55-1.18.62-1.27,1.47-3.2,2.71-5.69Zm118.76-239.92c-.13-.29-.32-.53-.55-.74.79.17,1.55.31,2.28.42-.64.08-1.23.19-1.73.32Z"></path> </g> <g> <path class="cls-8" d="m234.01,811.31c-32.95,32.54-69.12,59.5-100.73,87.17,32.89-17.84,94.2-35.57,100.73-87.17Z"></path> <path class="cls-2" d="m111.68,918.36c21.14-12.7,44.25-25.23,66.68-38.82-14.22,5.35-36.51,19.06-57.37,29.99-3.16,2.92-6.27,5.86-9.3,8.83Z"></path> <path class="cls-25" d="m272.22,774.27c.77,18.71-12.03,39.36-30.36,59.09,26.16-24.49,45.32-53.81,49.61-91.68-.39.06-.76.14-1.15.21-6.48,10.55-13.49,20.48-20.87,29.93,1.54-.06,2.69.51,2.77,2.45Z"></path> <path class="cls-15" d="m133.28,898.48c-4.19,3.67-8.29,7.35-12.3,11.06,20.86-10.93,43.15-24.65,57.37-29.99,17.14-10.39,33.88-21.41,49.02-33.62,15.09-17.5,26.42-35.73,26.14-50.06-.55-.03-1.1-.03-1.64,0-1.15.05-2.27.22-3.35.47-4.75,5.13-9.6,10.12-14.53,14.98-6.53,51.59-67.84,69.33-100.73,87.17Z"></path> <path class="cls-1" d="m253.51,795.87c.27,14.33-11.06,32.55-26.14,50.06,5.02-4.05,9.87-8.23,14.49-12.56,18.33-19.73,31.13-40.38,30.36-59.09-.08-1.94-1.24-2.51-2.77-2.45-6.69,8.55-13.68,16.7-20.91,24.51,1.08-.26,2.19-.43,3.35-.47.54-.02,1.08-.02,1.64,0Z"></path> <path class="cls-10" d="m274.38,765.35c5.58-7.5,10.92-15.29,15.94-23.46-32.98,5.66-55.69,19.91-74.29,38.93,18.72-14.36,39.19-28.81,46.03-29.09,7.96-.33,11.12,7.24,12.32,13.62Z"></path> <path class="cls-4" d="m229.48,792.65c-24.36,1-49.79,52.56-84.07,95.4,25.68-21.71,53.57-43.48,79.9-68.35,3.79-6.76,6.14-13.94,5.84-21.36-.08-1.84-.19-5.75-1.67-5.69Z"></path> <path class="cls-18" d="m101.47,924.38c.18-.04.37-.08.55-.12,3.16-1.98,6.38-3.94,9.65-5.91,3.32-3.25,6.74-6.47,10.23-9.68,7.12-8.82,16.34-18.4,27.79-36.34-13.25,17.93-28.57,35.74-48.22,52.04Z"></path> <path class="cls-16" d="m145.41,888.06c34.29-42.84,59.71-94.4,84.07-95.4,1.47-.06,1.59,3.85,1.67,5.69.31,7.43-2.05,14.6-5.84,21.36,10.25-9.69,20.27-19.83,29.82-30.65-1.5-4.59-4.29-8.19-9.56-7.98-25.55,1.05-44.33,19.67-62.29,41.83-10.62,15.82-21.21,32.68-33.59,49.43-11.45,17.94-20.68,27.52-27.79,36.34,7.54-6.93,15.41-13.78,23.51-20.63Z"></path> <path class="cls-20" d="m245.57,781.09c5.27-.22,8.06,3.38,9.56,7.98,6.67-7.56,13.11-15.45,19.25-23.71-1.19-6.38-4.36-13.94-12.32-13.62-6.84.28-27.31,14.73-46.03,29.09-12.09,12.36-22.44,26.74-32.75,42.09,17.95-22.16,36.73-40.78,62.29-41.83Z"></path> <path class="cls-5" d="m249.83,795.9s.62-.72,1.73-2.03c1.12-1.3,2.71-3.21,4.66-5.59,3.9-4.75,9.12-11.44,14.69-18.99,5.57-7.54,10.46-14.48,14.02-19.49,1.78-2.5,3.22-4.53,4.22-5.93.51-.7.9-1.24,1.16-1.6.27-.36.42-.55.43-.54s-.11.21-.36.59c-.25.38-.62.93-1.09,1.65-.97,1.42-2.37,3.48-4.1,6.02-3.49,5.06-8.34,12.03-13.92,19.58-5.58,7.55-10.89,14.18-14.88,18.86-1.99,2.34-3.63,4.22-4.78,5.49-1.15,1.28-1.79,1.98-1.79,1.98Z"></path> <path class="cls-5" d="m215,829.66s1.88-1.73,4.92-4.52c3.04-2.79,7.26-6.64,11.85-10.95,4.59-4.31,8.63-8.33,11.5-11.3,1.43-1.49,2.58-2.7,3.38-3.54.4-.42.71-.74.92-.96.21-.22.33-.32.34-.31.01.01-.08.14-.28.37-.2.23-.49.57-.86,1.02-.75.88-1.87,2.12-3.28,3.64-2.81,3.03-6.83,7.09-11.42,11.41-4.6,4.32-8.89,8.08-12.01,10.79-3.13,2.69-5.07,4.35-5.07,4.35Z"></path> <path class="cls-5" d="m184.19,856.75s8.55-7.81,19.29-17.23c10.74-9.42,19.51-16.99,19.59-16.89.08.09-8.55,7.81-19.29,17.23-10.74,9.42-19.59,16.89-19.59,16.89Z"></path> </g> <g> <path class="cls-14" d="m363.5,852.34c16.89-27.7,24.95-57.9,28.42-89.18-7.22,23.57-12.64,59.97-28.03,82.36-.09,2.28-.21,4.56-.39,6.82Z"></path> <path class="cls-21" d="m367.25,718.28c-.11,3.23-.18,6.47-.16,9.71.17,30.18,4.57,37.83,4.7,61.05.05,8.75-.59,17.41-1.84,25.92,8.42-18.91,17.39-42.72,15.91-78.68-.98-23.93-11.26-30-18.62-18Z"></path> <path class="cls-24" d="m379.48,675.88c-4.02.17-6.4,2.92-8.12,6.34-2.35,11.85-3.69,23.91-4.11,36.06,7.36-12,17.63-5.93,18.62,18,1.48,35.95-7.49,59.76-15.91,78.68-1.31,8.91-3.3,17.67-5.92,26.22-.03,1.45-.08,2.89-.14,4.33,15.38-22.39,20.81-58.78,28.03-82.36.22-2,.42-4,.6-6-1.99-28.46-6.57-81.54-13.05-81.28Z"></path> <path class="cls-16" d="m391.03,721.65c.33,7.92,1,13.49,2.72,17.48.38-8.61.52-17.27.47-25.95-.12-22.16-2.99-83.05-2.99-83.33,0-.03,0-.05,0-.08-1.06.92-2.09,1.86-3.1,2.82-3.67,7.35-6.82,14.89-9.48,22.58,6.09,7.23,11.28,19.95,12.03,38.08.39,9.47-.02,19.2.36,28.41Z"></path> <path class="cls-13" d="m379.48,675.88c6.47-.27,11.06,52.81,13.05,81.28.55-5.98.95-11.99,1.22-18.03-1.72-3.99-2.4-9.56-2.72-17.48-.38-9.21.03-18.94-.36-28.41-.75-18.13-5.94-30.85-12.03-38.08-3.07,8.84-5.47,17.89-7.29,27.05,1.73-3.42,4.11-6.17,8.12-6.34Z"></path> <path class="cls-2" d="m355.06,759.75c3.4,22.87,8.85,47.4,9.01,76.68,0,1.59,0,3.17-.04,4.75,2.19-7.16,3.94-14.46,5.22-21.87-7.31-3.89-5.11-35.22-14.19-59.57Z"></path> <path class="cls-8" d="m356.17,736.18c.64,15.61,12,32.09,15.62,52.5-.17-22.92-4.53-30.66-4.7-60.68-.05-9.16.43-18.29,1.43-27.33-10.21,2.8-12.78,24.94-12.35,35.51Z"></path> <path class="cls-25" d="m374.88,667.25c3.29-11.89,7.67-23.49,13.25-34.66-25.33,24.03-35.93,61.49-35.73,97.39.02,4.37.26,8.75.65,13.16.3-30.9,3.92-72.95,21.84-75.89Z"></path> <path class="cls-15" d="m353.91,723.34c.56,13.62,6.48,60.3,17.31,80.4.39-4.86.59-9.77.56-14.7,0-.12,0-.24,0-.36-3.61-20.41-14.97-36.89-15.62-52.5-.43-10.57,2.13-32.71,12.35-35.51.75-6.81,1.81-13.58,3.2-20.27-11.96,5.27-18.22,32.73-17.8,42.95Z"></path> <path class="cls-1" d="m353.04,743.14c.48,5.46,1.18,10.99,2.02,16.61,9.08,24.35,6.88,55.68,14.19,59.57.89-5.14,1.55-10.33,1.97-15.57-10.83-20.1-16.75-66.78-17.31-80.4-.42-10.22,5.84-37.68,17.8-42.95.92-4.41,1.96-8.8,3.16-13.14-17.92,2.94-21.54,44.98-21.84,75.89Z"></path> <path class="cls-5" d="m378.23,654.99s.08-.37.28-1.04c.19-.66.52-1.61.99-2.75.95-2.28,2.55-5.3,4.24-8.67,1.71-3.36,3.26-6.39,4.39-8.59.57-1.1,1.03-1.98,1.34-2.6.32-.61.51-.94.51-.94,0,0-.16.35-.46.97-.31.62-.75,1.51-1.31,2.62-1.11,2.2-2.65,5.25-4.35,8.61-1.69,3.37-3.32,6.37-4.3,8.63-.49,1.13-.83,2.07-1.03,2.73-.21.66-.3,1.03-.3,1.03Z"></path> <path class="cls-5" d="m377.13,658.65s.03-.27.15-.58c.12-.31.24-.55.27-.54.03.01-.03.27-.15.58-.12.31-.27.54-.27.54Z"></path> <path class="cls-5" d="m368.27,752.78s-.1-.87-.29-2.45c-.11-.79-.18-1.76-.28-2.88-.11-1.12-.19-2.4-.27-3.82-.35-5.67-.49-13.52-.24-22.18.24-8.66.81-16.49,1.42-22.14.6-5.65,1.32-9.09,1.32-9.09,0,0-.13.87-.39,2.43-.24,1.57-.54,3.85-.84,6.67-.59,5.64-1.14,13.47-1.39,22.13-.25,8.66-.15,16.5.17,22.17.07,1.42.15,2.7.25,3.82.09,1.12.16,2.09.26,2.88.18,1.58.27,2.45.27,2.45Z"></path> </g> <g> <path class="cls-15" d="m224.56,721.93c21.43-5.35,41.49-13.64,59.23-25.83,15.41-13.89,29.57-28.85,29.28-35.79,0-.22-.03-.44-.07-.65-7.01,4.16-14.34,8.06-21.89,11.7,1.16,1.71,1.84,3.38,1.9,4.8.94,22.77-34.52,34.29-68.46,45.77Z"></path> <path class="cls-30" d="m0,708.71c6.76,2.94,13.29,6.11,20.17,8.73,46.53,7.51,99.76,14.98,150.03,12.27,2.85-.15,5.68-.35,8.51-.57-58.77-5.13-104.54,3.9-162.92-18.44-5.27-1.12-10.42-1.9-15.79-1.99Z"></path> <path class="cls-1" d="m283.79,696.1c16.12-11.07,30.34-25.35,41.95-43.6-.24-.15-.49-.29-.74-.44-3.87,2.62-7.88,5.15-12,7.59.03.22.06.44.07.65.29,6.94-13.87,21.9-29.28,35.79Z"></path> <path class="cls-8" d="m15.79,710.7c58.38,22.34,104.16,13.31,162.92,18.44,15.73-1.23,31.11-3.53,45.85-7.21,33.94-11.48,69.39-23,68.46-45.77-.06-1.42-.74-3.1-1.9-4.8-1.87.9-3.75,1.79-5.64,2.66.31.66.5,1.38.53,2.18,1.45,35.31-79.3,47.91-113.7,49.32-26.11,1.07-58.43.42-89.2-4.93-31.38,1.13-49.97-6.22-67.32-9.89Z"></path> <path class="cls-27" d="m267.08,689.58c-.11-2.75-2.19-4.54-5.21-5.66-60.06,22.94-126.03,32.63-156.68,34.71,9.21.54,23.49.81,44.78-.07,83.28-3.42,117.92-9.28,117.11-28.98Z"></path> <path class="cls-2" d="m286,676.2c-.03-.8-.22-1.52-.53-2.18-7.7,3.54-15.6,6.83-23.6,9.89,3.01,1.12,5.09,2.92,5.21,5.66.81,19.7-33.83,25.56-117.11,28.98-21.28.88-35.57.61-44.78.07-.5.03-.99.07-1.47.1-5.65.82-11.4,1.42-17.26,1.73-1.14.06-2.25.11-3.36.15,30.77,5.35,63.08,6,89.2,4.93,34.4-1.41,115.15-14.02,113.7-49.32Z"></path> <path class="cls-11" d="m270.8,667.14c-.11-2.74-1.29-4.81-8.11-4.53-11.94.49-59.02,29.21-82.43,44.88,24.6-5.21,51.58-12.43,77.64-22.09,7.83-5.84,13.16-12.07,12.91-18.27Z"></path> <path class="cls-21" d="m272.08,654.79c-18.72.77-36.18,22.22-84.52,42.15-7.28,3-13.55,7.37-18.37,12.8,3.63-.7,7.33-1.45,11.08-2.25,23.41-15.66,70.49-44.39,82.43-44.88,6.82-.28,8,1.78,8.11,4.53.25,6.19-5.08,12.42-12.91,18.27,10.06-3.73,19.98-7.83,29.57-12.31.35-1.61.5-3.25.44-4.84-.35-8.57-6.82-13.84-15.82-13.47Z"></path> <path class="cls-6" d="m149.58,713.24c2.56-8.68,22.88-7.91,57.66-34.26-29.55,16.68-64.05,33.98-103.51,39.74,10.99-.68,26.99-2.41,45.85-5.48Z"></path> <path class="cls-13" d="m149.58,713.24c3.06-.5,6.2-1.03,9.41-1.6,4.28-5.59,10.27-10.11,15.95-12.66,66.14-29.67,70.1-49.04,105.5-50.5,9.91-.41,25.12,1.77,25.56,12.41.04.98-.07,1.96-.28,2.94,6.7-3.7,13.16-7.61,19.29-11.76-11.84-7.13-25.45-10.34-39.06-9.61-20.45,1.1-46.67,18.44-78.71,36.52-34.79,26.35-55.1,25.59-57.66,34.26Z"></path> <path class="cls-24" d="m280.44,648.48c-35.4,1.46-39.35,20.83-105.5,50.5-5.68,2.55-11.67,7.07-15.95,12.66,3.33-.59,6.73-1.22,10.19-1.9,4.82-5.43,11.09-9.8,18.37-12.8,48.34-19.93,65.81-41.38,84.52-42.15,9-.37,15.47,4.9,15.82,13.47.07,1.59-.09,3.23-.44,4.84,6.24-2.92,12.34-6.01,18.25-9.27.21-.98.32-1.96.28-2.94-.44-10.64-15.65-12.82-25.56-12.41Z"></path> <path class="cls-5" d="m131.16,715.96s2.75-.32,7.71-1.05c4.96-.72,12.12-1.91,20.93-3.52,17.73-2.69,41.88-8.36,68.12-16.06,26.24-7.76,49.08-17.55,65.15-25.47,2.02-.97,3.93-1.92,5.72-2.85,1.8-.92,3.49-1.79,5.08-2.6,3.14-1.68,5.85-3.12,8.06-4.3,2.19-1.21,3.9-2.15,5.05-2.79,1.16-.63,1.77-.96,1.77-.96,0,0-.6.35-1.75,1-1.15.65-2.85,1.6-5.03,2.83-2.19,1.22-4.9,2.65-8.04,4.34-1.58.82-3.27,1.69-5.07,2.61-1.79.94-3.7,1.89-5.72,2.87-16.05,7.97-38.89,17.79-65.15,25.56-26.25,7.7-50.43,13.31-68.17,15.94-8.82,1.58-15.99,2.74-20.95,3.43-4.96.7-7.72,1.01-7.72,1.01Z"></path> </g> <g> <path class="cls-28" d="m436.92,713.71c.5,5.76.63,11.51.26,17.25.29-1.05.6-2.1.9-3.15.52-3.32,1.11-6.77,1.72-10.28.38-2.18.78-4.38,1.19-6.61-1.68-9.19-4.88-21.82-8.61-35.01-3.28-11.61-6.96-23.63-10.37-34.11,5.39,25.29,13.15,51.59,14.9,71.91Z"></path> <path class="cls-10" d="m449.05,507.77c2.95-2.48,5.81-3.6,8.52-3.71,5.02-.21,9.56,3.04,13.29,7.58,3.4-12.49,5.69-25.36,5.75-38.41-22.41,9.7-37.17,32.06-46.42,56.6,4.85-8.04,11.01-15.47,18.85-22.06Z"></path> <path class="cls-20" d="m417.16,611.5c.83,9.6,2.65,19.86,4.87,30.29,3.4,10.48,7.09,22.51,10.37,34.11-5.08-30.06-9.68-60.37-10.04-69.26-1.21-29.47,3.92-76.69,32.88-77.88,3.57-.15,6.46,1.56,8.75,4.31,2.53-6.99,4.9-14.15,6.88-21.43-3.73-4.53-8.27-7.78-13.29-7.58-2.72.11-5.58,1.23-8.52,3.71-7.85,6.59-14.01,14.02-18.85,22.06-11.54,30.59-14.51,64.57-13.04,81.67Z"></path> <path class="cls-4" d="m443.11,552.3c-1.72.07-14.24,7.56-13.05,36.47,1.16,28.09,7.89,68.04,12.46,107.37.34-23.88.53-47.74-1.51-71.42-.32-3.73-.82-7.46-1.15-11.2-1.16-13.5,4.38-29.8,11.49-47.97-1.99-7.56-5.79-13.35-8.24-13.25Z"></path> <path class="cls-16" d="m455.23,528.77c-28.96,1.19-34.09,48.41-32.88,77.88.37,8.89,4.96,39.19,10.04,69.26,3.73,13.19,6.93,25.82,8.61,35.01.45-2.45.92-4.92,1.4-7.42.04-2.45.07-4.91.11-7.36-4.56-39.33-11.3-79.28-12.46-107.37-1.19-28.91,11.33-36.4,13.05-36.47,2.45-.1,6.25,5.69,8.24,13.25,4.02-10.28,8.54-21.15,12.64-32.47-2.29-2.75-5.18-4.46-8.75-4.31Z"></path> <path class="cls-17" d="m485.31,530.34c1.28,31.02-15.68,47.23-20.73,76.53.66-2.58,1.08-4.16,1.17-4.53,7.15-27.31,26.55-45.22,22.47-92.55-1.33-15.46-6.12-28.07-11.03-36.82-.19.08-.38.17-.57.26-.04,9.2-1.2,18.31-3.06,27.26,7.61,4.61,11.33,19.6,11.75,29.84Z"></path> <path class="cls-12" d="m442.83,664.92s-.09,0-.14,0c.1,12.84-.1,25.71-.29,38.58,6.81-35.06,16.38-73.83,20.86-91.5-12.76,23.27-13.01,52.61-20.43,52.91Z"></path> <path class="cls-9" d="m442.54,654.46c7.15-11.89,8.8-28.33,13.21-41.17,8.51-24.76,24.75-48.18,23.64-75.23-.36-8.8-2.48-19.62-9.85-21.74-2.36,7.98-5.13,15.8-8.02,23.39,2.58-2.07,4.77-3.06,5.86-3.1,3.97-.16,5.25,9.19,5.41,13.14,1.25,30.47-32.01,44.71-30.5,81.5.05,1.27.18,2.84.19,3.05.07,1.65-.12,3.27-.49,4.87.26,5.09.44,10.18.56,15.28Z"></path> <path class="cls-23" d="m479.38,538.06c1.11,27.05-15.12,50.47-23.64,75.23-4.41,12.83-6.06,29.28-13.21,41.17.08,3.48.13,6.97.16,10.46.05,0,.09,0,.14,0,7.43-.31,7.67-29.64,20.43-52.91.5-1.99.95-3.71,1.31-5.13,5.05-29.3,22.01-45.51,20.73-76.53-.42-10.25-4.14-25.23-11.75-29.84-1.11,5.34-2.48,10.62-4.02,15.83,7.37,2.11,9.49,12.94,9.85,21.74Z"></path> <path class="cls-26" d="m442.29,631.26c-1.51-36.79,31.75-51.03,30.5-81.5-.16-3.95-1.44-13.3-5.41-13.14-1.08.04-3.28,1.04-5.86,3.1-10.87,28.64-23.36,54.17-21.67,73.8.32,3.74.82,7.47,1.15,11.2.41,4.81.74,9.63.98,14.45.37-1.6.56-3.21.49-4.87,0-.21-.14-1.78-.19-3.05Z"></path> <path class="cls-5" d="m442.83,662.32s-.3-2.69-.43-7.58c-.06-2.44-.13-5.43-.22-8.9-.05-1.73-.11-3.59-.24-5.55-.14-1.96-.37-4.03-.57-6.21-.42-4.35-.79-9.13-1.07-14.26-.23-5.13-.38-10.64.06-16.41.06-.72.12-1.45.17-2.18.09-.73.18-1.46.28-2.19.15-1.48.48-2.94.73-4.44.64-2.96,1.4-5.96,2.42-8.95,1.97-5.98,4.47-12,6.76-18.26,2.28-6.26,4.34-12.44,6.46-18.36,1.06-2.96,2.12-5.87,3.34-8.64,1.23-2.76,2.42-5.47,3.52-8.14,2.21-5.34,4.11-10.49,5.61-15.4,1.51-4.91,2.62-9.57,3.44-13.86.83-4.29,1.38-8.2,1.8-11.65.44-3.44.73-6.42.97-8.85.23-2.43.41-4.32.53-5.6.12-1.28.19-1.95.19-1.95,0,0-.18,2.7-.63,7.57-.22,2.43-.51,5.41-.93,8.86-.41,3.45-.95,7.37-1.77,11.67-.81,4.3-1.91,8.97-3.41,13.89-1.5,4.92-3.39,10.08-5.6,15.43-1.1,2.67-2.29,5.39-3.51,8.15-1.21,2.76-2.27,5.67-3.33,8.63-2.11,5.92-4.17,12.1-6.45,18.37-2.29,6.27-4.8,12.28-6.77,18.25-1.01,2.97-1.78,5.97-2.42,8.92-.25,1.49-.58,2.95-.73,4.42-.09.73-.19,1.46-.28,2.19-.06.73-.12,1.45-.18,2.17-.44,5.76-.31,11.25-.1,16.38.27,5.13.62,9.9,1.03,14.26.19,2.18.41,4.25.54,6.21.12,1.97.18,3.82.22,5.56.07,3.47.13,6.46.18,8.9.1,4.89.39,7.58.39,7.58Z"></path> </g> <g> <path class="cls-19" d="m351.42,531.62c-.07-1.71-.31-2.99-.69-3.95-18.11,14.14-41.81,30.31-75.78,65.55,39.71-32.3,77.38-39.64,76.47-61.6Z"></path> <path class="cls-2" d="m226.1,649.3c23.58-22.48,51.73-39.74,77.86-57.07-32.65,14.68-44.57,32.71-63.91,40.01-4.51,5.39-9.15,11.05-13.96,17.06Z"></path> <path class="cls-25" d="m343.86,562.97c19.96-17.21,35.32-36.85,41.13-62.86-1.9-.3-3.81-.54-5.71-.73-1.37,1.93-2.77,3.77-4.21,5.53,5.36,11.62-16.86,39.56-31.21,58.07Z"></path> <path class="cls-7" d="m360.21,521.25c-.02-.42-.07-.81-.15-1.18-2.94,2.53-6.05,5.03-9.33,7.59.38.96.62,2.24.69,3.95.9,21.96-36.76,29.3-76.47,61.6-9.23,9.57-19.21,20.55-30.05,33.28,45.08-36.42,116.87-67.39,115.31-105.25Z"></path> <path class="cls-1" d="m303.96,592.23c14.25-9.45,27.91-18.92,39.9-29.26,14.35-18.51,36.57-46.45,31.21-58.07-4.58,5.62-9.52,10.46-15.01,15.17.08.36.13.75.15,1.18,1.56,37.85-70.23,68.82-115.31,105.25-1.6,1.87-3.21,3.79-4.84,5.74,19.34-7.3,31.25-25.33,63.91-40.01Z"></path> <path class="cls-16" d="m226.1,649.3c3.22-4.03,6.37-7.9,9.46-11.65,1.19-13.36,18.59-32.12,23-53.41.22-1.09.41-2.18.56-3.28-13.78,27.09-25.87,56.25-44.02,79.61,3.53-3.91,7.21-7.66,11-11.27Z"></path> <path class="cls-13" d="m259.12,580.96c-.15,1.1-.34,2.19-.56,3.28,18.58-36.54,38.51-68.34,76.75-69.91,8.91-.37,13.31,4.38,13.61,11.77.04,1.06-.03,2.1-.2,3.14,5.57-4.3,10.62-8.37,15.28-12.66-2.96-8.89-16.56-11.09-23.54-10.8-13.35.55-31.9,12-48.41,25.2-13.39,14.06-23.55,31.55-32.93,49.99Z"></path> <path class="cls-16" d="m364,516.57c5.58-5.14,10.61-10.61,15.28-17.2-4.62-.46-9.25-.6-13.84-.41-33.37,1.37-56.08,13.82-73.39,32,16.51-13.2,35.06-24.65,48.41-25.2,6.97-.29,20.58,1.91,23.54,10.8Z"></path> <path class="cls-21" d="m321.05,526.8c-42.46,1.75-48.25,46.66-68.92,91.31,34.95-39.94,60.62-61.23,80.51-76.59.58-2.29.86-4.63.77-6.99-.17-4.2-1.99-8.16-12.36-7.73Z"></path> <path class="cls-24" d="m335.3,514.33c-38.24,1.57-58.17,33.37-76.75,69.91-4.41,21.29-21.81,40.05-23,53.41,5.75-6.97,11.27-13.47,16.58-19.54,20.66-44.65,26.46-89.57,68.92-91.31,10.38-.43,12.19,3.53,12.36,7.73.1,2.36-.19,4.69-.77,6.99,5.82-4.49,11.15-8.48,16.07-12.28.16-1.04.24-2.08.2-3.14-.3-7.39-4.7-12.13-13.61-11.77Z"></path> <path class="cls-5" d="m244.56,626.77s1.54-2.08,4.34-5.85c.68-.96,1.51-1.97,2.41-3.07.9-1.11,1.88-2.31,2.93-3.6,1.03-1.31,2.21-2.64,3.47-4.05,1.25-1.42,2.57-2.91,3.96-4.49,5.7-6.15,12.66-13.33,20.76-20.91,8.1-7.58,17.24-15.66,27.01-23.92,9.77-8.27,19.23-15.96,27.86-22.93,8.64-6.96,16.41-13.22,22.94-18.48,1.63-1.32,3.18-2.58,4.64-3.77,1.45-1.21,2.74-2.44,3.9-3.62,2.33-2.37,4.17-4.58,5.63-6.41,1.46-1.84,2.52-3.31,3.24-4.32.36-.5.63-.89.81-1.15.18-.26.28-.39.28-.39,0,0-.35.55-1.05,1.56-.7,1.02-1.76,2.5-3.2,4.35-1.45,1.85-3.28,4.06-5.61,6.45-1.16,1.19-2.45,2.43-3.9,3.65-1.46,1.19-3.01,2.46-4.64,3.78-6.52,5.27-14.29,11.55-22.91,18.53-8.62,6.97-18.08,14.67-27.84,22.94-9.77,8.26-18.92,16.33-27.03,23.88-8.11,7.56-15.09,14.71-20.81,20.83-1.39,1.57-2.72,3.06-3.97,4.47-1.26,1.41-2.45,2.73-3.48,4.04-1.06,1.29-2.04,2.48-2.95,3.58-.91,1.1-1.74,2.1-2.43,3.06-2.81,3.75-4.37,5.83-4.37,5.83Z"></path> </g> <g> <path class="cls-22" d="m553.24,553c-11.82-13.98-21.2-28.77-29.83-44.12,17.25,33.79,37.21,54.16,52.81,72.11-2.09-3.94-4.27-8.1-6.51-12.46-5.59-4.98-11.54-9.7-16.48-15.53Z"></path> <path class="cls-1" d="m492.83,391.1c0,.19.08,9.01.22,19.91,6.79,41.3,17.43,72.07,29.48,96.13-16.31-57.58-22.72-70.06-23.67-93.04-.35-8.46.23-17.12,2.05-25.14-3.03-12.61-5.67-25.43-7.84-38.38-2.33,5.2-2.6,11.7-2.34,17.8.54,13.1,1.87,16.92,2.1,22.71Z"></path> <path class="cls-25" d="m493.05,411c-.14-10.9-.21-19.72-.22-19.91-.24-5.79-1.57-9.61-2.1-22.71-.25-6.1.01-12.61,2.34-17.8-2.25-13.5-3.98-27.14-5.06-40.84-.93-1-1.88-2.01-2.84-3.02.02,6.03.2,13.35.48,22.7.91,31.09,3.53,58.05,7.4,81.59Z"></path> <path class="cls-8" d="m560.64,550.42c-19.84-40.6-42.55-94.07-57.5-152.48-1.72,4.51-2.68,10.07-2.41,16.73,2.42,58.81,43.74,115.66,59.91,135.75Z"></path> <path class="cls-15" d="m522.53,507.13c.29.59.59,1.18.89,1.76,8.63,15.35,18,30.14,29.83,44.12,4.94,5.84,10.89,10.56,16.48,15.53-2.93-5.7-5.97-11.75-9.08-18.12-16.17-20.09-57.49-76.94-59.91-135.75-.27-6.67.69-12.22,2.41-16.73-.76-2.98-1.51-5.97-2.23-8.98-1.81,8.02-2.39,16.67-2.05,25.14.94,22.98,7.36,35.46,23.67,93.04Z"></path> <path class="cls-20" d="m499.41,339.02c3.71-.15,34.25,12.05,36.58,68.82.76,18.46-.74,37.69-.03,54.82.74,17.95,4.2,35.75,8.65,53.27,6.59,14.97,13.18,28.85,19.41,41.35.32-.82.44-1.71.4-2.63,0,0-13.15-39.68-14.43-70.92-.08-2.05-.13-4.09-.13-6.13-1.99-19.83-2.55-37.97-4.97-55.97-7.23-27.12-21.57-91.64-55.21-94.97.68,5.82,1.47,11.63,2.36,17.41,2.16-2.84,4.71-4.95,7.38-5.06Z"></path> <path class="cls-4" d="m531.28,420c-1.02-24.82-12.1-57.89-31.7-57.09-1.59.07-2.98.21-4.21.48,8.11,42.18,21.06,82.69,35.18,118.77-.11-1.56-.21-3.11-.27-4.67-.74-17.99,1.78-38.3.99-57.49Z"></path> <path class="cls-16" d="m535.99,407.84c-2.33-56.77-32.87-68.97-36.58-68.82-2.67.11-5.22,2.22-7.38,5.06.99,6.47,2.11,12.91,3.34,19.31,1.23-.27,2.61-.41,4.21-.48,19.6-.81,30.68,32.27,31.7,57.09.79,19.19-1.73,39.5-.99,57.49.06,1.56.16,3.11.27,4.67,4.6,11.76,9.33,23.04,14.05,33.76-4.45-17.52-7.92-35.32-8.65-53.27-.7-17.12.79-36.36.03-54.82Z"></path> <path class="cls-10" d="m564.42,554.65c.04.92-.07,1.81-.4,2.63,4.27,8.58,8.38,16.51,12.21,23.72,1.89,2.17,3.72,4.31,5.47,6.44-22.23-44.47-28.76-79.17-31.84-109.83,0,2.04.05,4.08.13,6.13,1.28,31.23,14.43,70.92,14.43,70.92Z"></path> <path class="cls-10" d="m544.88,421.64c-4.6-34.24-15.97-67.98-56.87-111.9.45,5.65,1.01,11.3,1.67,16.93,33.64,3.34,47.97,67.85,55.21,94.97Z"></path> <path class="cls-5" d="m488.75,318.77s.08.85.24,2.48c.16,1.63.38,4.03.75,7.11.71,6.17,1.94,15.08,3.91,26.02,1.96,10.93,4.7,23.88,8.21,38.15,1.76,7.13,3.71,14.59,5.84,22.29,2.17,7.69,4.55,15.62,7.19,23.67,10.58,32.22,22.1,60.71,31.08,81.02,4.5,10.16,8.36,18.28,11.13,23.84,2.81,5.54,4.35,8.59,4.36,8.61,0,0-1.64-3.02-4.45-8.56-2.8-5.55-6.68-13.66-11.21-23.81-9.02-20.3-20.57-48.79-31.15-81.02-2.64-8.06-5.02-15.99-7.18-23.69-2.13-7.71-4.07-15.17-5.81-22.31-3.49-14.27-6.2-27.23-8.12-38.17-1.95-10.94-3.14-19.86-3.83-26.03-.37-3.09-.58-5.49-.72-7.12-.15-1.63-.23-2.48-.23-2.48Z"></path> </g> <g> <path class="cls-3" d="m426.36,387.95c11.74-16.95,19.35-35.68,19.19-56.53-.06-8.41-1.41-17.12-4.27-26.16-.29.14-.58.28-.87.42-.64,4.6-1.53,9.09-2.63,13.49,2.88,5.23,4.24,11.17,4.49,17.29.76,18.37-7.86,34.69-15.91,51.49Z"></path> <path class="cls-2" d="m322.06,483.16c13.47-13.05,33.78-27.53,54.06-44.1-17.25,11.68-35.27,26.49-50.07,33.46-1.33,3.56-2.66,7.11-3.99,10.64Z"></path> <path class="cls-1" d="m328.08,467.08c-.21.57-.42,1.13-.63,1.7,34.49-29.73,108.85-57.29,106.43-116.17-.13-3.15-1.52-8.48-3.85-11.1-2.3,5.18-4.91,10.25-7.77,15.23,3.04.05,5.46,1.68,5.58,4.81,1.42,34.45-43.55,57.49-72.42,76.03-9.07,9.54-18.29,19.3-27.34,29.5Z"></path> <path class="cls-15" d="m427.84,361.55c-.13-3.13-2.55-4.76-5.58-4.81-16.27,28.28-40.96,53.64-66.83,80.84,28.87-18.54,73.84-41.58,72.42-76.03Z"></path> <path class="cls-25" d="m327.44,468.79c-.46,1.25-.93,2.49-1.39,3.74,14.8-6.97,32.83-21.78,50.07-33.46,18.51-15.12,37-31.99,50.23-51.11,8.05-16.8,16.67-33.12,15.91-51.49-.25-6.11-1.61-12.06-4.49-17.29-1.94,7.72-4.55,15.14-7.75,22.34,2.33,2.62,3.72,7.95,3.85,11.1,2.42,58.88-71.95,86.44-106.43,116.17Z"></path> <path class="cls-9" d="m366.04,381.5c.8-1.66,1.35-3.38,1.81-5.15-16.43,28.05-28.29,59.88-39.77,90.73,4.56-5.13,9.16-10.16,13.76-15.1-.59-.64-.98-1.41-1.02-2.33-.16-3.86,9.63-35.89,25.23-68.15Z"></path> <path class="cls-16" d="m350.15,436.94c.08,1.99.29,3.84.61,5.55,3.21-3.39,6.41-6.75,9.58-10.08,13.83-35.56,20.31-73.1,51.36-74.38,3.14-.13,5.44-.3,6.21,5.89,5.29-8.34,9.89-16.91,13.58-25.83-1.38-.74-2.99-1.14-4.87-1.06-46.13,1.9-77.25,80.61-76.46,99.91Z"></path> <path class="cls-26" d="m366.04,381.5c-15.6,32.26-25.39,64.29-25.23,68.15.04.92.42,1.69,1.02,2.33,2.98-3.2,5.96-6.36,8.93-9.5-.32-1.71-.53-3.56-.61-5.55-.79-19.3,30.34-98.01,76.46-99.91,1.89-.08,3.5.32,4.87,1.06,1.21-2.92,2.32-5.87,3.33-8.86-2.54-2.17-5.66-3.48-9.13-3.34-12.35.51-29.47,14.94-44.17,29.64-4.91,6.63-9.44,13.6-13.67,20.82-.46,1.78-1.01,3.5-1.81,5.15Z"></path> <path class="cls-9" d="m434.82,329.23c2.55-7.56,4.45-15.38,5.58-23.55-24.71,11.77-43.62,29.2-58.89,49.85,14.7-14.71,31.82-29.14,44.17-29.64,3.47-.14,6.6,1.17,9.13,3.34Z"></path> <path class="cls-4" d="m411.7,358.03c-31.05,1.28-37.52,38.82-51.36,74.38,21.87-22.97,42.54-44.82,57.56-68.49-.76-6.19-3.07-6.02-6.21-5.89Z"></path> <path class="cls-5" d="m351.98,441.22s6.26-6.71,16.39-17.57c5.06-5.43,11.09-11.89,17.78-19.07,6.66-7.2,13.7-15.39,20.49-24.45,6.79-9.05,12.65-18.14,17.32-26.76,1.23-2.12,2.26-4.28,3.29-6.36.52-1.04,1.03-2.07,1.53-3.08.5-1.01.9-2.05,1.35-3.04.85-2.01,1.74-3.92,2.48-5.8.7-1.9,1.37-3.72,2-5.47,2.38-7.02,3.97-12.82,4.69-16.91.38-2.04.62-3.63.79-4.71.17-1.08.26-1.65.26-1.65,0,0-.24,2.28-.96,6.38-.69,4.1-2.26,9.92-4.62,16.95-.63,1.75-1.3,3.57-1.99,5.48-.74,1.89-1.62,3.8-2.47,5.82-.44,1-.85,2.03-1.34,3.05-.5,1.01-1.01,2.04-1.52,3.08-1.03,2.08-2.06,4.25-3.29,6.37-4.67,8.64-10.53,17.74-17.33,26.8-6.8,9.07-13.85,17.26-20.53,24.45-6.72,7.16-12.77,13.6-17.85,19.01-10.18,10.8-16.48,17.48-16.48,17.48Z"></path> </g> </g> </g> </svg> 