<?xml version="1.0" encoding="UTF-8"?> <svg xmlns="http://www.w3.org/2000/svg" id="Layer_2" data-name="Layer 2" viewBox="0 0 153.1 145.02"> <defs> <style> .cls-1 { fill: #c2b6da; } .cls-2 { fill: #a798c9; } .cls-3 { fill: #fff; } .cls-4 { fill: #c6b9db; } .cls-5 { fill: #d4cde6; } .cls-6 { fill: #bfb5d8; } .cls-7 { fill: #9685be; } .cls-8 { fill: #ecebf1; } .cls-9 { fill: #beb3d7; } .cls-10 { fill: #9482bc; } .cls-11 { fill: #b9afd6; } .cls-12 { fill: #8f81bc; } .cls-13 { fill: #f1eef7; } .cls-14 { fill: #dfdbed; } .cls-15 { fill: #c8bfdd; } .cls-16 { fill: #ddd9eb; } .cls-17 { fill: #e9e4f1; } .cls-18 { fill: #d6cfe7; } .cls-19 { fill: #6451a2; } .cls-20 { fill: #dad2e8; } .cls-21 { fill: #dbd7ec; } .cls-22 { fill: #5e489c; } .cls-23 { fill: #a899c9; } .cls-24 { fill: #9284bd; } .cls-25 { fill: #e2e1ef; } .cls-26 { fill: #b3aad4; } .cls-27 { fill: #9286bd; } .cls-28 { fill: #6c5faa; } .cls-29 { fill: #d8d2e7; } .cls-30 { fill: #f4f3f9; } .cls-31 { fill: #9c8dc2; } .cls-32 { fill: #5c5da9; } .cls-33 { fill: #8b81bb; } .cls-34 { fill: #625ca9; } .cls-35 { fill: #ded6eb; } .cls-36 { fill: #ccc3df; } .cls-37 { fill: #a18ec4; } .cls-38 { fill: #534198; } .cls-39 { fill: #d3cce6; } .cls-40 { fill: #d5d3ea; } .cls-41 { fill: #9589c0; } .cls-42 { fill: #a195c8; } .cls-43 { fill: #e0ddef; } .cls-44 { fill: #635da9; } .cls-45 { fill: #fafcfe; } .cls-46 { fill: #ded9ec; } .cls-47 { fill: #8e81bc; } .cls-48 { fill: #847ab8; } .cls-49 { fill: none; stroke: #ad8955; stroke-miterlimit: 10; stroke-width: .98px; } .cls-50 { fill: #e8e5f2; } .cls-51 { fill: #f6f7fb; } .cls-52 { fill: #e0dbed; } .cls-53 { fill: #9889bf; } .cls-54 { fill: #6a56a4; } .cls-55 { fill: #cec5e0; } .cls-56 { fill: #f2ecf4; } .cls-57 { fill: #625ba8; } .cls-58 { fill: #c5bedf; } .cls-59 { fill: #f3f1f8; } .cls-60 { fill: #c4bedf; } .cls-61 { fill: #f2f0f6; } .cls-62 { fill: #dad6eb; } .cls-63 { fill: #d5cbe4; } .cls-64 { fill: #e6e0f0; } .cls-65 { fill: #cfc9e3; } .cls-66 { fill: #ab9ccb; } .cls-67 { fill: #bab0d6; } .cls-68 { fill: #edecf2; } .cls-69 { fill: #cbc7e2; } .cls-70 { fill: #f1eef5; } .cls-71 { fill: #d7d0e7; } </style> </defs> <g id="clipping_mask" data-name="clipping mask"> <g> <path class="cls-61" d="m72.74,77.51c.13.59.15,1.2.04,1.79-.86,4.49-1.09,9.21-1.14,10.23.17.05.33.05.47-.02.01,0,.09-.2.21-.54.62-1.81,2.34-7.75.81-10.83-.11-.22-.24-.44-.38-.64h0Z"></path> <path d="m107.63,74.13l-.16-.2s-.05-.07-.08-.1l-.2-.24.66.02-.22.52h0Z"></path> <polygon points="129 84.83 128.3 85.05 128.84 84.6 129.12 84.34 129.06 84.8 129 84.83"></polygon> <path class="cls-64" d="m104.02,33.02c-.67.33-1.27,1.05-1.25,1.8,2.28,3.66,5.46,2.15,7.41,3.5.05.03.2.03.26,0,.06-.03-.45-1.07-.48-1.13-1.84-3.7-4.52-4.89-5.95-4.18h0Z"></path> <path class="cls-61" d="m106.94,28.83c-.77.23-1.48.3-2.14.25,1.71.29,3.16.52,4.22,1.88.23.29,3.34,4.04,5.83,7.5-.56-1.03-1.26-2.03-2.11-3.01-2.59-2.98-3.2-7.4-5.81-6.62h0Z"></path> <path class="cls-50" d="m119.09,78.58c3.55,7.12-5.26,11.49-1.97,18.07.62,1.25,1.55,2.34,2.72,3.03,0-.07.02-.15.03-.22.06.02.11.04.17.05-1.74-4.68,6.73-8.58,1.96-18.8-1.04-1.12-2.2-2.14-3.44-3.04.16.22.34.5.54.91h0Z"></path> <path class="cls-64" d="m118.55,77.67c-.15-.11-.31-.22-.46-.33-.33,7.21-8.99,12.93-5.11,20.72,1.87,3.75,4.7,3.11,6.67,2.68.07-.31.13-.64.18-.98,0-.03,0-.06.01-.09-1.17-.69-2.1-1.78-2.72-3.03-3.28-6.58,5.52-10.95,1.97-18.07-.21-.41-.38-.7-.54-.91h0Z"></path> <path class="cls-35" d="m112.98,98.06c-3.89-7.79,4.77-13.51,5.11-20.72-.12-.08-.24-.16-.36-.24-.02,0-.04,0-.06,0,.02,0,.04,0,.06,0-.47-.31-.95-.59-1.43-.86-4.52,2.37-.76,7.5-3.09,10.49-2.97,3.81-5,10.01-2.79,14.44,1.73,3.47,4.24,4.27,7.46,3.33.73-.88,1.29-1.95,1.65-3.23.05-.17.09-.34.13-.52-1.97.43-4.8,1.07-6.67-2.68h0Z"></path> <g> <path class="cls-31" d="m101.6,102.01s.51-.22.87-.4c3.59-1.79,4.71-4.45,3.89-7.16.69,2.95-.49,4.84-2.06,5.62-.48.24-1.03.38-1.64.38-1.91.02-4.21,1-6.67,1.53,2.06,1.04,4.32,1.96,5.25,3.78-.51-1.1-1.02-3.06.37-3.75h0Z"></path> <path class="cls-31" d="m101.3,105.89c.23.53.37,1.45.45,2.16.53.07,1.07.12,1.61.17-.87-.58-1.58-1.39-2.05-2.32,0,0,0,0,0,0h0Z"></path> </g> <path class="cls-45" d="m125.41,85.48c-.75-1.42-1.68-2.77-2.74-4.01.4.68.78,1.38,1.13,2.08.7,1.41,1.32,2.87,1.85,4.36,2.24,6.23-3.3,10.82-4.69,11.51-.16.08-.33.15-.49.2.78.19,1.68.28,2.21.01.13-.07.24-.15.31-.26,4.35-6.24,5.25-8.23,2.66-13.42-.08-.16-.16-.32-.24-.47h0Z"></path> <path class="cls-30" d="m125.66,87.91c-.54-1.49-1.15-2.95-1.85-4.36-.35-.7-.73-1.4-1.13-2.08-.22-.26-.45-.51-.68-.76,4.78,10.23-3.7,14.13-1.96,18.8.14.04.28.08.43.12.17-.06.34-.12.49-.2,1.39-.69,6.93-5.28,4.69-11.51h0Z"></path> <path class="cls-63" d="m110.41,101.16c-2.21-4.43-.18-10.63,2.79-14.44,2.33-2.99-1.44-8.12,3.09-10.49-1.27-.7-2.62-1.28-4-1.7-.7.75-1.11,1.67-.9,2.88.7,4.18-.65,8.12-3.23,11.3-2.39,2.95.61,6.1-.89,10.78-.21.64-1.71,3.72-.45,6.24,1.1,2.21,3.62,2.17,6.04,1.87.72-.21,1.4-.47,2.04-.79,1.15-.57,2.17-1.33,2.98-2.32-3.23.95-5.73.14-7.46-3.33h0Z"></path> <path class="cls-4" d="m106.82,105.73c-1.26-2.52.24-5.6.45-6.24,1.5-4.68-1.5-7.83.89-10.78,2.57-3.18,3.92-7.12,3.23-11.3-.2-1.2.21-2.12.9-2.88-1.51-.46-3.07-.73-4.65-.79-.02.04-.03.07-.04.11.29.36.55.77.79,1.24,1.01,2.03.8,3.69,1.07,4.25s.9.98,1.15,1.48c.48.96-.65,7.83-5.04,10.02-.18.09-.37.17-.56.25.27.52.44.86.44.87.45.89.75,1.72.92,2.48.82,2.71-.3,5.37-3.89,7.16-.36.18-.83.38-.87.4-1.39.69-.88,2.66-.37,3.75,0,.01.01.02.02.04.01.03.03.06.04.09,0,0,0,0,0,0,.47.94,1.19,1.75,2.05,2.32,3.23.28,6.63.23,9.51-.63-2.42.3-4.94.34-6.04-1.87h0Z"></path> <path class="cls-50" d="m121.69,104.55c.21,2.47-.25,5.08-2.26,6.7-3.59,2.91-13.08,7.24-8.24,16.95.09.18.19.37.29.55.33-.05.66-.12.98-.2,4.76-3.19,10.07-10.23,10.25-16.98,0-.05-.1-2.93-.29-5.48-.14-.33-.3-.67-.47-1.01-.09-.18-.18-.36-.28-.53h0Zm-5.97,19.79c-1.81.9-3.27.3-3.89-.95-.3-.6-.34-1.31.01-1.91.01-.02.03-.05.05-.07.27-2.92,2.66-6.04,4.52-6.97.88-.44,2.69-.79,2.99-.19,1.65,3.3-.91,8.71-3.68,10.09h0Z"></path> <path class="cls-30" d="m112.47,128.55c.69-.17,1.37-.41,2.01-.73,3.05-1.52,12.72-10.54,7.95-21.72.19,2.55.29,5.43.29,5.48-.18,6.75-5.49,13.79-10.25,16.98Z"></path> <path class="cls-30" d="m116.41,114.44c-1.86.93-4.25,4.05-4.52,6.97-.02.03-.03.05-.05.07-.35.6-.31,1.31-.01,1.91.62,1.25,2.08,1.85,3.89.95,2.76-1.38,5.32-6.79,3.68-10.09-.3-.6-2.11-.25-2.99.19h0Z"></path> <path class="cls-20" d="m84.11,123.32c.66-.33.6-1.15.29-1.78-.9-1.8-4.7-1.98-6.32-1.17-1.12.56-2.01,1.56-3.01,2.4,2.87,1.97,7.21,1.47,9.05.56Z"></path> <path class="cls-50" d="m40.92,47.47c-5.61,2.8-6.3,9.95-6.31,15.74.24-.02.48-.09.69-.2.28-.14.5-.34.63-.57,2.77-4.96,10.27-10.21,8.16-14.43-.81-1.62-1.55-1.35-3.18-.54h0Z"></path> <path class="cls-17" d="m59.78,98.24c-7.07.33-14.98-2.25-18.08-8.47-4.81-9.65,5.25-13.16,5.75-15.33.73-3.17,2.79-6.01,5.5-7.36.41-.21.84-.38,1.28-.51-1.57-.74-3.38-.86-5.15.02-3.02,1.51-4.8,5.02-6.23,8.47-1.13,5.55-6.46,6.1-1.4,16.24,3.62,7.25,8.87,8.18,12.07,8.37.42-.09.83-.21,1.25-.38.64-.25,1.07,0,1.59.18.49.17,1.07.27,1.99-.18,1.45-.72,2.4-.77,3.1-.5-.51-.36-1.07-.59-1.66-.56h0Z"></path> <path class="cls-51" d="m41.44,91.3c-5.06-10.14.27-10.69,1.4-16.24-.3.73-.59,1.46-.87,2.16-.33.83-1.43,1.1-2.04,1.77-.69.76-.95,2.35-.89,4.22.08,2.58.75,5.69,1.67,7.91.12.28.24.55.36.8,2.22,4.46,7.32,8.84,12.44,7.75-3.21-.18-8.46-1.12-12.07-8.37h0Z"></path> <path class="cls-17" d="m44.82,79.88c-.07-.15-.15-.28-.24-.38-3.28,2.09-3.15,7.47-2.21,9.37.51,1.02,1.4,1.17,2.15.79,2.08-1.04-.45-3.44.48-8.62.07-.37,0-.78-.18-1.15h0Z"></path> <path class="cls-51" d="m40.01,112.99c-4.55-9.13-1.59-17.17,1-21.22-.1-.21-.2-.43-.29-.65-2.59,3.18-6.57,11.73-.65,23.61.04.08.08.16.12.24,6.17,12.19,12.56,11.07,23,12.39.66.08,1.15-.02,1.56-.22.04-.02.08-.04.12-.07-6.13-.15-18.52-1.35-24.86-14.07h0Z"></path> <path class="cls-64" d="m54.81,112.91c-2.26-4.53-8.29-3.62-11.35-9.76-1.34-2.68-1.69-5.86-.8-8.71-.54-.72-1.02-1.46-1.42-2.21-1.74,3.81-2.43,9.42-.36,13.56,3.44,6.9,10.55,4.45,14.53,9.73,3.04,4.04,5.63,9.14,10.3,10.87.44-.45.84-.95,1.41-1.23.36-.18.73-.25,1.13-.27-.09-.19-.18-.38-.27-.56-.35-.7-.72-1.26-1.09-1.71-5.1-.85-9.75-5.03-12.07-9.7h0Z"></path> <path class="cls-70" d="m45.62,113.53c-.24.5-.33,1.28.25,2.45,1.88,3.76,8.94,7.81,11.31,6.63.68-.34.94-.9-.21-3.21-3.28-6.57-8.16-4.79-11.35-5.87h0Z"></path> <path class="cls-50" d="m55.4,115.52c-3.97-5.28-11.08-2.82-14.53-9.73-2.07-4.14-1.38-9.75.36-13.56-.05-.1-.11-.21-.16-.31-.02-.05-.05-.1-.07-.15-2.59,4.06-5.55,12.1-1,21.22,6.34,12.72,18.73,13.91,24.86,14.07.32-.18.58-.42.83-.68-4.67-1.73-7.25-6.83-10.3-10.87h0Zm1.77,7.09c-2.36,1.18-9.43-2.87-11.31-6.63-.58-1.16-.49-1.95-.25-2.45,3.19,1.08,8.07-.71,11.35,5.87,1.15,2.3.89,2.86.21,3.21h0Z"></path> <path class="cls-61" d="m94.82,35.09c1.42.96,3.15,2.63,4.77,4.4-3.43-4.31-8.1-6.41-10.87-8.96-.31-.28-1.12.08-1.51-.09-1.45-.62-2.87-.97-4.24-1.1-2.47-.23-4.79.28-6.88,1.32-3.73,1.86-6.69,5.41-8.36,9.49-.43,1.06-.86,2.02-1.26,2.88-2.01,4.29-3.68,6.52-4.85,9.7,4.67-8.06,7.8-17.16,15.22-20.86,6.02-3,12.44-.55,17.99,3.2h0Z"></path> <path class="cls-64" d="m88.37,38.39c1.35.06,4.02.85,4.86.43.43-.22.27-.68-.07-1.36-1.97-3.94-9.28-6.29-12.6-4.64-2.33,1.16-2.81,3.05-1.99,4.69.04.08.08.15.12.22,2.81,1.62,6.42.5,9.67.65h0Z"></path> <path class="cls-63" d="m68.24,61.42c2.02-1.01,2.86-.88,5.89,5.2.05.1.1.19.14.29.26-.36.54-.7.83-1.03-1.03-2.51-.44-4.15-1.94-7.14-1.88-3.78-5.17-3.77-6.63-3.04-2.57,1.28-2.75,5.61-3.3,8.43-.29,1.5-3.12,4.85-3.01,8.96.09-.08.2-.16.33-.22.82-.41,1.7-.27,2.73-.62,1.07-3.74,1.44-9.07,4.95-10.83h0Z"></path> <path class="cls-64" d="m60.36,64.25c-1.97,4.2-2.85,8.05-.83,12.1.34.67.71,1.33,1.04,1.99.07.13.13.26.19.39.01-.12.01-.24,0-.36-.11-1.56-1.56-3.94-.71-5.1-.61-4.51,1.79-8.75,5.37-19.71.67-2.05,1.37-4.45,3.29-5.4,2.26-1.12,4.47.59,5.62,2.89,2.29,4.59,1.17,7.67.83,14.75.37-.41.76-.8,1.19-1.16-.13-.95-.22-1.9-.25-2.87-.05-1.82.78-12.79.07-14.22-.44-.88-1.57-1.79-2.99-2.36-1.37-.27-2.8-.12-4.21.59-6.33,3.16-7.5,16.09-8.61,18.46h0Z"></path> <path class="cls-61" d="m67.65,45.28c-1.18.59-2.15,1.61-2.66,3.1-2.14,6.28-3.84,10.91-5.09,14.47-1.05,3-1.78,5.24-2.18,7.07-.7,3.18-.43,5.13.83,7.66.48.96,1.08,1.89,1.73,2.76.24-.55.44-1.08.48-1.6-.06-.13-.12-.26-.19-.39-.33-.67-.7-1.32-1.04-1.99-2.02-4.05-1.14-7.91.83-12.1,1.12-2.37,2.28-15.31,8.61-18.46,1.41-.7,2.85-.85,4.21-.59-1.65-.66-3.71-.84-5.54.08h0Z"></path> <path class="cls-28" d="m68.89,73.22c-1.95.97-2.96-.39-4.01-.38.65.73,1.23,1.87,1.57,2.54.18.36.36.73.54,1.09.18-1.06.55-1.91,1.26-2.26.69-.35,1.52-.19,2.28.25.87-2.31,1.9-4.84,3.35-6.99-.08.02-.16.05-.24.09-1.14.57-2.44,4.52-4.75,5.67h0Z"></path> <path class="cls-4" d="m66.02,69.27c.52-1.69.45-3.75,2.28-4.66,1.73-.86,4.03-.41,5.71,2.66.09-.12.17-.24.26-.36-.05-.1-.09-.19-.14-.29-3.03-6.08-3.87-6.21-5.89-5.2-3.51,1.75-3.88,7.08-4.95,10.83.05-.02.11-.04.16-.06.31-.12.63-.02.95.2.64-.98,1.28-1.97,1.63-3.12h0Z"></path> <path class="cls-35" d="m68.71,48.17c-1.92.96-2.62,3.36-3.29,5.4-3.59,10.95-5.99,15.2-5.37,19.71.05-.07.11-.13.17-.19-.11-4.12,2.72-7.46,3.01-8.96.54-2.82.72-7.14,3.3-8.43,1.46-.73,4.75-.74,6.63,3.04,1.49,2.99.91,4.64,1.94,7.14.02-.02.04-.05.07-.07.34-7.07,1.46-10.16-.83-14.75-1.15-2.31-3.37-4.02-5.62-2.89h0Zm6.09,9.69c-1.3.65-1.78-3.04-3.85-3.89-1.1-.45-2.28-.9-2.78-1.89-.11-.23-.2-.53-.23-.82.35-.49.82-.9,1.36-1.17,2.35-1.17,3.78.93,4.85,3.08,1.46,2.93,1.03,4.49.63,4.69h0Z"></path> <path class="cls-64" d="m69.32,50.1c-.54.27-1.01.68-1.36,1.17.03.3.11.59.23.82.49.98,1.67,1.43,2.78,1.89,2.06.85,2.55,4.53,3.85,3.89.4-.2.83-1.76-.63-4.69-1.07-2.15-2.5-4.25-4.85-3.08h0Z"></path> <path class="cls-23" d="m68.3,64.62c-1.82.91-1.76,2.96-2.28,4.66-.35,1.15-.99,2.14-1.63,3.12.16.12.33.27.48.45,1.05-.01,2.07,1.35,4.01.38,2.31-1.15,3.6-5.1,4.75-5.67.08-.04.16-.07.24-.09.04-.06.08-.12.13-.18-1.68-3.07-3.98-3.52-5.71-2.66h0Z"></path> <path class="cls-63" d="m103.43,65.79c-.91-1.82-.81-4.21-1.91-6.42-2.4-4.81-8.72-3.39-12.37-1.57-2.05,1.02-4,2.41-5.83,3.85,1.43-.33,2.96-.59,4.48-.75.65-.37,1.31-.74,1.97-1.07,4.38-2.19,8.63-2.68,10.83,1.75,1,2.01.93,4.48,1.92,6.48,1.34,2.68,3.32,2.13,4.11,3.71.25.5.37.99.38,1.47.16.16.32.32.47.5.05,0,.09,0,.14,0,.22-.53.45-1.06.7-1.57.15-.31.33-.58.52-.84-.1-.37-.23-.72-.4-1.06-1.53-3.07-3.86-2.16-5.03-4.5h0Z"></path> <path class="cls-4" d="m102.53,68.05c-1-1.99-.92-4.47-1.92-6.48-2.21-4.43-6.45-3.94-10.83-1.75-.67.33-1.33.7-1.97,1.07,1.51-.17,3.02-.24,4.41-.21,2.89-.93,6.75-.47,8.15,2.33,1.35,2.7-1.13,4.62-.12,6.65.59,1.18,2.02,1.57,3.49,2,1.2.21,2.34.67,3.29,1.57-.02-.48-.14-.97-.38-1.47-.79-1.59-2.78-1.04-4.11-3.71h0Z"></path> <path class="cls-31" d="m100.25,69.66c-1.01-2.03,1.46-3.94.12-6.65-1.4-2.8-5.26-3.26-8.15-2.33,3.18.08,5.77.72,6.49,2.16,1.45,2.9-.91,6.58-3.83,9.54.61-.06,1.04-.1,1.18-.11,1.88-.18,4.95-1.08,7.7-.62-1.47-.43-2.9-.82-3.49-2h0Z"></path> <path class="cls-35" d="m102.6,61.11c-.79-1.58-.72-3.29-1.67-5.21-2.6-5.22-6.44-6.64-11.74-3.99-4.38,2.19-7.73,6.24-9.38,10.78,1.04-.39,2.24-.74,3.52-1.04,1.83-1.44,3.78-2.83,5.83-3.85,3.65-1.82,9.97-3.25,12.37,1.57,1.1,2.21,1,4.6,1.91,6.42,1.16,2.33,3.5,1.43,5.03,4.5.17.34.3.69.4,1.06.38-.53.8-1.02,1.07-1.65.05-.11.1-.29.15-.51,0,0,0,0,0,0-1.91-3.83-6.53-6.16-7.48-8.07h0Z"></path> <path class="cls-59" d="m110.8,57.15c-.17-.33-.39-.64-.71-.92-2.33-2.08-6.06-10.36-17.69-6.59-1.32.43-2.74,1.01-4.27,1.77-4.89,2.44-8.84,6.56-10.11,12.08.12-.07.24-.13.36-.19.03-.01.05-.03.08-.04,1.51-4.88,5.14-9.31,9.59-11.53,10.48-5.23,16.8-2.29,21.6,7.32.79,1.59,1.1,2.59,1.18,3.49.05-.79.09-1.56.12-2.26.05-1.58.03-2.8-.14-3.13h0Z"></path> <path class="cls-64" d="m88.05,51.73c-4.45,2.22-8.08,6.65-9.59,11.53.41-.2.86-.39,1.35-.58,1.65-4.54,4.99-8.59,9.38-10.78,5.31-2.65,9.14-1.23,11.74,3.99.96,1.92.88,3.63,1.67,5.21.95,1.91,5.57,4.23,7.48,8.07,0,0,0,0,0,0,.27-1.24.58-4.05.75-6.65-.08-.89-.38-1.89-1.18-3.49-4.79-9.61-11.11-12.55-21.6-7.32h0Zm21.69,11.65c-1.19.59-4.34-1.4-5.7-4.13-.73-1.46-1.05-3.13-.9-4.82,1.06-.13,2.12-.25,3.11,1.72.19.38.35.77.54,1.15.53,1.06,1.69,2.48,2.45,3.99.2.39.92,1.9.52,2.1Z"></path> <path class="cls-17" d="m106.77,57.29c-.19-.38-.35-.76-.54-1.15-.98-1.97-2.04-1.85-3.11-1.72-.14,1.69.17,3.36.9,4.82,1.36,2.73,4.52,4.73,5.7,4.13.4-.2-.32-1.71-.52-2.1-.75-1.51-1.92-2.93-2.45-3.99Z"></path> <path class="cls-51" d="m94.06,112.54s-.19.1-.34.17c-4.58,2.29-7.09,1.15-8.04,1.62-.08.04-.18.09-.28.16,2.83,1.83,6.52,1.99,9.25.63,1.15-.57,1.57-2.04,1.34-2.5-.3-.6-1.33-.38-1.93-.08h0Z"></path> <path class="cls-3" d="m98.08,112.8c-.58,1.65-1.75,2.8-3.18,3.52-6.06,3.02-13.31-1.58-18.42-6.61,1.33,1.71,2.76,3.33,4.27,4.67,2.92,1.75,5.79,2.65,8.23,3.03,2.96.46,5.29.15,6.33-.37,1.69-.84,2.98-2.51,3.75-4.49.5-1.28,1.94-2.12,2.76-3.54.01-.02,0-.38-.05-.87-.57,2.11-2.88,2.37-3.68,4.65h0Z"></path> <path class="cls-56" d="m100.19,104.44c-3.26,2.05-3.23,5.61-7.33,7.66-7.4,3.69-15.82-3.69-19.8-9.13-.39.02-.78.02-1.18-.01,1.32,2.15,2.87,4.53,4.6,6.75,5.11,5.03,12.36,9.63,18.42,6.61,1.44-.72,2.6-1.87,3.18-3.52.8-2.28,3.11-2.54,3.68-4.65,0-.03,0-.06-.01-.1-.08-.75-.24-1.75-.49-2.25-.26-.52-.62-.97-1.07-1.36h0Zm-5.53,10.68c-2.73,1.36-6.42,1.2-9.25-.63.09-.07.2-.12.28-.16.96-.48,3.46.66,8.04-1.62.14-.07.33-.16.34-.17.6-.3,1.64-.52,1.93.08.23.46-.19,1.93-1.34,2.5h0Z"></path> <path class="cls-50" d="m92.86,112.1c4.1-2.05,4.07-5.6,7.33-7.66-.57-.52-1.27-.95-2.02-1.36-.42.16-.94.36-1.4.6-4.55,2.27-4.29,4.75-7.7,6.45-2.72,1.36-6.25,1.34-8.65-.83,0,0-4.65-4.08-7.22-6.34-.05,0-.1,0-.15.01,3.98,5.44,12.41,12.82,19.8,9.13h0Z"></path> <path class="cls-28" d="m110.94,60.28c.09-.11.17-.22.26-.34.06-.9-.03-1.79-.34-2.6.11.49.12,1.58.08,2.93h0Z"></path> <path class="cls-28" d="m101.22,49.09c5.01,1.37,7.27,5.72,8.87,7.14.25.22.44.46.6.72,0,0,0-.01-.01-.02-1.91-3.82-5.23-6.91-9.46-7.84h0Z"></path> <path class="cls-4" d="m111.09,56.15c-4.23-8.48-10.6-9.42-18.61-6.59-.02.03-.05.06-.07.09,3.65-1.18,6.52-1.18,8.81-.55,4.22.93,7.55,4.01,9.46,7.84,0,0,0,.01.01.02.04.07.08.14.11.21.02.05.04.11.06.19.31.8.4,1.7.34,2.6.09-.12.19-.25.28-.37.2-1.22.12-2.41-.39-3.42h0Z"></path> <path class="cls-61" d="m102.02,43.52c-2.08.69-4.06,1.64-5.68,2.45-.95.47-1.72,1.16-2.44,1.92,6.9-2.69,15.67-8.6,19.79-.33,1.22,2.44,1.12,4.93.42,7.44.16-.39.3-.78.43-1.18.73-2.32.76-4.63-.28-6.74-2.66-5.33-7.68-5.08-12.24-3.56h0Z"></path> <path class="cls-35" d="m112.61,50c-.84-1.69-3.05-2.39-5.13-2.62-.13.14-.23.31-.18.4,0,0,0,0,0,.01.56.86,1.56,1.31,2.03,2.26.22.43.5,1.67,1,2.69.23.47.98,1.7,1.46,1.46,1.01-.5,1.6-2.61.81-4.19h0Z"></path> <path class="cls-35" d="m93.9,47.9c-.31.33-.61.67-.9,1.03,2.72-1,17.05-5.9,20.28.57,1.07,2.15.22,5.75-1.3,9.37.87-1.26,1.6-2.56,2.14-3.86.7-2.51.8-5-.42-7.44-4.12-8.27-12.89-2.36-19.79.33h0Z"></path> <path class="cls-63" d="m93,48.93c-.17.21-.35.42-.53.63,8.01-2.82,14.38-1.89,18.61,6.59.5,1.01.59,2.2.39,3.42.17-.23.34-.47.5-.71,1.52-3.62,2.38-7.22,1.3-9.37-3.23-6.47-17.56-1.58-20.28-.57h0Zm18.79,5.27c-.48.24-1.23-.99-1.46-1.46-.51-1.01-.79-2.25-1-2.69-.47-.95-1.47-1.4-2.03-2.26,0,0,0,0,0-.01-.05-.09.05-.26.18-.4,2.09.23,4.29.94,5.13,2.62.79,1.58.2,3.69-.81,4.19h0Z"></path> <path class="cls-35" d="m79.05,65.83c1.4,2.82,3.62,5.48,6.44,4.08,1.49-.74,2.98-2.42,2.1-4.18-.89-1.79-5.23-2.49-7.31-1.46-.54.27-1.02.66-1.4,1.19.05.11.11.23.17.37h0Z"></path> <path class="cls-17" d="m90.28,62.89c2.74-.08,7.17-1.16,8.37,1.24.22.44.36.91.43,1.4.14-.93.04-1.84-.38-2.68-1.77-3.56-14.88-2.26-20.32.45-.12.06-.24.12-.36.19-.6.33-1.16.72-1.67,1.16-2.89,2.45-4.53,6.37-5.82,9.8.09.05.18.11.28.18,2.77-4.25,5.13-9.41,9.67-11.68,3.71-1.85,6.17.05,9.81-.05h0Z"></path> <path class="cls-63" d="m90.28,62.89c-3.63.1-6.1-1.79-9.81.05-4.54,2.27-6.9,7.43-9.67,11.68.19.13.37.28.54.43,1.28-2.49,2.83-5.09,5.21-6.28,4.35-2.17,3.23,5.08,7.55,2.93,2.59-1.29,5.16-5.14,8.12-6.62,1.27-.63,3.82-1.14,4.4.03.67,1.35-.52,3.86-1.19,6.67,1.83-1.96,3.33-4.19,3.64-6.27-.07-.49-.21-.96-.43-1.4-1.2-2.4-5.63-1.31-8.37-1.24h0Zm-4.79,7.01c-2.82,1.41-5.03-1.26-6.44-4.08-.07-.14-.13-.25-.17-.37.38-.53.86-.92,1.4-1.19,2.08-1.04,6.42-.34,7.31,1.46.88,1.76-.61,3.44-2.1,4.18h0Z"></path> <path class="cls-4" d="m85.49,72.28c2.36-1.18,4.66-2.89,6.63-3.87,1.03-.51,1.95-.13,2.28.53.49.98.72,2.05.74,3.18.1-.11.2-.21.3-.32.67-2.81,1.87-5.32,1.19-6.67-.58-1.17-3.13-.66-4.4-.03-2.96,1.48-5.53,5.33-8.12,6.62-4.31,2.15-3.2-5.1-7.55-2.93-2.39,1.19-3.93,3.79-5.21,6.28.34.32.65.7.88,1.1,1.42-2.12,2.6-4.03,3.61-4.54,1.85-.92,2.51,4.22,9.66.65h0Z"></path> <path class="cls-23" d="m95.14,72.12c-.03-1.13-.25-2.2-.74-3.18-.33-.66-1.25-1.04-2.28-.53-1.97.98-4.27,2.69-6.63,3.87-7.14,3.56-7.8-1.58-9.66-.65-1.02.51-2.19,2.42-3.61,4.54.04.07.08.15.12.23.01.02.02.04.03.07,3.28-1.05,5.02.44,9.13-1.61,1.11-.55,2.19-1.22,3.32-1.78,3.04-1.52,7.15-2.57,9.39-.61.24-.02.46-.05.66-.07.09-.09.18-.18.27-.28h0Z"></path> <path class="cls-4" d="m67.26,76.98c.09-.09.22-.19.4-.28,1.22-.61,1.93,0,2.52,1.19,2.16,4.34-2.58,7.21-.73,10.92.14.29.31.56.51.82.12.05.23.09.34.12.37.11.71.14,1,.09-.42-.33-.73-.71-.95-1.15-1.86-3.74,2.31-7.63.37-11.51-.49-.99-1.69-2.36-2.93-1.83-.2.45-.4,1-.54,1.63h0Z"></path> <path class="cls-22" d="m68.25,74.21c-.71.36-1.09,1.2-1.26,2.26-.26,1.54-.09,3.53.09,5.11-.27,1.33-1.02,2.87.21,5.34.23.47.5.87.78,1.22-.13-.2-.25-.42-.37-.66-1.56-3.13-.14-5.14-.54-7.55-.1-.59-.11-1.15-.08-1.69.01-.15.02-.3.04-.44.04-.29.08-.56.14-.82.14-.63.34-1.18.54-1.63.31-.71.61-1.16.68-1.23-.08.03-.16.06-.24.1h0Z"></path> <path class="cls-64" d="m70.53,74.45c-.27-.16-.56-.28-.84-.35.73.65,1.4,1.44,1.84,2.32,1.21,2.42-1.17,9.74.09,13.31,0,0,0,0,0,0,0,0,0-.07,0-.2.04-1.02.28-5.74,1.14-10.23.11-.58.09-1.2-.04-1.79-.08-.34-.19-.68-.34-1-.02-.04-.04-.08-.06-.12-.39-.79-1.07-1.5-1.81-1.94h0Z"></path> <path class="cls-31" d="m67.67,76.7c-.18.09-.31.18-.4.28-.06.26-.11.54-.14.82-.02.15-.03.29-.04.44-.04.54-.02,1.11.08,1.69.4,2.41-1.02,4.42.54,7.55.12.24.24.46.37.66.6.74,1.27,1.23,1.9,1.49-.2-.26-.36-.54-.51-.82-1.85-3.71,2.89-6.58.73-10.92-.59-1.19-1.3-1.8-2.52-1.19h0Zm.86,7.16c-.1.05-.38-.24-.47-.43-.51-1.02.91-2.45-.21-4.68-.02-.03-.03-.13.04-.16.01,0,.03-.01.04-.01.13-.32.42-.68.71-.83.48-.24,1.01.4,1.2.79.87,1.74-.85,5.1-1.32,5.33h0Z"></path> <path class="cls-63" d="m69.69,74.1c-.41-.11-.83-.12-1.21.01-.07.08-.37.53-.68,1.23,1.24-.53,2.43.85,2.93,1.83,1.94,3.88-2.23,7.78-.37,11.51.22.43.53.82.95,1.15.12-.02.22-.05.31-.1-1.25-3.58,1.12-10.89-.09-13.31-.44-.88-1.11-1.67-1.84-2.32h0Z"></path> <path class="cls-2" d="m68.52,83.86c.47-.24,2.19-3.59,1.32-5.33-.19-.39-.72-1.02-1.2-.79-.29.15-.59.51-.71.83-.02,0-.03,0-.04.01-.08.04-.06.13-.04.16,1.11,2.23-.3,3.65.21,4.68.09.18.37.48.47.43h0Z"></path> <path class="cls-50" d="m61.22,78.35c0-2.02-.51-4.77,1.41-5.93-.76.14-1.44.13-2.08.45-1.79.89.09,3.73.21,5.51.04.65-.19,1.28-.48,1.96-.48,1.12-1.11,2.34-.89,3.88.03.19.07.39.12.59.21-2.04,1.7-4.51,1.7-6.46h0Z"></path> <path class="cls-4" d="m64.63,72.59c-.2-.18-.4-.32-.6-.39-.19-.07-.39-.08-.58,0-.07.02-.13.04-.19.07.42.24.77.59.97.99,1.15,2.3-3.33,5.28-.57,10.82.22.45.61,1.17.62,1.18.43.85.59,2.38-.93,3.14-.24.12-.49.2-.74.25,1.06.61,2.17,1.14,3.25.61.82-.41.98-1.18.72-1.71,0-.01-1.35-1.49-1.93-2.64-2.34-4.7,3.05-5.96.08-12.13-.03-.05-.05-.11-.08-.16,0,0,0-.01-.01-.02h0Z"></path> <path class="cls-64" d="m61.93,80.76c-.1-.2-.24-.15-.44-.05-.87.43-1.7,2.93-1.05,4.24.12.23.2.38.38.48.55.83,1.8,1.19,2.2.99.36-.18-.13-1.31-.31-1.67-.13-.26-.27-.51-.4-.77-.71-1.42-.05-2.56-.38-3.22h0Z"></path> <path class="cls-31" d="m66.44,75.38c-.31-.62-.83-1.65-1.43-2.38-.13-.15-.25-.29-.38-.42,0,0,0,.01.01.02.03.05.05.11.08.16,2.97,6.16-2.42,7.42-.08,12.13.57,1.15,1.92,2.63,1.93,2.64.27.54.1,1.31-.72,1.71-1.08.54-2.2,0-3.25-.61-.02,0-.05,0-.07.01,1.65,1.15,3.89,1.95,6.4,1.48.08-.17.07-.38-.04-.59-.23-.46-1.64-1.26-2.55-3.07-1.71-3.44,1.29-6.87.25-10.78-.05-.1-.1-.21-.15-.31h0Z"></path> <path d="m63,88.7l-.49.09-.07-.03c-.14-.1-.28-.2-.41-.3l.16-.23.03.02c.15.09.3.18.44.26l.33.19h0Z"></path> <path class="cls-19" d="m68.89,89.54c.1.21.12.42.04.59.45-.08.91-.21,1.37-.38-1-.29-2.21-1.2-3.02-2.83-1.23-2.47-.48-4.01-.21-5.34-.18-1.58-.35-3.57-.09-5.11-.13-.26-.26-.52-.38-.78,1.04,3.91-1.96,7.34-.25,10.78.9,1.81,2.32,2.61,2.55,3.07h0Z"></path> <path class="cls-63" d="m63.35,88.38c1.53-.76,1.36-2.28.93-3.14,0-.01-.4-.73-.62-1.18-2.76-5.54,1.71-8.52.57-10.82-.2-.4-.55-.74-.97-.99-.22.07-.43.12-.63.16-1.92,1.16-1.42,3.91-1.41,5.93,0,1.94-1.49,4.42-1.7,6.46.09.32.22.66.39,1.01.39.78,1.16,1.72,2.22,2.54.16.09.31.19.47.28.25-.05.5-.13.74-.25h0Zm-1.85-7.68c.2-.1.34-.15.44.05.33.66-.33,1.8.38,3.22.13.26.27.51.4.77.18.36.67,1.49.31,1.67-.4.2-1.65-.16-2.2-.99-.17-.1-.26-.24-.38-.48-.65-1.31.18-3.81,1.05-4.24h0Z"></path> <path class="cls-28" d="m74.04,90.73c.56-.06,1.31.13,2.12.37-1.86-.74-3.63-1.65-3.81-2.03-.02-.03-.03-.06-.04-.09-.11.34-.19.53-.21.54-.14.07-.3.07-.47.02,0,.13,0,.2,0,.2-.33.16-.79.17-1.32.02-5.04,1.85-9.29-1.71-10.39-3.93-.28-.57-.45-1.1-.52-1.6-.04.02-.07.03-.1.05-.27.14-.52.3-.74.47.05.12.11.24.17.36,2.57,5.15,9.64,6.23,15.33,5.63h0Z"></path> <path class="cls-31" d="m81.47,91.16c-.06-.02-.12-.04-.18-.06-.02.11-.05.21-.09.3-.14.32-.38.55-.67.69-.59.3-2.53-.27-4.36-1-.81-.24-1.56-.43-2.12-.37-5.69.61-12.75-.47-15.33-5.63-.06-.12-.11-.24-.17-.36-.9.71-1.43,1.73-1.63,2.86.87.52,1.53,1.47,2.35,2.12,2.73,2.17,6.34,1.41,9.52,1.24,7.23-.39,10.63,4.35,15.12,2.1.4-.2.79-.46,1.14-.77-1.28-.41-2.53-.8-3.58-1.14h0Z"></path> <path class="cls-4" d="m85.05,92.3c-.35.31-.75.57-1.14.77-4.49,2.24-7.89-2.49-15.12-2.1-3.17.17-6.79.93-9.52-1.24-.82-.65-1.48-1.6-2.35-2.12-.21,1.22-.04,2.55.48,3.76.07-.05.15-.09.22-.13,3.24-1.62,6.43,2.45,13.28.44,3.66-1.08,7.47,7.38,13.92,4.16,1.09-.55,2.13-1.27,3.26-1.83.26-.13.52-.24.77-.34-1.17-.48-2.5-.94-3.81-1.36h0Z"></path> <path class="cls-63" d="m84.82,95.84c-6.46,3.22-10.27-5.24-13.92-4.16-6.84,2.01-10.04-2.05-13.28-.44-.08.04-.15.08-.22.13.05.12.11.24.17.36,1.26,2.52,2.95,4.4,4.77,5.92-.14-.22-.27-.44-.38-.66-.94-1.89-.16-3.57,1.14-4.22,2.08-1.04,8.29.86,10.06,1.48,2,.7,3.19,2.57,5.14,3.42,5.43,2.36,10.63-5.95,13.64.07.07.14.12.28.18.42.42-.76.56-1.55.2-2.28-.38-.76-1.73-1.51-3.44-2.22-.25.1-.51.21-.77.34-1.13.56-2.16,1.29-3.26,1.83h0Z"></path> <path class="cls-61" d="m77.38,100.78c-1.61.66-3.15,1.34-4.97.98-.06-.01-4.72-1.34-7.31-2.1.48.32.97.62,1.44.91.83.5,1.64.98,2.38,1.44,4.32,2.65,9.06-.95,10.28-.21,2.54,1.55,5.56,1.95,7.99.74.09-.04.92-.53,1.9-1.26.14-.1.28-.21.42-.32-6.24,2.86-8.66-1.58-12.13-.17h0Z"></path> <path class="cls-35" d="m78.29,97.66c-1.95-.85-3.14-2.72-5.14-3.42-1.77-.62-7.97-2.52-10.06-1.48-1.3.65-2.08,2.33-1.14,4.22.11.22.24.44.38.66.91.75,1.84,1.42,2.76,2.02,2.58.76,7.25,2.09,7.31,2.1,1.83.36,3.36-.32,4.97-.98,3.47-1.42,5.89,3.03,12.13.17.99-.78,2.03-1.77,2.59-2.8-.05-.14-.11-.28-.18-.42-3-6.02-8.2,2.29-13.64-.07h0Zm-4.05,1.66c-2.15,1.07-4.72.18-6.95-.96-1.18-.04-2.61-1.09-3.09-2.06-.45-.9.02-1.37,1.01-1.86,3.54-1.77,9.05,1.32,10.18,3.58.25.51-.64,1.05-1.15,1.31h0Z"></path> <path class="cls-64" d="m65.21,94.44c-.99.49-1.46.96-1.01,1.86.48.97,1.92,2.02,3.09,2.06,2.23,1.14,4.8,2.04,6.95.96.51-.25,1.4-.8,1.15-1.31-1.13-2.27-6.63-5.35-10.18-3.58h0Z"></path> <path class="cls-28" d="m90.78,84.32c.23-.12.46-.22.69-.31-1.67.26-3.32.77-4.9,1.56-.25.13-.55.21-.85.27.76.82,1.46,1.67,1.82,2.39.11.22.19.43.21.62.07.46-.23.75-.76,1.01-1.08.54-2.76.7-3.88,1.26-.21.11-.41.23-.57.37,1.51.48,3.26,1.02,4.86,1.6.07-.08.14-.15.22-.22,3.74-3.23-.27-6.85,3.16-8.56Z"></path> <path class="cls-19" d="m86.99,89.87c.53-.27.82-.55.76-1.01.03.31-.1.57-.48.76-.92.46-4.06.49-6.27-.16.3.67.38,1.22.3,1.64.39.13.8.26,1.24.4.16-.14.36-.26.57-.37,1.13-.56,2.81-.73,3.88-1.26h0Z"></path> <path class="cls-64" d="m103.18,99.57c-.98.49-1.29.25-2,.37-3.91.68-8.09,2.73-11.76,1.08-.11.09-.22.17-.32.25,2.31,1.3,4.67,1.19,6.89.71,2.46-.53,4.76-1.5,6.67-1.53.62,0,1.17-.15,1.64-.38,1.97-.99,3.33-3.7,1.14-8.1,0,0-.03-.05-.07-.13.21,3.48.33,6.47-2.19,7.72h0Z"></path> <path class="cls-63" d="m104.99,91.1c-.54-1.05-1.49-2.83-2.36-4.2-1.86-.19-3.36.2-3.88.46-4.34,2.17-.99,10.37-4.75,12.24-1,.5-2.3.64-3.61.6-.32.29-.65.57-.97.82,3.68,1.65,7.85-.41,11.76-1.08.7-.12,1.02.11,2-.37,2.52-1.26,2.4-4.24,2.19-7.72-.07-.15-.21-.4-.38-.74h0Zm-2.36,5.43c-1.26.63-2.96-.08-4.45.66-.02,0-.03.02-.05.03-.18-.16-.34-.35-.45-.56-.16-.33-.22-.71-.11-1.14.96-4.08.03-5.23,2.27-6.35,1.23-.61,2.28-.79,2.93.53,1.44,2.88,1.36,6.09-.14,6.83h0Z"></path> <path class="cls-35" d="m99.84,89.17c-2.24,1.12-1.31,2.28-2.27,6.35-.1.43-.05.82.11,1.14.11.21.26.4.45.56.02,0,.03-.02.05-.03,1.49-.74,3.19-.04,4.45-.66,1.5-.75,1.58-3.95.14-6.83-.66-1.32-1.7-1.14-2.93-.53h0Z"></path> <path class="cls-4" d="m98.75,87.36c.53-.26,2.02-.65,3.88-.46-.22-.34-.43-.66-.62-.93-2.22-.85-4.85-1.05-7.3.17-2.47,1.23-4.72,3.37-3.45,5.92.33.67.77,1.28,1.11,1.95.52,1.04.5,2.01.13,2.85-.05,1.15-1.02,2.34-2.11,3.34,1.31.04,2.61-.11,3.61-.6,3.76-1.87.4-10.08,4.75-12.24h0Z"></path> <path class="cls-31" d="m92.37,94.02c-.33-.67-.77-1.28-1.11-1.95-1.27-2.55.98-4.69,3.45-5.92,2.44-1.22,5.08-1.02,7.3-.17-.37-.51-.69-.87-.92-.94-3.17-1.1-6.44-1.51-9.62-1.01-.23.09-.46.2-.69.31-3.43,1.71.57,5.33-3.16,8.56-.08.07-.16.15-.22.22,2.37.86,4.42,1.81,4.91,2.78.16.32.22.65.2.99.37-.84.39-1.81-.13-2.85h0Z"></path> <path class="cls-4" d="m92.42,76.23c-1.09-2.2-5.31-1.4-7.68-.83-.09.17-.18.34-.27.52,3.02-.98,5.11-.67,6.11.09.23.18.41.38.51.6.15.3.18.73.11,1.23.83,2.77-2.57,4.53-1.86,5.96.1.21.33.37.59.52,1.69-.43,3.41-.58,5.15-.5-.83-.51-1.52-1.18-1.96-2.07-1.14-2.29.03-4.05-.7-5.53h0Z"></path> <path class="cls-63" d="m94.8,79.7c-1.16-2.33-.57-5.53,2.48-7.59-.45.08-.86.14-1.23.17-.14.01-.57.05-1.18.11-2.33.22-7.3.76-8.87,1.55-.54.27-.92.83-1.26,1.46,2.37-.57,6.59-1.37,7.68.83.74,1.48-.43,3.24.7,5.53.45.89,1.13,1.56,1.96,2.07,1.71.08,3.43.4,5.12.91-2.04-1.89-4.52-3.25-5.41-5.04h0Z"></path> <path class="cls-35" d="m98.4,79.86c-1.28-2.57-1.58-5.98,1.24-7.38,1.32-.66,3.05-.84,4.55-.72-2.33-.54-4.95.02-6.91.35-3.05,2.07-3.64,5.27-2.48,7.59.89,1.79,3.37,3.15,5.41,5.04.29.09.59.18.88.29.23.08.57.46.96,1.01.98,1.37,2.27,3.78,2.94,5.07.19-.07.38-.16.56-.25,1.28-.64,2.28-1.67,3.05-2.85-.43.08-.87.12-1.33.11-3.48-.06-8.09-6.68-8.88-8.26h0Z"></path> <path class="cls-13" d="m109.26,80.8c.12.25.27.49.4.75.59,1.18.6,2.51.27,3.8.76-2.1.92-4.03.68-4.51-.25-.5-.87-.92-1.15-1.48s-.06-2.22-1.07-4.25c-.23-.47-.5-.88-.79-1.24-.03-.04-.06-.08-.09-.11-.79-.94-1.74-1.51-2.77-1.84,1.3.99,2.37,2.28,3.12,3.77,1.33,2.68.88,4.06,1.41,5.13h0Z"></path> <path class="cls-17" d="m99.64,72.48c-2.82,1.4-2.52,4.81-1.24,7.38.79,1.58,5.4,8.2,8.88,8.26.45,0,.89-.04,1.33-.11.56-.85.99-1.77,1.31-2.67.33-1.28.32-2.62-.27-3.8-.13-.26-.27-.5-.4-.75-.53-1.07-.08-2.46-1.41-5.13-.74-1.49-1.81-2.78-3.12-3.77-.18-.06-.36-.11-.54-.15-1.5-.11-3.23.06-4.55.72h0Zm8.1,8.35c.2.41-.7.96-1.09,1.15-1.64.82-3.31.38-3.95-.27-1.32-.3-2.43-1.2-3.02-2.38-1.13-2.26.01-4.63,1.62-5.43,1.37-.68,3.39-.07,4.22,1.59.38.76.34,1.66,1.49,3.97.35.69.74,1.37.74,1.37h0Z"></path> <path class="cls-13" d="m105.52,75.5c-.83-1.66-2.85-2.27-4.22-1.59-1.61.8-2.75,3.17-1.62,5.43.59,1.19,1.7,2.09,3.02,2.38.64.64,2.31,1.08,3.95.27.38-.19,1.29-.75,1.09-1.15,0,0-.39-.67-.74-1.37-1.15-2.31-1.11-3.21-1.49-3.97h0Z"></path> <path class="cls-19" d="m73.73,88.83c-1.13-2.27,1.67-6.98-.43-11.21-.15-.29-.31-.57-.51-.83-.13-.09-.26-.18-.4-.28.15.32.26.66.34,1,.14.21.27.42.38.64,1.53,3.07-.19,9.02-.81,10.83.01.03.03.06.04.09.28.56,4.12,2.35,6.5,2.93-1.97-.66-4.26-1.46-5.12-3.17h0Z"></path> <path class="cls-28" d="m74.1,78.4c-.23-.46-.51-.88-.84-1.28-.15-.11-.31-.22-.46-.33.19.27.36.54.51.83,2.11,4.22-.7,8.93.43,11.21.85,1.71,3.14,2.51,5.12,3.17.77.19,1.38.25,1.67.1.03-.02.06-.03.08-.05-2.08-1.15-4.02-2.75-5.08-4.87-1.48-2.96-.12-6.15-1.43-8.78h0Z"></path> <path class="cls-31" d="m77.44,81.36c-.35-.7-.8-1.35-1.3-1.96-.15-.14-.29-.27-.44-.4-.76-.67-1.6-1.29-2.43-1.88.33.4.62.82.84,1.28,1.31,2.63-.04,5.82,1.43,8.78,1.06,2.12,3,3.72,5.08,4.87.32-.18.56-.47.66-.87-.36-.5-.79-.96-1.37-2.12-1.4-2.8-1.55-5.86-2.47-7.7h0Z"></path> <path class="cls-4" d="m78.36,82.22c-.52-1.04-1.31-1.97-2.23-2.82.5.61.95,1.25,1.3,1.96.92,1.84,1.07,4.9,2.47,7.7.58,1.17,1.01,1.62,1.37,2.12,0-.03.01-.05.02-.08.08-.42.01-.97-.3-1.64-.03-.06-.06-.13-.09-.19-.41-.83-1.02-1.58-1.43-2.4-.66-1.33-.36-1.96-.56-3.05-.08-.43-.23-.94-.56-1.58h0Z"></path> <path class="cls-28" d="m76.8,79.43c-.2-.4-.3-.85-.3-1.3-.33.3-.6.6-.81.87,1.11.96,2.07,2.02,2.67,3.22.32.65.48,1.15.56,1.58.03-.03.07-.07.1-.1.02-.65.04-1.29-.29-1.95-.53-1.07-1.49-1.45-1.93-2.32h0Z"></path> <path class="cls-4" d="m80.06,76.08c.4.02.75.19.94.59.7,1.41-1.95,4.62-1.79,6.79.09-.14.17-.29.23-.46.08-.23.16-.45.24-.67,1.46-4.05,2.15-4.92,2.29-5.38.06-.21,0-.34-.15-.65-.27-.54-1-.47-1.76-.21h0Z"></path> <path class="cls-31" d="m81,76.66c-.2-.39-.54-.56-.94-.59-.57.19-1.17.48-1.58.69-.8.4-1.46.88-1.97,1.35,0,.45.1.9.3,1.3.44.87,1.39,1.25,1.93,2.32.33.66.31,1.31.29,1.95.07-.08.14-.16.2-.25-.16-2.16,2.49-5.37,1.79-6.79h0Z"></path> <path class="cls-54" d="m79.8,87.04c-.6-1.21-.65-3.22.05-4.65-.07-.01-.12-.03-.17-.07-.08.21-.16.44-.24.67-.11.33-.3.6-.53.82.2,1.1-.11,1.72.56,3.05.41.82,1.01,1.57,1.43,2.4.03.07.06.13.09.19.16.05.32.09.48.13-.05-.13-.1-.25-.16-.37-.52-1.05-1.04-1.23-1.51-2.18h0Z"></path> <path class="cls-12" d="m86.89,87.78c-.49-.99-1.67-1.17-2.41-1.99-.93-1.04-1.71-2.95-2.92-3.7-.34.02-.68.12-.99.2-1.2,1.04-1.14,2.85-.47,4.2.84,1.69,2.71,2.87,4.52,3.48.77.01,1.47-.04,1.99-.14.5-.51.62-1.35.28-2.04h0Z"></path> <path class="cls-28" d="m80.11,86.48c-.67-1.35-.73-3.16.47-4.2-.29.07-.54.13-.72.1-.7,1.44-.65,3.44-.05,4.65.47.95.99,1.13,1.51,2.18.06.12.11.24.16.37,1,.24,2.14.36,3.15.37-1.81-.61-3.68-1.78-4.52-3.48h0Z"></path> <path class="cls-35" d="m85.72,85.85c-.16-.18-.33-.36-.5-.53-1.1-1.15-2.21-2.19-2.48-2.67-.28-.49-.72-.6-1.17-.57,1.21.75,1.99,2.66,2.92,3.7.74.82,1.92,1,2.41,1.99.34.69.23,1.53-.28,2.04.27-.05.49-.12.65-.2.61-.3.57-.79.27-1.39-.36-.72-1.06-1.57-1.82-2.39h0Z"></path> <path class="cls-38" d="m82.12,81.77c-.54-.07-1.52.15-1.84-.49-.05-.1-.07-.22-.08-.34-.16.41-.33.87-.51,1.38.5.4,2.32-.97,3.06.33.27.48,1.37,1.51,2.48,2.67.14-.02.27-.04.4-.07-1.64-1.21-2.74-3.38-3.51-3.49h0Z"></path> <path class="cls-19" d="m83.1,81.45c-.56-.21-1.12-.49-1.38-1.01-.62-1.25-.05-2.58.84-3.77-.19.09-.39.18-.59.28-.12.4-.66,1.11-1.77,4,0,.12.03.23.08.34.32.65,1.3.42,1.84.49.76.1,1.87,2.28,3.51,3.49.5-.1,1-.24,1.47-.48.35-.17.72-.49,1.1-.89-3.25.56-4.73-2.29-5.09-2.43h0Z"></path> <path class="cls-35" d="m91.09,76.62c-.11-.22-.28-.42-.51-.6-.72-.55-2.01-.86-3.81-.63,1.44-.14,3.24-.05,4.04,1.57.58,1.16-.92,2.68-.93,4.48,1.01-1.84,1.66-3.91,1.2-4.82h0Z"></path> <path class="cls-28" d="m83,80.4c-.7-1.39-.16-2.98.56-4.15-.32.12-.66.26-1,.42-.89,1.19-1.46,2.53-.84,3.77.26.52.82.8,1.38,1.01.36.13,1.84,2.98,5.09,2.43.4-.43.79-.95,1.16-1.53-.89-.06-1.97-.29-3.58-.28-1.25,0-2.28-.67-2.77-1.67h0Z"></path> <path class="cls-31" d="m90.81,76.95c-.81-1.62-2.6-1.71-4.04-1.57-.69.09-1.46.26-2.3.53-.29.1-.6.2-.91.32-.73,1.17-1.26,2.75-.56,4.15.5,1,1.52,1.67,2.77,1.67,1.61,0,2.68.22,3.58.28.19-.29.37-.6.54-.91,0-1.81,1.5-3.32.93-4.48h0Z"></path> <path class="cls-22" d="m88.51,72.99c-.96.48-1.1.09-2.32.7-1.33.66-1.89,1.57-2.36,1.81-1.13.57-1.77-.74-4.6.68-.89.44-1.83,1.07-2.62,1.47-.65.32-1.39.5-2.1.4.41.31.8.63,1.18.96.54-.69,1.47-1.57,2.79-2.23.98-.49,2.87-1.43,3.34-.48.16.31.22.44.15.65.89-.43,1.73-.77,2.5-1.02.41-.82.83-1.63,1.53-1.98,1.39-.7,5.45-1.2,7.98-1.46-1.83-.5-3.69-.38-5.18.36-.09.05-.18.09-.28.14h0Z"></path> <path class="cls-28" d="m84.82,73.06c-1.13.56-2.21,1.23-3.32,1.78-4.1,2.04-5.84.56-9.13,1.61,0,.02.02.04.03.06.7.49,1.42,1,2.11,1.53.71.1,1.45-.08,2.1-.4.79-.4,1.73-1.02,2.62-1.47,2.83-1.41,3.47-.11,4.6-.68.48-.24,1.03-1.15,2.36-1.81,1.22-.61,1.35-.22,2.32-.7.09-.04.18-.09.28-.14,1.49-.74,3.35-.86,5.18-.36.08,0,.16-.02.24-.03-2.25-1.96-6.35-.91-9.39.61h0Z"></path> <path class="cls-69" d="m60.7,50.45c.43.49.83,1.05,1.16,1.66.57-1.43,1.25-2.69,2.02-4.09-.3-.6-.7-1.21-1.17-1.81-.87,1.49-1.52,2.91-2.01,4.25h0Z"></path> <path class="cls-28" d="m58.71,61.95c-.31.76-.71,1.39-1.36,1.71-.8.4-4.51.88-7.37,2.31-.78.39-1.52.86-2.17,1.42.4-.3.81-.57,1.26-.79,1.45-.72,2.93-.77,4.28-.36.71.11,1.7.15,2.88-.44,1.61-.8,2.19-2.09,2.47-3.84h0Z"></path> <path class="cls-60" d="m59.87,53.13c.46.26.88.62,1.27,1.05.22-.75.46-1.43.72-2.08-.34-.61-.73-1.16-1.16-1.66-.35.93-.61,1.83-.83,2.68h0Z"></path> <path class="cls-40" d="m65.16,42.56c-.97,1.26-1.78,2.48-2.46,3.65.47.59.87,1.21,1.17,1.81.78-1.41,1.64-2.96,2.58-4.97-.29-.4-.6-.78-.91-1.13-.1.22-.23.43-.39.64h0Z"></path> <path class="cls-31" d="m57.36,63.65c.65-.32,1.05-.95,1.36-1.71.22-1.38.27-3.04.48-4.97-2.69,2.52-4.88,6.11-6.75,7.04-1.51.75-2.99.82-4.65,1.65-2.75,1.37-4.84,4.05-5.11,6.99-.02.17-.03.34-.03.51-.01.61.05,1.23.21,1.85.11-.26.22-.52.33-.78,1.15-2.66,2.56-5.26,4.62-6.85.65-.57,1.38-1.03,2.17-1.42,2.87-1.43,6.57-1.91,7.37-2.31h0Z"></path> <path class="cls-71" d="m100.19,44.2c.6-.24,1.21-.47,1.83-.68-.11-.27-.23-.53-.36-.78h0c-.98-.27-2.04-.26-3.15-.05.62.39,1.18.88,1.69,1.51h0Z"></path> <path class="cls-35" d="m94.82,35.09c-5.55-3.75-11.97-6.2-17.99-3.2-7.42,3.7-10.55,12.8-15.22,20.86-.88,2.4-1.47,5.34-1.71,10.1.75-2.14,1.66-4.66,2.73-7.7,1.21-5.06,3.02-10.63,7.34-12.78,1.89-.94,4.18-1.2,6.3-.5,7.65,2.5,16.88-2.55,22.23.81,1.11-.21,2.17-.22,3.15.05-.6-1.21-1.31-2.29-2.07-3.25-1.62-1.77-3.35-3.44-4.77-4.4h0Zm-1.59,3.74c-.85.42-3.51-.37-4.86-.43-3.25-.15-6.86.97-9.67-.65-.04-.08-.09-.15-.12-.22-.82-1.65-.34-3.53,1.99-4.69,3.31-1.65,10.63.7,12.6,4.64.34.68.5,1.14.07,1.36h0Z"></path> <path class="cls-28" d="m79.8,56.67c-.33.45-.56.79-.84.93-.85.42-1.36.07-1.69-.59-.87-1.75.49-4.04-.82-7.01.08,3.75-.39,10.4-.35,11.78.01.32.03.63.05.94.7-.59,1.21-1.53,1.57-2.29.63-1.32,1.33-2.57,2.08-3.77h0Z"></path> <path class="cls-34" d="m79.8,56.67c-.75,1.19-1.44,2.45-2.08,3.77-.36.76-.87,1.7-1.57,2.29.04.65.11,1.29.2,1.93.51-.44,1.07-.83,1.67-1.16.98-4.29,3.59-7.73,6.99-10.2-.74.15-1.46.39-2.14.73-1.71.85-2.52,1.89-3.07,2.65h0Z"></path> <path class="cls-31" d="m78.96,57.6c.28-.14.51-.48.84-.93.7-1.11,1.45-2.17,2.24-3.17-2.76.04-3.96-2.89-5.7-5.23.06.44.09,1.03.11,1.72,1.31,2.98-.05,5.26.82,7.01.33.66.84,1.01,1.69.59h0Z"></path> <path class="cls-27" d="m84.58,52.79c-.98.49-1.81.7-2.53.72-.8,1-1.55,2.06-2.24,3.17.55-.75,1.37-1.79,3.07-2.65.68-.34,1.4-.58,2.14-.73.98-.71,2.02-1.34,3.12-1.88,1.53-.76,2.95-1.35,4.27-1.77.18-.22.36-.44.55-.65-1.09.09-2.26.42-3.49,1.04-1.7.85-3.45,2.06-4.88,2.77h0Z"></path> <path class="cls-63" d="m76.98,46.95c.09.17.17.34.25.51,1.73,3.47,4.72,3.65,8.18,1.92.55-.27,1.09-.58,1.64-.9,1.72-1.37,3.59-2.57,5.61-3.58,2.02-1.01,4-1.88,5.83-2.22-5.35-3.36-14.59,1.69-22.23-.81-2.11-.69-4.41-.44-6.3.5-4.31,2.15-6.12,7.72-7.34,12.78.71-2.02,1.5-4.27,2.36-6.78.51-1.49,1.48-2.51,2.66-3.1.78-.39,1.59-.58,2.4-.62,2.8-1.2,5.43-.72,6.93,2.29h0Z"></path> <path class="cls-55" d="m92.67,44.9c-2.02,1.01-3.89,2.2-5.61,3.58,1.22-.71,2.44-1.48,3.64-2.08,1.86-.93,4.47-1.41,7.22-1.2.72-.34,1.48-.68,2.27-1-.5-.63-1.07-1.13-1.69-1.51-1.83.34-3.81,1.21-5.83,2.22Z"></path> <path class="cls-9" d="m87.06,48.48c-1.85,1.47-3.52,3.15-5.01,5.03.72-.01,1.56-.23,2.53-.72,1.43-.71,3.18-1.92,4.88-2.77,1.23-.61,2.4-.94,3.49-1.04,1-1.19,2.02-2.33,3.39-3.01.49-.25,1.02-.51,1.58-.77-2.75-.21-5.36.27-7.22,1.2-1.2.6-2.42,1.37-3.64,2.08h0Z"></path> <path class="cls-4" d="m82.05,53.51c1.5-1.88,3.17-3.55,5.01-5.03-.55.32-1.09.63-1.64.9-3.47,1.73-6.45,1.55-8.18-1.92-.08-.17-.17-.34-.25-.51-1.5-3-4.13-3.49-6.93-2.29,2.74-.14,5.39,1.44,6.12,2.9.07.15.13.39.17.72,1.73,2.34,2.94,5.27,5.7,5.23h0Z"></path> <path class="cls-63" d="m56.82,107.65c-.32-2.12-.52-4.14-.76-5.63-2.27-2.3-7.17-1.25-9.96-4.22-.67-.47-1.3-1.01-1.89-1.59.1.78.3,1.51.63,2.17,1.73,3.47,8.36,3.34,11.98,9.26h0Z"></path> <path class="cls-15" d="m56.06,102.02c.24,1.49.44,3.51.76,5.63.19.31.37.64.54.98,1.04,2.09.89,2.97,1.46,4.3-.93-2.7-1.15-5.58-1.49-8.42-.16-.54-.35-1.06-.58-1.53-.19-.37-.42-.69-.68-.96Z"></path> <path class="cls-27" d="m56.06,102.02c.27.27.5.59.68.96.23.47.42.99.58,1.53-.04-.36-.09-.72-.14-1.07-.14-1.02-1.04-2.01-.85-3.96-.47-.16-.86-.38-1.39-.25.24.24.45.5.6.81.21.42.37,1.11.51,1.98h0Z"></path> <path class="cls-31" d="m56.06,102.02c-.14-.87-.3-1.56-.51-1.98-.15-.3-.36-.57-.6-.81-.06.02-.13.03-.19.06-3,1.19-6.08.32-8.66-1.49,2.79,2.97,7.68,1.92,9.96,4.22h0Z"></path> <path class="cls-35" d="m56.82,107.65c-3.62-5.92-10.25-5.79-11.98-9.26-.33-.66-.53-1.4-.63-2.17-.56-.56-1.09-1.15-1.56-1.77-.89,2.85-.54,6.03.8,8.71,3.06,6.14,9.09,5.24,11.35,9.76,2.33,4.66,6.98,8.85,12.07,9.7-2-2.4-4.18-1.7-5.05-3.44-.07-.13-.12-.27-.18-.42-1.06-.98-2.04-2.23-2.84-3.85-1.04-2.08-1.6-4.74-1.98-7.25h0Z"></path> <path class="cls-39" d="m59.59,114.77c-.3-.6-.55-1.21-.76-1.83-.57-1.34-.42-2.22-1.46-4.3-.17-.35-.35-.67-.54-.98.38,2.51.94,5.17,1.98,7.25.81,1.62,1.78,2.87,2.84,3.85-.18-.49-.31-1.04-.55-1.52-.26-.51-.78-1-1.51-2.46h0Z"></path> <path class="cls-35" d="m120.66,105.4c-.79.76-1.68,1.4-2.66,1.89-.22.11-.46.21-.71.31-.5.31-1.06.62-1.68.93-3,1.5-6.93,2.52-7.68,2.89-.33.17-4.02,2.77-5.03,4-2.96,3.62.75,7.15,1.46,12.94,1.69.35,3.4.58,5.04.56-.31-.44-.59-.91-.84-1.4-6.18-12.39,7.7-15.2,12.11-22.12h0Z"></path> <path class="cls-5" d="m118,107.29c.98-.49,1.88-1.13,2.66-1.89.28-.44.53-.9.72-1.38-.09-.16-.18-.32-.28-.47-.51,1.42-1.7,2.76-3.82,4.06.25-.1.49-.2.71-.31h0Z"></path> <path class="cls-63" d="m102.9,115.41c1.01-1.23,4.69-3.84,5.03-4,.75-.37,4.68-1.39,7.68-2.89.61-.31,1.17-.61,1.68-.93-1.76.68-4.3,1.12-7.04,1.72-2.1.89-4.4,1.5-6.16,2.38-6.6,3.29-8.79,9.78-7.3,12.77.53,1.07,1.51,1.89,2.59,2.59.22.04.44.1.66.17,1.39.42,2.85.82,4.33,1.13-.7-5.79-4.41-9.32-1.46-12.94h0Z"></path> <path class="cls-36" d="m110.25,109.32c2.74-.6,5.28-1.04,7.04-1.72,2.12-1.3,3.31-2.64,3.82-4.06-.48-.79-1.01-1.55-1.58-2.28-.75,2.7-2.43,4.46-4.62,5.55-.41.2-.84.38-1.28.54-.66.56-1.44,1.05-2.26,1.46-.36.18-.73.35-1.11.51h0Z"></path> <path class="cls-67" d="m102.48,109.55c-2.96,1.48-3.38,3.61-4.78,5.54,1.18-.9,2.11-1.98,4.71-3.27,2.44-1.22,5.23-1.94,7.84-2.51.38-.16.75-.33,1.11-.51.83-.41,1.6-.9,2.26-1.46-1.89.68-4.05.98-6.27,1.02-.07.07-.16.13-.27.19-.03.02-2.69.04-4.6.99h0Z"></path> <path class="cls-4" d="m104.08,111.7c1.76-.88,4.06-1.49,6.16-2.38-2.61.57-5.39,1.3-7.84,2.51-2.59,1.29-3.52,2.37-4.71,3.27-.66.92-1.55,1.79-3.03,2.53-1.45.73-4.06,1.47-4.08,1.48-.98.49-1.83,2.12-.51,4.77.64,1.28,1.67,2.39,2.96,3.04,2.09.14,4.21-.3,6.32.15-1.08-.7-2.05-1.52-2.59-2.59-1.49-2.99.7-9.48,7.3-12.77h0Z"></path> <path class="cls-31" d="m90.59,119.11s2.63-.75,4.08-1.48c1.48-.74,2.36-1.61,3.03-2.53-.07.05-.14.1-.21.15-.62.75-1.36,1.37-2.19,1.79-1.03.51-3.37.83-6.33.37-.23,1.68-.73,3.29-1.19,4.14-.31.58-.49,1.15-.63,1.72,1.22,1.66,2.56,3.12,4.91,3.52.33.06.66.09.99.12-1.29-.65-2.32-1.75-2.96-3.04-1.32-2.65-.47-4.28.51-4.77h0Z"></path> <path class="cls-24" d="m102.48,109.55c1.91-.95,4.56-.98,4.6-.99.11-.06.2-.12.27-.19-1.88.04-3.79-.09-5.61-.32.06.53.08.94.06.96-.81,1.42-2.25,2.26-2.76,3.54-.39,1-.92,1.92-1.56,2.7.07-.05.14-.1.21-.15,1.4-1.94,1.82-4.07,4.78-5.54h0Z"></path> <path class="cls-46" d="m120.66,105.4c.33-.32.64-.65.93-1.01-.07-.13-.14-.25-.21-.38-.2.48-.44.94-.72,1.38h0Z"></path> <path class="cls-64" d="m108.56,127.52c.24.49.53.96.84,1.4.71,0,1.41-.06,2.09-.17-.1-.18-.2-.36-.29-.55-4.84-9.71,4.65-14.04,8.24-16.95,2.01-1.63,2.47-4.23,2.26-6.7-.03-.05-.06-.11-.09-.16-.29.35-.6.69-.93,1.01-4.41,6.93-18.29,9.73-12.11,22.12h0Z"></path> <path class="cls-4" d="m87.36,103.94c-2.31.91-4.76-.4-7.11-1.09-1.72-.5-3.64.29-5.4-.04,3.39,2.32,9.67,4.69,13.79,2.63,1.67-.83,2.08-1.4,3.21-2.13-.6-.1-1.2-.21-1.8-.29-1.06.31-2,.63-2.68.91h0Z"></path> <path class="cls-67" d="m91.84,103.33c.33-.21.73-.44,1.24-.69.28-.14.56-.25.85-.34-.35.02-.69.03-1.04.02-.98.21-1.95.47-2.84.73.6.08,1.2.19,1.8.29h0Z"></path> <path class="cls-37" d="m80.25,102.86c2.35.69,4.8,2,7.11,1.09.68-.27,1.62-.59,2.68-.91-.96-.13-1.91-.2-2.86-.08-.31.04-.6,0-.9-.06-2.25.73-4.85.26-7.08-1.11-.66-.41-2.37.48-4.49.94-.04.01-.09.02-.14.03.09.02.17.04.26.06,1.77.33,3.68-.47,5.4.04h0Z"></path> <path class="cls-10" d="m90.04,103.04c.88-.26,1.85-.51,2.84-.73-1.26-.04-2.53-.33-3.79-1.04-.98.73-1.81,1.21-1.9,1.26-.29.15-.6.27-.91.37.3.06.59.1.9.06.95-.12,1.9-.05,2.86.08h0Z"></path> <path class="cls-65" d="m96.82,102.72c-.43.21-.87.52-1.31.89.82-.06,1.65-.24,2.49-.61-.28-.15-.55-.29-.84-.43-.12.04-.23.1-.35.15h0Z"></path> <path class="cls-35" d="m89.99,108.2c-4.26,2.12-12.79-1.92-16.05-5.32-.24.04-.49.07-.74.09,2.57,2.25,7.22,6.34,7.22,6.34,2.4,2.17,5.93,2.19,8.65.83,3.4-1.7,3.14-4.17,7.7-6.45.47-.23.98-.44,1.4-.6-.05-.03-.11-.06-.17-.09-.84.37-1.67.55-2.49.61-1.7,1.38-3.52,3.59-5.52,4.59h0Z"></path> <path class="cls-63" d="m89.99,108.2c2.01-1,3.83-3.2,5.52-4.59-1.24.09-2.46-.08-3.66-.28-1.13.73-1.54,1.29-3.21,2.13-4.12,2.05-10.4-.32-13.79-2.63-.09-.02-.17-.03-.26-.06-.21.04-.43.08-.65.11,3.26,3.4,11.79,7.44,16.05,5.32h0Z"></path> <path class="cls-58" d="m91.84,103.33c1.21.2,2.42.37,3.66.28.44-.36.88-.67,1.31-.89.11-.06.23-.11.35-.15-.39-.2-.79-.39-1.18-.58-.68.14-1.37.25-2.06.3-.29.09-.56.2-.85.34-.51.25-.9.48-1.24.69h0Z"></path> <path class="cls-35" d="m50.79,75.67c-.36,3.05-6.94,5.55-3.48,12.49,1.79,3.59,6.03,5.93,10.19,6.92.05.01.1.03.16.04-.6-.76-1.16-1.61-1.64-2.58-.36-.71-.58-1.37-.71-1.99-.12-.1-.24-.2-.37-.29-1.89-1.44-3.67-3.25-4.68-5.27-2.36-4.74.34-6.45,4.29-14.48.43-.87,1.09-1.5,1.86-1.88.1-.05.2-.09.3-.14-.42-.48-.88-.91-1.39-1.27-.26.07-.5.16-.72.27-2.55,1.27-3.46,5.15-3.82,8.18h0Z"></path> <path class="cls-18" d="m55.31,90.55c.13.62.36,1.28.71,1.99.48.97,1.04,1.82,1.64,2.58,2.52.68,4.28,2.84,6.19,4.51.86.35,1.7.61,2.49.81-2.26-1.39-4.7-3.05-6.69-5.49-1.53-1.35-2.85-3.15-4.35-4.41h0Z"></path> <path class="cls-62" d="m63.85,99.63c.61.53,1.23,1.01,1.91,1.38.09-.04.18-.08.27-.12.18-.09.35-.2.51-.32-.07-.04-.13-.08-.2-.12-.79-.2-1.63-.46-2.49-.81h0Z"></path> <path class="cls-31" d="m58.69,80.09c.78,1.88-1.04,3.08-1.9,5.16,1.38-1.82,3.15-3.34,3.22-5.28-.55-.76-1.05-1.56-1.46-2.39-1.26-2.53-1.53-4.48-.83-7.66-.07-.12-.14-.24-.21-.36-1.37,3.13-.08,7.49,1.18,10.52h0Z"></path> <path class="cls-27" d="m56.79,85.25c-.51,1.23-.69,2.77.22,4.93-.54-2.33.12-4.84,2.28-5.91.03-.02.07-.03.1-.05-.22-1.54.41-2.76.89-3.88-.09-.12-.18-.25-.27-.37-.07,1.94-1.84,3.46-3.22,5.28h0Z"></path> <path class="cls-6" d="m56.79,85.25c-.63.83-1.17,1.72-1.44,2.75.48.78,1.04,1.51,1.66,2.2,0,0,0,0,0-.01-.9-2.17-.73-3.7-.22-4.93Z"></path> <path class="cls-4" d="m54.64,78.21c.07,1.81-2.33,3.83.13,8.75.18.35.37.7.58,1.04.27-1.03.81-1.92,1.44-2.75.86-2.08,2.68-3.28,1.9-5.16-1.26-3.03-2.55-7.39-1.18-10.52-.05-.08-.1-.17-.16-.25-2.56,1.84-2.83,5.87-2.72,8.88h0Z"></path> <path class="cls-36" d="m55.31,90.55c1.49,1.26,2.82,3.06,4.35,4.41-.78-.95-1.49-2.02-2.09-3.23-.24-.49-.43-1-.55-1.53-.61-.68-1.18-1.42-1.66-2.2-.2.77-.24,1.61-.05,2.55h0Z"></path> <path class="cls-63" d="m54.56,70.51c-3.95,8.03-6.65,9.74-4.29,14.48,1.01,2.02,2.79,3.82,4.68,5.27.12.09.24.19.37.29-.2-.94-.15-1.78.05-2.55-.21-.34-.41-.69-.58-1.04-2.46-4.93-.06-6.94-.13-8.75-.12-3.02.15-7.04,2.72-8.88-.2-.29-.41-.57-.63-.83-.1.04-.21.09-.3.14-.77.39-1.43,1.01-1.86,1.88h0Z"></path> <path class="cls-21" d="m57.66,95.12c1.8,2.26,4.05,3.65,6.19,4.51-1.92-1.67-3.67-3.84-6.19-4.51h0Z"></path> <path class="cls-64" d="m57.66,95.12c-.05-.01-.1-.03-.16-.04-4.16-.99-8.4-3.33-10.19-6.92-3.46-6.94,3.12-9.44,3.48-12.49.36-3.03,1.27-6.91,3.82-8.18.21-.11.46-.2.72-.27-.35-.25-.72-.47-1.1-.65-.44.14-.87.31-1.28.51-2.7,1.35-4.77,4.19-5.5,7.36-.5,2.17-10.56,5.68-5.75,15.33,3.1,6.22,11.02,8.79,18.08,8.47.59-.03,1.15.2,1.66.56,1.72.67,1.91,3.23,4.31,2.22-.67-.37-1.3-.85-1.91-1.38-2.14-.87-4.39-2.26-6.19-4.51h0Zm-13.13-5.46c-.75.38-1.64.23-2.15-.79-.95-1.9-1.07-7.27,2.21-9.37.09.11.17.24.24.38.19.37.25.78.18,1.15-.92,5.18,1.6,7.58-.48,8.62h0Z"></path> <path class="cls-48" d="m86.32,85.36s.45-.17.75-.32c1.24-.62,3.86-4.01,4.12-7.07-.35,2.29-2.5,6.01-4.1,6.81-.6.3-1.23.46-1.87.55.17.17.34.35.5.53.13-.03.26-.06.39-.1-.04-.16.02-.3.21-.4Z"></path> <path class="cls-47" d="m87.07,85.03c-.31.15-.74.32-.75.32-.19.1-.25.23-.21.4.16-.05.32-.1.46-.17,1.1-.55,2.23-.96,3.37-1.25-.27-.15-.49-.31-.59-.52-.71-1.43,2.69-3.19,1.86-5.96,0,.04-.01.08-.02.11-.26,3.06-2.87,6.45-4.12,7.07h0Z"></path> <path class="cls-61" d="m33.55,47.32c.56-.74,1.5-1.05,2.19-1.74,2.6-2.6,5.33-6.93,8.18-9.25h0c-.27-.53-.42-.94-.55-1.34-.05.06-.1.13-.14.2-2.83,4.27-15.04,11.94-14.81,25.82.55-4.91,2.19-9.76,5.14-13.69h0Z"></path> <path class="cls-68" d="m43.92,36.32c.53-.43,1.07-.8,1.6-1.07,1.71-.85,3.41-.7,5.14-.3-.35-.14-.7-.28-1.05-.44-1.5-.67-3.61-1.2-5.16-.43-.4.2-.77.49-1.08.89.13.4.28.8.55,1.34h0Z"></path> <path class="cls-50" d="m41.34,44.7c1.42-.71,2.93-1.29,4.32-1.99,1.27-.63,2.02-1.16,2.62-1.64-1.75-1.24-3.31-2.64-4.36-4.74-2.84,2.32-5.58,6.66-8.18,9.25-.69.69-1.63,1-2.19,1.74-2.95,3.92-4.59,8.78-5.14,13.69.03,1.92.3,3.96.87,6.12.56,2.14,1.41,4.41,2.6,6.8,2.47,4.96,4.77,6.3,7.17,9.28-.01-.42,0-.83.01-1.21-2.59-1.76-4.59-4.21-5.99-7.03-5.71-11.44-1.68-25.31,8.27-30.27h0Z"></path> <path class="cls-43" d="m43.92,36.32c1.05,2.1,2.61,3.5,4.36,4.74.96-.77,1.56-1.45,3.3-2.32,3.97-1.98,8.26-.85,12.01,1.35-3.81-2.9-8.55-3.41-12.93-5.13-1.73-.41-3.42-.56-5.14.3-.54.27-1.07.63-1.6,1.07h0Z"></path> <path class="cls-35" d="m43.61,63.03c4.26-5.06,6.43-12.7,10.31-14.63.92-.46,1.95-.55,2.98-.32-1.55-2.1-3.38-3.51-5.2-4.73-.26.31-.5.66-.72,1.07-5.82,10.7-18.82,17.67-12.13,31.09.51,1.03,1.14,2,1.86,2.89.52-.33,1.05-.63,1.27-1.17.29-.72.58-1.47.89-2.22-.16-.62-.22-1.24-.21-1.85-1.41-3.24-1.39-7.35.95-10.13h0Z"></path> <path class="cls-29" d="m53.15,42.17c-.52.26-1.01.64-1.45,1.17,1.82,1.23,3.64,2.64,5.2,4.73,1.36.29,2.71,1.13,3.81,2.38.5-1.34,1.15-2.75,2.01-4.25-2.37-2.99-6.55-5.54-9.56-4.04h0Z"></path> <path class="cls-1" d="m59.69,53.91c.06-.25.11-.51.18-.78-.16-.09-.32-.17-.48-.23.11.33.21.67.3,1.01Z"></path> <path class="cls-4" d="m59.39,52.9c-.85-.34-1.79-.33-2.83.18-.87.43-1.65,1.16-2.2,1.99-4.91,7.43-13.81,9.9-11.67,17.57.28-2.94,2.36-5.62,5.11-6.99,1.66-.83,3.14-.89,4.65-1.65,1.86-.93,4.06-4.52,6.75-7.04.11-.95.26-1.98.5-3.07-.09-.34-.19-.67-.3-1.01h0Z"></path> <path class="cls-26" d="m60.14,56.15c.2-.16.41-.32.62-.46.12-.53.24-1.03.38-1.5-.39-.43-.82-.79-1.27-1.05-.07.26-.12.52-.18.78.2.74.35,1.49.45,2.24h0Z"></path> <path class="cls-11" d="m59.69,53.91c-.24,1.09-.39,2.11-.5,3.07.31-.29.62-.57.95-.82-.11-.75-.25-1.5-.45-2.24h0Z"></path> <path class="cls-32" d="m60.32,58.16c.04-.25.07-.5.11-.74-.05.07-.09.15-.14.22.01.17.02.35.03.53Z"></path> <path class="cls-34" d="m58.71,61.95c-.28,1.75-.86,3.04-2.47,3.84-1.19.59-2.17.56-2.88.44,1.82.56,3.4,1.96,4.36,3.69.41-1.83,1.14-4.08,2.18-7.07.09-1.8.23-3.34.42-4.69,0-.17-.02-.35-.03-.53-.78,1.29-1.05,3-1.58,4.31h0Z"></path> <path class="cls-36" d="m56.89,48.07c.56.75,1.08,1.59,1.55,2.54.38.76.69,1.52.95,2.29.16.07.32.14.48.23.21-.86.48-1.75.83-2.68-1.1-1.25-2.45-2.09-3.81-2.38Z"></path> <path class="cls-63" d="m54.36,55.08c.55-.83,1.33-1.56,2.2-1.99,1.04-.52,1.99-.52,2.83-.18-.26-.77-.57-1.53-.95-2.29-.47-.95-1-1.79-1.55-2.54-1.03-.22-2.05-.14-2.98.32-3.88,1.93-6.05,9.57-10.31,14.63-2.34,2.78-2.36,6.89-.95,10.13,0-.17.01-.34.03-.51-2.14-7.67,6.76-10.15,11.67-17.57h0Z"></path> <path class="cls-52" d="m63.58,40.09c-3.75-2.2-8.04-3.33-12.01-1.35-1.74.87-2.34,1.55-3.3,2.32,1.09.77,2.25,1.48,3.42,2.27.44-.53.93-.91,1.45-1.17,3.01-1.5,7.19,1.04,9.56,4.04.68-1.17,1.49-2.39,2.46-3.65.16-.21.29-.42.39-.64-.62-.7-1.28-1.3-1.97-1.82h0Z"></path> <path class="cls-64" d="m50.98,44.4c.22-.41.46-.76.72-1.07-1.17-.79-2.33-1.5-3.42-2.27-.6.49-1.35,1.01-2.62,1.64-1.4.69-2.9,1.28-4.32,1.99-9.95,4.96-13.98,18.83-8.27,30.27,1.4,2.82,3.4,5.27,5.99,7.03.07-1.33.34-2.42.88-3.01.22-.24.49-.42.77-.6-.73-.89-1.35-1.87-1.86-2.89-6.69-13.42,6.31-20.4,12.13-31.09h0Zm-10.06,3.07c1.63-.81,2.37-1.09,3.18.54,2.11,4.23-5.4,9.48-8.16,14.43-.13.23-.36.43-.63.57-.21.1-.45.17-.69.2.02-5.79.7-12.94,6.31-15.74h0Z"></path> <path class="cls-33" d="m60.3,57.63c.04-.08.09-.15.14-.22.1-.61.21-1.19.33-1.73-.21.14-.42.3-.62.46.07.49.12.99.15,1.48Z"></path> <path class="cls-24" d="m60.3,57.63c-.03-.5-.08-.99-.15-1.48-.32.26-.64.53-.95.82-.22,1.94-.26,3.6-.48,4.97.53-1.31.8-3.02,1.58-4.31h0Z"></path> <path class="cls-1" d="m102.2,41.1c.04-.45.04-.9.03-1.35-3.43-2.16-4.1-4.73-11.89-7.9,2.28,1.69,5.2,3.38,7.73,5.94,1.07.65,2.12,1.31,2.34,1.46.58.41,1.12,1.16,1.78,1.84h0Z"></path> <path class="cls-4" d="m108.49,42.2c-2.99-.76-4.86-1.57-6.26-2.45.01.45,0,.9-.03,1.35.7.73,1.55,1.38,2.77,1.46.28.02.56.05.84.09,1.7-.19,3.36-.04,4.84.67-.63-.54-1.38-.92-2.15-1.12h0Z"></path> <path class="cls-53" d="m100.42,39.26c-.22-.15-1.27-.82-2.34-1.46,1.35,1.36,2.6,2.97,3.59,4.95.07.14.14.28.2.42.18-.68.29-1.37.34-2.05-.66-.68-1.2-1.44-1.78-1.84h0Z"></path> <path class="cls-31" d="m102.2,41.1c-.05.68-.16,1.37-.34,2.05.05.12.11.25.16.37,1.25-.41,2.53-.73,3.78-.87-.28-.04-.56-.07-.84-.09-1.22-.09-2.07-.74-2.77-1.46Z"></path> <path class="cls-61" d="m98.43,26.33c1.91,1.65,3.71,2.23,5.31,2.56-2.61-.76-4.28-3.35-5.85-4.05.13.47.27.94.43,1.41.04.03.08.06.11.09h0Z"></path> <path class="cls-8" d="m98.31,26.24c-.15-.47-.3-.94-.43-1.41-.48-.22-.95-.26-1.44-.02,0,0-.37.21-.69.37-.55.27-1.1.5-1.65.69,1.65-.24,3.25-.35,4.2.36Z"></path> <path class="cls-55" d="m101.32,34.65c-3.11-3.62-7.77-8.12-15.23-4.63.37.12.74.27,1.11.43.39.16,1.2-.2,1.51.09.49.45,1.04.89,1.63,1.32,7.79,3.17,8.46,5.74,11.89,7.9-.05-1.71-.4-3.4-.91-5.1h0Z"></path> <path class="cls-63" d="m104.93,38.31c-.93-.31-2.09-1.88-3.62-3.67.51,1.7.87,3.4.91,5.1,1.4.88,3.26,1.69,6.26,2.45.78.2,1.53.58,2.15,1.12,1.42.68,2.67,1.87,3.62,3.77.08.16.15.31.22.48.23-1.3.08-2.64-.56-3.93-1.66-3.32-5.62-4.19-8.98-5.32Z"></path> <path class="cls-25" d="m100.1,31.1c-.61-1.62-1.25-3.24-1.78-4.86-.95-.71-2.55-.61-4.2-.36-3.76,1.32-7.39.94-9.1,1.79-.79.39-1.48.98-2.05,1.68.51.05,1.03.12,1.56.24,6.88-3.16,12.18.28,15.58,1.52h0Z"></path> <path class="cls-50" d="m114.86,38.46c-2.49-3.45-5.6-7.21-5.83-7.5-1.07-1.37-2.51-1.59-4.22-1.88-.37-.03-.73-.1-1.07-.2-1.6-.33-3.4-.9-5.31-2.56-.04-.03-.08-.06-.11-.09.53,1.62,1.17,3.24,1.78,4.86.74.27,1.4.44,1.96.41,5.2-.28,8.79,2.98,10.89,7.19,1.96,3.93,2.45,7.86,2.04,10.66.22,1.45.04,2.95-.43,4.47.33.08.66.17.99.26,1.56-5.04,1.99-10.29-.4-15.09-.09-.18-.18-.35-.28-.53h0Z"></path> <path class="cls-35" d="m102.05,31.51c-.56.03-1.21-.14-1.96-.41.44,1.18.87,2.36,1.22,3.54,1.53,1.78,2.68,3.36,3.62,3.67,3.36,1.12,7.32,1.99,8.98,5.32.64,1.29.79,2.63.56,3.93.24.59.41,1.19.5,1.8.42-2.8-.08-6.73-2.04-10.66-2.1-4.21-5.69-7.47-10.89-7.19h0Zm8.39,6.81c-.05.03-.21.03-.26,0-1.95-1.36-5.13.16-7.41-3.5-.02-.75.58-1.47,1.25-1.8,1.43-.71,4.1.49,5.95,4.18.03.06.54,1.1.48,1.13h0Z"></path> <path class="cls-18" d="m101.32,34.65c-.35-1.18-.78-2.36-1.22-3.54-3.4-1.24-8.69-4.68-15.58-1.52.52.11,1.05.25,1.58.44,7.46-3.49,12.11,1,15.23,4.63Z"></path> <path class="cls-25" d="m130,79.37c-1.02,2.31.49,3.57-.48,4.79,3.74-3.56,7.14-8.54,5.85-14.96-1.11-.15-2.16-.4-3.21-.69.7,3.83-.53,7.18-2.16,10.86h0Z"></path> <path class="cls-50" d="m132.16,68.51c1.04.29,2.1.54,3.21.69-.28-1.38-.77-2.82-1.52-4.34-.36-.72-.73-1.32-1.11-1.86-2.07-2.19-4.66-3.94-7.48-5.36,2.12,1.81,4.14,4.11,5.57,6.97.68,1.37,1.11,2.66,1.34,3.9Z"></path> <path class="cls-64" d="m122.12,66.41c1.08-.03,2.11.06,3.11.22-.16-.6-.3-1.2-.43-1.82.29-.55.69-1.07,1.12-1.29,1.1-.55,2.91,1.83,3.46,2.95.23.46.4.91.53,1.36.75.23,1.49.46,2.24.67-.23-1.24-.65-2.53-1.34-3.9-1.43-2.87-3.45-5.16-5.57-6.97-.11-.06-.23-.11-.34-.17-.54.06-1.06.17-1.52.4-1.56.78-2.56,4.68-1.27,8.55h0Z"></path> <path class="cls-16" d="m129.52,84.16c.97-1.22-.54-2.48.48-4.79,1.63-3.67,2.86-7.03,2.16-10.86-.75-.21-1.5-.44-2.24-.67.79,2.68-.02,4.96-.28,5.09-1.31.65-2.49-1.53-3.14-2.85-.55-1.1-.95-2.26-1.27-3.45-.99-.16-2.02-.25-3.11-.22.16.49.36.98.61,1.46,1.41,2.83,3.39,4.58,4.8,7.41,1.33,2.68,1.99,5.73,1.54,8.67-.04.25-.08.49-.14.74.1-.09.21-.19.31-.29.09-.09.18-.17.28-.26h0Z"></path> <path class="cls-25" d="m126.5,70.08c.66,1.31,1.84,3.5,3.14,2.85.25-.13,1.07-2.41.28-5.09-1.52-.47-3.06-.94-4.69-1.2.32,1.19.72,2.35,1.27,3.45Z"></path> <path class="cls-50" d="m125.92,63.53c-.43.22-.83.74-1.12,1.29.12.61.26,1.21.43,1.82,1.63.27,3.17.73,4.69,1.2-.13-.44-.3-.9-.53-1.36-.56-1.12-2.36-3.5-3.46-2.95Z"></path> <path class="cls-35" d="m117.87,67.13c1.52-.47,2.93-.68,4.25-.72-1.29-3.87-.29-7.77,1.27-8.55.46-.23.98-.34,1.52-.4-2.4-1.18-4.97-2.11-7.53-2.87-1.93,4.29-1.34,8.56.49,12.54h0Z"></path> <path class="cls-18" d="m127.52,75.29c-1.41-2.83-3.39-4.58-4.8-7.41-.24-.48-.44-.98-.61-1.46-1.32.04-2.73.25-4.25.72.1.22.21.45.32.67,3.29,6.6,8.37,10.18,9.59,12.63.39.78.63,1.61.75,2.45.09.64.1,1.29.05,1.95.12-.04.24-.08.36-.12h0c.05-.25.1-.5.14-.74.44-2.94-.21-6-1.54-8.67h0Z"></path> <path class="cls-63" d="m113.97,68.79c.22-.12.44-.23.66-.35,1.14-.57,2.21-1,3.23-1.31-1.83-3.98-2.42-8.25-.49-12.54-.62-.18-1.23-.35-1.85-.52-.04-.01-.08-.02-.12-.03,2.03,5.91-2.59,9.5-1.44,14.74h0Z"></path> <path class="cls-36" d="m113.97,68.79c.15.68.4,1.39.77,2.14,2.04,4.1,10.43,6.19,13.78,11.95-.11-.84-.35-1.66-.75-2.45-1.22-2.45-6.3-6.04-9.59-12.63-.11-.22-.22-.45-.32-.67-1.02.31-2.09.74-3.23,1.31-.22.11-.44.23-.66.35h0Z"></path> <path class="cls-61" d="m132.73,63c.38.54.75,1.15,1.11,1.86.75,1.51,1.25,2.96,1.52,4.34.38.05.77.09,1.16.11-.15-.65-.38-1.29-.7-1.92-.81-1.63-1.87-3.09-3.1-4.39h0Z"></path> <path class="cls-68" d="m129.52,84.16c-.09.09-.18.17-.28.26-.1.1-.21.19-.31.29h0c.12-.05.24-.1.36-.15.04-.02.09-.04.13-.06,1.97-.98,8.75-8.32,7.1-15.18-.39-.02-.78-.06-1.16-.11,1.29,6.42-2.11,11.4-5.85,14.96h0Z"></path> <path class="cls-57" d="m110.58,70.95c-.91.66-1.79,1.38-2.65,2.14-.1.22-.19.44-.29.67,1.55.05,3.07.32,4.55.76-.62-.72-1.15-1.4-1.46-2.03-.25-.51-.26-1.02-.15-1.53h0Z"></path> <path class="cls-28" d="m111.32,68.52c.39-2.04.07-4.03-.5-5.96-.2,3.07-.59,6.42-.89,7.13-.4.93-1.13,1.56-1.59,2.49-.14.29-.28.6-.41.9.86-.75,1.74-1.47,2.65-2.14.16-.79.58-1.59.74-2.43h0Z"></path> <path class="cls-37" d="m110.58,70.95c.4-.3.81-.58,1.22-.85-1.27-5.18,2.17-9.32,2.17-14.76-.74,1.69-1.8,3.36-3.04,4.95-.02.71-.07,1.49-.12,2.29.56,1.92.89,3.91.5,5.96-.16.84-.58,1.64-.74,2.43h0Z"></path> <path class="cls-7" d="m112.63,72.34c-.39-.77-.66-1.52-.83-2.25-.41.27-.82.56-1.22.85-.1.51-.1,1.02.15,1.53.32.63.85,1.31,1.46,2.03,5.17,1.54,9.75,5.24,12.55,9.8-.1-.22-.2-.43-.3-.64-3.91-7.83-9.13-5.96-11.81-11.32h0Z"></path> <path class="cls-9" d="m114.74,70.93c-.37-.75-.62-1.46-.77-2.14-.74.4-1.46.83-2.17,1.31.18.73.45,1.47.83,2.25,2.67,5.36,7.9,3.49,11.81,11.32.11.21.21.42.3.64.24.39.46.78.68,1.18,1.05-.23,2.15-.34,3.15-.65.05-.66.04-1.31-.05-1.95-3.35-5.76-11.73-7.85-13.78-11.95h0Z"></path> <path class="cls-4" d="m113.97,68.79c-1.15-5.25,3.47-8.84,1.44-14.74-.29-.08-.58-.15-.87-.22-.16.5-.35,1.01-.57,1.51,0,5.44-3.44,9.58-2.17,14.76.71-.47,1.44-.91,2.17-1.31Z"></path> <path class="cls-50" d="m27.72,92.72c-.34-.67-.91-.56-1.58-.23-.75.38-1.79,2.52-2.39,4.6,1.41-.34,2.83-.91,4.23-1.6.06-.03.12-.06.17-.09-.11-.69-.22-1.43-.3-2.22-.02-.16-.06-.32-.13-.47h0Z"></path> <path class="cls-25" d="m23.75,97.09c-.27.94-.46,1.87-.49,2.62,1.14,2.09,2.81,4.12,4.59,3.23,1.92-.96.97-3.4.3-7.54-.06.03-.12.06-.17.09-1.4.7-2.81,1.26-4.23,1.6h0Z"></path> <path class="cls-50" d="m21.48,97.44c-1.15-6.53,4.63-7.12,3.15-11.58-2.23-6.73-.84-13.07,1.39-16.86-2.66,2.12-1.9,4.49-5.74,13.63-1.49,4.65-2.59,9.81-1.19,14.67.79.14,1.59.18,2.39.14h0Z"></path> <path class="cls-14" d="m23.29,102.5c-1.01-2.02-1.56-3.67-1.81-5.06-.8.05-1.6,0-2.39-.14.25.87.58,1.73,1,2.57,1.3,2.6,4.34,6.91,7.96,10.32,2.53,1.73,6.24,3.41,12.14,4.77-.04-.08-.08-.16-.12-.24-.24-.48-.46-.95-.67-1.43-6.15-1.62-13.46-5.5-16.11-10.81h0Z"></path> <path class="cls-68" d="m19.09,97.31c-.92-.16-1.82-.46-2.73-.92.02.08.06.16.1.24.54,1.09,1.74,1.57,2.23,2.54.27.55.42,1.19.67,1.7.14.27.3.51.54.67,2.86,1.98,3.44,5.42,8.14,8.65-3.61-3.41-6.66-7.72-7.96-10.32-.42-.85-.75-1.7-1-2.57h0Z"></path> <path class="cls-61" d="m19.09,97.31c-1.4-4.86-.3-10.02,1.19-14.67-.65,1.54-1.43,3.27-2.37,5.23-1.23,2.53-.22,4.97-1.52,7.89-.09.2-.09.42-.02.64.9.46,1.81.75,2.73.92h0Z"></path> <path class="cls-52" d="m29.71,94.55c-.53.3-1.05.59-1.56.85.67,4.14,1.62,6.58-.3,7.54-1.78.89-3.45-1.14-4.59-3.23.04-.75.22-1.67.49-2.62-.76.18-1.51.3-2.27.35.24,1.39.8,3.04,1.81,5.06,2.65,5.31,9.96,9.19,16.11,10.81-.41-.93-.76-1.84-1.06-2.73-3.08-1.6-5.65-4.19-7.2-7.29-1.86-3.72-1.64-6.31-1.42-8.73h0Z"></path> <path class="cls-64" d="m24.63,85.86c1.48,4.46-4.3,5.05-3.15,11.58.76-.04,1.51-.16,2.27-.35.61-2.08,1.64-4.23,2.39-4.6.67-.34,1.24-.45,1.58.23.07.14.12.3.13.47.08.79.19,1.53.3,2.22.51-.26,1.03-.54,1.56-.85.2-2.19.41-4.25-.9-6.88-.8-1.61-1.89-3.12-2.72-4.78-2.93-5.88-.06-11.7,3.32-15.26-.05-.17-.09-.34-.14-.51-.22.1-.43.2-.64.3-1.14.57-1.98,1.06-2.62,1.57-2.23,3.78-3.62,10.12-1.39,16.86h0Z"></path> <path class="cls-35" d="m26.09,82.89c.82,1.66,1.92,3.17,2.72,4.78,1.31,2.63,1.1,4.69.9,6.88,1.64-.94,3.35-2.07,4.93-3.13.38-2.39.47-4.7-.64-6.93-1.26-2.52-3.85-4.59-4.99-6.87-1.42-2.85-.96-6.35.7-9.01-.1-.33-.2-.65-.29-.97-3.38,3.56-6.25,9.38-3.32,15.26h0Z"></path> <path class="cls-29" d="m34.64,91.42c-1.58,1.06-3.28,2.19-4.93,3.13-.22,2.42-.44,5.01,1.42,8.73,1.55,3.1,4.12,5.69,7.2,7.29-.3-.89-.54-1.77-.74-2.62-1.2-.83-2.15-2.03-2.83-3.41-2.31-4.62-.78-9-.13-13.13h0Z"></path> <path class="cls-31" d="m31.88,73.93c-.27-.53-.51-1.06-.74-1.58.24,1.45.75,2.87,1.44,4.25,2.04,4.08,4.78,6.58,5.67,8.37.52,1.05.63,2.3.53,3.71.36-.23.69-.42.98-.57-.4-1.62-.66-3.35-.7-4.89-2.4-2.98-4.69-4.33-7.17-9.28h0Z"></path> <path class="cls-41" d="m37.12,105.15c-.75-6.87,1.77-11.79,3.59-14.03-.37-.89-.7-1.93-.97-3.02-.29.15-.62.35-.98.57-.37,4.69-3.22,11.01-1.65,16.48h0Z"></path> <path class="cls-63" d="m29,77.62c1.14,2.28,3.73,4.35,4.99,6.87,1.11,2.23,1.02,4.54.64,6.93,1.57-1.06,3.02-2.06,4.13-2.75.11-1.4,0-2.66-.53-3.71-.89-1.79-3.64-4.28-5.67-8.37-.69-1.38-1.2-2.8-1.44-4.25-.57-1.29-1.05-2.53-1.43-3.74-1.66,2.67-2.12,6.16-.7,9.01h0Z"></path> <path class="cls-36" d="m34.64,91.42c-.66,4.13-2.18,8.5.13,13.13.69,1.37,1.64,2.58,2.83,3.41-.22-.97-.37-1.9-.47-2.8-1.57-5.47,1.28-11.79,1.65-16.48-1.12.69-2.56,1.69-4.13,2.75h0Z"></path> <path class="cls-44" d="m79.87,113.57c-3.11-3.03-5.86-7.12-8-10.61-.98-.08-1.97-.36-2.95-.96-.75-.46-1.55-.93-2.38-1.44-.16.12-.34.23-.51.32-2.76,1.38-2.82-1.58-4.77-2.15.3.25,1.45,1.24,2.83,2.82,7.9,1.32,11.01,9.52,15.79,12.01Z"></path> <path class="cls-28" d="m63.73,101.5c.12.02.24.03.35.05-1.38-1.57-2.52-2.56-2.83-2.82-.47-.14-1.04-.14-1.78.09,1.36,1.05,2.57,2.44,4.26,2.67h0Z"></path> <path class="cls-42" d="m64.09,101.56c1.29,1.47,2.77,3.46,3.95,5.82.11.21.21.42.31.63,3.24,4.43,6.09,8.73,10.88,7.96,1.31-.21,2.48-.37,3.54-.5-.67-.32-1.35-.68-2.02-1.09-.29-.26-.58-.53-.87-.81-4.78-2.49-7.89-10.69-15.79-12.01h0Z"></path> <path class="cls-66" d="m68.35,108.01c-.1-.21-.2-.42-.31-.63-1.18-2.37-2.67-4.35-3.95-5.82-.12-.02-.23-.04-.35-.05-1.69-.23-2.9-1.62-4.26-2.67-.34.1-.71.25-1.13.46-.16.08-.31.14-.45.19,4.7.95,7.71,4.79,10.45,8.53Z"></path> <path class="cls-35" d="m68.55,120.77c.24.49.48.98.73,1.48.62,1.24,1.36,2.73,2.48,3.96-.05-.69-.08-1.41-.11-2.15-.76-.89-1.44-1.94-2.03-3.12-1.55-3.11-2.42-7.15-3.06-8.43-.9-1.81-2.75-3.09-5.02-1.96-1.09.55-2.06,1.48-2.65,2.57.2.56.43,1.11.7,1.65.66,1.33,1.16,1.85,1.43,2.32.3-.25.62-.46.96-.63,3.34-1.66,4.9.97,6.56,4.31h0Z"></path> <path class="cls-29" d="m71.65,124.06c.03.74.06,1.45.11,2.15,2.16,2.36,5.74,3.72,12.58.31.8-.4,1.59-.85,2.36-1.34.18-.63.29-1.27.45-1.9,0-.02.01-.04.02-.07-1.12.82-2.62,1.71-4.69,2.74-4.55,2.27-8.19,1.17-10.82-1.89h0Z"></path> <path class="cls-61" d="m67.77,121.95c-1.39-1.16-3.15-1.48-4.93-1.77,1.35.73,3.44.74,5.14,4.14.09.19.18.37.27.56.37.8.71,1.61,1.09,2.36.73,1.45,1.8,2.41,3.05,3-.19-.69-.33-1.41-.43-2.15-1.79-2.15-2.77-4.97-4.18-6.15Z"></path> <path class="cls-8" d="m71.95,128.1c.1.74.24,1.45.43,2.15,3.14,1.49,7.35.65,9.61-.37-5.28,2.05-8.12.52-10.04-1.77h0Z"></path> <path class="cls-64" d="m67.77,121.95c1.41,1.18,2.39,4,4.18,6.15-.08-.62-.14-1.25-.19-1.9-1.12-1.23-1.86-2.73-2.48-3.96-.25-.49-.49-.99-.73-1.48-1.66-3.34-3.23-5.97-6.56-4.31-.34.17-.67.38-.96.63.03.05.05.09.07.14.31.63.44,1.37.73,1.94.24.49.59.79,1.01,1.01,1.78.29,3.54.61,4.93,1.77h0Z"></path> <path class="cls-52" d="m71.76,126.2c.04.65.1,1.28.19,1.9,1.91,2.3,4.75,3.83,10.04,1.77.11-.05.21-.1.31-.15,3.07-1.53,3.97-3.05,4.41-4.56-.77.49-1.56.94-2.36,1.34-6.84,3.41-10.42,2.05-12.58-.31h0Z"></path> <path class="cls-1" d="m82.77,115.47c-1.06.13-2.24.29-3.54.5-4.79.77-7.64-3.53-10.88-7.96,1.75,3.7,2.53,7,2.9,9.98,3.8,2.35,12.7-2.07,17.1,2.2.27-.81.5-1.78.63-2.78-1.88-.29-4-.89-6.21-1.94h0Z"></path> <path class="cls-4" d="m67.44,109.21c1.23,2.47,1.45,5.19,2.56,7.4.3.61.73,1.06,1.25,1.38-.37-2.98-1.15-6.28-2.9-9.98-2.73-3.74-5.75-7.57-10.45-8.53-.67.23-1.14.14-1.54,0-.19,1.95.7,2.95.85,3.96.11.78.2,1.56.29,2.35.51-.39,1.03-.74,1.58-1.02,3.44-1.72,6.67,1.01,8.37,4.44h0Z"></path> <path class="cls-55" d="m71.25,117.99c.27,2.18.34,4.2.41,6.07,2.63,3.06,6.27,4.16,10.82,1.89,2.07-1.03,3.58-1.93,4.69-2.74.14-.55.31-1.1.62-1.66.19-.35.38-.81.56-1.36-4.39-4.27-13.29.15-17.1-2.2h0Zm12.86,5.33c-1.84.92-6.18,1.41-9.05-.56,1.01-.83,1.89-1.84,3.01-2.4,1.62-.8,5.42-.63,6.32,1.17.31.63.37,1.45-.29,1.78Z"></path> <path class="cls-63" d="m66.56,112.5c.64,1.28,1.51,5.33,3.06,8.43.59,1.18,1.27,2.24,2.03,3.12-.07-1.87-.14-3.89-.41-6.07-.52-.32-.94-.77-1.25-1.38-1.1-2.21-1.33-4.93-2.56-7.4-1.71-3.43-4.93-6.16-8.37-4.44-.55.27-1.07.63-1.58,1.02.28,2.49.57,4.98,1.41,7.33.59-1.09,1.56-2.03,2.65-2.57,2.27-1.13,4.12.15,5.02,1.96h0Z"></path> </g> </g> <g> <path class="cls-49" d="m75.58,52.46c0,5.18-1.63,9.57-8.79,9.57v.86h18.89v-.86c-7.16,0-8.79-4.39-8.79-9.57"></path> <rect class="cls-49" x="63.02" y="23.89" width="26.44" height="12.22"></rect> <rect class="cls-49" x="56.16" y="36.12" width="40.15" height="16.35"></rect> <g> <path class="cls-49" d="m61.9,36.13c0,1.58-1.28,2.87-2.87,2.87s-2.87-1.28-2.87-2.87"></path> <path class="cls-49" d="m67.63,36.13c0,1.58-1.28,2.87-2.87,2.87s-2.87-1.28-2.87-2.87"></path> <path class="cls-49" d="m73.37,36.13c0,1.58-1.28,2.87-2.87,2.87s-2.87-1.28-2.87-2.87"></path> <path class="cls-49" d="m79.1,36.13c0,1.58-1.28,2.87-2.87,2.87s-2.87-1.28-2.87-2.87"></path> <path class="cls-49" d="m84.84,36.13c0,1.58-1.28,2.87-2.87,2.87s-2.87-1.28-2.87-2.87"></path> <path class="cls-49" d="m90.57,36.13c0,1.58-1.28,2.87-2.87,2.87s-2.87-1.28-2.87-2.87"></path> <path class="cls-49" d="m96.31,36.13c0,1.58-1.28,2.87-2.87,2.87s-2.87-1.28-2.87-2.87"></path> </g> <g> <path class="cls-49" d="m67.63,23.89c0,1.58-1.28,2.87-2.87,2.87-.66,0-1.27-.22-1.75-.6"></path> <path class="cls-49" d="m73.37,23.89c0,1.58-1.28,2.87-2.87,2.87s-2.87-1.28-2.87-2.87"></path> <path class="cls-49" d="m79.1,23.89c0,1.58-1.28,2.87-2.87,2.87s-2.87-1.28-2.87-2.87"></path> <path class="cls-49" d="m84.84,23.89c0,1.58-1.28,2.87-2.87,2.87s-2.87-1.28-2.87-2.87"></path> <path class="cls-49" d="m89.46,26.17c-.48.37-1.09.6-1.75.6-1.58,0-2.87-1.28-2.87-2.87"></path> </g> <g> <line class="cls-49" x1="56.16" y1="44.23" x2="96.31" y2="44.23"></line> <line class="cls-49" x1="56.16" y1="46.15" x2="96.31" y2="46.15"></line> </g> <line class="cls-49" x1="50.95" y1="52.46" x2="101.52" y2="52.46"></line> <path class="cls-49" d="m81.75,16.73c0-1.52-1.23-2.76-2.76-2.76s-2.76,1.23-2.76,2.76c0-1.52-1.23-2.76-2.76-2.76s-2.76,1.23-2.76,2.76c0,3.44,5.52,5.72,5.52,5.72,0,0,5.52-2.28,5.52-5.72Z"></path> </g> </svg> 