<?xml version="1.0" encoding="UTF-8"?> <svg xmlns="http://www.w3.org/2000/svg" id="Layer_2" data-name="Layer 2" viewBox="0 0 830.03 911.31"> <defs> <style> .cls-1 { fill: #9795a4; } .cls-2 { fill: #eeeef2; } .cls-3 { fill: #736c75; } .cls-4 { fill: #ba949d; } .cls-5 { fill: #bd929d; } .cls-6 { fill: #d0b0b9; } .cls-7 { fill: #e2e0ec; } .cls-8 { fill: #fff; } .cls-9 { fill: #babcce; } .cls-10 { fill: #d4dbe4; } .cls-11 { fill: #f4f5f8; } .cls-12 { fill: #9695b2; } .cls-13 { fill: #b5b5c6; } .cls-14 { fill: #efe6ed; } .cls-15 { fill: #cab4c7; } .cls-16 { fill: #fdfefd; } .cls-17 { fill: #8d868f; } .cls-18 { fill: #9896a4; } .cls-19 { fill: #d0bdcd; } .cls-20 { fill: #f1f0f6; } .cls-21 { fill: #e6ebf0; } .cls-22 { fill: #dddcee; } .cls-23 { fill: #e1d7e3; } .cls-24 { fill: #888893; } .cls-25 { fill: #cdcadf; } .cls-26 { fill: #abb0c1; } .cls-27 { fill: #88838e; } .cls-28 { fill: #6d7790; } .cls-29 { fill: #f3f2f9; } .cls-30 { fill: #b2b1be; } .cls-31 { fill: #bfcad5; } .cls-32 { fill: #878893; } .cls-33 { fill: #dbe1e8; } .cls-34 { fill: #d4dae3; } .cls-35 { fill: #d5c8da; } .cls-36 { fill: #b8bbcb; } .cls-37 { fill: #aabbc9; } .cls-38 { fill: #aeb2c8; } .cls-39 { fill: #b7b9c7; } .cls-40 { fill: #d2d6e1; } .cls-41 { fill: #6f6e76; } .cls-42 { fill: #d5c2cb; } .cls-43 { fill: #8789a2; } .cls-44 { fill: #bec0d1; } .cls-45 { fill: #cfd7df; } .cls-46 { fill: #e0d3db; } .cls-47 { fill: #b0888f; } .cls-48 { fill: #979eac; } .cls-49 { fill: #a8abbe; } .cls-50 { fill: #f2f5f7; } .cls-51 { fill: #5c6d85; } .cls-52 { fill: #eff1f4; } .cls-53 { fill: #878691; } .cls-54 { fill: #cac9d3; } .cls-55 { fill: #978c95; } .cls-56 { fill: #d3dce7; } .cls-57 { fill: #efeff2; } .cls-58 { fill: #aeb5c7; } .cls-59 { fill: #b5b5c5; } .cls-60 { fill: #cebdcf; } .cls-61 { fill: #e8e9f3; } .cls-62 { fill: #716b74; } .cls-63 { fill: #d9e1ea; } .cls-64 { fill: #dbdfeb; } .cls-65 { fill: #fdfdfe; } .cls-66 { fill: #79737a; } .cls-67 { fill: #979eb4; } .cls-68 { fill: #b5bece; } .cls-69 { fill: #e5e9ee; } .cls-70 { fill: #977176; } .cls-71 { fill: #8c8790; } .cls-72 { fill: #d8dddc; } .cls-73 { fill: #f1f1f7; } .cls-74 { fill: #f6f8f9; } .cls-75 { fill: #9998a6; } .cls-76 { fill: #e8eaf0; } .cls-77 { fill: #858892; } .cls-78 { fill: #b9909a; } .cls-79 { fill: #dadae9; } .cls-80 { fill: #939baa; } .cls-81 { fill: #dbccd6; } .cls-82 { fill: #84696a; } .cls-83 { fill: #a07980; } .cls-84 { fill: #d2bfc8; } .cls-85 { fill: #b3bccc; } .cls-86 { fill: #927978; } .cls-87 { fill: #ececf0; } .cls-88 { fill: #ccd5df; } .cls-89 { fill: #89848e; } .cls-90 { fill: #878189; } .cls-91 { fill: #d3d5df; } .cls-92 { fill: #f5f6f8; } .cls-93 { fill: #ebe7f2; } .cls-94 { fill: #cdb6c2; } .cls-95 { fill: #f0f0f5; } .cls-96 { fill: #c3c2d5; } .cls-97 { fill: #f7f6fb; } .cls-98 { fill: #c5a2ab; } .cls-99 { fill: #727077; } .cls-100 { fill: #b99ba7; } .cls-101 { fill: #9ea0b5; } .cls-102 { fill: #aa7c85; } .cls-103 { fill: #c6a2ac; } .cls-104 { fill: #dfe7ed; } </style> </defs> <g id="clipping_mask" data-name="clipping mask"> <g> <g> <path class="cls-72" d="m383.62,442.14c-.3,1-.74,2.47-1.47,4.3-1.4,3.69-3.98,8.76-7.71,14.74-3.76,5.98-8.17,13.21-13.31,20.94-5.17,7.7-11.18,15.92-18.81,23.2-7.58,7.34-15.99,13.08-23.96,17.73-7.97,4.69-15.56,8.26-21.94,11.25-3.45,1.58-6.54,2.99-9.23,4.22-4.91,1.41-9.51,3.03-13.8,4.73-2.08.71-4.51,1.66-7.22,2.87-.41.18-.85.4-1.27.59,1.93-1.3,2.98-2.04,2.98-2.04,0,0-4.55,1.95-12.04,5.47-3.74,1.76-8.21,3.91-13.21,6.42-2.49,1.27-5.12,2.61-7.87,4.01-1.37.72-2.76,1.45-4.19,2.19-.74.4-1.57.85-2.42,1.54-.84.67-1.76,1.71-2.19,3.1l-1.49,4.83,4.7-1.91c1.38-.56,3.73-1.53,6.04-2.65,6.69-3.2,12.72-6.76,18.14-9.98,5.42-3.24,10.25-6.14,14.38-8.45.56-.31,1.1-.62,1.63-.91,6.42-2.36,13.48-4.69,21.14-6.44,6.2-1.36,12.81-2.31,19.72-2.78,6.91-.46,14.12-.49,21.51-.28,14.8.45,28.96,1.82,41.97,2.25,13,.49,24.82,0,34.62-1.48,4.9-.72,9.28-1.74,13.08-2.74,3.79-1.09,6.99-2.21,9.54-3.27,1.26-.56,2.38-1.06,3.36-1.49.95-.47,1.74-.92,2.37-1.27,1.26-.72,1.89-1.18,1.82-1.33-.33-.84-11.31,4.76-30.61,6.67-9.61,1-21.15,1.14-33.98.41-12.83-.67-26.98-2.18-42.03-2.64-7.52-.22-14.9-.11-22.02.5-2.11.18-4.19.43-6.25.71,5.23-2.19,10.99-4.83,16.99-8.14,8.31-4.56,17.16-10.42,25.14-18.14,8.04-7.69,14.03-16.44,18.9-24.52,4.85-8.13,8.7-15.63,11.96-21.96,3.24-6.36,5.32-11.83,6.3-15.7.52-1.93.78-3.46.95-4.49.14-1.04.22-1.58.22-1.58,0,0-.15.53-.42,1.54Z"></path> <g> <path class="cls-82" d="m635.72,443.9c-35.41,12.27-100.16,59.28-170.31,83.58-21.19,7.34-40.24,13.1-62.12,9.29-.19.61-.4,1.21-.58,1.82.82.75,1.65,1.49,2.48,2.23,19.94,2.96,41.02-1.04,60.38-7.74,53.96-18.69,120.77-69.12,168.48-85.65,28.37-9.83,58.85-13.14,87.96-8.39,2.98-.58,5.86-1.02,8.65-1.31-31.73-4.82-63.9-4.59-94.94,6.17Z"></path> <path class="cls-78" d="m513.45,554.97c27.87-9.66,68.87-39.26,105.59-60.22,17.72-16.27,37.79-31.64,61.86-42.45-17.86-6-53.57,3.78-69.58,9.32-12.78,4.43-25.24,9.76-37.56,15.38-25.26,14.37-51.88,30.51-77.16,42.87-32.57,27.34-24.06,49.27,16.86,35.09Z"></path> <path class="cls-47" d="m680.9,452.3c4.69-2.11,9.53-4.05,14.54-5.78,9.66-3.35,18.47-5.9,26.57-7.48-29.11-4.75-59.59-1.44-87.96,8.39-17.96,6.22-38.63,17.25-60.3,29.58,12.33-5.62,24.79-10.96,37.56-15.38,16.02-5.55,51.73-15.33,69.58-9.32Z"></path> <path class="cls-70" d="m443.63,542.2c-.32-.93-.61-1.88-.87-2.86-12.51,2.48-25.26,3.31-37.57,1.48,34.28,30.34,81.62,47.31,122.36,33.2,27.36-9.48,51.56-40.74,82.78-71.03-31.07,25.24-56.85,53.9-86.13,64.04-36.77,12.74-71.2,2.2-80.57-24.83Z"></path> <path class="cls-102" d="m513.45,554.97c-40.92,14.17-49.43-7.76-16.86-35.09-10.64,5.2-21.05,9.75-31.02,13.2-7.41,2.57-15.07,4.73-22.82,6.26.26.97.55,1.93.87,2.86,9.36,27.03,43.79,37.56,80.57,24.83,29.28-10.14,55.07-38.8,86.13-64.04,2.84-2.76,5.74-5.51,8.71-8.23-36.72,20.96-77.72,50.56-105.59,60.22Z"></path> <path class="cls-98" d="m485.54,465.1c19.42-11.02,39.04-19.28,49.19-22.8,42.42-14.7,85.66-17.13,124.11-10.85,2.62-1.49,5.24-3.02,7.86-4.58-59.31-2.45-127.43,8.04-158.79,18.9-3.49,1.21-6.94,2.49-10.37,3.83-7.37,3.71-14.98,7.76-22.49,12.11,3.44,1.28,6.94,2.4,10.5,3.38Z"></path> <path class="cls-5" d="m485.54,465.1c-3.55-.98-7.05-2.11-10.5-3.38-34.25,19.83-66.42,45.99-64.44,75.97,9.51.78,18.58-.15,27.63-2.11-2.43-1.32-4.27-3.15-5.17-5.77-8.05-23.25,21.96-47.39,52.48-64.71Z"></path> <path class="cls-86" d="m475.04,461.72c-.72-.27-1.44-.55-2.15-.83-32.5,17.25-58.84,41.99-69.59,75.88,2.47.43,4.9.72,7.3.92-1.98-29.98,30.19-56.14,64.44-75.97Z"></path> <path class="cls-94" d="m479.04,504.43c-1.49-4.29,6.91-20.52,24.32-35.61-6.05-.87-12.01-2.11-17.83-3.72-30.52,17.32-60.54,41.46-52.48,64.71.91,2.62,2.74,4.45,5.17,5.77,8.93-1.94,17.85-4.86,27.19-8.1,9.13-3.16,18.16-6.71,27.05-10.52-5.95-1.62-10.92-5.29-13.43-12.53Z"></path> <path class="cls-5" d="m670.86,433.74c-3.95-.85-7.96-1.62-12.03-2.29,2.62-1.49,5.24-3.02,7.86-4.58,21.23.88,41.33,3.42,58.22,8.19-21.68-2.01-39.22-2.38-54.04-1.32Z"></path> <path class="cls-94" d="m649.47,436.6c3.12-1.67,6.24-3.37,9.37-5.15,4.07.66,8.08,1.43,12.03,2.29-7.82.56-14.88,1.53-21.4,2.86Z"></path> <path class="cls-84" d="m622.93,445.08c-23.85-6.93-53.02-8.3-80.97,1.38-15.72,5.45-28.63,13.71-38.59,22.35-6.05-.87-12.01-2.11-17.83-3.72,19.42-11.02,39.04-19.28,49.19-22.8,42.42-14.7,85.66-17.13,124.11-10.85-3.12,1.78-6.25,3.48-9.37,5.15-9.84,2.01-18.44,4.88-26.53,8.48Z"></path> <path class="cls-15" d="m598.78,458.49c-7.67,4.96-15.57,10.54-24.37,16.64-24.43,13.69-52.39,29.18-81.94,41.82-5.95-1.62-10.92-5.29-13.43-12.53-1.49-4.29,6.91-20.52,24.32-35.61,30.97,4.45,64.47-.38,95.42-10.33Z"></path> <path class="cls-19" d="m622.93,445.08c-8.33,3.71-16.12,8.22-24.15,13.41-30.94,9.95-64.45,14.77-95.42,10.33,9.97-8.64,22.87-16.91,38.59-22.35,27.95-9.68,57.12-8.31,80.97-1.38Z"></path> <path class="cls-14" d="m598.78,458.49c8.03-5.19,15.82-9.69,24.15-13.41,8.09-3.6,16.69-6.47,26.53-8.48,6.52-1.33,13.58-2.3,21.4-2.86,14.83-1.07,32.37-.69,54.04,1.32,2.7.76,5.32,1.58,7.85,2.45-.69.05-1.4.15-2.1.22-17.61-2.68-35.35-3.79-52.96-2.42-14.12,1.1-28.16,3.8-41.98,8.58-.87.3-1.77.63-2.68.98-1.52.58-3.09,1.21-4.7,1.89-3.14,1.33-6.47,2.87-9.96,4.57-12.66,6.17-27.52,14.58-43.97,23.8,8.8-6.11,16.7-11.69,24.37-16.64Z"></path> </g> <g> <path class="cls-70" d="m467.36,306.79c-7.62,28.99-4.85,38.17-11.27,62.6-13,49.48-46.97,88.11-94.77,109.88.27-.59.53-1.2.78-1.82,34.43-15.6,74.07-50,88.2-103.79,5.56-21.17,8.72-43.41,14.26-64.5,6.96-26.49,15.73-56.08,33.61-68.79.44-.12.88-.26,1.32-.37-15.25,19.84-26.37,44.88-32.13,66.8Z"></path> <path class="cls-4" d="m401.16,368.4c-12.53,47.69,10.38,66.03,12.63,66.63,1.21.32,2.8.19,4.56-.29-11.01,12.96-23.48,23.5-36.05,31.63-10.57-3.97-6.75-18.2,1.12-48.13,3.98-15.13,8.79-30,14.37-44.56,1.71-4.01,3.46-8.05,5.28-12.1-.67,2.27-1.3,4.55-1.9,6.83Z"></path> <path class="cls-6" d="m422.24,368.71c5.47-20.84,22.93-40.39,40.5-52.18-4.47,18.85-7.51,38.4-12.43,57.12-3.13,11.91-7.51,22.87-12.81,32.88-12.46-4.37-20.81-16.68-15.26-37.82Z"></path> <path class="cls-83" d="m382.3,466.36c-6.78,4.39-13.58,8.08-20.2,11.08,1.19-2.91,2.26-6.15,3.21-9.79.69-2.63,1.32-5.27,2.01-7.91,4.54-17.27,15.33-50.51,30.45-86.07-5.57,14.56-10.39,29.42-14.37,44.56-7.86,29.93-11.68,44.17-1.12,48.13Z"></path> <path class="cls-103" d="m477.1,263.32c.79.95.78,3.5.61,5.28-5.52,12.53-9.57,26.95-13.15,40.55-.64,2.44-1.25,4.91-1.83,7.38-17.57,11.79-35.03,31.34-40.5,52.18-5.55,21.14,2.8,33.44,15.26,37.82-5.51,10.42-12.02,19.82-19.15,28.2-1.76.48-3.35.61-4.56.29-2.25-.59-25.16-18.94-12.63-66.63.6-2.28,1.24-4.56,1.9-6.83,12.61-28.17,27.76-56.82,44.51-79.36,8.27-7.9,17.35-14.85,27.87-20.07.8.21,1.32.63,1.66,1.18Z"></path> <path class="cls-4" d="m477.71,268.6c.17-1.78.18-4.33-.61-5.28-.34-.55-.86-.97-1.66-1.18-10.52,5.22-19.61,12.17-27.87,20.07,15.71-21.13,32.83-36.9,50.6-41.85-8.69,6.19-15.23,16.37-20.46,28.25Z"></path> <path class="cls-14" d="m493.6,250.99c-11.77,14.69-19.27,33.34-24.34,52.65-1.32,5.02-2.39,9.74-3.3,14.14-3.12,15.13-4.16,26.29-5.47,31.3-.16.62-.34,1.24-.52,1.85-.02-.08-.04-.15-.06-.23,1.58-10.87,2-20.08,5.25-34.77.63-2.83,1.35-5.86,2.22-9.15,4.97-18.91,13.93-40.13,26.09-58.34,1.94-2.9,3.95-5.74,6.05-8.46,1.96-.49,3.92-.82,5.9-1.04-4.35,3.6-8.26,7.64-11.79,12.04Z"></path> <path class="cls-35" d="m459.97,350.97c.53,2.03,1.08,4.01,1.63,5.97-.57,1.92-1.13,3.87-1.64,5.83-5.81,22.11-3.18,36.37,2.87,44.73-5.1,11.87-14.52,19.44-27.44,16.04-1.34-.35-2.59-.84-3.77-1.42,11.08-15.68,19.4-33.37,24.48-52.74,1.91-7.27,3-13.18,3.8-18.67.02.08.04.15.06.23h0s0,.02,0,.03Z"></path> <path class="cls-23" d="m464.81,368.89c.18.75.34,1.5.51,2.25.05.24.11.49.16.73.15.7.28,1.41.41,2.11.05.29.12.58.17.87.11.66.21,1.32.31,1.98.05.35.11.69.16,1.04.08.63.15,1.27.21,1.91.04.38.09.75.12,1.14.05.62.08,1.25.12,1.87.02.41.06.81.07,1.22.02.62.02,1.26.02,1.89,0,.42.02.84.01,1.26-.01.64-.06,1.29-.09,1.94-.02.43-.03.85-.06,1.28-.05.66-.14,1.33-.21,2-.05.44-.08.86-.14,1.3-.1.75-.25,1.52-.39,2.29-.07.37-.11.73-.19,1.1-.23,1.15-.5,2.31-.81,3.49-.64,2.43-1.43,4.76-2.36,6.94-6.06-8.35-8.68-22.62-2.87-44.73.51-1.96,1.07-3.91,1.64-5.83,1.1,3.91,2.19,7.71,3.11,11.52.03.14.07.28.11.43Z"></path> <path class="cls-100" d="m465.56,431.07c-20.78,21.22-52.43,32.92-80.73,45.35-6.46.71-15.45,4.06-26.52,8.49,1.09-1.73,2.09-3.61,3.02-5.65,11.93-5.43,22.99-11.91,33.09-19.35.45.43,1.03.75,1.77.95,12.42,3.26,45.62-7.9,69.38-29.79Z"></path> <path class="cls-15" d="m468.56,335.2c-1.07,4.09-4.21,12.49-6.96,21.74-.55-1.96-1.1-3.95-1.63-5.97,0,0,0-.02,0-.03.18-.61.36-1.23.52-1.85,1.32-5.01,2.35-16.17,5.47-31.3,1.37,3.15,2.82,6.62,4.25,10.32-.54,2.36-1.02,4.73-1.65,7.1Z"></path> <path class="cls-15" d="m462.83,407.5c2.18,3,4.79,5.24,7.62,6.81-10.33,15.19-28.2,26.88-43.98,22.74-2.12-.56-3.79-1.17-5.15-1.83,3.66-4.19,7.09-8.56,10.29-13.09,1.18.58,2.43,1.07,3.77,1.42,12.92,3.39,22.35-4.17,27.44-16.04Z"></path> <path class="cls-60" d="m477.92,398.41c-1.41,5.38-4.02,10.83-7.47,15.89-2.83-1.56-5.45-3.8-7.62-6.81.94-2.18,1.73-4.51,2.36-6.94.31-1.18.58-2.35.81-3.49.07-.37.12-.73.19-1.1.14-.77.28-1.53.39-2.29.06-.44.09-.87.14-1.3.08-.67.16-1.34.21-2,.03-.43.04-.85.06-1.28.03-.65.08-1.3.09-1.94,0-.42,0-.84-.01-1.26,0-.63,0-1.27-.02-1.89-.01-.41-.05-.81-.07-1.22-.04-.63-.06-1.25-.12-1.87-.03-.38-.08-.76-.12-1.14-.07-.64-.13-1.28-.21-1.91-.05-.35-.11-.69-.16-1.04-.1-.66-.19-1.32-.31-1.98-.05-.29-.11-.58-.17-.87-.13-.71-.26-1.41-.41-2.11-.05-.24-.11-.49-.16-.73-.16-.75-.33-1.5-.51-2.25-.03-.14-.07-.28-.11-.43-.92-3.81-2.01-7.62-3.11-11.53,2.75-9.25,5.89-17.65,6.96-21.74.62-2.37,1.11-4.74,1.65-7.1,7.44,19.17,14.58,44.56,9.31,64.62-.51,1.94-1.1,3.8-1.6,5.69Z"></path> <path class="cls-15" d="m467.08,387.16c0-.42,0-.84-.01-1.26,0,.42.02.84.01,1.26Z"></path> <path class="cls-15" d="m466.93,390.38c.03-.43.04-.85.06-1.28-.02.43-.03.85-.06,1.28Z"></path> <path class="cls-15" d="m466,397.07c.07-.37.12-.73.19-1.1-.07.37-.11.73-.19,1.1Z"></path> <path class="cls-15" d="m466.57,393.68c.06-.44.09-.87.14-1.3-.05.44-.08.86-.14,1.3Z"></path> <path class="cls-15" d="m459.96,350.94h0s0,.02,0,.03c0,0,0-.02,0-.03Z"></path> <path class="cls-15" d="m465.48,371.87c-.05-.24-.11-.49-.16-.73.05.24.11.49.16.73Z"></path> <path class="cls-15" d="m464.81,368.89c-.03-.14-.07-.28-.11-.43.03.14.07.28.11.43Z"></path> <path class="cls-15" d="m467.05,384.01c-.01-.41-.05-.81-.07-1.22.02.41.06.81.07,1.22Z"></path> <path class="cls-15" d="m466.06,374.86c-.05-.29-.11-.58-.17-.87.05.29.12.58.17.87Z"></path> <path class="cls-15" d="m466.86,380.92c-.03-.38-.09-.76-.12-1.14.04.38.09.75.12,1.14Z"></path> <path class="cls-15" d="m466.52,377.87c-.05-.35-.11-.69-.16-1.04.05.35.11.69.16,1.04Z"></path> <path class="cls-94" d="m485.6,300.58c-6.55,6.06-11.98,14.28-14.64,24.4-.27,1.04-.52,2.08-.75,3.12-1.44-3.7-2.88-7.17-4.25-10.32.91-4.4,1.98-9.12,3.3-14.14,5.07-19.3,12.57-37.96,24.34-52.65-.25,9.97-8.53,30.71-8,49.59Z"></path> <path class="cls-94" d="m470.45,414.3c1.7.94,3.47,1.64,5.26,2.11.39.1.77.19,1.16.26-3.23,5.26-7.04,10.03-11.32,14.4-23.76,21.89-56.96,33.05-69.38,29.79-.74-.19-1.32-.52-1.77-.95,9.95-7.33,18.95-15.6,26.91-24.7,1.36.66,3.04,1.27,5.15,1.83,15.78,4.14,33.65-7.55,43.98-22.74Z"></path> <path class="cls-42" d="m470.45,414.3c3.44-5.06,6.05-10.51,7.47-15.89.5-1.89,1.09-3.76,1.6-5.69,5.27-20.06-1.87-45.45-9.31-64.62.24-1.04.48-2.08.75-3.12,2.66-10.12,8.09-18.34,14.64-24.4.15,5.17.95,10.21,2.76,14.84.08,29.13,3.32,57.58-2.81,80.91-1.98,7.54-4.94,14.27-8.68,20.35-.39-.07-.77-.15-1.16-.26-1.8-.47-3.57-1.18-5.26-2.11Z"></path> <path class="cls-46" d="m488.71,299.6c-.26,5.28-.36,10.56-.34,15.82-1.81-4.62-2.61-9.64-2.76-14.8.65-.49,1.52-.83,3.1-1.02Z"></path> <path class="cls-81" d="m493.5,266.26c-2.87,10.93-4.23,22.12-4.79,33.34-1.59.19-2.45.53-3.1,1.02-.54-18.89,7.75-39.66,8-49.63,3.53-4.4,7.45-8.44,11.79-12.04,1.24-.13,2.48-.23,3.72-.25-8.07,6.81-12.76,16.7-15.61,27.57Z"></path> </g> </g> <g> <path class="cls-55" d="m568.28,821.15c-.1-1.21-.29-3-.72-5.28-.8-4.55-2.5-11.15-6.16-18.69-3.66-7.52-9.25-15.99-17.02-23.96-7.73-8.03-17.59-15.44-28.66-21.75-11.07-6.33-22.14-11.15-32.24-15.29-1.96-.78-3.89-1.56-5.76-2.32,6.82.52,13.75,1,20.73,1.45,32,2.04,62.67,2.89,90.72,2.47,8.16,1.23,16.96,2.91,26.05,5.28,9.66,2.62,18.71,5.65,26.85,8.74,4.04,1.67,7.91,3.12,11.41,4.78,1.78.81,3.52,1.51,5.14,2.31,1.62.8,3.18,1.57,4.65,2.29,3.01,1.4,5.6,2.93,7.94,4.14,2.34,1.21,4.31,2.38,5.92,3.33,3.22,1.89,5.02,2.92,5.02,2.92,0,0-1.6-1.33-4.49-3.7-1.43-1.21-3.22-2.64-5.4-4.18-2.16-1.55-4.58-3.42-7.45-5.19-1.41-.89-2.91-1.84-4.45-2.83-1.56-.97-3.24-1.87-4.98-2.85-3.41-2.04-7.23-3.84-11.26-5.81-8.11-3.71-17.34-7.23-27.31-9.91-.15-.03-.3-.07-.46-.1,19.95-.95,38.14-2.76,53.93-5.78,10.89-2.07,20.62-4.56,28.96-7.35,8.34-2.84,15.38-5.66,20.92-8.44,2.81-1.28,5.19-2.68,7.26-3.82,2.11-1.11,3.8-2.19,5.16-3.1,2.72-1.8,4.09-2.81,3.98-2.98-.27-.47-6.15,2.98-17.4,7.71-5.59,2.42-12.66,4.86-20.94,7.35-8.3,2.42-17.94,4.58-28.67,6.33-21.52,3.57-47.56,4.93-76.52,5.14-1.09,0-2.18.02-3.29.02-.53-.07-1.03-.11-1.54-.17-4.45-.37-8.68-.76-12.66-.78-2-.03-3.9-.14-5.74-.1-1.85.05-3.6.1-5.3.16-2.88.14-5.51.32-7.88.55-.02.02-.07.02-.09.01-18.5-.46-37.83-1.33-57.7-2.59-14.29-.89-28.28-1.91-41.89-2.99-.21-.08-.43-.15-.65-.21-1.54-.48-3.03-.89-4.47-1.26,10.03-.48,21.82-1.82,34.13-4.69,8.96-2.1,17.33-4.5,24.9-7.4,7.52-2.91,14.04-6.57,18.79-10.59,4.84-4,7.73-8.33,9.12-11.52.33-.79.61-1.53.84-2.13.19-.65.32-1.22.4-1.65.16-.9.14-1.41-.06-1.47-.19-.08-.58.26-1.1.97-.25.36-.56.82-.89,1.35-.37.5-.8,1.09-1.28,1.74-1.9,2.57-4.98,6.05-9.69,9.26-4.66,3.26-10.84,6.25-18.1,8.74-7.24,2.47-15.62,4.68-24.33,6.71-17.47,4.08-33.61,6.46-45.42,7.77-5.9.69-10.7,1.05-14.01,1.33-.94.08-1.77.14-2.46.2-6.08-.55-12.08-1.09-17.94-1.59-14.46-1.28-28.18-2.53-41.05-3.66-12.85-1.13-24.81-2.29-35.66-3.66-21.76-2.66-39.05-6.64-50.76-10.27-.22-.06-.41-.12-.63-.19-4.51-2.1-9.32-4.63-14.29-7.62l-9.09-5.5,5.63,9.19c.2.31.39.63.65.96.93,1.36,2.17,2.75,3.67,3.99,1.85,1.55,4.07,2.84,6.49,3.93,4.84,2.2,10.23,3.51,15.68,4.74,5.49,1.23,10.84,2.58,16.04,3.57,5.27.72,10.34,1.41,15.19,2.08,9.63,1.17,18.23,2.06,25.59,2.69,7.03.6,12.93.45,17.02-.19,1.34.16,2.68.31,4.02.47,12.84,1.46,26.55,3.01,40.99,4.65,17.85,1.92,36.82,3.88,56.63,5.59,6.12,2.55,12.96,5.67,20.38,8.9,9.89,4.41,20.7,9.3,31.4,15.42,10.73,6.12,20.32,12.87,28.08,20.12,7.82,7.19,13.74,14.81,17.96,21.71,4.18,6.92,6.55,13.11,7.93,17.46.71,2.17,1.12,3.91,1.38,5.09.3,1.18.45,1.79.45,1.79,0,0-.06-.63-.18-1.84Z"></path> <g> <path class="cls-91" d="m615.9,655.47c2.07-1.44,4.28-2.68,6.35-4.13,14.75-10.27,31.34-26.91,47.16-45.59-4.98,4.36-10.19,8.42-15.59,12.18-9.78,6.81-17.6,8.55-28.86,15.43,4.62-10.14,8.12-21.52,12.38-33.3-6.44,11.84-13.14,21.79-14.5,22.73-.51.36-1.09.44-1.61.8,0,0-3.91,6.91-10.99,11.84-3.63,2.53-8.71,4.89-13.11,6.69,16.18-15.86,28.45-44.65,34.61-61.37-8.68,12.29-18.3,26.15-19.34,26.88-1.12.78-11.27,15.03-17.65,19.47-6.71,4.67-14.66,7.92-21.38,12.61-1.24.86-2.39,1.84-3.5,2.85,10.3-17.37,25.6-35.94,37.26-49.01-23.62,17.44-50.68,46.32-63.24,67.77,5.21-18.41,19.47-46.08,39.12-68-35.54,29.91-45.51,57.18-53.22,80.24-.23-3.51.01-6.08.47-8.35,5.21-20.5,19.47-58.03,49.68-84.18-5.33,2.51-10.5,5.3-15.17,8.55-20.06,13.98-38.26,44.52-48.98,72.19-1.57,4.05-2.99,8.05-4.22,11.92-.62,11.11-1,23.13-1.79,36.14,4.48,1.59,9,3.06,13.56,4.36,15.02-4.3,31.7-12.33,52.78-27.02,17.48-12.18,39.48-31.51,39.76-31.7Z"></path> <path class="cls-59" d="m653.81,617.93c5.4-3.76,10.61-7.82,15.59-12.18,17.84-21.05,34.7-44.68,46.8-64.83,1.3-2.94,2.64-5.87,4.05-8.77-1.26.77-2.55,1.43-3.82,2.16-7.29,12.23-29.6,31.93-31.52,33.27-1.46,1.02-7.2,4.49-12.13,6.7,5.62-4.83,10.5-10.67,14.97-16.86-3.89,2.25-8.03,4.16-11.7,6.72-4.66,3.25-8.37,7.75-12.93,10.93-1.25.87-3.16,1.68-5.17,2.11,3.85-3.89,7.78-9.33,11.31-14.55-8.23,3.91-18.11,7.57-19.74,8.49-.79.45-1.73.67-2.71.85.62-.7,1.23-1.36,1.85-2.08.34-.39.77-.71,1.22-1.03.22-.15.44-.3.66-.45.73-.51,8.37-8.71,12.65-14.01-6.03,1.4-11.96,2.57-17.71,3.57,0,0-.01,0-.02.01-3.63,2.53-7.25,8.64-7.42,8.76-.55.38-1.19.54-1.88,1.03,0,0-1.56,5.18-4.43,12.97-6.17,16.72-18.44,45.51-34.61,61.37,4.4-1.81,9.48-4.17,13.11-6.69,7.08-4.93,10.99-11.84,10.99-11.84.52-.36,1.1-.44,1.61-.8,1.35-.94,8.05-10.89,14.5-22.73-4.27,11.78-7.77,23.16-12.38,33.3,11.25-6.88,19.08-8.61,28.86-15.43Z"></path> <path class="cls-75" d="m672.8,574.29c4.93-2.2,10.67-5.68,12.13-6.7,1.92-1.34,24.23-21.04,31.52-33.27-17.26,9.9-35.65,16.04-53.23,20.1-4.28,5.29-11.92,13.5-12.65,14.01-.22.15-.44.3-.66.45-.45.31-.88.64-1.22,1.03-.62.71-1.23,1.38-1.85,2.08.97-.18,1.91-.4,2.71-.85,1.63-.92,11.51-4.58,19.74-8.49-3.53,5.22-7.46,10.66-11.31,14.55,2-.44,3.92-1.24,5.17-2.11,4.56-3.18,8.27-7.68,12.93-10.93,3.68-2.56,7.82-4.47,11.7-6.72-4.47,6.19-9.35,12.03-14.97,16.86Z"></path> <path class="cls-59" d="m583.02,593.32c-19.65,21.92-33.91,49.59-39.12,68,12.56-21.45,39.61-50.33,63.24-67.77-11.66,13.08-26.96,31.65-37.26,49.01,1.11-1.01,2.26-1.98,3.5-2.85,6.72-4.69,14.67-7.93,21.38-12.61,6.37-4.44,16.52-18.68,17.65-19.47,1.04-.72,10.66-14.59,19.34-26.88,2.87-7.79,4.43-12.97,4.43-12.97.7-.49,1.34-.65,1.88-1.03.17-.12,3.79-6.23,7.42-8.76,0,0,.01,0,.02-.01-29.09,5.07-53.57,6.05-62.91,12.55-11.17,7.78-24.69,13.84-36.48,22.06-26.66,18.57-32.02,43.07-34.19,75.7-.12,1.78-.23,3.56-.33,5.39,1.23-3.87,2.65-7.86,4.22-11.92,10.72-27.67,28.92-58.21,48.98-72.19,4.67-3.25,9.84-6.04,15.17-8.55-30.21,26.15-44.46,63.68-49.68,84.18-.46,2.26-.71,4.84-.47,8.35,7.71-23.06,17.68-50.33,53.22-80.24Z"></path> <path class="cls-27" d="m716.21,540.92c-22.84,38.02-62.6,88.56-93.96,110.42-2.07,1.44-4.28,2.69-6.35,4.13-.12.08-4.38,3.81-10.59,9,16-1.66,31.94-5.31,44.36-13.96,18.79-13.09,23.24-35.14,25.15-40.91-1.77,23.04-15.23,37.88-31.25,49.04-7.17,5-13.05,8.65-17.89,11.39,9.06-.5,17.99-5.63,28.35-12.85.49-.34.92-.71,1.38-1.07-3.71,4.13-8.43,8.46-14.94,12.99-7.89,5.5-21.48,12.25-34.27,16.78,9.37-.21,18.19-2.53,26.41-5.83-8.61,4.8-16.69,8.09-24.16,10.29,5.56.04,11.45-.78,16.72-1.83-11.55,4.78-30.26,9.82-50.99,11.79,14.05,1.81,31.07,2.35,47.37.93.69-.46,1.38-.87,2.07-1.35,60.33-42.03,68.46-104.46,92.6-158.94Z"></path> <path class="cls-62" d="m553.99,701.12c-11.3,6.27-21.29,10.4-30.64,13.07,31.08,8.9,63.9,9.98,98.18-12.97-16.29,1.41-33.32.88-47.37-.93,20.73-1.97,39.44-7.01,50.99-11.79-5.26,1.05-11.15,1.88-16.72,1.83,7.47-2.2,15.55-5.49,24.16-10.29-8.22,3.29-17.04,5.61-26.41,5.83,12.79-4.53,26.38-11.29,34.27-16.78,6.51-4.54,11.23-8.87,14.94-12.99-.46.36-.9.73-1.38,1.07-10.36,7.22-19.29,12.35-28.35,12.85,4.84-2.74,10.72-6.39,17.89-11.39,16.02-11.16,29.48-26,31.25-49.04-1.91,5.77-6.37,27.82-25.15,40.91-12.41,8.65-28.35,12.3-44.36,13.96-8.03,6.7-19.32,15.84-29.17,22.7-3.15,2.19-6.19,4.22-9.15,6.13-4.52,2.91-8.85,5.52-12.99,7.82Z"></path> </g> <g> <path class="cls-1" d="m803.61,663.78c-1.22.62-2.63,1.39-4.06,2.28-12.61,2.75-66.09,43.39-84.86,51.29-.74-.43-1.48-.88-2.19-1.37,8.15-11.85,26.06-28.87,46.65-41.16-2.1,1.84-3.97,3.65-5.56,5.28,6.28-4.73,14.09-7.8,18.07-8.49-4.09,1.83-7.05,5.17-8.55,8.33,3.15-4.12,7.79-6.45,12.24-8.05-1.13,1.29-1.69,2.85-2.25,4.29,4.62-3.75,10.53-8.58,10.89-8.67,1.24-.29,2.46-.62,3.66-.99-.87,1.05-1.6,2.29-2.12,3.3,8.14-4.74,14.48-5.8,18.09-6.04Z"></path> <path class="cls-39" d="m830.03,663.04c-.33.2-.66.41-.99.63-15.46-2.11-26.92,2.62-26.92,2.62-.28-.06-.56-.27-.85-.33-.44-.09-1.02-.05-1.71.1,1.43-.89,2.84-1.67,4.06-2.28-3.6.25-9.95,1.3-18.09,6.04.53-1,1.26-2.24,2.12-3.3-1.2.37-2.42.7-3.66.99-.35.08-6.26,4.91-10.89,8.67.57-1.44,1.12-3,2.25-4.29-4.45,1.6-9.09,3.93-12.24,8.05,1.5-3.16,4.45-6.49,8.55-8.33-3.97.69-11.78,3.76-18.07,8.49,1.59-1.63,3.45-3.44,5.56-5.28,18.45-11.01,39.06-18.21,56.74-14.45,1.86.4,3.73.82,5.61,1.22,2.8.6,5.64,1.13,8.53,1.44Z"></path> <path class="cls-89" d="m829.03,663.68c-10.27,6.69-22.6,20.81-37.09,33.63-8.5,7.52-17.74,14.59-27.75,19.45-.41.2-.83.39-1.24.58-5.38,1.73-11.34,2.71-17.07,1.49-2.47-.53-3.58-1.25-4.8-2.19,14.25,2.4,22.02-6.8,30.22-8.78-10.05-1.46-14.28,6.17-21.89,4.55-.95-.2-1.89-.48-2.81-.82,15.31,1.71,21.02-10.59,28.36-11.77-.92-.48-1.53-.81-1.61-.83-3.04-.65-8.62,3.27-14.09,5.34,6.9-4.12,16.27-11.79,23.79-11.95-.75-.3-1.48-.56-2.19-.71-2.87-.61-5.99.39-9.27,1.83,4.29-4.46,8.31-10.48,15.15-12.17-2.48-.11-5.08.33-7.46,2.36-2.01,1.71-3.84,3.04-5.51,4.08,4.01-4.06,6.38-9.78,10.61-14.08,3.11-1.88,5.94-3.51,8.38-4.78.38-.2.74-.38,1.11-.56,3.49-1.74,6.09-2.65,7.41-2.37.29.06.56.27.85.33,0,0,11.46-4.73,26.92-2.62Z"></path> <path class="cls-3" d="m773.77,687.74c1.67-1.04,3.5-2.37,5.51-4.08,2.38-2.03,4.98-2.47,7.46-2.36-6.84,1.69-10.86,7.71-15.15,12.17,3.29-1.44,6.41-2.44,9.27-1.83.71.15,1.44.41,2.19.71-7.52.16-16.89,7.83-23.79,11.95,5.47-2.07,11.05-5.99,14.09-5.34.08.02.69.35,1.61.83-7.34,1.18-13.05,13.47-28.36,11.77.92.35,1.86.62,2.81.82,7.61,1.62,11.84-6.01,21.89-4.55-8.19,1.99-15.96,11.18-30.22,8.78,1.22.94,2.33,1.67,4.8,2.19,5.73,1.22,11.69.24,17.07-1.49-11.08,5.14-23.09,7.52-36.05,4.77-4.22-.9-8.35-2.48-12.22-4.74,14.25-6,48.49-30.86,69.69-43.69-4.23,4.3-6.6,10.01-10.61,14.08Z"></path> </g> <g> <path class="cls-91" d="m714,770.07c1.64.74,3.36,1.32,5.01,2.05,11.73,5.26,25.61,14.74,39.21,25.75-4.08-2.4-8.28-4.56-12.58-6.48-7.78-3.49-13.51-3.66-22.33-7,4.6,6.51,8.57,14.04,13.14,21.75-6.11-7.46-12.14-13.56-13.22-14.04-.41-.18-.83-.16-1.24-.35,0,0-3.67-4.33-9.3-6.86-2.88-1.29-6.77-2.27-10.1-2.96,13.48,8.99,25.94,27.59,32.5,38.52-7.73-7.48-16.34-15.94-17.17-16.31-.89-.4-9.92-9.06-14.99-11.33-5.34-2.39-11.36-3.62-16.71-6.01-.99-.44-1.92-.97-2.84-1.53,9.55,10.83,22.78,21.84,32.71,29.48-18.92-9.11-41.79-25.8-53.47-39.2,6.11,12.24,19.82,29.79,36.55,42.57-28.96-16.28-39.6-34.12-48.09-49.3.3,2.5.82,4.27,1.44,5.8,6.4,13.71,21.41,38.19,46.12,52.54-4.08-1.05-8.08-2.32-11.8-3.99-15.96-7.15-32.82-26.19-44.04-44.21-1.64-2.64-3.17-5.26-4.55-7.81-1.92-7.73-3.78-16.12-6.08-25.16,2.94-1.71,5.92-3.35,8.95-4.87,11.13,1.02,23.92,4.44,40.69,11.96,13.91,6.23,31.94,16.88,32.17,16.98Z"></path> <path class="cls-59" d="m745.64,791.39c4.3,1.92,8.5,4.08,12.58,6.48,15.34,12.41,30.34,26.78,41.53,39.32,1.31,1.9,2.64,3.77,4.02,5.62-.99-.37-1.98-.67-2.97-1.01-6.75-7.62-25.05-18.49-26.58-19.18-1.16-.52-5.66-2.2-9.41-3.09,4.59,2.65,8.8,6.1,12.76,9.85-3.03-1.06-6.2-1.85-9.12-3.16-3.71-1.66-6.92-4.33-10.54-5.96-1-.45-2.45-.76-3.91-.8,3.23,2.22,6.71,5.52,9.89,8.72-6.31-1.65-13.74-2.91-15.01-3.34-.62-.21-1.31-.24-2.01-.24.53.41,1.05.79,1.58,1.21.29.23.64.4,1,.56.17.08.35.15.52.23.58.26,7.04,5.01,10.76,8.16-4.42-.18-8.75-.21-12.92-.15,0,0-.01,0-.02,0-2.89-1.29-6.24-5.1-6.38-5.17-.44-.2-.91-.22-1.46-.47,0,0-1.78-3.43-4.84-8.53-6.56-10.93-19.02-29.53-32.5-38.52,3.33.69,7.22,1.67,10.1,2.96,5.63,2.52,9.3,6.86,9.3,6.86.41.18.83.17,1.24.35,1.08.48,7.11,6.58,13.22,14.04-4.57-7.71-8.54-15.24-13.14-21.75,8.82,3.34,14.55,3.51,22.33,7Z"></path> <path class="cls-75" d="m764.8,819.54c3.75.89,8.25,2.57,9.41,3.09,1.53.69,19.83,11.56,26.58,19.18-13.45-4.66-27.19-6.52-40.09-7.04-3.71-3.15-10.18-7.9-10.76-8.16-.17-.08-.35-.15-.52-.23-.36-.16-.71-.33-1-.56-.53-.42-1.05-.8-1.58-1.21.71,0,1.4.03,2.01.24,1.27.43,8.7,1.69,15.01,3.34-3.18-3.2-6.66-6.5-9.89-8.72,1.47.04,2.92.35,3.91.8,3.63,1.62,6.83,4.3,10.54,5.96,2.92,1.31,6.09,2.1,9.12,3.16-3.96-3.76-8.17-7.21-12.76-9.85Z"></path> <path class="cls-59" d="m699.17,818.12c-16.73-12.79-30.44-30.33-36.55-42.57,11.68,13.4,34.54,30.09,53.47,39.2-9.93-7.64-23.16-18.65-32.71-29.48.91.56,1.85,1.09,2.84,1.53,5.35,2.4,11.37,3.62,16.71,6.01,5.07,2.27,14.1,10.93,14.99,11.33.82.37,9.44,8.83,17.17,16.31,3.06,5.09,4.84,8.53,4.84,8.53.56.25,1.02.28,1.46.47.14.06,3.49,3.87,6.38,5.17,0,0,.01,0,.02,0-21.12.31-38.45,2.89-45.88-.44-8.89-3.98-19.2-6.44-28.58-10.64-21.21-9.5-28.24-26-34.11-48.64-.32-1.23-.64-2.47-.95-3.74,1.38,2.56,2.91,5.17,4.55,7.81,11.22,18.02,28.08,37.06,44.04,44.21,3.72,1.66,7.72,2.94,11.8,3.99-24.71-14.35-39.73-38.82-46.12-52.54-.62-1.53-1.14-3.31-1.44-5.8,8.49,15.18,19.13,33.01,48.09,49.3Z"></path> <path class="cls-27" d="m799.75,837.2c-21.11-23.67-55.79-53.9-80.74-65.08-1.65-.74-3.36-1.32-5.01-2.05-.1-.04-3.59-2.1-8.64-4.91,11.47-.97,23.16-.52,33.03,3.9,14.95,6.7,21.01,21.6,23.13,25.4-4.31-15.95-15.75-24.59-28.49-30.3-5.71-2.56-10.32-4.34-14.09-5.62,6.44-.86,13.39,1.56,21.64,5.26.39.17.74.38,1.11.57-3.16-2.41-7.05-4.82-12.23-7.14-6.28-2.81-16.73-5.75-26.32-7.23,6.61-1.1,13.12-.64,19.34.58-6.69-2.22-12.81-3.46-18.35-4.01,3.9-.77,8.15-.98,11.99-.94-8.75-1.82-22.57-2.87-37.4-1.49,9.63-3.14,21.52-5.79,33.16-6.97.55.23,1.09.43,1.64.68,48,21.5,62.02,64.29,86.24,99.36Z"></path> <path class="cls-62" d="m664.41,746.23c-8.77-2.9-16.35-4.47-23.27-5.11,20.66-10.39,43.57-15.53,70.73-3.96-11.64,1.18-23.53,3.82-33.16,6.97,14.83-1.38,28.65-.33,37.4,1.49-3.84-.04-8.09.17-11.99.94,5.54.55,11.66,1.79,18.35,4.01-6.21-1.22-12.72-1.68-19.34-.58,9.59,1.48,20.04,4.42,26.32,7.23,5.18,2.32,9.07,4.73,12.23,7.14-.37-.19-.73-.4-1.11-.57-8.24-3.69-15.2-6.11-21.64-5.26,3.77,1.28,8.39,3.06,14.09,5.62,12.74,5.71,24.18,14.34,28.49,30.3-2.11-3.8-8.18-18.7-23.13-25.4-9.88-4.42-21.57-4.87-33.03-3.9-6.53-3.64-15.68-8.56-23.52-12.07-2.51-1.12-4.91-2.14-7.25-3.09-3.57-1.44-6.95-2.7-10.17-3.76Z"></path> </g> <g> <path class="cls-54" d="m594.29,863.93c-13.07-19.08-32.97-30.17-45.32-35.58,14.25,15.46,28.63,35.52,33.79,43.34-38.17-47.08-53.64-31.21-65.01-56.81-.08-.19-.17-.41-.26-.61.3,2.58.96,5.35,2.22,8.19,5.95,13.39,16.88,28.47,31.56,40.12-20.16-9.68-31.95-22.52-38.78-37.91-2.17-4.89-4.01-9.88-5.51-14.68,1.03,6.53,3.09,14.4,7.91,25.27.72,1.63,4.18,9.07,7.44,14.17-7.88-8.27-17.21-20.27-24.05-35.66-3.95-8.89-7.3-18.07-11.14-27.03,1.74,10.61,5.07,26.62,10.71,39.32,3.08,6.93,7.84,14.14,13.37,21.12-9.3-7.4-16.61-15.73-20.87-25.32-3.54-7.98-24.66-64.69-23.29-88.32,19.39,24.15,63.65,54.75,106.03,88.82,3.68,4.87,6.86,9.81,8.91,14.41,1.91,4.3,3.19,8.89,5.1,13.19.07.16,3.45,6.31,7.19,13.99Z"></path> <path class="cls-17" d="m642.47,903.91c-11.35-4.64-24.4-9.15-38.03-13.87-2.16-3.47-5.11-6.87-8.25-9.89,8.84,2.22,25.16,10.26,30.99,14.53-4.32-4.03-15.13-13.5-29.47-21.93,12.74,4.3,30.19,11.82,39.93,20.19-6.35-12.4-12.28-18.2-17.27-21.13,4.13,1.29,8.17,3.21,12.04,5.47,3.01,3.06,5.92,6.06,8.7,8.97,6.83,8.27,12.79,16.63,17.55,25.04h0c-4.82-2.53-10.28-4.98-16.18-7.39Z"></path> <path class="cls-66" d="m530.4,750.9c.26.29.48.61.63.97.26.57,5.25,2.48,5.4,2.82,0,0,19.97,9.24,20.05,9.28,0,0,.63.57,1.57,1.42-10.43-4.2-16.61-4.26-21.71-3.97,7.05,10.9,31.72,16.26,41.56,29.96-7.38-5.41-21.2-7.22-32.54-9.45,10.15,7.99,19.89,20.36,29.88,31.44-17.95-11.95-37.79-28.96-53.77-31.27-23.1-18-43.05-34.39-54.42-48.56.11-1.95.36-3.7.8-5.15,18.45,1.89,58.63,9.56,96.47,29.16-13.27-3.48-25.09-5.48-33.93-6.64Z"></path> <path class="cls-30" d="m638.38,830.67c-1.53-1.41-3.54-3.01-5.79-4.62-7.76-8.9-19.34-22.1-30.07-30.79,7.97,3.09,16.41,8.14,23.2,13.18,4.76,6.71,8.98,13.92,12.45,21.72.08.17.15.34.22.51Z"></path> <path class="cls-30" d="m639.89,834.22c.88,2.15,1.68,4.22,2.39,6.21-6.61-7.72-15.55-15.23-29.01-23.9,4.25.12,12.76,4.82,19.32,9.51,2.25,1.61,4.26,3.21,5.79,4.62.53,1.21,1.03,2.39,1.51,3.55Z"></path> <path class="cls-71" d="m632.59,826.05c-6.56-4.7-15.07-9.39-19.32-9.51,13.47,8.67,22.41,16.18,29.01,23.9.13.35.22.68.35,1.03-9.04-3.47-17.5-5.48-23.37-6.38,9.05,1.97,16.33,6.15,21.16,17.02.42.94.82,1.77,1.21,2.64.53,1.19,1.28,3.23,2.08,5.45-1.89-1.78-4.2-3.75-6.44-5.45-.39-.42-.91-.8-1.57-1.15-1.35-.71-3.12-1.28-4.87-1.68,5.06,3.28,9.84,9.55,12.68,15.96.31.71.6,1.43.89,2.15-3.33-2.96-7.37-5.85-11.41-6.98,2.92,1.7,6.06,4.33,8.1,8.92.73,1.64,2.34,5.03,4.13,7.62-6.84-2-11.76-4.06-15.34-6.08-30.72-32.82-73.22-64-108.4-91.43,15.98,2.31,35.82,19.32,53.77,31.27-9.99-11.08-19.73-23.45-29.88-31.44,11.34,2.23,25.15,4.04,32.54,9.45-9.84-13.69-34.51-19.06-41.56-29.96,5.1-.28,11.28-.22,21.71,3.97-.94-.85-1.57-1.41-1.57-1.41-.08-.04-20.05-9.28-20.05-9.28-.15-.34-5.14-2.25-5.4-2.82-.16-.36-.37-.68-.63-.97,8.84,1.16,20.66,3.16,33.93,6.64,23.19,12.01,45.48,28.51,61.38,50.9-6.79-5.04-15.22-10.09-23.2-13.18,10.74,8.69,22.32,21.89,30.07,30.79Z"></path> <path class="cls-30" d="m658.65,911.3c-7.21-12.76-17.15-25.39-28.76-37.79,3.58,2.02,8.5,4.08,15.34,6.08-1.79-2.59-3.4-5.98-4.13-7.62-2.04-4.59-5.18-7.22-8.1-8.92,4.04,1.13,8.07,4.02,11.41,6.98-.29-.72-.58-1.44-.89-2.15-2.85-6.41-7.62-12.68-12.68-15.96,1.76.41,3.52.97,4.87,1.68.52.36,1.04.75,1.57,1.15,2.24,1.7,4.54,3.67,6.44,5.45-.8-2.22-1.55-4.25-2.08-5.45-.39-.88-.8-1.71-1.21-2.64-4.83-10.87-12.11-15.05-21.16-17.02,5.86.9,14.33,2.91,23.37,6.38,9.45,27.17,4.39,41.32,16.02,69.83Z"></path> <path class="cls-54" d="m632.4,877.29c.67.39,1.34.77,2,1.18,2.32,2.59,4.55,5.19,6.7,7.8-2.77-2.91-5.68-5.92-8.7-8.97Z"></path> <path class="cls-54" d="m576.83,827.64c-1.17-1.77-2.41-3.54-3.74-5.31,22.26,17.89,43.98,36.75,61.31,56.13-.66-.41-1.33-.79-2-1.18-17.59-17.85-38.6-37.39-55.57-49.65Z"></path> <path class="cls-18" d="m620.36,871.82c5,2.93,10.92,8.72,17.27,21.13-9.74-8.38-27.19-15.89-39.93-20.19,14.34,8.43,25.15,17.9,29.47,21.93-5.82-4.28-22.14-12.31-30.99-14.53,3.14,3.02,6.09,6.42,8.25,9.89-33.14-11.46-69.65-24.13-93.22-42.88-5.53-6.98-10.3-14.19-13.37-21.12-5.64-12.7-8.97-28.7-10.71-39.32,3.84,8.96,7.19,18.14,11.14,27.03,6.84,15.39,16.17,27.39,24.05,35.66-3.26-5.09-6.72-12.54-7.44-14.17-4.82-10.86-6.88-18.73-7.91-25.27,1.5,4.79,3.34,9.79,5.51,14.68,6.83,15.39,18.62,28.23,38.78,37.91-14.67-11.65-25.61-26.73-31.56-40.12-1.26-2.84-1.91-5.61-2.22-8.19.09.2.17.42.26.61,11.16,25.12,26.28,10.35,62.91,54.28.7.84,1.38,1.65,2.1,2.53-.47-.71-1.03-1.55-1.65-2.44-6.14-9-19.19-26.83-32.14-40.89,12.35,5.41,32.25,16.5,45.32,35.58-3.75-7.68-7.12-13.83-7.19-13.99-1.91-4.3-3.19-8.89-5.1-13.19-1.3-2.93-3.1-6-5.16-9.1,16.97,12.26,37.98,31.8,55.57,49.65-3.88-2.26-7.91-4.17-12.04-5.47Z"></path> </g> </g> <g> <path class="cls-90" d="m287.57,123.2c-.64.04-2.49,7.55-5.23,21.12-1.51,7.59-3.33,17.11-5.24,28.26-.66-.67-1.27-1.24-1.68-1.72-.88-.92-1.37-1.41-1.37-1.41,0,0,.39.55,1.12,1.6.41.66,1.06,1.47,1.75,2.5v.03c-1.46,8.46-3,17.87-4.54,28.12-3.63,24.21-7.19,53.02-8.53,84.8-1.31,31.71.04,66.41,6.49,101.46,6.45,35.05,17.04,67.09,29.36,94.95,9.39,21.16,19.59,40.05,29.84,56.21-7.82-8.63-16.12-17.76-24.79-27.14-12.16-13.17-23.88-25.72-35.56-36.42-11.55-10.77-23.11-19.63-33.5-26.37-10.46-6.72-19.7-11.27-26.39-14.03-3.26-1.51-5.97-2.39-7.75-3.09-1.39-.52-2.27-.84-2.58-.95.35.16,1.15.59,2.41,1.2,1.63.85,4.2,1.95,7.22,3.7,6.2,3.27,14.76,8.44,24.41,15.67,9.59,7.28,20.26,16.59,31.15,27.69,10.98,10.99,22.26,23.72,34.43,36.92,15.38,16.7,29.99,32.28,42.83,45.76,2.87-2.21,5.74-4.43,8.61-6.64-3.72-3.7-7.16-7.2-10.24-10.42-11.03-18.28-22.16-40.35-32.35-65.39-4.65-11.44-9.02-23.52-13.03-36.19-.6-5.33-.91-11.24-.33-17.64.45-4.89,1.32-10.07,3.17-15.38,1.63-5.34,4.17-10.82,7.17-16.34,6.14-11.06,13.7-21.26,20.85-30.52,7.12-9.25,13.67-17.63,18.81-24.84,5.22-7.18,8.85-13.22,11.31-17.36,2-3.67,3.18-5.94,3.45-6.45-.32.43-1.87,2.58-4.41,6.12-3.03,3.94-7.41,9.62-13.31,16.42-5.83,6.81-13.03,14.77-20.79,23.89-7.76,9.09-15.97,19.45-22.53,31.19-5.33,9.57-8.68,19.36-9.95,28.3-3.03-11.46-5.71-23.34-7.94-35.55-2.83-15.31-4.7-30.53-5.84-45.46.16-2.13.39-4.44.67-6.86.99-8.89,3.03-19.54,5.82-31.44,2.75-11.9,6.26-25.04,9.3-38.93,3-13.91,4.64-27.23,4.48-39.11-.16-11.88-2-22.31-5.08-30.45-2.22-5.93-4.85-10.75-7.37-14.35,1.71-13.91,3.14-25.55,4.22-34.53,1.57-13.48,2.17-20.92,1.49-20.9Zm-1.93,71.07c2.13,8.21,2.97,18.5,2.47,30.1-.53,11.64-2.59,24.6-5.53,38.29-2.97,13.7-6.32,26.88-8.73,38.91-.47,2.21-.87,4.38-1.27,6.52-.1-7.76-.07-15.41.13-22.88.83-31.38,3.67-59.98,6.4-84.02.83-6.77,1.62-13.2,2.34-19.2,1.52,3.42,3.01,7.51,4.19,12.28Z"></path> <g> <path class="cls-40" d="m298.12,82.48c.48-1.36.86-2.73,1.34-4.08,3.43-9.68,9.7-21.97,17-34.47-1.58,3.51-3,7.05-4.25,10.6-2.28,6.42-2.34,10.52-4.51,17.64,4.35-4.95,9.39-9.71,14.55-14.95-4.98,6.26-9.03,12.12-9.35,13.01-.12.34-.1.63-.22.97,0,0-2.89,3.72-4.54,8.37-.84,2.38-1.47,5.39-1.9,7.93,5.94-11.89,18.36-25.54,25.67-33.02-4.97,7.42-10.6,15.72-10.84,16.4-.26.74-6.02,9.38-7.5,13.56-1.56,4.4-2.33,8.99-3.9,13.4-.29.81-.64,1.62-1.01,2.41,7.22-9.58,14.52-21.81,19.58-30.83-5.96,15.77-17.01,36.3-25.94,48.06,8.2-7.51,19.91-21.77,28.37-36.94-10.71,24.74-22.64,36.91-32.8,46.86,1.68-.86,2.88-1.69,3.9-2.53,9.19-8.09,25.56-25.08,35-46.31-.67,3.16-1.49,6.33-2.58,9.39-4.67,13.16-17.35,30.05-29.4,42.67-1.77,1.85-3.52,3.61-5.23,5.25-5.19,3.36-10.84,6.86-16.91,10.83-1.18-1.64-2.31-3.33-3.37-5.08.58-8.15,2.77-18.1,7.68-31.94,4.07-11.47,11.09-27.02,11.15-27.2Z"></path> <path class="cls-85" d="m312.21,54.53c1.26-3.54,2.67-7.08,4.25-10.6,8.23-14.09,17.78-28.45,26.13-39.63,1.27-1.42,2.52-2.85,3.75-4.3-.24.8-.43,1.58-.65,2.37-5.08,6.76-12.24,22.55-12.69,23.81-.34.96-1.43,4.58-2,7.47,1.74-3.94,4.03-7.82,6.53-11.6-.69,2.42-1.19,4.87-2.05,7.28-1.09,3.06-2.86,6.03-3.92,9.02-.29.82-.49,1.93-.5,2.98,1.47-2.86,3.66-6.18,5.79-9.27-1.06,4.9-1.83,10.49-2.11,11.5-.14.49-.15.99-.14,1.49.27-.48.53-.95.8-1.43.15-.26.26-.55.37-.85.05-.14.1-.29.15-.43.17-.48,3.31-6.29,5.4-9.74-.08,3.18-.06,6.25.02,9.19,0,0,0,0,0,.01-.85,2.38-3.38,5.75-3.42,5.86-.13.36-.14.7-.31,1.16,0,0-2.3,2.16-5.71,5.64-7.31,7.48-19.74,21.14-25.67,33.02.43-2.54,1.06-5.55,1.9-7.93,1.65-4.64,4.54-8.37,4.54-8.37.12-.34.1-.63.22-.97.32-.89,4.37-6.75,9.35-13.01-5.16,5.24-10.2,10.01-14.55,14.95,2.17-7.12,2.23-11.22,4.51-17.64Z"></path> <path class="cls-48" d="m331.01,33.65c.57-2.89,1.66-6.52,2-7.47.45-1.26,7.61-17.05,12.69-23.81-3.02,10.74-4.14,20.96-4.37,30.23-2.09,3.45-5.23,9.26-5.4,9.74-.05.14-.1.29-.15.43-.11.3-.22.59-.37.85-.28.48-.53.95-.8,1.43-.01-.5,0-1,.14-1.49.28-1.01,1.06-6.6,2.11-11.5-2.13,3.08-4.32,6.41-5.79,9.27.01-1.05.21-2.16.5-2.98,1.06-2.99,2.83-5.96,3.92-9.02.86-2.41,1.36-4.86,2.05-7.28-2.5,3.78-4.78,7.66-6.53,11.6Z"></path> <path class="cls-85" d="m330.67,80.52c-8.47,15.17-20.17,29.44-28.37,36.94,8.93-11.75,19.97-32.28,25.94-48.06-5.06,9.02-12.36,21.25-19.58,30.83.37-.79.72-1.6,1.01-2.41,1.57-4.41,2.34-8.99,3.9-13.4,1.48-4.18,7.24-12.83,7.5-13.56.24-.68,5.87-8.98,10.84-16.4,3.41-3.49,5.71-5.64,5.71-5.64.16-.46.18-.8.31-1.16.04-.11,2.58-3.48,3.42-5.86,0,0,0,0,0-.01.41,14.88,2.31,26.5.13,32.62-2.6,7.33-4.16,15.27-6.91,23.01-6.21,17.49-17.27,26.76-32.49,36.79-.83.55-1.66,1.09-2.51,1.65,1.71-1.64,3.46-3.4,5.23-5.25,12.05-12.63,24.73-29.51,29.4-42.67,1.09-3.06,1.91-6.23,2.58-9.39-9.45,21.23-25.81,38.22-35,46.31-1.03.84-2.22,1.67-3.9,2.53,10.16-9.95,22.09-22.12,32.8-46.86Z"></path> <path class="cls-77" d="m342.59,4.3c-15.77,21.1-35.83,53.51-43.14,74.1-.48,1.36-.86,2.73-1.34,4.08-.03.08-1.38,3.08-3.23,7.4-.76-7.87-.57-16.27,2.32-24.42,4.38-12.33,14.37-20.49,16.91-22.98-10.72,7.19-16.44,17.54-20.17,28.05-1.67,4.71-2.83,8.44-3.66,11.44-.64-4.34.93-9.89,3.34-16.69.11-.32.25-.63.37-.94-1.59,2.86-3.18,6.25-4.7,10.52-1.84,5.18-3.72,13.35-4.63,20.53-.8-4.4-.56-9.13.21-13.85-1.44,5.32-2.21,9.97-2.53,14.04-.56-2.57-.74-5.52-.75-8.25-1.15,6.67-1.72,16.74-.65,26.89-2.21-6.01-4.11-13.75-5.01-21.69.15-.45.28-.88.44-1.34,14.05-39.59,42.78-60.63,66.21-86.89Z"></path> <path class="cls-41" d="m282.51,123.8c-1.88,6.97-2.86,12.74-3.23,17.81-7.2-11.94-10.88-26.85-3.34-49.09.9,7.94,2.8,15.68,5.01,21.69-1.07-10.15-.49-20.22.65-26.89,0,2.73.19,5.69.75,8.25.32-4.07,1.1-8.72,2.53-14.04-.76,4.72-1.01,9.45-.21,13.85.91-7.18,2.79-15.35,4.63-20.53,1.52-4.27,3.11-7.66,4.7-10.52-.13.31-.26.62-.37.94-2.41,6.8-3.98,12.36-3.34,16.69.83-3,1.99-6.74,3.66-11.44,3.73-10.51,9.45-20.86,20.17-28.05-2.54,2.48-12.54,10.65-16.91,22.98-2.89,8.15-3.08,16.54-2.32,24.42-2.39,5.57-5.62,13.33-7.92,19.8-.73,2.07-1.4,4.04-2.02,5.94-.94,2.9-1.75,5.63-2.44,8.18Z"></path> </g> <g> <path class="cls-54" d="m214.85,138.41c3.79,23.85,18.03,41.32,27.55,50.62-6.65-20.4-11.27-45.66-12.64-55.37,15.16,60.58,37.74,48.48,36.81,78.67,0,.23-.02.48-.03.71.92-2.8,1.58-5.9,1.69-9.24.49-15.79-3.11-34.82-11.97-51.34,15.15,16.07,20.63,33,20.07,51.14-.18,5.77-.73,11.54-1.52,17.01,2.06-7.16,3.76-16.01,4.15-28.82.06-1.92.18-10.74-.6-17.04,3.82,10.99,7.29,26.31,6.73,44.46-.32,10.49-1.36,21.1-1.83,31.62,3.29-11.64,7.57-29.4,8.03-44.38.25-8.17-1.01-17.13-3.13-26.07,5.61,10.49,8.84,21.38,8.49,32.69-.29,9.41-6.34,75.09-18.79,99.47-7.58-31.02-36.46-76.11-61.85-124.28-1.3-6.19-2.09-12.31-1.92-17.73.16-5.08,1.06-10.26,1.22-15.33,0-.19-.4-7.63-.45-16.79Z"></path> <path class="cls-17" d="m186.57,82.33c8.91,8.2,19.54,16.76,30.64,25.71.47,4.28,1.76,8.71,3.41,12.8-7.59-4.93-19.77-18.15-23.45-24.34,2.33,5.49,8.44,18.6,18.49,31.65-10.43-8.25-23.94-21.26-29.52-32.9.37,14.87,3.44,22.69,6.94,27.23-3.43-2.57-6.47-5.76-9.2-9.27-1.51-4.09-2.94-8.1-4.28-11.97-2.78-10.68-4.68-21.19-5.37-31.41h0c3.52,4.07,7.7,8.24,12.33,12.5Z"></path> <path class="cls-66" d="m224.12,275.71c-.12-.38-.18-.78-.16-1.2.02-.68-3.96-4.14-3.95-4.55,0,0-15.17-15.56-15.23-15.62,0,0-.35-.78-.87-1.95,8.22,7.47,14.23,9.34,19.35,10.54-1.77-13.5-23.35-26.37-26.53-43.62,4.67,7.84,17.32,13.8,27.35,19.47-6.16-11.36-9.86-27.19-14.41-41.75,11.92,17.8,23.31,41.47,37.84,48.58,14.1,25.66,25.9,48.71,30.34,66.91-1.03,2.01-2.09,3.77-3.2,5.16-17.14-7.4-52.8-27.25-80.57-58.91,11.33,7.55,21.94,13.12,30.04,16.93Z"></path> <path class="cls-30" d="m156.11,160.34c.83,1.93,2.05,4.2,3.48,6.55,3.39,11.62,8.5,28.86,14.91,41.12-6.34-5.58-12.21-13.36-16.47-20.63-1.5-8.43-2.23-17.23-1.95-26.43,0-.21.02-.4.03-.6Z"></path> <path class="cls-30" d="m156.31,156.17c.15-2.51.34-4.91.59-7.22,2.82,10.04,8.03,20.54,17.11,33.59-4.1-1.38-10.21-8.8-14.41-15.65-1.44-2.35-2.66-4.62-3.48-6.55.05-1.43.12-2.81.2-4.17Z"></path> <path class="cls-71" d="m159.6,166.88c4.2,6.85,10.31,14.27,14.41,15.65-9.08-13.05-14.29-23.55-17.11-33.59.04-.41.1-.78.15-1.18,7.2,6.29,14.53,10.89,19.84,13.55-7.92-4.72-13.07-11.25-12.67-24.06.03-1.1.03-2.1.06-3.13.04-1.41.26-3.76.53-6.32,1.01,2.42,2.34,5.16,3.73,7.6.19.55.52,1.11.99,1.67.98,1.14,2.44,2.26,3.97,3.2-3.4-4.92-5.12-12.9-4.89-20.46.03-.84.09-1.68.14-2.52,1.86,4.09,4.45,8.3,7.86,10.67-2.05-2.64-3.89-6.32-3.72-11.73.06-1.94.08-5.97-.45-9.21,5.75,4.11,9.58,7.71,12.13,10.89,14.59,43.45,41.45,88.62,62.94,127.72-14.53-7.11-25.92-30.78-37.84-48.58,4.55,14.56,8.26,30.39,14.41,41.75-10.04-5.67-22.68-11.63-27.35-19.47,3.18,17.25,24.76,30.12,26.53,43.62-5.12-1.2-11.13-3.08-19.35-10.54.52,1.17.87,1.95.87,1.95.06.06,15.23,15.62,15.23,15.62-.01.4,3.97,3.87,3.95,4.55-.01.42.05.82.16,1.2-8.1-3.81-18.71-9.38-30.04-16.93-17.01-19.4-31.03-43.26-36.05-71.41,4.26,7.27,10.13,15.05,16.47,20.63-6.41-12.26-11.51-29.51-14.91-41.12Z"></path> <path class="cls-30" d="m174.24,69.82c1.05,15.5,4.82,31.67,10.33,48.08-2.55-3.17-6.39-6.78-12.13-10.89.53,3.24.51,7.27.45,9.21-.17,5.41,1.67,9.09,3.72,11.73-3.42-2.37-6-6.58-7.86-10.67-.05.84-.12,1.68-.14,2.52-.23,7.56,1.48,15.53,4.89,20.46-1.53-.94-2.99-2.05-3.97-3.2-.33-.53-.67-1.09-.99-1.67-1.39-2.44-2.71-5.18-3.73-7.6-.27,2.56-.49,4.92-.53,6.32-.03,1.03-.03,2.03-.06,3.13-.4,12.82,4.75,19.34,12.67,24.06-5.31-2.67-12.64-7.26-19.84-13.55,3.54-31.27,15.15-44.62,17.2-77.94Z"></path> <path class="cls-54" d="m183.89,113.2c-.47-.6-.95-1.2-1.4-1.82-1.05-3.4-2-6.78-2.88-10.14,1.34,3.87,2.77,7.87,4.28,11.97Z"></path> <path class="cls-54" d="m214.84,181.59c.32,2.2.69,4.42,1.16,6.66-13.34-25.3-25.69-51.45-33.52-76.87.45.62.93,1.22,1.4,1.82,8.8,23.89,20.14,50.55,30.96,68.39Z"></path> <path class="cls-18" d="m193.09,122.47c-3.51-4.54-6.57-12.36-6.94-27.23,5.58,11.65,19.1,24.65,29.52,32.9-10.05-13.05-16.16-26.16-18.49-31.65,3.68,6.19,15.85,19.41,23.45,24.34-1.65-4.09-2.94-8.52-3.41-12.8,27,21.75,56.73,45.76,70.94,72.34,2.12,8.94,3.39,17.91,3.13,26.07-.46,14.97-4.74,32.73-8.03,44.38.46-10.52,1.5-21.13,1.83-31.62.56-18.15-2.91-33.47-6.73-44.46.79,6.3.66,15.13.6,17.04-.4,12.81-2.09,21.67-4.15,28.82.79-5.47,1.34-11.25,1.52-17.01.56-18.14-4.92-35.07-20.07-51.14,8.86,16.52,12.45,35.55,11.97,51.34-.1,3.35-.77,6.44-1.69,9.24,0-.23.03-.49.03-.71.91-29.63-20.81-18.57-35.95-75.4-.29-1.08-.58-2.14-.86-3.27.12.88.28,1.93.46,3.04,1.77,11.24,6.13,33.78,12.18,52.33-9.52-9.3-23.76-26.77-27.55-50.62.05,9.15.45,16.59.45,16.79-.16,5.07-1.06,10.26-1.22,15.33-.11,3.45.21,7.21.76,11.06-10.82-17.84-22.16-44.5-30.96-68.39,2.73,3.51,5.77,6.7,9.2,9.27Z"></path> </g> <g> <path class="cls-53" d="m323.27,282.55c-3.92,14.44-5.36,31.8,3.5,45.67.32.5.65.99.97,1.5,1.43,2.23,2.51,4.96,2.61,5.11.87,1.36,2.21,2.32,3.13,3.76.08.13.2.26.31.39-2.63-12.71-12.7-15.35-8.63-48.11.2-.66.41-1.26.59-1.8-.84,9.1,1.08,17.01,5.25,23.54,1.33,2.08,2.76,4.1,4.23,6.09-5.17-21.21,6.21-29.87,7.76-44.06,2.4,8.54.88,15.09-.12,20.3,6.21-14.93,18.77-29.09,20.89-42.39.24,18.04-15.26,36.52-12.12,47.1,8.52-20.76,29.68-52.37,34.72-75.57-3.75,34.42-25.07,71.71-41.79,102.69-2.67,4.95-5.22,9.74-7.57,14.33-2.15,4.2-4.13,8.25-5.86,12.09-3.56-.15-6.56-1.27-8.26-3.94-13.47-21.07-8.01-47.23.39-66.71Z"></path> <path class="cls-68" d="m365.32,237.21c1.76-4.43,3.3-8.87,4.54-12.78-3.15,4.31-7.8,9.83-14.56,16.12,10.43-14.17,22.76-36.53,26.59-53.78,1.69,4.1,2.9,8.33,3.71,12.64-.7,13.42-6.63,22.73-10.55,27.85,2.26-5.57,4.15-11.35,4.63-16.06-2.95,8.11-8.52,17.85-14.36,26.01Z"></path> <path class="cls-80" d="m327.74,329.72c-.32-.5-.65-1-.97-1.5-8.87-13.87-7.43-31.23-3.5-45.67,6.59-15.3,14.98-26.47,17.42-27.82.61-.33,1.12-.39,2.21-.99,2.98-1.64,7.48-6.51,12.4-13.2,6.76-6.29,11.42-11.81,14.56-16.12-1.24,3.91-2.78,8.34-4.54,12.78,5.84-8.16,11.41-17.9,14.36-26.01-.48,4.7-2.37,10.49-4.63,16.06,3.92-5.12,9.85-14.43,10.55-27.85.6,3.18,1,6.4,1.18,9.66.29,4.93.13,9.94-.42,15.03-5.04,23.2-26.21,54.81-34.72,75.57-3.14-10.58,12.36-29.06,12.12-47.1-2.12,13.29-14.68,27.45-20.89,42.39,1-5.21,2.52-11.76.12-20.3-1.54,14.19-12.93,22.85-7.76,44.06-1.47-2-2.9-4.02-4.23-6.09-4.17-6.53-6.09-14.44-5.25-23.54-.19.54-.39,1.14-.59,1.8-4.07,32.77,6,35.4,8.63,48.11-.12-.13-.23-.26-.31-.39-.92-1.44-2.26-2.4-3.13-3.76-.09-.15-1.18-2.88-2.61-5.11Z"></path> <path class="cls-99" d="m331.85,353.19c-.23,0-.47.03-.7.02,19.58-43.54,70.57-112.21,51.62-164.04,20.59,36.74-24.79,126.41-50.92,164.03Z"></path> <g> <path class="cls-99" d="m356.13,312.27c1.52-.33,3.33-.9,5.19-1.66-2.13,1.71-4.38,3.25-6.71,4.56.51-.96,1.01-1.93,1.52-2.9Z"></path> <path class="cls-99" d="m338.69,342.82c1.2-1.9,2.42-3.88,3.66-5.92.42-.7.84-1.4,1.27-2.12.22-.36.43-.73.65-1.1.37-.62.74-1.25,1.11-1.89,1.22-2.08,2.44-4.22,3.67-6.42.93.07,1.86.1,2.78.1,4.12,1.28,14,1.8,23.85-3.63,1.64-.9,3.21-1.92,4.72-3-2.75,2.97-6.67,6.45-12.26,9.53-1.7.94-6.79,3.25-12.82,4.82,2.62-.04,5.4-.35,8.12-.99-4.37,2.02-9.03,4.55-16.04,4.85,3.98,2.99,9.14,2.98,15.31,1.51-2.85,1.09-7.78,3.03-12.68,4.17,2.25.75,5.08,1.19,8.36.83-1.66,1.06-3.36,2.09-5.12,3.05-6.13,3.37-14.7,6.61-21.43,6.57,2.17-3.12,4.46-6.6,6.85-10.37Z"></path> </g> <path class="cls-24" d="m362.72,338.57c-6.17,1.48-11.33,1.48-15.31-1.51,7.01-.3,11.67-2.82,16.04-4.85-2.72.64-5.5.95-8.12.99,6.04-1.58,11.12-3.89,12.82-4.82,5.58-3.07,9.5-6.56,12.26-9.53-1.51,1.08-3.08,2.09-4.72,3-9.85,5.43-19.73,4.91-23.85,3.63-.92,0-1.85-.03-2.78-.1,1.85-3.29,3.71-6.7,5.55-10.2,2.33-1.31,4.57-2.85,6.71-4.56-1.86.75-3.67,1.32-5.19,1.66.81-1.57,1.62-3.15,2.43-4.75,12.56-24.96,23.96-53.47,27.92-77.79.6-3.71,1.04-7.31,1.27-10.8.49-7.21.14-13.89-1.24-19.8,1.92,4.12,3.48,8.53,4.1,13.09.86-2.62,1.55-5.72,1.81-9.25,2.25,8.32,2.2,14.34,1.14,18.87,1.18-1.99,2.25-4.21,3.18-6.46,1.46,11.29.31,25.08-9.47,33.9,6.46-4.9,10.81-14.11,13.25-21.78.26,8.97-1.78,16.54-4.3,22.16,3.47-4.66,6.17-10.5,7.92-15.92.48,9.02.72,14.49.62,18.05,1.34-2.41,2.55-5.27,3.49-8.82,4.65,25.5,2.86,51.64-11.88,59.75,0,0-10.42,19.32-29.46,34.67-2.67,2.15-5.5,4.23-8.51,6.16-3.28.37-6.11-.08-8.36-.83,4.9-1.14,9.83-3.08,12.68-4.17Z"></path> <path class="cls-68" d="m396.22,249.68c2.51-5.62,4.56-13.19,4.3-22.16-2.44,7.66-6.79,16.88-13.25,21.78,9.78-8.83,10.93-22.61,9.47-33.9-.92,2.24-2,4.47-3.18,6.46,1.06-4.53,1.11-10.55-1.14-18.87-.26,3.53-.95,6.63-1.81,9.25-.62-4.57-2.17-8.97-4.1-13.09-.85-3.63-2.07-6.98-3.74-9.97-.29-.8-.55-1.6-.87-2.39.04-.2.1-.41.14-.61,3.95,3.52,7.27,7.58,10.11,12.02.12.19.24.39.36.58,2.12,3.39,4.14,7.32,6.02,11.63,1.37,3.15,2.67,6.5,3.86,9.99,1.04,3.06,2.01,6.22,2.89,9.46,1.17,4.3,2.17,8.72,2.98,13.16-.94,3.54-2.15,6.41-3.49,8.82.1-3.55-.14-9.02-.62-18.05-1.75,5.41-4.44,11.25-7.92,15.92Z"></path> </g> <g> <path class="cls-80" d="m119.26,381.7c1.78,1.39,3.92,2.94,6.27,4.44,12.56,17.35,112.02,67.2,136.8,89.91-.21,1.5-.45,3.01-.75,4.52-24.16-2.99-62.91-16.89-95.84-38.84,4.3,1.76,8.4,3.18,12.02,4.31-11.61-5.89-21.57-15.52-25.26-21.12,5.58,4.86,12.81,6.73,18.81,6.48-8.61-1.53-15.34-6.83-20.77-12.43,2.79.71,5.63.29,8.29,0-8.98-4.12-20.51-9.35-20.88-9.83-1.27-1.69-2.58-3.32-3.95-4.88,2.24.49,4.69.6,6.63.61-12.83-8.77-18.64-17.76-21.37-23.16Z"></path> <path class="cls-68" d="m100.93,341.28c.53.35,1.09.69,1.65,1.03,6.67,25.73,21.64,39.67,21.64,39.67.09.49-.06,1.09.03,1.58.14.75.58,1.62,1.28,2.58-2.34-1.5-4.49-3.04-6.27-4.44,2.73,5.4,8.54,14.39,21.37,23.16-1.94,0-4.39-.12-6.63-.61,1.37,1.56,2.68,3.19,3.95,4.88.36.48,11.89,5.71,20.88,9.83-2.66.3-5.5.71-8.29,0,5.43,5.6,12.17,10.9,20.77,12.43-6,.25-13.23-1.62-18.81-6.48,3.68,5.6,13.65,15.23,25.26,21.12-3.62-1.13-7.72-2.55-12.02-4.31-29.51-19.67-54.36-45.8-59.85-76.32-.58-3.22-1.12-6.47-1.7-9.72-.87-4.84-1.86-9.68-3.25-14.42Z"></path> <path class="cls-32" d="m102.58,342.31c17.32,10.49,47.82,18.11,77.64,30.14,17.5,7.06,34.76,15.64,48.99,27.21.58.47,1.15.97,1.73,1.45,6.25,6.94,11.67,15.4,13.45,25.3.77,4.27.33,6.58-.38,9.25-5.44-24.1-25.12-28.65-33.61-39.76,4.21,16.8,19.1,17.14,21.46,30.29.29,1.64.47,3.33.51,5.03-7.22-25.17-30.51-23.99-37.15-34.43-.17,1.83-.3,3.04-.28,3.18.95,5.25,10.81,10.72,17.65,17.52-11.04-7.36-29.34-15.65-34.48-27.19.01,1.41.07,2.76.29,3.98.89,4.95,4.51,8.98,8.93,12.91-9.89-3.02-22.09-4.34-29.23-13.59,1.43,3.94,3.83,7.62,8.61,9.66,4.03,1.72,7.34,3.48,10.08,5.23-9.08-2.91-19.72-1.92-29.31-4.98-5.01-3.29-9.44-6.35-13.05-9.11-.56-.43-1.09-.85-1.61-1.26-5.04-4.01-8.17-7.3-8.58-9.57-.09-.49.06-1.09-.03-1.58,0,0-14.97-13.94-21.64-39.67Z"></path> <path class="cls-99" d="m176.8,408.48c-2.74-1.75-6.04-3.51-10.08-5.23-4.78-2.04-7.18-5.72-8.61-9.66,7.13,9.25,19.33,10.57,29.23,13.59-4.42-3.93-8.04-7.96-8.93-12.91-.22-1.22-.27-2.57-.29-3.98,5.14,11.55,23.44,19.84,34.48,27.19-6.84-6.8-16.71-12.27-17.65-17.52-.03-.14.11-1.36.28-3.18,6.64,10.44,29.93,9.26,37.15,34.43-.04-1.71-.22-3.4-.51-5.03-2.37-13.15-17.25-13.48-21.46-30.29,8.48,11.1,28.17,15.66,33.61,39.76.71-2.66,1.15-4.98.38-9.25-1.78-9.9-7.2-18.35-13.45-25.3,15.39,13.01,26.98,29.72,31,52.09,1.31,7.29,1.47,15.01.38,22.85-18.8-17.24-80.64-50.12-114.84-72.55,9.59,3.06,20.23,2.06,29.31,4.98Z"></path> </g> </g> <g> <path class="cls-31" d="m383.75,549.72c6.05-4.48,11.62-9.45,16.68-14.66,5.18-12.6,8.47-26.43,11.7-39.87-.17.07-.35.13-.52.19-3.44,1.94-6.76,4.1-9.96,6.47-19.01,14.07-21.18,24.35-30.67,31.37-28.58,21.15-48.93-4.3-69.75-12.22-.22.33-.44.66-.66.99,2.68,10.06,4.34,19.3,3.53,26.59,19.24,11.48,49.13,23.73,79.65,1.15Z"></path> <path class="cls-49" d="m412.2,519.03c-3.01-4.07,7.78-20.1,5.87-34.05-1.18,1.46-2.69,2.89-4.52,4.32-4.4,17.96-8.39,37.07-16.55,53.33,7.4-8.52,14.35-16.47,20.73-21.46-2.45-.06-4.45-.68-5.53-2.14Z"></path> <path class="cls-34" d="m459.6,515.81c6.12-4.53,12.54-8.47,19.44-11.39,3.06-2.88,5.92-6.01,8.43-9.4-3.59,1.19-7.05,2.73-10.29,4.68-38.07,22.87-52.4,19.6-63.27,27.64-9.94,7.36-13.69,16.56-28,27.84-4.26,4.65-8.64,9.12-13.12,13.04,15.72.93,30.95-5.32,43.77-14.81,11.82-8.75,26.93-25.68,43.05-37.6Zm-38.62,27.94c-.1.08-4.52,1.17-8.3,3.97-2.84,2.1-5.58,4.62-8.44,6.74-17.5,12.95-16.63-1.94,6.27-18.88,4.69-3.47,9.78-6.24,14.99-7.75,3.32-2.03,7.45-3.92,8.9-1.96,3.39,4.58-1.08,9.12-6.08,12.82-2.66,1.97-5.47,3.7-7.33,5.08Z"></path> <path class="cls-104" d="m493.82,484.89c2.34-6.65,1.15-12.69-1.95-16.88-1.48-2-26.31-22.92-26.95-23.43-6.06-4.84-8.92-3.06-13.15-6.36-3.38-.7-6.81-1.16-10.29-1.37-5.44.95-11.84,2.05-15.99,5.12-3.63,2.68-5.78,7.57-3.03,11.28,1.7,2.29,4.65,4.06,6.19,6.14.23.32,1.01,18.54,9.23,29.65,7.03,9.5,17.11,13.04,27.21,12.04,8.99-4.52,18.61-9.36,25.27-12.7,1.12-1.07,2.29-2.24,3.46-3.49Zm-45.22-3.3c-5.18-7-1.44-18.9-4.39-22.89-2.09-2.83-7.07-4.02-9.03-6.67-.78-1.05-.79-2.14-.38-3.16.23-.18.47-.36.72-.54,5.69-4.21,31.13,7.21,36.52,14.5,6.23,8.42-3.71,19.75-5.91,21.38-6.18,4.58-14,2.18-17.54-2.61Z"></path> <path class="cls-2" d="m223.9,368.32c2.02,10.38,7.1,20.59,10.71,25.47,5.38,7.26,20.49,12.98,27.06,8.12,1.17-.87,1.57-1.42,3.34-2.73,17.94-13.28,36.47,2.71,49.31-6.79,6.91-5.11-7.5-29.02-12.63-35.94-8.53-11.53-16.79-19.01-25.87-23.38-9.95,1.15-20.43,5.03-31.07,12.9-8.24,6.1-15.23,13.73-20.86,22.35Zm63.35-14.29c2.03,2.74,4.65,5.62,6.87,8.61,6.64,8.97,4.96,15.18.63,18.39-5.37,3.97-14.58.91-22.14.12-9.48-1-23.82,11.22-30.32,2.44-4.9-6.62-2.84-16.45,2.12-22.57.39-1.55,1.61-3.27,4.61-5.49,12.25-9.06,35.7-4.9,38.22-1.49Z"></path> <path class="cls-2" d="m444.16,590.76c-5.87-2.21-11.72-3.96-17.53-5.37-16.03-1.24-32.21-3.01-48.32-3.38-73.57-1.69-103.5-61.04-124.6-70.11,3.1,9.65,7.36,22.12,12.02,35.28,5.62,4.98,10.52,10.6,14.96,16.61,12.17,16.45,22.66,38.61,28.76,46.85,25.72,34.76,78.42,17.48,111.32-6.87,3.55-2.63,8.23-6.52,8.53-6.74,4.45-3.29,9.48-5.24,14.85-6.27Zm-135.34,1.56c-3.43-4.64-6.48-9.7-9.16-14.94.36-1.01,1.05-2.01,2.22-2.88,10-7.4,27.6,14.35,47.17,17.55,10.72,1.75,28.15-3.63,34.81,5.37,2.3,3.11-8.6,12.34-11.71,14.65-13.64,10.09-42.57,8.32-63.33-19.74Z"></path> <path class="cls-7" d="m480.34,684.79c14.3,1.6,33.55,1.49,45.88-7.64,19.94-14.75,7.04-40.54,20.8-53.78,17.36-16.71,21.2-39.81,7.96-57.7-2.87-3.88-12.45-14.07-26.35-23.98-3.98-.65-8-1.08-12.02-1.28,7.56,4.42,14.26,10.11,19.55,17.26,18.93,25.58,9.52,53.65-7.17,66-3.33,2.47-7.08,4.43-11.19,5.74-87.83,27.96-92.96,42.32-149.16,24.46-7.37,1.98-14.65,3.13-21.83,2.98,34.69,23.97,49.47,18.54,133.53,27.94Zm41.26-37.36c6.58,8.9,3.57,19.78-4.43,25.7-9.97,7.38-33.16.27-60.62,2.62-4.39.38-9.84-1.46-12.56-5.13-1.31-1.76-1.98-3.95-1.59-6.52,19.42,7.19,63.57-37.79,79.2-16.67Z"></path> <path class="cls-20" d="m338.79,694.26c37.82,32.06,91.37,87.31,139.64,51.59,18.25-13.51,26.81-32.55,29.06-50.73-19.39,11.08-35.09,6.61-62.55,4.42-49.63,18.32-79.31-16.2-106.18-32-18.74-11.01-26.53-7.79-40.25,1.76-2.77,5.23-6.97,10.36-13.04,15.3,18.44-4.44,37.71-3.57,53.32,9.66Zm43.72,9.61c30.75,13.89,77.36,2.4,90.94,20.76,4.25,5.75-1.22,11.21-8.53,16.62-26.97,19.96-65.02,1.74-83.35-23.02-.27-.37-.53-.74-.8-1.11-4.19-2.74-7.12-5.51-7.68-6.27-1.95-2.64-1.39-6.1.52-7.5,2.37-1.75,6.51-.55,8.89.53Z"></path> <path class="cls-97" d="m24.69,432.78c-.19.14-.38.26-.57.4s-.36.28-.55.42c-11.99,19.12-30.32,55.03,8.76,130.46,4.76,7.28,9.77,14.4,14.84,21.26,5,6.75,10.23,13.37,15.62,19.87,8.07,9.73,16.5,19.21,25.13,28.49,12.21,18.36,24.35,35.77,31.93,46.45-85.49-128.16-8.31-162.09-57.74-228.89-9.78-13.21-23.05-19.24-37.42-18.46Zm29.71,131.87c-10.05,7.44-42.65-52.67-26.98-92.49-.16-9.36,1.13-18.27,8.27-23.55,6.51-4.82,8.92-3.28,13.99,3.57,22.76,30.76,18.42,102.33,4.71,112.47Z"></path> <path class="cls-61" d="m328.74,851.37c-15.34-20.74-60.5-19.74-72.41-35.84-1.36-1.83-2.19-3.9-2.68-6.14-3.43-5.64-3.08-8.65-7.29-14.35-8.37-11.31-23.89-17.31-32.65-29.16-4.59-6.2-10.65-17.91-16.76-26.16-18.68-25.24-46.07-15.86-74.94-54.87-3.15-4.26-5.95-8.78-8.37-13.54-7.23-10.32-16.45-23.7-25.72-37.64-8.24-8.87-16.3-17.92-24.04-27.2,1.62,20.43,10.52,39.08,23.14,56.13,30.34,41,77.44,68.4,91.52,87.43,8.96,12.11,16.13,43.25,44.6,81.72,33.18,44.84,62.16,55.18,106.18,49.14,3.46-1.58,6.87-3.35,10.22-5.31-6.39-10.63-5.39-16.9-10.81-24.23Zm-92.56-15.15c-6-8.11-8.77-17.41-5.42-27.65,10.52,2.56,16.86,13.64,25.87,19.84,27.63,19.03,54.83,18.53,60.53,26.24,1.98,2.68,2.39,6.65-.85,9.04-23.84,17.65-68.27-11.44-80.14-27.48Z"></path> <path class="cls-57" d="m236.18,836.23c11.87,16.04,56.3,45.12,80.14,27.48,3.24-2.39,2.83-6.36.85-9.04-5.71-7.72-32.9-7.21-60.53-26.24-9.01-6.2-15.35-17.29-25.87-19.84-3.35,10.24-.58,19.54,5.42,27.65Z"></path> <path class="cls-22" d="m196.95,739.73c6.1,8.25,12.17,19.97,16.76,26.16,8.77,11.84,24.28,17.85,32.65,29.16,4.21,5.69,3.87,8.71,7.29,14.35-1.81-8.4,1.42-19.2,1.32-29.17-13.83-4.91-28.04-11.56-42.29-30.83-8.35-11.29-15.17-24.15-22.43-35.86-1.57-2.53-3.09-4.97-4.56-7.35-21.44,6.62-44.33,3.29-58.77-16.23-1.75-2.37-6.68-9.22-13.27-18.64,2.42,4.76,5.22,9.28,8.37,13.54,28.87,39.01,56.26,29.63,74.94,54.87Z"></path> <path class="cls-73" d="m149.36,761.85c5.59,7.56,18.86,37.62,39.42,65.41,33.13,44.77,69.19,60.75,101.8,63.51,13.2-.87,26.28-4.15,38.74-9.86-44.02,6.04-73-4.3-106.18-49.14-28.47-38.47-35.64-69.61-44.6-81.72-14.08-19.03-61.18-46.43-91.52-87.43-12.62-17.06-21.53-35.71-23.14-56.13-.36-.43-.73-.86-1.09-1.29-5.39-6.5-10.62-13.12-15.62-19.87-4.72-6.38-9.38-12.99-13.84-19.74,3.88,47.55,21.79,91.74,49.9,129.73,26.43,35.72,65.94,66.29,66.12,66.54Z"></path> <path class="cls-95" d="m188.79,827.26c-20.56-27.79-33.83-57.85-39.42-65.41-.18-.25-39.69-30.82-66.12-66.54-28.11-37.99-46.02-82.18-49.9-129.73-2.22-3.35-4.39-6.74-6.48-10.16-1.68,49.89,17.73,95.13,47.47,135.32,28.82,38.94,78.14,81.66,78.38,81.99,10.75,14.52,8.67,32.79,32.21,64.6,28.21,38.12,67.43,55.93,105.66,53.43-32.6-2.76-68.67-18.74-101.8-63.51Z"></path> <path class="cls-7" d="m388.67,804.88c7.21-5.33,10.52-9.04,14.14-12.75-27.97,15.24-79.56,34.24-108.92,7.36-12.43-11.38-25.5-14.5-38.91-19.26,0,.08,0,.17,0,.25,28.46,11.51,76.96,66.38,133.7,24.39Z"></path> <path class="cls-20" d="m400.24,840.45c14.49-10.73,19.13-25.25,23.01-37.93-1.09-.75-2.25-1.41-3.48-1.96-6.51-2.89-12-5.79-16.84-8.51-.05.02-.09.05-.14.07-3.62,3.71-6.93,7.41-14.14,12.75-56.74,41.99-105.24-12.88-133.7-24.39.06,12.56-5.06,26.39,1.36,35.05.06.08.13.16.19.24.63-.62,1.29-1.18,1.98-1.69,31.06-22.99,87.8,66.28,141.74,26.37Z"></path> <path class="cls-29" d="m426.86,805.42c-1.13-1.04-2.32-2.02-3.6-2.9-3.89,12.68-8.52,27.2-23.01,37.93-53.94,39.92-110.68-49.36-141.74-26.37-.69.51-1.35,1.08-1.98,1.69,2.7,3.51,6.99,6.2,12.21,8.48,10.21,4.47,23.96,7.39,36.2,11.87,9.32,3.41,17.76,7.73,23.09,14.32,23.86,15.35,46.65,28.55,70.57,10.84,23.93-17.71,23.35-38.06,28.27-55.86Z"></path> <path class="cls-29" d="m438.04,824.81c.45,24.12,9.19,50.3-18.3,70.64-24.92,18.44-50.8,6.28-72.88-10.06,1.21,1.31,2.46,2.55,3.76,3.73,21.33,19.36,54.21,20.89,66.38,11.88,32.34-23.93,27.54-52.27,21.05-76.19Z"></path> <path class="cls-97" d="m438.04,824.81c-1.03-3.8-2.1-7.49-3.08-11.03-2.41-2.27-4.99-5.5-8.1-8.36-4.92,17.8-4.34,38.15-28.27,55.86-23.93,17.71-46.71,4.51-70.57-10.84.25.31.49.62.72.93,5.42,7.32,4.42,13.6,10.81,24.23.97,1.61,2.1,3.32,3.45,5.15,1.21,1.64,2.5,3.18,3.85,4.64,22.08,16.34,47.96,28.5,72.88,10.06,27.49-20.34,18.75-46.52,18.3-70.64Zm-69.34,61.89c-.43-.58-.83-1.34-1.14-2.2,10.88.3,21.59-4.48,30.79-11.29,4.39-3.25,9.78-8.34,9.94-8.46,5.34-3.95,13.22-3.87,17.3,1.64,4.87,6.59-2.99,16.94-8.76,21.21-15.16,11.22-42.44,6.78-48.13-.91Z"></path> <path class="cls-65" d="m425.59,866.4c-4.08-5.51-11.96-5.6-17.3-1.64-.16.12-5.55,5.21-9.94,8.46-9.2,6.81-19.92,11.58-30.79,11.29.32.86.71,1.62,1.14,2.2,5.69,7.69,32.96,12.13,48.13.91,5.77-4.27,13.63-14.62,8.76-21.21Z"></path> <path class="cls-20" d="m153.35,673.7c-50.35-68.04,15.06-111.92-21.77-161.69-.21-.29-.44-.58-.54-.73-8.73-11.8-7.42-28.25-14.17-42.26-6.28-13.03-15.48-28.4-13.61-42.81-2.54-5.01-4.86-10.12-6.82-15.23-.47-1.22-.91-2.44-1.33-3.66-1.13,1.21-2.36,2.3-3.66,3.26-10.23,7.57-31.45,2.64-56.14,15.58,19.18-2.12,42.57,1.14,56.69,13.82,31.99,51.26-28.22,149.25,34.31,233.75,9.79,13.23,21.56,25.16,34.67,35.33,7.89.72,16.1-.29,24.12-2.7-11.77-9.76-22.86-20.67-31.74-32.67Z"></path> <path class="cls-7" d="m131.04,511.28c.11.14.33.44.54.73,36.83,49.77-28.58,93.65,21.77,161.69,8.88,12,19.97,22.91,31.74,32.67.2-.06.39-.11.59-.17-59.37-95.52-48.73-73.68-35.54-115.59,4.29-13.64,5.93-28.81,12.96-40.5-4.66-13.08-10.82-27.61-22.47-43.36-8.18-11.05-9.3-24.01-8.38-37.32-2.9-3.01-5.58-6.25-8.1-9.65-7.05-9.53-14.66-21.24-20.9-33.56-1.86,14.41,7.34,29.78,13.61,42.81,6.75,14.01,5.44,30.47,14.17,42.26Z"></path> <path class="cls-65" d="m49.7,452.18c-5.07-6.85-7.48-8.39-13.99-3.57-7.14,5.29-8.44,14.19-8.27,23.55-15.68,39.82,16.93,99.93,26.98,92.49,13.71-10.15,18.05-81.72-4.71-112.47Z"></path> <path class="cls-29" d="m23.58,433.6c-38.91,29.36-23.81,77.62,3.29,121.83,1.78,2.9,3.61,5.77,5.47,8.63-39.08-75.42-20.75-111.34-8.76-130.46Z"></path> <path class="cls-29" d="m160.97,709.06c-13.11-10.17-24.88-22.09-34.67-35.33-62.53-84.5-2.31-182.48-34.31-233.75-14.12-12.69-37.51-15.94-56.69-13.82-3.48,1.82-7.02,4-10.61,6.62,14.38-.77,27.65,5.25,37.42,18.46,49.43,66.8-27.75,100.73,57.74,228.89,3.43,4.83,5.92,8.28,7.06,9.83,8.91,12.04,21.04,17.91,34.06,19.1Z"></path> <path class="cls-61" d="m153.3,373.9c-22.88,16.93-27.58,49.13-18.84,75.95.29-2.25.57-4.49.81-6.71,1.38-12.65-2.97-31.3,4.52-39.05,1.12-1.52,2.44-2.87,3.9-3.96,8.96-6.63,24.64,1.88,39.62-9.2,7.61-5.63,11.64-18.83,18.18-31.73,2.02-13.27,1.68-25.33,6.57-36.37-.55-.44-1.13-.86-1.71-1.27-9.84,13.46-16.3,28.32-27.01,36.24-8.1,6-18.22,10.31-26.04,16.1Z"></path> <path class="cls-22" d="m143.69,400.13c-1.47,1.09-2.79,2.43-3.9,3.96.41-.42.84-.82,1.31-1.17,12.64-9.36,25.09-4.09,37.34,6.1.71-2.95,2.08-5.84,4.44-8.61,12.67-14.92,16.71-28.61,18.62-41.21-6.55,12.9-10.57,26.1-18.18,31.73-14.98,11.09-30.67,2.58-39.62,9.2Z"></path> <path class="cls-57" d="m133.01,461.39c.44-3.86.96-7.71,1.45-11.54-8.73-26.82-4.04-59.02,18.84-75.95,7.82-5.79,17.94-10.1,26.04-16.1,10.71-7.93,17.17-22.78,27.01-36.24-1.05-.74-2.16-1.43-3.31-2.05-10.76,2.74-25.43,4.55-40.73,15.87-30.43,22.52-49.9,78.8-29.32,126.01Z"></path> <path class="cls-65" d="m109.12,358.85c16.12-11.93,34.79-19.48,51.09-31.55.9-.67,1.83-1.38,2.15-1.62,7.64-5.65,16.31-8.71,25.45-10.24-7.99-.16-16.99,2.53-26.44,9.52-.63.46-1.25.93-1.88,1.39-17.92,13.26-36.87,11.82-55.88,25.89-16.61,12.29-16.09,33.39-8.53,55.07.42,1.22.87,2.44,1.33,3.66,4.5,11.75,10.89,23.52,17.59,34.04-16.19-29.71-28.74-68.52-4.9-86.17Z"></path> <path class="cls-73" d="m133.01,461.39c-20.59-47.21-1.11-103.49,29.32-126.01,15.29-11.32,29.97-13.13,40.73-15.87-4.45-2.43-9.58-3.95-15.23-4.07-9.15,1.53-17.82,4.59-25.45,10.24-.32.24-1.25.95-2.15,1.62-16.31,12.07-34.98,19.62-51.09,31.55-23.85,17.65-11.3,56.46,4.9,86.17,3.37,5.29,6.81,10.27,10.13,14.75,2.52,3.41,5.2,6.65,8.1,9.65.18-2.67.45-5.35.76-8.03Zm-24.98-46.69c-5.79-7.83-11.15-40.17,5.67-52.62,4.46-3.3,9.9-5.25,15.32-5.14-10.81,27.16-7.92,55.21-14.54,60.1-1.75,1.3-3.6,1.51-6.45-2.35Z"></path> <path class="cls-97" d="m129.01,356.94c-5.42-.11-10.85,1.83-15.32,5.14-16.83,12.45-11.46,44.79-5.67,52.62,2.85,3.86,4.7,3.64,6.45,2.35,6.62-4.9,3.73-32.95,14.54-60.1Z"></path> <path d="m277.51,693.41l2.09-.11,5.49.13-3.1,1.92c-.87.54-2.5.74-3.17-.17l-1.31-1.77Z"></path> <path class="cls-57" d="m430.84,769.85c-15.45-.04-32.65-1.86-49.24-6.65-35.6,1.96-60.06-46.23-107.47-54.11-3.89-.65-6.89-3.03-9.23-6.19-4.89-6.6-10.83-24.03-19.56-35.83-11.66-15.76-46.85-32.2-66.94-59.34-1.04-1.4-2.03-2.83-2.97-4.28,12.2,46.62,46.43,99.05,65.82,125.26,43.97,59.42,121.28,65.23,187.43,43.96.76-.92,1.48-1.86,2.15-2.83Zm-173.73-35.59c-7.1-9.59-12.25-20.45-14.72-31.66,11.71.83,33.07,26.82,75.51,41.48,4.75,1.64,10.93,5.11,14.16,9.48,3.88,5.24,2.19,10.39-1.98,13.47-9.49,7.02-48.37.48-72.98-32.78Z"></path> <path class="cls-73" d="m332.07,753.56c-3.24-4.38-9.41-7.84-14.16-9.48-42.44-14.66-63.8-40.65-75.51-41.48,2.47,11.21,7.62,22.07,14.72,31.66,24.61,33.26,63.49,39.8,72.98,32.78,4.17-3.08,5.86-8.23,1.98-13.47Z"></path> <path class="cls-22" d="m259.13,654.18c11.86,16.03,8.66,24.65,15.41,33.76.23.31.47.62.71.92,5.15-7.05,8.34-21.81-3.28-37.51-7.53-10.18-27.11-19.52-41.99-27.43-13.98-5.01-28.05-11.65-39.79-22.54.57.87,1.16,1.72,1.78,2.56,20.68,27.94,49.01,25.69,67.18,50.23Z"></path> <path class="cls-8" d="m412.12,785.14c-44.58,18.49-31.37,20.4-96.42,17.64-16.62-.7-24.25-12.89-35.41-18.41-41.61-20.57-48.78-18.69-81.26-62.58-23.31-31.5-57.96-100.31-55-111.04.8-2.9,1.48-5.78,2.05-8.65-10.59,27.07-13.39,18.81,39.61,104.09,1.48,2.38,3,4.83,4.56,7.35,7.26,11.71,14.08,24.57,22.43,35.86,14.26,19.27,28.46,25.92,42.29,30.83,13.41,4.76,26.48,7.88,38.91,19.26,29.41,26.93,81.12,7.82,109.06-7.43,5.03-2.74,9.27-5.36,12.49-7.56-1.11.22-2.21.44-3.32.65Z"></path> <path class="cls-97" d="m199.02,721.8c32.48,43.88,39.65,42.01,81.26,62.58,11.17,5.52,18.79,17.71,35.41,18.41,65.05,2.76,51.84.85,96.42-17.64-73.45,13.61-154.37-12.99-198.6-72.76-24.56-33.19-40.77-72.02-56.09-111.55-2.79-7.2-3.96-14.81-3.98-22.54-1.01,4.15-2.04,8.29-3.3,12.3-1.41,4.49-2.8,8.25-4.07,11.51-.58,2.87-1.26,5.75-2.05,8.65-2.95,10.73,31.69,79.54,55,111.04Z"></path> <path class="cls-29" d="m417.78,782.83c4.16-3.08,7.88-6.46,10.91-10.15-66.15,21.27-143.46,15.46-187.43-43.96-19.4-26.21-53.62-78.64-65.82-125.26-8.23-12.7-12.44-27.25-9.33-44.64-.96-2.83-1.94-5.74-3.01-8.72-4.96,8.26-7.24,18.24-9.65,28.2.02,7.73,1.19,15.34,3.98,22.54,15.32,39.53,31.53,78.36,56.09,111.55,44.23,59.77,125.15,86.37,198.6,72.76,1.11-.21,2.22-.43,3.32-.65.84-.58,1.63-1.13,2.33-1.65,0,0,.01-.01.02-.02Z"></path> <path class="cls-61" d="m356.31,753.04c-3.94-2.99-7.86-6.87-11.76-12.14-3.71-5.01-7.37-10.34-11.2-15.52-20.97-28.34-34.68-30.51-51.93-30.95-.61.38-1.53.37-1.72.11-.04-.05-.08-.1-.12-.15-2.51-.05-5.09-.08-7.79-.16-.05-.2-.12-.39-.17-.59-.09-.35-.17-.69-.24-1.04-.08-.4-.16-.8-.23-1.2,1.33-.75,2.65-1.52,3.95-2.31.05-.07.1-.14.15-.21-.24-.31-.48-.61-.71-.92-6.75-9.12-3.54-17.73-15.41-33.76-18.17-24.55-46.5-22.29-67.18-50.23-.62-.84-1.21-1.69-1.78-2.56-3.52-3.27-6.83-6.91-9.87-11.02-3.97-5.36-6.82-11.32-9.34-17.82-1.69-4.34-3.23-8.92-4.86-13.74-3.11,17.39,1.1,31.94,9.33,44.64.94,1.45,1.93,2.87,2.97,4.28,20.09,27.15,55.28,43.59,66.94,59.34,8.73,11.8,14.67,29.22,19.56,35.83,2.34,3.17,5.34,5.54,9.23,6.19,47.41,7.88,71.87,56.07,107.47,54.11-8.71-2.51-17.26-5.85-25.3-10.17Z"></path> <path class="cls-61" d="m545.42,738.8c24.03-52.88,38.89-85.28,43.24-110.33,1.79-10.29,1.81-19.34-.04-28.05-.37,4.9-1.53,9.79-3.33,14.63-2.14,5.75-5.2,11.43-8.93,17.01-10.39,20.01-27.68,29.5-32.09,47.41-7.06,28.66-17.86,55.44-40.73,72.36-12.5,9.25-25.62,14.01-38.66,15.02-9.16,1.8-20.97,3.04-34.04,3.01-.31.46-.65.9-.98,1.35,30.51.3,63.91,15.34,96.3-8.63,8.1-6,14.79-13.93,19.27-23.77Z"></path> <path class="cls-74" d="m581.01,792.79c2.56-1.7,5.17-3.51,7.82-5.47,74.06-54.81,11.85-115.28,11.04-197.58-.01-1.49-.19-2.94-.5-4.35-3.49,65.24,56.73,146.7-10.69,196.6-32.15,23.79-83.53,16.2-117.35,14.03-15.91-1.02-27.82,7.72-39.39,14.65,1.05,1.14,2.05,2.22,3.03,3.14.33.31.66.61.99.88.48-.39.96-.77,1.46-1.14,29.32-21.69,71.75,15.61,143.6-20.74Z"></path> <path class="cls-11" d="m599.37,585.38c-1.01-4.63-3.46-8.86-6.5-12.96-3.76-5.08-8.4-9.96-12.26-15.18-1.6-2.17-3.06-4.39-4.28-6.71-.68-1.31-1.29-2.64-1.79-4.01-2.44,3.6-5.09,7.1-7.87,10.52,3.17,2.37,6.1,5.01,8.74,7.9,1.3,1.43,2.54,2.91,3.69,4.47,7.58,10.24,10.31,20.67,9.52,31.02,1.85,8.71,1.83,17.76.04,28.05,13.27,53.36,26.03,116.17-16.74,147.82-56.33,41.68-112.35-4.79-157.71,9.03-3.05,2.02-6.86,4.33-11.28,6.74,4.84,2.72,10.32,5.61,16.84,8.51,5.06,2.25,8.86,6.51,12.15,10.09,11.57-6.93,23.48-15.67,39.39-14.65,33.83,2.17,85.21,9.76,117.35-14.03,67.42-49.89,7.2-131.36,10.69-196.6Z"></path> <path class="cls-11" d="m437.41,813.53c-.49.36-.98.75-1.46,1.14,2.3,1.92,4.49,2.76,6.93,1.33,34.49-20.31,72.12,20.51,138.13-23.21-71.85,36.35-114.29-.95-143.6,20.74Z"></path> <path class="cls-57" d="m571.93,776.29c42.77-31.65,30-94.45,16.74-147.82-4.36,25.04-19.21,57.45-43.24,110.33-4.47,9.85-11.17,17.78-19.27,23.77-32.38,23.96-65.78,8.93-96.3,8.63-3.22,4.29-7.37,8.16-12.09,11.65-1.02.75-2.21,1.58-3.54,2.46,45.36-13.81,101.38,32.66,157.71-9.03Zm.12-66.4c4.63-8.79,9.1-17.92,16.24-25.17l.43-.31c6.94,25.8,1.67,63.19-21.11,80.04-11.44,8.47-22.62,9.02-25.67,4.91-9.29-12.55,23.52-46.95,30.12-59.47Z"></path> <path class="cls-22" d="m544.27,679.46c4.41-17.91,21.7-27.4,32.09-47.41-9.4,14.04-23.09,27.39-37.29,39.3,9.15,27.4-31.69,71.07-56.75,89.61-2.79,2.06-8.98,4.21-17.44,5.87,13.05-1.01,26.16-5.77,38.66-15.02,22.86-16.92,33.67-43.7,40.73-72.36Z"></path> <path class="cls-73" d="m541.93,769.35c3.05,4.12,14.22,3.56,25.67-4.91,22.78-16.86,28.05-54.24,21.11-80.04l-.43.31c-7.13,7.25-11.6,16.38-16.24,25.17-6.59,12.51-39.4,46.91-30.12,59.47Z"></path> <path class="cls-22" d="m508.72,474.18c-4.05-5.47-8.98-10.29-14.33-14.73-5.72-4.75-11.24-9.5-16.69-14.22,1.33,2.25,2.36,4.6,3.12,6.97,5.01,4.11,9.74,9.09,14.15,15.04.18.25.38.5.58.77,5.02,1.61,9.29,4.93,12.34,9.06,12.45,16.82-3.93,36.36.72,63.24,10.27-.24,20.83.98,30.81,3.75-6.93-5.19-12.11-10.06-14.54-13.35-16.6-22.43,2.78-30.95-16.15-56.52Z"></path> <path class="cls-65" d="m568.56,461.28c8.38,11.33,17.54,31.69,19.7,51.52,2.19-17.28-2.76-37.02-20.11-60.47-18.88-25.52-88.52-64.33-145.91-40.69,51.16,3.12,114.7,6.92,146.31,49.63Z"></path> <path class="cls-61" d="m569.92,552.9c-8.69-3.96-16.63-10.88-23.68-20.4-16.31-22.05-10.97-35.74-29.76-61.14-11.46-15.49-27.22-27.75-45.06-34.32,1.57,1.73,3.08,3.56,4.5,5.48.65.88,1.24,1.78,1.78,2.7,5.45,4.72,10.97,9.47,16.69,14.22,5.35,4.44,10.28,9.26,14.33,14.73,18.93,25.58-.45,34.09,16.15,56.52,2.43,3.29,7.61,8.16,14.54,13.35,9.97,2.76,19.35,7.06,27.25,12.98,1.11-1.36,2.19-2.74,3.25-4.13Z"></path> <path class="cls-11" d="m588.26,512.8c-2.17-19.84-11.32-40.2-19.7-51.52-31.61-42.72-95.15-46.51-146.31-49.63-.44.18-.88.35-1.31.54,8.56,1.06,16.88,3.23,24.63,6.57,28.17,2.68,56.46,16.25,73.32,39.04,13.32,18,15.99,40.12,28.42,56.92,9.83,13.28,22.52,17,36.3,15.27,2.27-5.46,3.89-11.17,4.65-17.18Zm-35.33-2.56c-14.76-19.94-10.05-50.33-11.29-56.71,5.94,4.45,11.25,9.98,15.83,16.17,8,10.81,25.06,43.9,14.27,51.89-3.96,2.93-14.68-5.76-18.81-11.34Z"></path> <path class="cls-74" d="m557.48,469.7c-4.58-6.19-9.89-11.72-15.83-16.17,1.24,6.38-3.47,36.76,11.29,56.71,4.13,5.58,14.85,14.28,18.81,11.34,10.79-7.99-6.27-41.08-14.27-51.89Z"></path> <path class="cls-57" d="m546.24,532.5c7.05,9.52,14.99,16.44,23.68,20.4,1.6-2.1,3.15-4.22,4.62-6.39,3.57-5.27,6.68-10.77,9.08-16.53-13.78,1.73-26.47-1.98-36.3-15.27-12.44-16.8-15.1-38.92-28.42-56.92-16.86-22.79-45.15-36.35-73.32-39.04,9.73,4.19,18.56,10.24,25.85,18.3,17.84,6.57,33.6,18.83,45.06,34.32,18.79,25.39,13.45,39.09,29.76,61.14Z"></path> <path class="cls-29" d="m473.45,724.63c-13.59-18.36-60.19-6.87-90.94-20.76-2.38-1.07-6.52-2.28-8.89-.53-1.9,1.41-2.47,4.86-.52,7.5.56.76,3.49,3.54,7.68,6.27.26.37.52.74.8,1.11,18.32,24.76,56.38,42.98,83.35,23.02,7.31-5.41,12.78-10.87,8.53-16.62Z"></path> <path class="cls-7" d="m338.76,667.54c26.87,15.8,56.55,50.31,106.18,32-6.8-.54-14.31-.95-22.78-.94-29.43,0-55.48-14.55-72.09-36.99-1.14-1.54-2.24-3.13-3.29-4.74-16.23-.35-31.93-7.29-46.99-25.95,3.8,12.72,5.36,25.86-1.28,38.39,13.72-9.54,21.51-12.77,40.25-1.76Z"></path> <path class="cls-16" d="m421.45,767.6c.54.05,15.87,1.39,33.5.82,13.52-1.7,23.58-4.65,27.37-7.46,25.06-18.54,65.9-62.21,56.75-89.61-.21.18-.42.35-.63.52-3.23,24.38-15.73,54.28-45.32,76.18-78.29,57.94-145.17-68.22-217.15-57.02-1.33.81-2.79,1.68-4.35,2.6.05.2.11.39.17.59,7.45.23,14.04.06,20.45.98,50.7,5.42,54.76,65.09,129.21,72.4Z"></path> <path class="cls-8" d="m421.45,767.6c-74.46-7.31-78.52-66.97-129.21-72.4,12.71,1.83,24.68,7.97,41.11,30.17,3.84,5.18,7.49,10.51,11.2,15.52,3.9,5.27,7.82,9.15,11.76,12.14,23.34,12.55,50.96,16.75,74.53,16.81,8.73.02,16.91-.53,24.11-1.43-17.64.57-32.96-.77-33.5-.82Z"></path> <path class="cls-97" d="m493.12,748.06c29.59-21.9,42.09-51.8,45.32-76.18-7.94,6.63-16.01,12.81-23.57,18.4-2.54,1.88-4.99,3.48-7.38,4.85-2.25,18.18-10.81,37.22-29.06,50.73-48.27,35.72-101.82-19.54-139.64-51.59-15.6-13.22-34.88-14.1-53.32-9.66-.88.72-1.78,1.43-2.74,2.14-.87.64-3.37,2.24-6.76,4.3,71.98-11.2,138.86,114.96,217.15,57.02Z"></path> <path class="cls-25" d="m493.61,623.37c4.09-3.02,7.05-7.24,7.9-12.58,6.65-41.42,24.84-40.78,11.92-58.24-.72-.98-1.52-1.92-2.36-2.86.28.81.58,1.63.9,2.45,1.53,3.84,1.25,8.44-.35,12.38-.03,3.25-1.47,6.24-5.56,9.27-3.04,2.25-6.32,4.47-9.47,6.8-9.91,7.34-18.49,15.76-13.74,29.43-.86.42-1.73.78-2.6,1.12,1.95,1.53,3.9,3.12,5.86,4.81-36.15-3.08-71.3,21.2-104.65,33.73,23.65-1.38,54.38-15.5,67.95-18.95,16.61-4.22,31.22,2.23,44.21-7.38Z"></path> <path class="cls-13" d="m496.59,580.6c3.15-2.33,6.44-4.55,9.47-6.8,4.1-3.03,5.53-6.02,5.56-9.27-1.11,2.74-2.85,5.17-5.07,6.82,0,0-31.29,17.53-47,26.33,6.87,3.63,13.77,8.07,20.68,13.48.87-.34,1.74-.71,2.6-1.12-4.75-13.68,3.83-22.1,13.74-29.43Z"></path> <path class="cls-79" d="m517.8,629.42c4.11-1.31,7.86-3.27,11.19-5.74,16.69-12.35,26.1-40.42,7.17-66-5.29-7.15-11.99-12.84-19.55-17.26-2.68-.14-5.36-.17-8.01-.11.53,3.03,1.33,6.16,2.47,9.39.83.93,1.63,1.88,2.36,2.86,12.92,17.46-5.27,16.82-11.92,58.24-.86,5.34-3.82,9.55-7.9,12.58-12.99,9.61-27.59,3.16-44.21,7.38-13.57,3.45-44.3,17.56-67.95,18.95-4.3,1.62-8.57,3.04-12.81,4.18,56.21,17.86,61.33,3.5,149.16-24.46Z"></path> <path class="cls-2" d="m575.39,572.91c-11.51-15.55-26.91-24.57-40.58-30.01-2.04-.46-4.1-.86-6.17-1.2,13.9,9.91,23.48,20.1,26.35,23.98,13.24,17.89,9.4,40.99-7.96,57.7-13.76,13.24-.86,39.03-20.8,53.78-12.33,9.13-31.59,9.23-45.88,7.64-84.06-9.39-98.84-3.96-133.53-27.94,0,0-.02,0-.03,0,1.05,1.62,2.14,3.2,3.29,4.74,16.61,22.44,42.66,36.99,72.09,36.99,46.92-.03,64.56,12.51,92.71-8.32,7.76-5.74,16.06-12.09,24.2-18.92,10.86-9.11,21.43-19.06,30.01-29.53,15.41-23.44,21.71-48.11,6.32-68.92Z"></path> <path class="cls-74" d="m579.1,569.4c-3.49-4.71-7.7-8.83-12.43-12.37-9.11-6.82-20.19-11.49-31.86-14.13,13.67,5.44,29.08,14.47,40.58,30.01,15.39,20.8,9.09,45.48-6.32,68.92,18.74-22.86,27.98-48.16,10.03-72.42Z"></path> <path class="cls-2" d="m456.55,675.75c27.46-2.35,50.65,4.76,60.62-2.62,8-5.92,11.01-16.8,4.43-25.7-15.63-21.12-59.78,23.86-79.2,16.67-.38,2.57.29,4.76,1.59,6.52,2.72,3.67,8.17,5.51,12.56,5.13Z"></path> <path class="cls-57" d="m264.78,592.9c-10.03-13.55-15.46-13.73-23.69-24.86-23.89-32.29-5.68-71.15-33.28-108.44-3.71-5.02-6.61-7.92-11.49-14.52-8.04-10.86-14.95-22.77-22.99-33.63-3.01-4.07-6.18-7.98-9.62-11.65-7.46-2.84-14.99-2.51-22.6,3.12-8.38,6.2-5.21,23.06-5.57,36.09.88-.54,1.76-1.03,2.65-1.45,16.64-7.92,35.09,4.8,45.27,18.56,17.21,23.26,7.11,81.42,40.52,126.56,6.88,9.3,16.83,18.16,26.93,31.82,5.14,6.95,8.82,13.53,11.23,19.71,7.49,2.51,14.22,5.2,19.67,8.67-.47-17.06-5.87-34.9-17.04-49.99Z"></path> <path class="cls-61" d="m196.31,445.08c4.89,6.6,7.78,9.5,11.49,14.52,27.59,37.29,9.39,76.15,33.28,108.44,8.23,11.12,13.66,11.3,23.69,24.86,11.17,15.09,16.57,32.94,17.04,49.99,3.57,2.28,6.58,4.88,8.89,8,8.78,11.87,3.13,24.76-9.69,34.25-3.07,2.27-6.44,4.33-9.86,6.25.13.75.28,1.5.47,2.24,5.55-3.26,9.91-6,11.12-6.89,8.56-6.33,13.88-12.99,16.93-19.79,7.61-52.21-81.48-112.81-73.95-193.37-4.51-9.65-4.9-16.48-5.49-24.35-13.68-10-27.6-28.41-41.78-40.21-4.88-4.06-9.8-7.34-14.74-9.22,3.44,3.66,6.61,7.58,9.62,11.65,8.04,10.87,14.96,22.77,22.99,33.63Z"></path> <path class="cls-22" d="m299.66,666.94c5.29-11.82,3.7-24.11.13-36.04-1-1.24-1.99-2.52-2.99-3.86-2.3-3.11-10.23-23.04-19.01-46.62-5.05-4.59-9.79-9.47-13.79-14.87-14.19-19.17-4.44-17.25-25.5-64.82-3.25-7.34-7.22-15.84-12.14-25.78-.23-.47-.44-.92-.65-1.38-7.53,80.57,81.56,141.17,73.95,193.37Z"></path> <path class="cls-73" d="m250.91,614.51c-10.11-13.66-20.05-22.52-26.93-31.82-33.41-45.15-23.31-103.3-40.52-126.56-10.19-13.76-28.63-26.49-45.27-18.56-.89.42-1.77.9-2.65,1.45-.04,1.43-.12,2.81-.26,4.13-.03.26-.06.52-.09.78-.94,8.37-2.35,17-2.93,25.49-.17,2.41-.26,4.82-.26,7.2.58,1.41,1.28,2.79,2.12,4.15,21.42,34.2,35.18,85.12,49.95,105.08,17.05,23.04,43.24,27.96,62.93,43.63,5.26,1.61,10.36,3.14,15.16,4.74-2.41-6.18-6.09-12.76-11.23-19.71Zm-85.02-94.35c-13.76-18.59-31.78-50.71-13.41-64.3.22-.16.64-.43,1.14-.73,7.15.3,18.67,5.74,24.19,13.19,9.87,13.34,8.94,57.96,6.05,60.1-7,5.18-12.07-.28-17.97-8.25Z"></path> <path class="cls-8" d="m134.11,480.76c-.85-1.36-1.55-2.74-2.12-4.15-.01,10.75,1.95,21.07,8.64,30.12,11.66,15.75,17.81,30.28,22.47,43.36,5.59,15.66,9.03,29.24,17.21,40.28,17.33,23.42,43.58,32.04,66.68,39.1-19.69-15.67-45.88-20.6-62.93-43.63-14.77-19.96-28.52-70.87-49.95-105.08Z"></path> <path class="cls-92" d="m177.8,468.32c-5.52-7.46-17.03-12.89-24.19-13.19-.5.3-.92.57-1.14.73-18.37,13.6-.35,45.71,13.41,64.3,5.9,7.97,10.97,13.43,17.97,8.25,2.89-2.14,3.82-46.76-6.05-60.1Z"></path> <path class="cls-29" d="m247.78,317.56c61.46-45.48,112.35,70.26,140.75,60.21-.47-.69-.95-1.39-1.46-2.08-3.78-5.11-8.07-9.7-12.1-14.59-3.22-1.83-6.43-4.51-9.26-8.33-4.76-6.44-7.49-18.27-17.79-32.18-27.73-37.48-58.27-19.04-90.82-18.14-9.02.25-17.33-4.48-30.92,5.58-18.81,13.92-19.48,34.87-24.92,52.7-1.94,11.71-5.91,24.34-17.02,38.02,2.05.35,4.79.01,7.69-2.13,7.96-5.89,24.24-55.67,55.86-79.07Zm97.21,5.84c5.94,8.02,6.13,10.91,2.42,13.66-9.66,7.15-26.98-21.91-44.01-28.05.87-1.53,2.01-2.83,3.33-3.81,9.02-6.67,30.67,7.93,38.26,18.19Z"></path> <path class="cls-65" d="m257.1,302.45c32.55-.9,63.08-19.33,90.82,18.14,10.29,13.91,13.02,25.74,17.79,32.18,2.83,3.82,6.04,6.5,9.26,8.33-1.21-1.47-2.4-2.95-3.54-4.5-7.34-9.93-12.68-25.27-23.85-40.36-9.85-13.31-22.47-23.31-40.53-21.91-65.87,5.09-69.66-.12-83.94,10.45-7.7,5.7-12.23,11.7-15.04,18.04-5.08,11.46-4.52,24.03-6.81,37.91,5.44-17.83,6.12-38.79,24.92-52.7,13.59-10.06,21.9-5.33,30.92-5.58Z"></path> <path class="cls-7" d="m321.93,339.77c-13.55-18.31-36.38-19.51-54.08-11.73,1.58-.42,3.2-.74,4.84-.98.35-.14.7-.3,1.05-.44-.35.14-.7.3-1.05.44,17.32-2.44,38.12,6.13,63.79,40.83,1.79,2.42,2.14,6.84,3.74,9,.09.12,28.32,2.26,43.78,17.7-13.82-18.12-38.93-22.13-51.58-39.22-3.71-5.01-6.78-10.58-10.5-15.6Z"></path> <path class="cls-97" d="m347.41,337.06c3.71-2.75,3.52-5.64-2.42-13.66-7.59-10.26-29.24-24.86-38.26-18.19-1.32.98-2.46,2.28-3.33,3.81,17.03,6.13,34.35,35.2,44.01,28.05Z"></path> <path class="cls-92" d="m294.11,362.64c-2.21-2.99-4.84-5.87-6.87-8.61-2.52-3.4-25.97-7.57-38.22,1.49-3,2.22-4.23,3.94-4.61,5.49-4.97,6.12-7.02,15.95-2.12,22.57,6.49,8.77,20.84-3.44,30.32-2.44,7.55.8,16.77,3.86,22.14-.12,4.32-3.2,6-9.42-.63-18.39Z"></path> <path class="cls-13" d="m256.94,505.4c5.2,2.92,9.94,6.99,14.23,11.6-.53-12.99,3.21-26.01,10.6-50.51-10.73,13.77-14.28,32.82-17.14,34.94-2.11,1.56-5.31,2.25-7.68,3.97Z"></path> <path class="cls-79" d="m393.02,410.09c-.92-3.76-2.63-7.59-5.48-11.45-9.48-12.81-27.4-18.15-38.26-20.33-5.37-1.08-9.01-1.38-9.05-1.42-1.6-2.16-1.94-6.57-3.74-9-9.8-13.24-18.88-22.66-27.33-29.13-2.77-1.25-5.65-2.35-8.64-3.26,9.82,8.55,18.5,18.53,26.36,29.14,13.18,17.81,29.3,36.81,5.54,54.39-16.42,12.15-29.04-7.64-51.49,8.98-14.9,11.03-15.83,26.84-20.01,29.93-4.88,3.61-13.68-.29-17.49-5.44-6.95-9.39-12.34-21.13-19.51-30.82-3.55-4.79-7.53-9.07-12.35-12.32.56,4.16,1.56,8.35,3.06,12.54,4.3,12,5.04,20.11,5.59,27.34.63,8.23,1.01,15.33,6.15,25.72,1.22,2.46,2.37,4.83,3.48,7.12,8.16,3.69,20.81,14.23,29.69,7.66,9.45-6.99,11.87-43.81,29.37-56.76,17.55-12.98,40.15,4.29,57.37-5.94,13.9-8.26,30.46-15.67,46.74-16.93Z"></path> <path class="cls-7" d="m243.43,452.49c3.81,5.15,12.62,9.05,17.49,5.44,4.18-3.09,5.11-18.9,20.01-29.93,22.46-16.62,35.07,3.18,51.49-8.98,23.76-17.58,7.63-36.58-5.54-54.39-7.86-10.62-16.54-20.59-26.36-29.14-7.66-2.35-15.97-3.44-24.69-2.43,9.08,4.37,17.34,11.85,25.87,23.38,5.12,6.92,19.54,30.83,12.63,35.94-12.84,9.5-31.37-6.48-49.31,6.79-1.77,1.31-2.17,1.86-3.34,2.73-6.57,4.86-21.68-.85-27.06-8.12-3.61-4.88-8.69-15.09-10.71-25.47-5.66,8.68-9.94,18.38-12.72,28.58-.29,4.1-.18,8.26.39,12.45,4.82,3.25,8.8,7.53,12.35,12.32,7.17,9.69,12.57,21.43,19.51,30.82Z"></path> <path class="cls-25" d="m250.83,502.6c2.1.74,4.14,1.69,6.1,2.8,2.37-1.72,5.57-2.41,7.68-3.97,2.86-2.12,6.41-21.16,17.14-34.94.58-1.91,1.17-3.88,1.79-5.94-1.28-10.59.05-19.19,6.4-23.89,1.23-.91,2.63-1.67,3.79-2.53,7.54-5.58,34.14,9.53,48.27-.92.05-.03.63-.48,1.08-.81,14.41-10.66,32.2-17.56,50.41-20-.12-.76-.29-1.53-.48-2.3-16.28,1.27-32.84,8.67-46.74,16.93-17.22,10.23-39.83-7.04-57.37,5.94-17.5,12.95-19.92,49.77-29.37,56.76-8.88,6.57-21.53-3.97-29.69-7.66,3.36,6.96,6.22,13.14,8.66,18.67,21.07,47.57,11.32,45.65,25.5,64.82,4,5.4,8.74,10.28,13.79,14.87-10.51-28.25-22.24-61.73-26.96-77.82Z"></path> <path class="cls-92" d="m300.53,335.5c2.98.91,5.87,2.02,8.64,3.26-5.57-4.27-10.87-7.25-15.92-9.18-10.78-4.13-20.41-3.48-29.1-.39-6.74,2.4-12.92,6.25-18.64,10.49-8.77,6.49-16.46,14.46-22.34,23.38-6.77,10.27-11.12,21.81-11.98,33.84,2.78-10.2,7.05-19.9,12.72-28.58,5.63-8.63,12.62-16.25,20.86-22.35,10.64-7.87,21.12-11.75,31.07-12.9,8.72-1.01,17.04.08,24.69,2.43Z"></path> <path class="cls-76" d="m472.6,562.68c3.89,5.25,9.05,4.57,16.17,6.23,2.79.65,4.11,3.03,5.85,5.07,2.59-2.45,5.14-5.01,7.59-7.78,13.84-15.67-1.1-22.71,1.8-74.02.14-2.55-.71-4.86-2.19-6.86-.56-.76-1.22-1.48-1.95-2.15-.3.33-.65.65-1.06.96,0,0-2.57,1.29-6.61,3.32-.45.89-.94,1.75-1.45,2.61.05.06.1.12.15.18,14.69,19.85-37.58,46.4-18.31,72.44Zm24.22-39.87c.47.64,4.74,32.9-1.65,37.63-4.34,3.22-8.52-.19-11.73-4.53-5.06-6.83-6.18-13.29-2.29-19.36,1.04-5.58,3.54-10.98,7.74-14.1,3.05-2.25,5.53-2.88,7.92.36Z"></path> <path class="cls-50" d="m496.83,522.82c-2.4-3.24-4.88-2.61-7.92-.36-4.21,3.11-6.7,8.52-7.74,14.1-3.89,6.07-2.77,12.53,2.29,19.36,3.21,4.34,7.39,7.74,11.73,4.53,6.4-4.73,2.12-36.99,1.65-37.63Z"></path> <path class="cls-87" d="m511.98,552.15c-1.64-4.1-2.71-8.05-3.37-11.84-4.66-26.88,11.73-46.42-.72-63.24-3.05-4.12-7.32-7.45-12.34-9.06,3.14,4.16,8.33,10.77,4.33,15.17.73.67,1.38,1.39,1.95,2.15,1.48,2,2.33,4.3,2.19,6.86-2.9,51.31,12.04,58.35-1.8,74.02-2.45,2.78-5,5.33-7.59,7.78-3.13,2.96-6.32,5.76-9.49,8.57-.81.72-1.61,1.43-2.42,2.16,1.07-.6,2.12-1.19,3.17-1.77,11.16-6.26,20.67-11.58,20.67-11.58,5.43-4.02,8.02-12.69,5.42-19.2Z"></path> <path class="cls-64" d="m442.31,570.34c6.96,9.4,31.6,6.81,42.82,12.21,3.17-2.81,6.36-5.61,9.49-8.57-1.75-2.04-3.07-4.42-5.85-5.07-7.11-1.65-12.28-.97-16.17-6.23-19.27-26.04,33-52.59,18.31-72.44-.05-.06-.1-.12-.15-.18-1.3,2.22-2.77,4.34-4.36,6.37-1.34,30.23-64.07,46.91-44.09,73.9Z"></path> <path class="cls-88" d="m485.13,582.55c-11.22-5.4-35.86-2.81-42.82-12.21-19.98-26.99,42.75-43.67,44.09-73.9-4.61,5.87-10.27,10.95-16.05,15.22-11.57,8.56-22.59,19-32.63,29.46-5.55,15.14-22.07,28.12-14.25,38.69,3.96,5.35,24.98,5.31,37.95,16.83,6.04-3.39,13.86-7.77,21.29-11.93.8-.72,1.61-1.44,2.42-2.16Z"></path> <path class="cls-58" d="m437.72,541.12c-14.53,15.13-27.01,30.3-36.15,39.88,18.92,2.35,38.35,6.3,57.99,16.68.6-.34,1.22-.69,1.86-1.04-12.97-11.51-33.99-11.48-37.95-16.83-7.82-10.57,8.7-23.55,14.25-38.69Z"></path> <path class="cls-8" d="m378.31,582.02c16.11.37,32.29,2.13,48.32,3.38-8.43-2.04-16.8-3.37-25.06-4.4-13.67-1.69-27.07-2.55-40.09-4.38-20.58-2.89-40.2-8.21-58.42-23.1-6.85-5.6-13.5-12.54-19.92-21.23-1.66-2.25-2.15-3.09-4.23-5.89-2.4-3.24-4.98-6.43-7.74-9.4-5.91-6.35-12.67-11.69-20.33-14.4.78,2.66,1.76,5.8,2.88,9.31,21.1,9.07,51.02,68.42,124.6,70.11Z"></path> <path class="cls-92" d="m372.15,612.06c3.11-2.3,14.01-11.54,11.71-14.65-6.65-8.99-24.09-3.61-34.81-5.37-19.57-3.2-37.16-24.95-47.17-17.55-1.17.87-1.86,1.87-2.22,2.88,2.68,5.25,5.72,10.3,9.16,14.94,20.76,28.06,49.69,29.84,63.33,19.74Z"></path> <path class="cls-96" d="m290.79,609.22c-1.52-2.05-2.99-4.15-4.42-6.27,5,12.79,8.93,22.06,10.44,24.1.99,1.34,1.99,2.63,2.99,3.86,1.1,1.36,2.2,2.65,3.31,3.89,2.17,2.44,4.36,4.64,6.56,6.63,1.55,1.4,3.1,2.68,4.66,3.87,36.6,18.91,63.66,1.64,92.29-6.5,5.29-2.47,10.61-4.98,15.98-7.4-61.1,11.33-84.04,42.36-131.8-22.18Z"></path> <path class="cls-13" d="m314.32,645.29c10.55,8.01,21.38,11.33,32.46,11.56,19.25.41,39.25-8.46,59.83-18.06-28.64,8.14-55.69,25.41-92.29,6.5Z"></path> <path class="cls-79" d="m422.59,631.39c20.7-9.35,41.93-17.26,63.51-15.42-8.87-7.68-17.73-13.63-26.54-18.29-5.15-2.72-10.28-4.99-15.4-6.91-5.37,1.03-10.4,2.98-14.85,6.27-.31.23-4.98,4.12-8.53,6.74-32.91,24.35-85.6,41.63-111.32,6.87-6.1-8.24-16.58-30.4-28.76-46.85-4.44-6-9.34-11.63-14.96-16.61,3.9,11.01,8.07,22.49,12.06,33.23,3.02,8.12,5.94,15.8,8.57,22.52,1.43,2.12,2.9,4.22,4.42,6.27,47.76,64.54,70.7,33.51,131.8,22.18Z"></path> <path class="cls-52" d="m435.19,452.03c1.96,2.65,6.93,3.84,9.03,6.67,2.95,3.99-.79,15.9,4.39,22.89,3.54,4.79,11.36,7.19,17.54,2.61,2.2-1.63,12.14-12.96,5.91-21.38-5.39-7.29-30.83-18.71-36.52-14.5-.25.19-.49.36-.72.54-.42,1.02-.4,2.11.38,3.16Z"></path> <path class="cls-8" d="m500.79,476.51c-1.07-3.06-3.48-6.17-5.24-8.51-.2-.27-.4-.53-.58-.77-4.4-5.95-9.14-10.93-14.15-15.04-8.93-7.32-18.72-11.83-29.05-13.98,4.22,3.3,7.08,1.53,13.15,6.36.64.51,25.47,21.44,26.95,23.43,3.1,4.19,4.29,10.23,1.95,16.88-1.18,1.25-2.35,2.42-3.46,3.49.65-.32,1.27-.64,1.85-.93.24-.12.48-.24.72-.36,3.62-1.82,5.89-2.96,5.89-2.96,2.8-2.07,2.95-4.82,1.97-7.62Z"></path> <path class="cls-44" d="m427.26,503.53c-9.43-12.75,2.99-22.08-7.95-36.87-5.61-7.59-14.3-12.46-23.67-12.13,5.95.8,11.53,2.83,16.1,6.54,1.71,1.39,3.29,3.02,4.69,4.91,5.83,7.87,5.98,13.65,1.65,19.01,1.91,13.96-8.88,29.98-5.87,34.05,1.08,1.46,3.08,2.07,5.53,2.14.34-.27.68-.53,1.02-.78,7.04-5.21,14.9-3.73,22.2-7.16,0,0,8.32-4.19,18.66-9.38-13.69,4.66-27.18,6.67-32.34-.31Z"></path> <path class="cls-63" d="m437.88,489.04c-8.22-11.11-9-29.33-9.23-29.65-1.54-2.07-4.49-3.85-6.19-6.14-2.75-3.71-.59-8.6,3.03-11.28,4.15-3.07,10.55-4.17,15.99-5.12-20.62-1.22-42.81,5.98-64.12,18.55,6.04-1.23,12.34-1.66,18.28-.87,9.37-.33,18.06,4.55,23.67,12.13,10.94,14.79-1.48,24.12,7.95,36.87,5.17,6.98,18.66,4.98,32.34.31,1.78-.89,3.62-1.82,5.48-2.76-10.1,1-20.18-2.54-27.21-12.04Z"></path> <path class="cls-25" d="m202.07,421.67c-2.93,2.17-8.19-1.68-12.83-4.93-1.55-.75-3.12-1.58-4.72-2.27,12.09,11.47,23.98,26.19,35.7,34.76-.55-7.23-1.29-15.35-5.59-27.34-8.42-23.48-1.41-47.09,13.39-65.48-3.54,3.45-6.92,7.09-10.12,10.93-13.99,16.8-9.97,49.99-15.83,54.33Z"></path> <path class="cls-20" d="m388.53,377.77c-28.4,10.05-79.29-105.69-140.75-60.21-31.62,23.4-47.9,73.19-55.86,79.07-2.89,2.14-5.64,2.48-7.69,2.13-.44.55-.9,1.09-1.36,1.64-2.36,2.77-3.73,5.66-4.44,8.61,2.03,1.69,4.06,3.53,6.08,5.44,1.6.69,3.17,1.52,4.72,2.27,4.64,3.25,9.9,7.1,12.83,4.93,5.86-4.34,1.84-37.53,15.83-54.33,3.2-3.84,6.58-7.48,10.12-10.93,5.03-6.25,10.95-11.9,17.48-16.73,6.75-5,14.15-9.48,22.36-11.64,17.7-7.78,40.52-6.58,54.08,11.73,3.72,5.02,6.79,10.59,10.5,15.6,12.65,17.09,37.76,21.1,51.58,39.22,1.27,1.26,2.46,2.61,3.53,4.05,3.44,4.65,5.23,9.27,5.96,13.75.79-.11,1.59-.2,2.38-.29,2.41-10.87.52-22.7-7.35-34.33Z"></path> <path class="cls-21" d="m468.09,434.03c-32.09-30.82-79.84-22.96-122.7-1.09-6.22,3.17-17.66,6.69-22.95,3.67-9.17-1.08-18.47-4.03-24.4-3.73-1.07.58-2.09,1.21-3.04,1.91-10.94,8.09-9.42,21.66-1.26,32.69,5.62,7.59,11.92,21.23,47.75-5.28,6.41-4.74,12.58-9.94,19.03-14.72,43.06-31.86,89.53-8.5,107.56-13.46Zm-166.03,33.29c-6.21-8.4-6.26-14.12-3.79-17.85,6.58-2.87,19.39,4.56,32.98.35,3.66-1.13,16.08-9.13,18.96-5.24.56.75-1.67,2.8-2.53,3.44-37.23,27.55-38.27,29.23-45.62,19.3Z"></path> <path class="cls-50" d="m302.05,467.32c7.35,9.93,8.39,8.26,45.62-19.3.86-.64,3.09-2.69,2.53-3.44-2.88-3.89-15.3,4.1-18.96,5.24-13.59,4.21-26.4-3.22-32.98-.35-2.47,3.73-2.42,9.45,3.79,17.85Z"></path> <path class="cls-93" d="m475.92,442.53c-2.3-3.11-4.81-5.97-7.5-8.59-12.8-12.52-29.61-19.54-47.49-21.75-8.22-1.02-16.67-1.02-25.06-.08-.79.09-1.59.19-2.38.29-18.21,2.44-36,9.34-50.41,20-.45.33-1.03.77-1.08.81-5.32,3.93-12.4,4.25-19.57,3.41,5.29,3.02,16.73-.5,22.95-3.67,42.85-21.87,90.61-29.73,122.7,1.09,3.22,3.09,6.28,6.57,9.17,10.47,0,0,0,0,0,0-.42-.67-.86-1.33-1.34-1.98Z"></path> <path class="cls-26" d="m308.16,505.37c-2.92,2.16-8.23,4.53-10.46,1.51-1.02-1.38-1.94-3.45-3.23-5.19-.01-.02-.03-.03-.04-.05,2.05,6.4,4.07,12.77,5.74,18.86,4.95-6.78,9.73-13.72,15.05-20.13,4.13-4.97,8.59-9.6,13.72-13.56-2.04.93-3.96,2.04-5.72,3.34-5.81,4.3-9.69,11.24-15.06,15.21Z"></path> <path class="cls-10" d="m480.82,452.2c-.85-2.62-2.02-5.23-3.56-7.69,0,0,0,0,0,0-2.88-3.9-5.95-7.37-9.17-10.47-18.03,4.96-64.5-18.4-107.56,13.46-6.45,4.77-12.62,9.97-19.03,14.72-35.82,26.51-42.13,12.87-47.75,5.28-8.16-11.03-9.68-24.6,1.26-32.69.95-.7,1.97-1.34,3.04-1.91-1.76.09-3.23.45-4.3,1.25-1.17.86-2.57,1.63-3.79,2.53-6.35,4.7-7.68,13.3-6.4,23.89.81,6.69,2.65,14.19,4.93,22,3.11,5.4,5.94,10.84,8.23,13.94,2.86,3.86,7.6,2.01,10.9-.43.06-.04,6.84-6.21,13.23-10.95,15.42-11.41,31.74-20.19,48.66-24.82,2.6-1.71,5.22-3.36,7.86-4.91,35.89-21.17,74.31-27.12,103.46-3.2Z"></path> <path class="cls-9" d="m307.61,496.08c-3.3,2.44-8.04,4.29-10.9.43-2.29-3.1-5.12-8.54-8.23-13.94,1.81,6.24,3.9,12.67,5.95,19.08.01.02.03.03.04.05,1.29,1.74,2.21,3.81,3.23,5.19,2.24,3.02,7.54.65,10.46-1.51,5.37-3.97,9.24-10.91,15.06-15.21,1.76-1.3,3.68-2.4,5.72-3.34.35-.27.69-.54,1.04-.81.38-.28.76-.55,1.14-.8,5.72-3.81,11.25-4.56,16.23-8.24.01-.01,6.6-5.55,12.78-10.13,3.09-2.29,6.22-4.46,9.37-6.53-16.92,4.63-33.25,13.41-48.66,24.82-6.4,4.73-13.18,10.91-13.23,10.95Z"></path> <path class="cls-69" d="m428.31,538.68c5-3.7,9.47-8.24,6.08-12.82-1.45-1.96-5.58-.07-8.9,1.96-5.21,1.51-10.29,4.28-14.99,7.75-22.89,16.94-23.77,31.83-6.27,18.88,2.86-2.12,5.6-4.63,8.44-6.74,3.78-2.8,8.2-3.9,8.3-3.97,1.86-1.38,4.67-3.11,7.33-5.08Z"></path> <path class="cls-67" d="m401.57,581c11.41-11.95,28-32.58,47.27-51-19.2,15.44-24.48,25.68-38.02,35.7-16.92,12.52-27.01,8.44-45.53,8.42-1.26.88-2.52,1.73-3.81,2.5,13.02,1.83,26.42,2.68,40.09,4.38Z"></path> <path class="cls-8" d="m477.18,499.7c3.24-1.95,6.7-3.48,10.29-4.68,1.78-2.4,3.38-4.92,4.73-7.57-15.18,7.63-51.26,25.77-51.26,25.77-7.3,3.43-15.15,1.95-22.2,7.16-6.65,4.92-13.95,13.26-21.75,22.24-3.59,4.14-7.3,8.41-11.09,12.55,14.31-11.27,18.06-20.48,28-27.84,10.87-8.04,25.21-4.77,63.27-27.64Z"></path> <path class="cls-38" d="m448.84,530c6.87-6.56,14.07-12.84,21.51-18.35,2.97-2.2,5.91-4.61,8.69-7.23-6.9,2.92-13.32,6.86-19.44,11.39-16.11,11.92-31.23,28.86-43.05,37.6-12.81,9.48-28.05,15.73-43.77,14.81-1.92,1.68-3.85,3.26-5.8,4.7-.56.41-1.13.8-1.69,1.2,18.52.02,28.61,4.11,45.53-8.42,13.54-10.02,18.82-20.26,38.02-35.7Z"></path> <path class="cls-87" d="m303.44,552.2c.28-1.07.48-2.19.62-3.37.92-7.69-.94-17.57-3.89-28.34-5.44-19.81-14.53-42.57-16.62-59.94-.61,2.02-1.2,3.96-1.76,5.84-.03.11-.06.21-.1.32.03.29.06.59.08.88,0,.9.05,1.81.13,2.72,1.86,21.1,22.02,46.92,18.45,76.15-.08.68-.18,1.36-.28,2.04-.11.7-.24,1.4-.38,2.11,1.12,1,2.24,1.97,3.37,2.89.14-.43.26-.87.38-1.32Z"></path> <path class="cls-56" d="m288.5,533.6c4.65,6.28,8.54,10.34,11.86,12.88,3.57-29.24-16.59-55.05-18.45-76.15.23,18.32-10.86,39.69,6.59,63.27Z"></path> <path class="cls-101" d="m300.07,548.52c-6.69-7.15-14.4-14.65-20.34-22.67-3.78-5.11-6.83-10.42-8.43-15.98-.18,2.43-.23,4.78-.13,7.14,2.76,2.97,5.34,6.16,7.74,9.4,2.08,2.8,2.57,3.64,4.23,5.89,5.37,7.25,10.89,13.28,16.56,18.33.14-.71.27-1.41.38-2.11Z"></path> <path class="cls-36" d="m300.07,548.52c.11-.68.2-1.36.28-2.04-3.31-2.54-7.21-6.6-11.86-12.88-17.45-23.58-6.36-44.95-6.59-63.27-.08-.92-.12-1.83-.13-2.72-.02-.3-.05-.59-.08-.88-6.01,19.93-9.58,32.24-10.39,43.15,1.6,5.56,4.66,10.87,8.43,15.98,5.93,8.02,13.65,15.52,20.34,22.67Z"></path> <path class="cls-12" d="m367.93,566.73c6.8-4.61,13.5-9.47,20.33-14.14,2.98-3.32,5.9-6.68,8.75-9.96,1.24-2.46,2.37-5,3.43-7.57-5.07,5.22-10.63,10.18-16.68,14.66-30.52,22.58-60.41,10.33-79.65-1.15-.2,1.77-.54,3.42-1.04,4.95,3.84,3.14,7.76,5.84,11.72,8.2,15.56,4.17,33.28,18.49,53.15,5.02Z"></path> <path class="cls-43" d="m367.93,566.73c-19.87,13.47-37.6-.85-53.15-5.02,14.83,8.81,30.47,12.63,46.7,14.91,1.87-1.13,3.7-2.36,5.51-3.7,7.36-5.44,14.47-12.76,21.27-20.33-6.82,4.67-13.52,9.53-20.33,14.14Z"></path> <path class="cls-8" d="m412.16,495.06c.46-1.93.93-3.85,1.39-5.76-.33.26-.68.52-1.03.79-26.57,19.66-64.23-11.66-97.31,10.28-5.32,6.4-10.1,13.35-15.05,20.13.01.04.02.08.03.12.12.46.24.91.36,1.36.22-.33.44-.66.66-.99,4.58-6.81,9.49-13.3,15.81-17.97,33.45-24.75,60.07,4.87,94.57-7.65.17-.06.35-.12.52-.19,0-.04.02-.08.03-.12Z"></path> <path class="cls-45" d="m317.04,503.03c-6.32,4.68-11.24,11.16-15.81,17.97,20.82,7.91,41.17,33.36,69.75,12.22,9.49-7.02,11.66-17.31,30.67-31.37,3.2-2.37,6.53-4.52,9.96-6.47-34.5,12.52-61.12-17.1-94.57,7.65Zm53.99,20.51c-25.08,18.56-43.85,9.35-48.33,3.29-4.41-5.96-1.48-11.97,4.51-16.4,3.75-2.77,8.6-4.89,13.21-5.96.66-.67,1.36-1.28,2.08-1.82,9.84-7.28,31.47-2.72,33.99.68,3.29,4.45,2.1,14.61-5.45,20.2Z"></path> <path class="cls-33" d="m376.49,503.33c-2.51-3.4-24.15-7.96-33.99-.68-.72.53-1.42,1.15-2.08,1.82-4.61,1.07-9.46,3.18-13.21,5.96-5.99,4.43-8.92,10.44-4.51,16.4,4.48,6.06,23.26,15.26,48.33-3.29,7.56-5.59,8.74-15.75,5.45-20.2Z"></path> <path class="cls-8" d="m416.43,465.97c-1.4-1.89-2.97-3.51-4.69-4.91-9.14-7.42-22.29-8.13-34.38-5.67-3.42,2.02-6.82,4.19-10.18,6.47,17.49-5.56,37.97-6.11,46.16,4.96,3.38,4.57,3.88,13.41.59,22.17,8.18-6.58,9.79-13.16,2.49-23.03Z"></path> <path class="cls-51" d="m361.59,487.68c-5.35-7.23-17.85-6.51-29.51-3.08-.32.2-.64.4-.96.61-.38.25-.76.52-1.14.8-5.58,4.13-10.36,9.06-14.77,14.36,13.76-9.13,28.32-9.04,42.53-7.23,2.02-1.59,4.83-4.12,3.84-5.46Z"></path> <path class="cls-37" d="m413.34,466.83c-8.19-11.07-28.68-10.52-46.16-4.96-2.36,1.6-4.72,3.25-7.04,4.97-6.18,4.58-12.77,10.12-12.78,10.13-.52.38-1.04.73-1.57,1.05,13.52-3.82,27.75-4.85,35.64,5.81,1.62,2.19.89,6.42-2.1,8.63-1.53,1.13-3.39,2.14-5.48,3.06,14.09,2.06,27.39,2.91,38.68-5.45.35-.26.7-.52,1.03-.79.13-.1.25-.2.38-.3,3.28-8.76,2.79-17.6-.59-22.17Z"></path> <path class="cls-28" d="m381.42,483.84c-7.89-10.66-22.12-9.64-35.64-5.81-4.27,2.63-8.91,3.64-13.7,6.58,11.65-3.43,24.16-4.15,29.51,3.08.99,1.34-1.82,3.87-3.84,5.46,5.44.69,10.82,1.63,16.1,2.4,2.09-.92,3.95-1.93,5.48-3.06,2.99-2.21,3.72-6.44,2.1-8.63Z"></path> <path class="cls-29" d="m282.12,649.86c-7.61-10.28-21.64-15.62-34.91-16.78,10.25,5.65,19.95,11.8,24.75,18.29,11.73,15.85,8.37,30.74,3.13,37.71,2.04-1.25,4.04-2.55,5.92-3.94.33-.25.66-.5.98-.75,5.15-11.63,6.96-25.3.12-34.53Z"></path> <path class="cls-20" d="m290.7,650.89c-10.45-14.12-35.45-17.89-60.74-26.96,5.4,2.87,11.41,5.92,17.24,9.14,13.26,1.17,27.3,6.5,34.91,16.78,6.83,9.23,5.03,22.91-.12,34.53,12.12-9.41,17.26-21.94,8.71-33.5Z"></path> </g> </g> </g> </svg> 