<?xml version="1.0" encoding="UTF-8"?> <svg xmlns="http://www.w3.org/2000/svg" id="Layer_2" data-name="Layer 2" viewBox="0 0 264.06 811.17"> <defs> <style> .cls-1 { fill: #90757a; } .cls-2 { fill: #d5dbd7; } .cls-3 { fill: #9e909f; } .cls-4 { fill: #cfbfc3; } .cls-5 { fill: #aa9698; } .cls-6 { fill: #b9a4ae; } .cls-7 { fill: #967c80; } .cls-8 { fill: #ccb7be; } .cls-9 { fill: #a58c8f; } .cls-10 { fill: #d7cace; } .cls-11 { fill: #e2d2d3; } .cls-12 { fill: #c8b5c1; } .cls-13 { fill: #e3d9dc; } .cls-14 { fill: #decacf; } .cls-15 { fill: #bca3a9; } .cls-16 { fill: #908393; } .cls-17 { fill: #ded1d5; } .cls-18 { fill: #b2989c; } .cls-19 { fill: #c4acb3; } .cls-20 { fill: #c9b8ba; } .cls-21 { fill: #c1aeb9; } .cls-22 { fill: #b7a6a8; } .cls-23 { fill: #cdbbc7; } </style> </defs> <g id="clipping_mask" data-name="clipping mask"> <g> <path class="cls-2" d="m127.62,34.27c-3.73-4.03-5.69-6.15-5.69-6.15,0,0,1.88,2.18,5.47,6.33,1.71,2.14,3.6,4.96,5.92,8.22,1.96,3.49,4.5,7.36,6.55,12.14,4.41,9.38,8.32,21.57,10.63,36.11,2.43,14.53,3.01,31.38,2.39,49.92-.61,15.14-2.06,31.47-3.77,48.81-.04-.47-.07-.91-.11-1.39-.73-7.02-2.3-15.07-6.59-22.43-2.11-3.64-4.57-6.86-7.02-9.83-2.46-2.96-4.86-5.72-7.16-8.37-4.6-5.29-8.8-10-12.35-13.93-7.12-7.86-11.66-12.61-11.66-12.61,0,0,3.8,5.36,10.16,13.84,3.18,4.24,7.01,9.26,11.33,14.78,4.24,5.58,9.43,11.35,13.35,18.05,3.91,6.69,5.49,14.1,6.4,20.91.45,3.42.74,6.71,1.01,9.8.27,3.1.54,5.97.67,8.58.03.44.04.86.06,1.28-2.14,19.77-4.8,40.63-8.34,62.38-3.87,24.29-8.57,49.74-12.62,76.31-.5,3.32-1.01,6.66-1.52,10.01-.45,3.36-.91,6.74-1.36,10.13-.48,3.32-.89,6.66-1.28,10.02-1.46-6.31-3.3-13.59-5.64-21.31-3.52-11.61-7.86-21.78-11.62-28.8-1.84-3.53-3.5-6.29-4.68-8.17-1.2-1.87-1.87-2.9-1.87-2.9,0,0,.47,1.13,1.33,3.18.86,2.04,2.07,5,3.45,8.69,2.84,7.35,6.2,17.66,9.68,29.13,3.36,11.1,6.12,21.29,8.37,28.8-.07.64-.14,1.28-.22,1.92-.78,6.91-1.23,13.92-1.85,20.96-.18,3.53-.35,7.07-.53,10.63-.19,3.55-.37,7.12-.35,10.7-.04,3.58-.07,7.16-.11,10.72-.04,3.56.21,7.12.29,10.66l.19,5.3c.04,1.77.13,3.53.32,5.28.31,3.51.61,7.01.92,10.49.22,3.49.78,6.94,1.28,10.38.5,3.44,1,6.87,1.5,10.28.71,3.38,1.42,6.74,2.12,10.09.73,3.34,1.31,6.71,2.34,9.95,1.9,6.52,3.52,13.07,5.79,19.33,1.3,3.72,2.66,7.37,4.04,10.99-1.09-1.89-2.21-3.8-3.37-5.71-4.79-7.77-9.82-14.86-14.66-21.09-4.89-6.2-9.56-11.56-13.68-15.87-2.01-2.2-3.96-4.07-5.63-5.74-1.66-1.68-3.15-3.07-4.38-4.19-2.45-2.24-3.81-3.49-3.81-3.49,0,0,1.2,1.39,3.38,3.91,1.1,1.24,2.43,2.78,3.92,4.6,1.5,1.82,3.25,3.84,5.07,6.18,3.73,4.6,7.97,10.22,12.52,16.56,4.49,6.38,9.26,13.5,13.98,21.16,4.68,7.68,8.8,15.2,12.36,22.13,2.21,4.39,4.21,8.55,5.98,12.38,1.39,4,2.72,7.99,3.9,11.98,7.02,23.41,11.32,46.44,16.36,67.83,2.5,10.7,5.14,21.02,8.14,30.82,3,9.8,6.36,19.09,10.08,27.72,1.71,3.94,3.47,7.74,5.27,11.42-.13-.16-.26-.31-.4-.47-4.87-5.43-10.62-11.08-17.18-16.39-6.6-5.26-13.39-9.6-19.78-13.11-3.25-1.67-6.31-3.29-9.31-4.53-1.49-.64-2.9-1.31-4.3-1.84-1.41-.52-2.76-1.03-4.05-1.51-2.56-1.01-4.97-1.65-7.04-2.3-2.07-.67-3.9-1.12-5.39-1.45-2.98-.69-4.63-1.08-4.63-1.08,0,0,1.58.59,4.45,1.65,1.44.51,3.18,1.16,5.16,2.03,1.99.86,4.28,1.72,6.72,2.94,1.23.58,2.51,1.18,3.85,1.81,1.33.63,2.67,1.4,4.09,2.13,2.85,1.42,5.75,3.2,8.83,4.98,6.08,3.75,12.55,8.17,18.98,13.29,6.39,5.18,12.06,10.6,16.96,15.77,2.38,2.65,4.7,5.13,6.66,7.63,1,1.23,2.01,2.39,2.9,3.56.45.6.86,1.15,1.3,1.72,3.75,6.51,7.51,12.58,11.3,18.09,5.18,7.63,10.34,14.28,15.21,20.07,4.31,5.6,10.62,13.32,17.84,21.73,2.1,2.43,4.14,4.87,6.37,6.89,2.2,2.02,4.6,3.5,6.69,4.22l3.59,1.23-1.63-3.24c-1.69-3.36-4.02-5.67-6.01-7.55-2.03-1.87-3.8-3.38-5.25-4.64-2.9-2.5-4.55-3.83-4.55-3.83,0,0,.37.47,1.08,1.33-5-5.76-9.64-10.94-13.49-15.08-.4-.49-.8-1-1.21-1.5-1.46-2.25-3.08-5.2-4.47-8.95-1.82-4.9-3.69-11.01-4.21-17.81-.25-3.41-.08-6.95.68-10.57.74-3.63,1.99-7.36,3.28-11.25,2.67-7.83,4.3-15.73,4.88-22.91.65-7.19.33-13.7-.26-19.09-.62-5.39-1.59-9.67-2.36-12.59-.36-1.47-.73-2.58-.95-3.34-.23-.76-.35-1.16-.35-1.16,0,0,.06.41.19,1.19.11.78.34,1.93.51,3.42.42,2.97.89,7.28,1.03,12.61.3,10.64-1,25.36-6.36,40.65-1.28,3.88-2.56,7.77-3.32,11.73-.78,3.96-.89,7.95-.51,11.61.63,5.99,2.23,11.19,4,15.62-2.44-3.38-4.92-6.96-7.4-10.81-4.03-6.16-8-12.94-11.97-20.26-3.87-7.38-7.67-15.32-11.21-23.86-7.08-17.08-12.53-36.63-17.21-57.97-2.4-10.7-4.63-21.86-7.14-33.35-.28-6.64.12-13.74,1.99-21.06,1.92-7.8,4.33-15.38,5.4-22.53,1.16-7.11,1.47-13.6,1.36-19.01-.09-5.42-.6-9.77-1.03-12.76-.21-1.49-.41-2.65-.56-3.43-.14-.78-.22-1.19-.22-1.19,0,0,.02.42.05,1.21.04.79.09,1.96.12,3.46.06,3,.08,7.34-.31,12.66-.37,5.32-1.15,11.61-2.63,18.46-1.39,6.86-3.96,14.12-5.96,22.23-.64,2.6-1.12,5.23-1.46,7.83-1.65-6.88-3.43-13.83-5.49-20.86-3.44-11.97-7.99-23.92-12.66-35.92-2.32-6.01-4.62-12.07-6.74-18.23-2.2-6.13-3.74-12.51-5.58-18.87-.99-3.16-1.55-6.45-2.25-9.71-.68-3.27-1.36-6.55-2.04-9.85-.48-3.34-.96-6.69-1.44-10.05-.48-3.36-1.02-6.73-1.24-10.16-.29-3.41-.59-6.84-.88-10.28-.18-1.72-.27-3.44-.3-5.18l-.18-5.21c-.08-3.48-.32-6.96-.28-10.47.04-3.51.07-7.02.11-10.55-.02-3.53.16-7.04.34-10.55.15-3.14.3-6.27.46-9.4.22.57.42.85.49.82.32-.07-.24-2.28.07-6.21.25-3.94,1.81-9.47,4.72-16.02,2.85-6.59,6.55-14.31,11.31-22.51,4.71-8.22,10.7-16.79,16.84-26.01,3.06-4.61,5.97-9.2,8.56-13.78,2.59-4.58,4.84-9.15,6.77-13.57,3.87-8.85,6.54-17.12,8.55-24.09,1.99-6.99,3.31-12.71,4.18-16.66.87-3.96,1.3-6.16,1.3-6.16,0,0-.67,2.14-1.88,6-1.23,3.86-3,9.44-5.44,16.22-2.46,6.78-5.55,14.79-9.68,23.32-4.07,8.57-9.45,17.44-15.59,26.58-6.1,9.15-12.08,17.9-16.72,26.39-4.67,8.45-8.18,16.42-10.74,23.24-.42,1.08-.79,2.14-1.14,3.18.08-.85.14-1.71.23-2.56.75-6.85,1.42-13.66,2.35-20.4.44-3.37.87-6.73,1.3-10.07.48-3.34.97-6.66,1.45-9.97,3.86-26.48,8.3-51.97,11.89-76.4,1.26-8.38,2.37-16.63,3.38-24.75.94-2.47,2.5-7.65,4.6-14.7,3.02-10.15,7.24-24.15,12.35-39.46,5.13-15.3,9.92-29.12,13.5-39.1,3.59-9.99,5.82-16.17,5.82-16.17,0,0-.75,1.46-2.11,4.11-1.36,2.65-3.25,6.51-5.49,11.33-4.48,9.64-10.22,23.2-15.38,38.61-5.15,15.41-8.98,29.62-11.33,39.99-.1.45-.2.88-.29,1.31,1.17-10.55,2.17-20.85,3.03-30.82,1.82-21.86,3.43-42.24,3.77-60.97.22-18.71-.78-35.71-3.61-50.35-2.71-14.65-7.02-26.87-11.74-36.2-2.21-4.76-4.88-8.58-6.96-12.03-2.43-3.21-4.41-5.98-6.2-8.06Z"></path> <g> <path class="cls-11" d="m41.87,463.49c-2.89-1.27-5.87-2.3-8.92-3.09.09.72.2,1.43.35,2.13.15.06.29.12.44.18,23.36,10.24,41.68,31.77,64.31,41.69,2.84,1.24,5.71,2.28,8.64,3.06.34-.46.71-.91,1.1-1.35-2.78-.69-5.76-1.62-8.54-2.83-29.65-13-36.65-30.71-57.38-39.79Z"></path> <path class="cls-4" d="m90.77,478.76c7.45-17,1.71-41.94-9.93-57.84-.3-.14-.59-.28-.9-.41-8.22-3.6-15.69-3.35-22.04-1.15-6.52,3.33-13.09,9.23-17.57,19.44-6.57,15-4.33,18.92-2.23,23.2,1.27.45,2.52.94,3.76,1.49,13.69,6,21.4,15.77,33.59,25.45,6.42.62,11.7-1.95,15.31-10.18Zm-51.38-31.03c.16-1.09.49-2.15.94-3.17.9-2.05,17.76-31.01,34.45-23.69,13.4,5.88,17.28,42.31,13.16,51.71-2.81,6.4-11.66,8.55-16.7,6.34-1.49-.65-33.63-19.17-31.86-31.18Z"></path> <path class="cls-22" d="m98.97,485.53c-2.83,6.46-9.73,9.35-15.94,8.93,3.21,2.14,6.74,4.23,10.73,6.24,3.22-.48,5.92-2.62,7.98-7.32l-1.82-29.29c-.32-3.84-1.93-17.27-5.35-29.78-1.59-3.14-3.6-5.94-6.18-8.35,9.34,20.8,13.46,53.01,10.59,59.56Z"></path> <path class="cls-14" d="m40.34,438.81c4.48-10.22,11.04-16.11,17.57-19.44-10.49,3.64-17.9,12.64-20.46,18.48-3.04,6.93-5.4,15.25-4.49,22.57,1.74.45,3.46.99,5.16,1.6-2.1-4.28-4.35-8.2,2.23-23.2Z"></path> <path class="cls-5" d="m101.74,493.38c-2.06,4.7-4.76,6.84-7.98,7.32,1.74.88,3.57,1.75,5.5,2.59,2.78,1.22,5.76,2.14,8.54,2.83.36-.41.75-.81,1.16-1.19-9.45-26.81-5.79-53.63-14.39-70.62,3.42,12.51,5.03,25.94,5.35,29.78l1.82,29.29Z"></path> <path class="cls-20" d="m98.97,485.53c2.87-6.56-1.25-38.77-10.59-59.56-2.1-1.95-4.59-3.64-7.54-5.04,11.64,15.9,17.38,40.84,9.93,57.84-3.61,8.24-8.89,10.81-15.31,10.18,2.33,1.85,4.83,3.7,7.56,5.51,6.21.42,13.11-2.47,15.94-8.93Z"></path> <path class="cls-10" d="m87.95,472.57c4.12-9.4.25-45.83-13.16-51.71-16.69-7.32-33.56,21.64-34.45,23.69-.45,1.02-.78,2.09-.94,3.17-1.78,12.01,30.37,30.53,31.86,31.18,5.04,2.21,13.89.06,16.7-6.34Zm-44.53-22.01c.03-.07.07-.14.11-.21-.19-.49-.56-1.24-.43-1.81.15-.61.35-1.19.59-1.74.46-1.04,16.34-30.76,31.7-24.03,6.29,2.76,8.44,23.27,5.51,29.94-3.47,7.92-14.58,12.79-24.52,8.43-7.59-3.33-13.21-10.03-12.97-10.58Z"></path> <path class="cls-17" d="m80.92,452.72c2.92-6.67.78-27.18-5.51-29.94-15.36-6.73-31.25,22.98-31.7,24.03-.24.55-.44,1.13-.59,1.74-.14.57.23,1.32.43,1.81-.04.07-.08.14-.11.21-.24.55,5.37,7.25,12.97,10.58,9.94,4.36,21.05-.5,24.52-8.43Z"></path> <path class="cls-18" d="m39.37,465.45c-1.85-.97-3.72-1.89-5.62-2.73-.14-.06-.29-.12-.44-.18.1.47.22.93.35,1.38-2.22,3.27-4.66,6.44-6.31,10.21-3.65,8.34-6.81,28.95-1.26,45.52-1.47-14.77.44-35.4,4.02-43.56,1.23-2.81,6.63-8.31,9.27-10.65Z"></path> <path class="cls-9" d="m92.11,512.58c-.58,1.32-1.41,2.45-2.01,3.82-4.8,10.95-26.08,22.32-48.78,22.7.79.43,1.6.84,2.45,1.21s1.66.67,2.49.96c20.64-3.48,46.03-12.41,53.11-28.57,1.11-2.52,1.27-5.04.8-7.4-.71-.28-1.42-.58-2.12-.89-2.49-1.09-4.92-2.33-7.32-3.67,2.11,4.02,3,8.14,1.38,11.84Z"></path> <path class="cls-7" d="m46.27,541.28c15.87,5.44,33.27-2.5,47.15-14.68.14-.39.28-.78.44-1.14,1.41-3.22,3.74-5.9,6.69-7.2.59-.26,1.2-.49,1.85-.63.35-.08.7-.13,1.06-.17.03-.4.06-.79.11-1.17.24-2.17.72-4.21,1.51-6.02.42-.96.97-1.89,1.61-2.78-2.2-.59-4.37-1.32-6.51-2.17.47,2.37.31,4.88-.8,7.4-7.09,16.16-32.47,25.09-53.11,28.57Z"></path> <path class="cls-15" d="m30.1,476.1c-3.58,8.16-5.48,28.79-4.02,43.56,1.92,5.74,4.88,10.99,9.23,15.08,15.34,3.94,36.24,1.16,42.34-12.76,3.37-7.7,3.55-20.29-.28-29.89-12.47-8.98-24.47-19.5-38.01-26.64-2.64,2.34-8.03,7.84-9.27,10.65Zm43.73,33.64l-.15.35c-8.93,20.38-28.01,19.99-34.63,17.09-18.58-8.15-7.95-45.21-6.61-48.26.43-.98.9-1.94,1.38-2.88.59-1.17,1.67-2.38,2.92-2.93,2.98-1.31,8.97-1.53,16.42,1.73,6.56,2.88,26.89,20.72,20.68,34.9Z"></path> <path class="cls-18" d="m77.65,521.98c-6.1,13.92-27,16.7-42.34,12.76,1.77,1.66,3.76,3.14,6.01,4.37,22.7-.38,43.98-11.75,48.78-22.7.6-1.37,1.43-2.51,2.01-3.82,1.62-3.7.73-7.83-1.38-11.84-4.57-2.56-9-5.51-13.36-8.65,3.83,9.6,3.66,22.19.28,29.89Z"></path> <path class="cls-19" d="m36.73,473.1c-1.26.55-2.34,1.77-2.92,2.93-.48.95-.95,1.9-1.38,2.88-1.34,3.05-11.97,40.12,6.61,48.26,6.62,2.9,25.7,3.28,34.63-17.09l.15-.35c6.21-14.18-14.12-32.03-20.68-34.9-7.45-3.27-13.44-3.05-16.42-1.73Zm27.88,37.74c-3.21,7.31-13.3,17.94-22.74,13.8-11.01-4.83-10.86-29.39-7.37-40.57,1.58-.94,3.08-1.7,4.69-2.16,5.02-1.42,9.93-1.5,14.72.6,8.26,3.62,14.59,19.45,10.7,28.33Z"></path> <path class="cls-8" d="m34.5,484.07c-3.49,11.19-3.63,35.75,7.37,40.57,9.44,4.14,19.54-6.49,22.74-13.8,3.89-8.88-2.44-24.71-10.7-28.33-4.8-2.1-9.71-2.02-14.72-.6-1.61.46-3.11,1.21-4.69,2.16Z"></path> </g> <g> <path class="cls-11" d="m221.36,79.21c.53.15,1.06.31,1.58.48-24.36,18.13-30.26,67.98-53.75,95.2-.13-.25-.26-.5-.39-.76,15.13-24.38,24.45-67.21,52.56-94.92Z"></path> <path class="cls-3" d="m204.84,163.62c11.44-3.95,25.57-16.27,35.63-26.79-.68,1.38-1.43,2.74-2.23,4.08-14.08,11.65-21.12,21.54-34.44,26.13-9.62,3.32-23.06-.31-24.24-3.71-.27-.77-.5-1.57-.68-2.37,2.19-3.8,4.21-7.78,6.14-11.88.05,1.63.31,3.22.76,4.53,2.71,7.87,10.46,12.97,19.06,10Z"></path> <path class="cls-16" d="m203.8,167.04c13.32-4.59,20.36-14.49,34.44-26.13-5.99,10.04-15.31,18.97-27.77,25.51-3.83,2.01-7.94,3.81-12.35,5.33-9.18,3.17-18.83,4.8-28.13,4.69-.26-.49-.53-1.02-.8-1.55,3.6-4.17,6.79-8.88,9.69-13.92.18.8.41,1.6.68,2.37,1.17,3.4,14.61,7.03,24.24,3.71Z"></path> <path class="cls-6" d="m212.97,156.41c12.95-4.47,25.51-20.24,32.63-35.83-.82,5.55-2.55,11.02-5.13,16.25-10.06,10.52-24.19,22.84-35.63,26.79-8.61,2.97-16.35-2.13-19.06-10-.45-1.31-.71-2.9-.76-4.53,1.45-3.1,2.85-6.26,4.21-9.44.72,3.73,1.63,6.95,2.16,8.5,3.17,9.2,12.59,11.37,21.59,8.26Z"></path> <path class="cls-23" d="m243.36,96.28c1.25,3.62,2.06,7.32,2.48,11.04-.59-1.94-1.25-3.99-2-6.17-4.34-12.58-16.76-15.61-23.17-13.4-1.85.64-7.22,4.27-11.55,7.99,3.97-6.51,8.44-12.06,13.82-16.06,9.88,3.14,17.94,9.42,20.42,16.6Z"></path> <path class="cls-21" d="m220.66,87.76c-1.85.64-7.22,4.27-11.55,7.99-7.6,12.47-13.32,28.47-19.89,43.89.72,3.73,1.63,6.95,2.16,8.5,3.17,9.2,12.59,11.37,21.59,8.26,12.95-4.47,25.51-20.24,32.63-35.83.65-4.4.73-8.85.23-13.26-.59-1.94-1.25-3.99-2-6.17-4.34-12.58-16.76-15.61-23.17-13.4Zm-2.39,7.68c9.88-3.41,18.69-3.01,22.09,6.87,9.27,26.88-18.76,47.48-29.35,51.13-6.89,2.37-14.07-2.88-15.24-6.28-.13-.37-.23-.76-.29-1.17-.5-2.97-.62-5.92.35-8.67,4.15-11.87,10.53-37.77,22.44-41.88Z"></path> <path class="cls-12" d="m218.27,95.43c-11.91,4.11-18.29,30.01-22.44,41.88-.96,2.75-.85,5.7-.35,8.67.07.41.17.8.29,1.17,1.17,3.4,8.35,8.66,15.24,6.28,10.59-3.65,38.62-24.25,29.35-51.13-3.41-9.88-12.22-10.27-22.09-6.87Zm5.82,2.42c4.21-1.45,10.45,2.67,11.7,6.29.27.79.44,1.62.72,2.41.05.14.1.27.15.41.07.18.14.37.21.55,4.6,13.33-9.05,29.07-15.57,31.32-4.56,1.57-7.72-2.43-9.19-6.7-4.29-12.42-.65-29.93,11.98-34.28Z"></path> <path class="cls-23" d="m235.79,104.14c.27.79.44,1.62.72,2.41.05.14.1.27.15.41.07.18.14.37.21.55,4.6,13.33-9.05,29.07-15.57,31.32-4.56,1.57-7.72-2.43-9.19-6.7-4.29-12.42-.65-29.93,11.98-34.28,4.21-1.45,10.45,2.67,11.7,6.29Z"></path> <path class="cls-18" d="m184.95,85.21c3.82-2.29,7.91-4.17,12.15-5.64,7.91-2.73,16.56-2.5,24.25-.37-2.14,2.11-4.16,4.32-6.09,6.59-.01-.63-.13-1.26-.29-1.74-2.66-7.71-21.23-1.85-30.02,1.15Z"></path> <path class="cls-15" d="m187.47,134.15c7.16-16.53,15.5-33.91,27.8-48.36-.01-.63-.13-1.26-.29-1.74-2.66-7.71-21.23-1.85-30.02,1.15-3.38,2.02-6.55,4.37-9.45,7.03-5.98,11.61-6.97,25.2-4.05,33.66,3.67,10.63,8.22,10.74,16.01,8.25Zm-4.92-6.12c-4.74,1.64-8.7-6.9-9.54-9.32-4.48-12.99,5.53-26.33,20.62-31.53,7.05-2.43,8.06-2.18,9.57-1.64,1.45.52,2.14,1.97,3.15,3.08-2.07,4.88-5.45,9.13-7.9,13.99-1.2,2.38-9.58,23.24-15.91,25.42Z"></path> <path class="cls-9" d="m168.35,100.28c-4.64,16.8-6.2,34.35-3.92,40.99,1.8,5.22,5.51,6.64,9.73,5.18,1-.34,2.01-.65,3.02-1,1.97-.68,4.61-1.95,6.96-3.52-2.41,5.69-4.74,11.2-7.1,16.36-.74.37-1.54.71-2.4,1-5.55,1.91-9.45-8.46-12.28-16.68-2.22-6.44-2.12-19.05.35-32.32,1.54-3.62,3.43-6.97,5.63-10.02Z"></path> <path class="cls-18" d="m174.16,146.45c-4.22,1.45-7.93.03-9.73-5.18-2.29-6.64-.72-24.19,3.92-40.99,2.12-2.94,4.52-5.62,7.15-8.04-5.98,11.61-6.97,25.2-4.05,33.66,3.67,10.63,8.22,10.74,16.01,8.25-1.14,2.62-2.24,5.22-3.33,7.78-2.35,1.57-4.98,2.84-6.96,3.52-1.02.35-2.03.65-3.02,1Z"></path> <path class="cls-7" d="m174.64,159.3c.86-.3,1.66-.63,2.4-1-2.65,5.8-5.34,11.16-8.24,15.84-1.81-3.58-3.78-7.85-5.21-12.01-7.28-21.11-6.56-38.4-.87-51.81-2.47,13.26-2.57,25.88-.35,32.32,2.83,8.21,6.73,18.59,12.28,16.68Z"></path> <path class="cls-19" d="m182.55,128.04c6.33-2.18,14.71-23.04,15.91-25.42,2.44-4.86,5.83-9.1,7.9-13.99-1.01-1.11-1.7-2.57-3.15-3.08-1.51-.54-2.52-.79-9.57,1.64-15.09,5.2-25.1,18.54-20.62,31.53.83,2.42,4.79,10.95,9.54,9.32Zm.04-7.79c-2.04.7-4.24.31-5.78-4.14-2-5.8,3.95-17.7,11.66-20.36,1.37-.47,4.24-1.11,5.73-.63.94.3,1.69.67,2.63.97-1.09,5.75-6.19,21.38-14.24,24.16Z"></path> <path class="cls-8" d="m176.81,116.1c-2-5.8,3.95-17.7,11.66-20.36,1.37-.47,4.24-1.11,5.73-.63.94.3,1.69.67,2.63.97-1.09,5.75-6.19,21.38-14.24,24.16-2.04.7-4.24.31-5.78-4.14Z"></path> </g> <g> <path class="cls-11" d="m53.33,85.5c-.37.29-.74.6-1.1.9,25.32,6.38,46.4,44.03,74.01,57.92.02-.24.04-.49.06-.73-20.04-14.39-41.53-45.33-72.97-58.09Z"></path> <path class="cls-3" d="m94.22,147.1c-10.39.63-25.66-4.51-37.11-9.55.99.87,2.03,1.71,3.11,2.51,15.02,4.61,23.86,10.15,35.95,9.42,8.73-.53,18.22-7.83,18.03-10.92-.04-.7-.12-1.41-.24-2.1-2.99-2.3-5.91-4.8-8.78-7.42.5,1.31.82,2.66.89,3.85.43,7.14-4.04,13.74-11.85,14.21Z"></path> <path class="cls-16" d="m96.18,149.47c-12.09.73-20.94-4.8-35.95-9.42,8.06,6,18.4,10.03,30.45,11.12,3.7.34,7.55.41,11.56.17,8.33-.51,16.54-2.38,23.88-5.53.04-.48.09-.98.13-1.5-4.23-2.13-8.31-4.82-12.28-7.87.12.69.2,1.41.24,2.1.19,3.09-9.29,10.39-18.03,10.92Z"></path> <path class="cls-6" d="m85.39,144.05c-11.76.71-26.92-7.68-37.7-17.72,2.48,4.14,5.65,7.91,9.42,11.22,11.45,5.04,26.72,10.18,37.11,9.55,7.81-.47,12.28-7.07,11.85-14.21-.07-1.19-.39-2.54-.89-3.85-2.17-1.98-4.32-4.03-6.45-6.12.66,3.2.99,6.06,1.08,7.46.51,8.35-6.25,13.17-14.42,13.66Z"></path> <path class="cls-23" d="m41.48,106.3c.2,3.28.77,6.49,1.67,9.58-.17-1.74-.32-3.58-.44-5.56-.69-11.42,8.17-17.91,13.99-18.26,1.68-.1,7.14,1.02,11.8,2.55-5.29-3.86-10.67-6.8-16.26-8.21-6.81,5.74-11.15,13.39-10.75,19.9Z"></path> <path class="cls-21" d="m42.7,110.32c.12,1.98.27,3.82.44,5.56,1.06,3.67,2.58,7.17,4.55,10.45,10.78,10.04,25.94,18.43,37.7,17.72,8.17-.5,14.93-5.32,14.42-13.66-.09-1.41-.42-4.27-1.08-7.46-10.29-10.08-20.1-20.91-30.24-28.31-4.66-1.53-10.12-2.65-11.8-2.55-5.82.35-14.68,6.84-13.99,18.26Zm50.02,12.92c1.67,1.87,2.55,4.24,3.13,6.77.08.35.13.69.15,1.03.19,3.08-3.79,9.62-10.04,10-9.61.58-38.65-6.55-40.13-30.95-.54-8.96,6.32-12.18,15.29-12.72,10.81-.66,24.4,17.81,31.6,25.87Z"></path> <path class="cls-12" d="m45.84,110.09c1.48,24.39,30.52,31.53,40.13,30.95,6.25-.38,10.22-6.92,10.04-10-.02-.33-.07-.68-.15-1.03-.58-2.53-1.46-4.91-3.13-6.77-7.2-8.06-20.79-26.53-31.6-25.87-8.96.54-15.83,3.76-15.29,12.72Zm32.25,14.39c.24,3.87-.95,8.09-5.09,8.35-5.92.36-21.93-7.65-22.67-19.75-.01-.17-.02-.34-.02-.51,0-.13,0-.25-.01-.38-.04-.72-.18-1.43-.22-2.15-.2-3.29,3.4-8.61,7.22-8.85,11.46-.7,20.11,12.01,20.79,23.28Z"></path> <path class="cls-23" d="m50.07,110.05c.04.72.18,1.43.22,2.15,0,.13.01.25.01.38,0,.17,0,.34.02.51.74,12.1,16.75,20.11,22.67,19.75,4.14-.25,5.33-4.47,5.09-8.35-.69-11.28-9.33-23.98-20.79-23.28-3.82.23-7.42,5.56-7.22,8.85Z"></path> <path class="cls-18" d="m84.22,78.29c-3.79-.56-7.65-.71-11.51-.48-7.18.44-13.97,3.46-19.38,7.69,2.39.97,4.72,2.06,7.01,3.23-.2-.51-.31-1.04-.34-1.47-.43-7,16.25-8.46,24.22-8.96Z"></path> <path class="cls-15" d="m108.33,106.16c-.47-7.68-5.72-18.15-14.29-25.4-3.18-1.16-6.47-1.98-9.82-2.48-7.97.51-24.65,1.97-24.22,8.96.03.43.14.97.34,1.47,14.52,7.42,26.87,18.49,37.99,29.26,7.01-.58,10.59-2.17,10-11.82Zm-29.11-9.61c-3.54-3.05-7.62-5.31-10.87-8.51.44-1.21.5-2.6,1.49-3.49,1.02-.92,1.74-1.46,8.14-1.85,13.7-.83,26.04,6.47,26.75,18.25.13,2.2-.2,10.28-4.51,10.54-5.75.35-19.27-13.46-21-14.95Z"></path> <path class="cls-9" d="m102.36,84.79c9.21,11.81,16.23,25.24,16.6,31.26.29,4.74-2.19,7.08-6.02,7.32-.9.05-1.81.15-2.73.2-1.79.11-4.3-.03-6.68-.51,3.79,3.72,7.45,7.33,11.02,10.66.71.05,1.45.06,2.23,0,5.04-.31,4.72-9.83,4.27-17.28-.36-5.84-4.59-15.83-10.91-25.55-2.41-2.37-5.02-4.4-7.77-6.11Z"></path> <path class="cls-18" d="m112.94,123.37c3.83-.23,6.31-2.58,6.02-7.32-.37-6.03-7.39-19.45-16.6-31.26-2.65-1.64-5.44-2.97-8.32-4.03,8.57,7.25,13.82,17.72,14.29,25.4.59,9.65-2.99,11.23-10,11.82,1.76,1.71,3.5,3.41,5.2,5.09,2.38.47,4.89.62,6.68.51.92-.06,1.83-.15,2.73-.2Z"></path> <path class="cls-7" d="m116.78,133.73c-.78.05-1.52.04-2.23,0,4.01,3.73,7.91,7.11,11.75,9.87.26-3.44.42-7.47.19-11.25-1.16-19.16-7.42-32.65-16.36-41.44,6.33,9.72,10.56,19.7,10.91,25.55.45,7.46.77,16.98-4.27,17.28Z"></path> <path class="cls-19" d="m104.73,100.97c-.72-11.79-13.06-19.09-26.75-18.25-6.4.39-7.12.92-8.14,1.85-.98.89-1.05,2.27-1.49,3.49,3.25,3.2,7.33,5.45,10.87,8.51,1.73,1.49,15.25,15.3,21,14.95,4.3-.26,4.64-8.34,4.51-10.54Zm-26.36-10.14c.65-.55,1.12-1.09,1.77-1.64,1.02-.87,3.51-1.31,4.76-1.39,7-.43,15.64,7.07,15.96,12.33.25,4.04-1.37,5.08-3.23,5.19-7.3.44-16.5-10.3-19.26-14.5Z"></path> <path class="cls-8" d="m100.85,100.14c-.32-5.26-8.96-12.76-15.96-12.33-1.24.08-3.73.52-4.76,1.39-.65.55-1.12,1.09-1.77,1.64,2.75,4.2,11.95,14.95,19.26,14.5,1.85-.11,3.47-1.15,3.23-5.19Z"></path> </g> <g> <path class="cls-11" d="m173.25,315.65c.09-.01.18-.02.27-.03.11.32.23.62.37.92.26.55.58,1.06.94,1.55,9-42.34,50.14-51.95,77.65-73.13-.28-.16-.56-.33-.86-.49-.2-1.79-.82-3.59-1.76-5.32-27.18,32.6-68.24,35.34-76.61,76.5Z"></path> <path class="cls-15" d="m211.59,269.56c11.74-7.51,24.33-15.17,35.13-26.85-2.79-7.48-13.19-12.23-21.2-13.83-9.55-1.91-19.63,3.65-31.85,7.79-2.46,1.25-4.92,2.6-7.35,4.06-6.88,9.29-11.71,18.8-13.18,26.14-2.18,10.87,1.74,24.21,8.18,25.49.75.15,1.54.18,2.36.12m53.26-48.33c-1.21,6.05-33.62,23.95-44.7,33.56-3.42,2.97-5.1,8.38-9.72,9.41-.23.05-.48.07-.72.03-2.78-.56-4.79-17.64-2.94-26.87,2.64-13.22,29.82-29.92,44.57-26.97,9.37,1.87,14,8.46,13.52,10.85Z"></path> <path class="cls-9" d="m159.74,285.07c1.72-8.61,9.55-22.81,16.89-37.8-8.35,6.35-15.7,14.03-20.62,22.85-.79,2.47-1.46,4.98-1.97,7.53-2.89,14.47-.91,28.3,13.56,31.2,2.47.49,5.03.47,7.46-.09,1.29-3.93,2.91-7.48,4.82-10.71-3.98,1.46-8.02,2.25-11.86,1.48-7.58-1.52-9.71-7.35-8.29-14.46Z"></path> <path class="cls-1" d="m154.05,277.65c.51-2.55,1.18-5.06,1.97-7.53-2.56,4.58-4.46,9.47-5.49,14.64-1.88,9.4,1.26,18.64,6.38,24.56,1.29,1.49,2.7,2.78,4.19,3.8.89.61,1.81,1.13,2.75,1.54.93.41,1.88.72,2.84.91,1.8.36,3.74.39,5.76.18.27-.03.54-.07.82-.1.49-2.43,1.1-4.71,1.81-6.89-2.43.56-4.99.58-7.46.09-14.47-2.89-16.46-16.73-13.56-31.2Z"></path> <path class="cls-18" d="m173.13,266.87c1.47-7.35,6.3-16.85,13.18-26.14-3.31,1.99-6.57,4.18-9.68,6.55-7.34,15-15.17,29.19-16.89,37.8-1.42,7.11.71,12.94,8.29,14.46,3.84.77,7.88-.02,11.86-1.48,1.16-1.96,2.42-3.81,3.78-5.57-.81.06-1.61.03-2.36-.12-6.44-1.29-10.36-14.62-8.18-25.49Z"></path> <path class="cls-8" d="m246.72,242.71c1.06-1.15,2.11-2.33,3.14-3.56-3.21-5.92-10.1-11.01-16.48-12.29-8.36-1.67-24.11,1.91-39.71,9.81,12.22-4.14,22.3-9.7,31.85-7.79,8.02,1.6,18.41,6.35,21.2,13.83Z"></path> <path class="cls-19" d="m178.84,260.27c-1.85,9.23.16,26.32,2.94,26.87.24.05.49.03.72-.03,4.63-1.03,6.3-6.44,9.72-9.41,11.08-9.61,43.49-27.51,44.7-33.56.48-2.39-4.15-8.98-13.52-10.85-14.75-2.95-41.93,13.75-44.57,26.97Zm43.31-25.02c5.58,1.12,7.42,5.12,6.33,10.6-2.72,13.6-25.62,15.93-36.3,25.36-.42-.62-1.07-1.31-1.46-2.18-3.23-7.37-3.64-14.98-3.34-16.49,1.89-9.44,23.14-19.61,34.77-17.28Z"></path> <path class="cls-8" d="m190.72,269.02c.38.88,1.04,1.56,1.46,2.18,10.68-9.43,33.58-11.75,36.3-25.36,1.09-5.47-.74-9.48-6.33-10.6-11.63-2.33-32.88,7.84-34.77,17.28-.3,1.52.1,9.12,3.34,16.49Z"></path> <path class="cls-6" d="m257.67,266.17c-1.43,7.16-5.8,13.91-9.57,20.61,6.64-7.32,11.4-14.84,12.75-21.57.34-1.69.55-3.41.91-5.23.57-2.84-1.64-10.61-9.28-15.03-3.32,2.56-6.84,4.94-10.48,7.24,3.69-1.33,7.44-2.38,10.4-1.78,6.18,1.24,6.42,10,5.27,15.76Z"></path> <path class="cls-21" d="m208.35,301.14c5.69,1.14,16.49-.09,28.35-3.46,4.15-3.5,8.01-7.18,11.39-10.91,3.77-6.69,8.14-13.44,9.57-20.61,1.15-5.76.91-14.52-5.27-15.76-2.96-.59-6.71.46-10.4,1.78-13.21,8.34-27.98,15.49-40.44,25.18-1.3,2.22-2.38,4.83-3.01,8-1.68,8.4.61,13.93,9.81,15.77Zm42.18-45.34c3.3.66,2.55,5.81,1.96,8.74-3.21,16.06-18.03,29.81-34.78,31.78-1.85.22-3.77.16-5.62-.21-5.33-1.07-10.23-4.89-9.06-10.71,1.39-6.95,31.33-32.84,47.5-29.61Z"></path> <path class="cls-6" d="m196.83,306.77c13.91,2.78,24.88-1.34,35.63-5.64,1.44-1.13,2.86-2.28,4.25-3.45-11.87,3.37-22.66,4.6-28.35,3.46-9.21-1.84-11.49-7.37-9.81-15.77.63-3.17,1.72-5.78,3.01-8-2.38,1.85-4.67,3.79-6.86,5.84-1.28,2.41-2.25,4.99-2.78,7.62-1.06,5.28-.21,14.91,4.91,15.93Z"></path> <path class="cls-3" d="m185.34,316.68c6.81,1.36,21.75-3.06,36.56-8.02,3.59-2.33,7.14-4.86,10.56-7.52-10.74,4.3-21.72,8.42-35.63,5.64-5.12-1.02-5.97-10.65-4.91-15.93.53-2.64,1.49-5.21,2.78-7.62-3.3,3.11-6.35,6.49-9.06,10.24-1.82,3.55-3.36,7.2-4.12,10.98-1.06,5.28-1.26,11.24,3.82,12.25Z"></path> <path class="cls-16" d="m182.68,322.71c.36.07.74.13,1.12.17,9.03,1.09,23.84-4.98,38.1-14.23-14.82,4.96-29.75,9.39-36.56,8.02-5.08-1.02-4.87-6.97-3.82-12.25.76-3.77,2.3-7.42,4.12-10.98-4.94,6.83-8.73,14.86-10.81,24.63,1.77,2.41,4.65,3.99,7.85,4.63Z"></path> <path class="cls-12" d="m212.09,296.12c1.84.37,3.77.43,5.62.21,16.75-1.98,31.57-15.72,34.78-31.78.59-2.93,1.33-8.08-1.96-8.74-16.16-3.23-46.11,22.66-47.5,29.61-1.17,5.82,3.74,9.64,9.06,10.71Zm29.65-32.76c6.74,1.35,5.42,4.95,4.89,7.61-2.5,12.5-15.75,19.65-27.52,21.04-.15.02-.31,0-.48-.03-1.68-.34-3.92-2.4-2.96-7.18,2.78-13.89,17.45-23.16,26.08-21.44Z"></path> <path class="cls-23" d="m218.63,291.98c.17.03.34.05.48.03,11.77-1.39,25.02-8.54,27.52-21.04.53-2.66,1.85-6.26-4.89-7.61-8.63-1.73-23.3,7.55-26.08,21.44-.96,4.78,1.29,6.85,2.96,7.18Z"></path> </g> <g> <path class="cls-11" d="m135.97,32.96c-4.65-9.35-2.06-22.37,1.59-32.65.59-.06,1.18-.12,1.78-.17-14.07,25.56,8.83,44.03,10.02,69.71-.7.71-1.4,1.39-2.11,2.05-.51.04-1.01.02-1.49-.04,1.3-13.67-6.27-32.56-6.58-33.18-.97-1.95-2.23-3.76-3.21-5.72Z"></path> <path class="cls-7" d="m154.18,59.38c5.12-2.54,10.61-15.99,14.44-27.04-1.69,13.93-9.82,27.92-19.27,37.51-.17-3.7-.8-7.25-1.69-10.69,2.08,1.35,4.74,1.09,6.52.21Z"></path> <path class="cls-9" d="m156.49,48.43c7.52-3.74,9.57-16.79,12.17-25.93.4,3.24.36,6.54-.04,9.84-3.84,11.05-9.33,24.49-14.44,27.04-1.77.88-4.44,1.14-6.52-.21-1.14-4.39-2.73-8.6-4.4-12.73,3.77,2.94,8.96,4.12,13.24,1.99Z"></path> <path class="cls-8" d="m162.51,7.2c-7.63-5.53-16.28-7.32-20.54-5.2-1.83.91-3.54,2.25-5.12,3.58.65-1.78,1.47-3.59,2.49-5.44,8.3-.63,17.45.64,23.17,7.06Z"></path> <path class="cls-15" d="m141.97,2.01c-1.83.91-3.54,2.25-5.12,3.58-4.5,12.26-.88,23.02,3.61,34.04,3.61,3.29,8.95,5.06,15.04,2.03,8.75-4.35,11.54-14.22,12.11-24.48-.55-1.93-1.27-3.82-2.18-5.66-.82-1.65-1.8-3.08-2.91-4.32-7.63-5.53-16.28-7.32-20.54-5.2Zm1.38,2.35c3.68-1.83,9,1.3,12.97,3.12,3.08,1.41,5.09,3.44,6.27,5.82,3.62,7.29-.87,19.86-6,22.41-8.93,4.44-12.87,1.28-16.15-5.32-5.77-11.6-1.56-23.81,2.91-26.03Z"></path> <path class="cls-18" d="m155.49,41.66c8.75-4.35,11.54-14.22,12.11-24.48.5,1.75.85,3.52,1.06,5.32-2.61,9.14-4.65,22.19-12.17,25.93-4.28,2.13-9.46.95-13.24-1.99-.93-2.29-1.88-4.55-2.8-6.81,3.61,3.29,8.95,5.06,15.04,2.03Z"></path> <path class="cls-19" d="m143.35,4.35c-4.47,2.22-8.67,14.43-2.91,26.03,3.28,6.61,7.22,9.76,16.15,5.32,5.14-2.55,9.63-15.13,6-22.41-1.18-2.38-3.19-4.41-6.27-5.82-3.97-1.82-9.3-4.95-12.97-3.12Zm1.68.56c6.63.15,10.76,6.43,14.88,11.01.41.46.75.96,1.01,1.49,1.9,3.83.13,9.1-4.05,11.18-6.01,2.99-11.49-3.66-14.48-9.67-2.51-5.04-4.69-10.9.65-13.55.61-.3,1.27-.47,1.99-.45Z"></path> <path class="cls-8" d="m159.91,15.92c.41.46.75.96,1.01,1.49,1.9,3.83.13,9.1-4.05,11.18-6.01,2.99-11.49-3.66-14.48-9.67-2.51-5.04-4.69-10.9.65-13.55.61-.3,1.27-.47,1.99-.45,6.63.15,10.76,6.43,14.88,11.01Z"></path> <path class="cls-22" d="m114.13,10.82c1.77-2.66,4.13-4.85,7.17-6.36,2.2-1.09,8.74-3.32,16.26-4.14-.37,1.06-.74,2.14-1.08,3.25-5.3-.66-10.75.56-15.75,3.04-2.19,1.09-4.44,2.51-6.59,4.21Z"></path> <path class="cls-4" d="m141.33,44.62c-1.13-3.45-2.06-5.73-2.16-5.94-.97-1.95-2.23-3.76-3.21-5.72-4.17-8.39-2.51-19.73.51-29.4-5.3-.66-10.75.56-15.75,3.04-2.19,1.09-4.44,2.51-6.59,4.21-1.42,2.13-2.45,4.57-3.13,7.2-1.27,7.61.38,15.26,3.22,20.99,4.48,9.01,14.88,16.43,21.4,13.19,2.78-1.38,4.81-4.34,5.71-7.57Zm-6.87,1.19c-8,3.97-17.21-10.36-21.16-18.31-2.51-5.05,3.41-18.09,8.48-20.61,3.21-1.59,8.34-.98,9.01.37,0,0-4.53,7.69,6.04,33.82.15.38,0,.82-.25,1.15.47,1.49-.67,2.86-2.12,3.58Z"></path> <path class="cls-22" d="m139.54,59.38c2.15-1.07,3.57-2.85,4.54-4.94.59,2.58,1.1,5.29,1.43,8-.78,1.71-2.08,3.3-3.76,4.14-7.39,3.67-19.66-10.63-27.84-21.74-1-2.29-1.83-4.7-2.47-7.17,6.66,12.39,16.94,27.25,28.1,21.7Z"></path> <path class="cls-5" d="m141.75,66.58c1.68-.83,2.98-2.42,3.76-4.14.39,3.23.53,6.45.25,9.43-1.37-.17-2.66-.7-4.07-1.28-12.81-5.23-22.19-14.37-26.86-23.77-.32-.64-.62-1.3-.91-1.97,8.18,11.11,20.45,25.41,27.84,21.74Z"></path> <path class="cls-20" d="m114.23,39c4.48,9.01,14.88,16.43,21.4,13.19,2.78-1.38,4.81-4.34,5.71-7.57.89,2.7,1.9,6.11,2.74,9.82-.97,2.09-2.39,3.87-4.54,4.94-11.16,5.55-21.44-9.32-28.1-21.7-1.71-6.64-2-13.64-.43-19.66-1.27,7.61.38,15.26,3.22,20.99Z"></path> <path class="cls-10" d="m134.47,45.81c1.44-.72,2.59-2.09,2.12-3.58.25-.33.4-.77.25-1.15-10.57-26.14-6.04-33.82-6.04-33.82-.67-1.35-5.81-1.96-9.01-.37-5.07,2.52-10.98,15.56-8.48,20.61,3.95,7.95,13.16,22.28,21.16,18.31Zm-5.08-9.82c-5.27,2.62-10.86-2.5-13.29-7.4-2.99-6.02-1.42-15.69,4.83-18.8,1.93-.96,4.49-1.75,5.45.17,1.67,3.35-1.84,8.46,2.15,16.49.11.23.27.53.3.58,1.28,2.58.89,5.98.56,8.96Z"></path> <path class="cls-17" d="m116.1,28.59c-2.99-6.02-1.42-15.69,4.83-18.8,1.93-.96,4.49-1.75,5.45.17,1.67,3.35-1.84,8.46,2.15,16.49.11.23.27.53.3.58,1.28,2.58.89,5.98.56,8.96-5.27,2.62-10.86-2.5-13.29-7.4Z"></path> </g> <g> <path class="cls-11" d="m115.07,353.38c-.78.17-1.55.35-2.34.53-24.97-27.75-61.15-47.15-97.67-51.01.08-.65.15-1.31.2-1.97,38.28-.1,86.54,34.39,99.8,52.46Z"></path> <path class="cls-7" d="m115.8,303.13c-2.98-7.31-7.93-15.33-14.56-23.13,9.05,5.89,16.08,13.33,19.37,21.4,1.6,3.93,2.55,8.06,2.96,12.29.3,3.11.32,6.27.1,9.44-.3,4.33-1.06,8.69-2.12,12.98-1.46,5.92-3.51,11.71-5.86,17.12-.21.05-.42.09-.63.14-2.3-3.14-5.69-6.78-9.87-10.65,1.41.02,2.8-.19,4.15-.74,7.87-3.21,14.71-18.61,6.46-38.86Z"></path> <path class="cls-15" d="m21.22,298.56c.37.92.78,1.82,1.2,2.72,22.9,2.3,48.22,15.26,67.14,28.82,10.12-4.3,15.38-12.37,10.56-24.2-6.98-17.13-22.98-30.75-42-39.04-2.72-.03-5.43.1-8.11.39-3.67.41-7.26,1.15-10.73,2.22-25.11,12.19-20.94,22.03-18.06,29.1Zm4.26-3.89c-1.42-3.48,3.76-14.55,11.38-17.65.83-.34,1.69-.62,2.52-.95.83-.34,1.51-.66,2.24-.96,17.82-7.26,45.11,11.12,54.71,34.69,2.54,6.24-.96,10.09-2.6,10.76-5.41,2.21-18.29-11.48-35.58-16.21-12.07-3.3-30.38-4.03-32.68-9.66Z"></path> <path class="cls-9" d="m15.41,294.13c-.42-8.25,1.33-15.72,19.62-23.17,1.39-.57,2.82-1.05,4.26-1.5-25.11,12.19-20.94,22.03-18.06,29.1.37.92.78,1.82,1.2,2.72-2.42-.24-4.81-.37-7.16-.36.19-2.19.26-4.45.14-6.79Z"></path> <path class="cls-18" d="m100.12,305.9c-6.98-17.13-22.98-30.75-42-39.04,3.91.04,7.85.41,11.74,1.06,15.31,9.53,33.82,24.13,41.4,42.72,3.14,7.71-2.21,20.44-8.59,23.04-1.64.67-4.25.94-6.99,1.01-1.95-1.53-4-3.05-6.12-4.58,10.12-4.3,15.38-12.37,10.56-24.2Z"></path> <path class="cls-9" d="m111.27,310.64c-7.58-18.59-26.09-33.19-41.4-42.72,11.36,1.9,22.37,6.23,31.37,12.09,6.63,7.8,11.58,15.82,14.56,23.13,8.25,20.25,1.41,35.65-6.46,38.86-1.35.55-2.74.77-4.15.74-2.82-2.61-6.01-5.31-9.51-8.05,2.74-.07,5.35-.34,6.99-1.01,6.38-2.6,11.73-15.33,8.59-23.04Z"></path> <path class="cls-19" d="m25.49,294.67c2.3,5.63,20.6,6.36,32.68,9.66,17.29,4.73,30.17,18.42,35.58,16.21,1.64-.67,5.14-4.52,2.6-10.76-9.6-23.56-36.89-41.95-54.71-34.69-.74.3-1.41.63-2.24.96-.83.34-1.69.62-2.52.95-7.62,3.11-12.8,14.17-11.38,17.65Zm6.97-2.03c-1.87-4.6,4.09-9.07,8.68-10.94,1.79-.73,3.64-1.3,5.51-2.07,3.8-1.55,19.22-.01,22.7,8.53,2.26,5.54-2,10.4-6.77,12.34-5.07,2.06-29.04-5.19-30.13-7.86Z"></path> <path class="cls-8" d="m41.13,281.71c1.79-.73,3.64-1.3,5.51-2.07,3.8-1.55,19.22-.01,22.7,8.53,2.26,5.54-2,10.4-6.77,12.34-5.07,2.06-29.04-5.19-30.13-7.86-1.87-4.6,4.09-9.07,8.68-10.94Z"></path> <path class="cls-20" d="m22.59,356.76c17.7,6.3,36.22,7.94,53.96.71,10.19-4.15,17.47-11.15,13.16-21.73-.48-1.18-.84-2.43-1.32-3.62-.02-.06-.05-.11-.08-.17,6.26,4.56,12.18,9.56,17.68,14.93-.47,2.97-2.98,6.06-8.76,8.42-1.72.7-24.82,5.25-47.18,9.38-10.78-.1-20.3-2.28-27.46-7.93Z"></path> <path class="cls-22" d="m105.99,346.89c2.33,2.28,4.58,4.61,6.74,7.02-20.55,4.67-43.56,10.95-62.68,10.78,22.35-4.13,45.46-8.68,47.18-9.38,5.78-2.35,8.29-5.44,8.76-8.42Z"></path> <path class="cls-14" d="m14.49,346.95c-.57-1.07-1.1-2.18-1.59-3.37-6.01-14.74.43-26.4,2.16-40.68,2.77.29,5.54.69,8.3,1.15-.03.01-.06.02-.09.03-3.58,1.46-17.44,17.03-8.78,42.87Z"></path> <path class="cls-4" d="m89.71,335.75c4.31,10.58-2.97,17.57-13.16,21.73-17.74,7.23-36.25,5.59-53.96-.71-1.39-1.1-2.69-2.33-3.9-3.71,15.67,9.15,36.47,9.83,48.91,4.76,14.52-5.92,18.02-16.67,13.76-27.12-.51-1.25-.92-2.53-1.43-3.78-.13-.33-.28-.62-.41-.93,3,1.9,5.93,3.89,8.8,5.98.02.06.06.11.08.17.48,1.19.84,2.43,1.32,3.62Z"></path> <path class="cls-10" d="m79.92,326.91c-.13-.33-.28-.62-.41-.93-17.24-10.92-36.53-18.6-56.15-21.93-.03.01-.06.02-.09.03-3.58,1.46-17.44,17.03-8.78,42.87,1.22,2.3,2.63,4.32,4.2,6.11,15.67,9.15,36.47,9.83,48.91,4.76,14.52-5.92,18.02-16.67,13.76-27.12-.51-1.25-.92-2.53-1.43-3.78Zm-3.48,9.07c.68,1.67.91,9.91-8.41,13.71-16.92,6.89-41.46,9.05-49.04-9.54-6.25-15.33,2.84-29.48,8.09-31.62h0c2.59-1.05,43.04,11.98,49.35,27.45Z"></path> <path class="cls-17" d="m76.44,335.98c-6.3-15.47-46.76-28.51-49.35-27.45h0c-5.26,2.14-14.34,16.29-8.09,31.62,7.58,18.59,32.12,16.43,49.04,9.54,9.32-3.8,9.08-12.05,8.41-13.71Zm-12.3-3.17c3.36,8.25-.38,12.88-8.88,16.34-6.9,2.81-28.89,2.5-33.95-9.91-4.22-10.36-5-21.35,5.32-25.55,1.37-.56,2.66-.96,4.14-.85.81.06,1.57.4,2.37.48,12.86,1.29,28.05,12.28,30.99,19.5Z"></path> <path class="cls-13" d="m55.27,349.15c-6.9,2.81-28.89,2.5-33.95-9.91-4.22-10.36-5-21.35,5.32-25.55,1.37-.56,2.66-.96,4.14-.85.81.06,1.57.4,2.37.48,12.86,1.29,28.05,12.28,30.99,19.5,3.36,8.25-.38,12.88-8.88,16.34Z"></path> </g> <g> <path class="cls-11" d="m199.14,430.23c.69-.02,1.38-.02,2.07,0-22.49,30.67-11.22,92.51-29.32,133.74-.25-.25-.49-.51-.75-.77,9.14-34.76,4.54-89.45,27.99-132.96Z"></path> <path class="cls-3" d="m210.42,537.35c12.25-8.94,24.62-28.88,32.8-45.18-.31,1.9-.7,3.8-1.17,5.71-12.57,19.12-17.36,33.55-31.62,43.95-10.3,7.51-27.72,8.12-30.38,4.48-.6-.82-1.18-1.7-1.68-2.59,1.22-5.35,2.18-10.87,2.97-16.48.65,1.93,1.55,3.74,2.57,5.15,6.14,8.42,17.29,11.68,26.5,4.96Z"></path> <path class="cls-16" d="m210.43,541.83c14.26-10.4,19.04-24.83,31.62-43.95-3.48,14.22-11.35,28.34-23.86,40.76-3.84,3.81-8.1,7.47-12.82,10.92-9.83,7.17-20.78,12.68-31.94,15.96-.49-.49-1.01-1.02-1.53-1.56,2.78-6.32,4.86-13.13,6.48-20.23.51.89,1.08,1.76,1.68,2.59,2.66,3.64,20.08,3.04,30.38-4.48Z"></path> <path class="cls-6" d="m217.5,525.72c13.86-10.11,23.09-33.61,25.88-54.89,1.06,6.94,1.01,14.13-.16,21.34-8.18,16.29-20.55,36.24-32.8,45.18-9.21,6.72-20.35,3.46-26.5-4.96-1.02-1.4-1.92-3.21-2.57-5.15.6-4.25,1.11-8.54,1.56-12.85,2.23,4.2,4.51,7.72,5.72,9.38,7.18,9.84,19.25,8.98,28.88,1.95Z"></path> <path class="cls-23" d="m231.75,442.57c2.83,3.87,5.16,8,7.02,12.3-1.42-2.11-2.97-4.31-4.67-6.65-9.82-13.46-25.8-12.52-32.66-7.51-1.98,1.44-7.07,7.77-10.88,13.82,2.35-9.25,5.67-17.54,10.64-24.31,12.98.12,24.95,4.68,30.55,12.36Z"></path> <path class="cls-21" d="m201.45,440.71c-1.98,1.44-7.07,7.77-10.88,13.82-4.51,17.73-5.47,38.99-7.67,59.86,2.23,4.2,4.51,7.72,5.72,9.38,7.18,9.84,19.25,8.98,28.88,1.95,13.86-10.11,23.09-33.61,25.88-54.89-.84-5.51-2.39-10.86-4.6-15.96-1.42-2.11-2.97-4.31-4.67-6.65-9.82-13.46-25.8-12.52-32.66-7.51Zm-.04,10.07c10.57-7.71,21.26-10.48,28.97.09,20.98,28.76-4.99,63.74-16.32,72-7.37,5.38-17.9,1.72-20.55-1.91-.29-.39-.55-.82-.78-1.29-1.69-3.38-2.92-6.86-2.77-10.51.61-15.73-1.29-49.09,11.46-58.39Z"></path> <path class="cls-12" d="m201.41,450.78c-12.75,9.3-10.85,42.65-11.46,58.39-.14,3.64,1.08,7.13,2.77,10.51.23.47.5.9.78,1.29,2.65,3.64,13.19,7.29,20.55,1.91,11.33-8.27,37.31-43.24,16.32-72-7.71-10.57-18.4-7.8-28.97-.09Zm7.86.75c4.5-3.29,13.49-.65,16.32,3.23.62.85,1.13,1.77,1.74,2.62.11.15.22.29.33.43.16.19.31.39.45.59,10.41,14.27-.13,38.13-7.11,43.22-4.88,3.56-10.13-.07-13.47-4.64-9.7-13.3-11.79-35.58,1.73-45.44Z"></path> <path class="cls-23" d="m225.58,454.76c.62.85,1.13,1.77,1.74,2.62.11.15.22.29.33.43.16.19.31.39.45.59,10.41,14.27-.13,38.13-7.11,43.22-4.88,3.56-10.13-.07-13.47-4.64-9.7-13.3-11.79-35.58,1.73-45.44,4.5-3.29,13.49-.65,16.32,3.23Z"></path> <path class="cls-18" d="m157.76,450.81c3.73-4.15,7.93-7.91,12.47-11.22,8.47-6.18,18.9-9.09,28.9-9.36-1.79,3.31-3.39,6.7-4.87,10.13-.25-.75-.62-1.46-.99-1.97-6.02-8.25-26.1,5.59-35.52,12.43Z"></path> <path class="cls-15" d="m178.78,508.46c2.49-22.42,6.08-46.29,15.49-68.11-.25-.75-.62-1.46-.99-1.97-6.02-8.25-26.1,5.59-35.52,12.43-3.3,3.67-6.24,7.64-8.72,11.89-2.89,16.1.93,32.72,7.54,41.78,8.3,11.38,13.79,9.83,22.2,3.98Zm-8.14-5.51c-5.07,3.7-12.95-5.06-14.84-7.64-10.14-13.9-3.06-33.55,13.09-45.33,7.55-5.51,8.85-5.58,10.85-5.49,1.93.09,3.29,1.57,4.9,2.53-.68,6.61-3.17,12.93-4.31,19.65-.56,3.29-2.92,31.34-9.69,36.28Z"></path> <path class="cls-9" d="m143.43,474.95c.63,21.81,5.21,43.4,10.39,50.5,4.07,5.58,9.04,5.92,13.55,2.63,1.07-.78,2.16-1.51,3.25-2.31,2.11-1.54,4.8-4.03,7.03-6.77-.8,7.7-1.56,15.15-2.48,22.19-.75.72-1.58,1.41-2.5,2.09-5.94,4.33-14.42-6.65-20.84-15.44-5.03-6.89-9.55-22.03-11.47-38.82.51-4.9,1.55-9.6,3.06-14.07Z"></path> <path class="cls-18" d="m167.38,528.08c-4.51,3.29-9.48,2.95-13.55-2.63-5.18-7.1-9.76-28.69-10.39-50.5,1.45-4.3,3.35-8.39,5.6-12.25-2.89,16.1.93,32.72,7.54,41.78,8.3,11.38,13.79,9.83,22.2,3.98-.39,3.56-.76,7.07-1.12,10.54-2.23,2.74-4.92,5.23-7.03,6.77-1.09.79-2.19,1.53-3.25,2.31Z"></path> <path class="cls-7" d="m172.68,543.28c.92-.67,1.75-1.37,2.5-2.09-1.04,7.92-2.28,15.32-4.04,21.99-3.49-3.62-7.41-8-10.66-12.46-16.48-22.59-21.98-43.55-20.11-61.7,1.92,16.79,6.44,31.93,11.47,38.82,6.41,8.79,14.9,19.78,20.84,15.44Z"></path> <path class="cls-19" d="m170.64,502.95c6.77-4.94,9.14-33,9.69-36.28,1.14-6.72,3.63-13.04,4.31-19.65-1.62-.96-2.98-2.45-4.9-2.53-2.01-.09-3.3-.02-10.85,5.49-16.15,11.78-23.22,31.43-13.09,45.33,1.89,2.59,9.77,11.35,14.84,7.64Zm-2.81-9.34c-2.18,1.59-4.97,1.93-8.44-2.83-4.53-6.21-1.79-22.64,6.47-28.66,1.46-1.07,4.67-2.89,6.63-2.86,1.23.02,2.27.18,3.5.19.81,7.28.45,27.88-8.16,34.16Z"></path> <path class="cls-8" d="m159.39,490.78c-4.53-6.21-1.79-22.64,6.47-28.66,1.46-1.07,4.67-2.89,6.63-2.86,1.23.02,2.27.18,3.5.19.81,7.28.45,27.88-8.16,34.16-2.18,1.59-4.97,1.93-8.44-2.83Z"></path> </g> <g> <path class="cls-11" d="m3.92,670.91c-.27.7-.52,1.4-.76,2.1,39.23-11.71,97.85,22.09,146.19,18.65-.17-.34-.34-.69-.51-1.04-38.54-3.3-92.32-27.75-144.92-19.71Z"></path> <path class="cls-3" d="m108.44,721.09c-13.49,9.18-38.18,14.51-57.66,16.91,2.04.37,4.11.67,6.21.88,23.93-5.83,40.3-5.47,56-16.16,11.34-7.72,18.26-25.17,15.53-29.18-.62-.91-1.29-1.8-2.01-2.64-5.87-.7-11.81-1.72-17.78-2.94,1.72,1.36,3.23,2.93,4.29,4.47,6.32,9.27,5.58,21.75-4.56,28.66Z"></path> <path class="cls-16" d="m112.98,722.72c-15.7,10.69-32.06,10.33-56,16.16,15.67,1.61,32.84-1.26,49.95-9.45,5.26-2.52,10.51-5.51,15.71-9.05,10.82-7.37,20.37-16.48,27.74-26.61-.32-.68-.67-1.39-1.03-2.12-7.41.53-15.07.18-22.86-.75.72.84,1.4,1.73,2.01,2.64,2.73,4.01-4.18,21.45-15.53,29.18Z"></path> <path class="cls-6" d="m94.09,724.06c-15.27,10.4-42.43,11.25-65.01,6.38,6.66,3.58,13.96,6.13,21.69,7.55,19.48-2.4,44.17-7.73,57.66-16.91,10.14-6.91,10.87-19.38,4.56-28.66-1.05-1.54-2.56-3.11-4.29-4.47-4.52-.93-9.06-1.97-13.59-3.07,3.45,3.78,6.2,7.36,7.44,9.19,7.38,10.84,2.14,22.76-8.47,29.98Z"></path> <path class="cls-23" d="m4.64,708.44c2.9,4.27,6.24,8.12,9.93,11.57-1.63-2.21-3.3-4.57-5.05-7.13-10.1-14.83-3.36-30.68,4.2-35.83,2.18-1.48,10.43-4.36,17.94-6.03-10.23-.96-19.84-.59-28.5,1.99-4.57,13.2-4.28,26.98,1.48,35.44Z"></path> <path class="cls-21" d="m9.52,712.88c1.75,2.57,3.42,4.93,5.05,7.13,4.37,4.09,9.23,7.59,14.52,10.44,22.58,4.87,49.74,4.01,65.01-6.38,10.61-7.22,15.85-19.14,8.47-29.98-1.25-1.83-3.99-5.41-7.44-9.19-21.95-5.33-43.85-12.04-63.46-13.88-7.51,1.67-15.76,4.55-17.94,6.03-7.56,5.15-14.29,21-4.2,35.83Zm77.76-22.73c3.74,1.17,6.84,3.67,9.65,6.61.39.41.73.83,1.03,1.26,2.73,4.01,2.62,16-5.49,21.53-12.48,8.5-57.33,22.18-78.9-9.49-7.93-11.64-1.25-21.48,10.39-29.41,14.04-9.56,47.17,4.42,63.34,9.5Z"></path> <path class="cls-12" d="m13.56,710.05c21.57,31.68,66.42,17.99,78.9,9.49,8.12-5.53,8.22-17.52,5.49-21.53-.3-.43-.64-.85-1.03-1.26-2.81-2.94-5.9-5.44-9.65-6.61-16.17-5.07-49.3-19.06-63.34-9.5-11.64,7.93-18.31,17.76-10.39,29.41Zm55-6.49c3.43,5.03,5.21,11.67-.17,15.33-7.68,5.23-35.69,7.29-46.39-8.42-.15-.22-.29-.44-.43-.67-.1-.17-.21-.33-.32-.5-.63-.93-1.39-1.79-2.02-2.72-2.91-4.27-2.33-14.33,2.63-17.71,14.89-10.14,36.73.04,46.7,14.68Z"></path> <path class="cls-23" d="m19.23,706.6c.63.93,1.39,1.78,2.02,2.72.11.16.22.33.32.5.14.23.28.45.43.67,10.7,15.71,38.7,13.65,46.39,8.42,5.38-3.66,3.59-10.3.17-15.33-9.97-14.64-31.81-24.82-46.7-14.68-4.96,3.38-5.54,13.44-2.63,17.71Z"></path> <path class="cls-18" d="m39.75,636.41c-5.55,2.29-10.88,5.18-15.89,8.59-9.33,6.35-16.05,15.87-19.94,25.91,4-.61,8.02-1.02,12.03-1.28-.67-.52-1.26-1.15-1.64-1.71-6.19-9.09,15.11-24.44,25.44-31.51Z"></path> <path class="cls-15" d="m94.6,654.62c-6.79-9.98-22.26-19.86-39.63-22.75-5.21.98-10.3,2.52-15.21,4.54-10.33,7.08-31.63,22.43-25.44,31.51.38.56.97,1.19,1.64,1.71,25.52-1.65,51.03,3.35,74.65,8.93,8.98-6.41,12.53-11.42,4-23.95Zm-46.93,10.41c-7.22-1.27-14.53-1.04-21.48-2.74-.39-1.99-1.4-3.91-.79-5.89.64-2.07,1.17-3.36,9.49-9.02,17.78-12.11,40.27-12.18,50.69,3.13,1.94,2.85,7.97,14.01,2.38,17.81-7.46,5.08-36.76-2.67-40.29-3.29Z"></path> <path class="cls-9" d="m69.41,630.61c21.89,8.53,42.11,20.98,47.44,28.8,4.19,6.15,2.74,11.3-2.24,14.69-1.17.8-2.32,1.65-3.52,2.46-2.33,1.58-5.82,3.41-9.41,4.68,8.1,1.98,15.92,3.9,23.4,5.51,1-.5,2-1.09,3.02-1.78,6.54-4.45-1.53-17.03-8.12-26.71-5.17-7.59-18.88-17.65-35.2-25.66-5.15-1.26-10.29-1.91-15.37-1.99Z"></path> <path class="cls-18" d="m114.62,674.1c4.97-3.39,6.42-8.54,2.24-14.69-5.33-7.82-25.56-20.27-47.44-28.8-4.89-.08-9.72.36-14.45,1.25,17.37,2.89,32.84,12.78,39.63,22.75,8.53,12.53,4.98,17.54-4,23.95,3.75.89,7.44,1.79,11.09,2.68,3.59-1.27,7.08-3.1,9.41-4.68,1.2-.82,2.34-1.66,3.52-2.46Z"></path> <path class="cls-7" d="m128.11,684.98c-1.01.69-2.02,1.28-3.02,1.78,8.4,1.81,16.36,3.23,23.75,3.86-2.41-4.85-5.44-10.41-8.78-15.31-16.94-24.88-36.2-38.03-55.28-42.7,16.32,8.02,30.04,18.08,35.2,25.66,6.59,9.68,14.66,22.26,8.12,26.71Z"></path> <path class="cls-19" d="m85.58,650.51c-10.42-15.31-32.9-15.24-50.69-3.13-8.31,5.66-8.85,6.95-9.49,9.02-.61,1.98.41,3.9.79,5.89,6.95,1.7,14.26,1.46,21.48,2.74,3.53.62,32.83,8.37,40.29,3.29,5.59-3.81-.44-14.96-2.38-17.81Zm-43.65,7.5c.43-1.26.64-2.37,1.07-3.62.68-1.99,3.68-4.59,5.3-5.69,9.09-6.19,26.74-3.03,31.4,3.81,3.57,5.25,2.22,7.95-.18,9.59-9.48,6.46-30.5-.63-37.58-4.09Z"></path> <path class="cls-8" d="m79.69,652.51c-4.65-6.83-22.3-10-31.4-3.81-1.61,1.1-4.62,3.69-5.3,5.69-.43,1.26-.64,2.37-1.07,3.62,7.08,3.46,28.1,10.54,37.58,4.09,2.4-1.64,3.75-4.34.18-9.59Z"></path> </g> <g> <path class="cls-11" d="m205.21,595.18c.6-.23,1.2-.44,1.8-.65-10.04,33.73,19.07,84.09,16.15,125.65-.3-.14-.59-.29-.89-.44-2.87-33.13-23.93-79.34-17.06-124.56Z"></path> <path class="cls-3" d="m248.43,684.98c7.88-11.6,12.44-32.84,14.49-49.58.32,1.75.58,3.53.76,5.33-4.99,20.58-4.67,34.64-13.84,48.15-6.63,9.76-21.62,15.71-25.07,13.37-.78-.53-1.55-1.11-2.27-1.73-.6-5.04-1.49-10.15-2.55-15.28,1.17,1.48,2.52,2.78,3.85,3.68,7.98,5.42,18.7,4.78,24.63-3.94Z"></path> <path class="cls-16" d="m249.84,688.89c9.18-13.5,8.85-27.57,13.84-48.15,1.4,13.47-1.06,28.23-8.08,42.94-2.16,4.52-4.73,9.04-7.77,13.51-6.33,9.31-14.15,17.52-22.85,23.87-.58-.28-1.2-.58-1.82-.88.45-6.37.14-12.95-.66-19.65.72.62,1.49,1.2,2.27,1.73,3.45,2.34,18.44-3.62,25.07-13.37Z"></path> <path class="cls-6" d="m250.98,672.65c8.92-13.13,9.64-36.48,5.43-55.89,3.09,5.72,5.28,11.99,6.51,18.64-2.04,16.74-6.6,37.98-14.49,49.58-5.93,8.72-16.65,9.36-24.63,3.94-1.33-.9-2.67-2.2-3.85-3.68-.8-3.89-1.7-7.79-2.65-11.68,3.25,2.96,6.33,5.32,7.91,6.39,9.32,6.34,19.57,1.82,25.77-7.3Z"></path> <path class="cls-23" d="m237.48,595.77c3.67,2.49,6.99,5.36,9.95,8.53-1.9-1.4-3.93-2.83-6.14-4.33-12.75-8.67-26.38-2.86-30.8,3.64-1.27,1.87-3.74,8.97-5.17,15.43-.83-8.79-.53-17.05,1.69-24.5,11.35-3.94,23.19-3.7,30.46,1.24Z"></path> <path class="cls-21" d="m210.5,603.6c-1.27,1.87-3.74,8.97-5.17,15.43,1.6,16.85,7.39,35.67,11.98,54.54,3.25,2.96,6.33,5.32,7.91,6.39,9.32,6.34,19.57,1.82,25.77-7.3,8.92-13.13,9.64-36.48,5.43-55.89-2.45-4.54-5.47-8.72-8.98-12.47-1.9-1.4-3.93-2.83-6.14-4.33-12.75-8.67-26.38-2.86-30.8,3.64Zm3.1,8.79c6.8-10.01,15.26-15.76,25.27-8.95,27.25,18.52,15.52,57.08,8.23,67.82-4.74,6.98-15.06,7.08-18.5,4.74-.37-.25-.74-.55-1.08-.88-2.53-2.41-4.68-5.07-5.69-8.29-4.38-13.9-16.42-42.36-8.22-54.44Z"></path> <path class="cls-12" d="m213.6,612.38c-8.21,12.08,3.84,40.54,8.22,54.44,1.01,3.22,3.16,5.87,5.69,8.29.35.33.71.63,1.08.88,3.45,2.34,13.76,2.24,18.5-4.74,7.29-10.73,19.02-49.3-8.23-67.82-10.01-6.8-18.47-1.06-25.27,8.95Zm7.08-1.79c2.9-4.27,11.55-4.77,15.22-2.28.8.54,1.54,1.19,2.34,1.74.14.1.28.19.43.27.2.12.39.24.58.37,13.52,9.19,11.77,33.26,7.28,39.87-3.14,4.63-8.85,3.1-13.18.16-12.6-8.56-21.36-27.32-12.66-40.13Z"></path> <path class="cls-23" d="m235.9,608.31c.8.54,1.54,1.19,2.34,1.74.14.1.28.19.43.27.2.12.39.24.58.37,13.52,9.19,11.77,33.26,7.28,39.87-3.14,4.63-8.85,3.1-13.18.16-12.6-8.56-21.36-27.32-12.66-40.13,2.9-4.27,11.55-4.77,15.22-2.28Z"></path> <path class="cls-18" d="m175.58,626.01c1.96-4.78,4.44-9.36,7.37-13.66,5.45-8.02,13.63-13.81,22.26-17.16-.52,3.44-.87,6.89-1.09,10.34-.45-.58-.99-1.08-1.47-1.41-7.82-5.31-20.99,13.01-27.07,21.9Z"></path> <path class="cls-15" d="m211.87,669.69c-4.82-20.3-9.14-42.22-7.74-64.17-.45-.58-.99-1.08-1.47-1.41-7.82-5.31-20.99,13.01-27.07,21.9-1.73,4.22-3.05,8.6-3.89,13.08,2.5,14.93,11.01,28.22,19.59,34.05,10.78,7.32,15.08,4.27,20.58-3.45Zm-8.81-2.26c-3.27,4.81-12.86-.37-15.31-2.03-13.17-8.95-13.13-28.27-2.73-43.57,4.86-7.15,5.97-7.62,7.75-8.16,1.7-.53,3.36.35,5.06.68,1.47,5.97,1.27,12.25,2.37,18.46.54,3.04,7.23,28.21,2.87,34.63Z"></path> <path class="cls-9" d="m170.63,651.51c7.35,18.81,18.07,36.18,24.8,40.76,5.29,3.59,9.72,2.34,12.62-1.93.69-1.01,1.41-1.99,2.11-3.02,1.36-2,2.93-5.01,4.01-8.09,1.71,6.96,3.37,13.68,4.76,20.11-.43.86-.94,1.72-1.53,2.6-3.82,5.63-14.64-1.3-22.97-6.96-6.53-4.44-15.19-16.22-22.09-30.24-1.09-4.43-1.65-8.85-1.72-13.21Z"></path> <path class="cls-18" d="m208.05,690.33c-2.91,4.28-7.33,5.53-12.62,1.93-6.73-4.57-17.45-21.95-24.8-40.76-.07-4.2.3-8.35,1.06-12.42,2.5,14.93,11.01,28.22,19.59,34.05,10.78,7.32,15.08,4.27,20.58-3.45.77,3.22,1.54,6.4,2.31,9.53-1.09,3.08-2.65,6.09-4.01,8.09-.7,1.03-1.43,2.01-2.11,3.02Z"></path> <path class="cls-7" d="m217.41,701.92c.59-.87,1.1-1.74,1.53-2.6,1.56,7.22,2.79,14.06,3.34,20.42-4.17-2.07-8.95-4.66-13.17-7.53-21.4-14.54-32.72-31.09-36.75-47.49,6.9,14.03,15.56,25.81,22.09,30.24,8.33,5.66,19.14,12.59,22.97,6.96Z"></path> <path class="cls-19" d="m203.06,667.42c4.36-6.42-2.33-31.59-2.87-34.63-1.1-6.21-.9-12.49-2.37-18.46-1.71-.33-3.36-1.2-5.06-.68-1.78.55-2.89,1.01-7.75,8.16-10.4,15.3-10.43,34.62,2.73,43.57,2.45,1.67,12.05,6.84,15.31,2.03Zm-5.36-7.26c-1.41,2.07-3.73,3.23-8.24.16-5.88-3.99-8.61-19.16-3.3-26.98.94-1.39,3.17-3.97,4.88-4.56,1.08-.37,2.03-.55,3.11-.92,2.98,6.09,9.09,24.14,3.54,32.3Z"></path> <path class="cls-8" d="m189.46,660.33c-5.88-3.99-8.61-19.16-3.3-26.98.94-1.39,3.17-3.97,4.88-4.56,1.08-.37,2.03-.55,3.11-.92,2.98,6.09,9.09,24.14,3.54,32.3-1.41,2.07-3.73,3.23-8.24.16Z"></path> </g> </g> </g> </svg> 