<?xml version="1.0" encoding="UTF-8"?> <svg xmlns="http://www.w3.org/2000/svg" id="Layer_2" data-name="Layer 2" viewBox="0 0 153.1 145.02"> <defs> <style> .cls-1 { fill: #e0d5e9; } .cls-2 { fill: #ece4f1; } .cls-3 { fill: #d5c4df; } .cls-4 { fill: #fff; } .cls-5 { fill: #d9cbe4; } .cls-6 { fill: #ece7f2; } .cls-7 { fill: #f6f6fa; } .cls-8 { fill: #f8f6fa; } .cls-9 { fill: #e3dcee; } .cls-10 { fill: #ebe6f1; } .cls-11 { stroke-linecap: round; stroke-linejoin: round; } .cls-11, .cls-12 { fill: none; stroke: #ad8955; stroke-width: .98px; } .cls-13 { fill: #f7f7fb; } .cls-14 { fill: #e6dbed; } .cls-15 { fill: #f3eef7; } .cls-16 { fill: #b8a6d0; } .cls-17 { fill: #eae1ef; } .cls-18 { fill: #d9c9e3; } .cls-19 { fill: #ccbadb; } .cls-20 { fill: #e9e0ee; } .cls-21 { fill: #fbf9fc; } .cls-22 { fill: #ad8955; } .cls-23 { fill: #beafd6; } .cls-24 { fill: #f0ebf5; } .cls-25 { fill: #907db9; } .cls-26 { fill: #c7b7da; } .cls-27 { fill: #9d8ac1; } .cls-28 { fill: #fdfeff; } .cls-29 { fill: #f7f5fa; } .cls-30 { fill: #c2afd5; } .cls-31 { fill: #ece5f0; } .cls-32 { fill: #e6d8eb; } .cls-33 { fill: #af9dca; } .cls-34 { fill: #d0bcdb; } .cls-35 { fill: #f4eff6; } .cls-12 { stroke-miterlimit: 10; } .cls-36 { fill: #ab95c7; } .cls-37 { fill: #e1d4e7; } .cls-38 { fill: #eee5f1; } .cls-39 { fill: #f6f1f8; } .cls-40 { fill: #a391c5; } .cls-41 { fill: #e4dbeb; } .cls-42 { fill: #f7f6fb; } .cls-43 { fill: #e3d9ec; } .cls-44 { fill: #d2c4df; } .cls-45 { fill: #e1d3e7; } .cls-46 { fill: #dacce4; } .cls-47 { fill: #decfe6; } .cls-48 { fill: #c8b6d8; } </style> </defs> <g id="clipping_mask" data-name="clipping mask"> <g> <path class="cls-37" d="m75.98,107.45c1.94-5.23,10.44-3.63,12.34-8.74.53-1.44.53-2.68,1.28-4.69.52-1.4,1.55-3.31,1.57-3.35.15-.4.19-.82.15-1.24-.04,0-.08-.01-.12-.02-.37,1-1.03,1.49-1.6,3.02-.7,1.89-.8,4.25-1.48,6.09-.9,2.42-8.08,4.55-8.22,4.61-3.97,1.77-4.54,4.29-5.9,5.31.19.6.4,1.19.63,1.76.31-.35.65-.86,1.06-1.96.1-.27.19-.53.29-.79h0Z"></path> <path class="cls-47" d="m88.11,98.52c.68-1.84.78-4.2,1.48-6.09.57-1.53,1.22-2.02,1.6-3.02-.11-.02-.22-.04-.34-.06,0,.02,0,.04-.01.05-.38,1.02-1.76,3.32-2.45,5.18-.52,1.39-.44,1.75-.83,2.8-.63,1.71-1.85,3.18-3.97,3.71-8.24,2.05-6.89,5.52-9.97,6.01.11.45.24.89.38,1.33,1.36-1.02,1.93-3.54,5.9-5.31.14-.06,7.32-2.19,8.22-4.61h0Z"></path> <path class="cls-18" d="m83.6,101.1c2.12-.53,3.33-2,3.97-3.71.39-1.05.31-1.41.83-2.8.69-1.86,2.07-4.16,2.45-5.18,0-.02,0-.04.01-.05-.2-.03-.41-.06-.61-.08.02.39-.08.82-.23,1.22-.39,1.04-.89,1.25-1.55,3.03-.48,1.29-.62,2.26-1.07,3.47-.58,1.56-1.51,3-3.27,3.27-8.63,1.34-7.13,6.32-10.68,6.08.06.26.12.51.18.77,3.08-.49,1.73-3.96,9.97-6.01h0Z"></path> <g> <path class="cls-37" d="m89.66,89.37s.04-.03.06-.05c-.02,0-.03.02-.05.02,0,0,0,.01,0,.02Z"></path> <polygon points="90.5 88.82 89.38 89.74 89.57 89.33 89.66 89.37 89.57 89.32 89.59 89.28 89.66 89.24 90.5 88.82"></polygon> </g> <path class="cls-1" d="m91.16,90.66s-1.04,1.95-1.57,3.35c-.75,2.02-.74,3.26-1.28,4.69-1.9,5.11-10.39,3.51-12.34,8.74-.1.26-.19.53-.29.79-.41,1.09-.75,1.61-1.06,1.96.35.86.75,1.7,1.19,2.52-.27-1.44-.18-3.01.33-4.38,2.04-5.5,10.12-2.95,11.97-7.92.35-.95.36-2.51,1.39-5.31.85-2.29,1.95-4.06,3.26-5.35-.48-.13-.97-.24-1.46-.33.04.41,0,.84-.15,1.24Z"></path> <path class="cls-33" d="m82.61,97c2.66-1.23,2.25-4.36,4.6-6.58-.23.09-.45.17-.67.25-.53.46-1.11.89-1.67,1.32-1.07.84-1.22,2.19-2.14,3.05-1.11,1.03-2.61,1.39-3.89,2.3-1.36.97-2.51,2.27-3.88,3.12-.18.19-.35.39-.53.58-.36.39-.79.79-1.28,1.22,1.81-.03,2.85-2.2,9.46-5.26h0Z"></path> <path class="cls-16" d="m83.19,98.1c1.17-.09,1.81-.92,2.18-1.9.41-1.11.37-2.17.87-3.52.77-2.06,1.74-1.94,3.43-3.31,0,0,0-.01,0-.02-.88.43-1.71.78-2.46,1.07-2.34,2.23-1.94,5.35-4.6,6.58-6.61,3.06-7.65,5.24-9.46,5.26-.07.06-.14.12-.21.18,0,.17.02.35.03.53.08.06.17.11.29.16,2.94,1.09,2.8-4.45,9.93-5.02h0Z"></path> <path class="cls-30" d="m73.84,104.68c.56.21,1.7-.24,2.3-1.61,2.48-5.59,9.1-3.2,10.18-6.12.29-.79.03-1.35.63-2.98.77-2.08,2.39-3.86,2.71-4.6-1.69,1.37-2.66,1.25-3.43,3.31-.5,1.34-.45,2.41-.87,3.52-.37.99-1.01,1.81-2.18,1.9-7.13.57-6.99,6.11-9.93,5.02-.12-.04-.21-.1-.29-.16.01.19.03.38.04.56.21.47.4.99.82,1.15h0Z"></path> <path class="cls-34" d="m83.01,99.79c2.37-.01,3.44-1.6,4.16-3.55.48-1.3.81-2.75,1.28-4,.65-1.74,1.32-1.93,1.66-2.85.02-.05.03-.09.04-.14-.08,0-.15-.02-.23-.03-.07.03-.13.06-.2.1-.02.02-.04.03-.06.05-.32.74-1.94,2.51-2.71,4.6-.6,1.63-.34,2.19-.63,2.98-1.09,2.92-7.71.53-10.18,6.12-.6,1.36-1.75,1.82-2.3,1.61-.42-.15-.61-.68-.82-1.15.06.71.16,1.41.29,2.09,2.96.19,3.54-5.8,9.7-5.83h0Z"></path> <path class="cls-3" d="m84.13,100.26c1.76-.27,2.69-1.71,3.27-3.27.45-1.2.59-2.17,1.07-3.47.66-1.78,1.17-1.99,1.55-3.03.15-.41.25-.83.23-1.22-.03,0-.06,0-.1-.01-.01.05-.03.09-.04.14-.34.92-1.01,1.11-1.66,2.85-.47,1.25-.8,2.71-1.28,4-.72,1.95-1.79,3.54-4.16,3.55-6.16.03-6.74,6.02-9.7,5.83.04.24.09.48.14.71,3.55.24,2.05-4.74,10.68-6.08h0Z"></path> <path class="cls-32" d="m92.77,89.76c-1.31,1.29-2.41,3.07-3.26,5.35-1.04,2.79-1.04,4.36-1.39,5.31-1.85,4.97-9.92,2.42-11.97,7.92-.51,1.36-.6,2.93-.33,4.38.93,1.72,2.06,3.34,3.35,4.85-1.44-2.68-3.17-6.72-2.29-9.1,1.71-4.59,9.5-2.15,12.17-9.35.43-1.16.66-2.07.92-2.78,1.2-3.24,3.23-5.78,6.45-5.06-.82-.45-1.67-.84-2.53-1.16-.37-.14-.74-.25-1.11-.36Z"></path> <path class="cls-20" d="m104.44,119.78c-.13-.29-.25-.56-.37-.84.1.3.23.57.37.84Z"></path> <path class="cls-20" d="m89.97,96.34c-.27.71-.49,1.62-.92,2.78-2.68,7.2-10.47,4.76-12.17,9.35-.88,2.37.85,6.42,2.29,9.1,4.26,5.02,10.28,8.88,16.7,11.26,10.67,3.97,9.87,1.97,11.03-1.15,6.02-16.21-.48-30.92-10.48-36.39-3.21-.72-5.24,1.82-6.45,5.06h0Zm14.84,33.53c-3.48-.41-7.16-1.22-10.66-2.52-14.28-5.31-16.84-15.73-16.12-17.67,1.15-3.11,5.56-3.87,6.52-4.39,1.86-.99,2.6-3.11,6.6-1.62,8.61,3.2,14.55,20.47,13.65,26.2h0Zm2.36-8.25c-.19.52-.58.76-1.29.5-.33-.12-.63-.36-.71-.68-.15-.62-.46-1.14-.74-1.66-.14-.27-.27-.55-.37-.84-9.34-20.74-15.91-14.35-13.22-21.58,1.2-3.22,3.82-4.93,7.91-3.41,6.23,2.31,12.31,17.22,8.43,27.68h0Z"></path> <path class="cls-38" d="m84.57,105.3c-.96.51-5.37,1.28-6.52,4.39-.72,1.93,1.84,12.36,16.12,17.67,3.5,1.3,7.18,2.12,10.66,2.52.89-5.73-5.04-23-13.65-26.2-4-1.49-4.74.63-6.6,1.62h0Zm14.91,21.99c-1.91-.09-3.72-.48-5.44-1.12-7.51-2.79-16.04-12.74-14.97-15.62,1.09-2.92,5.44-5.09,10.5-3.21,10.39,3.86,11.72,14.8,9.91,19.96h0Z"></path> <path class="cls-17" d="m90.84,97.35c-2.69,7.23,3.88.84,13.22,21.58.12.28.25.55.37.84.28.53.58,1.04.74,1.66.08.33.38.56.71.68.71.27,1.09.03,1.29-.5,3.89-10.46-2.2-25.36-8.43-27.68-4.09-1.52-6.72.19-7.91,3.41h0Zm16.04,13.79c-.52.07-1.27.05-1.97-.21-2.66-.99-4.08-4.77-5.78-7.01-2.28-3-6.64-4.02-5.12-8.11.67-1.79,2.82-1.37,4.64-.69,5.74,2.13,7.54,10.01,8.23,16.03h0Z"></path> <path class="cls-31" d="m94.01,95.81c-1.52,4.09,2.84,5.11,5.12,8.11,1.7,2.24,3.12,6.02,5.78,7.01.7.26,1.45.27,1.97.21-.69-6.02-2.49-13.89-8.23-16.03-1.82-.68-3.97-1.1-4.64.69h0Z"></path> <path class="cls-39" d="m81.3,109.69c-1.77,4.77,4.4,8.89,8.04,11.44.58-.42,1.23-1.12,1.61-2.14.51-1.37.06-8.71-4.75-10.5-1.82-.68-4.27-.48-4.89,1.2h0Z"></path> <path class="cls-24" d="m79.07,110.54c-1.07,2.88,7.46,12.83,14.97,15.62,1.72.64,3.53,1.03,5.44,1.12,1.8-5.15.48-16.1-9.91-19.96-5.05-1.88-9.41.29-10.5,3.21h0Zm11.87,8.45c-.38,1.02-1.03,1.72-1.61,2.14-3.64-2.55-9.81-6.67-8.04-11.44.62-1.68,3.07-1.88,4.89-1.2,4.82,1.79,5.26,9.14,4.75,10.5h0Z"></path> <g> <path class="cls-37" d="m54.23,95.34c5.45-.67,7.88,7.3,13.21,6.64,1.5-.19,2.58-.74,4.68-1,1.46-.18,3.6-.15,3.64-.16.42-.05.81-.2,1.15-.42-.01-.04-.02-.07-.04-.11-1.04.13-1.77-.22-3.36-.02-1.97.24-4.08,1.21-6,1.45-2.52.31-7.62-4.87-7.73-4.96-3.34-2.6-5.8-1.96-7.3-2.67-.44.43-.86.87-1.26,1.33.44.11,1.05.17,2.19.03.28-.04.55-.07.82-.11h0Z"></path> <path class="cls-47" d="m67.52,101.72c1.92-.24,4.03-1.21,6-1.45,1.6-.2,2.32.15,3.36.02-.03-.1-.07-.21-.1-.32-.02,0-.04,0-.05,0-1.06.13-3.7-.02-5.64.22-1.45.18-1.73.41-2.83.54-1.78.22-3.62-.16-5.03-1.74-5.51-6.13-7.93-3.42-9.75-5.84-.34.3-.67.6-.99.91,1.51.7,3.97.06,7.3,2.67.12.09,5.22,5.27,7.73,4.96h0Z"></path> <path class="cls-18" d="m63.22,99.02c1.42,1.58,3.25,1.95,5.03,1.74,1.1-.14,1.37-.36,2.83-.54,1.94-.24,4.58-.09,5.64-.22.02,0,.04,0,.05,0-.06-.19-.13-.37-.2-.56-.33.19-.75.3-1.17.35-1.08.14-1.5-.2-3.35.03-1.35.17-2.26.48-3.51.63-1.63.2-3.3.05-4.34-1.33-5.07-6.78-8.75-3.28-10.14-6.41-.2.16-.4.33-.59.5,1.82,2.41,4.25-.29,9.75,5.84h0Z"></path> <g> <path class="cls-37" d="m76.22,98.97s.05.02.07.03c-.01-.01-.03-.02-.04-.03,0,0-.02,0-.02,0h0Z"></path> <polygon points="77.08 99.43 75.77 98.89 76.21 98.87 76.22 98.97 76.22 98.86 76.26 98.86 76.33 98.91 77.08 99.43"></polygon> </g> <path class="cls-1" d="m75.77,100.82s-2.17-.02-3.64.16c-2.1.26-3.18.82-4.68,1-5.33.66-7.75-7.31-13.21-6.64-.27.04-.55.07-.82.11-1.14.14-1.75.08-2.19-.03-.6.68-1.15,1.4-1.67,2.14,1.14-.88,2.56-1.5,3.97-1.67,5.73-.71,7.14,7.33,12.33,6.69.99-.12,2.36-.82,5.27-1.18,2.38-.29,4.44-.14,6.15.4-.1-.47-.22-.93-.37-1.39-.34.22-.73.37-1.15.42h0Z"></path> <path class="cls-33" d="m66.37,96.35c2.28,1.72,4.83-.02,7.84.99-.18-.16-.35-.31-.52-.46-.64-.25-1.28-.55-1.91-.84-1.22-.54-2.47-.06-3.64-.47-1.4-.49-2.4-1.61-3.76-2.29-1.46-.73-3.12-1.13-4.48-1.92-.25-.06-.5-.13-.75-.19-.5-.13-1.05-.32-1.64-.55.85,1.54,3.22,1.45,8.87,5.73h0Z"></path> <path class="cls-16" d="m65.66,97.33c.61.96,1.62,1.14,2.65,1.01,1.16-.14,2.07-.66,3.47-.83,2.15-.27,2.48.62,4.44,1.45,0,0,.02,0,.02,0-.78-.56-1.45-1.11-2.04-1.63-3-1.01-5.55.73-7.84-.99-5.66-4.28-8.03-4.2-8.87-5.73-.08-.03-.17-.06-.25-.1-.15.08-.3.17-.45.26-.02.09-.02.19,0,.32.37,3,5.16.4,8.87,6.24h0Z"></path> <path class="cls-30" d="m55.69,92.28c.07.57.98,1.34,2.45,1.25,6.01-.38,6.9,6.34,9.95,5.97.82-.1,1.19-.58,2.89-.79,2.17-.27,4.45.32,5.24.26-1.96-.83-2.29-1.72-4.44-1.45-1.4.17-2.31.68-3.47.83-1.03.13-2.04-.06-2.65-1.01-3.72-5.83-8.5-3.24-8.87-6.24-.01-.12,0-.22,0-.32-.16.1-.32.19-.48.29-.32.39-.69.79-.63,1.21h0Z"></path> <path class="cls-34" d="m64.1,97.93c1.08,2.02,2.95,2.22,4.98,1.97,1.35-.17,2.77-.53,4.08-.69,1.81-.22,2.28.27,3.24.15.05,0,.09-.01.14-.02-.03-.07-.05-.14-.08-.21-.06-.04-.12-.08-.18-.12-.02,0-.05-.02-.07-.03-.79.05-3.07-.53-5.24-.26-1.7.21-2.07.68-2.89.79-3.05.38-3.94-6.35-9.95-5.97-1.47.09-2.38-.68-2.45-1.25-.05-.42.32-.82.63-1.21-.59.37-1.16.76-1.7,1.18,1.17,2.61,6.68.44,9.48,5.69h0Z"></path> <path class="cls-3" d="m64.2,99.09c1.03,1.38,2.71,1.53,4.34,1.33,1.26-.15,2.17-.47,3.51-.63,1.85-.23,2.27.11,3.35-.03.42-.05.84-.16,1.17-.35-.01-.03-.02-.06-.04-.09-.05,0-.09.02-.14.02-.96.12-1.43-.37-3.24-.15-1.3.16-2.73.53-4.08.69-2.03.25-3.9.05-4.98-1.97-2.8-5.25-8.31-3.07-9.48-5.69-.19.14-.37.29-.56.44,1.39,3.14,5.07-.36,10.14,6.41h0Z"></path> <path class="cls-32" d="m77.28,101.8c-1.72-.54-3.77-.69-6.15-.4-2.91.36-4.28,1.06-5.27,1.18-5.18.64-6.59-7.4-12.33-6.69-1.42.17-2.84.8-3.97,1.67-1.08,1.56-1.99,3.25-2.73,5.02,1.69-2.43,4.45-5.71,6.92-6.02,4.78-.59,6.16,7.15,13.67,6.23,1.21-.15,2.11-.36,2.85-.45,3.38-.42,6.52.18,7.34,3.25.02-.9-.02-1.8-.13-2.68-.05-.37-.11-.74-.19-1.11h0Z"></path> <path class="cls-20" d="m56.29,125.16c.19-.23.38-.47.57-.69-.22.22-.39.45-.57.69Z"></path> <path class="cls-20" d="m70.26,102.34c-.74.09-1.64.3-2.85.45-7.51.93-8.89-6.82-13.67-6.23-2.47.3-5.23,3.59-6.92,6.02-2.46,5.88-3.12,12.74-2.32,19.29,1.35,10.89,2.72,9.31,5.98,8.91,16.9-2.09,26.83-14.21,27.1-25.19-.82-3.06-3.96-3.66-7.34-3.25h0Zm-22.64,27.65c-1.21-3.15-2.16-6.66-2.6-10.23-1.8-14.57,6.17-21.4,8.18-21.65,3.24-.4,5.89,3.02,6.78,3.62,1.7,1.15,3.89.83,4.4,4.91,1.09,8.78-11.34,21.56-16.76,23.36h0Zm8.28-1.66c-.55.07-.93-.15-1.02-.88-.04-.34.03-.7.27-.92.48-.41.78-.9,1.12-1.37.17-.24.35-.48.57-.69,13.93-17.24,5.37-19.99,12.91-20.93,3.35-.41,6.04,1.07,6.55,5.24.78,6.36-9.51,18.21-20.41,19.55h0Z"></path> <path class="cls-17" d="m59.98,101.72c-.88-.59-3.54-4.02-6.78-3.62-2.01.25-9.98,7.08-8.18,21.65.44,3.57,1.39,7.08,2.6,10.23,5.41-1.79,17.84-14.57,16.76-23.36-.5-4.08-2.69-3.77-4.4-4.91h0Zm-12.5,22.55c-.78-1.67-1.26-3.4-1.47-5.15-.95-7.66,3.91-19.39,6.91-19.76,3.05-.38,6.91,2.38,7.54,7.53,1.31,10.6-7.66,16.61-12.98,17.37h0Z"></path> <path class="cls-17" d="m69.77,103.54c-7.54.93,1.02,3.69-12.91,20.93-.19.23-.37.46-.57.69-.34.47-.64.96-1.12,1.37-.25.22-.32.58-.27.92.09.73.47.95,1.02.88,10.9-1.35,21.19-13.2,20.41-19.55-.52-4.17-3.2-5.65-6.55-5.24h0Zm-4.83,19.85c-.29-.41-.62-1.06-.71-1.77-.34-2.72,2.33-5.61,3.52-8.07,1.6-3.28.52-7.47,4.79-7.99,1.87-.23,2.47,1.8,2.7,3.66.72,5.86-5.35,10.91-10.3,14.18Z"></path> <path class="cls-31" d="m72.55,105.55c-4.26.53-3.19,4.71-4.79,7.99-1.19,2.46-3.86,5.35-3.52,8.07.09.71.41,1.36.71,1.77,4.95-3.28,11.03-8.32,10.3-14.18-.23-1.86-.83-3.89-2.7-3.66h0Z"></path> <path class="cls-6" d="m54.67,100.88c-4.97.61-5.79,7.72-6.38,11.97.63.31,1.53.55,2.59.42,1.42-.18,7.65-3.83,7.04-8.74-.23-1.86-1.51-3.86-3.26-3.64h0Z"></path> <path class="cls-31" d="m52.92,99.36c-3,.37-7.86,12.1-6.91,19.76.22,1.75.69,3.48,1.47,5.15,5.32-.76,14.29-6.78,12.98-17.37-.64-5.15-4.49-7.91-7.54-7.53h0Zm-2.04,13.91c-1.06.13-1.97-.11-2.59-.42.59-4.25,1.41-11.36,6.38-11.97,1.75-.22,3.03,1.78,3.26,3.64.61,4.91-5.62,8.57-7.04,8.74h0Z"></path> </g> <path class="cls-20" d="m106.46,45.26c-2.62.67-6.5-1.97-7.28-5.05-.56-2.2.2-4.59,1.8-6.29-.1.02-.2.04-.3.07-.95.24-1.82.64-2.63,1.15.13,1.63-.36,2.53.3,4.96,1.64,6.07,6.72,5.74,8.62,5.25,1.69-.43,2.61-1.93,5.88-2.77.39-.1.75-.12,1.09-.06.18-.25.36-.42.57-.47.03,0,.06-.01.1-.02-.52-.13-1.08-.14-1.67,0-1.76.45-3.98,2.59-6.46,3.22h0Z"></path> <path class="cls-16" d="m94.16,39.99c-.03-.12-.09-.36-.14-.64-.42.66-.8,1.35-1.14,2.05,0,.06-.02.12-.03.19,2.36,1.72,4.57,3.72,6.51,5.78.35-.22.77-.4,1.18-.55-2.52-1.02-5.59-3.68-6.39-6.82h0Z"></path> <path class="cls-30" d="m96.08,41.32c-.14-.56-.17-1.3-.36-2.02-.11-.42-.39-1.06-.65-1.41-.37.47-.72.96-1.04,1.46.05.27.1.52.14.64.8,3.14,3.86,5.8,6.39,6.82.37-.14.74-.25,1.07-.33-2.01-.22-4.42-.77-5.55-5.16Z"></path> <path class="cls-37" d="m106.96,45.35c-1.9.49-6.98.82-8.62-5.25-.66-2.44-.17-3.33-.3-4.96-.71.45-1.36.99-1.96,1.59.65.5,1.26,1.41,1.64,2.89.02.09.04.17.07.26,1.13,4.41,4.23,6.13,8.74,6.19,1.73.03,5.2-1.35,6.19-2.58.33-.4.63-.55.9-.51.1-.17.2-.32.29-.46-.33-.05-.7-.04-1.09.06-3.27.83-4.19,2.33-5.88,2.77h0Z"></path> <path class="cls-47" d="m112.73,43.49c-1,1.24-4.47,2.61-6.19,2.58-4.52-.07-7.62-1.78-8.74-6.19-.02-.09-.04-.17-.07-.26-.38-1.47-.99-2.38-1.64-2.89-.16.16-.32.33-.48.5,2.42.3.5,10.31,7.79,8.82,1.97-.4,4.13,1.28,7.31-.3,1.43-.71,2.25-2.07,2.85-2.65.03-.04.05-.09.08-.13-.28-.04-.58.11-.9.51h0Z"></path> <path class="cls-34" d="m103.4,46.06c-7.28,1.49-5.37-8.51-7.79-8.82-.19.21-.37.43-.55.65.26.36.55.99.65,1.41.19.72.22,1.46.36,2.02,1.12,4.39,3.53,4.94,5.55,5.16.06-.02.12-.03.18-.05,3.96-1.01,5.47.89,8.04.24,2.15-.55,3.03-2.37,3.72-3.56-.6.58-1.43,1.94-2.85,2.65-3.18,1.59-5.33-.1-7.31.3h0Z"></path> <path class="cls-38" d="m117.95,37.56c.05-.01.11-.01.17,0-.21-.59-.5-1.14-.85-1.63-.19.67-.75,1.66-.31,3.38.49,1.93,1.03,2.18,1.45,2.81.3.45.84,1.45.06,1.8-.69.31-1.97-2.44-3.99-2.34-.19,0-1.91.14-2.31.24-1.9.49-3.87,2.72-5.29,3.08-1.25.32-6.22-.27-7.43-5.01-.5-1.94,1.06-5.15,3.84-5.88.27-.07.49-.13.7-.19-.8-.07-1.67-.21-3.01.09-1.59,1.71-2.36,4.1-1.8,6.29.79,3.08,4.67,5.72,7.28,5.05,2.48-.63,4.69-2.77,6.46-3.22.59-.15,1.15-.14,1.67,0,1.99-.41,2.43,2.54,3.98,2.15.59-.15.63-.62.47-1.22-.28-1.11-1.19-1.62-1.49-2.8-.17-.68-.22-2.44.4-2.6h0Z"></path> <path class="cls-24" d="m116.95,39.33c-.44-1.72.12-2.72.31-3.38-.24-.33-.52-.63-.83-.89-4.99-4.11-4.47-5.05-5.98-4.67-1.66.42-3.24,2.94-4.93,3.37-.55.14-1.03.12-1.55.07-.2.06-.43.13-.7.19-2.78.73-4.33,3.94-3.84,5.88,1.21,4.74,6.18,5.33,7.43,5.01,1.41-.36,3.38-2.59,5.29-3.08.4-.1,2.12-.23,2.31-.24,2.01-.1,3.29,2.65,3.99,2.34.78-.35.24-1.35-.06-1.8-.42-.63-.96-.88-1.45-2.81h0Zm.55,3.85s-1.3-2.81-4.58-1.97c-.11.03-.5.12-.84.2-.29.07-1.01.1-1.4.2-1.83.47-1.71,2.18-4.01,2.77-3.45.88-6.54-2.79-6.99-4.54-.58-2.26,2.04-5.29,3.75-5.72.5-.13,1.55,0,2.17-.17,1.22-.31,2.33-1.7,3.55-2.57,0,0,.84-.5,1.04-.63.02,0,.04,0,.05-.01.04,0,.07-.02.11-.03.59-.15,1.4-.13,1.95.71,2.01,3.08,4.07,3.09,4.52,4.46.31.95-.56,1.51-.19,3.11.44,1.86,1.89,3.98,1.89,3.98.55.89-.63.78-1.02.21h0Z"></path> <path class="cls-15" d="m116.63,38.99c-.37-1.6.5-2.16.19-3.11-.45-1.38-2.51-1.38-4.52-4.46-.55-.84-1.36-.86-1.95-.71-.04,0-.07.02-.11.03-.02,0-.04,0-.05.01-.2.12-1.04.63-1.04.63-1.22.87-2.32,2.26-3.55,2.57-.63.16-1.67.04-2.17.17-1.71.44-4.33,3.46-3.75,5.72.45,1.75,3.54,5.42,6.99,4.54,2.3-.59,2.18-2.31,4.01-2.77.4-.1,1.11-.13,1.4-.2.34-.08.73-.17.84-.2,3.28-.84,4.58,1.97,4.58,1.97.39.57,1.56.68,1.02-.21,0,0-1.45-2.11-1.89-3.98h0Zm-3.05.65c-1.22.31-3.08.42-4.72.56-.6.74-1.34,1.49-3.13,1.95-2.47.63-4.85-.89-5.3-2.63-.25-1,.34-3.99,2.17-4.46,1.04-.27,2,.06,2.96-.19,2.27-.58,2.48-2.64,4.23-3.08,2.2-.56,1.56.45,4.88,2.57.49.31,1.11.72,1.53,2.39.52,2.02-1.34,2.56-2.63,2.89h0Z"></path> <path class="cls-39" d="m114.69,34.36c-3.32-2.13-2.68-3.14-4.88-2.57-1.76.45-1.96,2.51-4.23,3.08-.95.24-1.92-.08-2.96.19-1.83.47-2.43,3.46-2.17,4.46.44,1.74,2.83,3.26,5.3,2.63,1.79-.46,2.53-1.21,3.13-1.95,1.63-.14,3.5-.25,4.72-.56,1.3-.33,3.15-.87,2.63-2.89-.43-1.67-1.04-2.07-1.53-2.39h0Z"></path> <path class="cls-38" d="m68.28,34.33c-2.05.53-3.26-.49-4.54-1.99.01.09.03.18.05.27.14.55.55,1.13,1.11,1.7,1.15.82,2.69,1.17,3.3,1.02,2.06-.53,3.58-2.58,4.65-2.86.07-.02.15-.03.22-.04.23-.16.46-.31.69-.43-.26,0-.54.03-.83.1-1.63.42-3.75,1.99-4.66,2.22Z"></path> <path class="cls-20" d="m68.2,35.33c-.61.15-2.15-.2-3.3-1.02.67.68,1.54,1.34,2.43,1.94.33.07.67.07.86.02,1.31-.33,3.31-3.21,4.35-3.48.02,0,.05-.01.07-.01.16-.12.31-.24.47-.35-.07,0-.15.02-.22.04-1.07.27-2.59,2.33-4.65,2.86h0Z"></path> <path class="cls-37" d="m68.19,36.27c-.19.05-.53.04-.86-.02.51.34,1.02.66,1.5.94,1.22-1.93,2.54-3.42,3.78-4.4-.02,0-.05,0-.07.01-1.03.26-3.04,3.14-4.35,3.48Z"></path> <path class="cls-37" d="m86.85,38.09c2.05.89,4.05,2.09,5.96,3.47.01.01.03.02.04.03.01-.06.02-.12.03-.19.05-.31.08-.62.1-.93-1.23.06-4.67-1.69-6.17-2.45.01.02.03.04.04.06h0Z"></path> <path class="cls-24" d="m92.17,39.16c.27-.07.52-.16.75-.26-.03-.22-.07-.43-.12-.64-.22.12-.45.2-.68.26-3.51.9-8.6-4.79-12.95-6.27.11.22.22.45.33.69,3.14,1.13,10.4,6.8,12.67,6.22h0Z"></path> <path class="cls-20" d="m88.66,38.66l-8.01-4.59c-.46-.35-.73-.51-.9-.58.11.24.23.47.35.71.83.52,1.18,1.46,2.37,1.91.95.36,1.24-.08,2.15.54.84.2,1.73.59,2.2,1.38,1.51.75,4.94,2.51,6.17,2.45.02-.34.01-.68,0-1.02-.15.07-.32.13-.51.18-.78.2-3.12-.58-3.81-.96h0Z"></path> <path class="cls-38" d="m92.17,39.16c-2.27.58-9.53-5.08-12.67-6.22.08.18.17.36.25.55.18.07.44.22.9.58l8.01,4.59c.69.38,3.04,1.16,3.81.96.19-.05.35-.11.51-.18-.01-.18-.03-.37-.06-.55-.24.1-.49.19-.75.26h0Z"></path> <path class="cls-24" d="m68.57,33.34c-2.73.7-4.23-.74-4.82-1.53-.03.17-.04.35-.01.53,1.27,1.5,2.48,2.51,4.54,1.99.91-.23,3.03-1.8,4.66-2.22.29-.07.57-.11.83-.1.42-.23.81-.4,1.19-.49.03,0,.06-.01.09-.02-.61,0-1.26.08-1.95.26-1.27.32-3.08,1.22-4.52,1.59h0Z"></path> <path class="cls-37" d="m82.47,36.11c-1.19-.45-1.54-1.39-2.37-1.91.56,1.03,1.3,1.98,2.6,2.21.18.03,1.02.03,1.93.24-.91-.62-1.2-.18-2.15-.54h0Z"></path> <path class="cls-39" d="m68.43,28.91c-.43,0-.76.01-.94.06-1.65.42-3.49,1.45-3.74,2.84.58.79,2.09,2.23,4.82,1.53,1.45-.37,3.25-1.27,4.52-1.59.69-.17,1.34-.26,1.95-.26,1.59-.4,2.25-.5,2.39-.34.07-.02.13-.04.2-.06.7-.18,1.13.36,1.53,1.15,4.35,1.48,9.44,7.17,12.95,6.27.23-.06.46-.14.68-.26,0-.03-.01-.06-.02-.09-1.57-6.14-19.66-9.21-24.35-9.27h0Zm23.61,9.06c.03.14-.26.26-.4.3-3.95,1.01-9.41-9.22-16.98-7.29-2.47.63-4.59,1.52-5.57,1.77-3.32.85-4.89-1.08-4.92-1.21-.12-.48,1.69-1.83,2.64-2.07.95-.24,1.76-.21,2.51-.16,4.91.53,21.58,2.85,22.71,8.66h0Z"></path> <path class="cls-13" d="m86.5,33.89c-.05.07-.08.18-.05.3.07.29,2.94,3.29,4.21,2.97.26-.07.26-.18.23-.3-.35-1.35-2.85-2.45-4.39-2.97h0Z"></path> <path class="cls-13" d="m67.03,29.87c-.66.17-1.28.58-1.69.94-.05.22-.05.46,0,.63.08.32.95.47,2.01.2.14-.04.27-.07.41-.11,1.34-.34,2.42.03,3.33-.2.3-.08,1.2-.48,1.12-.97,0,0,0,0,0-.01-.11-.43-3.62-.87-5.16-.48h0Z"></path> <path class="cls-42" d="m69.33,29.32c-.75-.05-1.56-.08-2.51.16-.96.24-2.77,1.59-2.64,2.07.03.12,1.6,2.06,4.92,1.21.98-.25,3.1-1.14,5.57-1.77,7.57-1.93,13.03,8.29,16.98,7.29.13-.03.43-.15.4-.3-1.13-5.81-17.8-8.13-22.71-8.66h0Zm2.86,1.05c.08.49-.81.89-1.12.97-.9.23-1.98-.14-3.33.2-.14.04-.27.07-.41.11-1.06.27-1.93.12-2.01-.2-.05-.18-.04-.41,0-.63.41-.36,1.03-.77,1.69-.94,1.54-.39,5.05.05,5.16.48,0,0,0,0,0,.01h0Zm18.47,6.79c-1.27.32-4.14-2.67-4.21-2.97-.03-.12,0-.23.05-.3,1.55.52,4.05,1.61,4.39,2.97.03.12.03.23-.23.3Z"></path> <path class="cls-34" d="m106.92,65.88c1.28-1.5,1.92-3.33,1.3-5.75-.36-1.42-1.3-2.46-2.23-3.66.43.87.73,1.66.91,2.35,1.79,6.99-2.71,10.11-9.51,12.33-.96.31-1.97.61-3.01.9.79.43,1.45.84,1.99,1.19,1.69-1.69,4.54-2.99,7.05-4.54,1.2-.94,2.43-1.85,3.51-2.81h0Z"></path> <path class="cls-32" d="m53.03,65.38c-2.22-3.63-4.78-5.31-6.84-8.85,1.41,4.53,4.76,5.39,5.33,7.59.89,3.48-6.18,2.18-4.56,8.53.14.54.3,1.09.44,1.61.22.88.22,1.58,0,2.13.09.05.17.11.25.16.44.27.93.48,1.43.68-.33-.76-.6-1.56-.82-2.4,0-.03-.01-.06-.02-.09-.14-.25-.28-.51-.42-.77-.35-.66-.67-1.33-.84-2-.82-3.22,2.49-5.29,6.04-6.59h0Z"></path> <path class="cls-39" d="m61.72,53.83c.13-.03.27-.07.4-.11,1.36-.35,1.37-5.87,3.59-9.62.04-.14.09-.28.13-.42-.1-.09-.21-.17-.31-.26-1.39,2.92-2.18,8.31-4.52,8.9-3.34.85-7.01-3.4-10.38-4.07,1.09.41,2.28,1.05,3.5,1.86,2.35.69,5.49,4.24,7.6,3.7Z"></path> <path class="cls-21" d="m61,52.34c2.34-.6,3.13-5.98,4.52-8.9-.21-.17-.43-.35-.67-.54-1.18,3.5-1.64,7.97-4.17,8.61-3.95,1.01-8.87-4.86-13.22-3.75-.51.13-.97.37-1.32.75,0,.01.01.03.02.04.4-.33.83-.55,1.27-.66.89-.23,1.97-.07,3.17.38,3.37.67,7.04,4.92,10.38,4.07h0Z"></path> <path class="cls-24" d="m62.12,53.73c-.13.03-.27.07-.4.11-2.11.54-5.25-3.01-7.6-3.7,1.35.9,2.76,2,4.12,3.21.93.74,2.31,1.98,3.6,1.65,1.74-.45,1.6-5.92,3.49-9.57.12-.45.24-.89.38-1.32-2.21,3.74-2.23,9.27-3.59,9.62h0Z"></path> <path class="cls-38" d="m61.84,55c-1.29.33-2.67-.91-3.6-1.65.57.5,1.13,1.03,1.68,1.56.97.18,2.02,1.56,3.04,1.3,1.18-.3.19-2.96,1.27-6.4.11-.35.25-.78.41-1.23.18-1.1.41-2.15.68-3.15-1.88,3.64-1.74,9.12-3.49,9.57h0Z"></path> <path class="cls-47" d="m64.34,50.41c-.09.41-.17.84-.23,1.3-.47,3.57.11,5.61-.58,5.79-.6.15-1.19-.54-1.69-.75-.11-.09-.22-.16-.32-.22,1.07,1.13,2.07,2.28,2.95,3.39-.44-3.52-.41-6.79-.04-9.78.01-.08.02-.16.03-.23-.04.16-.08.33-.12.5h0Z"></path> <path class="cls-32" d="m64.24,49.82c-1.08,3.44-.09,6.09-1.27,6.4-1.03.26-2.07-1.13-3.04-1.3.55.53,1.08,1.07,1.59,1.62.1.06.21.14.32.22.5.21,1.09.91,1.69.75.69-.18.11-2.22.58-5.79.06-.46.14-.89.23-1.3.04-.17.08-.34.12-.5.06-.45.12-.88.19-1.32-.17.45-.3.88-.41,1.23Z"></path> <path class="cls-13" d="m61.1,40.29c.93.75,1.85,1.67,2.26,2.54,1.38,2.95-.91,7.16-3.13,7.73-4.9,1.25-6.38-3.3-10.76-3.43-1.37-.04-2.6.46-2.6.46-.66.17-2.16-.28-3.18-1.43.78,1.54,2,1.21,2.47,2.34.35-.38.81-.62,1.32-.75,4.35-1.11,9.27,4.76,13.22,3.75,2.53-.65,2.99-5.11,4.17-8.61-1.06-.84-2.35-1.77-3.76-2.61h0Z"></path> <path class="cls-28" d="m63.36,42.83c-.41-.88-1.33-1.79-2.26-2.54-.68-.41-1.38-.79-2.11-1.14-2.48-1.19-5.13-1.89-7.48-1.29-4.04,1.03-5.54,3.77-6.44,4-.18.05-.37.08-.56.13-.63.16-1.02.65-1.2,1.26-.17.59-.16,1.3,0,1.92.1.4.22.72.36.99,1.02,1.15,2.52,1.6,3.18,1.43,0,0,1.23-.5,2.6-.46,4.38.12,5.87,4.67,10.76,3.43,2.23-.57,4.52-4.78,3.13-7.73h0Zm-.23,2.03c.47,1.84-1.48,4.65-3.46,5.16-4.74,1.21-5.17-4.16-12.85-3.23-.53.06-2.42-.4-2.88-2.22-.58-2.27,2.83-2.22,3.8-3.72.23-.36.36-.96.85-1.3,0,0,.01-.01.02-.02.12-.09.27-.15.44-.2.04,0,.08-.01.12.01,1.04-.4,2.03-1.01,3.1-1.28,1.56-.4,9.51,1.1,10.33,4.31.05.21.15.41.21.63.07.28.08.98.2,1.46.04.14.08.28.11.42h0Z"></path> <path class="cls-4" d="m52.84,38.93c-3.45.88-5.15,3.62-5.3,4.4,0,.03,0,.06-.01.09,1.67,1.62,7.66,3.9,10.02,3.3,1.07-.27,3.18-1.73,2.83-3.11-.24-.93-3.64-5.67-7.53-4.68h0Z"></path> <path class="cls-4" d="m62.81,42.99c-.05-.21-.15-.41-.21-.63-.82-3.21-8.77-4.71-10.33-4.31-1.07.27-2.06.88-3.1,1.28-.04-.02-.08-.02-.12-.01-.17.04-.32.11-.44.2,0,0-.01.01-.02.02-.48.35-.61.94-.85,1.3-.97,1.51-4.38,1.45-3.8,3.72.46,1.82,2.35,2.29,2.88,2.22,7.68-.93,8.11,4.45,12.85,3.23,1.97-.5,3.93-3.31,3.46-5.16-.04-.14-.08-.28-.11-.42-.12-.48-.13-1.18-.2-1.46h0Zm-5.26,3.73c-2.36.6-8.35-1.68-10.02-3.3,0-.03,0-.06.01-.09.15-.78,1.86-3.52,5.3-4.4,3.89-.99,7.3,3.75,7.53,4.68.35,1.38-1.76,2.84-2.83,3.11h0Z"></path> <path class="cls-15" d="m44.84,70.38c1.2-4.68,4.2-4.28,2.29-7.36-1.1-1.79-2.21-3.31-3.02-6.5-.51-2-.2-2.55-.79-4.87-.52-2.04-1.17-3.04-1.77-3.73-.63-.04-1.27-.03-1.9.03,1.49.89,2.65,2.23,3.1,3.96.42,1.64.75,4.49,1.33,6.73.81,3.17,2.59,4.21,1.95,7.37-.47,2.32-2.27,4.21-4.68,4.12-3.65-.14-6.76-4.42-9.72-6.16,2.86,2.46,6.16,5.22,9.19,7.62,1.92.5,3.61.41,4.03-1.21h0Z"></path> <path class="cls-24" d="m45.52,71.06c.11-3.08,4.55-3.91,3.79-6.91-.48-1.89-2.9-1.78-4.03-6.16-.47-1.84-.78-3.68-1.25-5.51-.71-2.78-1.27-3.61-1.58-4.46-.3-.05-.6-.08-.9-.1.6.69,1.25,1.69,1.77,3.73.59,2.32.28,2.87.79,4.87.81,3.19,1.92,4.71,3.02,6.5,1.9,3.08-1.09,2.68-2.29,7.36-.42,1.63-2.1,1.71-4.03,1.21,1.05.83,2.07,1.61,3.02,2.33.14-.03.29-.06.44-.09.99-.25,1.21-1.51,1.25-2.76h0Z"></path> <path class="cls-20" d="m46.96,72.64c-1.62-6.35,5.44-5.05,4.56-8.53-.56-2.2-3.91-3.06-5.33-7.59-.88-1.51-1.66-3.35-2.3-5.83-.24-.92-.44-1.75-.6-2.51-.06-.02-.13-.03-.19-.04.3.88.54,1.78.77,2.68.28,1.09.53,2.18.81,3.27,2.11,8.25,5.16,6.76,5.92,9.75.57,2.22-2.85,3.75-3.77,4.87-1.44,1.76.17,4.76-.6,6.91.42.28.81.54,1.17.77.21-.55.22-1.26,0-2.13-.13-.52-.3-1.07-.44-1.61h0Z"></path> <path class="cls-38" d="m46.83,68.72c.92-1.12,4.34-2.65,3.77-4.87-.76-2.99-3.82-1.51-5.92-9.75-.28-1.09-.53-2.18-.81-3.27-.23-.9-.48-1.8-.77-2.68-.22-.05-.44-.09-.65-.12.32.85.87,1.68,1.58,4.46.47,1.83.78,3.67,1.25,5.51,1.12,4.38,3.54,4.26,4.03,6.16.76,2.99-3.68,3.82-3.79,6.91-.04,1.25-.26,2.51-1.25,2.76-.15.04-.3.07-.44.09.85.63,1.66,1.21,2.39,1.71.78-2.15-.84-5.16.6-6.91h0Z"></path> <path class="cls-39" d="m44.07,58.65c-.57-2.24-.91-5.09-1.33-6.73-.44-1.74-1.6-3.07-3.1-3.96-.44.04-.89.11-1.33.19,1.4.08,3.25.75,4.03,3.8.24.96.49,4.36.97,5.68.66,1.79,1.3,3.77,1.88,6.06.62,2.41-.85,4.62-3.01,5.31-3.24,1.03-10.64-5.95-14.61-8.52,1.16,1.02,2.54,2.22,4.05,3.51,2.96,1.74,6.07,6.02,9.72,6.16,2.4.09,4.21-1.8,4.68-4.12.63-3.16-1.15-4.2-1.95-7.37h0Z"></path> <path class="cls-29" d="m42.35,51.94c-.78-3.05-2.63-3.71-4.03-3.8-.37.07-.75.15-1.12.24-12.13,3.1-12.7,6.28-11.88,9.49.07.28.15.54.24.78,0,0,0,.01,0,.02h0c.55.49,1.23,1.1,2.02,1.79,3.97,2.57,11.37,9.55,14.61,8.52,2.17-.69,3.63-2.89,3.01-5.31-.58-2.28-1.22-4.27-1.88-6.06-.49-1.33-.73-4.73-.97-5.68h0Zm-.19,15.42c-4.18,1.07-15.97-7.13-16.23-11.03-.24-3.56,6.3-5.96,7.11-6.17.1-.03.21-.05.32-.07,1.05-.5,2.33-.98,3.21-1.2,3.64-.93,5.09,3.27,5.31,4.12,3.25,12.72,2,13.92.29,14.36h0Z"></path> <path class="cls-28" d="m36.35,49.83c-2.19.56-1.45,1.68-3.68,2.24-.44.11-.89.17-1.32.28-1.15.29-2.21,1.32-2.63,2.55.01.15.03.29.06.39.03.12.06.25.09.38.79,3.08,4.39,1.59,6.89,3.81,1.32,1.17,3.22,4.55,5.05,4.08.09-.02.18-.03.28-.06,1-.26,1.01-6.65.44-8.88-1.26-4.93-3.31-5.27-5.17-4.8h0Z"></path> <path class="cls-13" d="m36.57,48.88c-.89.23-2.16.7-3.21,1.2-.11.02-.21.05-.32.07-.81.21-7.35,2.61-7.11,6.17.27,3.9,12.05,12.1,16.23,11.03,1.71-.44,2.96-1.65-.29-14.36-.22-.85-1.67-5.05-5.31-4.12h0Zm4.51,14.63c-.09.02-.19.04-.28.06-1.82.47-3.73-2.91-5.05-4.08-2.49-2.22-6.1-.73-6.89-3.81-.03-.12-.06-.25-.09-.38-.03-.1-.05-.24-.06-.39.42-1.23,1.49-2.26,2.63-2.55.43-.11.88-.16,1.32-.28,2.22-.57,1.49-1.69,3.68-2.24,1.85-.47,3.91-.13,5.17,4.8.57,2.23.56,8.63-.44,8.88h0Z"></path> <path class="cls-37" d="m55.55,64.29c.05-.01.31-.11.5-.16,3.71-.95,6.5,1.11,8.53.59.2-.05.43-.21.67-.44-.19-.84-.36-1.66-.49-2.47-.21,1.08-.64,1.99-1.59,2.23-2.46.63-3.48-1.14-6.64-.33-.11.03-.22.06-.33.09-4.09,1.04-7.35-5.36-9.66-6.71.83,1.31,1.72,2.37,2.64,3.4,1.15.52,3.75,4.47,6.38,3.8h0Z"></path> <path class="cls-18" d="m64.58,64.72c-2.02.52-4.82-1.54-8.53-.59-.19.05-.45.15-.5.16-2.63.67-5.24-3.28-6.38-3.8,1.3,1.46,2.63,2.88,3.85,4.88,1.12-.41,2.25-.74,3.3-1.01,3.18-.81,6.99.94,9.46,2.03-.09-.32-.18-.65-.26-.97-.1-.38-.19-.77-.28-1.15-.24.23-.47.39-.67.44h0Z"></path> <path class="cls-32" d="m56.19,63.8c.11-.03.22-.06.33-.09,3.16-.81,4.18.96,6.64.33.95-.24,1.38-1.14,1.59-2.23-.11-.64-.2-1.27-.28-1.9-.74-.94-1.57-1.9-2.45-2.86.71,1.85,1.5,2.57,1.82,3.81.23.9-.14,2.45-.95,2.66,0,0-2.39-.17-6.86-.18-4.11,0-7.78-5.17-10.23-7.52.24.45.48.86.73,1.26,2.31,1.35,5.57,7.75,9.66,6.71h0Z"></path> <path class="cls-39" d="m48.37,49.15c-.21.05-.41.11-.62.16-.88.22-1.51.24-1.92.19-.09.12-.16.31-.09.58.24.94,5.97,10.72,12.02,9.17.56-.14,1.92-1.3,1.56-2.72-.6-2.33-6.68-8.48-10.95-7.38h0Z"></path> <path class="cls-15" d="m48.34,48.09c-1.03.24-1.41.54-1.92.67-1.05.27-1.72-1.65-2.74-1.88-.03,0-.13.03-.15.04-.03.33.02.54.09.8.17.69.23.92.35,1.36,1.23,4.83,8.97,12.52,13.37,11.4,2.08-.53,2.87-1.68,2.15-4.5-.51-2.01-7.9-8.64-11.14-7.88h0Zm9.43,11.15c-6.05,1.55-11.78-8.23-12.02-9.17-.07-.27,0-.46.09-.58.41.05,1.04.04,1.92-.19.2-.05.41-.11.62-.16,4.28-1.09,10.36,5.05,10.95,7.38.36,1.42-1,2.57-1.56,2.72h0Z"></path> <path class="cls-47" d="m48.47,82.07c.96-.24.8-1.2.6-1.96-.15-.6-.37-1.18-.52-1.78-.11-.42-.13-.91-.11-1.37-.14-.06-.27-.13-.41-.19.06,1.54.3,3.28-.94,3.59-3.29.84-7.5-4.56-10.03-6.64.85.98,1.72,1.95,2.64,2.89,2.4,2.24,6.83,5.96,8.77,5.46h0Z"></path> <path class="cls-3" d="m52.68,83.04c-.21-.82-3.24-3.17-3.83-5.51-.03-.11-.06-.26-.09-.43-.06-.03-.12-.05-.18-.08,0,.19.03.37.07.52.46,1.79,2.14,3.6,2.32,4.3.13.49-.05.67-.27.73-1.14.29-3.42-.6-4.95-1.05.3.18.61.36.93.53,2.3.43,4.1,1.82,5.6,1.43.24-.06.47-.2.4-.44h0Z"></path> <path class="cls-34" d="m49.08,77.23c-.11-.04-.22-.09-.33-.13.03.17.06.32.09.43.6,2.34,3.63,4.7,3.83,5.51.06.24-.17.38-.4.44-1.51.38-3.3-1-5.6-1.43,2.48,1.37,5.4,2.45,8.98,3.1-2.55-1.85-5.08-4.45-6.58-7.91Z"></path> <path class="cls-37" d="m47.09,80.35c1.25-.32,1.01-2.06.94-3.59-.13-.07-.26-.14-.38-.21-.04-.02-.07-.04-.11-.07.03.13.07.26.1.39.38,1.51-.2,2.3-1.29,2.57-2.69.69-8.25-5.59-10.94-7.66.55.65,1.09,1.29,1.65,1.94,2.53,2.08,6.74,7.48,10.03,6.64h0Z"></path> <path class="cls-18" d="m50.97,81.83c-.18-.7-1.87-2.51-2.32-4.3-.04-.15-.06-.33-.07-.52-.04-.02-.09-.04-.13-.06-.02.46,0,.95.11,1.37.15.59.37,1.17.52,1.78.19.76.35,1.72-.6,1.96-1.94.49-6.37-3.22-8.77-5.46.53.54,1.08,1.08,1.65,1.59,1.32,1.2,2.76,2.31,4.4,3.31,1.53.45,3.81,1.34,4.95,1.05.22-.06.4-.23.27-.73h0Z"></path> <path class="cls-32" d="m47.55,76.48c-.76-.46-1.62-1.05-2.57-1.73.48.81.84,1.43.95,1.89.17.68.1,1.79-.54,1.95-3.36.86-7.68-6.06-11.6-8.72.55.63,1.09,1.27,1.63,1.91,2.69,2.07,8.25,8.35,10.94,7.66,1.09-.28,1.67-1.07,1.29-2.57-.03-.13-.07-.26-.1-.39h0Z"></path> <path class="cls-2" d="m44.66,77.97c.69-.18.57-1.22.41-1.87-.36-1.42-1.61-2.15-2.56-3.2-6.02-4.62-13.74-11.38-16.94-14.23h0c.04.55.12,1.12.27,1.67.85,3.32,3.8,5.01,6.28,7.65.22.23.43.47.65.7,7.26,4.98,9.61,9.86,11.9,9.27h0Zm-18.59-17.66c-.02-.14-.02-.37.1-.4.12-.03.84.18,1.03.55.27.19.67.63,1.45,1.56l3.93,3,7.39,6.35c.71.62,4.29,3,4.65,4.42.08.31.71,2.29-.51,1.6-1.31-.75-17.44-13.58-18.05-17.08h0Z"></path> <path class="cls-20" d="m45.39,78.59c.65-.16.72-1.27.54-1.95-.12-.45-.47-1.07-.95-1.89-.78-.56-1.61-1.18-2.48-1.84.95,1.05,2.19,1.77,2.56,3.2.17.65.29,1.69-.41,1.87-2.3.59-4.65-4.29-11.9-9.27.35.39.7.78,1.04,1.17,3.92,2.66,8.24,9.58,11.6,8.72h0Z"></path> <path class="cls-10" d="m33.53,67.66c5.03,4.86,10.34,9.03,10.49,9,.16-.04.34-.33.23-.77-.39-1.52-1.92-1.87-4.68-4.01-.45-.35-4.11-4.28-6.03-4.22h0Z"></path> <path class="cls-38" d="m44.63,75.8c-.36-1.42-3.95-3.81-4.65-4.42l-7.39-6.35-3.93-3c-.78-.93-1.18-1.37-1.45-1.56-.19-.37-.91-.58-1.03-.55-.12.03-.12.27-.1.4.61,3.5,16.74,16.33,18.05,17.08,1.21.69.59-1.28.51-1.6h0Zm-.61.86c-.15.04-5.46-4.14-10.49-9,1.92-.06,5.58,3.87,6.03,4.22,2.76,2.14,4.29,2.49,4.68,4.01.11.44-.06.73-.23.77h0Z"></path> <path class="cls-37" d="m76.52,64.97c-6.84-.52-9.31-6.12-12.25-7.02.05.65.12,1.3.2,1.96.09.69.19,1.39.32,2.09.38-.48.9-.84,1.46-.98.62-.16,1.29-.05,1.86.44,9.94,8.59,16.59,1.53,26.77,10.42.38-.11.76-.22,1.14-.33-2.92-2.36-7.4-5.68-19.5-6.59h0Z"></path> <path class="cls-24" d="m89.71,65.41c-7.21-6.74-20.77,2.62-25.15-14.52-.05-.2-.1-.41-.15-.62-.05.39-.09.78-.12,1.18,7.31,18.87,17.17,8.01,23.16,13.34,3.55,3.16,7.86,5.05,12.29,5.5.66-.27,1.29-.55,1.89-.84-4.05.64-8.63-.96-11.92-4.04h0Z"></path> <path class="cls-20" d="m64.67,54.47c-.12-.31-.3-.57-.51-.78-.04,1.38,0,2.8.11,4.27,2.94.9,5.41,6.5,12.25,7.02,12.09.92,16.57,4.23,19.5,6.59.47-.14.92-.28,1.37-.43.22-.07.44-.15.66-.22-5.96-1.62-10.28-5.85-14.26-5.88-7.95-.07-16.1-2.66-19.11-10.57h0Z"></path> <path class="cls-38" d="m87.45,64.79c-5.98-5.33-15.84,5.53-23.16-13.34-.06.73-.11,1.47-.13,2.24.21.21.39.47.51.78,3.01,7.91,11.16,10.5,19.11,10.57,3.98.04,8.31,4.26,14.26,5.88.59-.2,1.15-.41,1.7-.63-4.44-.45-8.74-2.34-12.29-5.5h0Z"></path> <path class="cls-47" d="m76,66.46c8.9,0,11.73.9,18.6,5.51.09-.02.18-.05.27-.08-10.18-8.89-16.82-1.83-26.77-10.42-.57-.49-1.24-.6-1.86-.44-.56.14-1.08.5-1.46.98.06.36.13.71.2,1.07,2.24-2.23,7.45,3.37,11.01,3.37h0Z"></path> <path class="cls-46" d="m76,66.46c-3.56,0-8.77-5.59-11.01-3.37.09.44.18.87.28,1.32.02,0,.04-.01.05-.02,2.77-.71,3.91,2.85,13.12,2.28,5.77-.36,11.32,1.92,15.68,5.24.08.04.17.09.25.13.08-.02.16-.04.24-.06-6.88-4.61-9.7-5.51-18.6-5.51h0Z"></path> <path class="cls-34" d="m92.46,71.08c.6.28,1.16.55,1.66.83-4.36-3.32-9.91-5.6-15.68-5.24-9.2.57-10.35-2.99-13.12-2.28-.02,0-.04.01-.05.02.08.34.16.68.25,1.03.03.13.07.25.1.38,1.69.38,5.77.93,15.61,1.51,4.13.24,7.71,1.25,11.23,3.76h0Z"></path> <path class="cls-30" d="m81.23,67.32c-9.83-.57-13.92-1.13-15.61-1.51.05.2.1.4.16.59,1.06.47,1.87.81,2.29.78,11.16-.86,19.41,1.59,24.39,3.9-3.53-2.51-7.1-3.52-11.23-3.76h0Z"></path> <path class="cls-39" d="m100.5,68.43c-7.36,1.88-9.3-6.71-16.25-6.74-6.79-.03-17.06-.05-18.74-10.73-.52-3.3.82-7.7,1.67-10.73-.5,1.07-.95,2.23-1.35,3.47-.64,1.99-1.14,4.19-1.42,6.58.05.21.09.41.15.62,4.38,17.13,17.94,7.78,25.15,14.52,3.29,3.07,7.87,4.68,11.92,4.04,3.59-1.8,5.84-4.27,5.65-8.21-.59,3.84-3.55,6.37-6.78,7.19h0Z"></path> <path class="cls-42" d="m104.93,54.55c-1.35-2.22-3.27-4.74-5.56-7.18-1.94-2.06-4.15-4.06-6.51-5.78-.01-.01-.03-.02-.04-.03-1.91-1.38-3.92-2.58-5.96-3.47-.83-.36-1.66-.67-2.5-.93-3.13-.94-8.39,1.5-8.99-.81-.69-2.69,2.42-4.78,2.06-5.2-.14-.16-.82-.06-2.47.36-1.78.45-4.1,2.45-6.13,5.67-.58.92-1.13,1.93-1.64,3.04-.85,3.04-2.19,7.44-1.67,10.73,1.67,10.68,11.95,10.7,18.74,10.73,6.95.03,8.89,8.62,16.25,6.74,3.22-.82,6.19-3.36,6.78-7.19-.04-.76-.16-1.56-.38-2.43-.3-1.16-.98-2.63-1.96-4.26h0Zm-23.3,4.9c-6.63,1.69-13.15-.8-14.99-8-1.7-6.67,2.33-13.15,6.93-17.95.27.02.45.13.49.27,0,0,0,0,0,0-.03.79.04,1.48.19,2.07,2.08,8.13,14.24-1.97,17.43,10.49,1.69,6.6-4.65,11.73-10.05,13.11h0Zm19.36,6.99c-4.18,1.07-10.17-2.55-11-5.81-1.02-4.01,6.15-6.36,4.79-11.66-.04-.14-.08-.28-.13-.42.38-.63.83-1.11,1.36-1.24,1.32-.34,7.47,3.05,9.4,10.62,1.05,4.11.75,7.19-4.42,8.51h0Z"></path> <path class="cls-29" d="m74.26,35.85c-.15-.59-.22-1.28-.19-2.07,0,0,0,0,0,0-.04-.14-.22-.25-.49-.27-4.6,4.8-8.63,11.28-6.93,17.95,1.84,7.21,8.35,9.7,14.99,8,5.39-1.38,11.73-6.5,10.05-13.11-3.18-12.47-15.35-2.36-17.43-10.49h0Zm4.5,20.63c-5.43,1.39-8.42-2.89-9.8-8.3-.95-3.7-.64-7.58,2.39-10.28.1-.04.21-.08.31-.1.97-.25,2.18,0,2.76.61,6.28,6.64,12.1-.93,14,6.5,1.24,4.84-5.79,10.59-9.66,11.58h0Z"></path> <path class="cls-29" d="m96.02,47.3c-.53.14-.98.62-1.36,1.24.05.14.09.28.13.42,1.35,5.3-5.82,7.66-4.79,11.66.83,3.26,6.82,6.88,11,5.81,5.17-1.32,5.47-4.4,4.42-8.51-1.94-7.57-8.08-10.96-9.4-10.62h0Z"></path> <path class="cls-7" d="m74.42,38.4c-.58-.61-1.79-.86-2.76-.61-.11.03-.21.06-.31.1-3.02,2.7-3.33,6.58-2.39,10.28,1.38,5.41,4.37,9.69,9.8,8.3,3.87-.99,10.9-6.74,9.66-11.58-1.9-7.42-7.72.14-14-6.5h0Z"></path> <path class="cls-20" d="m60.26,85.03c2.85.5,5.69-.45,8.55.56,4.33,1.52,8,5.38,12.9,4.13,3.32-.85,2.45-2.41,5.36-3.15.07-.02.14-.04.21-.05,1.76-.45,4.79-2.15,7.4-3.79.94-.88,1.61-1.74,2.1-2.61-3.45,3.68-10.1,5.91-11.45,6.45-1.21.48-1.56,1.81-4.05,2.45-5.97,1.52-6.49-4.14-20.08-4.96-5.97-.36-9.71-5.5-13.35-10.04.13.25.27.49.4.74,0,.03.01.06.02.09.04.16.08.31.13.46,6.29,6.6,6.27,8.77,11.87,9.74h0Z"></path> <path class="cls-3" d="m71.93,90.95c-2.46-3.55-4.89-3.83-7.14-3.99,4.1.79,6.38,2.15,7.53,6.63.22.84.33,1.7.36,2.54,1.17.45,2.3.48,3.4.2.63-.16,1.26-.43,1.87-.76-3.55.18-5.5-3.88-6.01-4.62h0Z"></path> <path class="cls-32" d="m94.68,82.72c-2.61,1.64-5.64,3.34-7.4,3.79-.07.02-.14.04-.21.05-2.91.74-2.04,2.3-5.36,3.15-4.9,1.25-8.57-2.61-12.9-4.13-2.86-1-5.7-.06-8.55-.56-5.6-.97-5.58-3.13-11.87-9.74.18.62.39,1.21.63,1.78,2.37,1.84,3.93,4.45,6.09,6.6,3.9,3.87,11.36.75,13.87,2.59,3.59,2.64,8.1,5.9,12.11,4.88,2.38-.61,2.95-2.18,5.5-3.35.03-.01.05-.03.08-.04,3.75-1.8,6.3-3.43,8.01-5.03h0Z"></path> <path class="cls-37" d="m68.99,86.26c-2.51-1.84-9.97,1.28-13.87-2.59-2.16-2.15-3.72-4.76-6.09-6.6.02.05.04.11.06.16.25.58.53,1.14.84,1.67.27.23.53.46.76.73,8.81,10.6,12.15,4.07,18.53,8.19,3.5,2.26,5.94,6.13,11.74,5.49.07-.06.14-.13.21-.19,2.29-2.16,4.19-4.66,5.44-5.33-2.56,1.17-3.12,2.74-5.5,3.35-4,1.02-8.52-2.24-12.11-4.88h0Z"></path> <path class="cls-47" d="m69.21,87.82c-6.38-4.11-9.72,2.42-18.53-8.19-.23-.27-.49-.51-.76-.73,1.51,2.65,3.62,4.7,5.74,6.25.32.23.64.46.97.67,2.53.36,4.7.59,6.55.87.57.09,1.11.17,1.62.27,2.25.16,4.68.45,7.14,3.99.51.74,2.46,4.8,6.01,4.62.14-.08.28-.16.43-.25.9-.55,1.76-1.26,2.58-2.01-5.8.64-8.23-3.23-11.74-5.49h0Z"></path> <path class="cls-39" d="m69.24,67.45c-.6.15-1.12.44-1.52.95,0-.04,0-.07,0-.1-.13-.5-1.27-.53-5.94-3.23-1.42-.82-3.15-.81-4.61-.44-6.42,1.64-9.37,2.77-8.2,7.32,2.81,11,13.46,8.49,16.74,9.44,8.16,2.36,10.78,6.76,15.36,5.6.78-.2,17.38-6.77,16.23-11.28-1.6-6.26-24.42-9.18-28.05-8.25h0Zm-1.84,12.36c-2,.51-3.04-.77-6.98-.43-5.91.5-10.57-6.1-10.85-7.19-.56-2.19.45-4.9,2.79-5.49,10.68-2.73,14.4,1.06,16.99,10.09-.06,1.32-.37,2.61-1.95,3.02h0Zm18.24,4.53c-.31.54-2.16,1.01-2.36,1.07-4.34,1.11-11.04-2.82-13.17-11.17-.15-.59-.27-1.19-.37-1.79.09-2.28,1.41-3.86,2.62-4.17,4.15-1.06,21.85,2.83,23.27,8.38.78,3.03-7.55,3.47-9.99,7.68Z"></path> <path class="cls-13" d="m54.24,66.98c-1.25.32-2.4.96-3.31,1.87-.34.83-.37,1.62-.17,2.39,1.11,4.35,7.34,7.98,10.54,7.17,2.48-.63,3.17-2.64,2.67-4.6-.19-.76-3.4-8.44-9.73-6.82h0Z"></path> <path class="cls-13" d="m78.76,74.09c-.37-.02-.71.01-1.02.09-2.53.65-3.11,4.33-2.78,5.64.04.16.09.31.13.45,1.74,2.6,4.93,4.11,7.89,3.36.13-.03,10.81-4.2,10.12-6.88-1.52-5.96-9.85-2.38-14.34-2.65h0Z"></path> <g> <path class="cls-29" d="m52.37,66.69c-2.34.6-3.35,3.3-2.79,5.49.28,1.09,4.93,7.69,10.85,7.19,3.94-.34,4.98.94,6.98.43,1.58-.4,1.89-1.71,1.95-3.02-2.59-9.04-6.31-12.82-16.99-10.09h0Zm8.93,11.71c-3.2.82-9.43-2.81-10.54-7.17-.2-.77-.17-1.57.17-2.39.91-.91,2.07-1.55,3.31-1.87,6.32-1.61,9.53,6.06,9.73,6.82.5,1.96-.19,3.97-2.67,4.6h0Z"></path> <path class="cls-29" d="m72.37,68.28c-1.21.31-2.54,1.89-2.62,4.17.09.6.22,1.2.37,1.79,2.13,8.35,8.83,12.28,13.17,11.17.21-.05,2.05-.53,2.36-1.07,2.44-4.22,10.77-4.65,9.99-7.68-1.42-5.55-19.12-9.44-23.27-8.38h0Zm10.61,15.35c-2.96.76-6.15-.76-7.89-3.36-.04-.14-.09-.29-.13-.45-.33-1.31.25-4.99,2.78-5.64.31-.08.65-.11,1.02-.09,4.49.27,12.82-3.31,14.34,2.65.69,2.69-10,6.85-10.12,6.88h0Z"></path> </g> <path class="cls-34" d="m71.95,92.35c-.75.78-1.78,1.55-3.57,2.01-6.44,1.65-15.08-4.81-22.8-6.68,1.76.87,3.6,1.74,5.43,2.58.76.16,2.34.71,6.53,2.58,3.23,1.44,9.33,3.45,12.79,2.57.84-.21,1.56-.58,2.17-1.03-.05-.26-.1-.52-.17-.78-.11-.44-.24-.86-.37-1.24h0Z"></path> <path class="cls-18" d="m71.95,92.35c-.21-.6-.45-1.13-.72-1.6-.7,1.18-1.81,2-3.59,2.46-6.4,1.63-16.14-4.56-28.82-8.96,2,1.05,4.32,2.23,6.76,3.43,7.72,1.87,16.36,8.33,22.8,6.68,1.8-.46,2.82-1.23,3.57-2.01h0Z"></path> <path class="cls-30" d="m57.53,92.83c-4.19-1.87-5.77-2.42-6.53-2.58,2.47,1.13,4.93,2.19,7.23,3.08,2.05.79,3.97,1.45,5.64,1.88.9.24,1.73.41,2.46.5,2.15.28,4.33.43,6.34,1.32.02-.3.02-.6,0-.91-.02-.58-.08-1.17-.19-1.76-.61.45-1.33.82-2.17,1.03-3.46.88-9.56-1.13-12.79-2.57h0Z"></path> <path class="cls-20" d="m39.35,81.95c-.35-.13-.59-.44-.97-.51-2.14-.37-3.62-1.71-4.96-1.37-.25.06-1.22-.02-1.15.24s.31.39.49.45c.42.11,12.39,4.41,17.05,6.44,4.89,2.12,10.13,5.44,15.14,4.16.75-.19,3.43-1.06,3.16-2.13-.54-2.1-19.66-3.74-28.76-7.28Zm24.49,8.41c-2.22.57-5.05-.69-7.21-1.53-1.98-.78-3.84-1.29-5.65-2.25l-.04-.17c.25-.33.58-.52.93-.61.57-.15,13.33,1.93,14.14,3.03-.6.84-1.35,1.31-2.18,1.53h0Z"></path> <path class="cls-38" d="m51.88,85.81c-.36.09-.68.28-.93.61l.04.17c1.8.96,3.66,1.47,5.65,2.25,2.15.84,4.98,2.1,7.21,1.53.83-.21,1.58-.68,2.18-1.53-.81-1.1-13.57-3.18-14.14-3.03Z"></path> <path class="cls-37" d="m40.95,92.93c7.69-.17,11.02,1.85,14.82,1.65.08-.05.16-.11.25-.16-2.72-.27-5.45-1.4-8.25-2.22-2.49-.73-10.65.81-13.89-9.07-.23-.7-.66-1.24-1.15-1.74-.21-.05-.41-.09-.61-.14,3.31,4.21,1.69,11.84,8.83,11.68h0Z"></path> <path class="cls-1" d="m40.95,92.93c-7.14.15-5.52-7.48-8.83-11.68-.23-.05-.47-.11-.69-.16,2.01,2.78,2.56,6.59,4.24,9.62,2.38,4.28,8.4,2.53,12.87,3.38,2.07.39,3.68,1.34,6.55.97.22-.16.44-.32.68-.48-3.81.2-7.14-1.81-14.82-1.65h0Z"></path> <path class="cls-3" d="m40.31,88.84c11.58,3.6,14.64,4.91,16.72,5.01.29-.14.59-.28.93-.41-.42-.08-.84-.19-1.24-.32-16.73-5.37-17.24-2.66-22.05-11.09-.23-.12-.44-.24-.65-.35-.05-.01-.1-.02-.15-.03,2.55,3.47,2.96,6.12,6.45,7.21Z"></path> <path class="cls-18" d="m42.5,90.6c7.12,1.67,10.49,3.5,14.06,3.49.15-.09.31-.17.47-.25-2.07-.1-5.14-1.41-16.72-5.01-3.49-1.08-3.9-3.74-6.45-7.21-.18-.04-.35-.08-.53-.12,2,2.64,3.92,7.86,9.16,9.09Z"></path> <path class="cls-34" d="m56.71,93.12c.4.13.81.24,1.24.32.09-.04.18-.07.28-.11-1.28-.5-2.61-1.04-3.97-1.63-.94-.13-1.8-.42-2.76-.74-9.96-3.36-13.32-3.05-15.92-8.43-.33-.18-.64-.34-.92-.5,4.81,8.43,5.32,5.72,22.05,11.09h0Z"></path> <path class="cls-16" d="m50.69,90.11c-5.44-2.5-10.86-5.31-14.46-7.24,2.53,2.7,9.41,5.69,14.46,7.24Z"></path> <path class="cls-30" d="m51.51,90.96c.96.32,1.82.61,2.76.74-1.18-.51-2.38-1.04-3.58-1.59-5.06-1.55-11.93-4.54-14.46-7.24-.22-.12-.43-.23-.64-.34,2.6,5.38,5.97,5.07,15.92,8.43h0Z"></path> <path class="cls-47" d="m47.76,92.2c2.8.82,5.54,1.95,8.25,2.22.17-.11.35-.22.53-.32-3.56,0-6.94-1.82-14.06-3.49-5.24-1.23-7.16-6.45-9.16-9.09-.2-.04-.4-.09-.6-.14.49.5.92,1.04,1.15,1.74,3.24,9.88,11.4,8.34,13.89,9.07h0Z"></path> <path class="cls-32" d="m48.54,94.08c-4.47-.85-10.49.9-12.87-3.38-1.69-3.03-2.23-6.83-4.24-9.62-.06-.01-.12-.03-.18-.04,1.8,2.44,2.85,6.49,2.88,8.08.21,9.03,16.25,2.13,17.8,8.19,0,0,0,0,0,.01,1.22-.69,2.12-1.51,3.16-2.27-2.87.37-4.48-.58-6.55-.97h0Z"></path> <path class="cls-20" d="m34.13,89.13c-.04-1.59-1.09-5.64-2.88-8.08-12.14-2.79-14.23-3.81-18.61-2.69-6.46,1.65,12.97,26.09,36.48,20.09,1.14-.29,2.04-.68,2.81-1.12,0,0,0,0,0-.01-1.55-6.06-17.59.84-17.8-8.19h0Zm14.53,9.18c-13.55,4.31-34.6-8.44-36.72-16.74-.66-2.57.37-2.74,1.82-3.06.13-.03.27-.06.41-.09.12-.02.25-.04.39-.05,3.29-.59,6.94,1.29,10.27,1.7,4.56.57,6.94.81,7.94,4.75.37,1.44.47,3.02.85,4.51,2.43,9.53,15.35,3.24,16.46,7.58.22.84-.56,1.13-1.43,1.41h0Z"></path> <path class="cls-20" d="m14.1,78.45c.15-.04.31-.07.46-.1-.14.01-.27.03-.39.05-.14.04-.28.06-.41.09h.13c.07,0,.13-.03.2-.05h0Z"></path> <path class="cls-31" d="m33.63,89.31c-.38-1.49-.48-3.07-.85-4.51-1-3.94-3.38-4.17-7.94-4.75-3.33-.42-6.98-2.29-10.27-1.7-.15.03-.31.06-.46.1-.07.02-.14.04-.2.06h-.13c-1.46.31-2.48.48-1.82,3.05,2.12,8.3,23.17,21.04,36.71,16.74.87-.28,1.65-.57,1.43-1.41-1.11-4.34-14.03,1.94-16.46-7.58h0Zm12.6,8.27c-.11.03-.22.04-.33.06-.13.07-.37.15-.78.26-10.64,2.72-29.88-10.21-31.44-16.29-.35-1.37-.17-2.3,1.07-2.62,2.32-.59,6.01,1.69,9.95,1.56,2.61-.09,5.89.85,6.55,3.43,0,0,.19.83.37,1.56,1.45,5.68,4.37,12.56,11.2,10.82.27-.07.59-.17.66-.18,1.72-.44,3.26.48,3.33.75.06.22-.1.54-.56.66h0Z"></path> <path class="cls-24" d="m43.47,96.17c-.06.02-.39.12-.66.18-6.82,1.74-9.74-5.14-11.2-10.82-.19-.74-.37-1.56-.37-1.56-.66-2.57-3.93-3.51-6.55-3.43-3.94.13-7.63-2.15-9.95-1.56-1.24.32-1.42,1.24-1.07,2.62,1.55,6.08,20.8,19.01,31.44,16.29.41-.11.65-.19.78-.26.11-.02.23-.03.33-.06.46-.12.62-.43.56-.66-.07-.27-1.61-1.19-3.33-.75Zm-6.58.45c-.21.4-1.63.26-2.81-.11-2.37-.73-4.7-2.09-6.39-3.17-.15-.09-12.65-7.78-13.56-11.32-.09-.33-.28-1.25-.13-1.76.15-.25.44-.47,1-.61.77-.2,1.52-.28,2.26-.13,10.98,2.13,12.32,1.66,13.68,6.98.38,1.5.64,3.82.66,3.9.31,1.22,2.51,2.77,2.77,3.8.03.13,2.84,1.82,2.53,2.42h0Z"></path> <path class="cls-15" d="m34.37,94.2c-.26-1.03-2.46-2.58-2.77-3.8-.02-.07-.27-2.4-.66-3.9-1.36-5.32-2.7-4.85-13.68-6.98-.73-.14-1.49-.06-2.26.13-.55.14-.85.36-1,.61-.15.5.05,1.43.13,1.76.9,3.54,13.41,11.22,13.56,11.32,1.69,1.08,4.03,2.44,6.39,3.17,1.18.37,2.6.5,2.81.11.31-.6-2.49-2.29-2.53-2.42h0Zm-1.61-.15c-3.38.86-17.42-10.37-18.04-12.8,0-.02-.01-.04-.02-.06.17-.35.6-.73,1.41-.94,1.68-.43,11.11,1.06,13.19,4.54l.77,1.84c.04.17.09.32.13.48.29,1.14-.07,1.67.48,3.83.67,2.64,2.01,1.98,2.24,2.85.04.14-.04.23-.17.26h0Z"></path> <path class="cls-39" d="m30.69,90.93c-.55-2.16-.19-2.7-.48-3.83-.04-.16-.09-.31-.13-.48l-.77-1.84c-2.08-3.48-11.51-4.97-13.19-4.54-.82.21-1.25.59-1.41.94,0,.02,0,.04.02.06.62,2.43,14.66,13.67,18.04,12.8.13-.03.2-.12.17-.26-.22-.88-1.56-.22-2.24-2.85h0Zm-3.14-2.05c-2.64.68-10.19-4.91-11.55-7.09.2-.22.61-.5,1.25-.66,1.77-.45,5.14.22,5.33.27,2.99.72,5.95,4.28,6.28,5.57.23.91.11,1.56-1.3,1.92Z"></path> <path class="cls-29" d="m22.58,81.4c-.19-.04-3.55-.72-5.33-.27-.65.17-1.05.45-1.25.66,1.36,2.18,8.91,7.76,11.55,7.09,1.41-.36,1.54-1.01,1.3-1.92-.33-1.29-3.28-4.85-6.28-5.57Z"></path> <path class="cls-36" d="m78.23,99.78c1.52.32,3.01-.48,4.61,0,.84.25,1.67.53,2.51.73-.69-.48-1.29-.92-1.83-1.29-.02,0-.05-.02-.07-.03-1.72-.73-2.99-2.27-4.96-2.2-2.95.11-6.08.59-8.6-.79-.86-.16-1.74-.27-2.61-.37,1.83.76,3.95,1.01,5.89,1.68,1.81.63,3.23,1.87,5.06,2.26h0Z"></path> <path class="cls-40" d="m83.45,99.21s.05.02.07.03c-.48-.33-.91-.61-1.3-.8-.03-.12-.21-.33-.27-.57.86-.11,1.73-.27,2.59-.45.14-.11.27-.21.42-.32.33-.24.68-.51,1.05-.78-.52.1-1.03.18-1.55.23-1.74.17-3.41.03-4.68-.83-.48-.06-.96-.19-1.43-.4-.74.46-1.51.81-2.29,1.01-1.1.28-2.23.26-3.4-.2,0,.31,0,.61,0,.91-.9-.4-1.83-.64-2.77-.82,2.53,1.38,5.65.9,8.6.79,1.97-.07,3.24,1.47,4.96,2.2h0Z"></path> <path class="cls-5" d="m102.94,85.56c-2.17,1.25-4.36,2.56-6.47,3.86-2.4,2.2-4.8,3.8-4.52,4.91.23.91,2.57.43,4.2,1.1,1.02.13,1.84.41,2.51.8-1.03-1.17-2.92-1.98-3.27-3.33-.65-2.54,4.06-4.48,7.53-7.34Z"></path> <path class="cls-37" d="m106.63,83.49c-1.21.66-2.45,1.36-3.7,2.07-3.47,2.86-8.18,4.8-7.53,7.34.34,1.35,2.24,2.16,3.27,3.33.48.27.88.6,1.25.96-.54-1.56-2.32-2.46-2.76-4.18-1.14-4.47,7.61-6.43,9.48-9.53h0Z"></path> <path class="cls-24" d="m102.06,95.02c-1.79-7.03,6.99-9.32,7.62-10.41,1.48-2.57,3.72-4.33,6.26-5.63-1.61.62-3.54,1.51-5.65,2.58-.16.49-.29.99-.4,1.47-.32,1.48-10.45,5.55-8.72,12.32,1.5,5.88,6.84,5.47,8.32,7.31.86-.6,1.74-1.17,2.66-1.67-3.36-.5-8.88-1.23-10.09-5.97h0Z"></path> <path class="cls-20" d="m98.93,94.52c-1.54-6.03,6.44-8.12,10.12-12.32-.79.41-1.59.84-2.41,1.29-1.87,3.1-10.62,5.06-9.48,9.53.44,1.71,2.23,2.62,2.76,4.18,2.2,2.17,2.81,5.53,7.39,5.83.26.02.52.03.78.03-2.36-1.82-7.89-3.54-9.16-8.53Z"></path> <path class="cls-15" d="m102.95,94.39c-1.5-5.86,4.56-7.69,6.79-9.1,3.41-2.14,2.67-5.14,11.62-7.42,2.07-.53,4.18-.9,6.26-1.34-3.19.22-6.53.96-9.44,1.71-.65.17-1.4.42-2.23.74-2.54,1.3-4.78,3.06-6.26,5.63-.63,1.09-9.41,3.38-7.62,10.41,1.21,4.74,6.73,5.47,10.09,5.97.28-.15.55-.3.84-.43-4.56.03-8.8-1.29-10.04-6.16h0Z"></path> <path class="cls-38" d="m101.17,95.35c-1.73-6.78,8.4-10.85,8.72-12.32.1-.48.24-.97.4-1.47-.33.17-.66.34-1,.51-.08.04-.17.09-.25.13-3.68,4.2-11.66,6.29-10.12,12.32,1.27,4.99,6.8,6.7,9.16,8.53.28,0,.57,0,.86,0,.18-.13.36-.25.54-.38-1.48-1.84-6.81-1.43-8.32-7.31Z"></path> <path class="cls-48" d="m88.1,96.16c-.33-1.28,5.29-4.42,8.01-6.41.12-.11.24-.22.36-.33-4.08,2.53-7.84,5.01-10.44,6.9-.38.27-.73.53-1.05.78-.15.11-.29.22-.42.32.2-.04.4-.08.59-.13,1.01-.22,2.02-.47,3.02-.73.64-.17,1.29-.33,1.92-.5.34-.09.66-.16.98-.23-.13,0-.22.02-.24.02-.98.16-2.66.58-2.73.3h0Z"></path> <path class="cls-19" d="m91.96,94.33c-.27-1.06,1.88-2.55,4.15-4.58-2.72,1.99-8.34,5.13-8.01,6.41.07.28,1.75-.14,2.73-.3.03,0,.11-.01.24-.02,2.14-.47,3.79-.57,5.09-.41-1.63-.67-3.97-.19-4.2-1.1h0Z"></path> <path class="cls-39" d="m121.35,77.88c-8.95,2.29-8.21,5.28-11.62,7.42-2.23,1.4-8.29,3.23-6.79,9.1,1.25,4.88,5.49,6.19,10.04,6.16.28-.14.57-.27.87-.38-4.42.36-9.78-1.35-10.57-7.06-.45-3.23,2.17-4.82,8.32-8.93.98-.66,1.5-3.92,10.99-6.34,2.1-.54,4.33-1.08,6.52-1.37-.49,0-.99.03-1.5.07-2.07.45-4.19.82-6.26,1.34h0Z"></path> <path class="cls-13" d="m137.91,79.86c-1.49-2.12-6.91-3.9-14.76-1.89-9.31,2.38-10.59,6.75-13.83,8.42-6.38,3.28-5.84,5.8-5.27,8.03.18.7.5,1.37.97,1.85,1.47,3.67,7.28,3.61,8.09,3.4.22-.06,1.86-.62,3-.8.83-.13,2.45.03,4.92-.6,2.57-.66,3.25-1.12,4.93-1.86,5.5-2.41,4.57-4.54,10.25-5.99.5-.13.99-.22.99-.22,1.25-.32,2.51-2.88,2.32-5.43-.12-1.56-.45-3.25-1.61-4.9h0Zm-4.38,10.28c-1.93.49-2.61.05-5.56.8-5.13,1.31-10.24,5.17-14.09,6.16-4.39,1.12-7.22-1.31-8.38-2.8-.11-.33-.18-.67-.24-.89-.3-1.16.08-2.49.99-3.12,5.71-3.91,10.08-10.01,18.66-12.2,7.25-1.85,12.42,1.49,13.19,4.51.88,3.46-.35,6.46-4.57,7.54h0Z"></path> <path class="cls-29" d="m129.11,76.47c-2.19.29-4.42.83-6.52,1.37-9.49,2.43-10.01,5.69-10.99,6.34-6.16,4.11-8.77,5.71-8.32,8.93.79,5.71,6.15,7.42,10.57,7.06.52-.21,1.06-.39,1.62-.54,1.16-.3,4-.63,6.75-1.33,8.43-2.15,7.58-5.32,11.53-6.57.14-.04.29-.09.45-.13.54-.14,1.1-.25,1.65-.4,4.5-1.15,4.54-5.87,3.92-8.31-1.29-5.06-5.66-6.51-10.66-6.43h0Zm8.08,13.72s-.49.09-.99.22c-5.68,1.45-4.75,3.58-10.25,5.99-1.68.74-2.36,1.2-4.93,1.86-2.47.63-4.09.48-4.92.6-1.14.17-2.78.74-3,.8-.81.21-6.62.27-8.09-3.4-.48-.49-.79-1.15-.97-1.85-.57-2.23-1.11-4.75,5.27-8.03,3.24-1.66,4.52-6.04,13.83-8.42,7.85-2,13.27-.23,14.76,1.89,1.16,1.65,1.49,3.35,1.61,4.9.19,2.55-1.07,5.11-2.32,5.43h0Z"></path> <path class="cls-28" d="m124.91,78.08c-8.58,2.19-12.94,8.3-18.66,12.2-.91.62-1.28,1.96-.99,3.12.06.22.14.56.24.89,1.16,1.49,3.99,3.92,8.38,2.8,3.85-.98,8.95-4.84,14.09-6.16,2.95-.75,3.63-.31,5.56-.8,4.22-1.08,5.46-4.09,4.57-7.54-.77-3.02-5.94-6.36-13.19-4.51h0Zm7.5,11.75c-2.93.75-5.54-.49-12.71,1.34-3.11.79-6.54,2.21-6.55,2.21-1.83.47-3.62-.72-4.04-2.36-.15-.6-.12-1.2.04-1.74,4.15-4.43,9.37-8.14,15.22-9.64,5.24-1.34,11.36-.77,12.27,2.81.08.33.03.68.11,1.02.07.29.27.61.35.92.11.44-.97,4.49-4.7,5.44h0Z"></path> <path class="cls-4" d="m125.49,79.8c-3.18.81-6.13,2.59-8.33,5.03,1.68,4.39,8.05,1.28,11.84,1.51,1.74.11,3.49.3,5.13-.12,1.92-.49,1.88-2.92,1.69-3.69-.85-3.33-6.14-3.81-10.33-2.74h0Z"></path> <path class="cls-4" d="m136.64,82.46c-.91-3.58-7.03-4.15-12.27-2.81-5.85,1.49-11.08,5.2-15.22,9.64-.16.55-.19,1.14-.04,1.74.42,1.64,2.21,2.83,4.04,2.36,0,0,3.43-1.42,6.55-2.21,7.17-1.83,9.77-.59,12.71-1.34,3.73-.95,4.82-4.99,4.7-5.44-.08-.3-.27-.62-.35-.92-.09-.34-.03-.69-.11-1.02h0Zm-2.51,3.77c-1.64.42-3.39.22-5.13.12-3.79-.23-10.16,2.87-11.84-1.51,2.2-2.45,5.15-4.22,8.33-5.03,4.18-1.07,9.48-.59,10.33,2.74.2.76.23,3.2-1.69,3.69h0Z"></path> <path class="cls-23" d="m83.73,98.01c-.04-.15-.06-.29-.06-.42-.57.11-1.14.2-1.71.27.06.24.24.45.27.57,1.46.74,3.51,2.61,6.81,4.37-2.89-1.95-5.02-3.65-5.21-4.41-.04-.13-.07-.26-.1-.38Z"></path> <path class="cls-26" d="m85.13,98.34c-.11-.44,0-.83.17-1.08-.05.01-.1.02-.15.04-.2.04-.4.08-.59.13-.3.06-.59.12-.88.17,0,.13.02.27.06.42.03.12.07.25.1.38.19.76,2.32,2.46,5.21,4.41.05.02.09.05.14.07.42.22.86.44,1.32.65-2.86-2.19-5.12-4.28-5.28-4.87-.02-.1-.06-.21-.09-.32h0Z"></path> <g> <path class="cls-18" d="m120.15,104.73l-.14-.14c-4.93,1.1-10.52,1.98-15.68,1.96,4.37.11,9.58-.38,15.83-1.82h0Z"></path> <path class="cls-18" d="m88.96,99.22c-.27-1.05-.07-2.15.16-2.89-.32.08-.63.16-.95.24-.24.06-.48.12-.72.18,0,.2.03.38.06.49,1.14,4.47,4.38,7,8.65,8.26,1.76.43,3.72.76,5.92.93-6.49-.92-12.03-2.97-13.11-7.22h0Z"></path> </g> <path class="cls-3" d="m87.5,97.24c-.03-.11-.05-.29-.06-.49-.27.07-.55.14-.82.2-.1.37-.04.79.05,1.15.91,3.56,3.61,5.04,6.35,6.47.96.34,1.99.66,3.12.93-4.27-1.26-7.5-3.79-8.65-8.26h0Z"></path> <path class="cls-34" d="m86.68,98.1c-.09-.36-.16-.78-.05-1.15-.44.11-.88.21-1.33.31-.18.25-.28.64-.17,1.08.03.11.06.22.09.32.15.59,2.42,2.69,5.28,4.87.78.36,1.62.71,2.53,1.04-2.74-1.43-5.44-2.91-6.35-6.47h0Z"></path> <path class="cls-47" d="m119.25,103.97c-.88.89-4.76,1.49-6.98,1.8-8.84,1.23-21.19-1.58-22.43-5.31-.94-2.82.86-4.14,1.58-4.69-.42.09-.86.19-1.32.31-.32.08-.65.17-.97.25-.23.74-.43,1.84-.16,2.89,1.09,4.25,6.62,6.29,13.11,7.22.23.02.47.04.71.05.5.03,1.01.05,1.53.07,5.16.02,10.76-.86,15.68-1.96-.24-.23-.49-.44-.75-.62h0Z"></path> <path class="cls-45" d="m108.95,103.04c-.56.02-1.11.02-1.64-.02-7.71-.5-4.17-9.68-15.9-7.25-.72.55-2.51,1.87-1.58,4.69,1.24,3.73,13.6,6.54,22.43,5.31,2.22-.31,6.11-.91,6.98-1.8-2.77-1.91-6.76-1.04-10.3-.93h0Zm6.42,1.98c-4.17,1.06-9.38.83-9.38.83-2.39.11-14.37-1.68-15.41-6.17-.26-1.11.02-2.02.33-2.57.37-.3.97-.66,1.98-.97,9.6-3.01,5.79,10.91,22.13,6.77.94-.24,3.16.68,3.25,1.04.05.21-1.97.85-2.89,1.08h0Z"></path> <path class="cls-32" d="m115.01,102.9c-16.34,4.14-12.52-9.78-22.13-6.77-1.01.32-1.61.67-1.98.97-.31.55-.59,1.46-.33,2.57,1.04,4.5,13.02,6.29,15.41,6.18,0,0,5.22.23,9.39-.83.92-.23,2.94-.87,2.89-1.08-.09-.35-2.32-1.27-3.25-1.04h0Zm-9.57,2.36c-.53-.08-12.32-.72-13.54-5.5-.21-.84-.21-1.49-.13-2,.9-.73,2.82-1.33,3.07-1.4,3.44-.88,3.25,3.52,11.4,7.31.47.22,4.49.75,4.53.89.15.59-3.28,1.01-5.33.7h0Z"></path> <path class="cls-38" d="m94.7,97.01c-.71.18-1.29.61-1.63.99-.14.59-.06,1.33.06,1.78.8,3.12,5.17,3.76,6.88,3.32.67-.17,1.8-.48,1.64-1.13-.11-.45-4.8-5.5-6.94-4.95h0Z"></path> <path class="cls-20" d="m106.24,103.67c-8.15-3.79-7.96-8.19-11.4-7.31-.25.06-2.17.66-3.07,1.4-.09.5-.09,1.16.13,2,1.22,4.78,13.01,5.42,13.54,5.5,2.05.31,5.48-.11,5.33-.7-.04-.14-4.05-.67-4.53-.89h0Zm-6.23-.58c-1.71.44-6.08-.2-6.88-3.32-.11-.45-.19-1.18-.06-1.78.34-.37.92-.81,1.63-.99,2.14-.55,6.83,4.51,6.94,4.95.17.65-.96.96-1.64,1.13h0Z"></path> <path class="cls-16" d="m114.44,102.07c.2.8,2.71.31,3.99,1.42.42.2.81.44,1.19.75,0-.04-.01-.08-.02-.12-.35-1.35-2.23-.75-2.54-1.99-.48-1.86,3.07-1.76,4-3.55l-.54.12c-1.64,2.4-6.4,2.12-6.08,3.38h0Z"></path> <path class="cls-40" d="m117.92,99.18c-1.05.18-1.92.32-2.44.46-2.44.63-4.5,1.98-6.53,3.4.65-.02,1.32-.07,1.99-.12-.26-1.38,4.04-2.65,6.98-3.74h0Z"></path> <path class="cls-30" d="m117.05,102.13c.32,1.24,2.2.63,2.54,1.99.01.04.02.08.02.12.12.1.24.21.36.32,0-.12,0-.23-.04-.35-.23-.91-1.62-1.34-1.85-2.24-.29-1.14,2.46-1.89,3.85-3.6-.3.07-.59.14-.89.21-.94,1.79-4.48,1.69-4,3.55h0Z"></path> <path class="cls-33" d="m114.44,102.07c-.32-1.26,4.44-.98,6.08-3.38-.01,0-.03,0-.04,0-.3.58-1.24.88-2.17,1.12-.62.16-1.25.27-1.88.43-.95.24-3.94,1.33-3.75,2.05.06.24.56.35,1.23.45,1.62-.03,3.18.11,4.53.74-1.29-1.11-3.79-.62-3.99-1.42h0Z"></path> <path class="cls-36" d="m112.67,102.3c-.19-.72,2.8-1.8,3.75-2.05.62-.16,1.25-.27,1.88-.43.93-.24,1.88-.53,2.17-1.12-.9.19-1.78.34-2.55.48-2.94,1.09-7.25,2.37-6.98,3.74.99-.07,1.98-.15,2.96-.17-.66-.1-1.17-.21-1.23-.45h0Z"></path> <path class="cls-3" d="m119.55,109.53c-.71-2.78,2.82-4.16,2.44-5.67-.19-.73-.84-1.49-1.04-2.26-.64-2.5,6.79-3.18,9.1-7.27-.64.61-1.38,1.26-2.46,1.9-2.25,1.91-8.19,3.25-7.54,5.81.17.65,1.05,1.68,1.13,1.99.33,1.28-2.6,3.14-1.92,5.8.03.13.08.27.09.31.02.07.03.14.05.21.23.92,2.77,1.7,6.27,1.65.91-.27,1.76-.64,2.55-1.09-.53.2-1.07.38-1.62.52-2.46.63-6.41.6-7.05-1.89h0Z"></path> <path class="cls-34" d="m119.4,110.34c-.02-.06-.03-.14-.05-.21,0-.03-.06-.18-.09-.31-.68-2.65,2.25-4.52,1.92-5.8-.08-.32-.97-1.35-1.13-1.99-.66-2.56,5.29-3.9,7.54-5.81-.97.57-2.2,1.14-3.88,1.66-1.7,1.59-4.88,1.91-4.32,4.11.19.74.85,1.47.98,1.99.61,2.4-2.92,3.46-2.25,6.07.4,1.57,2.14,1.94,3.49,2.37,1.09.09,2.26.04,3.6-.31.16-.04.31-.08.46-.13-3.5.05-6.03-.73-6.27-1.65h0Z"></path> <path class="cls-26" d="m118.13,110.05c-.67-2.61,2.86-3.67,2.25-6.07-.13-.52-.79-1.25-.98-1.99-.56-2.2,2.62-2.52,4.32-4.11-.46.14-.96.28-1.49.42-.1.03-.19.05-.29.07-1.39,1.71-4.13,2.46-3.85,3.6.23.9,1.61,1.33,1.85,2.24.03.11.04.23.04.35.06.06.11.11.17.17-.06.01-.13.03-.19.04-.25,1.65-2.96,3.7-2.51,5.46.15.6.88,1.21,1.56,1.71.85.22,1.7.4,2.6.48-1.35-.44-3.08-.8-3.49-2.37h0Z"></path> <path class="cls-40" d="m111.33,108.04c-.31-1.21,2.49-2.05,2.81-2.13.14-.04.28-.07.42-.09-.74.12-1.47.22-2.18.31-.74.15-1.48.3-2.21.49-.8.2-2.85.88-2.65,1.67.29,1.14,3.33,1.1,5.06,2.46.34.05.69.08,1.05.1.74.05,1.42.15,2.07.28-1.09-1.82-3.91-1.3-4.37-3.08h0Z"></path> <path class="cls-27" d="m107.52,108.28c-.2-.8,1.85-1.47,2.65-1.67.73-.19,1.47-.34,2.21-.49-2.15.27-4.14.4-6,.43-.07.01-.13.03-.2.04-.35.09-1.06.31-.97.66.36,1.41,3.31,1.67,4.93,2.97.78.23,1.59.4,2.44.52-1.72-1.36-4.77-1.32-5.06-2.46h0Z"></path> <path class="cls-25" d="m105.21,107.26c-.09-.35.62-.57.97-.66.06-.02.13-.03.2-.04-1.26.02-2.46,0-3.6-.07,2.19,1.48,4.58,2.94,7.36,3.75-1.62-1.3-4.57-1.56-4.93-2.97h0Z"></path> <path class="cls-36" d="m114.16,108.66c-.56-2.21,3.1-1.77,3.41-3.38-1.03.2-2.04.38-3.01.53-.14.03-.28.06-.42.09-.32.08-3.12.92-2.81,2.13.45,1.78,3.28,1.26,4.37,3.08.57.11,1.12.24,1.65.38-1.02-1.04-2.76-1.16-3.19-2.85h0Z"></path> <path class="cls-33" d="m118.13,105.17c-.15.03-.3.06-.45.09-.04,0-.07.01-.11.02-.31,1.61-3.98,1.18-3.41,3.38.43,1.69,2.17,1.81,3.19,2.85.2.05.39.1.59.16-.78-.74-1.47-1.65-1.66-2.41-.31-1.21,2.29-1.81,1.86-4.09h0Z"></path> <path class="cls-16" d="m116.85,109.65c-.5-1.96,3-3.24,2.84-4.82l-.17.04c-.13.03-.25.06-.38.08-.34.07-.67.14-1,.21.43,2.27-2.17,2.87-1.86,4.09.19.76.89,1.67,1.66,2.41.31.08.61.16.91.24-.8-.43-1.69-1.02-2-2.25h0Z"></path> <path class="cls-30" d="m119.96,104.77c-.09.02-.18.04-.28.06.17,1.58-3.33,2.86-2.84,4.82.32,1.24,1.21,1.82,2,2.25.05.01.11.03.16.04-.69-.5-1.41-1.12-1.56-1.71-.45-1.76,2.26-3.81,2.51-5.46h0Z"></path> <path class="cls-18" d="m120.19,108.8c-.47-2.12,3.09-2.53,2.48-4.93-.2-.79-1.01-1.19-1.26-2.3-.18-.8.35-1.18,1.72-1.87,9.25-4.67,6.25-6.2,10.13-7.19.72-.18,1.48-.17,2.12-.11-.56-.2-1.11-.43-1.63-.67-1.78.56-2.59,1.51-3.71,2.59-2.31,4.08-9.74,4.77-9.1,7.27.2.77.85,1.53,1.04,2.26.39,1.51-3.15,2.89-2.44,5.67.64,2.49,4.59,2.52,7.05,1.89.54-.14,1.08-.32,1.62-.52.43-.24.84-.51,1.23-.79-4.44,1.64-8.65,1.43-9.26-1.3h0Z"></path> <path class="cls-47" d="m141.36,92.49s-.47.19-.99.32c-1.67.43-3.39.16-4.99-.4-.64-.07-1.41-.08-2.12.11-3.88.99-.88,2.51-10.13,7.19-1.37.69-1.91,1.07-1.72,1.87.25,1.11,1.06,1.51,1.26,2.3.61,2.41-2.95,2.82-2.48,4.93.61,2.73,4.82,2.94,9.26,1.3,5.27-3.8,8.1-11.33,12.26-16.89,0,0,0-.24-.05-.45-.05-.18-.13-.33-.31-.28h0Zm-13.82,17.73c-2.74.7-6.19,1.23-6.85-1.34-.09-.34-.15-1.05.11-1.26.51-.76,2.88-1.84,2.28-4.19-.31-1.21-1.33-1.98-1.33-1.98-.28-1.11,1.6-1.46,1.77-1.53,4.44-1.84,7.31-6.56,9.92-7.23,2.57-.66,2.83,1.45,6.22.59.24-.06.47-.12.71-.19.87-.22.98-.23,1.01-.1s-9.08,16.01-13.84,17.22h0Z"></path> <path class="cls-37" d="m140.37,93.1c-.24.06-.47.13-.71.19-3.38.86-3.65-1.25-6.22-.59-2.61.67-5.48,5.39-9.92,7.23-.16.07-2.05.42-1.77,1.53,0,0,1.02.77,1.33,1.98.6,2.35-1.78,3.43-2.28,4.19-.26.21-.2.93-.11,1.26.66,2.57,4.11,2.04,6.85,1.34,4.76-1.22,13.87-17.1,13.84-17.22-.03-.12-.14-.12-1.01.1h0Zm-14.18,16.85c-1.48.38-2.97.49-3.37-1.05-.5-1.97,1.89-4.69,1.51-6.18-.1-.39-.3-.6-.6-.92-.17-.19-.42-.33-.64-.44.28,0,.42,0,.62-.04,2.81-.72,6.82-6.33,9.26-6.96.13-.03.26-.06.38-.09.86-.22,1.33.18,1.99.19,1.5.03,3.01-.87,3.3.28.55,2.14-6.82,13.77-12.45,15.2h0Z"></path> <path class="cls-1" d="m135.34,94.46c-.66-.01-1.13-.41-1.99-.19-.12.03-.25.06-.38.09-2.45.63-6.45,6.24-9.26,6.96-.19.05-.34.04-.62.04.23.11.47.24.64.44.29.32.5.53.6.92.38,1.5-2.01,4.21-1.51,6.18.4,1.54,1.89,1.43,3.37,1.05,5.63-1.44,13-13.06,12.45-15.2-.29-1.15-1.81-.25-3.3-.28h0Zm-9.47,15.04c-1.09.28-1.93.22-2.2-.85-.46-1.79,2.4-3.91,2.04-5.34-.04-.14-.08-.29-.12-.44-.58-2.25,3.8-3.95,5.58-4.41.04,0,.08-.02.12-.03,1.85-.47,3.02-2.52,5.29-3.1.05-.01.1-.02.15-.04.3.12.53.33.62.68.86,3.37-8.81,12.85-11.48,13.53h0Z"></path> <path class="cls-9" d="m133.19,99.03s-3.57,2.37-5.76,3.69c.31,1.42-1.98,2.56-1.63,3.94.24.93,1.02,1.02,1.94.78,1.67-.42,7.14-5.52,6.62-7.56-.17-.64-.5-1.02-1.17-.85h0Z"></path> <path class="cls-41" d="m136.73,95.31c-.05.01-.1.02-.15.04-2.27.58-3.44,2.62-5.29,3.1-.04,0-.08.02-.12.03-1.79.46-6.16,2.16-5.58,4.41.04.15.08.29.12.44.37,1.43-2.5,3.55-2.04,5.34.27,1.07,1.12,1.13,2.2.85,2.67-.68,12.34-10.16,11.48-13.53-.09-.35-.32-.56-.62-.68Zm-8.99,12.14c-.92.24-1.71.14-1.94-.78-.35-1.38,1.94-2.53,1.63-3.94,2.2-1.32,5.76-3.69,5.76-3.69.66-.17,1,.21,1.17.85.52,2.04-4.95,7.13-6.62,7.56h0Z"></path> <path class="cls-38" d="m93.93,86.7c1.33-.77.84-1.49,8.19-13.64,4.02-6.65,14.43-7.4,12.5-14.96-.78-3.07-4.18-3.88-7.52-5.37-.35.22-.68.46-.99.72,2.07,1.4,7.27.63,8.4,5.04,1.77,6.94-10.66,4.06-18.94,25.57-1.02,2.66-1.52.97-10.87,7.52-1.91,1.34-3.8,3.02-5.73,3.95.2.06.4.11.61.15,2-.77,3.97-2.34,5.45-3.9,2.43-2.54,5.89-3.32,8.91-5.08h0Z"></path> <path class="cls-47" d="m106.92,65.88c2.19-1.94,3.73-4.05,3.01-6.87-.7-2.72-4.03-3.12-4.87-4.58-.04.04-.08.08-.12.13.4.67.76,1.3,1.05,1.91.92,1.2,1.87,2.25,2.23,3.66.62,2.43-.02,4.26-1.3,5.75h0Z"></path> <path class="cls-37" d="m103.33,69.69c3.53-3.35,9.6-6.92,8.27-12.14-.79-3.11-3.9-1.63-6.07-3.6-.17.15-.32.31-.48.48.84,1.47,4.18,1.86,4.87,4.58.72,2.82-.83,4.93-3.01,6.87-.92,1.07-2.16,1.98-3.51,2.81-2.14,1.68-4.16,3.42-4.96,5.6-.19.52-.39,1.05-.63,1.56-.01.86-.11,1.67-.32,2.47,1.48-2.84,2.93-5.87,5.83-8.63h0Z"></path> <path class="cls-20" d="m78.96,95.53c1.94-.93,3.82-2.61,5.73-3.95,9.35-6.55,9.84-4.86,10.87-7.52,8.28-21.5,20.72-18.62,18.94-25.57-1.13-4.41-6.33-3.64-8.4-5.04-.19.16-.39.32-.57.49,2.17,1.97,5.27.49,6.07,3.6,1.33,5.22-4.74,8.79-8.27,12.14-2.91,2.76-4.35,5.78-5.83,8.63-.36,1.34-1.07,2.62-2.32,3.91-1.66,2.3-3.94,4.28-7.89,5.63-.66.23-3.17,3.31-6.67,5.74-.72.64-1.47,1.23-2.25,1.71.19.09.4.16.59.22h0Z"></path> <path class="cls-47" d="m95.18,82.23c-1.69,1.75-4.36,3.53-8.5,5.51-1.25.6-3.18,3.17-5.52,5.37-.18.17-.36.33-.54.49,3.5-2.43,6.01-5.51,6.67-5.74,3.95-1.35,6.22-3.34,7.89-5.63Z"></path> <g> <path class="cls-46" d="m106.92,65.88c-1.08.96-2.31,1.87-3.51,2.81,1.34-.83,2.59-1.73,3.51-2.81Z"></path> <path class="cls-46" d="m103.41,68.68c-2.51,1.55-5.37,2.85-7.05,4.54.68.46,1.16.84,1.41,1.08.04.53.06,1.04.05,1.54.24-.51.44-1.04.63-1.56.79-2.18,2.82-3.93,4.96-5.6h0Z"></path> </g> <path class="cls-24" d="m94.85,86.26c4.76-6.95,6.65-12.76,10.28-16.3,2.2-2.15,12.55-4.49,10.69-11.74-1.14-4.47-5.06-4.52-5.39-5.82-.14-.53,0-.93.29-1.25-1.29.35-2.51.88-3.61,1.59,3.33,1.49,6.74,2.3,7.52,5.37,1.93,7.56-8.48,8.3-12.5,14.96-7.35,12.15-6.87,12.87-8.19,13.64-3.03,1.76-6.49,2.53-8.91,5.08-1.48,1.56-3.44,3.13-5.45,3.9.08.01.15.03.23.04.7.09,1.41.03,2.1-.14.47-.12.89-.26,1.27-.43.28-.12.54-.25.78-.39-.48-4.46,9.31-6.17,10.9-8.5h0Z"></path> <path class="cls-15" d="m119.2,51.63c-2.2-1.1-5.01-1.38-8.28-.54-.07.02-.14.04-.21.06-.29.32-.42.72-.29,1.25.34,1.31,4.25,1.35,5.39,5.82,1.85,7.26-8.49,9.59-10.69,11.74-3.63,3.55-5.52,9.35-10.28,16.3-1.59,2.32-11.37,4.03-10.9,8.5,2.96-1.7,3.31-4.69,6.52-5.51.75-.19,1.52-.3,2.24-.48,4.53-1.16,1.63-6.06,10.82-12.29,11.91-8.08,19.45-12.4,20.62-18.5-.77-2.87-2.48-5.12-4.94-6.35h0Zm-15.04,24.03c-7.6,6.69-2.45-1.42.79-4.9,3.01-3.23,12.9-5.76,11.54-12.16-.79-3.7-4.97-5.52-5.7-6.81.13-.68,1.26-.71,1.84-.86,1.35-.35,9.24.32,10.64,5.82,1.89,7.39-13.07,13.59-19.11,18.9h0Z"></path> <path class="cls-39" d="m112.62,50.93c-.58.15-1.71.18-1.84.86.73,1.29,4.92,3.11,5.7,6.81,1.36,6.4-8.52,8.94-11.54,12.16-3.25,3.48-8.4,11.58-.79,4.9,6.04-5.31,21-11.51,19.11-18.9-1.4-5.5-9.29-6.17-10.64-5.82h0Zm-2.45,19.03c-.74.24-1.2,1.03-1.99,1.27,0,0,0,0-.01,0-.2.05-.4-.09-.45-.28-.56-2.2,11.77-5.38,9.72-13.45-.89-3.47-3.44-3.46-3.93-5.36-.03-.1-.02-.18,0-.25,4.53-.46,8.7,3.42,9.15,5.17.67,2.61-3.43,9.98-12.48,12.9h0Z"></path> <path class="cls-29" d="m116.37,52.83c-.27.11-.53.3-.44.64.19.75,1.83,1.5,2.23,3.07.35,1.39.03,3.62.33,4.81.13.51.21,1.13.72,1,1.73-.44,3.39-3.09,2.87-5.12-.51-1.99-3.68-4.61-5.72-4.4Z"></path> <path class="cls-42" d="m113.5,51.88c-.01.07-.02.16,0,.25.49,1.9,3.04,1.89,3.93,5.36,2.06,8.07-10.28,11.25-9.72,13.45.05.18.25.33.45.28,0,0,0,0,.01,0,.79-.24,1.25-1.02,1.99-1.27,9.04-2.92,13.14-10.29,12.48-12.9-.45-1.76-4.62-5.63-9.15-5.17h0Zm5.71,10.47c-.51.13-.59-.49-.72-1-.3-1.19.02-3.42-.33-4.81-.4-1.57-2.04-2.33-2.23-3.07-.09-.34.17-.53.44-.64,2.04-.21,5.21,2.42,5.72,4.4.52,2.03-1.14,4.68-2.87,5.12Z"></path> <path class="cls-3" d="m97.41,88.75c-1.88.84-5.36,2.35-11.17,6.7-1.36,1.02-3.7,1.04-5.16.27-.42.05-.85.05-1.28,0,1.27.86,2.94,1,4.68.83.51-.05,1.03-.13,1.55-.23,5.3-3.84,15.33-10.13,23.27-14.25,1.55-1.25,3.09-2.57,4.56-3.93-2.43,1.64-2.43,2.51-6.19,4.09-5.9,2.48-8.04,5.53-10.25,6.52h0Z"></path> <path class="cls-47" d="m95.61,89.39c-5.32,1.44-7.2,5.29-10.32,6.09-.96.24-1.96.27-2.97-.02-.14.04-.27.08-.42.12-.27.07-.55.12-.82.15,1.46.77,3.8.74,5.16-.27,5.81-4.35,9.3-5.86,11.17-6.7,2.21-.99,4.36-4.04,10.25-6.52,3.76-1.58,3.76-2.45,6.19-4.09.22-.2.44-.41.66-.61-5.61,4.16-11.31,5.3-14.58,8.48-1.57,1.52-2.23,2.82-4.32,3.38h0Z"></path> <path class="cls-45" d="m102.95,83.21c-4.11,1.6-3.96,5.27-8.84,6.46-1.77.43-2.17.77-2.51,1.01-1.46.99-3.28,3.71-6.51,4.54-.48.12-1.26.06-1.98-.03-.25.1-.51.2-.79.28,1.01.29,2.01.27,2.97.02,3.12-.8,5-4.65,10.32-6.09,2.1-.57,2.75-1.87,4.32-3.38,3.27-3.17,8.97-4.32,14.58-8.48,2.3-2.18,4.4-4.46,6.09-6.76-3.14,2.5-3.3,6.86-17.64,12.44h0Z"></path> <path class="cls-20" d="m121.62,63.74c-.11.09-11.68,9.74-19.42,14.09-.18.1-1.43,1.22-1.68,1.41-3.85,3.02-3.71,9.26-8.15,9.82-4.37.56-4.79,2.92-7.73,5.74.03.12.97-.17,1.06-.18.09-.01.18-.03.27-.05,2.52-.64,4.9-4.23,6.7-4.63,5.67-1.27,6.55-5.29,9.35-6.59,8.16-3.81,20.41-9.5,22.17-23.34.22-1.7-.86,2.38-2.56,3.72h0Zm-6.34,11.41s-7.31,5.12-7.48,5.16c0,0-2.01.96-2.46,1.13-7.27,2.81-5.97,5.49-9.36,6.79-1.35.52.6-2.3,2.39-4.72,1-1.92,1.96-3.72,3.04-4.3,13.1-6.91,31.28-27.83,13.86-4.07h0Z"></path> <path class="cls-24" d="m118.81,67.43s-10.97,8.71-15.7,11.67c-.12.31-.18.64-.12.98,0,0,0,0,0,0,.06.26.41.24.64.18,0,0,4.52-2.9,8.53-4.31,2.51-.88,7.33-7.75,7.16-8.42-.06-.22-.24-.17-.51-.09h0Z"></path> <path class="cls-38" d="m101.42,79.22c-1.08.57-2.04,2.37-3.04,4.3-1.8,2.42-3.74,5.24-2.39,4.72,3.39-1.3,2.08-3.98,9.36-6.79.44-.17,2.45-1.13,2.46-1.13.17-.04,7.48-5.16,7.48-5.16,17.42-23.76-.76-2.84-13.86,4.07h0Zm10.74-3.27c-4.01,1.41-8.53,4.31-8.53,4.31-.24.06-.58.08-.64-.18,0,0,0,0,0,0-.06-.34,0-.67.12-.98,4.73-2.96,15.7-11.67,15.7-11.67.27-.07.46-.13.51.09.17.68-4.65,7.54-7.16,8.42h0Z"></path> <path class="cls-20" d="m76.05,35.06c-.25-1,1.39-3.01,2.43-3.27.04-.01.22-.03.38-.05-.3-.44-.63-.71-1.09-.66,0,.02.01.04.02.06.29,1.13-2.73,2.23-2.19,4.38.59,2.32,3.59,1.33,5.71,1.48.63-.05,1.25-.08,1.84-.04-2.49-.44-6.49.52-7.11-1.9h0Z"></path> <path class="cls-43" d="m75.61,35.51c-.55-2.14,2.47-3.25,2.19-4.38,0-.02-.01-.04-.02-.06-.05,0-.09.01-.14.03-.07.02-.13.04-.2.06.36.41-2.75,2.5-2.06,5.2.42,1.66,3.24.88,5.95.64-2.12-.15-5.12.84-5.71-1.48Z"></path> <path class="cls-38" d="m76.3,35.01c-.25-.99.57-2.33,2.01-2.7.54-.14.71-.12.84-.08-.09-.18-.19-.35-.29-.5-.16.02-.34.04-.38.05-1.04.27-2.68,2.28-2.43,3.27.62,2.42,4.62,1.46,7.11,1.9.42.03.82.09,1.19.21.63.19,1.26.42,1.89.67-2.95-2.38-9.28-.23-9.94-2.82h0Z"></path> <path class="cls-24" d="m82.69,36.41c-2.14-.39-2.79-2.72-3.54-4.18-.13-.04-.3-.06-.84.08-1.44.37-2.27,1.71-2.01,2.7.66,2.59,6.99.44,9.94,2.82.2.08.41.17.61.26-.92-1.7-3.81-1.62-4.16-1.68h0Zm-1.46-.1c-1.61-.28-4.14.43-4.58-1.29-.37-1.43.86-2.24,1.7-2.46.35-.09.58-.12.74-.03,0,0,1.01,2.78,2.82,3.85-.22-.08-.46-.04-.69-.07Z"></path> <path class="cls-35" d="m79.1,32.54c-.16-.09-.39-.06-.74.03-.84.21-2.07,1.03-1.7,2.46.44,1.72,2.97,1.01,4.58,1.29.23.04.47,0,.69.07-1.81-1.07-2.81-3.85-2.82-3.85Zm.46,3.25c-1.64.42-2.43-.28-2.6-.93-.24-.94.42-1.87,1.21-2.07,1.07-.27,1.88,2.07,2.07,2.67-.08.18-.39.25-.68.33h0Z"></path> <path class="cls-21" d="m78.01,33.22c-.31.21-.89.83-.73,1.49.14.56.41.64.65.58.12-.03,1.35-.65,1.12-1.59-.12-.47-.6-.58-1.03-.47h0Z"></path> <path class="cls-8" d="m78.17,32.78c-.79.2-1.45,1.13-1.21,2.07.17.65.95,1.35,2.6.93.29-.07.61-.15.68-.33-.19-.6-1-2.95-2.07-2.67h0Zm-.24,2.49c-.24.06-.5-.02-.65-.58-.17-.65.42-1.27.73-1.49.43-.11.91,0,1.03.47.24.94-.99,1.56-1.12,1.59h0Z"></path> <path class="cls-14" d="m112.5,49.19c2.57-.66,4.87-.37,4.87-.37,1.81-.46,2.79-2.05,3.61-3.72.06-.93.03-1.81-.08-2.57-.28,2.71-1.34,5.15-3.87,5.8-2.01.51-2.23-.26-4.14.23-.83.21-3.27,1.21-5.01,1.65-3.47.89-4.36-.59-7.25-1.46.27.31.54.62.79.93,1.6.09,2.82,2.12,6.16,1.26,1.05-.27,2.58-1.15,4.92-1.75h0Z"></path> <path class="cls-34" d="m109.98,51.19c-1.13.32-1.61.56-2.17.79-.44.18-.75.3-1.99.86-.6.27-.99.44-1.78.31.32.48.62.95.9,1.4,1.58-1.71,3.69-2.88,5.98-3.46,3.27-.84,6.08-.56,8.28.54.16-.31.31-.62.45-.94-.95-.25-2.16-.73-5.89-.53-1.05.06-2.81.76-3.78,1.03h0Z"></path> <path class="cls-44" d="m112.97,49.91c-.18.05-3.92,1.47-4.59,1.64-2.92.75-3.55-.59-5.61-.16.45.6.88,1.19,1.27,1.77.79.13,1.18-.04,1.78-.31,1.24-.56,1.55-.68,1.99-.86.56-.23,1.04-.47,2.17-.79.97-.27,2.73-.98,3.78-1.03,3.73-.2,4.93.27,5.89.53.18-.41.33-.82.48-1.24-.22.1-.43.19-.64.24-2.58.66-4.21-.36-6.51.23h0Z"></path> <path class="cls-47" d="m113.37,49.28c-3.05.78-2.29,1.24-4.8,1.88-3.64.93-5.08-.57-6.36-.52.19.24.38.49.57.73,2.06-.43,2.69.91,5.61.16.67-.17,4.41-1.59,4.59-1.64,2.3-.59,3.93.43,6.51-.23.21-.05.42-.14.64-.24.36-1.07.61-2.17.74-3.22-1.02,1.23-1.61,2.53-2.64,2.79-1.04.26-4.23.11-4.86.27h0Z"></path> <path class="cls-37" d="m117.37,48.83s-2.3-.29-4.87.37c-2.34.6-3.87,1.48-4.92,1.75-3.34.85-4.56-1.17-6.16-1.26.27.32.53.65.78.97,1.28-.05,2.72,1.45,6.36.52,2.52-.64,1.76-1.11,4.8-1.88.63-.16,3.83,0,4.86-.27,1.03-.26,1.61-1.56,2.64-2.79.05-.38.09-.75.11-1.12-.82,1.67-1.79,3.26-3.61,3.72h0Z"></path> <path class="cls-20" d="m118.12,37.57c-.06-.01-.12-.02-.17,0-.61.16-.57,1.93-.4,2.6.3,1.19,1.21,1.7,1.49,2.8.15.59.12,1.06-.47,1.22-1.57.4-2-2.66-4.08-2.13-1.08.28-1.5,3.81-4.65,4.61-2.57.66-4.08-1.25-8.04-.24-.7.18-1.71.49-2.43.94.36.38.7.76,1.04,1.14.07.08.15.16.22.24.88.27,1.58.59,2.22.88-.81-.45-1.59-1.1-2.51-1.9.14-.72.95-.98,1.88-1.21,3.13-.8,4.23,1.23,7.1.5.15-.04,2.22-.83,2.99-1.32.68-.43,1.21-3.18,2.43-3.5,1.59-.42,2.39,2.61,3.6,2.3.74-.19.99-.68.81-1.4-.2-.8-1.03-1.91-1.4-2.95-.19-.52-.25-2.37.27-2.5.35-.09,2,1.92,2.47,3.76.89,3.47-1.42,6.16-3.09,6.58-3.22.82-2.44-.29-4.55.25-1.3.33-2.28.83-2.64,1.01-.39.19-1.15.52-2.15.78-1.63.42-2.84.44-3.9.16.98.33,2.05.45,3.71.02s4.18-1.44,5.01-1.65c1.91-.49,2.13.29,4.14-.23,2.53-.65,3.59-3.09,3.87-5.8-.04-.3-.1-.59-.17-.85-.47-1.84-1.88-3.94-2.61-4.11h0Z"></path> <path class="cls-38" d="m118.01,37.65c-.51.13-.45,1.99-.27,2.5.37,1.04,1.2,2.14,1.4,2.95.19.72-.07,1.21-.81,1.4-1.21.31-2.01-2.71-3.6-2.3-1.22.32-1.75,3.07-2.43,3.5-.77.49-2.84,1.28-2.99,1.32-2.87.73-3.97-1.3-7.1-.5-.92.24-1.74.49-1.88,1.21.91.8,1.7,1.44,2.51,1.9.45.21.88.4,1.32.55,1.05.29,2.26.26,3.9-.16,1-.25,1.76-.58,2.15-.78.36-.18,1.34-.67,2.64-1.01,2.11-.54,1.34.57,4.55-.25,1.67-.42,3.98-3.11,3.09-6.58-.47-1.84-2.12-3.85-2.47-3.76h0Zm-9.6,11.99c-4.86,1.24-7.25-1.63-7.33-1.92,0-.04,0-.08,0-.11-.03-.12.03-.25.11-.34.39-.4.51-.45.95-.56,2.86-.73,3.74,1.55,7.68.54.2-.05.39-.11.58-.16.33-.09.66-.09.74.25.3,1.18-1.53,1.99-2.74,2.3h0Zm8.14-2.33c-1.15.29-3.19.11-3.5-1.1-.13-.5.15-1.07.5-1.94.15-.76.36-1.6.83-1.71,1.74-.45,1.55,2.82,3.86,2.23.05-.01.11-.03.12-.03.04-.01.09-.02.13-.03.44-.11,1.15-.88.76-2.42-.21-.84-.71-1.07-1.13-2.72-.11-.43-.32-1.26-.05-1.33.04-.01.09-.01.13-.02.72-.19,1.36,2.15,1.55,2.89.74,2.9-.15,5.41-3.19,6.19h0Z"></path> <path class="cls-15" d="m118.45,44.98c-.14.04-.28.09-.42.13-.56.14-1.51-.5-1.64-.61-.74-.62-1.17-1.6-1.74-1.45-.66.17-.58.91-.95,1.87-.01.22,0,.43.04.61.39,1.51,3.18,1.05,3.38,1,1.43-.37,1.94-1.1,1.86-1.41-.06-.23-.32-.19-.53-.14h0Z"></path> <path class="cls-24" d="m118.2,38.24s-.08,0-.13.02c-.27.07-.06.9.05,1.33.42,1.64.92,1.88,1.13,2.72.39,1.54-.32,2.31-.76,2.42-.04.01-.09.02-.13.03-.01,0-.07.02-.12.03-2.31.59-2.11-2.68-3.86-2.23-.47.12-.68.95-.83,1.71-.35.87-.63,1.44-.5,1.94.31,1.2,2.35,1.39,3.5,1.1,3.05-.78,3.93-3.28,3.19-6.19-.19-.74-.83-3.07-1.55-2.89h0Zm-1.08,8.3c-.19.05-2.99.51-3.38-1-.05-.18-.06-.39-.04-.61.37-.96.29-1.7.95-1.87.57-.15,1,.83,1.74,1.45.12.11,1.08.75,1.64.61.14-.04.28-.09.42-.13.21-.05.47-.09.53.14.08.3-.43,1.04-1.86,1.41h0Z"></path> <path class="cls-15" d="m107.43,47.79c-2.01.28-2.79-1.44-4.92-.9-.08.02-.44.16-.7.29-.04.18-.03.4.01.56.38,1.47,3.66,1.88,5.44,1.42.54-.14,1.57-.47,1.43-1.03-.1-.4-.53-.45-1.26-.35h0Z"></path> <path class="cls-24" d="m110.42,47.09c-.19.05-.39.11-.58.16-3.95,1.01-4.82-1.27-7.68-.54-.44.11-.56.16-.95.56-.09.09-.14.22-.11.34,0,.04,0,.07,0,.11.07.28,2.47,3.16,7.33,1.92,1.21-.31,3.05-1.12,2.74-2.3-.09-.34-.41-.34-.74-.25h0Zm-3.16,2.08c-1.78.45-5.06.05-5.44-1.42-.04-.16-.05-.39-.01-.56.25-.13.61-.27.7-.29,2.13-.55,2.91,1.17,4.92.9.73-.1,1.16-.05,1.26.35.14.56-.89.9-1.43,1.03h0Z"></path> <path class="cls-38" d="m65.21,39.7c.73-.19,1.2-.41,1.81-.56.27-.07.27-.05.56-.13.08-.02.16-.04.23-.06.03-.06.06-.11.09-.17-.27.1-.54.18-.81.25-3.65.93-6.18-1.61-6.95-4.64-.07-.28-.09-.57-.06-.85-.1.18-.19.37-.27.56.04.15.07.31.12.49.71,2.79,2.46,5.82,5.29,5.1h0Z"></path> <path class="cls-18" d="m58.95,37.8c0,.22,0,.44,0,.67,1.5.65,5.97,4.65,7.13,4.35,0,0,.02-.02.06-.05.15-.43.32-.85.48-1.27-.16.12-.34.21-.54.27-2.47.63-5.71-3.29-7.14-3.98h0Z"></path> <path class="cls-34" d="m58.95,38.47c0,.23.02.45.05.68,2.71,1.3,5.21,3.17,6.84,4.54.1-.31.2-.62.31-.92-.04.03-.06.05-.06.05-1.16.3-5.63-3.7-7.13-4.35h0Z"></path> <path class="cls-20" d="m67.58,39.01c-.29.07-.29.06-.56.13-.61.16-1.08.37-1.81.56-2.83.72-4.58-2.3-5.29-5.1-.04-.18-.09-.34-.12-.49-.25.55-.45,1.13-.59,1.73,1.64,1.45,2.78,5.31,6.95,4.24.79-.2,1.04-.39,1.37-.58.09-.19.19-.37.28-.56-.08.02-.16.04-.23.06h0Z"></path> <path class="cls-32" d="m59.21,35.84c-.11.47-.19.95-.23,1.44,2.35.05,3.9,4.59,6.9,3.82.75-.19.77-.92,1.53-1.34.04-.09.08-.17.12-.25-.33.18-.58.37-1.37.58-4.17,1.06-5.3-2.8-6.95-4.24h0Z"></path> <path class="cls-37" d="m58.98,37.27c-.01.17-.03.35-.03.53,1.43.69,4.67,4.61,7.14,3.98.2-.05.39-.15.54-.27.25-.61.51-1.19.78-1.75-.77.42-.79,1.15-1.53,1.34-3,.77-4.54-3.78-6.9-3.82h0Z"></path> <path class="cls-24" d="m67.49,28.97c.18-.05.5-.07.94-.06-.91-.15-1.83-.09-2.73.14-2.5.64-4.47,2.33-5.62,4.5-.02.28,0,.56.06.85.77,3.03,3.3,5.57,6.95,4.64.27-.07.54-.15.81-.25.3-.56.61-1.09.92-1.6-2.01-1.18-4.64-2.99-5.04-4.58-.46-1.8,1.75-3.14,3.71-3.64Zm-4.01,4.06c.16.64.5,1.1,1.02,1.53.23.19.47.3.76.47,1.01.78,2.68,1.82,2.78,2.18.12.46-.35,1.22-1.28,1.45-1.64.42-5.2-.38-6.13-3.98-.65-2.53,3.48-4.77,3.61-4.8.05-.01.2-.04.22.01.02.07,0,.23-.07.38-.44.92-1.31,1.15-.9,2.76Z"></path> <path class="cls-15" d="m65.26,35.03c-.29-.17-.53-.28-.76-.47-.52-.43-.86-.89-1.02-1.53-.41-1.61.47-1.84.9-2.76.07-.15.09-.31.07-.38-.01-.06-.16-.03-.22-.01-.12.03-4.25,2.28-3.61,4.8.92,3.6,4.49,4.4,6.13,3.98.93-.24,1.4-1,1.28-1.45-.09-.36-1.77-1.41-2.78-2.18Zm1.56,3.18c-1.72.44-4.37-1.11-5.03-3.68-.12-.46.36-2.54.96-2.7.06-.01.11-.04.16-.06-.1.32-.14.75-.03,1.21.7,2.75,4.37,2.68,4.79,4.33.08.3-.08.7-.86.9h0Z"></path> <path class="cls-39" d="m62.89,32.98c-.12-.45-.07-.89.03-1.21-.05.02-.11.04-.16.06-.61.15-1.08,2.23-.96,2.7.66,2.57,3.31,4.12,5.03,3.68.77-.2.93-.6.86-.9-.42-1.65-4.09-1.58-4.79-4.33h0Zm3.71,4.72c-.86.22-2.81-1.27-3.47-2.72.04-.04.11-.08.21-.11.12-.03.25-.02.33.06,1.85,1.85,3.21,1.33,3.43,2.19.08.31-.19.49-.5.57h0Z"></path> <path class="cls-42" d="m63.67,34.93c-.07-.07-.2-.09-.33-.06-.1.03-.17.06-.21.11.66,1.45,2.61,2.94,3.47,2.72.31-.08.58-.26.5-.57-.22-.86-1.57-.35-3.43-2.19h0Z"></path> <path class="cls-18" d="m44.39,80.62c-1.09-.76-2.1-1.57-3.04-2.42-.17-.04-.34-.08-.52-.12,2.42,2.15,6.16,4.16,6.06,5.44,0,.12-.13.23-.31.32,2.23.56,4.29.99,6.17,1.33-.02-.07-.06-.14-.1-.19-.62-.82-5.66-1.83-8.26-4.37Z"></path> <path class="cls-38" d="m42.57,80.63c-.43-1.68-3.37-2.4-4.27-3.03-.39-.07-.77-.13-1.16-.19,2.05,1.22,4.48,1.46,4.86,2.93.19.74-.52,1.37-1.34,1.8.21.07.42.14.63.2.7-.49,1.42-1.16,1.28-1.71Z"></path> <path class="cls-20" d="m43.35,81.01c-.33-1.29-2.45-2.35-4.03-3.23-.34-.06-.68-.12-1.03-.18.9.64,3.84,1.35,4.27,3.03.14.55-.58,1.22-1.28,1.71.11.04.22.07.33.11.41-.19.84-.35,1.28-.5.47-.15.61-.33.45-.94h0Z"></path> <path class="cls-43" d="m45.37,82.11c-.23-.92-3.75-3.03-5.07-4.13-.32-.07-.64-.13-.97-.19,1.57.89,3.7,1.94,4.03,3.23.15.6.01.79-.45.94-.44.14-.86.31-1.28.5,1.15.36,2.26.68,3.33.98.39-.21.58-.65.41-1.32h0Z"></path> <path class="cls-37" d="m45.8,81.93c-1.27-1.12-3.39-2.46-4.96-3.85-.18-.04-.36-.08-.54-.11,1.33,1.1,4.84,3.21,5.07,4.13.17.67-.02,1.11-.41,1.32.55.15,1.09.29,1.62.43.19-.09.3-.2.31-.32.04-.45-.4-.99-1.09-1.6h0Z"></path> <path class="cls-3" d="m55.66,85.14c-4.75-.86-8.33-2.48-11.27-4.52,2.6,2.55,7.64,3.55,8.26,4.37.04.06.08.12.1.19,1.38.25,2.67.45,3.87.62-.32-.21-.64-.43-.97-.67h0Z"></path> <path class="cls-24" d="m37.14,77.41c-.73-.11-1.45-.21-2.14-.29,2.45.91,5.84,1.53,6.46,3.42.15.45-.24.99-.71,1.02-.99.04-3.13-.59-3.13-.59h0c.89.37,1.79.76,2.71,1.07.11.04.22.07.33.11.82-.43,1.53-1.06,1.34-1.8-.38-1.47-2.81-1.71-4.86-2.93h0Z"></path> <path class="cls-15" d="m35,77.11c-2.27-.27-4.17-.37-4.79-.22-1.04.27-1.65.55-1.37,1.66.28,1.1,2.14,2.48,4.22,2.58-.73-.41-1.14-.65-1.14-.66-.04-.17,0-.39.22-.45,1.86-.48,3.65.18,5.47.94h0s2.14.63,3.13.59c.48-.02.86-.56.71-1.02-.62-1.89-4.01-2.52-6.46-3.42Zm5.63,3.99c-.96.24-2.51-.1-3.01-.33h-.04s.02,0,.04,0c-1.16-.5-3.24-1.28-5.11-.97-.23.04-.76.14-.98.2-.69.19-1.87.39-2.56-1.61-.39-1.13,1.33-1.44,1.89-1.48,3.55-.27,9.79,1.91,10.2,3.51.11.43-.07.6-.43.69h0Z"></path> <polygon class="cls-15" points="37.61 80.78 37.62 80.78 37.62 80.78 37.61 80.78 37.61 80.78"></polygon> <path class="cls-15" d="m37.58,80.78h.04s-.02,0-.04,0h0Z"></path> <path class="cls-39" d="m30.86,76.91c-.57.04-2.28.35-1.89,1.48.69,2,1.86,1.79,2.56,1.61.22-.06.76-.16.98-.2,1.87-.31,3.95.47,5.11.97h0c.5.23,2.05.57,3.01.33.36-.09.54-.26.43-.69-.41-1.6-6.65-3.77-10.2-3.51h0Zm8.47,3.77c-.87.22-2.63-.92-3.34-1.21-3-1.25-5.77,1.36-6.36-.95-.07-.27,0-.56.13-.81.18-.11.38-.18.59-.23,2.94-.75,9.15,1.9,9.36,2.76.07.26-.16.39-.38.44h0Z"></path> <path class="cls-13" d="m31.03,77.69c-.44.11-.81.2-1.02.53.18.7,1.39.85,2.08.68.02,0,.04-.01.06-.02.89-.22,1.58.25,2.18.09.31-.08.49-.35.45-.5-.08-.3-1.47-1.36-3.75-.78h0Z"></path> <path class="cls-42" d="m30.35,77.48c-.21.05-.41.13-.59.23-.12.25-.19.54-.13.81.59,2.31,3.36-.3,6.36.95.71.3,2.47,1.43,3.34,1.21.22-.06.45-.18.38-.44-.22-.86-6.43-3.51-9.36-2.76h0Zm3.98,1.5c-.6.15-1.3-.32-2.18-.09-.02,0-.04.01-.06.02-.69.18-1.9.02-2.08-.68.22-.33.59-.42,1.02-.53,2.28-.58,3.67.48,3.75.78.04.15-.14.42-.45.5h0Z"></path> <path class="cls-37" d="m69.73,89.42c-.32,1.34-1.26,2.35-2.98,2.79-8.43,2.15-25.05-8.5-33.35-10.88.19.11.4.22.62.34,1.2.66,2.86,1.56,4.8,2.57,12.68,4.41,22.42,10.6,28.82,8.96,1.78-.46,2.9-1.28,3.59-2.46-.02-.04-.05-.08-.07-.12-.44-.45-.92-.86-1.43-1.22h0Z"></path> <path class="cls-39" d="m71.15,90.63c-.39-.65-.83-1.18-1.35-1.63-.02.14-.05.28-.08.41.51.36.99.76,1.43,1.22h0Z"></path> <path class="cls-32" d="m69.73,89.42c-4.47-3.15-11.24-2.85-15.56-3.98-3.84-.63-8.42-1.61-13.85-3.4-2.81-.92-5.42-2.71-8.18-2-.23.06-.27.28-.22.45,0,.01.41.26,1.14.66.1.06.21.12.33.18,8.3,2.38,24.92,13.03,33.35,10.88,1.72-.44,2.66-1.45,2.98-2.79h0Zm-19.92-2.22c-4.67-2.02-16.63-6.32-17.05-6.44-.18-.06-.43-.2-.49-.45-.07-.26.9-.17,1.15-.24,1.34-.34,2.82,1,4.96,1.37.38.06.63.37.97.51,9.1,3.53,28.22,5.17,28.76,7.28.27,1.08-2.4,1.94-3.16,2.13-5.01,1.28-10.26-2.05-15.14-4.16h0Z"></path> <path class="cls-39" d="m69.73,89.42c.03-.14.06-.27.08-.41-1.54-1.33-3.69-1.88-6.63-2.32-1.85-.28-4.02-.51-6.55-.87-.78-.11-1.6-.24-2.46-.38,4.31,1.13,11.09.83,15.56,3.98Z"></path> <path class="cls-38" d="m92.42,82.91c-2.32,1.23-4.79,2.29-5.89,2.57-1.48.38-2.77,2.11-5.36,2.77-6.56,1.68-8.54-6.05-19.5-5.53-6.19.3-11.97-5.19-14.42-12.15-.16.45-.25.93-.26,1.43.17.66.49,1.32.83,1.97,0,0,.01.02.02.03,3.64,4.54,7.38,9.68,13.35,10.04,13.6.82,14.11,6.48,20.08,4.96,2.48-.63,2.84-1.97,4.05-2.45,1.36-.53,8-2.77,11.45-6.45.61-1.11.9-2.23,1-3.42-.86,2.57-2.51,4.71-5.36,6.23h0Z"></path> <path class="cls-13" d="m47.03,69.91c-.21.63-.24,1.31-.05,2.06,0,0,0,.02,0,.03.01-.5.1-.97.26-1.43-.08-.22-.15-.44-.22-.66h0Z"></path> <path class="cls-13" d="m55.05,64.88c2.17-.64,4.06-.62,5.49-.41-1.42-.33-2.88-.45-4.22-.11-1.04.27-2.18.6-3.3,1.01-2.73,1-5.31,2.45-5.99,4.53.07.22.14.44.22.66,1-2.84,4.67-4.77,7.8-5.69h0Z"></path> <path class="cls-24" d="m94.37,72.03c-4.62-2.52-13.57-5.83-26.3-4.85-.42.03-1.23-.31-2.29-.78-1.43-.63-3.3-1.48-5.24-1.93-1.43-.22-3.32-.23-5.49.41-3.13.92-6.8,2.85-7.8,5.69,2.46,6.96,8.23,12.45,14.42,12.15,10.96-.52,12.93,7.21,19.5,5.53,2.59-.66,3.88-2.39,5.36-2.77,1.09-.28,3.57-1.34,5.89-2.57,2.85-1.52,4.5-3.66,5.36-6.23.06-.76.05-1.55-.01-2.37-.45-.44-1.6-1.3-3.4-2.28h0Zm-13.31,14.94c-4.58,1.17-7.19-3.24-15.36-5.6-3.28-.95-13.93,1.56-16.74-9.44-1.16-4.56,1.79-5.69,8.2-7.32,1.46-.37,3.19-.38,4.61.44,4.67,2.7,5.81,2.73,5.94,3.23,0,.03.01.07,0,.1.4-.51.92-.79,1.52-.95,3.64-.93,26.46,1.99,28.05,8.25,1.15,4.51-15.46,11.08-16.23,11.28h0Z"></path> <path class="cls-29" d="m120.17,64.93c2.11-1.96,3.74-4.15,4.23-6.47,0-.03-.01-.06-.02-.09-.06-.23-.12-.45-.19-.68-.01.1-.03.19-.05.28-.81,4.21-4.66,7.58-10.9,11.93,1.12-.65,2.27-1.38,3.39-2.15,1.44-1.12,2.66-2.11,3.54-2.82h0Z"></path> <path class="cls-32" d="m120.17,64.93c.89-.73,1.43-1.17,1.45-1.19,1.7-1.34,2.78-5.42,2.56-3.72-1.76,13.84-14.01,19.52-22.17,23.34-2.79,1.3-3.67,5.32-9.35,6.59-1.8.4-4.18,3.98-6.7,4.63-.09.02-.18.04-.27.05-.08.01-1.02.31-1.06.18,2.94-2.83,3.36-5.19,7.73-5.74,4.44-.57,4.31-6.81,8.15-9.82.25-.19,1.5-1.31,1.68-1.41,4.52-2.54,10.34-6.88,14.43-10.08-1.12.78-2.27,1.5-3.39,2.15-2.78,1.94-6.04,4.07-9.71,6.57-9.19,6.24-6.29,11.13-10.82,12.29-.72.18-1.49.3-2.24.48-3.47.89-3.6,4.31-7.3,5.9-.02,0-.04.02-.06.03.72.09,1.5.16,1.98.03,3.23-.83,5.06-3.55,6.51-4.54.34-.23.74-.58,2.51-1.01,4.88-1.19,4.73-4.85,8.84-6.46,14.34-5.59,14.49-9.94,17.64-12.44,3.06-4.18,4.75-8.43,3.81-12.3-.49,2.32-2.12,4.51-4.23,6.47h0Z"></path> <path class="cls-2" d="m60.27,62.51c2.34-.6,2.45-1.58,2.18-2.61-.03-.1-.05-.2-.08-.3-.04-.16-.07-.29-.08-.35-.24-.94-1.14-2.46-1.94-3.92-.39-.39-.78-.76-1.18-1.14.73.85,1.42,2.01,1.92,3.95.68,2.68-.58,3.04-2.01,3.41-6.58,1.68-10.08-1.74-14.81-9.51.1.32.2.63.3.92,1.57,1.6,6.35,11.94,15.7,9.56h0Z"></path> <path class="cls-20" d="m62.02,57.06c-.54-.58-1.1-1.16-1.67-1.73.79,1.46,1.7,2.98,1.94,3.92.02.06.04.2.08.35.03.1.05.2.08.3.26,1.03.16,2.02-2.18,2.61-9.35,2.39-14.14-7.95-15.7-9.56.38,1.09.79,2.03,1.24,2.87,2.44,2.35,6.12,7.51,10.23,7.52,4.47,0,6.86.18,6.86.18.81-.21,1.18-1.76.95-2.66-.32-1.24-1.11-1.96-1.82-3.81h0Z"></path> <path class="cls-38" d="m59.07,61.55c1.43-.37,2.69-.73,2.01-3.41-.5-1.94-1.18-3.1-1.92-3.95-.27-.25-.53-.49-.8-.73.81,1.36,1.69,2.58,2.04,3.94.48,1.86-.54,3.7-2.51,4.2-4.4,1.12-12.51-5.52-14.29-12.05.09.37.18.74.28,1.14.12.47.25.91.38,1.34,4.73,7.77,8.23,11.19,14.81,9.51h0Z"></path> <path class="cls-4" d="m46.28,48.66s.66-.39,1.29-.59c1.47-.49,4.06.5,6.71,2.16-2.63-1.77-5.1-2.78-6.83-2.34-.44.11-.87.32-1.27.66-.29-.74-.88-.88-1.48-1.26.71.78,1.51,1.39,1.58,1.37h0Z"></path> <path class="cls-24" d="m57.9,61.6c1.96-.5,2.98-2.34,2.51-4.2-.35-1.36-1.22-2.58-2.04-3.94-1.36-1.21-2.75-2.32-4.1-3.22-2.65-1.67-5.24-2.65-6.71-2.16-.62.21-1.29.59-1.29.59-.07.02-.87-.6-1.58-1.37-.52-.33-1.04-.85-1.37-2.11-.16-.62-.18-1.33,0-1.92-.63.88-.55,2.46-.03,4.94.09.43.19.88.31,1.36,1.78,6.53,9.89,13.17,14.29,12.05h0Zm-14.28-13.88c-.07-.26-.12-.46-.09-.8.03,0,.12-.04.15-.04,1.02.23,1.69,2.15,2.74,1.88.51-.13.89-.43,1.92-.67,3.24-.76,10.63,5.87,11.14,7.88.72,2.82-.07,3.97-2.15,4.5-4.4,1.12-12.13-6.57-13.37-11.4-.11-.44-.17-.67-.35-1.36h0Z"></path> </g> </g> <g> <path class="cls-12" d="m72.71,23.07l-3.72,12.64c-1.6,5.44.06,8.93,3.1,9.83,3.05.9,6.33-1.13,7.93-6.58l3.72-12.64-11.04-3.25Z"></path> <path class="cls-12" d="m71.5,45.36s-1.62,5.31-2.98,9.95c-1.36,4.64-2.93,8.44-9.34,6.56l-.23.77,14.82,4.36.23-.77c-6.41-1.89-5.66-5.94-4.3-10.57,1.36-4.64,2.98-9.95,2.98-9.95"></path> <line class="cls-12" x1="69.59" y1="33.68" x2="81.58" y2="33.68"></line> <path class="cls-11" d="m76.5,13.93c0,1.99-1.61,3.59-3.59,3.59,1.99,0,3.59,1.61,3.59,3.59,0-1.99,1.61-3.59,3.59-3.59-1.99,0-3.59-1.61-3.59-3.59Z"></path> <path class="cls-11" d="m62.74,23.04c0,1.99-1.61,3.59-3.59,3.59,1.99,0,3.59,1.61,3.59,3.59,0-1.99,1.61-3.59,3.59-3.59-1.99,0-3.59-1.61-3.59-3.59Z"></path> <path class="cls-22" d="m68.92,21.12c0,.3-.25.55-.55.55s-.55-.25-.55-.55.25-.55.55-.55.55.25.55.55Z"></path> <path class="cls-22" d="m64.31,16.97c0,.3-.25.55-.55.55s-.55-.25-.55-.55.25-.55.55-.55.55.25.55.55Z"></path> <path class="cls-22" d="m60.8,34.95c0,.3-.25.55-.55.55s-.55-.25-.55-.55.25-.55.55-.55.55.25.55.55Z"></path> <path class="cls-22" d="m88.87,29.96c0,.3-.25.55-.55.55s-.55-.25-.55-.55.25-.55.55-.55.55.25.55.55Z"></path> <path class="cls-22" d="m91.38,34.4c0,.3-.25.55-.55.55s-.55-.25-.55-.55.25-.55.55-.55.55.25.55.55Z"></path> <path class="cls-22" d="m72.51,41.96c0,.3-.25.55-.55.55s-.55-.25-.55-.55.25-.55.55-.55.55.25.55.55Z"></path> <path class="cls-22" d="m76.11,42.51c0,.3-.25.55-.55.55s-.55-.25-.55-.55.25-.55.55-.55.55.25.55.55Z"></path> <path class="cls-22" d="m91.93,31.81c0,.3-.25.55-.55.55s-.55-.25-.55-.55.25-.55.55-.55.55.25.55.55Z"></path> <path class="cls-22" d="m75.56,38.78c0,.3-.25.55-.55.55s-.55-.25-.55-.55.25-.55.55-.55.55.25.55.55Z"></path> <g> <path class="cls-12" d="m81.41,19.6l4.92,12.23c2.12,5.27,5.58,6.97,8.53,5.79,2.95-1.19,4.26-4.81,2.14-10.08l-4.92-12.23-10.67,4.29Z"></path> <path class="cls-12" d="m94.29,37.84s2.03,5.17,3.83,9.66c1.8,4.48,2.93,8.44-3.26,10.94l.3.75,14.33-5.76-.3-.75c-6.2,2.49-8.12-1.15-9.93-5.63-1.8-4.48-3.83-9.66-3.83-9.66"></path> <line class="cls-12" x1="84.66" y1="27.67" x2="97" y2="27.67"></line> </g> </g> </svg> 