<?xml version="1.0" encoding="UTF-8"?> <svg xmlns="http://www.w3.org/2000/svg" id="Layer_2" data-name="Layer 2" viewBox="0 0 666.16 657.3"> <defs> <style> .cls-1 { fill: #eeeef2; } .cls-2 { fill: #e2e0ec; } .cls-3 { fill: #fff; } .cls-4 { fill: #babcce; } .cls-5 { fill: #d4dbe4; } .cls-6 { fill: #f4f5f8; } .cls-7 { fill: #9695b2; } .cls-8 { fill: #b5b5c6; } .cls-9 { fill: #fdfefd; } .cls-10 { fill: #f1f0f6; } .cls-11 { fill: #e6ebf0; } .cls-12 { fill: #dddcee; } .cls-13 { fill: #cdcadf; } .cls-14 { fill: #abb0c1; } .cls-15 { fill: #6d7790; } .cls-16 { fill: #f3f2f9; } .cls-17 { fill: #bfcad5; } .cls-18 { fill: #dbe1e8; } .cls-19 { fill: #d4dae3; } .cls-20 { fill: #b8bbcb; } .cls-21 { fill: #aabbc9; } .cls-22 { fill: #aeb2c8; } .cls-23 { fill: #8789a2; } .cls-24 { fill: #bec0d1; } .cls-25 { fill: #cfd7df; } .cls-26 { fill: #a8abbe; } .cls-27 { fill: #f2f5f7; } .cls-28 { fill: #5c6d85; } .cls-29 { fill: #eff1f4; } .cls-30 { fill: #d3dce7; } .cls-31 { fill: #efeff2; } .cls-32 { fill: #aeb5c7; } .cls-33 { fill: #e8e9f3; } .cls-34 { fill: #d9e1ea; } .cls-35 { fill: #dbdfeb; } .cls-36 { fill: #fdfdfe; } .cls-37 { fill: #979eb4; } .cls-38 { fill: #e5e9ee; } .cls-39 { fill: #f1f1f7; } .cls-40 { fill: #f6f8f9; } .cls-41 { fill: #e8eaf0; } .cls-42 { fill: #dadae9; } .cls-43 { fill: #ececf0; } .cls-44 { fill: #ccd5df; } .cls-45 { fill: #f5f6f8; } .cls-46 { fill: #ebe7f2; } .cls-47 { fill: #f0f0f5; } .cls-48 { fill: #c3c2d5; } .cls-49 { fill: #f7f6fb; } .cls-50 { fill: #9ea0b5; } .cls-51 { fill: #dfe7ed; } </style> </defs> <g id="clipping_mask" data-name="clipping mask"> <g> <path class="cls-17" d="m255.97,382.34c-6.56,4.71-12.6,9.95-18.11,15.46-5.75,13.43-9.48,28.19-13.16,42.55.19-.07.38-.13.56-.19,3.71-2.03,7.31-4.29,10.78-6.78,20.59-14.78,23.07-25.77,33.35-33.15,30.95-22.22,52.37,5.36,74.56,14.17.24-.35.48-.7.72-1.05-2.72-10.82-4.35-20.75-3.37-28.55-20.44-12.6-52.29-26.19-85.34-2.46Z"></path> <path class="cls-26" d="m225,414.79c3.16,4.41-8.65,21.42-6.82,36.4,1.29-1.55,2.93-3.06,4.91-4.56,5-19.18,9.57-39.6,18.56-56.89-8.07,9.02-15.64,17.42-22.54,22.68,2.62.1,4.76.8,5.89,2.37Z"></path> <path class="cls-19" d="m174.15,417.51c-6.63,4.76-13.56,8.88-21.01,11.9-3.32,3.04-6.44,6.35-9.18,9.95,3.87-1.22,7.6-2.81,11.1-4.85,41.15-23.92,56.46-20.2,68.23-28.65,10.77-7.73,14.93-17.54,30.44-29.4,4.64-4.91,9.4-9.64,14.27-13.78-16.83-1.24-33.25,5.23-47.13,15.19-12.8,9.19-29.26,27.1-46.71,39.64Zm41.82-29.35c.11-.08,4.86-1.18,8.96-4.13,3.08-2.21,6.05-4.86,9.15-7.09,18.95-13.61,17.79,2.34-7.01,20.14-5.08,3.65-10.57,6.54-16.18,8.08-3.59,2.13-8.05,4.09-9.57,1.97-3.56-4.96,1.3-9.75,6.71-13.64,2.88-2.07,5.92-3.88,7.93-5.33Z"></path> <path class="cls-51" d="m137.01,450.12c-2.61,7.09-1.43,13.58,1.83,18.12,1.55,2.17,27.84,24.97,28.52,25.53,6.42,5.28,9.52,3.42,13.99,7.02,3.61.8,7.28,1.35,11.01,1.62,5.85-.94,12.72-2.02,17.22-5.24,3.93-2.82,6.31-8.02,3.42-12.04-1.78-2.48-4.92-4.42-6.54-6.67-.25-.34-.8-19.89-9.43-31.92-7.39-10.29-18.13-14.24-28.98-13.33-9.7,4.71-20.09,9.74-27.28,13.23-1.22,1.13-2.49,2.37-3.77,3.69Zm48.41,4.24c5.44,7.58,1.25,20.28,4.35,24.6,2.2,3.07,7.51,4.42,9.57,7.29.82,1.14.82,2.31.35,3.39-.25.19-.5.37-.78.57-6.17,4.43-33.25-8.21-38.92-16.1-6.55-9.12,4.28-21.11,6.66-22.82,6.7-4.81,15.03-2.12,18.76,3.07Z"></path> <path class="cls-1" d="m424.48,579.21c-2.01-11.16-7.29-22.18-11.09-27.46-5.65-7.87-21.76-14.22-28.87-9.12-1.27.91-1.71,1.5-3.62,2.87-19.43,13.95-39.05-3.47-52.95,6.52-7.48,5.37,7.6,31.22,12.98,38.71,8.96,12.48,17.7,20.63,27.36,25.46,10.68-1.08,21.97-5.07,33.5-13.35,8.93-6.41,16.54-14.47,22.7-23.63Zm-68.11,14.33c-2.13-2.97-4.9-6.09-7.23-9.33-6.97-9.71-5.08-16.35-.4-19.71,5.82-4.18,15.64-.75,23.73.22,10.14,1.22,25.7-11.66,32.53-2.15,5.14,7.17,2.79,17.67-2.62,24.15-.44,1.66-1.78,3.48-5.03,5.82-13.27,9.52-38.33,4.7-40.98,1.01Z"></path> <path class="cls-1" d="m191.86,337.43c6.26,2.46,12.5,4.42,18.7,6.02,17.16,1.58,34.47,3.72,51.73,4.36,78.82,2.95,109.97,67.01,132.45,77.05-3.17-10.39-7.55-23.81-12.34-38-5.95-5.42-11.11-11.52-15.78-18.03-12.79-17.81-23.68-41.72-30.09-50.65-27.03-37.65-83.77-19.94-119.41,5.65-3.85,2.76-8.92,6.86-9.25,7.1-4.82,3.46-10.24,5.47-16.01,6.49Zm145.06.41c3.61,5.03,6.79,10.49,9.58,16.16-.4,1.08-1.16,2.14-2.43,3.05-10.83,7.78-29.35-15.81-50.28-19.54-11.47-2.04-30.23,3.45-37.22-6.29-2.41-3.36,9.41-13.1,12.78-15.52,14.77-10.61,45.75-8.26,67.56,22.13Z"></path> <path class="cls-2" d="m154.53,236.1c-15.3-1.93-35.93-2.11-49.29,7.47-21.59,15.5-8.17,43.33-23.12,57.31-18.86,17.64-23.34,42.34-9.42,61.72,3.02,4.2,13.13,15.27,27.87,26.11,4.26.76,8.56,1.28,12.86,1.56-8.03-4.86-15.12-11.06-20.68-18.8-19.89-27.7-9.37-57.64,8.71-70.62,3.61-2.59,7.66-4.63,12.08-5.97,94.56-28.61,100.27-43.92,160.23-23.91,7.93-2.01,15.75-3.13,23.44-2.86-36.81-26.23-52.73-20.63-142.67-32Zm-44.79,39.4c-6.92-9.63-3.52-21.25,5.14-27.47,10.8-7.75,35.54.22,65.01-1.87,4.71-.33,10.53,1.72,13.38,5.69,1.37,1.91,2.06,4.26,1.61,7.01-20.7-8-68.71,39.52-85.13,16.64Z"></path> <path class="cls-10" d="m306.38,228.13c-40.04-34.94-96.57-94.98-148.85-57.44-19.77,14.19-29.23,34.47-31.92,53.92,20.95-11.58,37.71-6.55,67.1-3.77,53.47-18.86,84.74,18.59,113.3,35.93,19.91,12.09,28.31,8.75,43.16-1.26,3.05-5.56,7.63-10.99,14.21-16.2-19.83,4.47-40.47,3.24-56.99-11.17Zm-46.7-10.97c-32.74-15.36-82.86-3.76-97.14-23.65-4.47-6.22,1.48-11.99,9.4-17.68,29.21-20.97,69.71-.86,88.96,25.96.29.4.56.8.84,1.2,4.45,3,7.54,6.02,8.14,6.84,2.05,2.86,1.39,6.55-.67,8.03-2.57,1.84-6.99.48-9.52-.7Z"></path> <path class="cls-49" d="m638.96,513.2c.2-.14.41-.28.61-.42s.39-.29.6-.44c13.14-20.31,33.35-58.51-7.38-139.94-4.99-7.87-10.25-15.58-15.58-23.01-5.25-7.32-10.76-14.48-16.43-21.54-8.49-10.55-17.39-20.84-26.49-30.92-12.8-19.87-25.54-38.71-33.5-50.27,89.64,138.66,6.4,173.83,58.35,246.19,10.27,14.31,24.4,20.97,39.82,20.37Zm-29.81-141.78c10.89-7.82,44.9,57.1,27.48,99.54.03,10.03-1.49,19.56-9.23,25.11-7.05,5.06-9.61,3.38-14.94-4.04-23.92-33.31-18.17-109.94-3.31-120.61Z"></path> <path class="cls-33" d="m319.57,59.92c16.12,22.46,64.53,22.09,77.05,39.52,1.43,1.99,2.29,4.21,2.77,6.62,3.58,6.1,3.17,9.32,7.59,15.49,8.79,12.25,25.33,18.92,34.54,31.75,4.82,6.71,11.14,19.36,17.56,28.3,19.63,27.33,49.13,17.71,79.46,59.96,3.31,4.61,6.24,9.5,8.76,14.64,7.58,11.17,17.27,25.65,26.98,40.74,8.7,9.63,17.19,19.46,25.34,29.52-1.42-21.92-10.67-42.04-23.94-60.51-31.88-44.4-81.93-74.5-96.73-95.11-9.42-13.11-16.62-46.6-46.54-88.27-34.87-48.56-65.77-60.09-113.03-54.3-3.73,1.64-7.41,3.48-11.04,5.53,6.68,11.49,5.52,18.2,11.21,26.13Zm98.96,17.66c6.31,8.78,9.13,18.79,5.38,29.72-11.23-2.9-17.86-14.88-27.42-21.66-29.32-20.82-58.47-20.7-64.47-29.06-2.08-2.9-2.46-7.16,1.05-9.68,25.83-18.54,72.99,13.31,85.46,30.68Z"></path> <path class="cls-31" d="m418.53,77.57c-12.47-17.37-59.64-49.22-85.46-30.68-3.5,2.52-3.13,6.78-1.05,9.68,6,8.36,35.15,8.24,64.47,29.06,9.56,6.79,16.19,18.76,27.42,21.66,3.75-10.93.93-20.93-5.38-29.72Z"></path> <path class="cls-12" d="m459.08,181.59c-6.41-8.93-12.74-21.58-17.56-28.3-9.21-12.83-25.75-19.5-34.54-31.75-4.43-6.17-4.01-9.39-7.59-15.49,1.81,9.03-1.82,20.55-1.86,31.24,14.75,5.47,29.87,12.82,44.85,33.69,8.78,12.23,15.89,26.11,23.48,38.77,1.64,2.73,3.23,5.38,4.78,7.95,23.08-6.76,47.56-2.84,62.73,18.3,1.84,2.56,7.01,9.99,13.93,20.18-2.52-5.14-5.45-10.02-8.76-14.64-30.33-42.25-59.84-32.63-79.46-59.96Z"></path> <path class="cls-39" d="m510.42,158.62c-5.88-8.19-19.63-40.61-41.24-70.71-34.82-48.49-73.22-66.17-108.11-69.63-14.16.72-28.22,4.05-41.67,9.97,47.26-5.79,78.16,5.74,113.03,54.3,29.92,41.67,37.12,75.15,46.54,88.27,14.8,20.61,64.85,50.71,96.73,95.11,13.26,18.47,22.52,38.6,23.94,60.51.38.47.77.93,1.15,1.4,5.68,7.05,11.18,14.22,16.43,21.54,4.96,6.91,9.85,14.06,14.53,21.36-3.42-51.01-21.93-98.65-51.48-139.79-27.78-38.69-69.64-72.06-69.84-72.33Z"></path> <path class="cls-47" d="m469.18,87.91c21.61,30.1,35.36,62.52,41.24,70.71.19.27,42.06,33.64,69.84,72.33,29.54,41.15,48.05,88.78,51.48,139.79,2.32,3.63,4.6,7.29,6.79,10.98,2.57-53.45-17.53-102.22-48.78-145.75-30.28-42.18-82.48-88.72-82.74-89.08-11.29-15.73-8.78-35.28-33.52-69.73-29.65-41.29-71.4-60.98-112.41-58.88,34.9,3.46,73.3,21.14,108.11,69.63Z"></path> <path class="cls-2" d="m254.63,108.82c-7.81,5.6-11.41,9.53-15.35,13.44,30.21-15.9,85.79-35.47,116.85-6.2,13.15,12.39,27.1,15.93,41.4,21.24,0-.09,0-.18,0-.27-30.32-12.78-81.45-72.33-142.9-28.2Z"></path> <path class="cls-10" d="m242.78,70.52c-15.7,11.27-20.89,26.76-25.25,40.29,1.16.82,2.38,1.55,3.69,2.15,6.94,3.2,12.77,6.39,17.91,9.38.05-.03.1-.05.15-.08,3.94-3.92,7.54-7.84,15.35-13.44,61.45-44.12,112.58,15.42,142.9,28.2.13-13.46,5.83-28.2-.91-37.59-.06-.09-.13-.17-.2-.26-.69.65-1.4,1.25-2.15,1.78-33.64,24.16-93.07-72.39-151.49-30.44Z"></path> <path class="cls-16" d="m213.71,107.64c1.19,1.13,2.45,2.21,3.82,3.17,4.36-13.53,9.55-29.02,25.25-40.29,58.42-41.94,117.85,54.6,151.49,30.44.75-.54,1.47-1.13,2.15-1.78-2.84-3.8-7.4-6.75-12.96-9.28-10.88-4.95-25.57-8.29-38.62-13.28-9.93-3.8-18.91-8.55-24.52-15.7-25.34-16.81-49.55-31.31-75.46-12.71-25.92,18.61-25.61,40.42-31.16,59.43Z"></path> <path class="cls-16" d="m202.03,86.7c-.11-25.86-9.07-54.04,20.7-75.42,26.99-19.38,54.54-5.95,77.95,11.9-1.27-1.42-2.6-2.77-3.97-4.05-22.56-21.08-57.77-23.22-70.95-13.76-35.03,25.15-30.32,55.6-23.73,81.33Z"></path> <path class="cls-49" d="m202.03,86.7c1.05,4.09,2.14,8.05,3.13,11.86,2.55,2.47,5.26,5.97,8.55,9.09,5.54-19,5.24-40.82,31.16-59.43,25.91-18.61,50.12-4.11,75.46,12.71-.26-.33-.51-.67-.76-1.01-5.7-7.93-4.53-14.64-11.21-26.13-1.01-1.74-2.2-3.59-3.62-5.57-1.27-1.77-2.63-3.45-4.06-5.03-23.41-17.85-50.96-31.28-77.95-11.9-29.77,21.37-20.81,49.56-20.7,75.42Zm75.26-65.25c.45.63.86,1.45,1.19,2.38-11.65-.48-23.21,4.46-33.18,11.62-4.76,3.42-10.6,8.78-10.78,8.91-5.78,4.15-14.23,3.94-18.51-2.03-5.12-7.13,3.47-18.11,9.72-22.59,16.42-11.79,45.59-6.61,51.56,1.72Z"></path> <path class="cls-36" d="m216.01,42.32c4.29,5.97,12.73,6.18,18.51,2.03.18-.13,6.02-5.5,10.78-8.91,9.97-7.16,21.53-12.1,33.18-11.62-.33-.93-.74-1.74-1.19-2.38-5.98-8.33-35.14-13.51-51.56-1.72-6.25,4.49-14.84,15.46-9.72,22.59Z"></path> <path class="cls-10" d="m504.79,253.03c52.91,73.7-17.86,119.71,20.84,173.61.22.31.46.63.57.79,9.17,12.78,7.52,30.39,14.54,45.51,6.53,14.06,16.15,30.67,13.93,46.09,2.65,5.41,5.06,10.93,7.07,16.43.48,1.32.94,2.63,1.37,3.94,1.23-1.27,2.57-2.43,3.97-3.44,11.08-7.96,33.74-2.34,60.4-15.83-20.59,1.97-45.6-1.88-60.54-15.69-33.5-55.43,32.55-159.51-33.16-251.03-10.29-14.33-22.72-27.29-36.61-38.4-8.44-.89-17.25.06-25.89,2.52,12.46,10.64,24.18,22.5,33.51,35.5Z"></path> <path class="cls-2" d="m526.2,427.43c-.11-.16-.35-.47-.57-.79-38.7-53.91,32.07-99.92-20.84-173.61-9.33-13-21.05-24.86-33.51-35.5-.21.06-.42.11-.64.18,62.15,103.28,51.09,79.72,36.31,124.43-4.81,14.55-6.8,30.78-14.51,43.21,4.8,14.09,11.17,29.76,23.42,46.81,8.59,11.97,9.59,25.88,8.4,40.12,3.06,3.27,5.88,6.78,8.53,10.47,7.41,10.32,15.38,22.99,21.88,36.29,2.22-15.42-7.4-32.03-13.93-46.09-7.02-15.12-5.36-32.73-14.54-45.51Z"></path> <path class="cls-36" d="m612.46,492.03c5.33,7.42,7.89,9.11,14.94,4.04,7.74-5.56,9.26-15.08,9.23-25.11,17.42-42.43-16.6-107.35-27.48-99.54-14.85,10.66-20.61,87.29,3.31,120.61Z"></path> <path class="cls-16" d="m640.16,512.33c42.16-30.86,26.71-82.82-1.64-130.61-1.86-3.13-3.78-6.24-5.73-9.33,40.72,81.43,20.52,119.64,7.38,139.94Z"></path> <path class="cls-16" d="m497.17,215.02c13.89,11.1,26.32,24.06,36.61,38.4,65.71,91.52-.34,195.6,33.16,251.03,14.94,13.81,39.95,17.66,60.54,15.69,3.75-1.9,7.59-4.18,11.48-6.93-15.42.61-29.55-6.06-39.82-20.37-51.95-72.35,31.29-107.52-58.35-246.19-3.6-5.23-6.22-8.97-7.42-10.64-9.36-13.04-22.27-19.52-36.2-20.99Z"></path> <path class="cls-33" d="m500.22,574.32c24.78-17.79,30.31-52.23,21.37-81.1-.34,2.41-.68,4.8-.97,7.17-1.67,13.54,2.7,33.59-5.44,41.78-1.22,1.62-2.66,3.04-4.25,4.18-9.7,6.96-26.38-2.4-42.61,9.25-8.24,5.92-12.76,20-19.98,33.72-2.37,14.19-2.19,27.12-7.6,38.87.59.48,1.19.94,1.81,1.39,10.75-14.28,17.91-30.1,29.51-38.42,8.77-6.3,19.68-10.76,28.16-16.85Z"></path> <path class="cls-12" d="m510.92,546.35c1.59-1.14,3.03-2.56,4.25-4.18-.44.44-.91.86-1.43,1.23-13.7,9.83-26.95,4-39.92-7.11-.81,3.15-2.32,6.22-4.89,9.16-13.81,15.8-18.35,30.4-20.59,43.87,7.21-13.73,11.73-27.8,19.98-33.72,16.23-11.65,32.91-2.29,42.61-9.25Z"></path> <path class="cls-31" d="m523.32,480.87c-.53,4.13-1.15,8.25-1.73,12.34,8.94,28.88,3.42,63.31-21.37,81.1-8.47,6.08-19.38,10.55-28.16,16.85-11.6,8.33-18.75,24.15-29.51,38.42,1.12.81,2.29,1.56,3.51,2.25,11.57-2.77,27.33-4.49,43.89-16.38,32.96-23.66,54.69-83.68,33.36-134.59Z"></path> <path class="cls-36" d="m547.33,591.13c-17.46,12.53-37.58,20.34-55.24,33.02-.97.7-1.99,1.45-2.33,1.7-8.27,5.94-17.61,9.08-27.44,10.58,8.56.29,18.24-2.45,28.48-9.8.68-.49,1.36-.98,2.03-1.46,19.41-13.93,39.69-12.1,60.28-26.88,17.99-12.91,17.76-35.53,9.99-58.89-.44-1.31-.89-2.63-1.37-3.94-4.64-12.66-11.31-25.37-18.33-36.75,16.9,32.09,29.75,73.88,3.92,92.42Z"></path> <path class="cls-39" d="m523.32,480.87c21.33,50.91-.4,110.92-33.36,134.59-16.56,11.89-32.32,13.61-43.89,16.38,4.73,2.67,10.21,4.39,16.25,4.59,9.83-1.5,19.17-4.64,27.44-10.58.35-.25,1.36-1,2.33-1.7,17.66-12.68,37.78-20.48,55.24-33.02,25.83-18.54,12.98-60.33-3.92-92.42-3.53-5.72-7.14-11.11-10.63-15.96-2.65-3.69-5.47-7.2-8.53-10.47-.24,2.85-.57,5.72-.94,8.59Zm26.05,50.42c6.09,8.48,11.33,43.22-6.89,56.3-4.83,3.47-10.69,5.47-16.49,5.27,12.01-28.94,9.34-59.04,16.51-64.19,1.9-1.36,3.88-1.56,6.88,2.61Z"></path> <path class="cls-49" d="m525.99,592.86c5.8.2,11.66-1.8,16.49-5.27,18.22-13.08,12.98-47.83,6.89-56.3-3-4.18-4.98-3.98-6.88-2.61-7.16,5.14-4.5,35.25-16.51,64.19Z"></path> <path d="m372.04,229.99l-2.24.08-5.88-.22,3.36-2.01c.94-.56,2.69-.75,3.39.23l1.37,1.92Z"></path> <path class="cls-31" d="m208.9,145.71c16.56.28,34.96,2.5,52.66,7.88,38.18-1.56,63.65,50.47,114.33,59.65,4.16.75,7.33,3.35,9.8,6.78,5.13,7.15,11.24,25.92,20.41,38.7,12.26,17.07,49.71,35.23,70.83,64.63,1.09,1.52,2.13,3.06,3.11,4.63-12.36-50.15-48.23-106.87-68.61-135.26-46.21-64.35-128.97-71.77-200.19-50-.83.98-1.62,1.97-2.34,3Zm185.63,40.82c7.46,10.39,12.81,22.1,15.28,34.16-12.54-1.07-35.03-29.25-80.28-45.62-5.06-1.83-11.63-5.64-15.03-10.38-4.08-5.68-2.19-11.17,2.33-14.41,10.28-7.38,51.84.23,77.71,36.25Z"></path> <path class="cls-39" d="m314.49,164.68c3.4,4.74,9.97,8.55,15.03,10.38,45.25,16.37,67.74,44.55,80.28,45.62-2.47-12.06-7.82-23.77-15.28-34.16-25.86-36.02-67.43-43.63-77.71-36.25-4.51,3.24-6.4,8.73-2.33,14.41Z"></path> <path class="cls-12" d="m391.13,272.31c-12.47-17.36-8.9-26.55-15.99-36.42-.24-.34-.5-.67-.74-1-5.63,7.48-9.27,23.24,2.94,40.25,7.92,11.02,28.76,21.34,44.58,30.04,14.91,5.59,29.88,12.91,42.29,24.77-.6-.94-1.21-1.86-1.86-2.77-21.73-30.26-52.13-28.28-71.22-54.87Z"></path> <path class="cls-3" d="m229.2,129.61c48.06-19.13,33.93-21.38,103.6-17.42,17.8,1.01,25.79,14.19,37.67,20.28,44.28,22.68,51.99,20.79,86.12,68.32,24.49,34.12,60.56,108.39,57.23,119.85-.9,3.1-1.67,6.17-2.33,9.24,11.77-28.84,14.64-19.96-40.85-112.16-1.55-2.57-3.14-5.22-4.78-7.95-7.6-12.66-14.71-26.55-23.48-38.77-14.98-20.87-30.1-28.22-44.85-33.69-14.3-5.31-28.25-8.85-41.4-21.24-31.1-29.31-86.82-9.63-116.99,6.28-5.43,2.86-10.02,5.6-13.5,7.91,1.19-.22,2.38-.44,3.57-.64Z"></path> <path class="cls-49" d="m456.59,200.78c-34.13-47.53-41.84-45.63-86.12-68.32-11.88-6.09-19.87-19.27-37.67-20.28-69.67-3.96-55.54-1.71-103.6,17.42,78.92-13.45,165.23,16.3,211.71,81.04,25.81,35.95,42.58,77.81,58.39,120.41,2.88,7.76,4.02,15.93,3.92,24.21,1.14-4.43,2.31-8.85,3.73-13.13,1.59-4.79,3.13-8.8,4.54-12.27.66-3.07,1.43-6.15,2.33-9.24,3.33-11.45-32.74-85.73-57.23-119.85Z"></path> <path class="cls-16" d="m223.09,132c-4.51,3.24-8.55,6.8-11.85,10.71,71.22-21.77,153.98-14.35,200.19,50,20.38,28.39,56.25,85.11,68.61,135.26,8.62,13.74,12.91,29.4,9.31,47.98.98,3.05,1.99,6.18,3.09,9.39,5.44-8.77,8.04-19.44,10.78-30.08.1-8.28-1.04-16.46-3.92-24.21-15.81-42.6-32.58-84.46-58.39-120.41-46.48-64.74-132.79-94.49-211.71-81.04-1.19.2-2.38.42-3.57.64-.91.6-1.77,1.19-2.52,1.73,0,0-.01.01-.02.02Z"></path> <path class="cls-33" d="m288.51,164.87c4.18,3.26,8.32,7.48,12.42,13.19,3.9,5.43,7.74,11.19,11.77,16.8,22.04,30.7,36.7,33.24,55.17,33.96.66-.4,1.65-.37,1.85-.09.04.05.08.11.12.16,2.68.09,5.45.16,8.34.3.06.21.12.42.17.64.09.37.17.75.24,1.12.08.43.16.86.23,1.29-1.44.78-2.86,1.59-4.26,2.42-.05.07-.11.15-.16.22.25.33.5.67.74,1,7.09,9.87,3.52,19.06,15.99,36.42,19.09,26.59,49.49,24.61,71.22,54.87.65.9,1.27,1.83,1.86,2.77,3.72,3.55,7.22,7.51,10.41,11.96,4.17,5.8,7.13,12.24,9.74,19.24,1.74,4.68,3.32,9.61,4.99,14.8,3.6-18.59-.69-34.24-9.31-47.98-.98-1.57-2.02-3.11-3.11-4.63-21.11-29.4-58.57-47.56-70.83-64.63-9.17-12.78-15.28-31.54-20.41-38.7-2.46-3.43-5.64-6.02-9.8-6.78-50.68-9.18-76.15-61.2-114.33-59.65,9.3,2.83,18.4,6.53,26.95,11.28Z"></path> <path class="cls-33" d="m85.62,177.22c-26.57,56.29-42.99,90.79-48.04,117.57-2.08,11-2.24,20.7-.39,30.06.47-5.25,1.79-10.46,3.8-15.62,2.39-6.13,5.75-12.17,9.83-18.09,11.44-21.28,30.12-31.19,35.12-50.31,8.01-30.6,20-59.14,44.76-76.92,13.54-9.72,27.67-14.62,41.67-15.5,9.84-1.79,22.52-2.94,36.52-2.7.34-.48.71-.96,1.07-1.43-32.69-.8-68.26-17.42-103.33,7.76-8.77,6.3-16.07,14.7-21.02,25.18Z"></path> <path class="cls-40" d="m48.32,118.81c-2.77,1.78-5.59,3.68-8.46,5.74-80.21,57.59-14.48,123.36-14.88,211.58,0,1.6.16,3.16.47,4.67,4.75-69.86-58.53-158.09,14.49-210.52,34.82-25,89.77-16.07,125.98-13.22,17.03,1.34,29.93-7.84,42.44-15.09-1.11-1.24-2.17-2.41-3.2-3.41-.35-.34-.7-.66-1.05-.96-.52.41-1.04.81-1.58,1.2-31.75,22.8-76.65-17.84-154.21,20.01Z"></path> <path class="cls-6" d="m25.44,340.8c1.01,4.98,3.58,9.55,6.76,13.99,3.95,5.5,8.85,10.8,12.9,16.46,1.68,2.35,3.22,4.75,4.48,7.26.71,1.41,1.34,2.85,1.86,4.33,2.67-3.82,5.56-7.53,8.6-11.15-3.36-2.59-6.46-5.46-9.24-8.6-1.37-1.55-2.68-3.16-3.89-4.85-7.96-11.09-10.73-22.31-9.73-33.39-1.85-9.36-1.69-19.06.39-30.06-13.39-57.39-26.1-124.89,20.22-158.15,61.01-43.8,120.33,6.86,169.15-7.24,3.3-2.12,7.41-4.54,12.19-7.05-5.14-2.99-10.98-6.18-17.91-9.38-5.39-2.49-9.39-7.11-12.87-11-12.5,7.25-25.41,16.43-42.44,15.09-36.22-2.85-91.17-11.78-125.98,13.22-73.02,52.43-9.74,140.66-14.49,210.52Z"></path> <path class="cls-6" d="m202.53,98.8c.53-.38,1.06-.79,1.58-1.2-2.43-2.09-4.77-3.03-7.4-1.53-37.28,21.23-76.97-23.09-148.39,22.74,77.56-37.85,122.46,2.78,154.21-20.01Z"></path> <path class="cls-31" d="m57.8,136.63c-46.32,33.26-33.61,100.76-20.22,158.15,5.05-26.77,21.47-61.27,48.04-117.57,4.95-10.48,12.24-18.88,21.02-25.18,35.07-25.18,70.64-8.55,103.33-7.76,3.51-4.55,8.03-8.63,13.14-12.3,1.1-.79,2.4-1.66,3.83-2.59-48.82,14.1-108.14-36.56-169.15,7.24Zm-1.15,71.16c-5.1,9.35-10.03,19.06-17.79,26.72l-.46.33c-7.04-27.76-.81-67.74,23.86-85.46,12.39-8.9,24.38-9.32,27.58-4.86,9.76,13.59-25.93,49.95-33.19,63.26Z"></path> <path class="cls-12" d="m85.94,240.82c-5,19.12-23.68,29.03-35.12,50.31,10.29-14.91,25.17-29,40.57-41.54-9.39-29.51,35.06-75.67,62.2-95.16,3.02-2.17,9.69-4.37,18.78-6.03-14,.88-28.13,5.78-41.67,15.5-24.76,17.78-36.75,46.31-44.76,76.92Z"></path> <path class="cls-39" d="m89.84,144.53c-3.2-4.46-15.19-4.03-27.58,4.86-24.67,17.72-30.9,57.7-23.86,85.46l.46-.33c7.76-7.66,12.69-17.38,17.79-26.72,7.26-13.31,42.95-49.67,33.19-63.26Z"></path> <path class="cls-12" d="m120.87,461.37c4.26,5.93,9.46,11.17,15.13,16.01,6.06,5.18,11.9,10.35,17.67,15.5-1.39-2.43-2.45-4.97-3.24-7.52-5.3-4.48-10.3-9.89-14.93-16.34-.19-.27-.4-.55-.61-.83-5.36-1.8-9.88-5.43-13.09-9.9-13.08-18.22,4.78-38.91.2-67.78-11.01.1-22.31-1.37-32.96-4.49,7.35,5.67,12.82,10.97,15.38,14.53,17.44,24.3-3.45,33.12,16.44,60.82Z"></path> <path class="cls-36" d="m56.55,474.27c-8.81-12.27-18.31-34.23-20.32-55.52-2.61,18.48,2.38,39.72,20.61,65.11,19.84,27.64,93.87,70.3,155.74,45.86-54.78-4.14-122.81-9.18-156.03-55.45Z"></path> <path class="cls-33" d="m56.5,376.06c9.25,4.38,17.66,11.91,25.06,22.23,17.14,23.88,11.2,38.47,30.95,65.98,12.04,16.78,28.74,30.16,47.76,37.47-1.66-1.88-3.24-3.86-4.74-5.94-.68-.95-1.3-1.93-1.87-2.92-5.77-5.15-11.61-10.32-17.67-15.5-5.67-4.84-10.87-10.08-15.13-16.01-19.89-27.7,1.01-36.52-16.44-60.82-2.56-3.56-8.03-8.86-15.38-14.53-10.64-3.11-20.62-7.87-29-14.33-1.21,1.44-2.39,2.9-3.55,4.38Z"></path> <path class="cls-6" d="m36.23,418.75c2.02,21.29,11.51,43.25,20.32,55.52,33.22,46.27,101.25,51.31,156.03,55.45.47-.19.94-.36,1.42-.56-9.16-1.27-18.04-3.72-26.3-7.42-30.15-3.31-60.26-18.29-77.98-42.97-14-19.49-16.51-43.24-29.58-61.44-10.33-14.39-23.87-18.56-38.67-16.92-2.52,5.82-4.34,11.91-5.25,18.34Zm37.82,3.29c15.51,21.6,9.99,54.09,11.23,60.95-6.3-4.86-11.91-10.87-16.72-17.57-8.41-11.71-26.18-47.43-14.49-55.82,4.29-3.08,15.65,6.4,19.99,12.45Z"></path> <path class="cls-40" d="m68.55,465.42c4.81,6.7,10.42,12.71,16.72,17.57-1.23-6.86,4.28-39.35-11.23-60.95-4.34-6.04-15.69-15.53-19.99-12.45-11.69,8.39,6.09,44.12,14.49,55.82Z"></path> <path class="cls-31" d="m81.56,398.29c-7.41-10.31-15.81-17.85-25.06-22.23-1.75,2.22-3.44,4.47-5.05,6.77-3.91,5.6-7.32,11.44-9.98,17.58,14.8-1.64,28.34,2.53,38.67,16.92,13.07,18.2,15.58,41.94,29.58,61.44,17.72,24.68,47.82,39.66,77.98,42.97-10.36-4.64-19.73-11.26-27.43-20.01-19.02-7.31-35.72-20.69-47.76-37.47-19.75-27.5-13.81-42.1-30.95-65.98Z"></path> <path class="cls-16" d="m162.53,193.51c14.28,19.89,64.4,8.3,97.14,23.65,2.53,1.19,6.96,2.55,9.52.7,2.06-1.48,2.72-5.17.67-8.03-.59-.82-3.68-3.84-8.14-6.84-.28-.4-.55-.8-.84-1.2-19.25-26.82-59.75-46.93-88.96-25.96-7.91,5.68-13.87,11.45-9.4,17.68Z"></path> <path class="cls-2" d="m306,256.77c-28.56-17.34-59.83-54.79-113.3-35.93,7.27.69,15.32,1.24,24.4,1.36,31.54.45,59.24,16.45,76.69,40.76,1.2,1.67,2.35,3.39,3.45,5.14,17.39.62,34.11,8.3,49.96,28.53-3.88-13.69-5.35-27.79,1.96-41.12-14.85,10.02-23.25,13.35-43.16,1.26Z"></path> <path class="cls-9" d="m218.93,148.26c-.57-.06-16.98-1.73-35.89-1.39-14.52,1.61-25.35,4.62-29.45,7.57-27.14,19.48-71.59,65.65-62.2,95.16.23-.18.45-.36.68-.55,3.84-26.08,17.69-57.93,49.74-80.94,84.8-60.88,154.52,75.35,231.83,64.46,1.44-.84,3.02-1.76,4.7-2.72-.05-.21-.12-.42-.17-.64-7.98-.36-15.05-.28-21.9-1.36-54.25-6.59-57.68-70.6-137.36-79.58Z"></path> <path class="cls-3" d="m218.93,148.26c79.68,8.98,83.11,72.99,137.36,79.58-13.59-2.15-26.32-8.92-43.59-32.97-4.03-5.61-7.87-11.38-11.77-16.8-4.1-5.71-8.24-9.93-12.42-13.19-24.82-13.81-54.36-18.74-79.62-19.17-9.36-.16-18.13.3-25.86,1.16,18.91-.34,35.32,1.33,35.89,1.39Z"></path> <path class="cls-49" d="m141.82,168.1c-32.05,23.01-45.9,54.86-49.74,80.94,8.61-6.98,17.36-13.48,25.54-19.36,2.75-1.97,5.4-3.65,7.99-5.08,2.69-19.45,12.16-39.73,31.92-53.92,52.28-37.54,108.82,22.51,148.85,57.44,16.52,14.41,37.16,15.65,56.99,11.17.95-.75,1.93-1.5,2.97-2.25.94-.67,3.65-2.35,7.32-4.5-77.31,10.89-147.03-125.34-231.83-64.46Z"></path> <path class="cls-13" d="m139.37,301.71c-4.42,3.18-7.66,7.65-8.66,13.36-7.76,44.29-27.25,43.32-13.67,62.23.76,1.06,1.6,2.09,2.48,3.1-.29-.87-.59-1.75-.93-2.64-1.59-4.14-1.21-9.06.57-13.26.08-3.48,1.67-6.66,6.11-9.85,3.29-2.36,6.85-4.69,10.26-7.14,10.74-7.71,20.06-16.6,15.18-31.33.93-.43,1.86-.81,2.81-1.16-2.07-1.67-4.14-3.41-6.2-5.25,38.69,3.86,76.73-21.62,112.67-34.53-25.36,1.12-58.52,15.77-73.11,19.26-17.87,4.27-33.42-2.87-47.49,7.23Z"></path> <path class="cls-8" d="m135.52,347.51c-3.41,2.45-6.97,4.78-10.26,7.14-4.44,3.19-6.02,6.37-6.11,9.85,1.23-2.92,3.13-5.5,5.54-7.23,0,0,33.81-18.31,50.77-27.49-7.31-4-14.64-8.86-21.96-14.76-.94.35-1.88.73-2.81,1.16,4.88,14.73-4.45,23.62-15.18,31.33Z"></path> <path class="cls-42" d="m113.53,294.87c-4.43,1.34-8.48,3.38-12.08,5.97-18.08,12.98-28.59,42.92-8.71,70.62,5.56,7.75,12.65,13.95,20.68,18.8,2.87.19,5.74.27,8.59.24-.52-3.26-1.33-6.63-2.5-10.1-.88-1.01-1.72-2.04-2.48-3.1-13.58-18.91,5.91-17.94,13.67-62.23,1-5.71,4.24-10.18,8.66-13.36,14.06-10.1,29.62-2.96,47.49-7.23,14.6-3.48,47.75-18.14,73.11-19.26,4.64-1.67,9.24-3.12,13.8-4.28-59.96-20.01-65.67-4.7-160.23,23.91Z"></path> <path class="cls-1" d="m50.95,354.53c12.09,16.84,28.46,26.75,43.03,32.79,2.18.53,4.38.99,6.6,1.38-14.74-10.84-24.85-21.9-27.87-26.11-13.91-19.38-9.44-44.07,9.42-61.72,14.95-13.98,1.53-41.81,23.12-57.31,13.36-9.59,33.99-9.41,49.29-7.47,89.94,11.36,105.86,5.77,142.67,32,0,0,.02,0,.03,0-1.1-1.75-2.25-3.46-3.45-5.14-17.45-24.31-45.15-40.3-76.69-40.76-50.28-.69-68.99-14.41-99.48,7.49-8.4,6.03-17.4,12.71-26.22,19.9-11.78,9.6-23.26,20.1-32.61,31.18-16.87,24.88-24.01,51.23-7.83,73.76Z"></path> <path class="cls-40" d="m46.92,358.23c3.67,5.11,8.11,9.58,13.13,13.45,9.66,7.45,21.46,12.62,33.93,15.64-14.57-6.04-30.94-15.95-43.03-32.79-16.18-22.53-9.04-48.88,7.83-73.76-20.44,24.21-30.73,51.18-11.86,77.46Z"></path> <path class="cls-1" d="m179.89,246.16c-29.46,2.1-54.21-5.88-65.01,1.87-8.66,6.22-12.06,17.84-5.14,27.47,16.42,22.88,64.44-24.64,85.13-16.64.45-2.75-.24-5.1-1.61-7.01-2.85-3.98-8.67-6.03-13.38-5.69Z"></path> <path class="cls-31" d="m384.13,337.91c10.54,14.68,16.36,14.96,25.01,27,25.11,34.97,4.99,76.34,33.99,116.72,3.9,5.43,6.96,8.59,12.09,15.74,8.45,11.76,15.67,24.63,24.12,36.4,3.16,4.4,6.5,8.65,10.13,12.63,7.95,3.16,16.03,2.92,24.27-3,9.07-6.51,5.94-24.63,6.53-38.59-.95.57-1.9,1.07-2.86,1.51-17.95,8.24-37.53-5.69-48.23-20.59-18.09-25.19-6.37-87.36-41.48-136.26-7.23-10.07-17.75-19.72-28.37-34.51-5.41-7.53-9.25-14.63-11.73-21.29-7.98-2.8-15.16-5.79-20.95-9.6.24,18.29,5.75,37.49,17.49,53.84Z"></path> <path class="cls-33" d="m455.22,497.37c-5.13-7.15-8.19-10.31-12.09-15.74-29-40.39-8.89-81.76-33.99-116.72-8.65-12.05-14.47-12.32-25.01-27-11.74-16.35-17.25-35.55-17.49-53.84-3.79-2.49-6.98-5.34-9.4-8.71-9.23-12.85-2.97-26.59,10.91-36.56,3.33-2.39,6.97-4.55,10.67-6.55-.13-.81-.28-1.61-.47-2.41-5.99,3.41-10.71,6.28-12.02,7.22-9.27,6.66-15.08,13.7-18.44,20.95-8.97,55.83,85.58,122.15,76.27,208.37,4.68,10.41,4.99,17.74,5.51,26.18,14.5,10.93,29.14,30.87,44.15,43.73,5.17,4.43,10.38,8.01,15.65,10.11-3.63-3.98-6.97-8.23-10.13-12.63-8.45-11.77-15.68-24.64-24.12-36.4Z"></path> <path class="cls-12" d="m347.89,258.01c-5.85,12.59-4.33,25.78-.69,38.62,1.05,1.34,2.1,2.74,3.14,4.19,2.42,3.37,10.61,24.85,19.65,50.25,5.34,5,10.35,10.3,14.55,16.15,14.91,20.76,4.49,18.56,26.33,69.86,3.37,7.91,7.5,17.08,12.61,27.82.24.5.46.99.68,1.48,9.31-86.22-85.23-152.54-76.27-208.37Z"></path> <path class="cls-39" d="m399.33,314.96c10.62,14.79,21.14,24.44,28.37,34.51,35.11,48.9,23.39,111.07,41.48,136.26,10.7,14.91,30.28,28.83,48.23,20.59.96-.44,1.91-.94,2.86-1.51.06-1.53.17-3.01.34-4.42.03-.28.07-.56.11-.83,1.14-8.95,2.78-18.18,3.53-27.28.22-2.58.36-5.16.4-7.71-.6-1.52-1.32-3.01-2.21-4.47-22.43-36.98-36.39-91.76-51.91-113.38-17.91-24.95-45.91-30.63-66.77-47.73-5.62-1.81-11.06-3.52-16.17-5.32,2.49,6.66,6.33,13.76,11.73,21.29Zm89.66,102.42c14.46,20.14,33.28,54.83,13.38,69.12-.23.17-.69.45-1.23.77-7.66-.44-19.92-6.44-25.72-14.51-10.37-14.45-8.69-62.25-5.56-64.5,7.58-5.44,12.93.49,19.13,9.12Z"></path> <path class="cls-3" d="m522.44,460.09c.89,1.47,1.62,2.96,2.21,4.47.18-11.52-1.76-22.61-8.8-32.41-12.25-17.06-18.62-32.73-23.42-46.81-5.75-16.87-9.23-31.47-17.82-43.43-18.21-25.37-46.21-35.01-70.86-42.93,20.86,17.1,48.86,22.78,66.77,47.73,15.52,21.62,29.48,76.39,51.91,113.38Z"></path> <path class="cls-45" d="m475.42,472.75c5.8,8.08,18.05,14.08,25.72,14.51.54-.31.99-.6,1.23-.77,19.9-14.29,1.08-48.98-13.38-69.12-6.2-8.64-11.55-14.56-19.13-9.12-3.13,2.25-4.81,50.05,5.56,64.5Z"></path> <path class="cls-16" d="m398.1,633.24c-66.57,47.8-119.32-77.03-149.91-66.7.49.75,1,1.5,1.54,2.25,3.97,5.53,8.5,10.52,12.75,15.82,3.42,2.01,6.82,4.93,9.79,9.07,5.01,6.97,7.75,19.69,18.56,34.76,29.14,40.59,62.15,21.31,97.05,20.84,9.67-.13,18.5,5.06,33.22-5.51,20.37-14.62,21.42-37.07,27.52-56.1,2.26-12.51,6.71-25.99,18.82-40.49-2.19-.41-5.13-.09-8.27,2.17-8.62,6.19-26.83,59.29-61.08,83.88Zm-104.08-7.75c-6.24-8.69-6.4-11.79-2.38-14.68,10.47-7.51,28.58,23.9,46.73,30.74-.95,1.63-2.2,3-3.63,4.03-9.77,7.01-32.74-8.97-40.72-20.08Z"></path> <path class="cls-36" d="m387.88,649.28c-34.9.46-67.9,19.75-97.05-20.84-10.82-15.07-13.56-27.79-18.56-34.76-2.97-4.14-6.38-7.06-9.79-9.07,1.27,1.59,2.52,3.2,3.72,4.87,7.72,10.75,13.2,27.28,24.93,43.62,10.35,14.42,23.72,25.32,43.1,24.11,70.67-4.44,74.65,1.21,90.12-9.9,8.34-5.99,13.29-12.35,16.4-19.1,5.62-12.21,5.21-25.69,7.89-40.52-6.1,19.03-7.15,41.47-27.52,56.1-14.72,10.57-23.55,5.38-33.22,5.51Z"></path> <path class="cls-2" d="m318.97,608.29c14.24,19.84,38.69,21.47,57.77,13.41-1.7.42-3.44.75-5.2.97-.38.15-.75.31-1.13.46.38-.15.75-.31,1.13-.46-18.6,2.34-40.76-7.16-67.74-44.74-1.88-2.63-2.19-7.36-3.87-9.7-.09-.13-30.32-2.86-46.64-19.64,14.54,19.63,41.38,24.31,54.67,42.82,3.9,5.43,7.1,11.44,11.01,16.88Z"></path> <path class="cls-49" d="m291.63,610.8c-4.02,2.89-3.86,5.99,2.38,14.68,7.98,11.11,30.96,27.1,40.72,20.08,1.43-1.03,2.67-2.4,3.63-4.03-18.16-6.84-36.27-38.25-46.73-30.74Z"></path> <path class="cls-45" d="m349.14,584.21c2.33,3.24,5.09,6.36,7.23,9.33,2.65,3.69,27.71,8.51,40.98-1.01,3.25-2.34,4.59-4.16,5.03-5.82,5.42-6.48,7.77-16.99,2.62-24.15-6.82-9.5-22.39,3.37-32.53,2.15-8.08-.97-17.91-4.39-23.73-.22-4.68,3.36-6.58,10,.4,19.71Z"></path> <path class="cls-8" d="m391.18,431.79c-5.53-3.21-10.54-7.65-15.07-12.65.36,13.93-3.84,27.82-12.13,53.97,11.71-14.6,15.81-34.95,18.91-37.18,2.28-1.64,5.73-2.33,8.29-4.14Z"></path> <path class="cls-42" d="m243.88,531.83c.93,4.04,2.7,8.17,5.7,12.35,9.96,13.87,29.09,19.88,40.69,22.38,5.73,1.24,9.64,1.62,9.67,1.67,1.68,2.34,1.98,7.07,3.87,9.7,10.29,14.34,19.88,24.58,28.84,31.64,2.95,1.38,6.02,2.61,9.2,3.63-10.39-9.31-19.54-20.14-27.8-31.64-13.85-19.29-30.83-39.9-5.1-58.37,17.79-12.77,31,8.64,55.32-8.82,16.14-11.59,17.38-28.52,21.91-31.77,5.28-3.79,14.66.52,18.66,6.1,7.3,10.17,12.9,22.84,20.43,33.33,3.73,5.19,7.93,9.84,13.04,13.39-.54-4.47-1.54-8.97-3.09-13.48-4.43-12.92-5.09-21.63-5.57-29.39-.54-8.83-.85-16.45-6.19-27.66-1.27-2.66-2.47-5.21-3.62-7.68-8.68-4.08-22.08-15.58-31.7-8.67-10.23,7.35-13.4,46.77-32.35,60.38-19,13.64-42.96-5.22-61.58,5.48-15.02,8.64-32.88,16.32-50.35,17.42Z"></path> <path class="cls-2" d="m404.85,488.71c-4-5.58-13.38-9.9-18.66-6.1-4.52,3.25-5.76,20.18-21.91,31.77-24.32,17.46-37.54-3.95-55.32,8.82-25.73,18.47-8.75,39.08,5.1,58.37,8.25,11.5,17.41,22.33,27.8,31.64,8.17,2.63,17.06,3.93,26.42,2.99-9.66-4.82-18.4-12.97-27.36-25.46-5.38-7.5-20.46-33.34-12.98-38.71,13.91-9.99,33.52,7.43,52.95-6.52,1.91-1.37,2.35-1.96,3.62-2.87,7.11-5.11,23.23,1.25,28.87,9.12,3.79,5.29,9.08,16.3,11.09,27.46,6.2-9.22,10.94-19.54,14.07-30.43.38-4.39.32-8.85-.22-13.35-5.11-3.56-9.32-8.2-13.04-13.39-7.53-10.49-13.14-23.16-20.43-33.33Z"></path> <path class="cls-13" d="m397.68,434.88c-2.24-.83-4.41-1.88-6.5-3.09-2.56,1.8-6.01,2.5-8.29,4.14-3.1,2.23-7.2,22.58-18.91,37.18-.65,2.04-1.32,4.14-2.01,6.33,1.2,11.37-.35,20.57-7.23,25.51-1.33.95-2.84,1.75-4.11,2.66-8.16,5.86-36.44-10.74-51.74.24-.05.04-.68.5-1.17.85-15.61,11.2-34.77,18.32-54.33,20.66.12.82.29,1.65.48,2.48,17.47-1.11,35.33-8.79,50.35-17.42,18.61-10.7,42.58,8.16,61.58-5.48,18.95-13.61,22.12-53.03,32.35-60.38,9.62-6.9,23.01,4.59,31.7,8.67-3.49-7.51-6.46-14.18-9-20.14-21.85-51.3-11.43-49.1-26.33-69.86-4.2-5.85-9.21-11.15-14.55-16.15,10.83,30.43,22.88,66.5,27.7,83.81Z"></path> <path class="cls-45" d="m341.85,613.2c-3.18-1.03-6.26-2.25-9.2-3.63,5.91,4.66,11.54,7.93,16.92,10.08,11.49,4.59,21.82,4.04,31.18.87,7.26-2.46,13.95-6.5,20.14-10.95,9.5-6.82,17.86-15.24,24.3-24.71,7.41-10.9,12.25-23.2,13.36-36.08-3.13,10.88-7.87,21.21-14.07,30.43-6.17,9.16-13.78,17.22-22.7,23.63-11.52,8.27-22.82,12.27-33.5,13.35-9.36.95-18.26-.35-26.42-2.99Z"></path> <path class="cls-41" d="m160.94,367.08c-4.09-5.69-9.63-5.04-17.23-6.92-2.98-.74-4.35-3.31-6.2-5.52-2.81,2.58-5.59,5.28-8.26,8.22-15.07,16.58.83,24.35-3.07,79.29-.19,2.73.68,5.22,2.24,7.38.59.83,1.28,1.6,2.05,2.33.33-.35.71-.69,1.15-1.01,0,0,2.77-1.34,7.13-3.46.5-.94,1.04-1.86,1.59-2.78-.05-.07-.11-.13-.16-.2-15.44-21.5,40.99-49.15,20.74-77.35Zm-26.57,42.35c-.5-.69-4.58-35.33,2.35-40.3,4.71-3.38,9.13.33,12.5,5.03,5.31,7.4,6.42,14.34,2.15,20.79-1.2,5.97-3.96,11.72-8.52,14.99-3.3,2.37-5.97,3-8.49-.5Z"></path> <path class="cls-27" d="m134.37,409.43c2.52,3.51,5.19,2.87,8.49.5,4.56-3.27,7.32-9.02,8.52-14.99,4.27-6.44,3.16-13.39-2.15-20.79-3.38-4.7-7.8-8.41-12.5-5.03-6.93,4.97-2.85,39.61-2.35,40.3Z"></path> <path class="cls-43" d="m118.58,377.76c1.69,4.42,2.78,8.66,3.43,12.74,4.57,28.88-13.28,49.56-.2,67.78,3.21,4.47,7.73,8.09,13.09,9.9-3.3-4.51-8.77-11.67-4.41-16.32-.77-.73-1.46-1.51-2.05-2.33-1.56-2.17-2.43-4.65-2.24-7.38,3.89-54.94-12-62.72,3.07-79.29,2.67-2.94,5.44-5.64,8.26-8.22,3.4-3.12,6.86-6.07,10.3-9.04.88-.76,1.75-1.51,2.62-2.27-1.15.62-2.29,1.24-3.42,1.85-12.06,6.53-22.33,12.09-22.33,12.09-5.88,4.22-8.79,13.47-6.11,20.49Z"></path> <path class="cls-35" d="m193.53,359.34c-7.31-10.18-33.76-7.78-45.7-13.74-3.44,2.96-6.9,5.91-10.3,9.04,1.84,2.21,3.22,4.78,6.2,5.52,7.6,1.88,13.14,1.23,17.23,6.92,20.25,28.2-36.18,55.85-20.74,77.35.05.07.11.13.16.2,1.43-2.36,3.03-4.61,4.77-6.76,1.9-32.38,69.38-49.28,48.39-78.52Z"></path> <path class="cls-44" d="m147.82,345.6c11.94,5.96,38.39,3.56,45.7,13.74,20.99,29.24-46.49,46.14-48.39,78.52,5.03-6.22,11.18-11.57,17.44-16.07,12.53-9,24.5-20.02,35.42-31.07,6.18-16.14,24.09-29.79,15.87-41.24-4.16-5.79-26.69-6.08-40.41-18.62-6.53,3.54-14.98,8.11-23,12.46-.87.76-1.75,1.52-2.62,2.27Z"></path> <path class="cls-32" d="m197.99,390.73c15.8-15.99,29.41-32.05,39.36-42.18-20.24-2.81-41-7.35-61.89-18.77-.65.35-1.32.72-2.01,1.09,13.72,12.54,36.25,12.83,40.41,18.62,8.22,11.45-9.69,25.1-15.87,41.24Z"></path> <path class="cls-3" d="m262.29,347.81c-17.26-.65-34.57-2.79-51.73-4.36,9.01,2.32,17.95,3.87,26.79,5.1,14.62,2.03,28.97,3.15,42.9,5.31,22.01,3.41,42.96,9.41,62.25,25.66,7.25,6.1,14.27,13.65,21.02,23.06,1.75,2.43,2.26,3.34,4.44,6.38,2.52,3.51,5.24,6.97,8.15,10.19,6.23,6.9,13.39,12.72,21.57,15.74-.8-2.86-1.79-6.24-2.94-10.02-22.47-10.04-53.63-74.11-132.45-77.05Z"></path> <path class="cls-45" d="m269.36,315.71c-3.37,2.42-15.19,12.15-12.78,15.52,6.99,9.74,25.76,4.24,37.22,6.29,20.92,3.73,39.44,27.31,50.28,19.54,1.27-.91,2.02-1.98,2.43-3.05-2.79-5.67-5.97-11.13-9.58-16.16-21.82-30.39-52.79-32.74-67.56-22.13Z"></path> <path class="cls-48" d="m356.51,320.02c1.6,2.23,3.14,4.49,4.64,6.79-5.16-13.78-9.23-23.78-10.81-25.99-1.04-1.45-2.09-2.85-3.14-4.19-1.16-1.48-2.32-2.88-3.48-4.22-2.29-2.64-4.6-5.04-6.93-7.2-1.64-1.52-3.28-2.92-4.94-4.22-38.93-20.83-68.2-2.74-99.01,5.54-5.71,2.56-11.45,5.18-17.24,7.69,65.66-11.2,90.72-44.1,140.91,25.8Z"></path> <path class="cls-8" d="m331.85,280.99c-11.18-8.75-22.74-12.47-34.61-12.89-20.62-.74-42.19,8.46-64.4,18.43,30.81-8.28,60.08-26.37,99.01-5.54Z"></path> <path class="cls-42" d="m215.6,294.22c-22.33,9.7-45.2,17.85-68.3,15.55,9.39,8.37,18.79,14.89,28.16,20.01,5.48,2.99,10.94,5.51,16.39,7.65,5.77-1.02,11.19-3.03,16.01-6.49.33-.24,5.4-4.33,9.25-7.1,35.64-25.59,92.38-43.3,119.41-5.65,6.41,8.93,17.3,32.84,30.09,50.65,4.67,6.5,9.83,12.6,15.78,18.03-4-11.85-8.3-24.23-12.41-35.8-3.11-8.75-6.13-17.03-8.84-24.27-1.5-2.3-3.04-4.56-4.64-6.79-50.19-69.9-75.25-37-140.91-25.8Z"></path> <path class="cls-29" d="m199.34,486.24c-2.06-2.87-7.37-4.22-9.57-7.29-3.1-4.32,1.09-17.02-4.35-24.6-3.72-5.19-12.06-7.88-18.76-3.07-2.38,1.71-13.21,13.7-6.66,22.82,5.67,7.89,32.75,20.53,38.92,16.1.27-.19.53-.38.78-.57.46-1.08.46-2.25-.35-3.39Z"></path> <path class="cls-3" d="m129.41,458.99c1.1,3.29,3.63,6.66,5.49,9.2.21.29.42.57.61.83,4.62,6.44,9.62,11.85,14.93,16.34,9.45,7.99,19.88,12.97,30.92,15.43-4.47-3.6-7.57-1.75-13.99-7.02-.68-.56-26.97-23.36-28.52-25.53-3.26-4.54-4.44-11.03-1.83-18.12,1.28-1.32,2.55-2.56,3.77-3.69-.7.34-1.37.66-2,.97-.26.13-.52.25-.77.38-3.91,1.9-6.36,3.08-6.36,3.08-3.03,2.18-3.24,5.12-2.23,8.13Z"></path> <path class="cls-24" d="m208.62,431.17c9.91,13.81-3.55,23.62,7.95,39.63,5.9,8.22,15.13,13.57,25.18,13.37-6.36-.94-12.31-3.21-17.15-7.26-1.82-1.52-3.48-3.28-4.95-5.33-6.12-8.53-6.2-14.72-1.48-20.4-1.83-14.99,9.98-32,6.82-36.4-1.13-1.58-3.27-2.27-5.89-2.37-.37.28-.74.56-1.11.82-7.63,5.48-16.02,3.77-23.9,7.34,0,0-8.99,4.36-20.14,9.76,14.74-4.78,29.23-6.72,34.66.84Z"></path> <path class="cls-34" d="m197.03,446.53c8.64,12.03,9.19,31.58,9.43,31.92,1.61,2.25,4.76,4.19,6.54,6.67,2.88,4.02.5,9.22-3.42,12.04-4.5,3.23-11.37,4.31-17.22,5.24,22.08,1.63,45.97-5.75,69-18.89-6.49,1.22-13.25,1.59-19.6.65-10.05.2-19.28-5.15-25.18-13.37-11.5-16.02,1.96-25.83-7.95-39.63-5.43-7.56-19.92-5.62-34.66-.84-1.92.93-3.9,1.89-5.92,2.87,10.84-.91,21.59,3.04,28.98,13.33Z"></path> <path class="cls-13" d="m448.7,522.38c3.17-2.28,8.75,1.93,13.67,5.49,1.65.83,3.32,1.74,5.03,2.5-12.78-12.47-25.3-28.44-37.72-37.8.48,7.76,1.14,16.46,5.57,29.39,8.66,25.3.78,50.49-15.36,69.96,3.84-3.64,7.52-7.49,11.01-11.56,15.25-17.79,11.46-53.42,17.8-57.98Z"></path> <path class="cls-10" d="m248.19,566.54c30.59-10.34,83.34,114.49,149.91,66.7,34.25-24.59,52.47-77.69,61.08-83.88,3.14-2.25,6.08-2.57,8.27-2.17.48-.58.98-1.16,1.48-1.74,2.57-2.94,4.08-6.01,4.89-9.16-2.15-1.84-4.29-3.84-6.43-5.93-1.71-.76-3.38-1.68-5.03-2.5-4.92-3.56-10.5-7.76-13.67-5.49-6.34,4.56-2.55,40.19-17.8,57.98-3.49,4.07-7.17,7.91-11.01,11.56-5.49,6.62-11.92,12.58-18.99,17.66-7.32,5.25-15.31,9.94-24.14,12.13-19.08,8.07-43.53,6.43-57.77-13.41-3.91-5.44-7.11-11.46-11.01-16.88-13.29-18.51-40.14-23.19-54.67-42.82-1.34-1.37-2.59-2.83-3.72-4.4-3.62-5.04-5.47-10.01-6.17-14.83-.85.1-1.7.19-2.55.28-2.75,11.61-.91,24.32,7.34,36.91Z"></path> <path class="cls-11" d="m163.8,505.02c33.91,33.53,85.21,25.84,131.47,3.06,6.71-3.31,19.03-6.9,24.65-3.58,9.81,1.29,19.73,4.61,26.09,4.38,1.15-.6,2.26-1.26,3.29-2,11.85-8.51,10.43-23.07,1.85-35.01-5.9-8.22-12.45-22.94-51.25,4.92-6.94,4.98-13.64,10.46-20.62,15.48-46.63,33.48-96.08,7.73-115.47,12.77Zm178.45-33.12c6.53,9.09,6.49,15.23,3.79,19.19-7.1,2.97-20.71-5.18-35.34-.88-3.94,1.16-17.37,9.54-20.4,5.32-.58-.81,1.83-2.97,2.77-3.65,40.33-28.96,41.46-30.74,49.19-19.98Z"></path> <path class="cls-27" d="m342.25,471.9c-7.72-10.76-8.86-8.98-49.19,19.98-.93.67-3.35,2.83-2.77,3.65,3.03,4.22,16.46-4.16,20.4-5.32,14.63-4.3,28.24,3.86,35.34.88,2.7-3.96,2.74-10.09-3.79-19.19Z"></path> <path class="cls-46" d="m155.54,495.79c2.42,3.37,5.07,6.47,7.9,9.33,13.53,13.61,31.43,21.39,50.56,24.04,8.8,1.22,17.85,1.35,26.85.47.85-.08,1.7-.18,2.55-.28,19.55-2.34,38.72-9.46,54.33-20.66.48-.35,1.12-.81,1.17-.85,5.76-4.13,13.35-4.36,21.02-3.35-5.62-3.32-17.93.28-24.65,3.58-46.26,22.78-97.56,30.47-131.47-3.06-3.4-3.36-6.63-7.14-9.66-11.36,0,0,0,0,0,0,.44.72.9,1.44,1.41,2.14Z"></path> <path class="cls-14" d="m336.29,431.04c3.16-2.27,8.89-4.73,11.24-1.46,1.07,1.49,2.03,3.72,3.38,5.61.01.02.03.04.04.05-2.1-6.89-4.16-13.75-5.86-20.3-5.41,7.19-10.63,14.56-16.43,21.34-4.5,5.26-9.36,10.15-14.92,14.32,2.2-.97,4.28-2.12,6.18-3.49,6.3-4.52,10.56-11.9,16.37-16.07Z"></path> <path class="cls-5" d="m150.43,485.36c.87,2.82,2.08,5.63,3.7,8.3,0,0,0,0,0,0,3.03,4.22,6.26,7.99,9.66,11.36,19.4-5.04,68.84,20.71,115.47-12.77,6.99-5.02,13.68-10.49,20.62-15.48,38.8-27.86,45.35-13.14,51.25-4.92,8.58,11.95,10,26.51-1.85,35.01-1.03.74-2.13,1.4-3.29,2,1.88-.07,3.46-.44,4.63-1.27,1.26-.91,2.78-1.7,4.11-2.66,6.88-4.94,8.43-14.13,7.23-25.51-.76-7.19-2.62-15.25-4.94-23.66-3.25-5.83-6.2-11.71-8.61-15.07-3-4.18-8.12-2.27-11.69.29-.06.04-7.42,6.55-14.35,11.53-16.7,11.99-34.33,21.15-52.53,25.85-2.82,1.79-5.65,3.52-8.5,5.14-38.79,22.13-80.06,27.92-110.93,1.84Z"></path> <path class="cls-4" d="m336.74,441c3.57-2.56,8.68-4.47,11.69-.29,2.41,3.36,5.36,9.24,8.61,15.07-1.85-6.71-3.98-13.64-6.09-20.54-.01-.02-.03-.04-.04-.05-1.35-1.88-2.31-4.12-3.38-5.61-2.35-3.27-8.07-.81-11.24,1.46-5.81,4.17-10.08,11.55-16.37,16.07-1.9,1.37-3.98,2.52-6.18,3.49-.38.28-.75.57-1.13.85-.41.3-.82.58-1.23.84-6.19,4-12.13,4.71-17.52,8.58-.02.01-7.16,5.85-13.85,10.66-3.35,2.4-6.73,4.68-10.14,6.86,18.2-4.7,35.84-13.86,52.53-25.85,6.93-4.97,14.29-11.48,14.35-11.53Z"></path> <path class="cls-38" d="m208.04,393.48c-5.42,3.89-10.27,8.68-6.71,13.64,1.52,2.12,5.98.16,9.57-1.97,5.61-1.54,11.1-4.43,16.18-8.08,24.79-17.8,25.96-33.75,7.01-20.14-3.1,2.23-6.07,4.88-9.15,7.09-4.1,2.94-8.85,4.05-8.96,4.13-2.01,1.45-5.05,3.26-7.93,5.33Z"></path> <path class="cls-37" d="m237.35,348.54c-12.41,12.63-30.51,34.48-51.45,53.92,20.82-16.25,26.64-27.15,41.3-37.67,18.33-13.16,29.08-8.62,48.93-8.32,1.36-.92,2.73-1.81,4.12-2.62-13.93-2.16-28.28-3.28-42.9-5.31Z"></path> <path class="cls-3" d="m155.06,434.51c-3.5,2.04-7.23,3.63-11.1,4.85-1.94,2.54-3.7,5.22-5.19,8.04,16.38-7.94,55.33-26.83,55.33-26.83,7.88-3.57,16.27-1.86,23.9-7.34,7.2-5.17,15.15-14,23.65-23.5,3.92-4.38,7.95-8.9,12.08-13.28-15.51,11.86-19.67,21.67-30.44,29.4-11.77,8.45-27.09,4.73-68.23,28.65Z"></path> <path class="cls-22" d="m185.9,402.47c-7.46,6.93-15.28,13.55-23.34,19.33-3.22,2.31-6.4,4.85-9.42,7.61,7.44-3.02,14.38-7.15,21.01-11.9,17.45-12.53,33.91-30.44,46.71-39.64,13.88-9.97,30.3-16.43,47.13-15.19,2.08-1.77,4.18-3.43,6.29-4.95.61-.44,1.22-.84,1.83-1.26-19.85-.31-30.6-4.84-48.93,8.32-14.66,10.53-20.48,21.42-41.3,37.67Z"></path> <path class="cls-43" d="m342.07,380.92c-.31,1.14-.55,2.34-.72,3.6-1.11,8.23.74,18.85,3.73,30.43,5.52,21.32,14.91,45.84,16.89,64.49.68-2.16,1.34-4.23,1.98-6.23.04-.11.07-.23.11-.34-.03-.31-.05-.63-.08-.95,0-.96-.03-1.94-.1-2.92-1.66-22.65-22.87-50.62-18.6-81.9.1-.72.21-1.45.34-2.18.13-.75.28-1.5.44-2.26-1.18-1.09-2.37-2.15-3.56-3.15-.16.46-.3.93-.43,1.41Z"></path> <path class="cls-30" d="m357.8,401.09c-4.88-6.8-9-11.22-12.51-13.99-4.28,31.28,16.93,59.25,18.6,81.9.03-19.64,12.25-42.37-6.09-67.91Z"></path> <path class="cls-50" d="m345.63,384.92c7.06,7.76,15.21,15.92,21.45,24.61,3.97,5.53,7.16,11.27,8.79,17.25.23-2.6.32-5.12.25-7.65-2.92-3.23-5.63-6.68-8.15-10.19-2.18-3.04-2.69-3.94-4.44-6.38-5.64-7.86-11.47-14.4-17.46-19.9-.16.75-.31,1.51-.44,2.26Z"></path> <path class="cls-20" d="m345.63,384.92c-.13.73-.24,1.45-.34,2.18,3.51,2.77,7.62,7.19,12.51,13.99,18.34,25.54,6.12,48.27,6.09,67.91.07.98.1,1.96.1,2.92.02.32.05.63.08.95,6.75-21.26,10.76-34.4,11.81-46.08-1.63-5.98-4.82-11.73-8.79-17.25-6.24-8.69-14.39-16.85-21.45-24.61Z"></path> <path class="cls-7" d="m273.18,364.35c-7.36,4.84-14.62,9.94-22,14.84-3.24,3.51-6.42,7.07-9.53,10.54-1.36,2.62-2.61,5.32-3.79,8.06,5.51-5.51,11.55-10.75,18.11-15.46,33.05-23.73,64.9-10.14,85.34,2.46.24-1.89.63-3.66,1.19-5.28-4.07-3.43-8.22-6.38-12.44-8.96-16.61-4.71-35.38-20.33-56.89-6.2Z"></path> <path class="cls-23" d="m273.18,364.35c21.5-14.13,40.28,1.49,56.89,6.2-15.75-9.68-32.45-14-49.82-16.7-2.02,1.18-4.01,2.48-5.96,3.88-7.97,5.72-15.71,13.45-23.11,21.46,7.39-4.9,14.64-10,22-14.84Z"></path> <path class="cls-3" d="m224.67,440.48c-.53,2.06-1.05,4.11-1.58,6.15.36-.28.73-.55,1.12-.83,28.78-20.66,68.65,13.49,104.45-9.52,5.8-6.78,11.03-14.15,16.43-21.34-.01-.04-.02-.09-.03-.13-.13-.49-.25-.98-.37-1.46-.24.35-.48.7-.72,1.05-5.01,7.23-10.38,14.1-17.22,19.02-36.22,26.01-64.3-6.14-101.47,6.74-.19.07-.38.13-.56.19-.01.04-.02.09-.03.13Z"></path> <path class="cls-25" d="m326.74,433.41c6.85-4.92,12.21-11.78,17.22-19.02-22.19-8.8-43.61-36.39-74.56-14.17-10.28,7.38-12.76,18.37-33.35,33.15-3.46,2.49-7.06,4.75-10.78,6.78,37.17-12.89,65.24,19.26,101.47-6.74Zm-57.54-22.81c27.16-19.5,47.14-9.34,51.85-2.78,4.64,6.46,1.4,12.85-5.08,17.51-4.06,2.92-9.29,5.11-14.25,6.18-.72.71-1.48,1.36-2.26,1.92-10.65,7.65-33.77,2.43-36.41-1.25-3.46-4.82-2.03-15.69,6.16-21.56Z"></path> <path class="cls-18" d="m263.04,432.16c2.64,3.68,25.76,8.9,36.41,1.25.78-.56,1.54-1.21,2.26-1.92,4.96-1.07,10.19-3.26,14.25-6.18,6.49-4.66,9.72-11.05,5.08-17.51-4.71-6.56-24.69-16.72-51.85,2.78-8.19,5.88-9.61,16.75-6.16,21.56Z"></path> <path class="cls-3" d="m219.66,471.59c1.47,2.05,3.13,3.81,4.95,5.33,9.68,8.09,23.77,9.05,36.75,6.61,3.7-2.11,7.37-4.38,11.01-6.78-18.83,5.69-40.79,5.96-49.4-6.03-3.56-4.95-3.95-14.43-.29-23.77-8.87,6.92-10.7,13.95-3.02,24.64Z"></path> <path class="cls-28" d="m278.76,449.17c5.62,7.83,19.03,7.26,31.58,3.76.34-.2.69-.41,1.04-.64.41-.27.82-.54,1.23-.84,6.04-4.34,11.24-9.55,16.05-15.17-14.89,9.57-30.49,9.25-45.7,7.1-2.19,1.67-5.24,4.34-4.2,5.79Z"></path> <path class="cls-21" d="m222.97,470.72c8.61,11.99,30.57,11.72,49.4,6.03,2.56-1.68,5.1-3.41,7.62-5.22,6.7-4.81,13.84-10.64,13.85-10.66.56-.4,1.13-.76,1.7-1.1-14.55,3.89-29.81,4.77-38.11-6.78-1.71-2.38-.86-6.9,2.38-9.22,1.65-1.19,3.66-2.25,5.92-3.2-15.07-2.42-29.31-3.54-41.53,5.24-.38.28-.75.55-1.12.83-.14.11-.27.21-.41.32-3.65,9.34-3.26,18.82.29,23.77Z"></path> <path class="cls-15" d="m257.44,452.98c8.29,11.55,23.56,10.67,38.11,6.78,4.62-2.76,9.61-3.77,14.78-6.84-12.54,3.5-25.95,4.07-31.58-3.76-1.04-1.45,2.01-4.12,4.2-5.79-5.82-.82-11.57-1.91-17.22-2.82-2.25.95-4.26,2.01-5.92,3.2-3.24,2.33-4.09,6.84-2.38,9.22Z"></path> <path class="cls-16" d="m366.43,276.59c7.99,11.14,22.95,17.07,37.15,18.53-10.9-6.22-21.2-12.96-26.24-19.98-12.33-17.17-8.5-33.08-2.78-40.47-2.21,1.3-4.37,2.67-6.4,4.13-.36.26-.71.52-1.06.79-5.7,12.38-7.85,27.01-.66,37.01Z"></path> <path class="cls-10" d="m357.24,275.36c10.98,15.3,37.72,19.72,64.67,29.82-5.74-3.16-12.14-6.53-18.34-10.06-14.2-1.45-29.16-7.39-37.15-18.53-7.18-10-5.03-24.63.66-37.01-13.13,9.9-18.84,23.25-9.85,35.77Z"></path> </g> </g> </svg> 