<?xml version="1.0" encoding="UTF-8"?> <svg xmlns="http://www.w3.org/2000/svg" id="Layer_2" data-name="Layer 2" viewBox="0 0 300.63 783.33"> <defs> <style> .cls-1 { fill: #9e9798; } .cls-2 { fill: #8a9ca9; } .cls-3 { fill: #dce2eb; } .cls-4 { fill: #81909b; } .cls-5 { fill: #abb8c4; } .cls-6 { fill: #92929e; } .cls-7 { fill: #b8bec8; } .cls-8 { fill: #9797a3; } .cls-9 { fill: #aaacb6; } .cls-10 { fill: #b6bfca; } .cls-11 { fill: #d2d3d7; } .cls-12 { fill: #7f828c; } .cls-13 { fill: #b2b5c0; } .cls-14 { fill: #d2d3da; } .cls-15 { fill: #d8d6da; } .cls-16 { fill: #9faebb; } .cls-17 { fill: #7a838e; } .cls-18 { fill: #9fa1ad; } .cls-19 { opacity: .61; } .cls-20 { fill: #c6cad2; } .cls-21 { fill: #bec3cc; } </style> </defs> <g id="clipping_mask" data-name="clipping mask"> <g class="cls-19"> <g> <path class="cls-1" d="m262.27,55.3c.24.1,1.28-1.98,1.28-1.98,0,0,.66-2.22.41-2.31-.24-.1-.81.79-1.28,1.98-.47,1.19-.66,2.22-.41,2.31Z"></path> <path class="cls-1" d="m115.03,314.75c1.56-.72,3.88-1.76,6.89-2.97,3.03-1.22,6.77-2.6,11.13-4.17,4.35-1.59,9.36-3.33,14.76-5.66,10.82-4.57,23.24-11.37,35.56-20.99,12.31-9.6,24.44-22.1,34.43-37.17,6.3-9.48,11.37-19.34,15.27-29.1.16.14.35.24.54.28.06.02.13.02.19.02,0,.05,0,.11.08.17.07.07.18.1.31.11-.58,4.27-1.22,8.59-1.9,12.94-1.77,11.39-3.88,23.04-6.07,34.94-2.24,11.9-4.41,24.08-7.04,36.31-2.62,12.23-5.79,24.54-10.17,36.58-4.39,12.04-10.04,23.83-16.43,35.44-.77,1.41-1.56,2.81-2.35,4.2-4.08,5.53-9.1,11.35-15.21,16.89-4.19,3.8-8.88,7.38-14.19,10.44-5.3,3.11-11.21,5.91-17.03,9.35-11.67,6.74-22.03,14.42-30.76,22.12-8.79,7.67-15.89,15.41-21.49,22.18-5.59,6.78-9.66,12.61-12.34,16.7-1.36,2.03-2.32,3.68-3.01,4.76-.59.96-.94,1.52-1.01,1.65.09-.12.5-.65,1.17-1.54.8-1.01,1.9-2.55,3.44-4.46,3.01-3.83,7.52-9.27,13.47-15.59,5.97-6.31,13.38-13.54,22.28-20.73,8.86-7.25,19.15-14.51,30.56-21.11,5.65-3.35,11.5-6.15,17.01-9.45,5.55-3.28,10.5-7.17,14.77-11.21.34-.32.67-.64,1-.97-2.18,3.52-4.37,7.03-6.57,10.5-6.94,10.98-13.87,21.73-20.71,32.32-13.64,21.16-26.78,41.64-38.58,61.62-2.98,4.98-5.81,9.96-8.63,14.86-2.74,4.94-5.49,9.8-8.05,14.66-2.64,4.82-5.07,9.68-7.52,14.42-2.33,4.8-4.71,9.48-6.85,14.19-4.41,9.34-8.24,18.56-11.77,27.48-1.68,4.49-3.41,8.86-4.87,13.22-.75,2.17-1.49,4.32-2.22,6.45-.68,2.14-1.35,4.26-2.01,6.36-5.24,16.78-8.79,32.31-10.97,46.08-2.21,13.78-3.05,25.78-3.37,35.57-.04,2.45-.08,4.77-.11,6.94,0,.55-.02,1.08-.02,1.6.01.52.03,1.04.05,1.55.03,1.01.05,1.99.08,2.93.1,3.77.16,6.96.41,9.53.31,4.18.5,6.75.57,7.56-.03-.82-.14-3.39-.32-7.57-.16-2.57-.13-5.76-.12-9.52,0-.94,0-1.92,0-2.93,0-.51,0-1.02,0-1.55.02-.52.05-1.06.07-1.59.1-2.16.21-4.47.31-6.9.6-9.75,1.76-21.66,4.29-35.3,2.52-13.63,6.4-28.96,11.95-45.49.69-2.07,1.4-4.16,2.12-6.26.77-2.1,1.55-4.22,2.34-6.36,1.53-4.29,3.34-8.6,5.09-13.01,3.66-8.79,7.63-17.86,12.17-27.05,2.19-4.63,4.63-9.24,7.02-13.97,2.51-4.67,4.99-9.44,7.68-14.19,2.62-4.8,5.41-9.59,8.2-14.47,2.86-4.84,5.74-9.75,8.77-14.67,7.57-12.49,15.68-25.2,24.11-38.2.04.03.09.05.14.07.72.29,1.76-.54,2.48-1.92.04.03.08.05.11.06-1.13,3.24-2.14,6.66-2.94,10.27-1.42,6.12-2.03,12.69-2.45,19.4-.4,6.72-.69,13.65-1.04,20.75-.66,14.19-1.45,27.68-2.99,39.84-.74,6.08-1.73,11.78-3.57,16.81-1.81,5.02-4.57,9.29-7.2,13.09-5.4,7.59-9.77,13.75-12.79,17.99-2.82,4-4.45,6.32-4.64,6.59.23-.29,2-2.5,5.05-6.28,3.25-4.08,7.97-9.96,13.71-17.33,2.82-3.73,5.87-8,7.98-13.25,2.11-5.23,3.31-11.12,4.22-17.24,1.87-12.25,2.85-25.85,3.52-40.06.33-7.11.66-14.04.97-20.73.36-6.65.91-13.04,2.19-18.94,2.49-11.88,7.18-21.95,11.47-30.13.9-1.7,1.78-3.31,2.64-4.85,1.97-3.01,3.96-6.05,5.94-9.09.11.3.3.52.55.62.19.09.42.09.66.03-.78,3.93-1.19,7.75-1.37,11.33-.28,5.51-.1,10.45.17,14.58.27,4.13.62,7.45.88,9.75.25,2.12.4,3.36.42,3.54.01-.3.14-5.34.34-13.31.15-4.11.37-8.99.95-14.34.58-5.35,1.57-11.17,3.37-17.02.24-.73.47-1.46.7-2.17.27-.71.53-1.4.79-2.11.51-1.4,1.12-2.73,1.72-4.06.73-1.58,1.5-3.11,2.27-4.61.53-.82,1.06-1.64,1.58-2.47,6.99-10.98,14-22.23,20.49-34.03,6.49-11.79,12.28-23.87,16.78-36.28,4.49-12.42,7.69-25,10.31-37.38,2.63-12.4,4.75-24.59,6.93-36.51,2.15-11.93,4.19-23.64,5.9-35.13,1.73-11.48,3.1-22.75,4.07-33.72.1-1.19.19-2.36.28-3.53.03.03.05.07.08.1l.29.34.8-.71c.62,3.87,1.27,7.92,1.87,12.15,1.4,10.16,2.16,21.43,1.94,33.26-.21,11.83-1.3,23.08-2.93,33.22-1.63,10.15-3.81,19.17-5.96,26.67-.27.94-.52,1.85-.78,2.75-.28.89-.55,1.74-.82,2.58-.53,1.68-1.04,3.26-1.5,4.74-1.05,2.92-1.9,5.46-2.67,7.52-1.58,4.09-2.45,6.35-2.45,6.35,0,0,1.11-2.16,3.12-6.07.97-1.98,2.06-4.43,3.37-7.27.6-1.45,1.24-2.99,1.91-4.64.33-.82.68-1.66,1.04-2.53.32-.89.64-1.79.98-2.72,2.74-7.39,5.52-16.42,7.6-26.68,2.1-10.25,3.5-21.73,3.72-33.83.22-12.1-.69-23.63-2.35-33.98-.83-5.17-1.81-10.01-2.68-14.52-.88-4.52-1.64-8.71-2.21-12.54-.25-1.59-.45-3.12-.62-4.59.55-5.2.8-10.12.85-14.7.05-1.47-.03-2.91-.03-4.31-.04-1.4-.03-2.77-.14-4.07-.16-2.63-.31-5.11-.46-7.43-.28-4.64-.62-8.63-.77-11.87-.02-.48-.05-.94-.07-1.37.01-1.47.04-2.92.07-4.36v-.02c.62-3.99,1.47-9.44,2.61-16,1.27-7.2,2.94-15.75,5.16-25.17,2.28-9.39,4.85-19.74,8.7-30.1,3.86-10.34,9.15-19.6,13.48-28.32,2.18-4.35,4.13-8.6,5.73-12.64.41-1.01.76-2.03,1.13-3.01.42-1.07.62-2.29.46-3.49-.04-.32-.11-.59-.24-.97-.04-.1-.09-.21-.15-.31-.14-.51-.67-1.16-1.35-1.31-.04,0,.02,0-.09-.03.51-1.2.74-1.85.65-1.89-.1-.05-.55.59-1.35,1.89,0,0-.01,0-.01,0-.01,0-.03,0-.04,0-.11,0-.21,0-.32.02-.36.06-.71.19-1.01.39-.31.21-.57.46-.75.68-.36.46-.61.93-.81,1.4-.23.64-.47,1.27-.69,1.89-.08.1-.16.2-.22.29-.18.27-.34.55-.46.86l-.24.61c-.77,1.97-1.48,3.83-2.11,5.55-1.98,3.63-4.29,7.97-6.84,13-4.4,8.76-9.63,19.61-14.38,32.8-2.36,6.59-4.58,13.77-6.36,21.54-.38,1.63-.72,3.3-1.05,4.99-1.25,6.32-2.17,12.99-2.81,19.93-1.68,17.58-1.29,36.87-1.6,57.36-.1,7.73-.44,15.6-1.02,23.66-.71,3.15-1.55,6.37-2.5,9.63-4.26,14.62-11.05,30.12-20.78,44.75-9.7,14.64-21.28,26.98-33.03,36.69-11.77,9.72-23.64,16.89-34.08,21.92-5.2,2.56-10.09,4.55-14.35,6.4-4.26,1.82-7.93,3.44-10.88,4.87-2.95,1.42-5.19,2.61-6.7,3.45-1.31.75-2.06,1.2-2.23,1.29.2-.09.98-.48,2.32-1.12Zm31.42,141.15c-.06.12-.11.25-.16.38-.04.01-.08.03-.12.04.09-.15.18-.28.27-.42ZM261.7,38.55c-.08.41-.14.78-.18,1.09-1.14,2.3-2.23,4.67-3.25,7.12,1.15-2.93,2.33-5.72,3.47-8.39-.01.06-.03.12-.04.17Zm-9.74,26.93c-.24.43-.49.88-.75,1.37.65-2.18,1.33-4.3,2.01-6.37.76-2.28,1.54-4.48,2.33-6.63-1.37,3.92-2.55,7.82-3.59,11.63Z"></path> </g> <g> <path class="cls-3" d="m37.37,693.68c-10.96,27.8-10.72,59.35-5.6,80.82.04-.28.07-.56.11-.84-5.44-30.14.06-61.59,11.75-91.23,3.37-8.56,8.61-19.61,8.76-19.98,1.76-4.47,2.76-9.19,3.08-14.01-.57-.31-1.14-.62-1.71-.92-.65.17-1.31.34-1.97.51-.16,5.21-.91,12.31-6.4,26.24-2.58,6.54-5.45,12.9-8.02,19.41Z"></path> <path class="cls-21" d="m26.33,681.89c-3.65-1.44-13.74,2.47-16.95,10.62-7.4,18.78,2.81,58.37,11.6,64.54,2.76.82,3.92-.28,5.02-2.93-.94-5.23-2.75-21.44,3.25-49.98,1.64-7.78,1.92-20.35-2.91-22.26Zm-10.79,49.66c-.57-.23-1.06-.65-1.54-1.06-.75-.65-9.38-17.88-1.22-38.56,1.27-3.22,6.28-6.97,9.5-5.7,10.13,3.99-1.74,41.57-2.08,42.43-.76,1.94-3.02,3.54-4.65,2.9Z"></path> <path class="cls-7" d="m5.44,735.43c1.5,4.62,3.25,9.13,5.16,13.46,5.6,8.16,15.95,21.97,20.64,23.82.04.02.09.04.14.05-4.73-21.41-4.67-52.02,6-79.07.38-.96.77-1.9,1.16-2.85-1.9-5.8-6.1-12.24-11.45-14.34-6.77-2.67-14.93,3.83-19.3,14.92-3.8,9.65-4.18,27.4-2.34,44.02Zm20.89-53.54c4.83,1.9,4.54,14.48,2.91,22.26-6,28.53-4.18,44.74-3.25,49.98-1.1,2.65-2.26,3.75-5.02,2.93-8.78-6.17-19-45.76-11.6-64.54,3.21-8.15,13.31-12.06,16.95-10.62Z"></path> <path class="cls-20" d="m10.59,748.89c6.38,14.42,14.58,26.8,21.58,34.44-.7-2.92-.78-5.88-.4-8.82-.14-.57-.27-1.16-.4-1.75-.05-.02-.1-.04-.14-.05-4.69-1.85-15.04-15.66-20.64-23.82Z"></path> <path class="cls-5" d="m34.24,665.09c-9.95-3.92-25.7,13.01-29.64,22.99-2.11,5.36-3.59,10.31-4.6,14.9-.13,10.82,2.01,21.92,5.43,32.45-1.85-16.62-1.47-34.37,2.34-44.02,4.37-11.09,12.54-17.59,19.3-14.92,5.35,2.11,9.55,8.55,11.45,14.34,1.58-3.87,3.23-7.71,4.84-11.58-1.86-6.16-3.8-12.06-9.12-14.16Z"></path> <path class="cls-16" d="m5.96,676.35c-.62,1.22-1.2,2.5-1.73,3.84-2.85,7.23-4.13,14.93-4.22,22.79,1.01-4.59,2.48-9.53,4.6-14.9,3.94-9.99,19.69-26.92,29.64-22.99,5.32,2.1,7.26,8,9.12,14.16.69-1.65,1.36-3.31,2.02-4.98,1.95-4.93,3.29-9,4.23-12.44-1.04-2.11-2.65-4.17-4.28-4.82-8-3.16-26.24,4.26-39.37,19.33Z"></path> <path class="cls-2" d="m45.33,657.01c1.64.65,3.24,2.71,4.28,4.82,1.71-6.27,2.07-10.43,2.17-13.8-15.69,4.02-36.21,9.45-45.83,28.31,13.13-15.08,31.37-22.49,39.37-19.33Z"></path> <path class="cls-20" d="m22.27,686.23c-3.21-1.27-8.22,2.48-9.5,5.7-8.15,20.68.47,37.9,1.22,38.56.48.42.97.84,1.54,1.06,1.62.64,3.88-.96,4.65-2.9.34-.86,12.21-38.43,2.08-42.43Z"></path> <path class="cls-16" d="m65.74,677.59c-7.98-3.15-14.88-1.84-20.93,1.92-.41.99-.81,1.98-1.18,2.93-8.34,21.16-13.53,43.24-13.84,65.11,1.04,2.64,1.24,4.97,3.67,5.93,1.03.41,2.38-.43,3.3-1.2,12.04-10.1,18.61-14.29,22.97-16.08,2.62-1.97,5.25-3.89,7.84-5.82,3.66-4.57,7.1-10.05,9.81-16.93,6.76-17.15-.2-31.37-11.63-35.87Zm-28.22,64.54c-.43-.17-1-.28-1.49-.48-4.87-1.92-1.11-28.28,4.37-42.18,3.17-8.04,14.09-20.27,22.37-17.01,10.36,4.08,14.44,20.32,10.2,31.09-.4,1.01-.83,2-1.23,3-4.44,11.25-23.18,20.78-34.22,25.58Z"></path> <path class="cls-2" d="m36.76,752.28c-.91.77-2.26,1.6-3.3,1.2-2.43-.96-2.63-3.29-3.67-5.93-.12,8.76.53,17.49,2.09,26.11.38-2.39,1.04-4.77,1.96-7.11,5.46-13.85,15.53-22.55,25.89-30.35-4.36,1.78-10.93,5.98-22.97,16.08Z"></path> <path class="cls-2" d="m65.74,677.59c11.43,4.51,18.39,18.72,11.63,35.87-2.71,6.88-6.15,12.35-9.81,16.93,3.27-2.43,6.44-4.89,9.41-7.5.52-1.29,1.06-2.63,1.62-4.05,8.41-21.33,4.24-45-8.2-49.91-8.66-3.42-15.22-1.87-22.02,2.34-1.15,2.59-2.41,5.46-3.56,8.25,6.05-3.76,12.94-5.07,20.93-1.92Z"></path> <path class="cls-4" d="m70.39,668.93c12.45,4.91,16.61,28.58,8.2,49.91-.56,1.43-1.1,2.76-1.62,4.05,5.97-5.26,11.05-11.16,14.08-18.83,1.34-3.4,2.13-6.64,2.44-9.72-3.66-14.09-12.53-28.01-25.31-33.05-4.32-1.7-10.47-2.14-15.15-.56-.2.58-.41,1.16-.64,1.73-.08.21-1.87,4-4.01,8.81,6.8-4.2,13.35-5.75,22.02-2.34Z"></path> <path class="cls-17" d="m93.5,694.34c2.13-20.82-17.49-34.8-38.02-45.89-.28,4.2-1.08,8.33-2.44,12.28,4.68-1.58,10.84-1.14,15.15.56,12.78,5.04,21.65,18.96,25.31,33.05Z"></path> <path class="cls-5" d="m62.78,682.46c-8.28-3.27-19.2,8.97-22.37,17.01-5.48,13.9-9.24,40.26-4.37,42.18.49.19,1.06.31,1.49.48,11.04-4.8,29.79-14.32,34.22-25.58.4-1.01.83-2,1.23-3,4.25-10.77.16-27.01-10.2-31.09Zm-6.21,42.29c-2.72-1.32-5.42-2.65-8.19-4.47-4.19-2.76-5.55-13.51-1.86-22.88,2.49-6.31,9.36-14.73,15.91-12.14,5.14,2.02,10.26,11.59,4.22,26.9-2.76,7.01-5.44,9.94-10.09,12.6Z"></path> <path class="cls-10" d="m62.44,685.26c-6.55-2.58-13.42,5.83-15.91,12.14-3.7,9.37-2.33,20.12,1.86,22.88,2.77,1.83,5.48,3.15,8.19,4.47,4.64-2.66,7.32-5.59,10.09-12.6,6.03-15.31.91-24.87-4.22-26.9Z"></path> </g> <g> <path class="cls-2" d="m126.6,577.53c.45.18.89.41,1.31.71,1.24-4.5,2.79-9.15,4.68-13.95,1.19-3.02,2.46-6.01,3.77-8.98-.59-.3-1.17-.6-1.77-.89-14,12.86-27.35,29.83-34.61,48.26-.48,1.21-.92,2.4-1.34,3.58,8.88-16,20.02-31.86,27.97-28.72Z"></path> <path class="cls-16" d="m98.63,606.25c-8.01,22.53-4.95,38.03,3.11,50.2-5.77-15.8-5.69-38.69-.75-51.23,3.51-8.91,8.77-16.36,19.37-12.18,1.39.55,2.8,1.38,4.12,2.51.65-5.54,1.77-11.3,3.43-17.32-.42-.29-.85-.53-1.31-.71-7.95-3.14-19.09,12.72-27.97,28.72Z"></path> <g> <path class="cls-3" d="m162.67,724.15c.31,2.29.42,4.69.32,7.21.35-.73.68-1.47.98-2.22,2.89-7.34,2.33-12.61,1.07-18.17-14.43-41.59-55.42-80.59-31.78-140.56,1.83-4.63,3.76-9.22,5.68-13.74-.85-.46-1.72-.91-2.59-1.35-1.31,2.97-2.58,5.96-3.77,8.98-31.06,78.8,29.79,116.08,30.08,159.85Z"></path> <path class="cls-20" d="m162.67,724.15c-.05-7.36-1.82-14.55-4.57-21.77-12.58-6.41-24.29-20.27-38.92-27.74,18.33,14.89,40.43,26.76,43.49,49.52Z"></path> <path class="cls-5" d="m100.99,605.23c-4.94,12.53-5.03,35.42.75,51.23,4.02,6.07,9.27,11.31,15.03,16.17-11.05-13.24-22.48-31.2-15.49-48.95,4.87-12.36,12.75-16.6,22.51-14.33-.08-4.44.13-9.03.69-13.79-1.32-1.14-2.72-1.96-4.12-2.51-10.6-4.18-15.85,3.27-19.37,12.18Z"></path> <path class="cls-7" d="m101.28,623.68c-7,17.75,4.44,35.7,15.49,48.95.8.67,1.6,1.34,2.42,2,14.63,7.47,26.34,21.33,38.92,27.74-10.13-26.6-33.63-53.81-34.32-93.02-9.75-2.27-17.63,1.98-22.51,14.33Zm15.32-6.32c11.42,4.5,3.63,26.51,14.11,42.22,5.65,8.48,11.66,15.88,13.37,25.84-.17.43-.25,1.06-.47,1.6-.56,1.43-2.08,1.2-3.5.64-12.53-4.94-45.15-38.41-35.67-62.44,2.57-6.51,8.94-9.14,12.17-7.87Z"></path> <path class="cls-21" d="m140.11,687.67c1.43.56,2.94.79,3.5-.64.21-.54.3-1.17.47-1.6-1.71-9.97-7.72-17.36-13.37-25.84-10.47-15.71-2.69-37.72-14.11-42.22-3.23-1.27-9.6,1.36-12.17,7.87-9.47,24.03,23.14,57.5,35.67,62.44Zm-25.51-60.99c.06.02.12.05.18.08,10.44,5.49,8.83,23.06,11.24,34.62-.66-.19-1.32-.41-1.97-.67-12.33-4.86-20.05-20.12-16.55-28.99,1.1-2.8,4.96-5.9,7.11-5.05Z"></path> <path class="cls-20" d="m124.04,660.72c.65.26,1.31.48,1.97.67-2.41-11.57-.79-29.14-11.24-34.62-.06-.03-.12-.06-.18-.08-2.15-.85-6,2.25-7.11,5.05-3.5,8.87,4.22,24.13,16.55,28.99Z"></path> <path class="cls-17" d="m134.35,567.76c2.35-3.61,5.55-5.93,12.05-3.36,4.16,1.64,17.87,14.41,24.08,20.42-6.87-11.26-17.55-20.63-31.53-28.15-1.55,3.66-3.09,7.37-4.6,11.09Z"></path> <path class="cls-16" d="m153.02,583.62c-12.51-4.93-21.25.67-26.3,12.22-4.16,35.09,13.03,62.87,26.92,89.72,4.05-1.23,7.31-6.3,8.39-9.04,1.01-2.57.9-3.63,2.69-8.16,3.01-7.63,6.73-14.81,9.81-22.22,2.73-8.56,4.27-16.6,4.71-24.14-3.51-16.74-11.12-32.43-26.22-38.39Zm1.89,91.15c-3.17-2.91-5.71-6.11-7.79-9.71-9.12-15.83-23.08-41.38-15.75-59.98,3.77-9.56,12.03-16.58,22.09-12.61,13.74,5.42,26.03,32.45,14.74,61.07-3.04,7.72-7.57,14.95-13.29,21.23Z"></path> <path class="cls-2" d="m162.03,676.53c-1.08,2.74-4.34,7.81-8.39,9.04,4.39,8.49,8.46,16.89,11.41,25.4-2.35-10.44-7.13-21.92,3.98-50.11.82-2.09,1.66-4.17,2.48-6.25,1.13-2.87,2.14-5.69,3.02-8.46-3.08,7.4-6.8,14.59-9.81,22.22-1.79,4.53-1.68,5.59-2.69,8.16Z"></path> <path class="cls-4" d="m134.35,567.76c-.36.88-.73,1.76-1.08,2.65-1.53,3.89-2.79,7.68-3.8,11.4,6.66-7.19,15.99-7.56,22.35-5.06,11.61,4.58,20.95,22.96,27.32,34.9-.83-9.91-3.78-18.85-8.65-26.83-6.21-6.01-19.93-18.78-24.08-20.42-6.51-2.57-9.71-.25-12.05,3.36Z"></path> <path class="cls-2" d="m129.47,581.81c-1.31,4.81-2.21,9.48-2.75,14.03,5.05-11.55,13.79-17.15,26.3-12.22,15.1,5.95,22.71,21.65,26.22,38.39.21-3.57.17-7.02-.11-10.36-6.36-11.94-15.7-30.32-27.32-34.9-6.35-2.5-15.69-2.13-22.35,5.06Z"></path> <path class="cls-5" d="m153.46,592.47c-10.06-3.96-18.32,3.06-22.09,12.61-7.33,18.6,6.63,44.16,15.75,59.98,2.07,3.6,4.62,6.8,7.79,9.71,5.72-6.28,10.25-13.51,13.29-21.23,11.28-28.62-1.01-55.66-14.74-61.07Zm8.65,55.61c-3.31.29-7.03.89-10.33-.41-10.02-3.95-22.4-19.44-15.79-36.2,4.16-10.55,13.94-15.63,16.46-14.64.57.23,1.35.35,2.01.61,4.93,1.94,18.77,23.59,10.07,45.66-.68,1.72-1.49,3.39-2.42,4.98Z"></path> <path class="cls-10" d="m154.47,597.44c-.66-.26-1.43-.39-2.01-.61-2.53-1-12.31,4.09-16.46,14.64-6.61,16.76,5.76,32.25,15.79,36.2,3.3,1.3,7.03.71,10.33.41.93-1.59,1.74-3.25,2.42-4.98,8.7-22.07-5.14-43.72-10.07-45.66Z"></path> </g> </g> <g> <path class="cls-3" d="m3.36,549.3c-.32.88-.64,1.75-.98,2.61-.06.15-.12.3-.18.45.67-.25,1.37-.48,2.1-.71,73.21-35.68,62.68-89.94,108.15-112.87-2.06,0-4.22,0-6.45.02-10.83,6.28-21.23,13.31-25.73,24.7-14.38,36.47-42.1,68.44-76.91,85.79Z"></path> <path class="cls-10" d="m22.92,541.08c-5.54,3.66-11.71,7.2-18.63,10.57,10.85-3.4,27.7-4.55,45.43-8.82-10.52,1.75-19.66,2.44-23.92.76-.99-.39-2.5-1.2-2.89-2.51Z"></path> <path class="cls-4" d="m101.6,468.63c10.18,4.01,7.99,22.59,3.87,33.05-3.53,8.95-16.67,20.34-29.24,31.77,8.57-4.31,16.73-10.03,23.87-17.82,3.99-5.29,8.32-11.99,11.31-19.58,9.84-24.96,3.07-40.86-1.38-42.62-7.12-2.81-17.98,4.34-23.86,8.31-2.14,2.94-4.14,6.01-6.09,9.18,6.99-3.38,15.21-4.77,21.51-2.29Z"></path> <path class="cls-17" d="m110.03,453.43c4.45,1.75,11.22,17.66,1.38,42.62-2.99,7.59-7.32,14.3-11.31,19.58,6.5-7.09,12.15-15.89,16.49-26.89,6.55-16.61,6.78-34.76-3.69-49.96-.15,0-.3,0-.45,0-11.65,5.87-19.62,13.81-26.27,22.96,5.87-3.98,16.73-11.12,23.86-8.31Z"></path> <path class="cls-2" d="m92.79,480.14c7.97,3.14,7.17,15.9,4.01,23.91-4.66,11.82-13.33,21.97-23.05,30.61.83-.39,1.66-.79,2.48-1.21,12.57-11.42,25.71-22.82,29.24-31.77,4.12-10.46,6.31-29.04-3.87-33.05-6.3-2.48-14.53-1.09-21.51,2.29-2.76,4.5-5.4,9.19-8.14,14,7.54-4.07,15.85-6.75,20.84-4.78Z"></path> <path class="cls-16" d="m25.81,543.59c4.26,1.68,13.39.99,23.92-.76,7.99-1.93,16.15-4.48,24.03-8.17,9.71-8.64,18.39-18.79,23.05-30.61,3.16-8.01,3.96-20.77-4.01-23.91-4.99-1.97-13.3.71-20.84,4.78-10.55,18.5-22.65,38.73-49.02,56.16.39,1.3,1.89,2.12,2.89,2.51Zm30.02-26.5c13.09-10.83,20.64-36.12,30.18-32.35,4.01,1.58,9.7,12.26,5.38,23.22-4.46,11.3-29.41,35.29-57.34,32.4-.12-.01-.22-.04-.3-.07-.7-.28-.2-2.53.04-3.14,1.87-4.76,4.67-5.69,22.04-20.05Z"></path> <path class="cls-5" d="m33.74,540.28c.08.03.18.06.3.07,27.92,2.89,52.88-21.1,57.34-32.4,4.32-10.96-1.37-21.64-5.38-23.22-9.54-3.76-17.09,21.53-30.18,32.35-17.37,14.37-20.16,15.3-22.04,20.05-.24.61-.74,2.87-.04,3.14Zm28.06-25.32c10.88-12.72,13.96-24.77,22.13-21.55,2.62,1.03,6.47,8.19,4.07,14.28-3.45,8.76-25.29,25.35-31.63,26.53-.64.12-1.26.63-1.95.73-.26.04-.48-.02-.67-.09-.15-.06-.28-.13-.4-.18-.07-.03-.35-.09-.58-.18-2.67-1.05-2.08-5.8-1.03-8.48,3.32-8.41,6.86-7.32,10.06-11.06Z"></path> <path class="cls-10" d="m52.77,534.5c.23.09.51.15.58.18.12.05.25.12.4.18.19.07.41.13.67.09.68-.1,1.3-.61,1.95-.73,6.34-1.18,28.18-17.76,31.63-26.53,2.4-6.09-1.45-13.25-4.07-14.28-8.17-3.22-11.25,8.83-22.13,21.55-3.2,3.74-6.75,2.65-10.06,11.06-1.06,2.68-1.64,7.43,1.03,8.48Z"></path> <path class="cls-8" d="m17.53,487.9c-.23.39-.46.79-.68,1.18-4.49,17.44-6.63,41.22-13.49,60.22,4.41-2.2,8.71-4.63,12.88-7.28-3.98-4.06-5.73-11.39,1.29-54.11Z"></path> <path class="cls-8" d="m18.05,484.76c-.42,1.39-.82,2.84-1.2,4.32.22-.39.45-.79.68-1.18,9.91-16.95,24.27-32.78,38.54-27.15,7.62,3,12.79,15.21,11.6,28.11,2.92-4.81,5.59-9.76,8.01-14.83,1.56-9.44,1.77-21.25-5.91-24.28-14.2-5.6-33.1,9.69-48.65,26.78-.44.96-.86,1.94-1.26,2.95-.65,1.65-1.25,3.41-1.82,5.27Z"></path> <path class="cls-12" d="m83.46,442.69c5.34,2.1,2.1,9.29.55,13.2-.25.62-.5,1.24-.76,1.85,5.28-8.14,13.86-13.79,22.73-18.93-20.61.2-47.95,2.07-67.3,16.22,22.72-10.62,42.76-13.13,44.77-12.34Z"></path> <path class="cls-18" d="m56.07,460.75c-14.27-5.63-28.64,10.2-38.54,27.15-7.02,42.72-5.27,50.06-1.29,54.11,20.83-13.23,38.51-31.8,51.44-53.15,1.19-12.9-3.98-25.11-11.6-28.11Zm-37.94,72c-1.97-5.09-.15-9.98.21-14.85.63-8.33,2.09-21,5.15-28.78,4.89-12.4,22.86-24.25,32.29-20.53,3.4,1.34,7.38,8.45,2.26,21.42-12.94,32.81-36.09,41.07-39.92,42.73Z"></path> <path class="cls-6" d="m69.77,449.75c7.68,3.03,7.47,14.84,5.91,24.28,1.65-3.46,3.18-6.97,4.58-10.52.81-2.06,1.82-3.98,2.99-5.77.26-.61.51-1.23.76-1.85,1.54-3.91,4.78-11.09-.55-13.2-2.01-.79-22.05,1.71-44.77,12.34-7.22,5.28-13.33,12.26-17.56,21.51,15.55-17.09,34.44-32.38,48.65-26.78Z"></path> <path class="cls-9" d="m55.78,468.6c-9.43-3.72-27.41,8.13-32.29,20.53-3.07,7.78-4.52,20.44-5.15,28.78-.37,4.87-2.19,9.76-.21,14.85,3.83-1.66,26.98-9.91,39.92-42.73,5.12-12.98,1.14-20.08-2.26-21.42Zm-25.74,51.6c-.43.02-.82-.05-1.19-.2-8.77-3.46-6.93-23.41-3.5-32.1,5.26-13.34,22.79-11.8,24.45-11.14,5.96,2.35,4.61,9.54,2.28,15.46-2.92,7.4-13.75,27.52-22.04,27.98Z"></path> <path class="cls-13" d="m49.81,476.75c-1.66-.65-19.19-2.19-24.45,11.14-3.43,8.7-5.27,28.65,3.5,32.1.36.14.76.22,1.19.2,8.29-.47,19.12-20.59,22.04-27.98,2.33-5.92,3.68-13.11-2.28-15.46Z"></path> </g> <g> <path class="cls-3" d="m179.07,507.03c2.86,15.94.96,31.3,2.9,46.52.12.93.25,1.85.39,2.76,1.39,3.11,2.47,6.33,3.12,9.72.04-.82.07-1.64.1-2.46-.21-1.77-.38-3.54-.49-5.31-6.22-95.31-17.59-79.09-19.52-114.96-.33-.28-.65-.57-.98-.86-.42.61-.83,1.23-1.24,1.84.6,16.32,10.11,31.56,15.71,62.75Z"></path> <path class="cls-14" d="m156.17,516.79c.08.33.16.65.25.98,8.11,13.76,19.93,25.1,25.93,38.54-.14-.92-.27-1.84-.39-2.76-.45-3.56-.69-7.12-.83-10.7-.63.09-1.3,0-1.92-.24-.76-.3-14.82-13.95-23.05-25.81Z"></path> <path class="cls-20" d="m155.77,489.21c-2.95,7.49-2.18,17.39.4,27.57,8.23,11.86,22.28,25.51,23.05,25.81.62.24,1.28.34,1.92.24-.47-11.73.13-23.6-2.06-35.81-1.03-5.72-2.19-10.9-3.4-15.66-2.87-3.54-6.96-7.44-9.7-8.52-4.25-1.67-8.86,2.97-10.2,6.36Zm19.81,41.48c-.07.17-.14.34-.23.5,0,0,0,.02-.01.02-.03.07-.03.17-.06.25-.1.26-1.48-.26-1.73-.36-11.24-4.43-20.77-25.01-15.4-38.65,1.46-3.7,5.81-7.93,9.53-6.47,8.51,3.35,11.11,36.59,7.91,44.7Z"></path> <path class="cls-5" d="m153.12,463.65c-4.72,11.97-5.92,22.09-4.9,30.97,1.31-11.59,3.82-21.08,5.66-25.72,1.37-3.47,4.33-9.73,7.82-8.35,1.8.71,5.46,6.44,8.11,10.95-3.36-10.41-6.13-18.67-6.44-27.22-4.03,6.09-7.57,12.61-10.24,19.37Z"></path> <path class="cls-7" d="m153.87,468.9c-1.83,4.65-4.35,14.13-5.66,25.72.75,6.52,2.69,12.37,5.33,17.8-1.27-13.4-4.41-25.42-.22-36.04,1.51-3.84,5.12-5.2,7.96-4.08,2.69,1.06,7.7,5.96,12.28,11.34-1.28-4.4-2.56-8.42-3.77-12.15-2.65-4.51-6.3-10.24-8.11-10.95-3.49-1.38-6.45,4.88-7.82,8.35Z"></path> <path class="cls-21" d="m153.54,512.42c.26.53.52,1.06.79,1.58.66,1.27,1.36,2.53,2.08,3.76-.09-.33-.17-.65-.25-.98-2.58-10.18-3.35-20.08-.4-27.57,1.34-3.39,5.95-8.03,10.2-6.36,2.74,1.08,6.84,4.98,9.7,8.52-.69-2.71-1.4-5.27-2.11-7.71-4.58-5.39-9.59-10.28-12.28-11.34-2.85-1.12-6.45.24-7.96,4.08-4.19,10.62-1.05,22.63.22,36.04Z"></path> <path class="cls-11" d="m158.14,492.46c-5.37,13.63,4.16,34.22,15.4,38.65.25.1,1.63.61,1.73.36.03-.08.04-.18.06-.25,0,0,0-.02.01-.02.09-.16.17-.33.23-.5,3.2-8.11.59-41.34-7.91-44.7-3.72-1.47-8.07,2.76-9.53,6.47Zm9.33-5.01c3.34,1.32,7.1,21.56,4.59,27.94-.37.93-1.89,4.33-2.84,3.95-.04-.01-.08-.04-.12-.07-.26.23-.5.22-.72.13-.22-.08-.4-.24-.55-.3-8.36-3.3-11.12-21.28-9.88-24.43.73-1.86,6.37-8.46,9.52-7.22Z"></path> <path class="cls-15" d="m167.84,519.11c.14.06.33.21.55.3.22.08.46.1.72-.13.04.03.08.06.12.07.96.38,2.48-3.02,2.84-3.95,2.52-6.38-1.25-26.63-4.59-27.94-3.15-1.24-8.78,5.36-9.52,7.22-1.24,3.15,1.52,21.13,9.88,24.43Z"></path> <path class="cls-16" d="m185.34,544.53c-.17.44-.57,1.43-1.05,2.41.28,3.59.54,7.35.8,11.32.12,1.77.28,3.54.49,5.31.34-8.55.68-17.17,3.6-24.58,2.44-6.18,8.21-11.82,13.96-18.6-5.74,4.5-12.31,9.72-15.54,17.91-.81,2.06-1.45,4.16-2.27,6.23Z"></path> <path class="cls-7" d="m199.62,477.49c-7.96-3.14-15.94-.19-19.47,8.76-1.19,3.01-1.89,5.92-2.27,8.78,2.28,11.36,4.52,27.43,6.4,51.9.48-.98.88-1.97,1.05-2.41.82-2.07,1.46-4.16,2.27-6.23,3.23-8.19,9.8-13.41,15.54-17.91,2.94-3.48,5.88-7.25,8.35-11.55,1.26-19.06-6.88-29.38-11.87-31.35Zm-10.91,49.68c-.37,0-.72-.09-1.04-.22-3.85-1.52-9.49-32.15-4.99-43.55,1.9-4.82,7.07-6.92,11.41-5.21,9.16,3.61,16.68,18.49,12.53,29.03-3.69,9.37-15.33,19.93-17.9,19.95Z"></path> <path class="cls-16" d="m170.46,461.94c-.43,1.09-.67,2.74-.77,4.69,1.71,5.17,3.78,10.27,5.91,18.43-.07-4.42.11-8.75,2.03-13.62,2.36-5.98,3.93-8.07,12.59-4.66,13.53,5.33,23.25,21.47,24.63,35.05,1.85-4.79,2.61-8.89,2.48-12.5-6.16-12.01-24.68-25.77-34.45-29.62-4.15-1.63-10.78-1.92-12.42,2.23Z"></path> <path class="cls-2" d="m165.57,443.29c.6,11.19,2.12,17.31,4.12,23.33.1-1.95.34-3.6.77-4.69,1.64-4.15,8.27-3.86,12.42-2.23,9.77,3.85,28.29,17.61,34.45,29.62-.72-19.24-27.04-24.53-51.76-46.03Z"></path> <path class="cls-5" d="m190.22,466.78c-8.66-3.41-10.23-1.32-12.59,4.66-1.92,4.86-2.1,9.2-2.03,13.62.76,2.89,1.52,6.18,2.28,9.98.38-2.86,1.08-5.77,2.27-8.78,3.53-8.95,11.5-11.9,19.47-8.76,4.99,1.97,13.13,12.29,11.87,31.35,1.2-2.08,2.29-4.29,3.22-6.65.05-.12.09-.24.14-.36-1.38-13.58-11.1-29.72-24.63-35.05Z"></path> <path class="cls-21" d="m194.09,478.19c-4.34-1.71-9.51.39-11.41,5.21-4.49,11.4,1.14,42.04,4.99,43.55.32.13.67.22,1.04.22,2.57-.01,14.21-10.57,17.9-19.95,4.16-10.55-3.37-25.42-12.53-29.03Zm-1.53,37.55c-2.43-4.77-4.57-9.57-6.04-14.99-.72-2.67-2.29-11.69-.47-16.3,1.94-4.92,7.02-4.91,10.15-3.68,5.46,2.15,11.83,11.43,7.51,22.39-1.14,2.9-7.81,13.17-11.15,12.57Z"></path> <path class="cls-20" d="m196.2,480.78c-3.14-1.24-8.21-1.24-10.15,3.68-1.82,4.61-.25,13.63.47,16.3,1.47,5.42,3.61,10.21,6.04,14.99,3.35.6,10.01-9.67,11.15-12.57,4.32-10.96-2.05-20.24-7.51-22.39Z"></path> </g> <g> <path class="cls-3" d="m52.82,371.26c-4.64,7.44-8.17,15.54-12.29,23.13,1.26-.07,2.54-.12,3.85-.15,39.24-92.33,77.79-78.01,116.9-95.96-.6-1.8-1.23-3.38-1.84-4.75-18.54,17.86-54.78-5.31-106.63,77.73Z"></path> <path class="cls-20" d="m111.23,393.65c-25.15.38-50.46-3.33-53.08-4.36-3.69-1.45-8.22-3.15-8.81-6.16-1.65,3.52-3.31,7.21-4.96,11.11,19.87-.41,44.61,3.84,66.85-.58Z"></path> <path class="cls-16" d="m148.05,358.69c-3.54,8.98-8.33,17.62-13.74,25.93,7.75-5.02,14.67-12.21,20.28-22.42,5.18-18.62,10.42-49.92-4.87-59.43-8.51,2.82-17.01,4.77-25.49,7.26,6.1-.83,12.07-.47,17.76,1.77,18.39,7.25,13.3,28.51,6.06,46.89Z"></path> <path class="cls-2" d="m154.6,362.2c1.7-3.1,3.29-6.47,4.74-10.15,8.75-22.2,5.84-42.19,1.95-53.78-3.86,1.77-7.71,3.22-11.55,4.5,15.29,9.52,10.05,40.82,4.87,59.43Z"></path> <path class="cls-7" d="m58.15,389.29c2.62,1.03,27.93,4.74,53.08,4.36,6.03-1.2,11.88-3.04,17.39-5.78,4.63-6.38,8.49-13.05,11.14-19.77,13.37-33.91,1.79-41.8-9.28-46.16-14.77-5.82-30.6-.51-44.19,7.79-12.28,10.67-24.58,27.02-36.95,53.4.59,3.01,5.12,4.71,8.81,6.16Zm63.89-63.22c12.34,4.86,14.52,30.12,10.35,40.71-8.67,21.98-40.35,21.02-65.15,14.59-.83-4.31-2.74-8.02-2.44-12.18.09-1.2.18-2.51.67-3.74,5.52-13.99,31.01-49.47,56.57-39.39Z"></path> <path class="cls-5" d="m130.48,321.94c11.07,4.37,22.65,12.26,9.28,46.16-2.65,6.72-6.52,13.39-11.14,19.77,1.94-.97,3.84-2.05,5.7-3.25,5.41-8.31,10.2-16.96,13.74-25.93,7.24-18.37,12.33-39.64-6.06-46.89-5.69-2.24-11.66-2.6-17.76-1.77-12.65,3.73-25.29,8.7-37.95,19.7,13.59-8.3,29.42-13.62,44.19-7.79Z"></path> <path class="cls-21" d="m67.24,381.38c24.81,6.42,56.49,7.39,65.15-14.59,4.18-10.59,1.99-35.85-10.35-40.71-25.56-10.08-51.06,25.4-56.57,39.39-.49,1.23-.58,2.53-.67,3.74-.3,4.15,1.6,7.87,2.44,12.18Zm49.92-46.37c6.88,2.71,15.96,18.67,12.46,27.53-3.86,9.78-27.57,21.65-49.52,15.58-1.38-1.99-3.1-3.31-4.09-5.23-1.21-2.34-1.59-5.56-.56-8.19,2.11-5.36,23.61-36.83,41.71-29.7Z"></path> <path class="cls-20" d="m76.01,372.89c.99,1.92,2.7,3.24,4.09,5.23,21.95,6.06,45.67-5.8,49.52-15.58,3.5-8.87-5.58-24.82-12.46-27.53-18.1-7.14-39.59,24.34-41.71,29.7-1.04,2.63-.65,5.85.56,8.19Z"></path> <path class="cls-5" d="m101.38,292.31c-24.52-9.67-43.95,6.08-57.67,28.14-.52,3.08-.94,6.27-1.28,9.53-1.68,21.28-1.16,47.65,2.56,55.75,2.45-4.89,4.92-9.81,7.83-14.47,24.01-38.47,44.68-54.14,61.79-61.66.71-7.47-3.34-13.39-13.23-17.29Zm-52.76,76.13c-.57.25-1.38.35-1.96.12-4.44-1.75-6.17-27.15.14-43.14,8.15-20.68,28.43-37.96,54.44-27.7,3.39,1.34,7.01,3.9,5.66,7.32,0,0-33.24,25.74-58.27,63.4Z"></path> <path class="cls-2" d="m42.43,329.98c-2.4,22.86-1,49.12-3.07,64.47.39-.03.78-.04,1.17-.07,1.54-2.83,2.99-5.74,4.46-8.66-3.72-8.1-4.24-34.47-2.56-55.75Z"></path> <path class="cls-16" d="m119.36,289.16c-2.42-.96-4.91-2.31-7.4-3.29-15.78-6.22-44.73,1.65-64.05,18.43-1.86,4.79-3.21,10.27-4.21,16.16,13.72-22.06,33.16-37.81,57.67-28.14,9.89,3.9,13.94,9.81,13.23,17.29,3.44-1.51,6.73-2.69,9.87-3.67.74-1.16,1.42-2.38,1.95-3.73,2.56-6.5-3.21-11.53-7.07-13.05Z"></path> <path class="cls-4" d="m131.8,289.69c5.36,2.11,13.71,5.81,11.46,11.52-.01.03-.03.06-.04.08,6.4-1.59,11.82-3.51,16.23-7.77-.1-.22-.2-.45-.3-.66-36.28-3.64-80.84-33.54-104.22-1.69,19-11.53,45.23-13.95,76.87-1.48Z"></path> <path class="cls-2" d="m131.8,289.69c-31.63-12.47-57.87-10.05-76.87,1.48-2.58,3.51-4.9,7.76-6.93,12.9-.03.07-.06.15-.08.23,19.32-16.78,48.27-24.65,64.05-18.43,2.49.98,4.98,2.34,7.4,3.29,3.86,1.52,9.63,6.55,7.07,13.05-.53,1.35-1.21,2.56-1.95,3.73,6.96-2.15,13.21-3.27,18.73-4.64.01-.03.03-.06.04-.08,2.25-5.71-6.1-9.41-11.46-11.52Z"></path> <path class="cls-10" d="m101.23,297.72c-26-10.25-46.28,7.02-54.44,27.7-6.3,15.99-4.57,41.39-.14,43.14.58.23,1.39.13,1.96-.12,25.03-37.66,58.27-63.4,58.27-63.4,1.35-3.42-2.27-5.98-5.66-7.32Zm-40.37,43.03c-1.94-.29-4.11-.17-5.99-.91-4.5-1.77-3.2-14.73-.87-20.63,6.53-16.57,30.92-26.18,40.58-22.38,3.67,1.45,5.67,5.08,3.9,9.58-1.44,3.65-33.98,34.88-37.61,34.33Z"></path> <path class="cls-21" d="m94.58,296.83c-9.66-3.81-34.05,5.81-40.58,22.38-2.33,5.9-3.62,18.85.87,20.63,1.88.74,4.05.62,5.99.91,3.63.55,36.18-30.69,37.61-34.33,1.78-4.5-.22-8.13-3.9-9.58Z"></path> </g> <g> <path class="cls-3" d="m227.96,455.38c-18.72-73.02,22.66-143.77,23.14-197.62-1.72-1.06-3.47-2.09-5.24-3.07-.4.97-.83,1.92-1.27,2.88,7.56,58-40.78,129.67-20.46,190.31,1.49,2.43,2.79,4.92,3.84,7.51Z"></path> <path class="cls-13" d="m195.86,416.7c10.37,10.22,21.4,19.98,28.26,31.17-1.81-5.41-3.07-10.91-3.88-16.48-.53-.19-1.05-.39-1.57-.59-8.43-3.32-16.09-8.17-22.82-14.1Z"></path> <path class="cls-6" d="m235.52,285.16c-27.31,16.42-52.39,43.43-64.61,74.44-.39.98-.75,1.97-1.11,2.96-.88,6.71-.33,12.83,1.26,18.5.85-10.33,3.14-20.51,6.88-29.99,8.24-20.89,30.85-47.86,44.9-42.32,5.57,2.2,10.54,8.12,14.2,14.76,2.23-8.76,4.25-17.44,5.74-25.96-.85-4.83-2.86-9.18-7.27-12.38Z"></path> <path class="cls-18" d="m174.62,388.77c-.03.39-.06.78-.09,1.16,2.77,5.52,6.48,10.64,10.67,15.52,3.32,3.87,6.95,7.59,10.66,11.25,6.73,5.94,14.39,10.78,22.82,14.1.52.2,1.04.4,1.57.59-4.42-30.47,4.86-63.05,13.38-94.85-1.9-5.34-5.11-9.78-10.69-11.98-11.16-4.4-31.36.81-40.37,23.67-4.3,10.9-6.77,25.98-7.94,40.53Zm37.51-58.09c18.1,7.14,12.07,26.75,3.07,86.82q-.43-.17-.86-.34c-.94,1.12-2.47,2.46-2.91,2.34-.92-.26-1.8-.56-2.66-.89-17.22-6.79-36.53-32.37-22.32-68.42,7.63-19.36,18.45-22.35,25.68-19.5Z"></path> <path class="cls-8" d="m171.06,381.05c.87,3.08,2.04,6.04,3.46,8.88.03-.39.06-.78.09-1.16,1.17-14.55,3.65-29.63,7.94-40.53,9.01-22.86,29.21-28.07,40.37-23.67,5.59,2.2,8.8,6.64,10.69,11.98,1.17-4.37,2.32-8.72,3.43-13.06-3.66-6.63-8.63-12.56-14.2-14.76-14.05-5.54-36.66,21.43-44.9,42.32-3.74,9.49-6.04,19.67-6.88,29.99Z"></path> <path class="cls-12" d="m173.67,348.02c-2.03,5.15-3.27,9.97-3.87,14.53.36-.99.72-1.98,1.11-2.96,12.22-31.01,37.3-58.02,64.61-74.44,4.41,3.2,6.41,7.55,7.27,12.38,2.42-13.81,3.46-27.22,1.8-39.97-15.22,32.45-57.83,57.25-70.92,90.46Z"></path> <path class="cls-9" d="m212.13,330.68c-7.23-2.85-18.05.15-25.68,19.5-14.21,36.05,5.1,61.63,22.32,68.42.86.34,1.74.64,2.66.89.45.12,1.97-1.21,2.91-2.34q.43.17.86.34c9-60.07,15.03-79.69-3.07-86.82Zm3.26,57.59c-1.52,3.86-3.44,7.57-5.96,11.04-15.97-7.17-24.08-25.86-17.63-42.22,4.15-10.52,12.8-25.53,23.55-21.29,15.68,6.18,1.59,48.53.04,52.47Z"></path> <path class="cls-13" d="m191.8,357.08c-6.45,16.36,1.66,35.05,17.63,42.22,2.52-3.47,4.44-7.18,5.96-11.04,1.56-3.95,15.64-46.29-.04-52.47-10.75-4.24-19.4,10.77-23.55,21.29Z"></path> <path class="cls-17" d="m251.1,257.76c-.06,7.23-.87,14.76-2.16,22.56,4.85-6.57,12.24-7.4,19.81-4.42,6.07,2.39,32.6,30.74,28.39,79.65,12.89-39.92-11.6-76.53-46.04-97.79Z"></path> <path class="cls-2" d="m227.96,455.38c1.1,2.72,1.93,5.53,2.44,8.45.5,2.89.68,5.9.48,9.04.28-1.69.57-3.37.87-5.05,1.54-8.62,3.4-17.1,6.55-25.09,4.91-12.44,15.49-23.94,26.65-36.76-20.7,13.04-28.25,40.93-39.36,38.39.65,3.67,1.43,7.34,2.38,11.02Z"></path> <path class="cls-16" d="m262.87,308.74c-7.85-3.09-16.59.35-21.88,6.96-10.22,39.38-23.43,83.44-15.4,128.66,11.11,2.55,18.66-25.35,39.36-38.39,5.35-6.15,10.82-12.6,15.88-19.61,15.22-45.56-2.04-71.35-17.95-77.62Zm-30.48,119.85c-1.72-.68-2.91-2.04-3.92-3.53-5.54-8.28,1.9-65.66,9.49-84.91,2.74-6.95,12.65-28,20.69-24.83,10.55,4.16,30.01,29.67,16.73,63.37-7.99,20.26-25.22,38.59-42.99,49.91Z"></path> <path class="cls-2" d="m270.53,295.52c-8.35-3.29-17.27-3.08-26.25,7.08-1.04,4.3-2.15,8.67-3.29,13.09,5.3-6.61,14.04-10.06,21.88-6.96,15.91,6.27,33.17,32.06,17.95,77.62,2.47-3.43,4.84-6.99,7.05-10.72,4.9-32.47,12.43-68.39-17.34-80.12Z"></path> <path class="cls-4" d="m268.75,275.9c-7.57-2.98-14.96-2.15-19.81,4.42-1.2,7.21-2.81,14.64-4.65,22.28,8.98-10.16,17.89-10.38,26.25-7.08,29.76,11.73,22.24,47.65,17.34,80.12,2.87-4.85,5.45-9.96,7.61-15.43.61-1.56,1.16-3.11,1.66-4.66,4.21-48.91-22.32-77.26-28.39-79.65Z"></path> <path class="cls-5" d="m258.66,315.31c-8.04-3.17-17.95,17.89-20.69,24.83-7.59,19.25-15.03,76.63-9.49,84.91,1,1.5,2.19,2.86,3.92,3.53,17.77-11.32,35-29.65,42.99-49.91,13.29-33.7-6.18-59.21-16.73-63.37Zm-15.76,94.2c-.63.25-1.23.21-1.79-.01-11.11-4.38-6.69-55.08-2.2-66.45,2.84-7.21,11.93-20.75,17.74-18.46,8.81,3.47,20.7,33.34,10.28,59.76-4.4,11.15-12.36,20.48-24.02,25.17Z"></path> <path class="cls-10" d="m256.64,324.58c-5.81-2.29-14.89,11.25-17.74,18.46-4.49,11.38-8.91,62.07,2.2,66.45.57.22,1.16.27,1.79.01,11.66-4.69,19.63-14.01,24.02-25.17,10.42-26.42-1.48-56.29-10.28-59.76Z"></path> </g> </g> </g> </svg> 