<?xml version="1.0" encoding="UTF-8"?> <svg xmlns="http://www.w3.org/2000/svg" id="Layer_2" data-name="Layer 2" viewBox="0 0 413.4 499.55"> <defs> <style> .cls-1 { fill: #8d868f; } .cls-2 { fill: #9896a4; } .cls-3 { fill: #888893; } .cls-4 { fill: #b2b1be; } .cls-5 { fill: #878893; } .cls-6 { fill: #d2d6e1; } .cls-7 { fill: #6f6e76; } .cls-8 { fill: #979eac; } .cls-9 { fill: #878691; } .cls-10 { fill: #cac9d3; } .cls-11 { fill: #79737a; } .cls-12 { fill: #b5bece; } .cls-13 { fill: #8c8790; } .cls-14 { fill: #858892; } .cls-15 { fill: #939baa; } .cls-16 { fill: #b3bccc; } .cls-17 { fill: #878189; } .cls-18 { fill: #727077; } </style> </defs> <g id="clipping_mask" data-name="clipping mask"> <g> <path class="cls-17" d="m294.82,108.53c-.55-.33-6.36,4.77-16.36,14.36-5.57,5.36-12.5,12.15-20.44,20.21-.16-.93-.33-1.74-.39-2.37-.2-1.26-.32-1.94-.32-1.94,0,0,0,.67,0,1.95-.04.77.03,1.81,0,3.05v.03c-6.04,6.11-12.69,12.96-19.8,20.49-16.8,17.8-36.18,39.42-55.41,64.75-19.18,25.29-37.88,54.55-52.59,87.01-14.71,32.46-24.31,64.81-30.1,94.72-4.38,22.74-6.78,44.06-7.59,63.18-1.49-11.55-3.1-23.78-4.85-36.44-2.47-17.75-4.93-34.75-8.4-50.21-3.33-15.44-7.77-29.31-12.45-40.77-4.75-11.49-9.74-20.5-13.65-26.58-1.82-3.1-3.54-5.37-4.6-6.96-.84-1.22-1.39-1.99-1.58-2.26.2.33.61,1.14,1.29,2.36.85,1.63,2.34,4,3.81,7.15,3.23,6.23,7.3,15.36,11.1,26.8,3.72,11.45,7.16,25.18,9.77,40.51,2.74,15.29,4.74,32.19,7.19,49.96,3.1,22.49,6.19,43.62,9.04,62.02,3.62-.18,7.24-.36,10.86-.54-.94-5.16-1.76-10-2.46-14.4,1.38-21.3,4.84-45.78,10.77-72.16,2.71-12.04,6.02-24.46,9.97-37.15,2.55-4.72,5.67-9.74,9.8-14.68,3.16-3.76,6.83-7.51,11.38-10.82,4.39-3.45,9.6-6.5,15.22-9.32,11.36-5.57,23.39-9.63,34.54-13.16,11.12-3.53,21.29-6.67,29.63-9.66,8.39-2.91,14.81-5.8,19.2-7.8,3.74-1.87,6-3.07,6.51-3.33-.51.17-3.01,1.05-7.11,2.51-4.74,1.5-11.57,3.67-20.3,5.88-8.67,2.26-19.13,4.69-30.7,7.75-11.56,3.03-24.21,6.85-36.31,12.75-9.84,4.82-18.18,10.94-24.33,17.56,4.05-11.14,8.64-22.43,13.77-33.72,6.42-14.19,13.57-27.75,21.16-40.66,1.34-1.66,2.86-3.43,4.47-5.25,5.89-6.73,13.64-14.31,22.73-22.49,9.05-8.2,19.43-16.98,29.86-26.65,10.41-9.71,19.35-19.71,26-29.55,6.65-9.84,11.09-19.46,13.21-27.9,1.57-6.14,2.16-11.6,2.14-15.99,9.34-10.45,17.17-19.19,23.18-25.94,8.98-10.17,13.73-15.93,13.16-16.3Zm-42.16,57.25c-2.94,7.96-8.12,16.88-15.16,26.12-7.08,9.26-16.17,18.72-26.4,28.28-10.26,9.55-20.53,18.46-29.38,26.96-1.65,1.55-3.21,3.1-4.77,4.63,4.35-6.43,8.74-12.69,13.17-18.71,18.6-25.29,37.26-47.15,53.22-65.33,4.55-5.08,8.87-9.92,12.88-14.43-.71,3.68-1.82,7.88-3.57,12.47Z"></path> <g> <path class="cls-6" d="m326.72,81.12c1.17-.84,2.26-1.75,3.43-2.59,8.34-5.98,20.51-12.5,33.64-18.59-3.3,1.98-6.49,4.08-9.54,6.27-5.53,3.97-7.93,7.3-13.77,11.91,6.39-1.58,13.25-2.62,20.48-3.97-7.66,2.3-14.33,4.79-15.1,5.34-.29.21-.44.46-.74.67,0,0-4.5,1.41-8.5,4.28-2.05,1.47-4.28,3.59-6.09,5.42,11.66-6.37,29.66-10.48,39.93-12.45-8.32,3.25-17.67,6.85-18.26,7.27-.64.46-10.3,4.27-13.9,6.85-3.8,2.72-7.04,6.05-10.85,8.77-.7.5-1.45.96-2.2,1.4,11.39-3.74,24.37-9.61,33.67-14.13-13.9,9.54-34.69,20.09-48.73,24.65,11.02-1.48,28.77-6.51,44.39-14.13-22.92,14.2-39.66,17.38-53.68,19.75,1.87.25,3.33.25,4.65.15,12.16-1.4,35.3-6,55.18-18.04-2.36,2.22-4.84,4.35-7.48,6.24-11.35,8.14-31.4,14.76-48.5,18.25-2.51.51-4.95.96-7.29,1.33-6.19-.2-12.82-.55-20.07-.76-.04-2.02,0-4.05.13-6.09,5.13-6.36,12.61-13.28,24.54-21.83,9.89-7.09,24.53-15.85,24.68-15.96Z"></path> <path class="cls-16" d="m354.24,66.21c3.06-2.19,6.24-4.29,9.54-6.27,14.8-6.87,30.83-13.21,44.08-17.62,1.85-.44,3.7-.9,5.54-1.39-.65.51-1.25,1.05-1.89,1.57-8.03,2.65-22.92,11.53-24.01,12.31-.83.59-3.79,2.94-5.91,5,3.68-2.24,7.77-4.12,11.98-5.8-1.95,1.6-3.76,3.32-5.84,4.81-2.64,1.89-5.79,3.32-8.37,5.17-.71.51-1.5,1.31-2.11,2.16,2.84-1.51,6.54-2.99,10.04-4.31-3.66,3.42-7.49,7.56-8.3,8.24-.39.33-.69.73-.97,1.14.5-.24.97-.48,1.48-.72.27-.13.53-.3.79-.49.12-.09.25-.18.37-.27.41-.3,6.31-3.27,9.99-4.91-1.88,2.57-3.62,5.1-5.23,7.56,0,0,0,0-.01,0-2.05,1.47-6.06,2.79-6.16,2.86-.31.22-.52.49-.91.78,0,0-3.12.46-7.91,1.38-10.28,1.97-28.27,6.09-39.93,12.45,1.8-1.84,4.03-3.95,6.09-5.42,4-2.87,8.5-4.28,8.5-4.28.29-.21.45-.46.74-.67.77-.55,7.44-3.04,15.1-5.34-7.22,1.36-14.09,2.39-20.48,3.97,5.84-4.61,8.24-7.94,13.77-11.91Z"></path> <path class="cls-8" d="m381.6,59.81c2.12-2.05,5.08-4.4,5.91-5,1.09-.78,15.98-9.65,24.01-12.31-8.61,7.1-15.37,14.84-20.85,22.33-3.68,1.64-9.58,4.62-9.99,4.91-.12.09-.25.18-.37.27-.26.18-.51.36-.79.49-.5.24-.98.48-1.48.72.28-.42.57-.82.97-1.14.81-.67,4.64-4.82,8.3-8.24-3.51,1.32-7.2,2.79-10.04,4.31.61-.85,1.4-1.65,2.11-2.16,2.58-1.85,5.73-3.27,8.37-5.17,2.08-1.49,3.89-3.21,5.84-4.81-4.21,1.68-8.3,3.56-11.98,5.8Z"></path> <path class="cls-16" d="m354.57,98.09c-15.61,7.62-33.37,12.65-44.39,14.13,14.04-4.55,34.83-15.1,48.73-24.65-9.3,4.52-22.28,10.39-33.67,14.13.76-.44,1.5-.9,2.2-1.4,3.8-2.73,7.05-6.05,10.85-8.77,3.61-2.59,13.27-6.4,13.9-6.85.59-.42,9.94-4.02,18.26-7.27,4.79-.92,7.91-1.38,7.91-1.38.4-.28.6-.55.91-.78.1-.07,4.1-1.39,6.16-2.86,0,0,0,0,.01,0-8.16,12.45-13.23,23.07-18.51,26.86-6.32,4.53-12.14,10.16-18.81,14.95-15.08,10.82-29.46,12.11-47.68,11.66-.99-.02-1.99-.05-3-.08,2.34-.37,4.79-.82,7.29-1.33,17.1-3.49,37.15-10.11,48.5-18.25,2.64-1.89,5.12-4.03,7.48-6.24-19.88,12.04-43.02,16.65-55.18,18.04-1.32.1-2.77.1-4.65-.15,14.02-2.37,30.76-5.55,53.68-19.75Z"></path> <path class="cls-14" d="m407.87,42.32c-25,8.32-59.97,23.48-77.72,36.21-1.17.84-2.26,1.75-3.43,2.59-.07.05-2.89,1.74-6.88,4.23,3.87-6.9,8.82-13.69,15.85-18.72,10.63-7.62,23.5-8.62,27-9.21-12.91-.21-23.51,5.01-32.57,11.52-4.06,2.91-7.14,5.31-9.53,7.31,1.95-3.93,6.41-7.59,12.27-11.8.28-.2.56-.37.84-.56-2.94,1.44-6.18,3.31-9.86,5.95-4.46,3.2-10.67,8.83-15.52,14.21,1.85-4.07,4.76-7.81,8.08-11.25-4.22,3.55-7.51,6.92-10.1,10.08,1.01-2.43,2.55-4.96,4.1-7.2-4.75,4.82-10.97,12.76-15.89,21.7,1.62-6.19,4.48-13.63,8.27-20.67.38-.28.73-.56,1.12-.84,34.14-24.48,69.74-25.35,103.96-33.54Z"></path> <path class="cls-7" d="m290.31,106.13c-5.52,4.65-9.62,8.83-12.82,12.78.9-13.92,6.39-28.25,25.28-42.21-3.79,7.04-6.65,14.47-8.27,20.67,4.92-8.94,11.14-16.88,15.89-21.7-1.55,2.25-3.09,4.78-4.1,7.2,2.59-3.16,5.88-6.54,10.1-10.08-3.32,3.44-6.22,7.18-8.08,11.25,4.85-5.38,11.05-11.01,15.52-14.21,3.68-2.64,6.92-4.51,9.86-5.95-.28.18-.57.36-.84.56-5.86,4.21-10.32,7.87-12.27,11.8,2.39-1.99,5.48-4.4,9.53-7.31,9.06-6.5,19.66-11.73,32.57-11.52-3.5.59-16.37,1.59-27,9.21-7.02,5.04-11.98,11.82-15.85,18.72-5.15,3.21-12.23,7.74-17.8,11.73-1.78,1.28-3.45,2.52-5.05,3.72-2.43,1.85-4.65,3.62-6.68,5.32Z"></path> </g> <g> <path class="cls-10" d="m226.43,79.5c-10.5,21.75-8.79,44.22-6.28,57.29,6.18-20.54,16.81-43.92,21.23-52.67-22.14,58.39,3.31,61.35-14.69,85.6-.13.18-.29.38-.43.57,2.35-1.77,4.67-3.94,6.66-6.62,9.41-12.68,17.33-30.36,19.49-48.98,3.26,21.84-1.9,38.87-12.72,53.45-3.44,4.63-7.19,9.06-10.96,13.1,5.78-4.7,12.23-11,19.86-21.29,1.14-1.54,6.28-8.72,9.23-14.34-3.14,11.2-9.04,25.76-19.86,40.35-6.25,8.43-13.16,16.54-19.55,24.92,9.35-7.68,23-19.82,31.93-31.85,4.87-6.56,8.95-14.64,12.31-23.2-1.38,11.82-4.95,22.6-11.69,31.68-5.61,7.56-48.07,58.03-72.21,70.94,11.48-29.8,13.52-83.3,20.17-137.35,2.47-5.82,5.31-11.3,8.54-15.65,3.03-4.08,6.73-7.82,9.75-11.89.11-.15,4.03-6.5,9.21-14.04Z"></path> <path class="cls-1" d="m235.23,17.31c2.63,11.82,6.47,24.92,10.48,38.6-2.05,3.78-3.53,8.16-4.51,12.45-3.42-8.38-5.87-26.19-5.35-33.37-1.22,5.84-3.69,20.09-2.89,36.54-3.85-12.73-7.52-31.12-5.46-43.87-8.18,12.42-10.13,20.59-9.84,26.32-1.35-4.07-2.02-8.43-2.26-12.86,1.1-4.22,2.21-8.32,3.32-12.27,3.81-10.36,8.26-20.07,13.52-28.85h0c.56,5.35,1.61,11.16,2.98,17.31Z"></path> <path class="cls-11" d="m155.65,197.52c.12-.38.3-.74.55-1.08.4-.54-.89-5.66-.65-5.99,0,0-3.58-21.43-3.59-21.52,0,0,.16-.84.4-2.09,2.49,10.82,6.35,15.79,9.87,19.7,6.25-12.09-4.12-34.98,3.12-50.96-.64,9.1,6.34,21.22,11.35,31.6,1.43-12.84,7.43-27.95,12-42.5-.38,21.42-4.54,47.36,3.33,61.49-3.07,29.12-6.55,54.78-13.29,72.26-1.99,1.06-3.87,1.9-5.58,2.41-9.85-15.86-27.79-52.51-32.52-94.37,4.99,12.66,10.52,23.29,15,31.04Z"></path> <path class="cls-4" d="m165.68,63.97c-.42,2.06-.72,4.62-.88,7.36-3.85,11.47-9.5,28.55-11.24,42.27-2.02-8.2-2.4-17.94-1.75-26.34,3.58-7.78,8.01-15.42,13.49-22.81.12-.17.24-.32.37-.48Z"></path> <path class="cls-4" d="m168.22,60.66c1.56-1.98,3.09-3.84,4.6-5.59-3.41,9.85-5.13,21.45-5.12,37.34-2.58-3.47-3.35-13.05-2.9-21.08.16-2.75.45-5.31.88-7.36.85-1.14,1.7-2.24,2.54-3.31Z"></path> <path class="cls-13" d="m164.81,71.33c-.46,8.03.31,17.61,2.9,21.08-.01-15.9,1.71-27.49,5.12-37.34.27-.31.53-.58.8-.89,2.32,9.28,5.71,17.23,8.55,22.45-3.81-8.4-4.31-16.69,3.33-26.99.66-.89,1.22-1.71,1.84-2.54.84-1.13,2.36-2.94,4.04-4.89-.55,2.56-1.03,5.57-1.28,8.37-.16.56-.21,1.21-.13,1.94.15,1.5.72,3.25,1.43,4.89.02-5.99,3.16-13.52,7.67-19.59.5-.67,1.03-1.33,1.56-1.99-.8,4.42-1.09,9.36.37,13.25-.17-3.34.42-7.41,3.65-11.75,1.16-1.56,3.47-4.85,4.89-7.82,2.37,6.65,3.46,11.81,3.75,15.86-12.83,44-16.56,96.43-21.24,140.79-7.87-14.13-3.71-40.07-3.33-61.49-4.57,14.55-10.57,29.66-12,42.5-5-10.38-11.98-22.5-11.35-31.6-7.24,15.98,3.13,38.87-3.12,50.96-3.52-3.91-7.38-8.88-9.87-19.7-.24,1.26-.4,2.09-.4,2.09,0,.08,3.58,21.52,3.58,21.52-.24.32,1.05,5.44.65,5.99-.25.34-.43.7-.55,1.08-4.48-7.75-10.01-18.38-15-31.04-2.89-25.64-.78-53.23,11.17-79.21-.65,8.41-.27,18.14,1.75,26.34,1.74-13.72,7.39-30.8,11.24-42.27Z"></path> <path class="cls-4" d="m232.24,0c-7.99,13.32-14.12,28.75-18.97,45.37-.28-4.06-1.37-9.21-3.75-15.86-1.41,2.97-3.73,6.26-4.89,7.82-3.23,4.35-3.82,8.41-3.65,11.75-1.45-3.9-1.17-8.83-.37-13.25-.52.66-1.06,1.32-1.56,1.99-4.5,6.07-7.65,13.6-7.67,19.59-.72-1.64-1.28-3.39-1.43-4.89.03-.63.07-1.27.13-1.94.25-2.8.73-5.8,1.28-8.37-1.68,1.95-3.21,3.76-4.04,4.89-.62.83-1.18,1.65-1.84,2.54-7.64,10.3-7.14,18.59-3.33,26.99-2.84-5.22-6.23-13.18-8.55-22.45C194.38,30.53,211.54,26.19,232.24,0Z"></path> <path class="cls-10" d="m215.4,41.12c-.04-.76-.1-1.53-.11-2.29,1.08-3.39,2.23-6.71,3.43-9.97-1.11,3.94-2.22,8.04-3.32,12.27Z"></path> <path class="cls-10" d="m201.77,114.95c-.99,1.98-1.96,4.02-2.85,6.13,3.49-28.39,8.28-56.91,16.37-82.25.01.77.07,1.53.11,2.29-6.42,24.63-12.32,53-13.63,73.82Z"></path> <path class="cls-2" d="m217.66,53.99c-.29-5.73,1.66-13.9,9.84-26.32-2.07,12.75,1.61,31.14,5.46,43.87-.8-16.46,1.67-30.7,2.89-36.54-.52,7.18,1.93,24.99,5.35,33.37.98-4.3,2.45-8.67,4.51-12.45,9.75,33.27,20.45,69.96,16.95,99.9-3.36,8.56-7.44,16.63-12.31,23.2-8.93,12.03-22.58,24.17-31.93,31.85,6.39-8.37,13.3-16.49,19.55-24.92,10.82-14.58,16.72-29.15,19.86-40.35-2.95,5.62-8.09,12.8-9.23,14.34-7.64,10.29-14.08,16.6-19.86,21.29,3.77-4.04,7.52-8.47,10.96-13.1,10.82-14.58,15.98-31.6,12.72-53.45-2.16,18.62-10.07,36.3-19.49,48.98-1.99,2.69-4.31,4.85-6.66,6.62.14-.19.3-.39.43-.57,17.66-23.8-6.49-27.13,13.53-82.43.38-1.05.74-2.08,1.16-3.17-.4.79-.87,1.74-1.36,2.76-4.97,10.24-14.25,31.23-19.87,49.91-2.51-13.07-4.22-35.54,6.28-57.29-5.18,7.54-9.1,13.88-9.21,14.04-3.02,4.07-6.73,7.81-9.75,11.89-2.06,2.77-3.94,6.03-5.69,9.52,1.3-20.82,7.21-49.19,13.63-73.82.24,4.44.91,8.8,2.26,12.86Z"></path> </g> <g> <path class="cls-9" d="m233.15,259.74c-11.47,9.62-22.56,23.05-23.2,39.5-.02.59-.04,1.18-.06,1.78-.1,2.65-.77,5.51-.78,5.68-.06,1.62.48,3.17.42,4.88,0,.16.01.33.03.5,5.1-11.94-1.67-19.85,20.38-44.43.54-.42,1.05-.8,1.51-1.14-5.88,6.99-8.82,14.58-9.12,22.33-.1,2.46-.07,4.94,0,7.42,7.87-20.37,22.15-20.98,31.52-31.75-2.9,8.38-7.89,12.89-11.69,16.6,13.62-8.71,32.02-13.17,41.35-22.88-10.1,14.95-33.38,21.27-36.84,31.75,18.84-12.18,54.27-26.05,71.65-42.22-22.73,26.12-61.52,44.56-92.94,60.45-5.02,2.54-9.85,5.02-14.39,7.45-4.16,2.23-8.1,4.42-11.71,6.58-2.84-2.16-4.66-4.79-4.53-7.95.97-24.99,20.39-43.35,38.4-54.55Z"></path> <path class="cls-12" d="m293.57,246.52c3.98-2.64,7.77-5.4,11.02-7.9-5.04,1.74-12.02,3.61-21.16,4.92,16.66-5.68,39.55-17,52.53-28.97-.95,4.33-2.38,8.49-4.17,12.49-8.24,10.62-18.42,14.87-24.56,16.84,5.04-3.28,9.89-6.95,12.97-10.54-7.05,4.98-17.19,9.79-26.64,13.16Z"></path> <path class="cls-15" d="m209.89,301.02c.02-.6.04-1.19.06-1.78.64-16.45,11.73-29.88,23.2-39.5,14.14-8.8,27.41-13.18,30.18-12.89.69.07,1.14.32,2.38.45,3.38.35,9.86-1.08,17.72-3.76,9.14-1.31,16.11-3.18,21.16-4.92-3.25,2.5-7.05,5.26-11.02,7.9,9.45-3.37,19.58-8.18,26.64-13.16-3.08,3.59-7.94,7.26-12.97,10.54,6.15-1.97,16.33-6.22,24.56-16.84-1.32,2.95-2.84,5.82-4.54,8.61-2.58,4.21-5.57,8.24-8.92,12.1-17.38,16.17-52.81,30.04-71.65,42.22,3.46-10.48,26.74-16.8,36.84-31.75-9.33,9.7-27.72,14.16-41.35,22.88,3.79-3.71,8.79-8.22,11.69-16.6-9.37,10.77-23.66,11.38-31.52,31.75-.06-2.48-.09-4.96,0-7.42.3-7.74,3.24-15.33,9.12-22.33-.46.33-.97.72-1.51,1.14-22.05,24.58-15.28,32.49-20.38,44.43-.02-.17-.04-.35-.03-.5.07-1.71-.48-3.26-.42-4.88,0-.17.67-3.04.78-5.68Z"></path> <path class="cls-18" d="m199.87,322.64c-.19-.13-.4-.25-.58-.39,40.93-24.57,122-51.84,136.03-105.22-4.07,41.92-92.52,89.64-135.44,105.6Z"></path> <g> <path class="cls-18" d="m243.16,302.9c1.44.59,3.25,1.16,5.21,1.6-2.73.19-5.45.17-8.11-.09.96-.5,1.93-1,2.9-1.52Z"></path> <path class="cls-18" d="m211.41,318.03c2.07-.88,4.2-1.8,6.39-2.77.74-.33,1.49-.67,2.25-1.01.38-.17.77-.35,1.16-.53.66-.3,1.32-.61,1.99-.91,2.19-1.01,4.42-2.07,6.68-3.17.72.59,1.47,1.14,2.23,1.66,2.65,3.41,10.46,9.47,21.65,10.64,1.86.19,3.73.26,5.59.23-3.96.87-9.16,1.49-15.5.82-1.93-.2-7.42-1.21-13.28-3.36,2.17,1.47,4.63,2.79,7.23,3.82-4.74-.83-10.01-1.42-15.94-5.18,1.56,4.73,5.8,7.66,11.71,9.98-2.97-.73-8.11-1.95-12.79-3.81,1.42,1.9,3.49,3.88,6.39,5.45-1.97-.07-3.95-.21-5.95-.42-6.96-.73-15.84-2.96-21.35-6.84,3.56-1.32,7.43-2.87,11.54-4.61Z"></path> </g> <path class="cls-3" d="m233.56,328.25c-5.91-2.31-10.15-5.25-11.71-9.98,5.93,3.76,11.2,4.35,15.94,5.18-2.6-1.03-5.06-2.36-7.23-3.82,5.86,2.15,11.35,3.16,13.28,3.36,6.34.66,11.55.04,15.5-.82-1.86.03-3.72-.04-5.59-.23-11.19-1.17-19-7.23-21.65-10.64-.76-.52-1.5-1.07-2.23-1.66,3.4-1.65,6.87-3.39,10.38-5.21,2.66.26,5.38.27,8.11.09-1.96-.45-3.77-1.01-5.21-1.6,1.56-.82,3.13-1.66,4.71-2.52,24.56-13.32,50.19-30.22,67.34-47.93,2.61-2.7,5.03-5.41,7.21-8.14,4.52-5.64,8.04-11.33,10.28-16.96-.78,4.48-2.01,8.99-4.11,13.09,2.2-1.66,4.54-3.81,6.77-6.56-2.9,8.12-6.38,13.03-9.84,16.15,2.1-.96,4.26-2.17,6.3-3.49-5.25,10.1-14.07,20.76-27.13,22.43,8.1-.33,16.93-5.42,23.31-10.31-4.91,7.51-10.9,12.56-16.18,15.74,5.51-1.84,11.06-5.1,15.58-8.55-4.76,7.68-7.68,12.31-9.79,15.17,2.48-1.21,5.1-2.87,7.9-5.25-10.74,23.59-27.13,44.03-43.87,42.28,0,0-19.58,9.92-43.98,11.64-3.42.24-6.93.33-10.5.2-2.9-1.57-4.97-3.55-6.39-5.45,4.68,1.86,9.82,3.08,12.79,3.81Z"></path> <path class="cls-12" d="m311.81,274.39c5.27-3.18,11.27-8.22,16.18-15.74-6.38,4.9-15.21,9.98-23.31,10.31,13.07-1.66,21.88-12.33,27.13-22.43-2.04,1.31-4.2,2.52-6.3,3.49,3.46-3.12,6.94-8.03,9.84-16.15-2.23,2.75-4.57,4.9-6.77,6.56,2.1-4.1,3.33-8.6,4.11-13.09,1.38-3.46,2.29-6.91,2.62-10.32.22-.82.47-1.63.65-2.46.15-.14.31-.28.46-.42,1.23,5.15,1.64,10.38,1.44,15.64,0,.22-.02.45-.03.68-.2,3.99-.78,8.37-1.7,12.98-.67,3.37-1.52,6.86-2.53,10.4-.89,3.11-1.9,6.26-3.03,9.41-1.5,4.2-3.2,8.4-5.07,12.5-2.8,2.37-5.42,4.03-7.9,5.25,2.11-2.86,5.03-7.49,9.79-15.17-4.53,3.44-10.07,6.7-15.58,8.55Z"></path> </g> <g> <path class="cls-15" d="m9.05,224.68c.66,2.16,1.54,4.65,2.61,7.22.41,21.42,53.61,119.13,60.98,151.92-1.03,1.12-2.09,2.22-3.2,3.29-18.13-16.25-42-49.78-56.51-86.61,2.52,3.9,5.08,7.41,7.41,10.4-6.17-11.47-8.85-25.06-8.68-31.76,1.8,7.17,6.68,12.84,11.75,16.06-6.19-6.17-8.7-14.36-9.96-22.07,1.89,2.18,4.46,3.46,6.81,4.73-5.02-8.51-11.5-19.38-11.53-19.99-.08-2.11-.22-4.2-.46-6.27,1.56,1.68,3.51,3.17,5.1,4.28-5.53-14.52-5.16-25.22-4.32-31.21Z"></path> <path class="cls-12" d="m17.08,181.02c.24.59.5,1.19.77,1.79-9.21,24.94-4.88,44.93-4.88,44.93-.21.45-.67.86-.88,1.31-.32.69-.45,1.66-.42,2.85-1.07-2.57-1.95-5.06-2.61-7.22-.84,5.99-1.21,16.69,4.32,31.21-1.59-1.11-3.54-2.6-5.1-4.28.24,2.07.38,4.15.46,6.27.02.6,6.5,11.48,11.53,19.99-2.35-1.28-4.92-2.56-6.81-4.73,1.26,7.7,3.76,15.9,9.96,22.07-5.07-3.22-9.94-8.88-11.75-16.06-.17,6.7,2.51,20.29,8.68,31.76-2.33-3-4.88-6.5-7.41-10.4C-.07,267.5-5.55,231.86,7.36,203.66c1.36-2.97,2.78-5.95,4.15-8.95,2.05-4.47,3.99-9.01,5.56-13.69Z"></path> <path class="cls-5" d="m17.85,182.81c8.24,18.5,28.93,42.17,46.54,69.07,10.33,15.79,19.61,32.68,24.69,50.31.21.72.39,1.45.59,2.18,1.17,9.27.79,19.31-3.4,28.45-1.81,3.94-3.49,5.59-5.59,7.38,9.29-22.89-4.27-37.87-4.89-51.83-6.14,16.2,5.89,24.97.33,37.12-.69,1.51-1.51,3-2.45,4.42,8.44-24.79-11.35-37.12-10.85-49.48-1.18,1.41-1.99,2.32-2.05,2.45-2.22,4.85,2.75,14.97,4.49,24.46-4.86-12.34-15.16-29.6-12.78-42.01-.8,1.17-1.52,2.31-2.04,3.43-2.1,4.58-1.43,9.95-.04,15.7-6.4-8.13-15.66-16.18-16.24-27.84-1.07,4.05-1.21,8.44,1.55,12.84,2.33,3.72,4.04,7.05,5.29,10.05-5.79-7.57-15.1-12.83-21.22-20.82-2.24-5.56-4.12-10.61-5.51-14.93-.22-.68-.41-1.32-.6-1.96-1.85-6.17-2.54-10.66-1.58-12.76.21-.46.67-.86.88-1.31,0,0-4.33-19.99,4.88-44.93Z"></path> <path class="cls-18" d="m41,279.51c-1.25-3-2.96-6.33-5.29-10.05-2.76-4.4-2.63-8.79-1.55-12.84.58,11.67,9.84,19.72,16.24,27.84-1.39-5.75-2.05-11.12.04-15.7.52-1.12,1.24-2.26,2.04-3.43-2.37,12.41,7.92,29.67,12.78,42.01-1.74-9.49-6.71-19.61-4.49-24.46.06-.13.87-1.05,2.05-2.45-.51,12.36,19.29,24.69,10.85,49.48.94-1.42,1.76-2.91,2.45-4.42,5.56-12.15-6.47-20.92-.33-37.12.63,13.96,14.19,28.94,4.89,51.83,2.1-1.78,3.78-3.43,5.59-7.38,4.19-9.15,4.56-19.18,3.4-28.45,5.21,19.47,5.18,39.8-4.28,60.47-3.09,6.74-7.36,13.16-12.73,18.98-5.6-24.89-37.59-87.18-52.87-125.12,6.13,7.99,15.43,13.25,21.22,20.82Z"></path> </g> </g> </g> </svg> 