<?xml version="1.0" encoding="UTF-8"?> <svg xmlns="http://www.w3.org/2000/svg" id="Layer_2" data-name="Layer 2" viewBox="0 0 481.36 473.68"> <defs> <style> .cls-1 { fill: #c2b6da; } .cls-2 { fill: #a798c9; } .cls-3 { fill: #fff; } .cls-4 { fill: #c6b9db; } .cls-5 { fill: #d4cde6; } .cls-6 { fill: #bfb5d8; } .cls-7 { fill: #9685be; } .cls-8 { fill: #ecebf1; } .cls-9 { fill: #beb3d7; } .cls-10 { fill: #9482bc; } .cls-11 { fill: #b9afd6; } .cls-12 { fill: #8f81bc; } .cls-13 { fill: #f1eef7; } .cls-14 { fill: #dfdbed; } .cls-15 { fill: #c8bfdd; } .cls-16 { fill: #ddd9eb; } .cls-17 { fill: #e9e4f1; } .cls-18 { fill: #d6cfe7; } .cls-19 { fill: #6451a2; } .cls-20 { fill: #dad2e8; } .cls-21 { fill: #dbd7ec; } .cls-22 { fill: #5e489c; } .cls-23 { fill: #a899c9; } .cls-24 { fill: #9284bd; } .cls-25 { fill: #e2e1ef; } .cls-26 { fill: #b3aad4; } .cls-27 { fill: #9286bd; } .cls-28 { fill: #6c5faa; } .cls-29 { fill: #d8d2e7; } .cls-30 { fill: #f4f3f9; } .cls-31 { fill: #9c8dc2; } .cls-32 { fill: #5c5da9; } .cls-33 { fill: #8b81bb; } .cls-34 { fill: #625ca9; } .cls-35 { fill: #ded6eb; } .cls-36 { fill: #ccc3df; } .cls-37 { fill: #a18ec4; } .cls-38 { fill: #534198; } .cls-39 { fill: #d3cce6; } .cls-40 { fill: #d5d3ea; } .cls-41 { fill: #9589c0; } .cls-42 { fill: #a195c8; } .cls-43 { fill: #e0ddef; } .cls-44 { fill: #635da9; } .cls-45 { fill: #fafcfe; } .cls-46 { fill: #ded9ec; } .cls-47 { fill: #8e81bc; } .cls-48 { fill: #847ab8; } .cls-49 { fill: #e8e5f2; } .cls-50 { fill: #f6f7fb; } .cls-51 { fill: #e0dbed; } .cls-52 { fill: #9889bf; } .cls-53 { fill: #6a56a4; } .cls-54 { fill: #cec5e0; } .cls-55 { fill: #f2ecf4; } .cls-56 { fill: #625ba8; } .cls-57 { fill: #c5bedf; } .cls-58 { fill: #f3f1f8; } .cls-59 { fill: #c4bedf; } .cls-60 { fill: #f2f0f6; } .cls-61 { fill: #dad6eb; } .cls-62 { fill: #d5cbe4; } .cls-63 { fill: #e6e0f0; } .cls-64 { fill: #cfc9e3; } .cls-65 { fill: #ab9ccb; } .cls-66 { fill: #bab0d6; } .cls-67 { fill: #edecf2; } .cls-68 { fill: #cbc7e2; } .cls-69 { fill: #f1eef5; } .cls-70 { fill: #d7d0e7; } </style> </defs> <g id="clipping_mask" data-name="clipping mask"> <g> <path class="cls-60" d="m210.21,246.31c2.11,1.35,3.95,3.08,5.33,5.12,10.63,15.63,23.73,30.13,26.58,33.24.64-.34,1.11-.8,1.32-1.42.02-.05-.33-.84-.97-2.17-3.48-7.11-15.81-29.5-29.28-34-.97-.32-1.97-.58-2.98-.76Z"></path> <path d="m302.33,134.46l-1.04-.12c-.18-.02-.35-.04-.53-.06l-1.29-.12,1.98-1.86.88,2.16Z"></path> <polygon points="396.03 103.29 394.61 105.96 394.88 103.07 394.95 101.49 396.12 102.99 396.03 103.29"></polygon> <path class="cls-63" d="m171.6,24.87c-.98,2.93-.65,6.78,1.62,8.91,17.37,4.03,22.23-9.68,31.89-11.43.24-.04.69-.5.77-.74.08-.25-4.44-1.81-4.69-1.89-16.19-5.42-27.51-1.08-29.6,5.15Z"></path> <path class="cls-60" d="m167.93,4.08c-1.58,2.94-3.45,5.21-5.51,6.97,5.87-4.15,10.74-7.72,17.85-6.84,1.5.18,21.57,2.07,38.93,4.88-4.65-1.36-9.62-2.27-14.96-2.65-16.27-1.16-30.99-12.26-36.31-2.36Z"></path> <path class="cls-49" d="m348.8,113.96c31.18,10.43,18.21,48.93,47.03,58.57,5.46,1.82,11.37,2.29,16.81.9-.19-.24-.38-.49-.58-.73.22-.11.44-.22.67-.35-18.75-8.58-5.39-44.74-49.23-60.67-6.32-.23-12.69.17-18.95,1.18,1.11.15,2.45.49,4.24,1.09Z"></path> <path class="cls-63" d="m344.56,112.87c-.77.13-1.54.26-2.3.4,20.09,22.04,11.49,64.06,45.62,75.48,16.43,5.49,22.83-4.66,27.32-11.66-.71-1.12-1.49-2.25-2.34-3.37-.07-.1-.14-.19-.22-.29-5.43,1.39-11.35.92-16.81-.9-28.83-9.64-15.86-48.14-47.03-58.57-1.8-.6-3.14-.94-4.24-1.09Z"></path> <path class="cls-35" d="m387.88,188.75c-34.13-11.42-25.54-53.44-45.62-75.48-.6.11-1.19.23-1.78.35-.06.06-.12.11-.17.17.06-.06.11-.11.17-.17-2.26.47-4.5,1.03-6.71,1.67-6.29,20.14,19.71,24.15,21.64,39.68,2.46,19.81,14.63,43.85,34.04,50.34,15.19,5.08,24.87.11,31.52-12.08-.46-4.71-1.92-9.47-4.62-14.24-.36-.63-.74-1.26-1.14-1.9-4.5,6.99-10.9,17.15-27.32,11.66Z"></path> <g> <path class="cls-31" d="m366.19,233.55c.05-.16.84-2.15,1.37-3.72,5.26-15.71.76-26.76-9.56-32.27,10.66,6.61,12.71,15.57,10.41,22.45-.7,2.1-1.9,4.11-3.68,5.93-5.51,5.63-9.39,15.21-15.03,23.95,9.05-2.99,18.34-6.89,26.39-4.29-4.7-1.71-11.93-5.95-9.89-12.05Z"></path> <path class="cls-31" d="m376.63,245.79c2.2.87,5.33,3.17,7.63,5.02,1.74-1.36,3.47-2.77,5.2-4.21-4.22.85-8.68.58-12.78-.79-.01,0-.03-.01-.04-.01Z"></path> </g> <path class="cls-45" d="m387.46,115.66c-6.34-1.94-12.99-3.19-19.73-3.73,3.16.82,6.29,1.75,9.38,2.78,6.19,2.07,12.25,4.55,18.15,7.33,24.75,11.67,21.96,41.26,19.93,47.34-.24.7-.52,1.39-.85,2.04,2.81-1.72,5.73-4.11,6.5-6.44.19-.57.25-1.13.15-1.68-5.53-30.97-8.7-39.39-31.44-46.99-.7-.23-1.4-.45-2.1-.67Z"></path> <path class="cls-30" d="m395.27,122.05c-5.91-2.78-11.96-5.26-18.15-7.33-3.09-1.03-6.22-1.97-9.38-2.78-1.4-.11-2.81-.19-4.22-.24,43.84,15.93,30.47,52.09,49.23,60.67.52-.28,1.06-.59,1.61-.92.33-.66.62-1.34.85-2.04,2.03-6.08,4.82-35.67-19.93-47.34Z"></path> <path class="cls-62" d="m389.44,205.31c-19.41-6.49-31.58-30.54-34.04-50.34-1.93-15.53-27.93-19.54-21.64-39.68-5.78,1.67-11.38,3.91-16.65,6.73.16,4.24,1.66,8.12,5.77,11.05,14.26,10.16,21.82,25.62,23.59,42.44,1.64,15.6,19.62,16.04,28.9,34.1,1.27,2.48,5.89,15.86,16.93,19.56,9.67,3.23,16.93-4.24,23.11-12.19,1.47-2.71,2.7-5.47,3.64-8.27,1.69-5.05,2.43-10.23,1.92-15.47-6.65,12.2-16.33,17.17-31.52,12.08Z"></path> <path class="cls-4" d="m392.3,229.16c-11.04-3.69-15.66-17.08-16.93-19.56-9.28-18.06-27.26-18.51-28.9-34.1-1.77-16.82-9.33-32.27-23.59-42.44-4.1-2.92-5.6-6.8-5.77-11.05-5.74,3.07-11.09,6.83-15.88,11.29.06.15.12.3.19.45,1.89.22,3.87.65,5.93,1.34,8.9,2.98,13.12,8.47,15.57,9.29s5.5.24,7.68.97c4.21,1.41,20.99,24.76,14.54,44.02-.27.8-.58,1.6-.93,2.37,2.3.73,3.78,1.23,3.85,1.25,3.92,1.31,7.22,2.85,9.94,4.55,10.32,5.5,14.81,16.56,9.56,32.27-.52,1.57-1.31,3.56-1.37,3.72-2.04,6.1,5.19,10.34,9.89,12.05.05.02.11.03.16.05.12.04.25.09.39.14.01,0,.03.01.04.01,4.1,1.37,8.57,1.64,12.78.79,10.25-8.6,20.04-18.7,25.95-29.62-6.18,7.95-13.44,15.42-23.11,12.19Z"></path> <path class="cls-49" d="m432.3,182.29c7.85,6.6,14.1,15.57,12.99,26.18-1.98,18.98-17.07,59.38,25.45,73.61.81.27,1.63.52,2.45.75.82-1.13,1.58-2.28,2.29-3.46,4.59-23.23-.45-59.33-19.66-79.58-.15-.16-8.87-8.26-16.87-15.16-1.39-.56-2.82-1.09-4.3-1.58-.78-.26-1.57-.51-2.36-.75Zm40.41,75.28c-2.65,7.93-8.68,10.43-14.15,8.6-2.64-.88-4.82-2.82-5.55-5.62-.03-.11-.05-.23-.08-.35-7.75-9.3-9.88-25.43-7.16-33.58,1.29-3.85,5.55-10.17,8.19-9.29,14.45,4.83,22.79,28.13,18.74,40.24Z"></path> <path class="cls-30" d="m475.49,279.36c1.52-2.54,2.79-5.21,3.72-8.01,4.46-13.34,6.37-67.95-40.25-86.73,8,6.9,16.72,15,16.87,15.16,19.21,20.25,24.25,56.35,19.66,79.58Z"></path> <path class="cls-30" d="m445.78,226.61c-2.73,8.15-.59,24.28,7.16,33.58.03.12.05.24.08.35.73,2.8,2.91,4.74,5.55,5.62,5.47,1.83,11.5-.67,14.15-8.6,4.05-12.11-4.29-35.41-18.74-40.24-2.64-.88-6.91,5.44-8.19,9.29Z"></path> <path class="cls-20" d="m377.31,346.94c.97-2.89-1.6-5.11-4.37-6.04-7.87-2.63-19.52,7.97-21.89,15.04-1.64,4.9-1.29,10.43-1.81,15.81,14.13-2.63,25.37-16.75,28.07-24.81Z"></path> <path class="cls-49" d="m29.43,251.51c-8.22,24.57,10.68,47.48,27.54,64.44.65-.78,1.15-1.67,1.45-2.59.41-1.21.49-2.46.18-3.52-6.4-22.58.2-59.85-18.33-66.04-7.11-2.38-8.47.59-10.85,7.71Z"></path> <path class="cls-17" d="m232.93,344.74c-19.69,21.61-50.35,37.22-77.59,28.11-42.28-14.14-23.11-53.81-28-61.6-7.14-11.38-9.4-25.72-5.44-37.57.6-1.81,1.36-3.57,2.25-5.26-6.75,2.41-12.4,7.36-14.99,15.12-4.43,13.25.62,28.7,6.53,42.97,12.91,19.51-1.06,36.69,43.37,51.55,31.76,10.62,49.82-2,59.73-10.83.96-1.48,1.81-3.06,2.55-4.75,1.13-2.6,3.13-3.1,5.18-4.1,1.94-.94,3.93-2.33,5.28-6.36,2.13-6.36,4.78-9.26,7.6-10.5-2.56.44-4.83,1.41-6.48,3.22Z"></path> <path class="cls-50" d="m159.06,378.07c-44.43-14.86-30.46-32.05-43.37-51.55,1.25,3.02,2.53,5.98,3.78,8.86,1.47,3.4-.96,7.38-.79,11.13.19,4.25,4.09,9.63,9.73,14.93,7.77,7.3,18.82,14.43,27.99,18.22,1.17.48,2.31.91,3.41,1.28,19.53,6.53,47.23,4.42,58.99-13.7-9.91,8.83-27.97,21.45-59.73,10.83Z"></path> <path class="cls-17" d="m135.56,334.82c-.64-.21-1.25-.37-1.82-.43-3.46,15.7,12.6,31.04,20.92,33.82,4.46,1.49,7.5-.68,8.61-3.98,3.05-9.11-11.35-8.73-23.79-26.57-.9-1.28-2.27-2.29-3.91-2.84Z"></path> <path class="cls-50" d="m218.26,445.66c-39.97-13.37-54.81-45.52-59.1-64.95-.9-.32-1.82-.67-2.76-1.06,1.73,16.84,15.08,53.5,67.09,70.9.35.12.69.23,1.04.34,53.67,17.6,69.06-4.33,103.43-31,2.16-1.68,3.31-3.43,3.91-5.22.06-.19.11-.37.16-.56-18.37,17.47-58.08,50.18-113.77,31.56Z"></path> <path class="cls-63" d="m261.27,402.17c-19.82-6.63-34.8,13.64-61.71,4.64-11.74-3.93-22.07-12.19-27.78-23.13-3.68-.5-7.25-1.28-10.61-2.32,6.07,16.22,20.43,34.62,38.58,40.69,30.24,10.11,43.85-17.83,70.88-14.03,20.71,2.92,43.17,10.27,61.87,1.67-.03-2.61-.31-5.22.52-7.71.52-1.56,1.4-2.89,2.51-4.08-.81-.29-1.62-.58-2.44-.86-3.09-1.03-5.8-1.59-8.21-1.81-17.37,12.43-43.19,13.78-63.62,6.95Z"></path> <path class="cls-69" d="m236.23,430.82c.76,2.17,2.78,4.73,7.87,6.43,16.48,5.51,48.96-3.32,52.42-13.67,1-3,.12-5.4-9.97-8.77-28.8-9.63-37.84,9.83-50.32,16.02Z"></path> <path class="cls-49" d="m270.63,408.03c-27.03-3.81-40.64,24.14-70.88,14.03-18.14-6.07-32.51-24.47-38.58-40.69-.46-.14-.91-.29-1.36-.44-.21-.07-.43-.15-.65-.22,4.29,19.44,19.14,51.58,59.1,64.95,55.69,18.63,95.4-14.09,113.77-31.56.4-1.46.47-2.93.46-4.41-18.7,8.61-41.15,1.25-61.87-1.67Zm25.89,15.55c-3.46,10.36-35.94,19.19-52.42,13.67-5.09-1.7-7.11-4.26-7.87-6.43,12.48-6.19,21.52-25.65,50.32-16.02,10.09,3.37,10.97,5.77,9.97,8.77Z"></path> <path class="cls-60" d="m150.78,57.79c6.95-1.35,16.87-1.52,26.79-1.07-22.62-2.59-42.4,4.96-57.95,5.6-1.73.07-3.05,3.52-4.66,4.16-6.04,2.42-11.22,5.54-15.61,9.19-7.87,6.55-13.18,14.83-16.23,23.96-5.46,16.33-3.75,35.38,3.3,52.17,1.84,4.38,3.39,8.39,4.74,12.12,6.66,18.42,8.3,29.82,14.2,42.52-9.9-37.2-27.35-72.92-16.48-105.42,8.82-26.36,34.74-37.98,61.92-43.24Z"></path> <path class="cls-63" d="m141.58,86.31c4.14-3.77,14.23-9.25,15.46-12.94.64-1.9-1.2-2.78-4.17-3.77-17.27-5.78-45.53,8.74-50.38,23.25-3.41,10.2.68,17.12,7.89,19.53.33.11.67.2,1.02.29,12.95-3.46,20.24-17.3,30.17-26.36Z"></path> <path class="cls-62" d="m150.05,212.45c2.95-8.83,5.79-10.91,32.42-2.01.42.14.84.28,1.26.43-.28-1.82-.48-3.63-.59-5.45-10.34-4.31-13.43-10.83-26.54-15.22-16.54-5.53-26.12,4.1-28.26,10.52-3.77,11.28,8.35,24.45,14.99,34.27,3.54,5.24,5.06,23.27,17.41,34.98.03-.52.13-1.06.32-1.63,1.2-3.59,4.18-5.77,6.18-9.79-7.81-14.05-22.32-30.72-17.18-46.1Z"></path> <path class="cls-63" d="m135.3,243.71c6.5,18.02,15.2,31.87,32.94,37.8,2.95.99,5.95,1.81,8.87,2.78.57.19,1.14.39,1.7.6-.32-.38-.67-.74-1.05-1.06-4.89-4.25-16.06-6.94-16.98-12.81-14.97-11.39-20.36-30.8-41.89-73.29-4.03-7.95-8.99-17-6.18-25.41,3.31-9.88,14.79-11.36,24.89-7.98,20.09,6.72,25.85,19,45.52,40.68-.12-2.29-.11-4.58.08-6.85-3.14-2.39-6.17-4.91-9.11-7.67-5.49-5.17-35.09-39.67-41.34-41.76-3.84-1.29-9.82-.67-15.62,1.84-4.77,3.22-8.53,7.83-10.6,14.02-9.27,27.72,25.11,68.93,28.79,79.12Z"></path> <path class="cls-60" d="m101.16,166.97c-1.73,5.17-1.59,10.98,1.29,16.83,12.09,24.61,20.66,43.1,27.43,57.16,5.7,11.83,10.12,20.51,14.29,27.05,7.24,11.35,13.72,16.26,24.79,19.96,4.23,1.41,8.67,2.37,13.13,2.99-.92-2.3-1.87-4.42-3.28-6.07-.56-.21-1.13-.4-1.7-.6-2.92-.98-5.92-1.8-8.87-2.78-17.74-5.93-26.44-19.79-32.94-37.8-3.68-10.2-38.06-51.4-28.79-79.12,2.07-6.19,5.83-10.8,10.6-14.02-6.75,2.92-13.28,8.39-15.96,16.4Z"></path> <path class="cls-28" d="m186.44,245c-2.85,8.52-9.8,7.5-12.85,10.61,4.05.23,9.06,1.87,12.01,2.85,1.59.53,3.17,1.08,4.75,1.62-2.58-3.62-3.96-7.2-2.92-10.31,1.01-3.03,3.89-5.02,7.39-5.94-4.2-9.29-8.59-19.68-10.63-30.23-.17.29-.32.61-.44.96-1.68,5.01,6.06,20.34,2.68,30.44Z"></path> <path class="cls-4" d="m166.52,241.86c-3.43-6.46-9.63-12.27-6.95-20.26,2.53-7.58,10.58-12.96,24.46-8.9-.11-.61-.21-1.22-.3-1.82-.42-.15-.84-.29-1.26-.43-26.63-8.91-29.46-6.82-32.42,2.01-5.14,15.38,9.36,32.05,17.18,46.1.1-.21.21-.42.31-.64.57-1.26,1.78-1.92,3.34-2.19-1-4.73-2.03-9.49-4.36-13.87Z"></path> <path class="cls-35" d="m112.71,172.32c-2.81,8.41,2.15,17.46,6.18,25.41,21.53,42.49,26.92,61.91,41.89,73.29-.05-.34-.07-.69-.05-1.05-12.35-11.71-13.86-29.73-17.41-34.98-6.64-9.82-18.76-22.99-14.99-34.27,2.15-6.41,11.73-16.05,28.26-10.52,13.11,4.39,16.2,10.9,26.54,15.22,0-.13-.01-.27-.02-.4-19.67-21.68-25.42-33.96-45.52-40.68-10.1-3.38-21.58-1.9-24.89,7.98Zm46.12,10.53c-1.9,5.69-14.1-3.67-22.6-.12-4.55,1.9-9.3,4.04-13.62,2.6-1.01-.34-2.13-.96-3.07-1.75-.41-2.46-.22-5.04.57-7.4,3.45-10.31,13.75-8.33,23.17-5.18,12.84,4.3,16.14,10.1,15.55,11.85Z"></path> <path class="cls-63" d="m120.11,176.18c-.79,2.36-.98,4.94-.57,7.4.94.79,2.06,1.41,3.07,1.75,4.31,1.44,9.06-.69,13.62-2.6,8.49-3.55,20.7,5.8,22.6.12.58-1.74-2.71-7.55-15.55-11.85-9.42-3.15-19.72-5.13-23.17,5.18Z"></path> <path class="cls-23" d="m159.57,221.6c-2.67,7.99,3.52,13.79,6.95,20.26,2.33,4.38,3.36,9.14,4.36,13.87.82-.14,1.74-.17,2.72-.11,3.05-3.11,10-2.09,12.85-10.61,3.38-10.1-4.36-25.43-2.68-30.44.12-.35.26-.66.44-.96-.06-.3-.12-.61-.17-.91-13.88-4.05-21.93,1.33-24.46,8.9Z"></path> <path class="cls-62" d="m265.65,122.34c-7.99-2.67-14.68-9.95-24.35-13.19-21.07-7.05-35.37,15.58-40.72,31.57-3.01,9-4.63,18.73-5.78,28.3,3.22-5.13,6.93-10.35,10.89-15.28.79-2.98,1.66-5.97,2.63-8.89,6.42-19.2,17.39-33.04,36.77-26.55,8.79,2.94,15.81,10.38,24.55,13.3,11.73,3.92,15.93-3.49,22.88-1.17,2.18.73,3.97,1.82,5.43,3.18.93-.02,1.88,0,2.86.09.14-.13.28-.26.41-.39-.9-2.21-1.77-4.42-2.53-6.62-.46-1.33-.73-2.65-.94-3.96-1.36-.79-2.78-1.44-4.27-1.94-13.45-4.5-17.61,4.97-27.84,1.55Z"></path> <path class="cls-4" d="m269.65,131.59c-8.74-2.92-15.76-10.36-24.55-13.3-19.39-6.48-30.35,7.35-36.77,26.55-.98,2.92-1.84,5.91-2.63,8.89,3.94-4.91,8.12-9.53,12.28-13.5,5.74-11.15,18.35-21.12,30.64-17.02,11.84,3.96,10.2,16.79,19.08,19.76,5.16,1.73,10.49-1.29,16.05-4.35,4.11-2.91,8.8-4.88,14.21-5.02-1.46-1.37-3.24-2.45-5.43-3.18-6.95-2.33-11.15,5.09-22.88,1.17Z"></path> <path class="cls-31" d="m267.69,142.97c-8.88-2.97-7.24-15.8-19.08-19.76-12.28-4.11-24.9,5.87-30.64,17.02,9.52-9.08,18.96-14.75,25.29-12.64,12.71,4.25,16.58,21.87,16.67,39.08,1.61-1.95,2.75-3.31,3.13-3.76,4.95-6.01,11.29-17.63,20.69-24.29-5.56,3.06-10.89,6.08-16.05,4.35Z"></path> <path class="cls-35" d="m249.55,111.12c-6.94-2.32-11.71-7.53-20.11-10.34-22.87-7.65-38.22-.59-45.99,22.65-6.42,19.2-4.34,40.83,4.1,58.9,1.89-4.19,4.37-8.72,7.25-13.32,1.16-9.56,2.77-19.3,5.78-28.3,5.35-15.99,19.65-38.62,40.72-31.57,9.67,3.23,16.36,10.51,24.35,13.19,10.22,3.42,14.39-6.04,27.84-1.55,1.49.5,2.91,1.15,4.27,1.94-.44-2.68-.65-5.33-1.69-7.94-.18-.46-.55-1.12-1.06-1.92-.01,0-.02,0-.03-.01-16.78-5.61-37.07,1.07-45.42-1.72Z"></path> <path class="cls-58" d="m261.96,75.57c-1.45-.48-3.02-.72-4.76-.62-12.88.74-47.98-12.55-70.96,32.42-2.61,5.1-5.06,10.96-7.3,17.67-7.17,21.44-6.67,45.02,5.75,64.85.16-.54.32-1.08.5-1.61.04-.11.07-.22.11-.33-9.85-18.69-12.19-42.24-5.67-61.72,15.36-45.91,42.42-55.8,84.51-41.72,6.97,2.33,10.78,4.37,13.63,6.74-2.15-2.46-4.29-4.83-6.27-6.95-4.45-4.76-8.12-8.27-9.53-8.74Z"></path> <path class="cls-63" d="m179.63,126.23c-6.52,19.48-4.18,43.03,5.67,61.72.61-1.78,1.36-3.66,2.25-5.62-8.44-18.07-10.52-39.7-4.1-58.9,7.77-23.24,23.12-30.3,45.99-22.65,8.4,2.81,13.17,8.02,20.11,10.34,8.35,2.79,28.64-3.89,45.42,1.72.01,0,.02,0,.03.01-2.82-4.42-10.14-13.51-17.24-21.61-2.85-2.37-6.66-4.41-13.63-6.74-42.09-14.08-69.15-4.2-84.51,41.72Zm97.42-29.35c-1.74,5.21-16.79,8.59-28.75,4.59-6.4-2.14-12.21-6.09-16.74-11.46,2.73-3.47,5.48-6.92,14.11-4.04,1.68.56,3.27,1.23,4.93,1.78,4.63,1.55,12.19,2.29,18.81,4.51,1.71.57,8.22,2.87,7.64,4.62Z"></path> <path class="cls-17" d="m250.6,87.76c-1.66-.56-3.25-1.22-4.93-1.78-8.63-2.89-11.38.57-14.11,4.04,4.53,5.37,10.34,9.32,16.74,11.46,11.96,4,27.01.62,28.75-4.59.58-1.74-5.93-4.04-7.64-4.62-6.61-2.21-14.18-2.96-18.81-4.51Z"></path> <path class="cls-50" d="m374.91,286.34c-.02.05-.27.86-.48,1.48-6.71,20.07-17.36,24.06-18.76,28.25-.11.34-.27.81-.34,1.27,13.6-2.93,24.85-13.24,28.85-25.19,1.68-5.03-1.36-10.55-3.39-11.23-2.61-.87-5,2.8-5.88,5.41Z"></path> <path class="cls-3" d="m387.4,275.39c3.14,6.51,3.09,13.29.99,19.58-8.88,26.56-43.51,34.3-73.15,34.52,8.89,1.11,17.8,1.64,26.13,1.16,13.63-3.42,24.66-9.17,32.91-15.2,9.99-7.31,15.9-15.04,17.41-19.56,2.48-7.41,1.35-16.05-2.15-24.07-2.27-5.2-.51-11.86-2.28-18.39-.03-.1-1.13-1.11-2.68-2.38,4.5,7.82-1.51,15.34,2.83,24.34Z"></path> <path class="cls-55" d="m369.14,244.78c-3.53,15.52,6.97,25.82.95,43.8-10.84,32.4-57,35.46-84.54,31.2-1.06,1.2-2.21,2.35-3.48,3.42,10.14,2.44,21.63,4.86,33.16,6.3,29.64-.22,64.27-7.96,73.15-34.52,2.1-6.29,2.15-13.07-.99-19.58-4.34-8.99,1.66-16.51-2.83-24.34-.1-.08-.2-.17-.31-.25-2.43-1.96-5.81-4.42-8.01-5.16-2.28-.76-4.65-1-7.1-.87Zm15.03,47.38c-4,11.95-15.25,22.26-28.85,25.19.07-.46.23-.93.34-1.27,1.4-4.19,12.04-8.19,18.76-28.25.21-.63.47-1.43.48-1.48.88-2.62,3.27-6.29,5.88-5.41,2.03.68,5.07,6.2,3.39,11.23Z"></path> <path class="cls-49" d="m370.1,288.58c6.01-17.98-4.48-28.28-.95-43.8-3.2.16-6.51.93-9.87,1.94-.78,1.7-1.68,3.8-2.36,5.84-6.67,19.95,1.34,26.41-3.65,41.33-3.99,11.92-14.34,22.2-27.7,22.86,0,0-25.53,1.67-39.62,2.59-.13.15-.26.31-.4.46,27.54,4.26,73.71,1.2,84.54-31.2Z"></path> <path class="cls-28" d="m271.49,84.31c-.07-.58-.15-1.16-.23-1.74-2.44-2.81-5.32-5.15-8.57-6.61,1.74,1.11,4.98,4.27,8.79,8.35Z"></path> <path class="cls-28" d="m210.4,80.01c18.66-10.64,37.96-4.55,46.8-5.06,1.37-.08,2.64.05,3.83.35-.03-.01-.06-.02-.09-.03-16.74-5.6-35.49-4.9-50.54,4.74Z"></path> <path class="cls-4" d="m259.86,71.79c-37.14-12.42-58.51,3.45-73.65,35.11.01.15.03.31.04.46,7.21-14.12,15.62-22.49,24.16-27.36,15.05-9.64,33.8-10.34,50.54-4.74.03.01.06.02.09.03.31.08.62.17.93.27.2.07.45.2.74.39,3.25,1.45,6.13,3.79,8.57,6.61-.09-.64-.18-1.27-.28-1.9-2.98-4.16-6.71-7.39-11.13-8.87Z"></path> <path class="cls-60" d="m196.47,61.4c-4.05,8.09-7.06,16.67-9.43,23.76-1.39,4.14-1.65,8.41-1.5,12.75,12.31-28.04,20.65-70.92,56.86-58.81,10.68,3.57,17.68,11.12,22.96,20.5-.68-1.62-1.4-3.18-2.19-4.69-4.66-8.92-11.31-15.78-20.52-18.86-23.34-7.81-37.28,7.6-46.17,25.35Z"></path> <path class="cls-35" d="m246.35,49.4c-7.4-2.47-15.89,1.92-22.67,7.33.02.8.22,1.57.63,1.71.01,0,.03,0,.05.01,4.14.87,8.39-.71,12.54.68,1.9.64,6.34,3.43,10.78,4.92,2.06.69,7.85,2.1,8.56,0,1.48-4.42-2.96-12.32-9.88-14.63Z"></path> <path class="cls-35" d="m185.53,97.91c.06,1.86.2,3.74.37,5.63,5.02-10.89,32.6-67.07,60.93-57.59,9.41,3.15,17.44,16.17,23.56,31.18-1.15-6.21-2.8-12.15-5.05-17.53-5.28-9.37-12.28-16.93-22.96-20.5-36.21-12.11-44.55,30.77-56.86,58.81Z"></path> <path class="cls-62" d="m185.9,103.54c.1,1.12.2,2.24.3,3.37,15.15-31.66,36.51-47.54,73.65-35.11,4.42,1.48,8.15,4.7,11.13,8.87-.18-1.19-.38-2.36-.6-3.53-6.12-15.01-14.15-28.04-23.56-31.18-28.34-9.48-55.92,46.7-60.93,57.59Zm70.33-39.51c-.7,2.1-6.49.7-8.56,0-4.44-1.48-8.88-4.28-10.78-4.92-4.15-1.39-8.4.2-12.54-.68-.02,0-.03,0-.05-.01-.41-.14-.6-.91-.63-1.71,6.78-5.41,15.27-9.8,22.67-7.33,6.92,2.32,11.36,10.21,9.88,14.63Z"></path> <path class="cls-35" d="m194.52,193.71c12.34,4.13,26.59,5.46,30.73-6.91,2.18-6.52,1.62-15.77-6.08-18.34-7.84-2.62-22.57,8.01-25.61,17.1-.79,2.37-1.05,4.91-.62,7.58.47.2,1,.37,1.59.57Z"></path> <path class="cls-17" d="m218.77,152.32c7.78-8.24,17.56-24.36,28.06-20.84,1.93.65,3.71,1.61,5.36,2.84-2.32-3.14-5.26-5.49-8.94-6.72-15.59-5.22-50.11,36.89-58.07,60.68-.18.54-.34,1.07-.5,1.61-.79,2.73-1.27,5.49-1.5,8.27-1.29,15.6,5.38,31.84,11.63,45.67.43-.11.87-.21,1.32-.29-4.32-20.5-12.53-42.49-5.87-62.39,5.43-16.24,18.18-17.9,28.5-28.82Z"></path> <path class="cls-62" d="m218.77,152.32c-10.32,10.92-23.07,12.58-28.5,28.82-6.66,19.9,1.55,41.9,5.87,62.39.92-.17,1.88-.27,2.84-.3-3.52-11.02-6.61-23.14-3.12-33.59,6.38-19.06,24.3,5.4,30.62-13.5,3.79-11.34.06-30.1,4.4-43.08,1.86-5.56,7.82-14.5,12.95-12.78,5.92,1.98,9.76,12.8,16.02,22.99-.39-11.09-2.5-21.97-7.67-28.96-1.65-1.23-3.43-2.19-5.36-2.84-10.5-3.51-20.28,12.61-28.06,20.84Zm6.47,34.48c-4.14,12.37-18.38,11.04-30.73,6.91-.59-.2-1.12-.37-1.59-.57-.43-2.68-.17-5.21.62-7.58,3.04-9.09,17.77-19.73,25.61-17.1,7.69,2.57,8.26,11.82,6.08,18.34Z"></path> <path class="cls-4" d="m232.19,193.74c3.45-10.32,5.19-22.07,8.07-30.68,1.51-4.51,5.32-6.07,8.2-5.11,4.28,1.43,8.09,3.91,11.46,7.14-.01-.61-.03-1.21-.05-1.82-6.26-10.18-10.1-21.01-16.02-22.99-5.13-1.72-11.09,7.22-12.95,12.78-4.34,12.98-.6,31.73-4.4,43.08-6.32,18.9-24.25-5.57-30.62,13.5-3.5,10.45-.41,22.57,3.12,33.59,1.94-.06,3.92.15,5.77.65-2.03-10.34-4.19-19.38-2.71-23.83,2.72-8.12,19.67,4.97,30.13-26.32Z"></path> <path class="cls-23" d="m259.92,165.09c-3.38-3.23-7.18-5.7-11.46-7.14-2.88-.96-6.69.6-8.2,5.11-2.88,8.61-4.61,20.36-8.07,30.68-10.46,31.29-27.41,18.19-30.13,26.32-1.49,4.45.67,13.49,2.71,23.83.34.09.68.19,1.02.3.09.03.19.07.28.1,6.54-12.66,15.96-13.41,21.97-31.37,1.62-4.86,2.84-9.95,4.5-14.9,4.45-13.31,13.38-28.39,25.68-29.22.62-.76,1.2-1.47,1.73-2.11,0-.53,0-1.06-.02-1.59Z"></path> <path class="cls-4" d="m192.66,260.74c-.02-.53.09-1.18.36-1.99,1.79-5.35,5.64-5.63,10.85-3.88,19,6.35,13.53,28.61,29.77,34.04,1.25.42,2.55.72,3.87.91.48-.2.94-.41,1.37-.64,1.41-.76,2.48-1.69,3.16-2.66-2.18.28-4.21.04-6.12-.59-16.37-5.47-15.56-29.04-32.57-34.73-4.32-1.44-11.83-1.97-13.9,3.2.74,1.89,1.78,4.09,3.2,6.35Z"></path> <path class="cls-22" d="m187.43,249.77c-1.04,3.12.34,6.7,2.92,10.31,3.75,5.25,10.05,10.58,15.19,14.66,3.1,4.68,5.42,11.38,16.24,14.99,2.04.68,3.99,1.09,5.84,1.29-.96-.22-1.96-.5-3-.85-13.7-4.58-15.43-14.63-23.63-20.49-2-1.43-3.71-3.04-5.18-4.71-.41-.47-.8-.94-1.17-1.42-.73-.94-1.39-1.88-1.98-2.82-1.42-2.26-2.46-4.46-3.2-6.35-1.16-2.97-1.59-5.17-1.62-5.59-.16.31-.3.63-.41.97Z"></path> <path class="cls-63" d="m194.82,243.83c-1.26.33-2.44.81-3.48,1.42,4.04-.22,8.31.11,12.17,1.4,10.61,3.55,25.05,31.87,39.16,38.66,0-.01,0-.03.01-.04,0,0-.2-.21-.56-.61-2.85-3.1-15.95-17.61-26.58-33.24-1.38-2.03-3.22-3.77-5.33-5.12-1.22-.78-2.54-1.43-3.91-1.93-.18-.06-.35-.13-.53-.19-3.46-1.16-7.5-1.27-10.95-.36Z"></path> <path class="cls-31" d="m193.02,258.75c-.27.81-.38,1.46-.36,1.99.59.94,1.25,1.88,1.98,2.82.37.48.76.95,1.17,1.42,1.46,1.67,3.18,3.28,5.18,4.71,8.21,5.86,9.94,15.91,23.63,20.49,1.04.35,2.04.63,3,.85,3.91.42,7.31-.13,9.9-1.2-1.33-.19-2.63-.5-3.87-.91-16.24-5.43-10.77-27.69-29.77-34.04-5.22-1.75-9.07-1.47-10.85,3.88Zm23.45,18.42c-.15.46-1.82.4-2.63.13-4.49-1.5-4.51-9.81-14.28-13.08-.13-.04-.46-.28-.35-.61.02-.05.05-.11.09-.17-.57-1.31-.78-3.22-.35-4.51.7-2.1,4.11-1.78,5.8-1.21,7.62,2.55,12.41,17.37,11.72,19.44Z"></path> <path class="cls-62" d="m191.34,245.25c-1.53.89-2.76,2.08-3.5,3.56.02.42.45,2.62,1.62,5.59,2.07-5.17,9.58-4.64,13.9-3.2,17.01,5.69,16.21,29.26,32.57,34.73,1.9.64,3.94.87,6.12.59.28-.4.49-.8.63-1.21-14.11-6.79-28.55-35.11-39.16-38.66-3.86-1.29-8.13-1.63-12.17-1.4Z"></path> <path class="cls-2" d="m216.46,277.17c.69-2.07-4.09-16.89-11.72-19.44-1.7-.57-5.1-.89-5.8,1.21-.43,1.29-.22,3.2.35,4.51-.04.06-.07.11-.09.17-.11.33.21.56.35.61,9.77,3.27,9.79,11.57,14.28,13.08.81.27,2.48.33,2.63-.13Z"></path> <path class="cls-49" d="m179.01,282.44c-5.91-5.89-15.44-12.46-13.21-21.47-1.8,2.63-3.82,4.57-4.75,7.38-2.62,7.82,11.14,10.64,16.72,15.49,2.02,1.76,3.2,4.31,4.33,7.14,1.86,4.67,3.59,10.08,8.73,13.93.64.48,1.34.94,2.09,1.36-5.35-6.55-8.22-18.16-13.9-23.83Z"></path> <path class="cls-4" d="m172.14,255.6c-1.11.05-2.1.24-2.9.62-.76.37-1.36.91-1.71,1.69-.12.26-.24.5-.36.75,1.93-.5,3.95-.53,5.71.06,10.06,3.36,5.69,25.15,29.96,33.27,1.97.66,5.21,1.62,5.27,1.64,3.74,1.25,8.68,5.21,6.45,11.89-.35,1.06-.84,2.03-1.44,2.91,4.88-1.29,9.69-3,11.27-7.73,1.2-3.57-.56-6.31-2.91-7.09-.05-.02-8.3-.39-13.34-2.08-20.59-6.89-8.51-26.33-35.21-35.66-.23-.08-.46-.16-.7-.24-.03-.01-.06-.02-.1-.03Z"></path> <path class="cls-63" d="m188.13,287.36c-.87-.29-1.15.26-1.44,1.13-1.27,3.79,3.59,13.54,9.33,15.46,1.03.34,1.7.52,2.5.29,4.03.84,8.75-1.79,9.33-3.52.53-1.58-4.19-3.45-5.78-3.98-1.12-.38-2.27-.7-3.4-1.08-6.22-2.08-7.62-7.32-10.53-8.3Z"></path> <path class="cls-31" d="m185.6,258.47c-2.73-.91-7.25-2.39-11.12-2.78-.82-.08-1.6-.12-2.34-.09.03.01.06.02.1.03.24.08.46.16.7.24,26.69,9.33,14.62,28.77,35.21,35.66,5.04,1.68,13.29,2.06,13.34,2.08,2.35.79,4.11,3.52,2.91,7.09-1.58,4.73-6.39,6.44-11.27,7.73-.06.08-.12.17-.18.25,8.19-1.48,17.07-5.69,23.04-14.38-.27-.75-.93-1.31-1.84-1.61-2.02-.67-8.49,1.12-16.41-1.53-15.06-5.04-16.3-23.85-30.78-32.24-.45-.15-.9-.31-1.35-.46Z"></path> <path d="m214.48,307.46l-1.16,1.69-.28.11c-.69.13-1.38.23-2.07.32l-.22-1.15.14-.03c.69-.17,1.38-.35,2.07-.53l1.51-.4Z"></path> <path class="cls-19" d="m234.13,292.69c.91.3,1.57.87,1.84,1.61,1.07-1.56,2.04-3.26,2.91-5.11-3.78,2.06-9.94,2.95-17.11.55-10.81-3.62-13.14-10.31-16.24-14.99-5.14-4.08-11.44-9.41-15.19-14.66-1.13-.38-2.27-.77-3.4-1.16,14.48,8.39,15.72,27.2,30.78,32.24,7.92,2.65,14.39.85,16.41,1.53Z"></path> <path class="cls-62" d="m214.56,305.52c2.24-6.69-2.71-10.64-6.45-11.89-.06-.02-3.3-.98-5.27-1.64-24.28-8.12-19.91-29.9-29.96-33.27-1.76-.59-3.78-.56-5.71-.06-.43.84-.89,1.6-1.38,2.31-2.23,9.02,7.3,15.58,13.21,21.47,5.68,5.67,8.55,17.27,13.9,23.83,1.2.68,2.56,1.29,4.1,1.8,3.4,1.14,8.42,1.63,13.89.93.73-.18,1.47-.37,2.21-.56.6-.88,1.09-1.85,1.44-2.91Zm-27.87-17.03c.29-.87.57-1.42,1.44-1.13,2.91.97,4.32,6.22,10.53,8.3,1.13.38,2.27.71,3.4,1.08,1.59.53,6.31,2.4,5.78,3.98-.58,1.73-5.3,4.36-9.33,3.52-.79.23-1.47.05-2.5-.29-5.74-1.92-10.6-11.67-9.33-15.46Z"></path> <path class="cls-28" d="m252.64,281.12c1.47-1.83,4.21-3.44,7.29-5.11-7.6,3.27-15.43,5.76-17.08,5.21-.13-.04-.25-.09-.38-.14.65,1.32.99,2.12.97,2.17-.21.62-.68,1.08-1.32,1.42.37.4.56.61.56.61-.48,1.42-1.81,2.83-3.81,3.91-9.33,20.12-32.15,22.13-41.87,18.88-2.5-.84-4.53-1.92-6.19-3.17-.06.15-.11.3-.16.45-.4,1.19-.65,2.38-.79,3.55.51.2,1.02.39,1.53.56,22.58,7.55,46.38-9.94,61.24-28.34Z"></path> <path class="cls-31" d="m275.63,260.67c-.23.12-.47.24-.7.35.26.38.46.77.61,1.16.52,1.33.49,2.7.06,3.99-.87,2.6-8.16,6.6-15.67,9.84-3.08,1.67-5.82,3.28-7.29,5.11-14.86,18.4-38.66,35.89-61.24,28.34-.51-.17-1.02-.36-1.53-.56-.55,4.71.89,9.25,3.61,13.12,4.08-1.02,8.77-.19,13.07-.68,14.33-1.63,22.67-14.41,31.44-24.18,19.99-22.25,43.76-18.36,50.34-38.04.58-1.74.96-3.66,1.09-5.59-4.94,2.52-9.72,5.05-13.79,7.12Z"></path> <path class="cls-4" d="m289.42,253.55c-.13,1.92-.51,3.85-1.09,5.59-6.58,19.67-30.35,15.79-50.34,38.04-8.78,9.77-17.11,22.55-31.44,24.18-4.3.49-8.99-.34-13.07.68,2.94,4.18,7.36,7.57,12.39,9.58.07-.34.17-.68.28-1.02,4.74-14.18,25.97-11.64,40.09-37.53,7.55-13.84,43.4-.25,52.86-28.53,1.6-4.79,2.51-9.94,4.16-14.88.38-1.14.8-2.22,1.27-3.25-4.81,2.01-10.04,4.57-15.11,7.15Z"></path> <path class="cls-62" d="m299.09,264.54c-9.46,28.27-45.31,14.69-52.86,28.53-14.12,25.88-35.35,23.34-40.09,37.53-.11.34-.21.68-.28,1.02.51.2,1.03.4,1.55.57,11.03,3.69,21.5,4.23,31.24,3.34-1.04-.22-2.06-.49-3.04-.81-8.29-2.77-10.91-9.96-9-15.65,3.05-9.13,26.73-21.7,33.71-25.07,7.88-3.8,16.84-1.8,25.03-5.02,22.78-8.98,13.7-48.46,40.07-39.64.6.2,1.17.44,1.73.7-1.02-3.45-2.89-6.16-6.08-7.22-3.34-1.12-9.48.64-16.54,3.59-.46,1.03-.89,2.12-1.27,3.25-1.65,4.94-2.56,10.09-4.16,14.88Z"></path> <path class="cls-60" d="m291.8,300.75c-2.79,6.63-5.29,13.11-11.67,17.39-.2.13-17.72,9.88-27.49,15.21,2.34-.49,4.63-1.03,6.86-1.57,3.9-.95,7.63-1.93,11.16-2.77,20.37-4.87,23.71-29.27,29.45-30.65,11.95-2.87,21.93-10.55,25.49-21.19.13-.39,1.14-4.22,1.87-9.22.1-.7.2-1.42.28-2.16-9.88,26.59-29.94,20.68-35.95,34.96Z"></path> <path class="cls-35" d="m285.35,288.97c-8.19,3.23-17.14,1.22-25.03,5.02-6.98,3.37-30.66,15.94-33.71,25.07-1.9,5.69.71,12.88,9,15.65.98.33,2,.59,3.04.81,4.85-.44,9.52-1.24,13.98-2.18,9.77-5.32,27.29-15.07,27.49-15.21,6.38-4.29,8.88-10.76,11.67-17.39,6.01-14.29,26.07-8.37,35.95-34.96.61-5.16.77-11.12-.6-15.75-.56-.26-1.14-.5-1.73-.7-26.37-8.82-17.29,30.66-40.07,39.64Zm-6.98,16.7c-3.15,9.41-13.27,14.31-23.12,17.48-3.57,3.31-10.8,4.45-15.07,3.02-3.94-1.32-3.95-4.06-2.49-8.41,5.19-15.52,30.29-22.6,40.21-19.28,2.23.75,1.21,4.94.46,7.18Z"></path> <path class="cls-63" d="m237.69,317.77c-1.46,4.35-1.45,7.09,2.49,8.41,4.26,1.43,11.49.29,15.07-3.02,9.85-3.18,19.97-8.07,23.12-17.48.75-2.24,1.77-6.44-.46-7.18-9.93-3.32-35.02,3.76-40.21,19.28Z"></path> <path class="cls-28" d="m282.87,213.48c.34-1.02.71-1.99,1.1-2.92-4.12,5.64-7.44,11.94-9.76,18.9-.37,1.12-.99,2.2-1.7,3.27,4.63.18,9.15.61,12.3,1.66.98.33,1.81.72,2.42,1.21,1.54,1.14,1.53,2.85.75,5.17-1.58,4.72-6.02,10.12-7.66,15.04-.31.94-.52,1.85-.59,2.75,5.8-3,12.5-6.54,18.89-9.53-.02-.42-.02-.85.01-1.3,1.49-20.36-20.79-19.23-15.76-34.25Z"></path> <path class="cls-19" d="m287.98,240.78c.78-2.33.79-4.03-.75-5.17,1.01.83,1.4,1.96.84,3.63-1.35,4.03-10.43,13.28-18.81,17.85,2.86,1.08,4.67,2.46,5.67,3.94,1.5-.76,3.11-1.59,4.8-2.46.07-.89.28-1.81.59-2.75,1.65-4.93,6.08-10.32,7.66-15.04Z"></path> <path class="cls-63" d="m363.65,221.8c-1.43,4.27-3.05,4.51-4.75,6.93-9.46,13.41-15.65,31.61-31.21,37.54-.07.57-.15,1.13-.22,1.67,10.55-2.94,17.12-10.15,22.23-18.06,5.65-8.73,9.53-18.32,15.03-23.95,1.78-1.82,2.98-3.83,3.68-5.93,2.89-8.65-1.09-20.56-20.35-27-.02,0-.23-.08-.58-.19,10.79,9.57,19.87,17.93,16.17,28.98Z"></path> <path class="cls-62" d="m344.21,191.76c-4.65-1.48-12.65-3.92-19.18-5.39-5.99,4.89-9.24,10.38-10.01,12.69-6.36,19.03,27.41,33.21,21.91,49.66-1.46,4.37-4.86,8.6-8.79,12.32-.08,1.79-.24,3.55-.45,5.23,15.56-5.94,21.75-24.13,31.21-37.54,1.7-2.41,3.32-2.65,4.75-6.93,3.7-11.05-5.38-19.42-16.17-28.98-.64-.21-1.78-.58-3.27-1.06Zm8.96,22.78c-1.84,5.5-8.88,8.41-11.06,14.94-.02.07-.05.15-.07.22-1.01.07-2.01-.02-2.95-.34-1.42-.48-2.71-1.44-3.67-3-9.1-14.73-15.21-15.36-11.93-25.19,1.8-5.38,4.34-8.96,10.12-7.02,12.63,4.22,21.75,13.83,19.56,20.39Z"></path> <path class="cls-35" d="m323.48,201.18c-3.29,9.83,2.83,10.47,11.93,25.19.96,1.56,2.25,2.52,3.67,3,.94.31,1.94.41,2.95.34.02-.07.05-.15.07-.22,2.18-6.53,9.22-9.43,11.06-14.94,2.19-6.56-6.93-16.17-19.56-20.39-5.78-1.93-8.32,1.64-10.12,7.02Z"></path> <path class="cls-4" d="m315.02,199.06c.77-2.31,4.02-7.8,10.01-12.69-1.63-.37-3.16-.67-4.53-.89-8.97,4-17.25,11.12-20.83,21.82-3.62,10.82-3.93,23.64,7.23,27.37,2.93.98,6.01,1.49,8.94,2.47,4.56,1.52,7.35,4.41,8.7,7.96,3.19,3.51,3.87,9.83,3.59,15.94,3.93-3.72,7.33-7.95,8.79-12.32,5.5-16.45-28.27-30.63-21.91-49.66Z"></path> <path class="cls-31" d="m315.84,237.15c-2.93-.98-6.01-1.49-8.94-2.47-11.17-3.73-10.85-16.56-7.23-27.37,3.58-10.7,11.86-17.82,20.83-21.82-2.58-.41-4.56-.5-5.45-.07-12.49,6.06-23.24,14.43-31.07,25.14-.39.93-.76,1.9-1.1,2.92-5.02,15.02,17.25,13.89,15.76,34.25-.03.45-.03.88-.01,1.3,9.43-4.41,18.2-7.64,22.45-6.22,1.4.47,2.55,1.26,3.48,2.29-1.35-3.54-4.15-6.43-8.7-7.96Z"></path> <path class="cls-4" d="m263.99,185.04c-9.61-3.22-19.6,11.42-24.87,20.03.23.76.48,1.53.74,2.3,5.96-11.68,12.99-16.9,18.12-17.57,1.21-.16,2.31-.06,3.26.26,1.32.44,2.66,1.61,3.94,3.27,10.52,5.67,5.73,20.75,11.98,22.84.91.31,2.03.13,3.25-.21,3.69-6.18,8.28-11.68,13.59-16.5-3.93.93-7.87,1-11.79-.31-10.01-3.35-11.75-11.93-18.22-14.1Z"></path> <path class="cls-62" d="m281.1,188.24c-10.18-3.41-17.83-14.48-14.95-29.43-1.09,1.53-2.12,2.93-3.09,4.11-.37.45-1.52,1.81-3.13,3.76-6.16,7.46-19.09,23.56-21.4,30.46-.8,2.38-.26,5.13.59,7.94,5.27-8.61,15.25-23.25,24.87-20.03,6.47,2.16,8.21,10.75,18.22,14.1,3.92,1.31,7.86,1.24,11.79.31,5.24-4.75,11.17-8.85,17.63-12.29-11.46.44-22.68,3.71-30.54,1.08Z"></path> <path class="cls-35" d="m292.09,178.18c-11.26-3.76-22.08-12.86-17.95-25.2,1.94-5.79,6.47-11.36,11.19-15.41-8.36,5.23-14.4,14.53-19.17,21.23-2.88,14.95,4.76,26.02,14.95,29.43,7.86,2.63,19.07-.64,30.54-1.08,1.12-.6,2.26-1.18,3.41-1.74.92-.45,3.03-.33,5.76.12,6.87,1.14,17.68,4.42,23.4,6.23.35-.78.66-1.57.93-2.37,1.88-5.61,1.78-11.57.6-17.23-1.04,1.48-2.2,2.89-3.55,4.2-10.35,9.99-43.17,4.14-50.1,1.82Z"></path> <path class="cls-13" d="m326.56,149.19c1.08.36,2.22.65,3.34,1.03,5.15,1.72,9.09,5.6,11.88,10.32-3.91-8.34-9.1-14.47-11.2-15.16-2.18-.73-5.22-.15-7.68-.97s-6.67-6.32-15.57-9.29c-2.06-.69-4.04-1.12-5.93-1.34-.2-.02-.4-.05-.6-.06-5.05-.46-9.51.66-13.47,2.72,6.69-.93,13.59-.28,20.11,1.9,11.72,3.92,14.44,9.3,19.11,10.87Z"></path> <path class="cls-17" d="m274.13,152.98c-4.13,12.34,6.7,21.44,17.95,25.2,6.93,2.32,39.75,8.17,50.1-1.82,1.35-1.3,2.5-2.72,3.55-4.2-.86-4.12-2.29-8.07-3.95-11.63-2.79-4.71-6.74-8.59-11.88-10.32-1.12-.38-2.26-.67-3.34-1.03-4.68-1.56-7.4-6.95-19.11-10.87-6.52-2.18-13.42-2.83-20.11-1.9-.69.36-1.36.74-2.02,1.15-4.72,4.05-9.25,9.62-11.19,15.41Zm48.09.74c1.78.6.75,4.87.19,6.56-2.4,7.18-8.58,10.78-12.32,10.77-4.72,2.99-10.61,3.61-15.8,1.87-9.9-3.31-13.49-13.55-11.13-20.61,2.01-6,9.7-10.12,16.97-7.69,3.32,1.11,5.83,3.87,15.95,7.25,3.03,1.01,6.14,1.84,6.14,1.84Z"></path> <path class="cls-13" d="m300.14,144.62c-7.28-2.43-14.97,1.69-16.97,7.69-2.36,7.06,1.23,17.3,11.13,20.61,5.19,1.74,11.07,1.12,15.8-1.87,3.74,0,9.92-3.59,12.32-10.77.56-1.69,1.59-5.96-.19-6.56,0,0-3.11-.83-6.14-1.84-10.12-3.39-12.63-6.14-15.95-7.25Z"></path> <path class="cls-19" d="m246.2,276.47c-9.95-3.33-15.53-25.29-34.02-31.48-1.27-.42-2.57-.75-3.91-.95-.66.11-1.31.23-1.97.34,1.37.5,2.69,1.15,3.91,1.93,1.02.18,2.01.44,2.98.76,13.46,4.5,25.8,26.9,29.28,34,.12.05.25.1.38.14,2.47.83,18.91-5.2,27.55-10.45-7.68,3.84-16.72,8.2-24.2,5.7Z"></path> <path class="cls-28" d="m216.79,244.92c-2-.67-4.08-1.08-6.21-1.28-.77.13-1.54.26-2.31.39,1.34.21,2.64.53,3.91.95,18.5,6.19,24.07,28.15,34.02,31.48,7.48,2.5,16.52-1.85,24.2-5.7,2.79-1.7,4.77-3.31,5.2-4.59.04-.13.08-.26.11-.38-9.43,2.72-19.79,3.71-29.07.6-12.98-4.34-18.35-17.62-29.85-21.47Z"></path> <path class="cls-31" d="m235.19,243.81c-3.08-1.03-6.27-1.61-9.52-1.92-.82.03-1.65.07-2.47.13-4.18.29-8.44.92-12.61,1.62,2.12.2,4.21.61,6.21,1.28,11.51,3.85,16.87,17.13,29.85,21.47,9.29,3.11,19.64,2.12,29.07-.6.4-1.46.28-3.02-.6-4.48-2.52-.41-5.09-.5-10.21-2.21-12.26-4.1-21.65-12.59-29.72-15.29Z"></path> <path class="cls-4" d="m240.42,243.63c-4.56-1.52-9.58-1.93-14.76-1.74,3.25.31,6.44.89,9.52,1.92,8.07,2.7,17.46,11.19,29.72,15.29,5.12,1.71,7.69,1.8,10.21,2.21-.06-.1-.12-.2-.19-.29-1-1.48-2.8-2.86-5.67-3.94-.27-.1-.54-.2-.83-.3-3.64-1.22-7.59-1.64-11.2-2.85-5.83-1.95-6.76-4.67-10.55-7.3-1.49-1.03-3.42-2.05-6.26-3Z"></path> <path class="cls-28" d="m227.69,240.03c-1.75-.59-3.37-1.62-4.67-2.94-.08,1.85,0,3.52.17,4.93,6.05-.43,11.95-.16,17.23,1.61,2.84.95,4.77,1.97,6.26,3,0-.2,0-.4-.02-.59-1.84-1.93-3.65-3.88-6.56-4.85-4.68-1.56-8.59.12-12.42-1.16Z"></path> <path class="cls-4" d="m227.43,220.72c1.24-1.11,2.74-1.62,4.47-1.05,6.19,2.07,7.81,19.2,14.61,25.06-.14-.68-.36-1.36-.68-2.03-.44-.91-.86-1.79-1.26-2.64-7.58-16.11-8.1-20.67-9.03-22.4-.44-.81-.96-1-2.35-1.46-2.36-.79-4.28,1.56-5.76,4.52Z"></path> <path class="cls-31" d="m231.89,219.67c-1.72-.58-3.23-.07-4.47,1.05-1.12,2.24-1.99,4.82-2.6,6.66-1.17,3.51-1.68,6.83-1.8,9.71,1.3,1.32,2.92,2.36,4.67,2.94,3.83,1.28,7.74-.41,12.42,1.16,2.9.97,4.71,2.92,6.56,4.85-.02-.44-.08-.88-.17-1.31-6.79-5.86-8.42-22.99-14.61-25.06Z"></path> <path class="cls-53" d="m258.71,253.49c-5.29-1.77-11.31-7.49-13.46-13.73-.22.16-.45.26-.68.29.4.85.82,1.73,1.26,2.64.62,1.29.87,2.61.86,3.93,3.79,2.63,4.72,5.35,10.55,7.3,3.61,1.21,7.56,1.63,11.2,2.85.29.1.56.2.83.3.59-.32,1.18-.67,1.77-1.03-.51-.23-1.03-.43-1.56-.61-4.58-1.53-6.61-.56-10.77-1.95Z"></path> <path class="cls-12" d="m281.59,234.93c-4.33-1.45-8.31,1.47-12.86,1.22-5.76-.32-13.63-3.61-19.36-2.29-.91,1.05-1.64,2.35-2.31,3.49-.46,6.53,5,11.66,10.91,13.64,7.4,2.48,16.31.46,23.37-3.05,2.29-2.22,4.19-4.42,5.42-6.23-.02-2.95-2.14-5.77-5.16-6.77Z"></path> <path class="cls-28" d="m257.96,250.98c-5.9-1.97-11.37-7.11-10.91-13.64-.62,1.05-1.19,1.97-1.81,2.42,2.16,6.24,8.17,11.96,13.46,13.73,4.16,1.39,6.19.42,10.77,1.95.53.18,1.05.38,1.56.61,3.64-2.23,7.29-5.2,10.29-8.12-7.06,3.52-15.96,5.53-23.37,3.05Z"></path> <path class="cls-35" d="m272.52,232.73c-1-.04-2.01-.07-3.01-.09-6.59-.14-12.84.05-15.03-.55-2.26-.62-3.85.33-5.1,1.76,5.74-1.33,13.6,1.97,19.36,2.29,4.55.25,8.53-2.67,12.86-1.22,3.01,1.01,5.14,3.82,5.16,6.77.64-.94,1.1-1.79,1.33-2.47.89-2.67-.64-3.96-3.26-4.84-3.15-1.05-7.67-1.48-12.3-1.66Z"></path> <path class="cls-38" d="m250.06,231.33c-1.8,1.37-4,4.89-6.82,3.95-.45-.15-.85-.42-1.21-.75.74,1.67,1.58,3.51,2.53,5.53,2.63-.32,3.95-9.6,9.91-7.96,2.2.6,8.44.41,15.03.55.34-.45.66-.91.98-1.37-8.32,1.25-17.89-1.87-20.43.06Z"></path> <path class="cls-19" d="m252.01,227.54c-2.25,1.03-4.71,1.83-6.98,1.07-5.47-1.83-7.69-7.39-8.57-13.49-.31.82-.62,1.67-.92,2.54.82,1.51,1.31,5.19,6.5,16.87.36.34.75.6,1.21.75,2.83.94,5.02-2.58,6.82-3.95,2.54-1.93,12.11,1.19,20.43-.06,1.19-1.75,2.2-3.62,2.89-5.68.51-1.53.69-3.54.61-5.83-7.86,11.11-20.54,7.13-21.97,7.78Z"></path> <path class="cls-35" d="m261.25,190.05c-.96-.32-2.06-.41-3.26-.26-3.71.48-8.4,3.35-12.96,9.29,3.8-4.64,9.32-9.61,16.4-7.24,5.08,1.7,5.13,10.52,10.4,15.81-2.44-8.33-6.58-16.27-10.57-17.6Z"></path> <path class="cls-28" d="m248.64,224.74c-6.11-2.04-9.2-8.24-10.49-13.77-.58,1.31-1.15,2.69-1.7,4.14.88,6.1,3.1,11.66,8.57,13.49,2.27.76,4.73-.04,6.98-1.07,1.43-.65,14.11,3.33,21.97-7.78-.09-2.4-.47-5.1-1.08-7.87-2.8,2.43-6.6,4.91-11.28,9.63-3.65,3.68-8.61,4.69-12.98,3.22Z"></path> <path class="cls-31" d="m261.42,191.85c-7.08-2.37-12.6,2.6-16.4,7.24-1.76,2.29-3.5,5.04-5.16,8.28-.58,1.14-1.15,2.34-1.71,3.6,1.29,5.53,4.38,11.72,10.49,13.77,4.37,1.46,9.33.45,12.98-3.22,4.69-4.72,8.48-7.2,11.28-9.63-.31-1.4-.67-2.82-1.08-4.23-5.27-5.29-5.32-14.11-10.4-15.81Z"></path> <path class="cls-22" d="m243.09,186.99c-1.41,4.23-2.94,3.48-4.73,8.81-1.95,5.83-.92,10.11-1.61,12.19-1.66,4.97-7.33,3.02-11.47,15.42-1.31,3.91-2.21,8.49-3.37,11.96-.95,2.83-2.6,5.54-4.97,7.31,2.09-.28,4.18-.5,6.25-.65-.44-3.6-.3-8.88,1.63-14.65,1.43-4.27,4.21-12.57,8.36-11.18,1.38.46,1.91.65,2.35,1.46,1.34-3.87,2.8-7.29,4.33-10.28-1.19-3.59-2.34-7.2-1.32-10.24,2.04-6.11,12.42-19.43,19.04-27.58-6.81,3.9-11.9,9.69-14.08,16.21-.14.41-.27.81-.4,1.22Z"></path> <path class="cls-28" d="m232.52,198.01c-1.66,4.95-2.87,10.05-4.5,14.9-6.01,17.96-15.43,18.72-21.97,31.37.08.03.17.06.25.09,3.49-.61,7.07-1.23,10.65-1.7,2.37-1.77,4.02-4.48,4.97-7.31,1.16-3.47,2.06-8.05,3.37-11.96,4.15-12.4,9.81-10.45,11.47-15.42.7-2.08-.34-6.36,1.61-12.19,1.78-5.33,3.31-4.59,4.73-8.81.14-.4.26-.81.4-1.22,2.18-6.52,7.27-12.3,14.08-16.21.21-.26.42-.52.62-.77-12.3.83-21.23,15.91-25.68,29.22Z"></path> <path class="cls-68" d="m95.95,202.41c2.7.17,5.47.64,8.24,1.44-2.49-5.84-4.19-11.51-6.05-17.86-2.65-.87-5.6-1.49-8.72-1.86,1.83,6.89,4.07,12.93,6.53,18.29Z"></path> <path class="cls-28" d="m123.75,241.8c1.32,3.13,1.97,6.13,1.02,8.96-1.18,3.52-10.59,15.75-14.79,28.3-1.15,3.43-1.93,6.93-2.18,10.49.27-2.04.71-4.04,1.37-6,2.13-6.36,6.31-10.83,11.46-13.56,2.4-1.75,5.38-4.53,7.12-9.72,2.36-7.06.28-12.51-4-18.46Z"></path> <path class="cls-59" d="m101.36,212.66c2.11-.57,4.41-.76,6.8-.65-1.55-2.81-2.85-5.51-3.99-8.17-2.77-.79-5.54-1.26-8.24-1.44,1.71,3.73,3.54,7.13,5.42,10.25Z"></path> <path class="cls-40" d="m85.93,166.28c.86,6.52,2.05,12.44,3.49,17.84,3.11.36,6.07.99,8.72,1.86-1.86-6.39-3.88-13.45-6.99-22.05-2.03-.33-4.02-.54-5.96-.65.34.93.59,1.93.74,3.01Z"></path> <path class="cls-31" d="m124.77,250.76c.95-2.83.29-5.83-1.02-8.96-3.37-4.67-8.1-9.65-13.13-15.94-.48,15.23,3.6,32.11.86,40.29-2.22,6.63-6.34,11.12-8.78,18.41-4.03,12.05-2.29,25.99,5.49,35.38.45.54.91,1.06,1.4,1.57,1.75,1.82,3.75,3.44,6.01,4.78-.44-1.07-.88-2.15-1.31-3.23-4.41-11.15-7.9-22.84-6.5-33.51.25-3.56,1.04-7.05,2.18-10.49,4.2-12.55,13.61-24.77,14.79-28.3Z"></path> <path class="cls-70" d="m193.11,68.72c1.03-2.45,2.15-4.91,3.36-7.33-1.1-.45-2.21-.87-3.34-1.24,0,0,0,0-.01,0-3.65,2.08-6.71,5.21-9.35,9.07,2.93-.67,6.02-.87,9.35-.5Z"></path> <path class="cls-35" d="m150.78,57.79c-27.18,5.26-53.1,16.88-61.92,43.24-10.87,32.49,6.58,68.22,16.48,105.42,4.44,9.57,11.3,19.89,24.53,34.51-4.06-8.44-8.78-18.47-14.51-30.47-11.25-18.34-22.22-39.89-15.9-58.79,2.77-8.29,8.73-15.73,16.94-19.88,29.67-15.03,41.9-56.78,67.36-62.6,2.65-3.86,5.71-6.99,9.35-9.07-5.31-1.78-10.5-2.86-15.55-3.43-9.92-.45-19.84-.27-26.79,1.07Zm6.27,15.58c-1.24,3.7-11.33,9.17-15.46,12.94-9.92,9.05-17.22,22.9-30.17,26.36-.35-.09-.69-.18-1.02-.29-7.21-2.41-11.3-9.34-7.89-19.53,4.85-14.51,33.11-29.03,50.38-23.25,2.96.99,4.8,1.87,4.17,3.77Z"></path> <path class="cls-28" d="m169.97,164.76c.35,2.27.66,3.96.25,5.18-1.24,3.71-3.77,4.17-6.65,3.21-7.68-2.57-10.38-13.22-22.89-18.11,11.2,10.73,29.24,31.53,33.41,35.45.96.9,1.92,1.77,2.9,2.62.34-3.77-.94-8-2.08-11.28-1.99-5.7-3.64-11.4-4.94-17.08Z"></path> <path class="cls-34" d="m169.97,164.76c1.3,5.68,2.94,11.37,4.94,17.08,1.15,3.27,2.42,7.5,2.08,11.28,2.02,1.77,4.09,3.44,6.21,5.05.23-2.78.71-5.55,1.5-8.27-9.65-15.4-12.1-33.07-9.36-50.23-1.73,2.61-3.13,5.42-4.12,8.39-2.5,7.48-1.83,12.9-1.25,16.71Z"></path> <path class="cls-31" d="m170.22,169.94c.41-1.22.09-2.91-.25-5.18-1.2-5.28-2.1-10.56-2.69-15.81-7.94,8.2-20.04,3.13-31.94,1.37,1.47,1.12,3.29,2.75,5.35,4.72,12.51,4.88,15.22,15.54,22.89,18.11,2.88.96,5.41.5,6.65-3.21Z"></path> <path class="cls-27" d="m172.59,139.45c-1.43,4.28-3.23,7.34-5.31,9.5.59,5.25,1.49,10.53,2.69,15.81-.58-3.81-1.25-9.23,1.25-16.71.99-2.97,2.39-5.79,4.12-8.39.79-4.94,2-9.83,3.61-14.62,2.24-6.71,4.69-12.56,7.3-17.67-.1-1.17-.21-2.34-.31-3.51-2.93,3.46-5.37,7.84-7.18,13.23-2.49,7.46-4.06,16.09-6.16,22.36Z"></path> <path class="cls-62" d="m133.3,144.58c.75.25,1.49.51,2.24.76,15.18,5.08,24.44-3.12,29.51-18.3.8-2.39,1.51-4.89,2.17-7.42,1.01-9.04,2.99-18,5.95-26.86,2.96-8.85,6.21-17.18,10.57-23.53-25.46,5.82-37.69,47.57-67.36,62.6-8.2,4.16-14.16,11.59-16.94,19.88-6.32,18.9,4.65,40.45,15.9,58.79-3.82-7.99-8.09-16.85-12.92-26.69-2.88-5.85-3.02-11.66-1.29-16.83,1.14-3.4,2.97-6.34,5.22-8.83,4.66-11.7,13.78-17.97,26.93-13.57Z"></path> <path class="cls-54" d="m173.19,92.75c-2.96,8.86-4.94,17.82-5.95,26.86,1.49-5.64,2.8-11.46,4.56-16.71,2.73-8.16,8.96-17.19,17.61-24.61,1.11-3.09,2.33-6.32,3.7-9.57-3.32-.38-6.42-.17-9.35.5-4.36,6.36-7.61,14.68-10.57,23.53Z"></path> <path class="cls-9" d="m167.23,119.61c-1.09,9.7-1.07,19.49.04,29.34,2.08-2.15,3.88-5.22,5.31-9.5,2.1-6.27,3.67-14.9,6.16-22.36,1.8-5.39,4.25-9.77,7.18-13.23-.56-6.4-.91-12.69,1.11-18.71.72-2.17,1.51-4.47,2.36-6.86-8.65,7.42-14.89,16.45-17.61,24.61-1.76,5.26-3.07,11.08-4.56,16.71Z"></path> <path class="cls-4" d="m167.27,148.95c-1.11-9.85-1.13-19.64-.04-29.34-.67,2.53-1.37,5.03-2.17,7.42-5.08,15.18-14.33,23.38-29.51,18.3-.74-.25-1.49-.51-2.24-.76-13.15-4.4-22.27,1.87-26.93,13.57,7.6-8.4,19.95-11.56,26.37-9.41.64.21,1.52.77,2.59,1.59,11.9,1.76,24,6.83,31.94-1.37Z"></path> <path class="cls-62" d="m251.78,380.89c-7.14-5.25-13.6-10.58-18.65-14.23-13.37-.09-24.6,17.29-41.43,16.76-3.33.58-6.76.86-10.18.89,2.56,1.97,5.3,3.54,8.19,4.51,15.19,5.08,34.18-14.66,62.07-7.93Z"></path> <path class="cls-15" d="m233.12,366.66c5.05,3.64,11.52,8.97,18.65,14.23,1.46.35,2.95.77,4.46,1.28,9.15,3.06,11.27,6.07,16.85,8.31-10.59-5.17-19.66-12.94-28.98-20.25-2.06-1.11-4.12-2.07-6.17-2.76-1.64-.55-3.24-.8-4.81-.81Z"></path> <path class="cls-27" d="m233.12,366.66c1.57.01,3.17.26,4.81.81,2.05.69,4.11,1.65,6.17,2.76-1.17-.92-2.35-1.83-3.53-2.73-3.38-2.56-8.91-2.85-14.05-9.11-1.84.89-3.63,1.39-4.8,3.35,1.4,0,2.78.17,4.11.62,1.85.62,4.32,2.17,7.28,4.3Z"></path> <path class="cls-31" d="m233.12,366.66c-2.96-2.13-5.44-3.69-7.28-4.3-1.33-.45-2.71-.63-4.11-.62-.14.23-.27.47-.38.75-5.31,12.25-16.84,18.72-29.66,20.94,16.84.53,28.06-16.85,41.43-16.76Z"></path> <path class="cls-35" d="m251.78,380.89c-27.89-6.73-46.88,13.01-62.07,7.93-2.89-.97-5.63-2.54-8.19-4.51-3.27.02-6.54-.19-9.74-.63,5.71,10.93,16.05,19.2,27.78,23.13,26.91,9,41.89-11.26,61.71-4.64,20.43,6.83,46.25,5.48,63.62-6.95-12.84-1.17-17.19,7.25-24.83,4.7-.58-.19-1.15-.44-1.73-.7-5.97.24-12.47-.56-19.56-2.94-9.12-3.05-18.53-9.17-26.99-15.4Z"></path> <path class="cls-39" d="m280.68,393.6c-2.63-.88-5.15-1.94-7.59-3.13-5.58-2.23-7.7-5.25-16.85-8.31-1.51-.51-3-.93-4.46-1.28,8.46,6.23,17.87,12.35,26.99,15.4,7.09,2.37,13.59,3.17,19.56,2.94-1.95-.91-3.94-2.13-6.07-2.84-2.25-.75-5.2-.64-11.58-2.77Z"></path> <path class="cls-35" d="m431.77,187.74c-.1,4.52-.82,9-2.26,13.31-.32.96-.72,1.95-1.17,2.98-.57,2.38-1.3,4.91-2.2,7.61-4.4,13.14-12.9,27.62-14,30.9-.49,1.46-3.66,19.84-3,26.39,1.95,19.23,23.1,18.7,42.08,33.57,5.97-3.9,11.62-8.23,16.37-13.08-2.21-.38-4.39-.93-6.54-1.65-54.27-18.15-21.91-66.91-29.27-100.03Z"></path> <path class="cls-5" d="m429.5,201.05c1.44-4.31,2.17-8.79,2.26-13.31-.47-2.12-1.1-4.18-1.93-6.16-.73-.2-1.46-.39-2.2-.57,2.65,5.65,3.1,13.01.7,23.02.45-1.03.85-2.02,1.17-2.98Z"></path> <path class="cls-62" d="m409.13,268.93c-.66-6.55,2.51-24.93,3-26.39,1.1-3.28,9.6-17.75,14-30.9.9-2.69,1.63-5.22,2.2-7.61-3.15,7.11-9.3,15.84-15.54,25.6-3.56,8.74-8.48,17.26-11.06,24.97-9.67,28.91,2.9,54.27,16,58.65,4.69,1.57,9.92,1.12,15.12.01.77-.51,1.57-.99,2.41-1.44,5.3-2.84,10.74-5.93,15.95-9.33-18.97-14.87-40.13-14.34-42.08-33.57Z"></path> <path class="cls-36" d="m412.79,229.64c6.24-9.77,12.4-18.49,15.54-25.6,2.4-10.01,1.95-17.37-.7-23.02-3.69-.9-7.47-1.58-11.29-2.03,5.7,10.09,5.91,20.14,2.7,29.72-.6,1.79-1.32,3.57-2.15,5.33-.31,3.57-1.13,7.26-2.34,10.88-.53,1.58-1.13,3.16-1.77,4.73Z"></path> <path class="cls-66" d="m390.79,253.02c-4.34,12.97.67,20.44,2.23,30.18.83-6.09.4-11.95,4.2-23.31,3.58-10.71,9.61-20.95,15.55-30.25.64-1.57,1.24-3.15,1.77-4.73,1.21-3.62,2.03-7.31,2.34-10.88-3.53,7.53-8.99,14.7-15.32,21.31,0,.42-.08.86-.24,1.35-.05.14-7.74,7.97-10.53,16.33Z"></path> <path class="cls-4" d="m401.73,254.6c2.58-7.71,7.5-16.23,11.06-24.97-5.95,9.3-11.97,19.55-15.55,30.25-3.8,11.36-3.37,17.22-4.2,23.31.74,4.62.72,9.76-1.45,16.24-2.13,6.37-7.58,16.15-7.61,16.24-1.43,4.27.87,11.54,12.45,15.42,5.63,1.88,11.87,2.09,17.53.21,6.52-5.7,11.43-13.16,18.9-18.05-5.21,1.1-10.43,1.56-15.12-.01-13.1-4.38-25.67-29.74-16-58.65Z"></path> <path class="cls-31" d="m383.96,315.69c.03-.1,5.48-9.87,7.61-16.24,2.17-6.48,2.2-11.62,1.45-16.24-.05.35-.1.71-.16,1.06.38,4.02.04,7.97-1.18,11.62-1.51,4.52-7.42,12.25-17.41,19.56,4.26,5.58,7.47,11.74,8.61,15.59.77,2.6,1.92,4.8,3.19,6.88,8.41,1.27,16.6,1.64,24.64-4.04,1.13-.8,2.2-1.66,3.24-2.56-5.66,1.88-11.9,1.67-17.53-.21-11.59-3.88-13.88-11.14-12.45-15.42Z"></path> <path class="cls-24" d="m390.79,253.02c2.8-8.36,10.49-16.19,10.53-16.33.16-.49.24-.93.24-1.35-5.37,5.61-11.36,10.81-17.32,15.47,1.72,1.39,2.97,2.52,2.99,2.63,1.77,6.53.01,13.19,2.28,18.39,1.78,4.07,2.94,8.3,3.34,12.44.06-.36.11-.71.16-1.06-1.57-9.75-6.57-17.22-2.23-30.18Z"></path> <path class="cls-46" d="m431.77,187.74c.04-1.89-.03-3.78-.21-5.67-.57-.17-1.15-.33-1.73-.49.83,1.98,1.46,4.04,1.93,6.16Z"></path> <path class="cls-63" d="m461.04,287.77c2.15.72,4.34,1.27,6.54,1.65,2.06-2.1,3.94-4.3,5.61-6.6-.82-.23-1.64-.48-2.45-.75-42.52-14.22-27.44-54.63-25.45-73.61,1.11-10.61-5.14-19.59-12.99-26.18-.25-.07-.49-.15-.74-.22.18,1.89.25,3.78.21,5.67,7.36,33.13-25,81.88,29.27,100.03Z"></path> <path class="cls-4" d="m330.2,280.81c-4.08,9.42-15.06,12.75-23.96,17.61-6.5,3.55-9.78,11.47-15.9,15.68,16.67-3.13,41.96-14.55,47.99-32.59,2.44-7.31,1.99-10.16,3.17-15.6-2.06,1.47-4.12,2.92-6.11,4.42-2.19,4.01-3.98,7.69-5.19,10.48Z"></path> <path class="cls-66" d="m341.5,265.91c.35-1.6.83-3.42,1.58-5.64.41-1.22.9-2.36,1.48-3.46-.94,1.08-1.94,2.12-2.99,3.11-2.26,3.49-4.35,7.07-6.17,10.41,1.99-1.51,4.05-2.95,6.11-4.42Z"></path> <path class="cls-37" d="m306.24,298.42c8.9-4.86,19.88-8.19,23.96-17.61,1.21-2.79,3-6.46,5.19-10.48-3.18,2.41-6.16,4.99-8.58,8.12-.78,1.01-1.76,1.76-2.79,2.46-4.44,8.69-13.42,14.92-23.92,17.44-3.13.75-5.54,8.32-10.38,15.85-.1.16-.21.32-.31.49.32-.19.62-.39.93-.6,6.12-4.21,9.4-12.13,15.9-15.68Z"></path> <path class="cls-10" d="m335.39,270.33c1.82-3.34,3.92-6.92,6.17-10.41-3.79,3.56-8.36,6.43-14.1,8.03-.72,5-1.74,8.84-1.87,9.22-.43,1.29-.96,2.54-1.58,3.74,1.03-.7,2.01-1.45,2.79-2.46,2.42-3.13,5.4-5.71,8.58-8.12Z"></path> <path class="cls-64" d="m354.27,249.6c-.63,1.88-1,4.06-1.24,6.42,2.22-2.58,4.12-5.53,5.51-9.07-1.23.38-2.46.78-3.69,1.2-.21.47-.4.96-.57,1.46Z"></path> <path class="cls-35" d="m350.3,285.57c-6.24,18.65-42.99,31.75-62.44,31.35-.6.82-1.24,1.62-1.91,2.41,14.09-.92,39.62-2.59,39.62-2.59,13.36-.66,23.71-10.93,27.7-22.86,4.99-14.91-3.03-21.37,3.65-41.33.68-2.04,1.58-4.14,2.36-5.84-.25.07-.5.16-.75.23-1.39,3.54-3.29,6.49-5.51,9.07-.91,9,.21,20.76-2.73,29.55Z"></path> <path class="cls-62" d="m350.3,285.57c2.94-8.78,1.82-20.55,2.73-29.55-3.35,3.9-7.42,6.95-11.53,9.89-1.18,5.43-.73,8.29-3.17,15.6-6.03,18.04-31.33,29.47-47.99,32.59-.3.21-.61.41-.93.6-.49.74-1.01,1.49-1.55,2.22,19.45.4,56.2-12.69,62.44-31.35Z"></path> <path class="cls-57" d="m341.5,265.91c4.11-2.94,8.18-5.99,11.53-9.89.24-2.36.61-4.54,1.24-6.42.17-.5.36-.98.57-1.46-1.72.58-3.44,1.18-5.15,1.74-1.56,2.4-3.25,4.74-5.14,6.92-.57,1.1-1.07,2.23-1.48,3.46-.74,2.22-1.23,4.04-1.58,5.64Z"></path> <path class="cls-35" d="m140.71,305.05c7.86,9.96-4.06,36.5,26.32,46.66,15.72,5.26,34.95-.3,50-9.54.19-.12.39-.22.58-.34-3.98-.45-8.1-1.32-12.34-2.74-3.12-1.04-5.72-2.31-7.9-3.74-.65.06-1.29.12-1.93.21-9.75,1.31-20.22,1.23-29.06-1.72-20.74-6.94-17.85-19.84-29.78-54.85-1.3-3.81-1.2-7.55-.07-10.94.14-.42.31-.85.49-1.29-2.61-.18-5.23-.07-7.77.35-.56.97-.99,1.94-1.3,2.88-3.74,11.17,4.93,25.17,12.74,35.06Z"></path> <path class="cls-18" d="m197.38,335.35c2.18,1.43,4.77,2.69,7.9,3.74,4.23,1.42,8.35,2.29,12.34,2.74,9.35-5.4,20.79-4.2,31.29-4.91,3.53-1.5,6.76-3.19,9.66-4.91-10.66,2.56-22.63,4.82-35.59,3.51-8.41.52-17.54-.86-25.58-.17Z"></path> <path class="cls-61" d="m248.9,336.91c3.33-.23,6.56-.64,9.61-1.53.15-.37.29-.75.43-1.16.27-.79.45-1.62.56-2.45-.31.08-.63.15-.94.23-2.89,1.72-6.12,3.41-9.66,4.91Z"></path> <path class="cls-31" d="m176.71,294.89c7.78,3.21,5.98,12.04,9.53,20.63-1.3-9.35-.56-18.96-6.03-24.83-3.82-.62-7.61-1.49-11.24-2.71-11.07-3.7-17.55-8.61-24.79-19.96-.55-.16-1.1-.3-1.65-.43,5.15,13.17,21.64,22.13,34.19,27.31Z"></path> <path class="cls-27" d="m186.23,315.52c2.1,5.09,6.08,10.09,15.05,13.78-8.39-5.21-13.79-14.48-10.63-23.94.05-.15.11-.3.16-.45-5.14-3.85-6.87-9.27-8.73-13.93-.63-.09-1.26-.19-1.89-.29,5.47,5.88,4.73,15.48,6.03,24.83Z"></path> <path class="cls-6" d="m186.23,315.52c.59,4.26,1.61,8.47,3.83,12.24,3.68.86,7.47,1.37,11.27,1.57-.02,0-.03-.02-.05-.03-8.97-3.7-12.95-8.7-15.05-13.78Z"></path> <path class="cls-4" d="m159.36,301.23c5.49,5.07,4.38,17.98,25.96,25.2,1.55.52,3.13.96,4.74,1.34-2.22-3.78-3.24-7.98-3.83-12.24-3.55-8.59-1.75-17.42-9.53-20.63-12.55-5.17-29.04-14.13-34.19-27.31-.39-.09-.79-.18-1.19-.26-2.1,12.87,8.86,25.43,18.03,33.9Z"></path> <path class="cls-36" d="m197.38,335.35c8.04-.69,17.18.69,25.58.17-5.04-.51-10.23-1.55-15.55-3.33-2.14-.71-4.19-1.68-6.08-2.86-3.79-.2-7.59-.7-11.27-1.57,1.66,2.82,3.99,5.4,7.32,7.59Z"></path> <path class="cls-62" d="m136.62,278.98c11.93,35.01,9.03,47.91,29.78,54.85,8.83,2.95,19.31,3.03,29.06,1.72.63-.09,1.28-.15,1.93-.21-3.33-2.18-5.66-4.77-7.32-7.59-1.61-.38-3.19-.82-4.74-1.34-21.58-7.22-20.47-20.12-25.96-25.2-9.17-8.47-20.14-21.03-18.03-33.9-1.42-.28-2.85-.47-4.29-.58-.18.43-.35.86-.49,1.29-1.13,3.39-1.23,7.13.07,10.94Z"></path> <path class="cls-21" d="m217.61,341.83c11.86,1.33,22.5-1.19,31.29-4.91-10.5.71-21.93-.49-31.29,4.91Z"></path> <path class="cls-63" d="m217.61,341.83c-.19.11-.39.22-.58.34-15.05,9.24-34.28,14.8-50,9.54-30.38-10.16-18.45-36.7-26.32-46.66-7.81-9.89-16.48-23.89-12.74-35.06.31-.94.75-1.91,1.3-2.88-1.75.29-3.46.73-5.11,1.32-.9,1.69-1.65,3.45-2.25,5.26-3.96,11.85-1.7,26.19,5.44,37.57,4.89,7.79-14.28,47.46,28,61.6,27.23,9.11,57.9-6.5,77.59-28.11,1.65-1.81,3.92-2.78,6.48-3.22,6.96-3.07,15.02,3.88,19.09-6.13-3.04.89-6.28,1.3-9.61,1.53-8.79,3.73-19.43,6.24-31.29,4.91Zm-54.34,22.41c-1.1,3.3-4.14,5.47-8.61,3.98-8.31-2.78-24.38-18.12-20.92-33.82.57.06,1.18.21,1.82.43,1.64.55,3.01,1.56,3.91,2.84,12.45,17.84,26.84,17.46,23.79,26.57Z"></path> <path class="cls-48" d="m272.85,229.53s.81-1.8,1.26-3.14c1.82-5.44-.44-22.98-8.63-32.69,5.67,7.69,10.25,24.86,7.9,31.88-.88,2.62-2.26,4.92-3.87,7.06,1,.02,2.01.05,3.01.09.31-.47.6-.94.86-1.42-.59-.35-.81-.94-.53-1.78Z"></path> <path class="cls-47" d="m274.1,226.39c-.45,1.34-1.25,3.1-1.26,3.14-.28.84-.06,1.43.53,1.78.34-.61.63-1.23.84-1.86,1.61-4.82,3.7-9.32,6.2-13.51-1.22.34-2.34.52-3.25.21-6.24-2.09-1.46-17.17-11.98-22.84.09.12.19.26.28.38,8.19,9.71,10.45,27.25,8.63,32.69Z"></path> <path class="cls-60" d="m7.45,272.58c-.54-3.79,1.31-7.47,1.31-11.47.02-15.19-4.67-35.85-3.15-50.94h0c-2.33-.78-3.98-1.52-5.51-2.3.04.33.1.67.16,1,4.2,20.76-9.07,78.86,32.15,118.74-12.75-15.96-22.12-34.94-24.97-55.03Z"></path> <path class="cls-67" d="m5.62,210.17c.28-2.82.79-5.44,1.57-7.8,2.51-7.5,7.92-12.01,14.15-15.88-1.44.63-2.89,1.23-4.36,1.79-6.34,2.42-14.05,7.03-16.32,13.82-.59,1.77-.81,3.69-.54,5.75,1.53.79,3.18,1.52,5.51,2.3h0Z"></path> <path class="cls-49" d="m22.55,242.17c2.08-6.21,4.78-12.32,6.82-18.43,1.86-5.55,2.51-9.27,2.85-12.46-8.76,1.49-17.38,1.97-26.6-1.11-1.53,15.09,3.16,35.75,3.15,50.94,0,4.01-1.85,7.68-1.31,11.47,2.85,20.09,12.22,39.07,24.97,55.03,5.7,5.52,12.45,10.69,20.43,15.36,7.89,4.62,16.99,8.76,27.48,12.27,21.72,7.26,32.36,4.49,48.08,6.18-1.27-1.19-2.44-2.39-3.51-3.57-12.73,2.43-25.71,1.09-38.05-3.04-50.11-16.76-78.87-69.06-64.29-112.65Z"></path> <path class="cls-43" d="m5.62,210.17c9.22,3.08,17.84,2.61,26.6,1.11.54-5.06.3-8.8,2.85-16.43,5.81-17.38,21.64-26.63,39.04-31.15-19.61,2.68-34.97,15.01-52.77,22.8-6.23,3.86-11.64,8.37-14.15,15.88-.79,2.36-1.29,4.98-1.57,7.8Z"></path> <path class="cls-35" d="m82.77,289.11c-2.34-27.24-18.32-55.92-12.65-72.89,1.35-4.03,4.1-7.3,7.75-9.64-10.66-1.59-20.12-.38-29.02,1.35.14,1.65.47,3.39,1.02,5.22,14.26,48.26-3.37,106.66,55.41,126.32,4.5,1.51,9.17,2.53,13.9,3.02.55-2.47,1.24-4.92.29-7.13-1.27-2.95-2.59-5.99-3.87-9.09-2.26-1.35-4.27-2.96-6.01-4.78-13.6-5.35-25.53-17.42-26.82-32.39Z"></path> <path class="cls-29" d="m49.68,200.26c-.77,2.29-1.08,4.84-.83,7.66,8.9-1.73,18.35-2.94,29.02-1.35,4.82-3.1,11.22-4.61,18.08-4.17-2.46-5.36-4.7-11.4-6.53-18.29-15.67-1.83-35.33,2.97-39.73,16.14Z"></path> <path class="cls-1" d="m103.1,215.45c-.58-.91-1.16-1.83-1.74-2.79-.72.19-1.41.44-2.08.73,1.3.65,2.57,1.34,3.82,2.06Z"></path> <path class="cls-4" d="m99.29,213.39c-3.45,1.49-6.21,4.26-7.73,8.81-1.27,3.81-1.43,8.21-.61,12.26,7.35,36.05-11.42,69.31,17.25,85.47-7.78-9.39-9.52-23.33-5.49-35.38,2.44-7.29,6.56-11.77,8.78-18.41,2.73-8.17-1.34-25.06-.86-40.29-2.48-3.1-5.02-6.54-7.51-10.41-1.25-.72-2.52-1.41-3.82-2.06Z"></path> <path class="cls-26" d="m110.98,220.68c.12-1.07.27-2.12.46-3.16-1.21-1.89-2.29-3.72-3.28-5.51-2.39-.12-4.7.07-6.8.65.58.96,1.16,1.88,1.74,2.79,2.75,1.59,5.37,3.34,7.88,5.23Z"></path> <path class="cls-11" d="m103.1,215.45c2.49,3.87,5.04,7.3,7.51,10.41.06-1.75.17-3.48.36-5.17-2.51-1.89-5.13-3.64-7.88-5.23Z"></path> <path class="cls-32" d="m117.38,226.02c-.64-.85-1.26-1.68-1.85-2.5.07.35.15.7.23,1.05.54.48,1.08.96,1.62,1.45Z"></path> <path class="cls-34" d="m123.75,241.8c4.29,5.95,6.36,11.4,4,18.46-1.74,5.19-4.72,7.97-7.12,9.72,6.95-3.69,15.67-4.22,23.54-1.96-4.17-6.54-8.59-15.23-14.29-27.05-5.01-5.54-9.1-10.45-12.5-14.94-.53-.49-1.07-.97-1.62-1.45,1.48,6.05,5.72,11.84,7.98,17.23Z"></path> <path class="cls-36" d="m77.87,206.58c3.82.57,7.8,1.49,11.96,2.88,3.31,1.11,6.46,2.42,9.46,3.93.67-.29,1.36-.53,2.08-.73-1.88-3.12-3.7-6.52-5.42-10.25-6.86-.44-13.26,1.07-18.08,4.17Z"></path> <path class="cls-62" d="m90.94,234.46c-.83-4.05-.66-8.45.61-12.26,1.52-4.55,4.28-7.33,7.73-8.81-3-1.5-6.15-2.82-9.46-3.93-4.16-1.39-8.14-2.32-11.96-2.88-3.65,2.35-6.4,5.61-7.75,9.64-5.68,16.97,10.3,45.65,12.65,72.89,1.29,14.97,13.22,27.04,26.82,32.39-.49-.51-.95-1.03-1.4-1.57-28.67-16.16-9.9-49.42-17.25-85.47Z"></path> <path class="cls-51" d="m74.11,163.7c-17.4,4.52-33.23,13.78-39.04,31.15-2.55,7.63-2.31,11.37-2.85,16.43,5.43-.93,10.92-2.25,16.64-3.36-.25-2.82.07-5.37.83-7.66,4.41-13.18,24.06-17.97,39.73-16.14-1.44-5.4-2.63-11.32-3.49-17.84-.14-1.08-.39-2.08-.74-3.01-3.86-.23-7.54-.06-11.08.42Z"></path> <path class="cls-63" d="m49.87,213.15c-.54-1.84-.87-3.58-1.02-5.22-5.71,1.11-11.2,2.43-16.64,3.36-.34,3.19-.99,6.91-2.85,12.46-2.05,6.11-4.75,12.22-6.82,18.43-14.58,43.59,14.18,95.89,64.29,112.65,12.34,4.13,25.32,5.47,38.05,3.04-3.69-4.09-6.07-8.07-6.21-11.36-.06-1.32.2-2.66.5-4-4.73-.49-9.4-1.52-13.9-3.02-58.78-19.66-41.16-78.06-55.41-126.32Zm-20.44,38.36c2.38-7.12,3.74-10.09,10.85-7.71,18.53,6.2,11.92,43.47,18.33,66.04.3,1.06.22,2.31-.18,3.52-.31.91-.8,1.81-1.45,2.59-16.86-16.96-35.76-39.87-27.54-64.44Z"></path> <path class="cls-33" d="m115.76,224.57c-.09-.35-.17-.7-.23-1.05-1.51-2.08-2.86-4.07-4.09-6-.19,1.03-.34,2.09-.46,3.16,1.64,1.24,3.23,2.53,4.78,3.89Z"></path> <path class="cls-24" d="m115.76,224.57c-1.55-1.35-3.14-2.65-4.78-3.89-.19,1.69-.31,3.42-.36,5.17,5.02,6.29,9.76,11.27,13.13,15.94-2.27-5.39-6.5-11.18-7.98-17.23Z"></path> <path class="cls-1" d="m189.91,53.8c-1.21-1.42-2.5-2.76-3.85-4.04-16.33,3.72-25.81-1.84-57.83,11.66,11.61-1.74,25.08-5.3,39.96-5.25,5.03-1.24,10.05-2.37,11.12-2.56,2.89-.52,6.65.12,10.59.18Z"></path> <path class="cls-4" d="m211.5,38.63c-10.96,6.54-18.77,9.61-25.44,11.13,1.35,1.28,2.63,2.62,3.85,4.04,4.18.07,8.57-.51,12.37-3.81.87-.75,1.77-1.49,2.7-2.19,4.43-5.52,9.72-9.93,16.08-12.19-3.4.26-6.71,1.33-9.56,3.03Z"></path> <path class="cls-52" d="m179.31,53.62c-1.07.19-6.09,1.31-11.12,2.56,7.93.03,16.27,1.08,24.94,3.98.6.2,1.2.41,1.79.64-1.48-2.52-3.16-4.84-5.01-6.99-3.94-.06-7.7-.7-10.59-.18Z"></path> <path class="cls-31" d="m189.91,53.8c1.84,2.15,3.52,4.47,5.01,6.99.52.2,1.04.4,1.55.61,2.43-4.85,5.24-9.53,8.51-13.6-.93.7-1.83,1.44-2.7,2.19-3.81,3.3-8.2,3.88-12.37,3.81Z"></path> <path class="cls-60" d="m135.73,21.65c10.43-.76,17.35-4.33,23-8.06-9.85,5.4-22.3,2.74-28.96,5.26,1.75.99,3.54,1.94,5.36,2.86.2-.03.4-.05.6-.07Z"></path> <path class="cls-8" d="m135.13,21.72c-1.82-.92-3.61-1.87-5.36-2.86-2.04.77-3.54,2.03-4.25,4.16,0,.01-.47,1.69-.94,3.08-.8,2.4-1.75,4.67-2.79,6.84,4.12-5.54,8.48-10.51,13.34-11.22Z"></path> <path class="cls-54" d="m168.48,37.51c-19.68-1.5-46.42-1.03-58.02,30.97,1.44-.71,2.93-1.38,4.49-2,1.61-.65,2.93-4.09,4.66-4.16,2.74-.11,5.62-.44,8.62-.89,32.02-13.5,41.49-7.94,57.83-11.66-5.12-4.85-11.13-8.77-17.57-12.25Z"></path> <path class="cls-62" d="m189.76,37.66c-3.63,1.81-11.6.59-21.28-.15,6.44,3.47,12.46,7.4,17.57,12.25,6.67-1.52,14.48-4.58,25.44-11.13,2.85-1.7,6.16-2.77,9.56-3.03,6.13-2.17,13.25-2.34,21.58.44.69.23,1.36.48,2.02.76-3.12-4.45-7.47-7.95-13.12-9.84-14.55-4.87-28.66,4.16-41.77,10.7Z"></path> <path class="cls-25" d="m154.55,30.73c-6.52-2.96-13.13-5.82-19.42-9.01-4.86.71-9.22,5.68-13.34,11.22-7.13,14.82-18.87,24.34-21.37,31.83-1.15,3.44-1.45,7.18-1.08,10.9,1.64-1.36,3.38-2.65,5.24-3.85,10.89-29.34,36.4-34.77,49.96-41.08Z"></path> <path class="cls-49" d="m219.2,9.09c-17.36-2.81-37.43-4.7-38.93-4.88-7.12-.88-11.98,2.69-17.85,6.84-1.17,1-2.41,1.84-3.69,2.54-5.64,3.72-12.57,7.29-23,8.06-.2.01-.4.04-.6.07,6.28,3.19,12.89,6.05,19.42,9.01,2.97-1.38,5.36-2.8,6.91-4.52,14.38-16.01,34.37-16.98,52.82-10.81,17.21,5.76,30.13,15.79,37.1,25.19,4.87,3.58,8.75,8.51,11.78,14.32,1.21-.72,2.42-1.44,3.65-2.15-10.19-19.29-24.24-35.9-45.27-42.93-.77-.26-1.55-.5-2.34-.73Z"></path> <path class="cls-35" d="m161.46,26.21c-1.55,1.72-3.94,3.14-6.91,4.52,4.75,2.15,9.44,4.36,13.94,6.78,9.68.74,17.65,1.96,21.28.15,13.11-6.54,27.22-15.56,41.77-10.7,5.65,1.89,10,5.39,13.12,9.84,2.43,1,4.66,2.27,6.72,3.79-6.97-9.41-19.89-19.44-37.1-25.19-18.45-6.17-38.44-5.2-52.82,10.81Zm44.43-4.61c-.08.23-.53.69-.77.74-9.67,1.75-14.52,15.46-31.89,11.43-2.27-2.13-2.6-5.98-1.62-8.91,2.09-6.24,13.41-10.57,29.6-5.15.25.08,4.77,1.64,4.69,1.89Z"></path> <path class="cls-18" d="m168.48,37.51c-4.49-2.42-9.19-4.63-13.94-6.78-13.56,6.31-39.07,11.74-49.96,41.08,1.85-1.19,3.8-2.31,5.88-3.33,11.6-32,38.34-32.47,58.02-30.97Z"></path> <path class="cls-25" d="m383,84.37c3.76,9.73,11.86,9.01,12.59,15.41.51-21.33-4.11-45.83-26.63-60.81-3.66,2.8-7.48,5.16-11.39,7.36,13.24,9.16,19.44,22.54,25.43,38.03Z"></path> <path class="cls-49" d="m357.57,46.34c3.9-2.2,7.73-4.57,11.39-7.36-4.84-3.22-10.51-6-17.13-8.22-3.15-1.05-6-1.73-8.7-2.2-12.46-.34-25.14,2.09-37.53,6.2,11.49-.9,24.11-.11,36.67,4.09,5.99,2.01,11.02,4.53,15.3,7.49Z"></path> <path class="cls-63" d="m322.1,69.55c3.08-3.26,6.34-6.01,9.72-8.44-2.22-1.28-4.4-2.64-6.55-4.06-.75-2.46-1.12-5.16-.49-7.04,1.62-4.83,13.85-3.13,18.74-1.49,2.01.67,3.84,1.49,5.52,2.41,2.86-1.51,5.71-3,8.52-4.59-4.29-2.96-9.31-5.49-15.3-7.49-12.56-4.2-25.18-4.99-36.67-4.09-.5.16-.99.33-1.49.5-1.41,1.74-2.61,3.61-3.28,5.6-2.28,6.82,6.19,21.15,21.28,28.69Z"></path> <path class="cls-16" d="m395.59,99.79c-.72-6.4-8.82-5.69-12.59-15.41-5.99-15.49-12.19-28.88-25.43-38.03-2.81,1.58-5.67,3.08-8.52,4.59,10.16,5.53,14.44,14.56,14.07,15.68-1.91,5.72-11.75,2.79-17.5.86-4.81-1.61-9.39-3.82-13.79-6.36-3.38,2.43-6.64,5.18-9.72,8.44,1.91.96,3.93,1.8,6.05,2.51,12.39,4.15,23.29,3.49,35.69,7.64,11.72,3.92,22.56,10.94,29.86,20.84.62.83,1.2,1.69,1.77,2.56.03-.58.05-1.17.07-1.76.02-.52.03-1.04.05-1.56Z"></path> <path class="cls-25" d="m345.61,67.47c5.75,1.92,15.59,4.85,17.5-.86.37-1.11-3.91-10.15-14.07-15.68-5.83,3.08-11.68,6.2-17.22,10.18,4.4,2.54,8.98,4.75,13.79,6.36Z"></path> <path class="cls-49" d="m324.79,50.01c-.63,1.89-.26,4.58.49,7.04,2.14,1.41,4.32,2.78,6.55,4.06,5.54-3.99,11.39-7.11,17.22-10.18-1.68-.91-3.51-1.73-5.52-2.41-4.89-1.64-17.12-3.34-18.74,1.49Z"></path> <path class="cls-35" d="m311.78,84.08c3.08-5.83,6.57-10.56,10.32-14.53-15.09-7.54-23.56-21.87-21.28-28.69.67-1.99,1.87-3.86,3.28-5.6-10.46,3.59-20.69,8.34-30.39,13.61,6.88,18.17,21.09,28.94,38.06,35.22Z"></path> <path class="cls-18" d="m363.84,79.71c-12.4-4.15-23.29-3.5-35.69-7.64-2.12-.71-4.14-1.56-6.05-2.51-3.75,3.97-7.24,8.7-10.32,14.53.96.35,1.92.7,2.89,1.02,28.89,9.66,54.22,5.31,64.93,8.89,3.43,1.15,6.54,2.85,9.33,4.97,2.13,1.62,4.07,3.49,5.83,5.56.24-.47.48-.94.69-1.42,0,0,0-.01,0-.02-.56-.87-1.15-1.73-1.77-2.56-7.3-9.89-18.14-16.91-29.86-20.84Z"></path> <path class="cls-62" d="m305.24,100.31c.3-.99.61-1.97.93-2.95,1.67-4.98,3.55-9.37,5.62-13.27-16.97-6.27-31.19-17.05-38.06-35.22-2.34,1.27-4.64,2.57-6.92,3.89-.15.09-.3.18-.45.27,23.2,11.33,20.18,35.32,38.88,47.29Z"></path> <path class="cls-36" d="m305.24,100.31c2.43,1.56,5.23,2.91,8.5,4.01,17.95,6,48.58-12.4,75.2-5.34-2.79-2.13-5.9-3.83-9.33-4.97-10.72-3.58-36.05.77-64.93-8.89-.97-.33-1.94-.67-2.89-1.02-2.06,3.9-3.95,8.29-5.62,13.27-.33.97-.63,1.96-.93,2.95Z"></path> <path class="cls-60" d="m343.12,28.56c2.7.47,5.55,1.15,8.7,2.2,6.62,2.22,12.29,5,17.13,8.22,1.26-.97,2.51-1.99,3.73-3.07-2.34-1.44-4.89-2.65-7.66-3.58-7.15-2.39-14.49-3.57-21.9-3.77Z"></path> <path class="cls-67" d="m395.59,99.79c-.01.52-.03,1.04-.05,1.56-.02.59-.05,1.18-.07,1.76h0c.22-.49.43-.99.61-1.5.07-.19.14-.37.2-.56,2.89-8.63,1.26-49.87-23.61-65.13-1.22,1.08-2.46,2.1-3.73,3.07,22.52,14.98,27.14,39.48,26.63,60.81Z"></path> <path class="cls-56" d="m301.62,116.54c-.71,4.59-1.2,9.27-1.5,13.98.36.93.73,1.85,1.11,2.78,4.68-4.36,9.91-8.05,15.51-11.09-3.9-.29-7.43-.73-10.21-1.66-2.23-.75-3.72-2.22-4.91-4.02Z"></path> <path class="cls-28" d="m296.7,107.28c-4.84-7.11-11.6-11.98-18.86-15.95,8.38,9.56,17.05,20.47,18.23,23.45,1.55,3.9,1.25,7.88,2.63,11.91.44,1.28.92,2.56,1.42,3.84.3-4.71.79-9.39,1.5-13.98-1.83-2.78-2.94-6.35-4.92-9.26Z"></path> <path class="cls-37" d="m301.62,116.54c.31-2.04.67-4.06,1.08-6.07-18.85-11.43-20.9-33.59-36.79-49.5,2.78,7.09,4.58,15.08,5.59,23.33,2,2.14,4.16,4.54,6.34,7.03,7.26,3.97,14.03,8.84,18.86,15.95,1.98,2.91,3.09,6.48,4.92,9.26Z"></path> <path class="cls-7" d="m311.7,114.61c-3.39-1.13-6.36-2.53-9-4.13-.41,2-.76,4.03-1.08,6.07,1.19,1.8,2.68,3.28,4.91,4.02,2.78.93,6.31,1.37,10.21,1.66,19.61-10.63,43.79-13.18,65.3-8.04-.91-.35-1.83-.68-2.76-.99-34.3-11.47-44.12,9.27-67.58,1.42Z"></path> <path class="cls-9" d="m313.74,104.31c-3.27-1.09-6.07-2.45-8.5-4.01-1,3.32-1.84,6.71-2.54,10.17,2.64,1.6,5.62,3,9,4.13,23.46,7.85,33.28-12.89,67.58-1.42.93.31,1.84.64,2.76.99,1.83.44,3.64.93,5.42,1.47,2.4-3.76,5.3-7.27,7.32-11.12-1.76-2.07-3.7-3.94-5.83-5.56-26.62-7.06-57.25,11.34-75.2,5.34Z"></path> <path class="cls-4" d="m305.24,100.31c-18.71-11.97-15.69-35.96-38.88-47.29-1.07.63-2.14,1.25-3.2,1.89,1.01,1.93,1.92,3.96,2.75,6.07,15.89,15.91,17.95,38.07,36.79,49.5.7-3.46,1.54-6.85,2.54-10.17Z"></path> <path class="cls-49" d="m123.09,422.3c-2.94-.98-4.29,1.01-5.27,3.95-1.1,3.3,2.14,12.58,6.47,20.44,3.13-5.14,5.61-10.92,7.66-17.04.09-.26.17-.51.25-.77-2.35-1.69-4.81-3.55-7.36-5.61-.52-.42-1.13-.76-1.75-.97Z"></path> <path class="cls-25" d="m124.29,446.69c1.95,3.55,4.12,6.8,6.2,9.09,9.44,2.78,20.26,3.82,22.87-3.98,2.81-8.42-7.1-12.79-21.16-22.92-.08.26-.17.52-.25.77-2.05,6.12-4.53,11.9-7.66,17.04Z"></path> <path class="cls-49" d="m118.67,454.34c-22.47-15.72-7.28-34.33-24.63-43.05-26.18-13.16-40.65-35.74-45.21-53.31-1.57,13.95,7.58,18.66,23.05,56.6,9.26,17.94,21.1,36.23,39.4,46.35,2.73-1.91,5.18-4.12,7.38-6.59Z"></path> <path class="cls-14" d="m138.73,463.83c-8.83-2.95-15.29-6.16-20.06-9.49-2.2,2.47-4.65,4.68-7.38,6.59,3.27,1.81,6.74,3.36,10.44,4.59,11.37,3.8,32.88,7.5,53.4,6.9,12.45-2.31,28.21-8.27,49.4-21.54-.35-.11-.69-.22-1.04-.34-2.1-.7-4.14-1.44-6.12-2.21-22.7,13.23-55.39,23.27-78.65,15.49Z"></path> <path class="cls-67" d="m111.29,460.93c-3.15,2.2-6.67,3.99-10.64,5.29.3.16.63.3.98.42,4.76,1.59,9.67-.52,13.95.91,2.41.81,4.7,2.25,6.92,3,1.2.4,2.38.6,3.55.39,14.13-2.57,25.87,5.79,49.08,1.49-20.52.6-42.04-3.1-53.4-6.9-3.7-1.24-7.17-2.79-10.44-4.59Z"></path> <path class="cls-60" d="m111.29,460.93c-18.3-10.12-30.15-28.41-39.4-46.35,2.61,6.39,5.4,13.73,8.34,22.22,3.82,10.99,13.88,15.16,18.61,27.49.33.86.97,1.49,1.81,1.94,3.97-1.31,7.49-3.1,10.64-5.29Z"></path> <path class="cls-51" d="m134.28,421.86c-.66,2.43-1.35,4.79-2.08,7.02,14.06,10.13,23.97,14.51,21.16,22.92-2.61,7.8-13.43,6.75-22.87,3.98-2.08-2.29-4.25-5.54-6.2-9.09-1.67,2.75-3.54,5.31-5.62,7.65,4.77,3.34,11.23,6.54,20.06,9.49,23.25,7.78,55.95-2.26,78.65-15.49-3.93-1.52-7.62-3.15-11.09-4.88-13.68,4.33-28.76,4.29-42.34-.25-16.3-5.45-23.24-13.64-29.66-21.36Z"></path> <path class="cls-63" d="m94.04,411.29c17.36,8.72,2.17,27.33,24.63,43.05,2.08-2.34,3.94-4.9,5.62-7.65-4.32-7.86-7.57-17.14-6.47-20.44.98-2.94,2.33-4.94,5.27-3.95.63.21,1.23.55,1.75.97,2.54,2.06,5.01,3.92,7.36,5.61.73-2.24,1.42-4.59,2.08-7.02-5.82-7-11.21-13.62-22.75-17.48-7.05-2.36-14.65-3.58-21.91-6.01-25.73-8.61-34.37-34.02-34.88-54.31-.64-.36-1.27-.72-1.89-1.08-.34.92-.67,1.83-.98,2.76-1.68,5.01-2.67,8.89-3.05,12.25,4.55,17.57,19.02,40.15,45.21,53.31Z"></path> <path class="cls-35" d="m89.63,398.36c7.25,2.43,14.85,3.65,21.91,6.01,11.54,3.86,16.93,10.48,22.75,17.48,2.04-7.56,3.74-15.84,5.24-23.55-5.88-8.1-12.36-15.12-22.13-18.38-11.05-3.69-24.69-2.16-34.68-5.5-12.48-4.18-21.34-15.75-24.29-28.38-1.26-.65-2.48-1.32-3.68-1.99.51,20.28,9.15,45.7,34.88,54.31Z"></path> <path class="cls-29" d="m139.52,398.31c-1.5,7.71-3.2,15.99-5.24,23.55,6.42,7.72,13.36,15.91,29.66,21.36,13.58,4.54,28.66,4.58,42.34.25-3.49-1.74-6.76-3.58-9.8-5.49-5.92,1.08-12.21.35-18.24-1.67-20.25-6.77-28.58-24-38.73-37.99Z"></path> <path class="cls-31" d="m80.33,355.25c-2.33-.78-4.59-1.59-6.79-2.44,4.92,3.54,10.59,6.18,16.62,8.2,17.88,5.98,33.2,5.26,41.03,7.87,4.58,1.53,8.59,4.88,12.37,9.3.4-1.72.8-3.24,1.2-4.53-5.88-3.56-11.7-7.86-16.34-12.22-15.71-1.69-26.36,1.08-48.08-6.18Z"></path> <path class="cls-41" d="m186.91,431.16c-22.28-17.89-29.29-39.63-30.51-51.51-3.69-1.52-7.68-3.59-11.65-6-.4,1.29-.79,2.81-1.2,4.53,12.64,14.78,22.76,41.58,43.35,52.98Z"></path> <path class="cls-62" d="m82.71,374.43c9.99,3.34,23.63,1.8,34.68,5.5,9.76,3.27,16.25,10.28,22.13,18.38,1.5-7.7,2.8-14.83,4.04-20.12-3.78-4.42-7.79-7.77-12.37-9.3-7.83-2.62-23.15-1.89-41.03-7.87-6.03-2.02-11.7-4.66-16.62-8.2-5.44-2.08-10.47-4.34-15.12-6.76,2.95,12.63,11.81,24.2,24.29,28.38Z"></path> <path class="cls-36" d="m139.52,398.31c10.15,13.99,18.48,31.22,38.73,37.99,6.02,2.01,12.32,2.75,18.24,1.67-3.47-2.18-6.65-4.46-9.58-6.81-20.6-11.4-30.71-38.2-43.35-52.98-1.24,5.29-2.54,12.42-4.04,20.12Z"></path> <path class="cls-44" d="m336.44,330.82c-17.93.23-37.92-3.67-54.37-7.62-3.09,2.61-6.82,4.71-11.43,5.81-3.53.84-7.25,1.82-11.16,2.77-.11.83-.3,1.66-.56,2.45-4.04,12.08-12.86,3.6-20.23,7.65,1.63-.14,7.87-.6,16.5-.02,26.96-19.24,60-4.37,81.25-11.04Z"></path> <path class="cls-28" d="m254.01,342.73c.39-.3.79-.59,1.19-.87-8.62-.58-14.87-.12-16.5.02-1.76.97-3.43,2.64-4.94,5.49,7.05-.92,14.63-.39,20.25-4.64Z"></path> <path class="cls-42" d="m255.2,341.86c8.06.54,18.2,2,28.57,5.47.93.31,1.84.63,2.74.95,22.42,3.48,43.31,7.72,55.07-8.55,3.2-4.43,6.15-8.33,8.88-11.82-2.89,1.02-5.92,1.95-9.09,2.74-1.62.09-3.26.15-4.92.17-21.25,6.67-54.29-8.2-81.25,11.04Z"></path> <path class="cls-65" d="m286.51,348.27c-.9-.32-1.81-.64-2.74-.95-10.37-3.47-20.51-4.92-28.57-5.47-.4.28-.79.57-1.19.87-5.62,4.25-13.2,3.73-20.25,4.64-.69,1.3-1.34,2.83-1.95,4.66-.23.7-.49,1.31-.75,1.86,16.52-10.94,36.53-8.55,55.45-5.61Z"></path> <path class="cls-35" d="m324.4,384.95c2.13.71,4.28,1.46,6.45,2.18,5.41,1.81,11.95,4.02,18.82,4.33-2.17-1.89-4.35-3.89-6.59-5.96-4.82-.37-9.88-1.46-15.06-3.2-13.61-4.55-27.98-13.82-33.6-15.7-7.91-2.65-17.06-.99-20.38,8.95-1.6,4.8-1.7,10.36-.24,15.27,2.22,1.05,4.51,1.99,6.88,2.79,5.82,1.95,8.78,2.02,10.97,2.59.15-1.6.48-3.17.98-4.66,4.89-14.61,17.16-11.48,31.78-6.59Z"></path> <path class="cls-29" d="m343.08,385.5c2.24,2.07,4.42,4.06,6.59,5.96,13.21.58,27.65-5.89,37.67-35.86,1.18-3.52,2.15-7.14,2.97-10.82-1.31-2.39-2.85-4.55-4.25-6.86-.05-.08-.1-.16-.14-.24-.88,5.65-2.66,12.65-5.7,21.73-6.67,19.94-20.51,27.36-37.15,26.09Z"></path> <path class="cls-60" d="m325.56,390.7c-7.45.66-13.54,4.88-19.59,9.23,6.09-1.8,12.2-7.89,27.12-2.9.82.27,1.63.56,2.44.86,3.41,1.24,6.77,2.62,10.07,3.72,6.37,2.13,12.32,1.77,17.68-.14-2.59-1.47-5.07-3.16-7.52-5.02-11.51-1.05-22.62-6.42-30.2-5.75Z"></path> <path class="cls-8" d="m355.76,396.46c2.44,1.86,4.93,3.55,7.52,5.02,13.54-4.83,23.37-19.58,27-29.17-9.44,21.44-22.21,25.27-34.52,24.15Z"></path> <path class="cls-63" d="m325.56,390.7c7.58-.67,18.69,4.71,30.2,5.75-2.04-1.56-4.06-3.23-6.09-5-6.87-.3-13.41-2.52-18.82-4.33-2.17-.72-4.32-1.47-6.45-2.18-14.62-4.89-26.89-8.02-31.78,6.59-.5,1.5-.83,3.07-.98,4.66.21.06.41.11.61.18,2.76.92,5.28,2.7,7.8,3.54,2.14.72,4.03.57,5.91.01,6.05-4.35,12.14-8.58,19.59-9.23Z"></path> <path class="cls-51" d="m349.67,391.46c2.03,1.77,4.04,3.44,6.09,5,12.31,1.12,25.08-2.71,34.52-24.15.17-.45.33-.89.47-1.32,4.5-13.46,2.69-20.49-.43-26.2-.82,3.68-1.79,7.3-2.97,10.82-10.02,29.97-24.47,36.44-37.67,35.86Z"></path> <path class="cls-1" d="m350.46,327.91c-2.73,3.49-5.68,7.39-8.88,11.82-11.75,16.27-32.65,12.03-55.07,8.55,15.92,5.68,27.83,13.06,37.64,20.69,18-4.24,31.08-43.17,56.4-43.53-1.58-3.13-3.74-6.66-6.28-9.99-6.33,4.63-14.29,9.09-23.82,12.46Z"></path> <path class="cls-4" d="m287.38,354.43c10.8,3.61,19.4,10.91,29.09,14.15,2.68.9,5.23.96,7.68.38-9.81-7.63-21.72-15.01-37.64-20.69-18.92-2.94-38.93-5.33-55.45,5.61-1.28,2.63-2.92,3.72-4.53,4.5,5.14,6.26,10.67,6.55,14.05,9.11,2.59,1.97,5.14,4,7.7,6.03.35-2.62.85-5.19,1.65-7.59,5.05-15.08,22.43-16.53,37.45-11.5Z"></path> <path class="cls-54" d="m324.15,368.96c7.18,5.58,13.24,11.28,18.93,16.53,16.64,1.27,30.48-6.14,37.15-26.09,3.04-9.08,4.82-16.08,5.7-21.73-1.21-2.01-2.3-4.14-3.04-6.64-.46-1.56-1.26-3.49-2.33-5.61-25.32.36-38.4,39.28-56.4,43.53Zm53.15-22.02c-2.7,8.06-13.94,22.18-28.07,24.81.52-5.38.17-10.9,1.81-15.81,2.37-7.07,14.01-17.67,21.89-15.04,2.77.93,5.34,3.15,4.37,6.04Z"></path> <path class="cls-62" d="m294.42,366.6c5.62,1.88,19.99,11.15,33.6,15.7,5.19,1.73,10.24,2.83,15.06,3.2-5.69-5.26-11.75-10.96-18.93-16.53-2.45.58-5,.51-7.68-.38-9.69-3.24-18.29-10.53-29.09-14.15-15.03-5.03-32.41-3.58-37.45,11.5-.8,2.4-1.3,4.97-1.65,7.59,8.1,6.44,16.22,12.88,25.52,17.3-1.46-4.92-1.36-10.48.24-15.27,3.32-9.94,12.47-11.59,20.38-8.95Z"></path> </g> </g> </svg> 