<?xml version="1.0" encoding="UTF-8"?> <svg xmlns="http://www.w3.org/2000/svg" id="Layer_2" data-name="Layer 2" viewBox="0 0 519.69 469.5"> <defs> <style> .cls-1 { fill: #968ca2; } .cls-2 { fill: #d2bdc8; } .cls-3 { fill: #aea7c1; } .cls-4 { fill: #bcb7c9; } .cls-5 { fill: #988895; } .cls-6 { fill: #9894b0; } .cls-7 { fill: #a48e99; } .cls-8 { fill: #d0c4ce; } .cls-9 { fill: #a494a0; } .cls-10 { fill: #8d7b87; } .cls-11 { fill: #bda5ae; } .cls-12 { fill: #bab3c7; } .cls-13 { fill: #d4c4cd; } .cls-14 { fill: #cdb7c1; } .cls-15 { fill: #d3c1cd; } .cls-16 { fill: #98848f; } .cls-17 { fill: #c5b1bc; } .cls-18 { fill: #d8dddc; } .cls-19 { fill: #bba5b0; } .cls-20 { fill: #d3ced8; } .cls-21 { fill: #c4c0d0; } .cls-22 { fill: #e1d9e4; } .cls-23 { opacity: .59; } .cls-24 { fill: #ccb9c4; } .cls-25 { fill: #918293; } .cls-26 { fill: #cac5d2; } </style> </defs> <g id="clipping_mask" data-name="clipping mask"> <g class="cls-23"> <path class="cls-18" d="m130.89,199.97c.09.06-.03-1.71,1.83-4.05,1.82-2.36,5.66-4.58,10.9-6.62,10.3-4.51,25.64-10.07,45.13-14.9,9.76-2.36,20.53-4.59,32.17-6.58,2.74-.47,5.53-.92,8.36-1.36-8.19,3.04-16.59,6.86-24.87,11.8-10.11,6.02-20.07,13.71-28.52,23.51-8.44,9.79-15.26,21.43-20.52,33.92-5.24,12.52-8.91,25.2-12.08,37.43-3.15,12.25-5.83,24.09-8.75,35.24-2.89,11.16-6.06,21.62-9.74,31.13-3.75,9.47-7.92,18.04-12.66,25.3-4.66,7.29-9.78,13.35-13.95,18.95-4.2,5.57-7.56,10.62-9.71,15.07-2.18,4.43-3.31,8.11-3.83,10.64-.31,1.25-.38,2.25-.51,2.89-.1.65-.15.99-.15.99,0,0,.07-.33.21-.98.16-.64.29-1.62.67-2.85.66-2.48,1.97-6.06,4.33-10.32,2.34-4.27,5.87-9.08,10.28-14.43,4.38-5.37,9.77-11.22,14.83-18.52,5.11-7.24,9.68-15.85,13.79-25.4,4.05-9.58,7.54-20.13,10.69-31.32,3.18-11.19,6.07-23.01,9.33-35.12,3.28-12.1,6.97-24.53,12.05-36.68,5.11-12.12,11.61-23.25,19.59-32.61,7.98-9.35,17.44-16.8,27.13-22.72,9.7-5.93,19.67-10.37,29.25-13.75,7.02-2.5,13.84-4.42,20.33-6.01.6-.08,1.18-.16,1.78-.24,26.36-3.46,55.6-6.41,85.9-12.65,17.38-3.59,34.16-8.18,49.76-13.93-5.97,3.74-12.25,8.11-18.56,13.27-10.77,8.72-21.25,20-30.55,32.96-9.37,12.95-16.41,26.46-22.18,38.91-5.73,12.49-10.08,24.06-13.54,33.81-3.46,9.76-5.98,17.74-7.74,23.25-1.71,5.52-2.66,8.58-2.66,8.58,0,0,1.22-2.96,3.43-8.3,2.22-5.34,5.35-13.09,9.41-22.57,4.05-9.48,8.98-20.72,15.08-32.85,6.14-12.09,13.33-25.17,22.46-37.78,9.08-12.63,19.09-23.63,29.38-32.31,10.26-8.73,20.48-15.44,29.26-20.74,8.79-5.29,16.17-9.16,21.25-11.89,5.08-2.73,7.89-4.28,7.73-4.63-.05-.1-.44-.06-1.1.11,8.13-5.11,15.56-10.62,22.21-16.36,9.01-7.93,16.6-16.14,22.99-24.02,6.27-7.73,11.52-15.02,15.96-21.58.21-.25.44-.51.65-.75,3.48-4.18,6.28-8.22,8.65-11.82,2.29-3.65,4.11-6.88,5.46-9.58.87-1.76,1.56-3.26,2.09-4.52.3-.37.61-.74.92-1.14.95-1.2,1.95-2.47,3.01-3.82.55-.73,1.14-1.55,1.61-2.66.46-1.06.81-2.67.22-4.28l-.58-1.57-1.81.13c-.77.05-1.58.39-2.15.82-.59.43-1,.91-1.34,1.36-.68.95-1.03,1.57-1.57,2.42-1,1.63-2.11,3.44-3.24,5.29-8.62,14.36-15.89,26.39-17.2,30.27-6.65,6.86-14.98,14.07-25.14,20.41-5.9,3.65-12.35,7.17-19.35,9.76-6.99,2.61-14.55,4.28-22.35,4-7.82-.26-15.7-1.81-23.3-2.94-7.6-1.21-14.94-2.43-21.97-3.47-14.05-2.11-26.86-3.43-37.65-3.63-10.79-.27-19.52.51-25.46,1.41-2.98.37-5.26.89-6.82,1.18-1.55.31-2.36.47-2.36.47,0,0,.83-.09,2.4-.25,1.57-.15,3.87-.47,6.87-.59,5.96-.41,14.62-.53,25.24.39,10.62.85,23.17,2.79,37.06,5.37,6.96,1.29,14.28,2.65,21.85,4.05,7.61,1.27,15.45,2.94,23.99,3.24,8.59.31,16.92-1.59,24.31-4.44,7.45-2.84,14.08-6.59,20.14-10.5,4.26-2.76,8.16-5.69,11.76-8.68-.89,1.08-1.8,2.17-2.74,3.27-6.48,7.62-14.08,15.51-22.98,23.1-8.97,7.5-19.32,14.6-30.9,20.86-23.15,12.62-51.06,21.59-80.98,27.77-18.73,3.86-37.12,6.59-54.72,9.05-6.53.7-13.97,1.67-22.17,3.1-2.87.41-5.73.82-8.55,1.24-13.19,1.95-25.73,3.98-37.38,6.29-11.66,2.31-22.44,4.88-32.19,7.57-19.47,5.5-34.68,11.71-44.8,16.69-5.14,2.26-9.01,4.72-10.74,7.22-1.78,2.48-1.56,4.24-1.65,4.18Z"></path> <g> <g> <path class="cls-22" d="m30.03,461.2s.06-.1.08-.15c.28-.17.56-.35.83-.52-.31.22-.61.44-.92.66Z"></path> <path class="cls-22" d="m122.85,339.56c1.51.45,2.97,1,4.37,1.66-28.99,27.32-26.77,62.46-80.36,107.05,36.64-33.77,56.93-91.86,75.99-108.71Z"></path> <path class="cls-22" d="m32.24,459.74c-.43.28-.86.53-1.29.8,5.79-4.17,11.08-8.26,15.9-12.27-4.61,4.25-9.46,8.13-14.61,11.47Z"></path> </g> <path class="cls-2" d="m25.17,469.5c1.8-2.82,3.4-5.58,4.86-8.3.04-.03.09-.06.13-.1,12.58,1.06,34.88-1.25,53.24-6.99-18.65,7.91-39.23,12.91-58.24,15.39Z"></path> <path class="cls-14" d="m102.78,376.09c-11.02,20.71-22.83,44.64-55.93,72.17-1.7,1.57-3.45,3.07-5.23,4.53,13.43,3.65,33.97-.8,46.92-9.21,37.77-24.52,36.28-51.47,29.9-61.3-2.67-4.11-9.25-6.87-15.67-6.2Zm.53,9.73c3.07-2,6.74-1.87,8.83,1.35,9.24,14.23.48,39.49-15.15,49.63-10.31,6.7-32.83,12.79-37.45,7.31.78-.44,1.54-.9,2.28-1.37,18.92-12.28,30.56-49.81,41.5-56.91Z"></path> <path class="cls-5" d="m136.25,359.32c-6.47-9.97-12.62-8.38-19.42-3.97-1.19.78-2.34,1.62-3.48,2.48,3.88-5.83,8.29-11.37,13.85-16.61,4.44,2.07,8.24,5.19,11.04,9.51,1.69,2.6,3.01,5.63,3.9,9.12,8.16,32.17-3.58,56.4-24.44,73.91,17.04-25.84,32.67-52.67,18.53-74.44Z"></path> <path class="cls-11" d="m129.31,373.52c11.56,17.81-7.24,48.46-26.22,70.61-6.18,3.73-12.79,7.06-19.68,9.98-18.37,5.74-40.66,8.05-53.24,6.99.26-.19.52-.38.79-.57.43-.26.87-.52,1.29-.8,3.25-2.11,6.36-4.45,9.38-6.94,13.43,3.65,33.97-.8,46.92-9.21,37.77-24.52,36.28-51.47,29.9-61.3-2.67-4.11-9.25-6.87-15.67-6.2,1.81-3.4,3.59-6.71,5.45-9.93,7.17-2.08,16.07-.35,21.08,7.36Z"></path> <path class="cls-9" d="m136.25,359.32c14.13,21.77-1.5,48.59-18.53,74.44-3.46,2.91-7.17,5.63-11.08,8.18-1.16.75-2.35,1.48-3.55,2.2,18.98-22.15,37.78-52.81,26.22-70.61-5.01-7.72-13.91-9.44-21.08-7.36,1.63-2.84,3.33-5.62,5.13-8.33,1.14-.86,2.28-1.7,3.48-2.48,6.8-4.41,12.95-5.99,19.42,3.97Z"></path> <path class="cls-2" d="m112.13,387.16c9.24,14.23.48,39.49-15.15,49.63-10.31,6.7-32.83,12.79-37.45,7.31.78-.44,1.54-.9,2.28-1.37,18.92-12.28,30.56-49.81,41.5-56.91,3.07-2,6.74-1.87,8.83,1.35Z"></path> <path class="cls-25" d="m75.91,361.53c-9.49,6.16-18.08,13.67-26.15,21.72,2.3-6.95,5.75-13.61,11.42-20.12,4.08-3.53,8.22-6.74,11.95-9.16,9.18-5.96,33.25-19.08,38.82-10.5.6.93,1.76,3.27,2.48,5.83-1.05,1.46-2.11,3-3.18,4.62-.3-.75-.64-1.49-1.09-2.18-4.96-7.65-26.91,5.01-34.26,9.78Z"></path> <path class="cls-10" d="m73.12,353.97c-3.73,2.42-7.86,5.63-11.95,9.16,4.42-5.07,10.17-10.04,17.75-14.96,13.52-8.78,30.69-12.54,43.92-8.61-2.76,2.44-5.56,5.77-8.42,9.75-.73-2.56-1.88-4.9-2.48-5.83-5.57-8.58-29.64,4.54-38.82,10.5Z"></path> <path class="cls-1" d="m68.92,369.22c-8.4,5.46-15.52,13.7-21.55,23.03.64-3.06,1.41-6.06,2.39-9,8.07-8.05,16.66-15.55,26.15-21.72,7.35-4.77,29.29-17.43,34.26-9.78.45.69.79,1.43,1.09,2.18-3.47,5.28-7.07,11.38-10.87,18-.59-2.06-1.34-3.94-2.34-5.48-5.3-8.16-21.08-2.45-29.13,2.77Z"></path> <path class="cls-3" d="m55.26,437.29c1.36-.88,1.74-2.05,2.07-3.52,10.6-18.07,9.91-17.15,9.91-17.15l12.26-19.61c7.31-10.77,15.89-17.89,11.07-25.32-2.98-4.59-14.85.85-19.49,3.86-1.25.81-2.47,1.66-3.72,2.47-22.05,14.32-23.89,48.07-17.04,58.62,1.04,1.61,3.68,1.45,4.94.64Zm7.02-22.44c-3.84,2.49-8.74,1.73-11.19.36-.88-8.33,5.52-27.01,16-33.81,1.65-1.07,12.35-5.82,17.03-.71.02.03.05.06.07.09,0,0-15.92,27.86-15.92,27.87-1.44,2.12-3.18,4.39-5.98,6.21Z"></path> <path class="cls-12" d="m51.09,415.21c-.88-8.33,5.52-27.01,16-33.81,1.65-1.07,12.35-5.82,17.03-.71.02.03.05.06.07.09,0,0-15.92,27.86-15.92,27.87-1.44,2.12-3.18,4.39-5.98,6.21-3.84,2.49-8.74,1.73-11.19.36Z"></path> <path class="cls-1" d="m30.95,460.53c-.28.17-.56.35-.83.52,10.23-19.13,12.56-35.8,14.51-50.9,1.54,16.91-2.09,36.25-2.09,36.25.88,1.36,3.6,1.17,6.49-.21-.72.7-1.44,1.4-2.18,2.08-4.82,4.01-10.11,8.1-15.9,12.27Z"></path> <path class="cls-6" d="m49.03,446.18c21.93-21.16,37.91-50.85,51.35-74.25-.59-2.06-1.34-3.94-2.34-5.48-5.3-8.16-21.08-2.45-29.13,2.77-8.4,5.46-15.52,13.7-21.55,23.03-1.19,5.74-1.94,11.68-2.74,17.9,1.54,16.91-2.09,36.25-2.09,36.25.88,1.36,3.6,1.17,6.49-.21Zm8.3-12.41c-.33,1.47-.71,2.64-2.07,3.52-1.25.81-3.89.97-4.94-.64-6.85-10.56-5.01-44.3,17.04-58.62,1.25-.81,2.47-1.66,3.72-2.47,4.64-3.01,16.51-8.45,19.49-3.86,4.82,7.42-3.76,14.54-11.07,25.32l-12.26,19.61s.69-.92-9.91,17.15Z"></path> </g> <g> <path class="cls-22" d="m167.61,60.21c-2.02,1.25-3.96,2.41-5.79,3.41.9.37,1.78.77,2.67,1.15.32-.08.64-.18.96-.26,66.11-16.19,146.99,29.31,191.2,18.48,2.61-.64,5.18-1.44,7.67-2.37.33-1.05.65-2.11.93-3.19-.05-.12-.1-.24-.15-.37-3.33.97-6.66,1.92-9.99,2.74-39.39,9.65-130.99-33.13-187.5-19.6Z"></path> <path class="cls-14" d="m324.41,34.81c-7.05-28.8-47.23-29.43-79.46-23.95-6.49,3-12.95,6.51-19.29,10.28-17.14,12.65-36.67,29.09-35.14,35.34.09.36.2.72.32,1.07,30.48-.43,66.37,8.73,98.28,15.79.27-.07.55-.13.82-.2,21.02-5.15,39.7-16.96,34.46-38.33Zm-119.42,15.57c-.07-3.31,3.01-4.4,4.64-6.68,5.58-7.79,9.34-15.75,54.14-26.72,37.6-9.21,46.65,3.56,50.08,17.56,3.78,15.44-.48,26.15-15.92,29.93-26.75,6.55-37.45-7.48-92.94-14.09Z"></path> <path class="cls-11" d="m225.67,21.14c-22.04,13.13-42.62,29.47-58.05,39.07,7.23-1.73,15.04-2.54,23.23-2.65-.12-.35-.23-.71-.32-1.07-1.53-6.25,18-22.69,35.14-35.34Z"></path> <path class="cls-5" d="m334.89,78.75c-2.17.53-4.36,1.12-6.56,1.7,10.35,1.13,19.47,1.15,26.78-.65,3.34-.82,6.66-1.77,9.99-2.74-13.38-33.13-26.83-64.05-55.22-73.86,21.56,14.74,36.73,34.99,41.17,53.15,2.92,11.93.67,18.27-16.17,22.39Z"></path> <path class="cls-11" d="m341.17,50.88c-7.79-31.82-37.2-44.94-66.23-49.57-2.65.45-5.37.98-8.2,1.67-7.22,1.77-14.52,4.51-21.78,7.87,32.23-5.48,72.4-4.85,79.46,23.95,5.24,21.38-13.44,33.18-34.46,38.33-.27.07-.55.13-.82.2,7.4,1.64,14.58,3.16,21.43,4.42,5.02-.16,10.2-.68,15.53-1.99,14.11-3.46,18.3-11.7,15.07-24.89Z"></path> <path class="cls-9" d="m341.17,50.88c3.23,13.19-.96,21.43-15.07,24.89-5.33,1.31-10.52,1.83-15.53,1.99,6.23,1.15,12.18,2.08,17.78,2.69,2.2-.59,4.38-1.17,6.56-1.7,16.84-4.13,19.1-10.47,16.17-22.39-4.45-18.17-19.62-38.41-41.17-53.15-9.7-3.35-21.16-4.22-34.95-1.89,29.03,4.63,58.44,17.75,66.23,49.57Z"></path> <path class="cls-2" d="m313.85,34.55c-3.43-14-12.47-26.77-50.08-17.56-44.8,10.97-48.55,18.93-54.14,26.72-1.63,2.28-4.71,3.37-4.64,6.68,55.49,6.61,66.19,20.65,92.94,14.09,15.44-3.78,19.7-14.49,15.92-29.93Zm-77.54,14.07c-.92-.61-1.33-1.42-1.54-2.26-1.84-7.5,8.4-19.26,28.56-24.19,29.07-7.12,39.27,5.38,40.72,11.32,1.14,4.64-.36,20.82-11.2,23.48-9.49,2.32-42.01,1.23-56.54-8.34Z"></path> <path class="cls-13" d="m304.06,33.48c-1.45-5.94-11.65-18.44-40.72-11.32-20.15,4.94-30.39,16.7-28.56,24.19.21.84.62,1.66,1.54,2.26,14.53,9.57,47.05,10.66,56.54,8.34,10.84-2.66,12.34-18.84,11.2-23.48Z"></path> <path class="cls-1" d="m335.65,95.29c2.09,8.55-9.88,26.46-32.28,31.94-8.41,2.06-23,2.83-39.58,1.39,8.54,4.1,17.25,6.73,26.58,7.12,3.38.14,6.85-.05,10.41-.52,18.49-5.35,52.98-27.88,48.88-44.64-.49-1.98-1.59-4.27-3.09-6.1-5.08.34-10.5.18-16.22-.36,2.3,3.12,4.15,6.53,4.92,9.67.13.53.27,1.02.39,1.49Z"></path> <path class="cls-25" d="m300.77,135.22c2.22-.3,4.47-.68,6.78-1.25,1.18-.29,2.35-.63,3.51-.98,21.76-6.52,41.22-23.48,50.58-45.19.43-1,.87-2,1.26-3.02.52-1.37.99-2.76,1.42-4.16-2.5.93-5.06,1.73-7.67,2.37-3.18.78-6.56,1.26-10.1,1.5,1.5,1.83,2.61,4.12,3.09,6.1,4.1,16.75-30.39,39.28-48.88,44.64Z"></path> <path class="cls-6" d="m294.1,118.09c-28.05,6.87-53.37-9.07-77.12-23.8,1.63,1.79,3.1,3.67,4.35,5.65,14.96,11.32,28.48,21.97,42.45,28.68,16.58,1.44,31.17.67,39.58-1.39,22.4-5.49,34.38-23.39,32.28-31.94-.12-.48-.26-.96-.39-1.49-.77-3.14-2.62-6.55-4.92-9.67-7.12-.68-14.69-1.94-22.61-3.54,2.72,3.7,5.02,7.9,6.03,12.05,3.66,14.94-4.35,21.71-19.66,25.46Z"></path> <path class="cls-3" d="m216.98,94.29c23.75,14.73,49.06,30.67,77.12,23.8,15.31-3.75,23.32-10.52,19.66-25.46-1.02-4.15-3.31-8.36-6.03-12.05-40.04-8.1-88.95-24.83-132.67-17.99,0,.03,0,.05,0,.08,1.91,7.81,27.92,16.3,41.92,31.62Zm85.91,3.66c1.5,6.12-1.86,10.51-5.89,11.49-45.45,11.13-63.7-4.36-97.24-36.74-.32-.31-.53-.68-.62-1.06-.61-2.5,3.09-5.13,5.94-5.83,13.54-3.32,92.29,9.56,97.82,32.13Z"></path> <path class="cls-20" d="m164.5,64.77c11.96,5.15,22.7,11.31,32.61,17.82,8.62,5.67,16.61,11.59,24.23,17.35-1.25-1.98-2.71-3.86-4.35-5.65-14-15.32-40.01-23.81-41.92-31.62,0-.03,0-.05,0-.08-3.23.51-6.43,1.14-9.6,1.91-.32.08-.64.18-.96.26Z"></path> <path class="cls-4" d="m199.14,71.65c.09.39.3.75.62,1.06,33.54,32.38,51.8,47.87,97.24,36.74,4.03-.99,7.39-5.37,5.89-11.49-5.53-22.57-84.27-35.45-97.82-32.13-2.85.7-6.55,3.33-5.94,5.83Zm97.63,25.74c.91,3.7-.36,8.54-5.66,9.84-.67.16-1.33.3-1.93.44-37.53,9.19-62.51-15.75-64.28-18.22,2.37-3.9,5.22-7.26,9.09-9.61,1.93-1.17,4.22-2.17,6.4-2.71,12.35-3.02,52.6,4.86,56.37,20.26Z"></path> <path class="cls-21" d="m224.9,89.44c1.77,2.47,26.75,27.42,64.28,18.22.6-.15,1.26-.28,1.93-.44,5.3-1.3,6.57-6.14,5.66-9.84-3.77-15.4-44.02-23.29-56.37-20.26-2.18.53-4.47,1.53-6.4,2.71-3.88,2.36-6.72,5.71-9.09,9.61Z"></path> </g> <g> <path class="cls-22" d="m284.56,357.8c-2.61,40.97-12.68,69.95-20.27,86.52-.9,2.53-1.93,5.06-3.14,7.58,2.48-1.88,4.97-3.8,7.46-5.76,38.13-74.62-4.37-178.77,67.92-243.08.32-.28.64-.57.96-.85.04-.03.08-.07.11-.1.61-.54,1.18-1.15,1.73-1.81-.57-.56-1.18-1.14-1.8-1.73-1.77,1.36-3.51,2.76-5.17,4.24-53.04,47.19-46.8,139.22-47.81,154.99Z"></path> <path class="cls-13" d="m260.74,368.43c7.08,25.67,12.39,51.03,3.55,75.89,3.38-7.38,7.25-17.22,10.73-29.47-.05-.05-.09-.09-.14-.14,0,0-3.13-23.87-14.14-46.28Z"></path> <path class="cls-2" d="m280.21,258.27c-25.16,22.38-12.46,53.13-12.71,81.09-.15,16.49-5.03,25.6,2.37,33.91,1.27,1.42,2.58,2.17,3.81,2.43.12-.09.25-.17.36-.27,17.88-15.91-8.12-56.18,17.08-109.88,1.68-3.59,3.33-8.28.62-11.32-2.81-3.16-7.81.73-11.52,4.04Z"></path> <path class="cls-14" d="m258.53,360.57c.75,2.62,1.49,5.25,2.21,7.86,11.01,22.4,14.14,46.28,14.14,46.28.05.05.09.09.14.14,4.34-15.28,8.09-34.31,9.54-57.05.74-11.66-2.47-64.99,17.23-111.07-8.73-1.3-17.54.38-24.47,6.55-28.65,25.49-17.66,75.37-18.79,107.29Zm33.21-106.33c2.71,3.04,1.06,7.73-.62,11.32-25.2,53.7.8,93.97-17.08,109.88-.12.1-.24.18-.36.27-1.23-.26-2.54-1-3.81-2.43-7.39-8.31-2.52-17.42-2.37-33.91.26-27.97-12.45-58.71,12.71-81.09,3.71-3.3,8.71-7.19,11.52-4.04Z"></path> <path class="cls-9" d="m319.74,212.48c-7.21-8.1-29.72,8.3-38.34,15.97-15.83,14.09-26.75,33.88-33.9,53.51-2.14,13.22-1.22,26.41,1.16,39.56,2.4-30.6,4.2-63.57,29.93-86.47,12.47-11.09,26.9-11.51,33.43-7.99,2.71-4.31,5.69-8.48,8.98-12.45-.3-.68-.67-1.34-1.15-1.98-.04-.05-.07-.09-.11-.14Z"></path> <path class="cls-5" d="m247.51,281.96c7.15-19.63,18.07-39.43,33.9-53.51,8.61-7.66,31.13-24.07,38.34-15.97.04.05.08.09.11.14.48.64.85,1.3,1.15,1.98,3.44-4.16,7.22-8.11,11.35-11.79,1.66-1.48,3.4-2.88,5.17-4.24-.81-.76-1.65-1.54-2.54-2.33-19.72,4.09-37.52,13.41-51.94,26.24-22.29,19.83-32.35,39.69-35.55,59.48Z"></path> <path class="cls-11" d="m278.6,235.04c-25.74,22.9-27.53,55.87-29.93,86.47,2.37,13.08,6.18,26.1,9.86,39.05,1.13-31.92-9.87-81.8,18.79-107.29,6.94-6.17,15.75-7.85,24.47-6.55,2.89-6.77,6.28-13.38,10.25-19.68-6.53-3.51-20.97-3.1-33.43,7.99Z"></path> <path class="cls-17" d="m339.32,261.18c-9.19-10.33-23.55-8.49-29.48-3.21-5.47,4.86-10.94,14.66-15.42,24.36-8.87,46.86-3.24,98.58-17.35,143.01,5.52,5.89,14.24-2.15,41-25.97,1.78-1.59,3.54-3.19,5.32-4.78,2.17-2.54,4.29-5.1,6.35-7.68,20.6-43.17,35.5-96.61,9.58-125.74Zm-44.71,149.11c-.27.24-.8.72-1.07.95-1.29.11-2.47-.05-3.06-.71-5.61-6.3,7.03-128.5,21.76-141.6,2.61-2.32,16.65-7.63,23.07-.41,12.84,14.43,16.29,91.2-30.66,132.98-3.3,2.94-6.67,5.81-10.04,8.8Z"></path> <path class="cls-19" d="m277.07,425.35c-2.27,7.14-5.04,14.09-8.46,20.8,7.53-5.91,15.05-12.16,22.42-18.71,11.7-10.41,22.58-21.42,32.37-32.84-1.77,1.6-3.53,3.2-5.32,4.78-26.77,23.81-35.48,31.86-41,25.97Z"></path> <path class="cls-10" d="m343.7,212.26c16.65,18.71,26.73,47.06,29.82,74.65,1.6-28.52-7.18-56.61-29.94-82.2-.98-1.1-2.46-2.66-4.24-4.42-.55.66-1.13,1.27-1.73,1.81-.04.03-.08.07-.11.1-.32.28-.65.57-.96.85-2.03,1.8-3.95,3.64-5.8,5.5,5.67-1.57,9.62-.08,12.98,3.69Z"></path> <path class="cls-16" d="m347.05,227.87c22.58,25.38,18,77.57,10.5,115.95,9.23-18.76,14.9-37.93,15.97-56.91-3.08-27.59-13.17-55.94-29.82-74.65-3.35-3.77-7.3-5.26-12.98-3.69-5.3,5.34-9.91,10.93-13.9,16.72,12.01-5.07,22.91-5.65,30.23,2.58Z"></path> <path class="cls-7" d="m347.05,227.87c-7.33-8.24-18.22-7.65-30.23-2.58-4.97,7.21-8.99,14.75-12.29,22.54,2.49-3.46,4.77-6.23,6.67-7.92,8.59-7.65,19.84-11.97,27.65-3.19,40.41,45.41,14.07,107.46-2.13,141.1,8.13-11.08,15.16-22.46,20.84-34,7.5-38.37,12.08-90.57-10.5-115.95Z"></path> <path class="cls-19" d="m338.85,236.72c-7.81-8.78-19.05-4.45-27.65,3.19-1.9,1.69-4.18,4.46-6.67,7.92-4.68,11.06-7.86,22.63-10.11,34.51,4.47-9.7,9.95-19.5,15.42-24.36,5.93-5.28,20.29-7.12,29.48,3.21,25.92,29.13,11.02,82.57-9.58,125.74,2.4-3.01,4.73-6.04,6.97-9.09,16.2-33.65,42.54-95.69,2.13-141.1Z"></path> <path class="cls-24" d="m335.3,268.51c-6.42-7.22-20.46-1.91-23.07.41-14.73,13.1-27.37,135.3-21.76,141.6.59.67,1.77.82,3.06.71.27-.24.8-.72,1.07-.95,3.36-2.99,6.74-5.86,10.04-8.8,46.95-41.77,43.5-118.55,30.66-132.98Zm-22.85,97.1c-1.35-.08-2.21-.81-2.99-1.68-.39-.44-.76-.91-1.15-1.36-16.91-19.01-6.41-74.68,8.98-88.37,6.21-5.52,12.03-4.82,16.01-.35,20,22.48-8.59,81.06-18.07,89.49-.89.79-1.89,1.47-2.79,2.26Z"></path> <path class="cls-8" d="m333.3,273.85c-3.98-4.47-9.8-5.17-16.01.35-15.39,13.69-25.89,69.36-8.98,88.37.4.45.76.92,1.15,1.36.78.87,1.64,1.6,2.99,1.68.89-.79,1.89-1.47,2.79-2.26,9.48-8.43,38.07-67.01,18.07-89.49Z"></path> </g> <g> <path class="cls-10" d="m170.7,209.67c.72,16.7-8.11,39.77-21.96,63.71,19.59-22.96,32.34-50.36,30.91-83.38-.15-3.49-.6-7.79-1.52-11.98-4.27,6.48-10.02,12.63-16.77,18.58,6.01,1.38,9.05,6.28,9.34,13.06Z"></path> <path class="cls-25" d="m158.15,227.18c.67,15.58-17.69,47.02-39.24,74.54,10.89-8.62,21.05-18.03,29.84-28.33,13.85-23.95,22.68-47.02,21.96-63.71-.29-6.78-3.33-11.69-9.34-13.06-6.35,5.59-13.58,11.02-21.35,16.37,8.02,1.47,17.74,5.17,18.13,14.19Z"></path> <g> <path class="cls-22" d="m132.25,212.81c-63.92,49.6-97.8,58.6-108.89,97.04-6.03,20.91-13.18,41.31-23.09,60.29-.09.4-.17.81-.27,1.22.68-.41,1.39-.83,2.11-1.25,11.23-20.17,19.09-42.87,27.7-63.95,22.6-55.33,119.3-84.12,148.32-128.14-.22-1.03-.47-2.05-.75-3.05-.53.03-1.06.06-1.6.08-2.28.1-4.56.18-6.84.24-5.13,24.09-22.6,26.57-36.69,37.5Z"></path> <path class="cls-3" d="m23.95,348.08c12.45-.54,33.66-9.05,49.98-16.35,5.83-3.37,11.69-6.91,17.51-10.61,26.36-23.32,48.96-49.68,47.98-72.45-.6-13.93-11.44-20.28-23.26-19.77-.16,0-.36.02-.53.04-35.12,22.26-72.79,45.34-85.82,77.24-4.94,12.09-9.65,24.7-14.87,37.08.72,4.59,4.61,5.02,9.01,4.83Zm87.22-95.1c4-.17,13.86,2.79,14.33,13.86,1.1,25.61-59.22,72.13-99.19,73.85-.55.02-1.08-.1-1.5-.56-.69-.76-.93-1.7-.98-2.66-1.58-36.71,55.12-83.1,87.33-84.49Z"></path> <path class="cls-26" d="m73.93,331.73c-16.32,7.3-37.53,15.81-49.98,16.35-4.4.19-8.3-.24-9.01-4.83-3.88,9.2-8.04,18.27-12.83,26.87,17.18-10.04,44.09-22.37,71.82-38.39Z"></path> <path class="cls-1" d="m139.42,248.66c.98,22.77-21.62,49.13-47.98,72.45,9.39-5.99,18.66-12.43,27.46-19.4,21.55-27.52,39.92-58.96,39.24-74.54-.39-9.02-10.11-12.72-18.13-14.19-7.74,5.34-15.99,10.62-24.39,15.94.17-.01.37-.03.53-.04,11.82-.51,22.66,5.85,23.26,19.77Z"></path> <path class="cls-12" d="m26.31,340.69c39.97-1.72,100.29-48.24,99.19-73.85-.48-11.08-10.34-14.03-14.33-13.86-32.21,1.39-88.91,47.78-87.33,84.49.04.96.28,1.9.98,2.66.42.46.95.59,1.5.56Zm73.07-70.58c11.89-.51,15.67,4.27,16.02,12.34.69,15.92-57.1,48.78-59.71,48.89-.85.04-1.71-.29-2.55-.34-2.53-.14-5.13-.38-7.26-1.84-1.02-.7-1.83-3.69-1.88-4.94-.81-18.81,36.77-53.31,55.39-54.11Z"></path> <path class="cls-26" d="m53.14,331.01c.85.05,1.7.38,2.55.34,2.61-.11,60.4-32.97,59.71-48.89-.35-8.07-4.12-12.86-16.02-12.34-18.62.8-56.2,35.3-55.39,54.11.05,1.26.86,4.24,1.88,4.94,2.13,1.46,4.73,1.7,7.26,1.84Z"></path> <path class="cls-11" d="m8.67,332.58c-.22-5.04.85-10.16.62-15.4-.15-3.4-.65-3.8-.85-8.54-.2-4.56.13-9.13-.07-13.68-.43-10.04-2.9-6.23-4.16-22.01-.08,3.64-.04,7.41.13,11.32.23,5.23.8,8.55,1.25,19.07.79,18.27-.08,36.99-3.09,55.1.18.43.35.87.53,1.3-.18-.43-.36-.87-.53-1.3-.66,3.94-1.38,7.85-2.24,11.72,4.76-9.13,8.88-18.58,12.55-28.26-2.46-1.98-3.95-4.99-4.14-9.31Z"></path> <path class="cls-11" d="m100.77,186.4c-33.69,1.45-59.67,13.49-79.56,28.82-5.77,7.9-10.24,17.27-13.15,28.33,17.48-28.79,45.38-43.27,63.72-44.06,14.24-.61,26.78,7.81,27.56,25.74.11,2.54-.36,7.59-1.31,12.63,7.24-5.02,15.01-10.55,23.36-16.78,5.69-9,8.27-17.06,8.07-21.65-.43-9.87-17.96-13.49-28.69-13.03Z"></path> <path class="cls-9" d="m103.45,180.59c-10.47.45-41.17,8.48-74.74,25.88-2.7,2.69-5.2,5.6-7.5,8.74,19.88-15.33,45.87-27.36,79.56-28.82,10.73-.46,28.27,3.16,28.69,13.03.2,4.59-2.39,12.65-8.07,21.65,3.52-2.63,7.14-5.37,10.87-8.26,4.45-3.46,9.25-6.07,13.88-8.79,4.85-7.17,8.67-12.58,8.66-12.73-.53-12.2-34.33-11.45-51.35-10.71Z"></path> <path class="cls-14" d="m71.78,199.48c-18.34.79-46.23,15.27-63.72,44.06-2.29,8.71-3.62,18.47-3.85,29.4,1.27,15.78,3.73,11.98,4.16,22.01.2,4.55-.13,9.13.07,13.68.2,4.74.7,5.14.85,8.54.23,5.24-.84,10.36-.62,15.4.19,4.32,1.68,7.33,4.14,9.31,3.97-10.46,7.41-21.17,10.55-32.03,8.92-30.89,32.56-42.79,74.67-72,.95-5.04,1.42-10.09,1.31-12.63-.77-17.92-13.32-26.35-27.56-25.74Zm14.83,33.88c-12.62,16.54-32.86,7.28-71.34,68.77-.82-2.48-2.78-4.89-3.55-7.38-2.25-7.28-3.91-7.82-4.47-20.75-1.59-36.76,34-66.42,54.99-67.33,7.8-.34,26.24,3.62,26.85,17.62.22,5.1-1.29,7.53-2.48,9.08Z"></path> <path class="cls-5" d="m103.45,180.59c17.02-.73,50.82-1.49,51.35,10.71,0,.15-3.81,5.55-8.66,12.73,10.02-5.88,19.3-12.24,22.81-28.72-16.93.49-33.95.23-50.83.96-36.4,1.57-68.6,9.42-89.4,30.2,33.57-17.4,64.27-25.43,74.74-25.88Z"></path> <path class="cls-2" d="m62.25,206.67c-20.98.91-56.57,30.57-54.99,67.33.56,12.93,2.21,13.47,4.47,20.75.77,2.49,2.72,4.91,3.55,7.38,38.48-61.48,58.72-52.22,71.34-68.77,1.19-1.55,2.7-3.98,2.48-9.08-.6-14-19.05-17.95-26.85-17.62Zm-23.62,54.25c-1.18-2.46-3.36-4.2-4.94-6.25-2.12-2.76-2.79-8.09-2.94-11.56-.85-19.75,24.45-28.53,30.42-28.79,4.77-.21,20.11,2.52,20.47,10.91.6,13.95-22.95,23.85-43.01,35.69Z"></path> <path class="cls-15" d="m61.17,214.32c-5.97.26-31.27,9.04-30.42,28.79.15,3.47.82,8.8,2.94,11.56,1.57,2.05,3.75,3.79,4.94,6.25,20.06-11.84,43.61-21.74,43.01-35.69-.36-8.39-15.7-11.12-20.47-10.91Z"></path> </g> </g> </g> </g> </svg> 