<?xml version="1.0" encoding="UTF-8"?> <svg xmlns="http://www.w3.org/2000/svg" id="Layer_2" data-name="Layer 2" viewBox="0 0 870.73 408.45"> <defs> <style> .cls-1 { fill: #e5d8db; } .cls-2 { fill: #f6f2f3; } .cls-3 { fill: #d7c7ca; } .cls-4 { fill: #ded0d3; } .cls-5 { fill: #fff; } .cls-6 { fill: #e9e0e2; } .cls-7 { fill: #eeebec; } .cls-8 { fill: #c2a7aa; } .cls-9 { fill: #cab0b3; } .cls-10 { fill: #dfcdd3; } .cls-11 { fill: #e8dde1; } .cls-12 { fill: #e7dde0; } .cls-13 { fill: #d7bfc6; } .cls-14 { fill: #d4b6be; } .cls-15 { fill: #a5b4b0; } .cls-16 { fill: #ece8e9; } .cls-17 { fill: #d2b9be; } .cls-18 { fill: #e8dbdf; } .cls-19 { fill: #f6f2f1; } .cls-20 { fill: #e4d5da; } .cls-21 { fill: #dfd0d3; } .cls-22 { fill: #d0b8bc; } </style> </defs> <g id="clipping_mask" data-name="clipping mask"> <g> <path class="cls-15" d="m394.58,138.38c-6.07.71-9.42,1.1-9.42,1.1,0,0,3.32-.07,9.31-.19,3-.1,6.66-.17,10.89-.1,4.23.05,9.07-.05,14.35.21,5.3.16,11.1.34,17.28.8,6.21.29,12.76.99,19.67,1.6,13.77,1.5,28.78,3.61,44.32,6.61,15.51,3.1,30.04,6.88,43.09,10.78,6.48,2.08,12.68,3.95,18.34,6.06,5.73,1.94,10.98,3.99,15.77,5.86,11.03,4.36,19.49,8.07,24.78,10.27-38.57.21-79.92,1.76-123.15,5.4-6.95.58-13.86,1.16-20.72,1.74-6.86.55-13.72,1.52-20.5,2.25-6.79.79-13.53,1.57-20.21,2.35-3.34.39-6.67.78-9.99,1.16-3.32.49-6.63.98-9.93,1.47-13.18,1.99-26.13,3.94-38.81,5.85-8.75,1.63-17.33,3.23-25.82,4.81-10.54-2.28-32.75-5.68-58.61-8.85-36.37-4.46-66.58-5.15-66.58-5.15,0,0,28.77,6.53,65.15,10.99,19.44,2.38,37,4.15,49.2,5.03-.2.04-.42.08-.62.12-48.56,9.88-92.37,20.77-129.03,32.51-9.17,2.87-17.91,5.41-26.16,8.19-8.24,2.91-16,5.66-23.27,8.23-7.26,2.58-14.02,4.99-20.24,7.2-6.2,2.38-11.85,4.75-16.94,6.79-10.17,4.14-18.06,7.39-23.4,9.66-5.34,2.27-8.13,3.55-8.11,3.74.02.19,2.86-.72,8.24-2.63,5.38-1.91,13.3-4.81,23.49-8.61,5.1-1.87,10.75-4.08,16.96-6.3,6.22-2.07,12.98-4.31,20.23-6.73,7.26-2.43,15.02-5.02,23.24-7.78,8.23-2.63,16.96-5.03,26.11-7.76,36.59-11.2,80.28-21.63,128.68-31.19,12.1-2.19,24.5-4.43,37.16-6.73,12.64-1.86,25.55-3.76,38.69-5.69,3.28-.48,6.58-.95,9.9-1.43,3.31-.38,6.63-.76,9.96-1.14,6.67-.76,13.39-1.53,20.16-2.3,6.76-.72,13.6-1.68,20.44-2.22,6.84-.57,13.73-1.15,20.66-1.73.56-.05,1.12-.09,1.68-.14-3.38,1.66-7.46,3.67-12.21,5.91-4.91,2.34-10.48,5.14-16.68,7.99-6.19,2.92-12.96,6.12-20.26,9.36-7.28,3.37-15.1,6.7-23.32,10.29-16.46,6.98-34.6,14.3-53.71,21.36-19.12,6.98-37.37,13.13-54,18.42-8.32,2.55-16.22,5.06-23.63,7.15-7.41,2.22-14.31,4.11-20.62,5.83-6.31,1.8-12.01,3.18-17.03,4.5-5.02,1.33-9.34,2.38-12.87,3.22-7.07,1.73-10.98,2.68-10.98,2.68,0,0,3.9-.63,10.95-1.78,3.53-.56,7.85-1.3,12.87-2.3,5.02-.98,10.74-2.01,17.06-3.45,6.32-1.36,13.25-2.9,20.7-4.79,7.44-1.76,15.39-3.97,23.76-6.27,16.72-4.78,35.1-10.61,54.32-17.63,19.21-7.09,37.43-14.61,53.93-21.9,8.24-3.74,16.07-7.26,23.35-10.84,7.3-3.46,14.06-6.89,20.22-10.06,6.18-3.1,11.71-6.17,16.58-8.8,4.87-2.62,9.04-5.01,12.43-7.02,1.4-.83,2.64-1.56,3.77-2.25,59-4.75,114.49-6.04,164.06-5.58-7.15.89-14.79,2.04-22.77,3.52-19.9,3.74-37.94,9.18-50.91,13.77-6.49,2.29-11.72,4.31-15.32,5.8-3.6,1.49-5.59,2.31-5.59,2.31,0,0,8.05-2.02,21.04-5.27,12.98-3.16,30.86-7.12,50.57-10.82,25.49-4.83,47.74-7.14,60.36-8.64,26.76.72,51.35,1.88,73.27,3.15,4.7.28,9.27.55,13.73.81.39.09.79.19,1.27.3,2.32.55,5.73,1.17,9.98,1.79,8.5,1.26,20.46,2.03,33.53,2.75,6.53.4,12.68.99,18.2,1.75,5.49.87,10.4,1.81,14.4,2.96,7.46,2.03,12.02,4.01,13,3.61.18.12.38.24.54.37,2.09,1.51,3.56,2.87,4.49,3.85.93.99,1.41,1.49,1.41,1.49,0,0-.46-.52-1.37-1.54-.91-1.01-2.34-2.43-4.4-4.02-.15-.12-.33-.23-.49-.35.04-.8-4.02-4.22-11.67-7.42-3.93-1.71-8.86-3.11-14.43-4.3-5.6-1.08-11.86-1.85-18.49-2.26-10.1-.55-19.53-.28-27.32-.03-2.14-.21-4.3-.43-6.51-.65-7.98-.65-16.41-1.33-25.27-2.05-42.43-3.34-94.93-6.27-154.11-6.08-1.24-.81-2.89-1.83-4.98-3.05-2.49-1.49-5.58-3.23-9.27-5.06-3.67-1.84-7.82-4.04-12.57-6.09-4.71-2.14-9.9-4.44-15.59-6.59-5.63-2.33-11.81-4.39-18.29-6.63-13.05-4.22-27.66-8.21-43.31-11.33-15.68-3.02-30.93-4.79-44.92-5.75-7.03-.34-13.69-.73-20-.67-6.28-.12-12.17.06-17.56.27-5.37.11-10.28.57-14.57.86-4.29.27-8,.67-11.04,1.04Z"></path> <g> <path class="cls-13" d="m177.89,304.28c54.78-24.3,110.5-63.56,126.95-49.22.99.87-1.92,5.14-3.27,7.16-5.47,8.16-12.47,14.38-20.07,19.24,13.99-3.91,28.19-8.47,42.59-14.03,2.54-5.88,3.49-11.51-.07-14.61-17.25-15.04-43.55-6.93-72.02,5.5-18.92,10.26-38.6,21.66-59.35,31.81-21.07,12.01-34.32,16.46-45.63,21.43,10.15-2.67,20.44-5.04,30.88-7.27Z"></path> <path class="cls-7" d="m293.51,277.95c-46.05,14.08-89.91,20.13-131.38,29.84,34.79,1.66,87.79,21.41,131.38-29.84Z"></path> <path class="cls-2" d="m133.05,315.47c23.31-.26,47.74.92,72.55.51-13.24-3.26-38.06-2.64-59.83-4.1-4.27,1.14-8.51,2.32-12.73,3.59Z"></path> <path class="cls-21" d="m346.39,262.37c-13.79,20.58-37.79,34.64-64.65,44.23,35.53-9.74,70.25-29.09,101.92-67.02-.3-.18-.6-.33-.9-.51-12.23,7.22-24.32,13.45-36.28,18.92,1.04.91,1.35,2.25-.08,4.38Z"></path> <path class="cls-12" d="m162.13,307.79c-5.5,1.29-10.95,2.64-16.36,4.09,21.77,1.46,46.59.85,59.83,4.1,18.97-.31,38.15-1.55,57.21-5.08,23.07-9.24,44.28-21.63,55.04-37.19-.34-.38-.68-.73-1.05-1.04-.78-.68-1.62-1.2-2.52-1.61-6.98,2.5-13.9,4.78-20.78,6.89-43.59,51.25-96.59,31.5-131.38,29.84Z"></path> <path class="cls-1" d="m317.86,273.71c-10.77,15.56-31.97,27.95-55.04,37.19,6.32-1.17,12.63-2.59,18.92-4.31,26.86-9.58,50.86-23.65,64.65-44.23,1.43-2.13,1.12-3.47.08-4.38-10.83,4.95-21.56,9.27-32.17,13.08.89.41,1.74.93,2.52,1.61.36.32.71.66,1.05,1.04Z"></path> <path class="cls-9" d="m354.58,254.16c9.31-4.52,18.7-9.5,28.17-15.1-25.55-14.79-51.04-13.86-77.54-5.21,23.01-3.57,47.22-6.12,51.83-2.1,5.37,4.69,1.63,14.81-2.47,22.41Z"></path> <path class="cls-4" d="m304.84,255.06c-16.45-14.34-72.17,24.92-126.95,49.22,33.1-7.06,67.67-12.78,103.61-22.82,7.6-4.86,14.59-11.07,20.07-19.24,1.36-2.03,4.27-6.3,3.27-7.16Z"></path> <path class="cls-14" d="m121.88,315.48c.15.07.3.15.44.23,3.54-.12,7.12-.19,10.72-.23,4.62-1.39,9.28-2.68,13.97-3.92,11.31-4.96,24.56-9.41,45.63-21.43-22.22,10.86-45.67,20.3-70.77,25.35Z"></path> <path class="cls-17" d="m324.03,252.82c3.56,3.1,2.61,8.73.07,14.61,10.06-3.89,20.23-8.29,30.49-13.27,4.1-7.6,7.84-17.72,2.47-22.41-4.61-4.02-28.82-1.47-51.83,2.1-17.21,5.62-34.86,14.5-53.21,24.46,28.47-12.42,54.78-20.53,72.02-5.5Z"></path> <path class="cls-5" d="m315.46,271.42s.95-.39,2.67-1.08c1.72-.69,4.2-1.73,7.27-3.05,6.14-2.63,14.61-6.52,23.95-11.09,9.34-4.57,17.79-8.92,23.91-12.06,3.06-1.56,5.53-2.83,7.24-3.7.86-.43,1.52-.76,1.97-.98.45-.22.69-.33.69-.31s-.23.16-.68.41c-.45.25-1.11.61-1.96,1.08-1.71.91-4.18,2.23-7.23,3.86-6.11,3.23-14.55,7.64-23.91,12.21-9.35,4.57-17.84,8.33-23.98,10.83-3.07,1.26-5.55,2.23-7.27,2.87-1.72.64-2.66,1-2.66,1Z"></path> <path class="cls-5" d="m267.27,285.62s2.53-.67,6.62-1.74c4.09-1.07,9.74-2.53,15.98-4.25,6.25-1.73,11.92-3.48,16.03-4.86,2.06-.7,3.72-1.27,4.87-1.66.58-.19,1.02-.34,1.33-.45.3-.1.46-.14.46-.12,0,.02-.16.1-.46.23-.3.13-.75.31-1.33.55-1.15.47-2.82,1.1-4.88,1.83-4.12,1.48-9.81,3.3-16.06,5.03-6.25,1.73-11.89,3.05-15.96,3.98-4.07.91-6.59,1.47-6.59,1.47Z"></path> <path class="cls-5" d="m226.76,295.21s11.47-2.97,25.57-6.29c14.11-3.32,25.52-5.89,25.51-5.74-.02.15-11.47,2.97-25.57,6.29-14.11,3.32-25.51,5.74-25.51,5.74Z"></path> </g> <g> <path class="cls-16" d="m161.96,252.32c1-1.58,1.64-2.88,1.99-3.95-19.69,2.97-44.03,4.75-86.29,18.21,43.96-7.68,71.43,6.12,84.3-14.26Z"></path> <path class="cls-2" d="m13.6,290.83c28.12-7.55,55.85-7.91,82.38-9.4-28.89-4.43-47.18,5.42-63.44,1.53-6.04,2.43-12.34,5.04-18.94,7.87Z"></path> <path class="cls-21" d="m138.2,276.6c22.7-4.75,44.06-14.19,63.5-34.59-.98-1.3-1.99-2.55-3.04-3.76-2.02,1.01-3.99,1.9-5.94,2.72-3.82,13.43-34.45,26.66-54.51,35.63Z"></path> <path class="cls-6" d="m173.66,247.7c.25-.39.45-.77.63-1.14-3.34.69-6.76,1.27-10.33,1.81-.36,1.07-.99,2.37-1.99,3.95-12.86,20.37-40.33,6.57-84.3,14.26-11.48,3.66-24.28,8.18-38.67,13.82,49.76-8.5,112.49,2.42,134.66-32.69Z"></path> <path class="cls-1" d="m95.98,281.43c14.47-.82,28.59-1.98,42.22-4.83,20.06-8.97,50.69-22.2,54.51-35.63-6.23,2.6-12.2,4.3-18.43,5.59-.17.37-.38.75-.63,1.14-22.17,35.12-84.9,24.19-134.66,32.69-2.12.83-4.27,1.69-6.46,2.57,16.26,3.89,34.55-5.97,63.44-1.53Z"></path> <path class="cls-13" d="m13.6,290.83c4.43-1.9,8.71-3.69,12.89-5.41,8.88-11.45,30.97-18.99,46.66-35.87.8-.86,1.58-1.75,2.35-2.66-24.96,17.05-50.14,36.88-75.49,48.18,4.54-1.62,9.07-3.02,13.6-4.24Z"></path> <path class="cls-10" d="m75.49,246.89c-.77.91-1.55,1.8-2.35,2.66,33.65-23,65.24-40.97,89.54-21.63,5.66,4.5,5.45,11.19,1.12,18.04-.62.98-1.3,1.88-2.04,2.73,6.03-.87,11.6-1.81,17.06-3.17,3.62-9.66-3.34-19.03-7.77-22.56-8.49-6.75-26.8-6.46-44.93-3.47-16.76,5.46-33.65,15.78-50.64,27.39Z"></path> <path class="cls-13" d="m178.83,245.52c6.55-1.63,12.95-3.85,19.83-7.28-2.54-2.93-5.27-5.56-8.19-7.89-21.21-16.87-42.67-17.92-64.34-10.86,18.14-2.99,36.45-3.28,44.93,3.47,4.43,3.53,11.39,12.9,7.77,22.56Z"></path> <path class="cls-18" d="m146.37,231.47c-26.98-21.47-57.95,16.05-97.83,45.26,45.73-17.19,74.4-22.53,95.92-25.64,1.76-1.76,3.35-3.72,4.74-5.91,2.46-3.9,3.77-8.47-2.82-13.71Z"></path> <path class="cls-20" d="m162.68,227.92c-24.3-19.33-55.89-1.36-89.54,21.63-15.69,16.88-37.77,24.42-46.66,35.87,7.77-3.19,15.11-6.08,22.05-8.69,39.88-29.21,70.85-66.73,97.83-45.26,6.59,5.25,5.28,9.82,2.82,13.71-1.38,2.19-2.98,4.15-4.74,5.91,6.3-.91,11.98-1.63,17.31-2.4.73-.85,1.42-1.75,2.04-2.73,4.33-6.85,4.54-13.54-1.12-18.04Z"></path> <path class="cls-5" d="m38.62,280.46s2.22-1.05,6.22-2.94c1-.5,2.12-.96,3.35-1.47,1.23-.51,2.56-1.07,3.99-1.67,1.43-.62,2.96-1.19,4.59-1.79,1.63-.6,3.35-1.24,5.16-1.91,7.24-2.47,15.87-5.19,25.44-7.66,9.57-2.47,20.08-4.82,31.09-7,11.01-2.18,21.49-4.01,31.01-5.63,9.52-1.61,18.09-3.06,25.29-4.28,1.8-.31,3.51-.61,5.14-.89,1.62-.31,3.16-.72,4.6-1.16,2.87-.88,5.34-1.88,7.35-2.75,2.01-.87,3.56-1.63,4.61-2.15.53-.26.93-.46,1.19-.6.27-.14.41-.2.41-.2,0,0-.55.31-1.6.85-1.05.54-2.6,1.31-4.61,2.2-2.01.88-4.48,1.9-7.36,2.8-1.44.45-2.98.87-4.61,1.18-1.62.29-3.34.59-5.14.91-7.2,1.23-15.78,2.71-25.3,4.34-9.52,1.64-19.99,3.47-31,5.65-11.01,2.18-21.52,4.51-31.08,6.95-9.57,2.44-18.19,5.13-25.43,7.57-1.81.66-3.53,1.29-5.16,1.89-1.63.59-3.16,1.15-4.59,1.76-1.43.59-2.76,1.14-3.99,1.64-1.23.5-2.35.96-3.35,1.45-4.01,1.87-6.23,2.91-6.23,2.91Z"></path> </g> <g> <path class="cls-19" d="m386.49,344.2c15.05-26.71,30.17-47.86,45.59-67.33-33.49,38.89-56.12,84-75.55,119.24,3.92-4.71,8.06-9.62,12.38-14.67,5.71-12.63,11.29-26.09,17.58-37.24Z"></path> <path class="cls-1" d="m541.27,208.2c-.16.02-7.78.14-17.19.39-37.28,15.17-66.48,39.12-90.26,66.27,53.72-36.64,66.1-51.11,86.12-53.13,7.37-.74,14.67.61,21.11,4.76,11.63-6.79,23.34-12.72,35.03-17.55-3.88-5.3-9.41-5.94-14.73-5.4-11.42,1.15-15.04,4.14-20.09,4.65Z"></path> <path class="cls-21" d="m524.08,208.6c9.42-.25,17.03-.38,17.19-.39,5.04-.51,8.67-3.5,20.09-4.65,5.32-.54,10.85.1,14.73,5.4,12.2-5.04,24.38-8.88,36.44-11.26,1.1-2.11,2.21-4.24,3.32-6.42-5.2.02-11.54.4-19.66.97-26.99,1.91-50.86,7.71-72.11,16.35Z"></path> <path class="cls-7" d="m386.82,360.95c40.01-44.73,91.83-95.88,145.92-129.45-3.45-3.91-7.98-6.13-13.79-5.54-51.24,5.18-110.71,98.47-132.14,134.99Z"></path> <path class="cls-12" d="m433.81,274.87c-.58.66-1.16,1.33-1.74,2-15.42,19.46-30.54,40.62-45.59,67.33-6.29,11.15-11.87,24.61-17.58,37.24,5.66-6.61,11.64-13.46,17.92-20.48,21.42-36.51,80.9-129.81,132.14-134.99,5.81-.59,10.34,1.63,13.79,5.54,2.76-1.71,5.53-3.38,8.3-5-6.44-4.15-13.74-5.51-21.11-4.76-20.02,2.02-32.4,16.49-86.12,53.13Z"></path> <path class="cls-17" d="m584.41,223.36c-.82,8.4-19.11,77.5-68.57,82.5-16.08,1.63-32.26-1.86-47.17-.35-15.64,1.58-31.85,9.34-48.06,19.33-14.57,14.86-28.19,29.7-40.55,43.75.62.74,1.36.99,2.16.91,0,0,37.51-29.58,64.72-32.33,1.78-.18,3.55-.27,5.31-.27,17.57-4.42,33.33-5.58,49.44-10.97,25.19-16.25,84.38-48.38,95.84-124.55-5.19,1.51-10.38,3.27-15.59,5.25,1.9,4.9,3.06,10.68,2.47,16.73Z"></path> <path class="cls-4" d="m506.57,295.14c21.62-2.18,52.92-27.11,57.23-71.49.35-3.61.58-6.74.66-9.53-38.38,18.15-76.55,47.28-111.21,79.08,1.37-.24,2.73-.45,4.09-.59,15.68-1.58,32.51,4.23,49.23,2.54Z"></path> <path class="cls-13" d="m515.84,305.86c49.46-5,67.76-74.1,68.57-82.5.59-6.05-.58-11.83-2.47-16.73-5.82,2.22-11.65,4.72-17.47,7.48-.09,2.79-.31,5.92-.66,9.53-4.31,44.38-35.61,69.31-57.23,71.49-16.72,1.69-33.56-4.12-49.23-2.54-1.36.14-2.72.35-4.09.59-11.3,10.36-22.21,21.01-32.65,31.65,16.21-9.99,32.42-17.75,48.06-19.33,14.92-1.51,31.09,1.98,47.17.35Z"></path> <path class="cls-9" d="m382.22,369.5c-.8.08-1.54-.18-2.16-.91-8.47,9.63-16.35,18.89-23.54,27.52-2.35,4.27-4.66,8.4-6.94,12.35,43.95-50.11,75.48-64.73,102.66-71.56-1.75,0-3.52.09-5.31.27-27.21,2.75-64.72,32.33-64.72,32.33Z"></path> <path class="cls-9" d="m501.69,325.93c30.65-10.25,62.59-35.81,110.83-128.24-4.98.98-9.98,2.23-14.99,3.69-11.46,76.17-70.65,108.3-95.84,124.55Z"></path> <path class="cls-5" d="m604.56,199.33s-.76.18-2.2.53c-1.44.34-3.57.83-6.32,1.67-5.49,1.58-13.48,4.31-23.39,8.73-9.91,4.38-21.76,10.52-34.93,18.39-6.59,3.94-13.5,8.32-20.68,13.11-7.17,4.87-14.6,10.22-22.21,16.16-30.43,23.79-57.89,49.74-77.67,69.97-9.89,10.15-17.87,18.84-23.36,25.09-5.49,6.33-8.51,9.81-8.52,9.83,0,0,3.02-3.7,8.51-10.03,5.49-6.31,13.46-15.06,23.35-25.26,19.78-20.33,47.25-46.34,77.69-70.14,7.61-5.94,15.04-11.28,22.22-16.14,7.18-4.78,14.1-9.13,20.68-13.05,13.17-7.82,25.02-13.9,34.93-18.2,9.91-4.35,17.89-7,23.38-8.53,2.75-.81,4.87-1.28,6.31-1.6,1.44-.33,2.2-.51,2.2-.51Z"></path> </g> <g> <path class="cls-3" d="m224.66,219.32c15.59,6.05,31.4,6.95,46.73-1.37,6.18-3.36,12.24-8.22,18.16-14.85-.18-.26-.36-.52-.54-.78-3.56,1.11-7.11,1.91-10.64,2.44-3.09,5.16-7.12,8.96-11.56,11.62-13.34,8-27.64,5.07-42.15,2.94Z"></path> <path class="cls-2" d="m126.98,143.84c13.17,9.45,29.2,25.74,46.76,41.18-13.16-14.07-28.83-27.76-37.87-41.03-2.98-.04-5.94-.09-8.89-.15Z"></path> <path class="cls-1" d="m140.42,144.06c-.48,0-.95-.01-1.42-.02,31,25.64,70.93,95.23,113.69,69.58,2.29-1.37,5.85-4.96,7.17-8.5-4.43-.46-8.85-1.29-13.27-2.44.76,3.3.2,6.55-2.07,7.92-25.02,15.01-53.85-24.57-75.13-48.52-9.42-6.07-19.05-12.22-28.95-18.01Z"></path> <path class="cls-12" d="m244.5,210.59c2.27-1.36,2.84-4.61,2.07-7.92-25.13-6.52-50.33-23.28-77.21-40.61,21.28,23.95,50.12,63.53,75.13,48.52Z"></path> <path class="cls-21" d="m139,144.04c-1.04-.01-2.08-.03-3.12-.04,9.04,13.27,24.71,26.96,37.87,41.03,16.03,14.09,33.33,27.47,50.92,34.3,14.51,2.13,28.8,5.06,42.15-2.94,4.44-2.66,8.46-6.46,11.56-11.62-6.2.93-12.36,1-18.51.36-1.32,3.54-4.88,7.13-7.17,8.5-42.76,25.65-82.68-43.94-113.69-69.58Z"></path> <path class="cls-8" d="m213.51,151.61c1.43.22,2.84.14,4.27-.06-25-6.79-51.59-7.15-77.36-7.49,4.99,2.92,9.9,5.92,14.75,8.96.31-.89.78-1.61,1.45-2.01,2.81-1.68,28.99-3.63,56.89.61Z"></path> <path class="cls-13" d="m168.46,156.13c-1.45.87-2.75,1.81-3.93,2.83,3.34,2.14,6.66,4.29,9.96,6.41,29.86,1.04,59.23-6.65,68.36,26.41.92,3.34,1.66,5.76-2.7,9.01,7.54,2.46,15.07,4.07,22.62,4.58.18-1.78.05-3.67-.5-5.68-13.56-49.11-79.78-51.96-93.8-43.55Z"></path> <path class="cls-22" d="m213.51,151.61c-27.89-4.24-54.08-2.29-56.89-.61-.67.4-1.14,1.12-1.45,2.01,3.14,1.97,6.26,3.95,9.35,5.93,1.18-1.01,2.49-1.96,3.93-2.83,14.01-8.41,80.24-5.55,93.8,43.55.55,2.01.69,3.9.5,5.68,2.47.17,4.94.21,7.41.13.93-3.59,1.07-7.48.05-11.18-3.63-13.15-18.78-26.01-33.5-36.14-6.18-2.71-12.51-4.88-18.95-6.63-1.43.2-2.84.28-4.27.06Z"></path> <path class="cls-8" d="m270.17,205.49c6.24-.2,12.51-1.21,18.83-3.18-15.19-22.1-33.03-35.71-52.27-44.14,14.72,10.13,29.86,22.99,33.5,36.14,1.02,3.7.88,7.59-.05,11.18Z"></path> <path class="cls-4" d="m242.84,191.77c-9.13-33.06-38.51-25.37-68.36-26.41,22.69,14.65,44.25,28.44,65.66,35.42,4.36-3.25,3.63-5.67,2.7-9.01Z"></path> <path class="cls-5" d="m165.78,159.77s6.6,4.14,17.27,10.84c5.34,3.35,11.69,7.33,18.74,11.76,7.06,4.39,14.96,8.78,23.43,12.57,8.46,3.8,16.71,6.58,24.29,8.25,1.89.5,3.75.77,5.56,1.07.9.15,1.79.3,2.67.45.88.14,1.75.18,2.6.27,1.7.14,3.35.34,4.93.41,1.58,0,3.11.02,4.56.03,5.8-.17,10.5-.72,13.7-1.54,1.6-.39,2.84-.75,3.68-.99.84-.24,1.28-.36,1.28-.36,0,0-1.75.63-4.95,1.46-3.2.86-7.9,1.44-13.71,1.64-1.45,0-2.98,0-4.56,0-1.59-.06-3.23-.26-4.94-.39-.85-.09-1.72-.12-2.6-.26-.88-.14-1.77-.29-2.67-.44-1.81-.3-3.67-.56-5.57-1.06-7.6-1.66-15.85-4.44-24.32-8.24-8.48-3.8-16.37-8.21-23.43-12.63-7.04-4.46-13.39-8.48-18.72-11.85-10.65-6.78-17.23-10.97-17.23-10.97Z"></path> </g> <g> <path class="cls-11" d="m316.61.76c45.22-4.01,75.31,8.15,97.42,28.52-25.21-8-53.5-29.51-93.27-23.5-1.31-1.74-2.68-3.44-4.15-5.02Z"></path> <path class="cls-18" d="m390.69,105.87c-1.83-2.5-3.57-5.08-5.16-7.8-14.8-25.28-10.45-38.65-21.83-58.09-4.29-7.33-9.8-13.49-16.39-18.54,25.1,2.23,53.68,7.64,68.94,39.79,10.15,21.4-5.88,42.83-25.55,44.64Z"></path> <path class="cls-20" d="m434.62,121.47c-7.54,6.28-13.34,7.8-18.26,7.72-10.29-6.07-18.82-13.92-25.68-23.33,19.67-1.81,35.71-23.24,25.55-44.64-15.26-32.16-43.84-37.56-68.94-39.79-6.9-5.29-14.97-9.37-24.11-12.28-.77-1.16-1.6-2.27-2.43-3.37,39.77-6.01,68.06,15.49,93.27,23.5,1.41,1.3,2.78,2.64,4.13,4.01,10.56,26.76,28.62,78.07,16.47,88.18Z"></path> <path class="cls-13" d="m433.15,65.11c-3.36-7.08-4.9-12.78-3.7-18.83,5.02,6.52,9.6,13.49,13.86,20.76,10.87,18.56,36.02,73.6,36.16,73.83.01.02.03.04.04.06-2.42.93-4.81,1.79-7.16,2.61-10.49-.24-20.12-1.46-28.91-3.57,7.69-15.72,10.96-34.54,3.27-50.76-4.02-8.47-9.65-15.87-13.56-24.11Z"></path> <path class="cls-10" d="m434.62,121.47c12.15-10.12-5.91-61.42-16.47-88.18,4.02,4.07,7.77,8.42,11.29,12.99-1.2,6.05.34,11.74,3.7,18.83,3.91,8.24,9.55,15.64,13.56,24.11,7.69,16.21,4.42,35.04-3.27,50.76-10.12-2.43-19.11-6.09-27.07-10.78,4.92.08,10.72-1.45,18.26-7.72Z"></path> <path class="cls-2" d="m347.31,90.96c-5.14-24.37-7.31-53.41-21.67-77.93-.78-1.33-1.6-2.62-2.44-3.88,7.64,2.44,14.55,5.69,20.64,9.79-11.63,14.9,8.14,37.34,3.48,72.02Z"></path> <path class="cls-7" d="m361.16,108.72c-6.63-13.96,6.21-45.75,2.71-68.44,11.16,19.27,6.93,32.64,21.66,57.78,4.49,7.67,9.95,14.47,16.34,20.37-20.36,13.98-36.22-.26-40.7-9.72Z"></path> <path class="cls-21" d="m430.4,135.97c12.06,4.6,26.01,7.21,41.95,7.57-59.05,20.52-97.49,6.41-115.1-23.66-2.14-3.66-3.89-7.67-5.38-11.94,16.03,25.13,43.79,54.2,78.53,28.02Z"></path> <path class="cls-12" d="m363.4,122.97c-5.78-12.18-18.16-60.32-8.11-94.27,3.17,3.4,5.98,7.15,8.41,11.28.06.1.11.21.17.31,3.51,22.68-9.33,54.47-2.71,68.44,4.49,9.46,20.34,23.7,40.7,9.72,4.81,4.44,10.16,8.36,16.09,11.69-24.85,14.73-50.22,1.98-54.56-7.16Z"></path> <path class="cls-1" d="m351.87,107.95c-1.85-5.29-3.3-10.99-4.56-16.99,4.67-34.67-15.1-57.12-3.48-72.02,4.22,2.84,8.05,6.09,11.46,9.76-10.05,33.95,2.33,82.08,8.11,94.27,4.34,9.14,29.7,21.9,54.56,7.16,3.91,2.19,8.04,4.16,12.45,5.84-34.74,26.17-62.51-2.89-78.53-28.02Z"></path> <path class="cls-5" d="m442.77,140.77s.34.18,1.03.42c.69.24,1.76.51,3.22.7,2.91.38,7.39.31,12.21.41,4.86.05,9.26.09,12.44.12,1.6,0,2.9,0,3.79,0,.9,0,1.42-.03,1.42-.03,0,0-.47-.04-1.34-.06-.88-.02-2.16-.05-3.73-.08-3.17-.05-7.55-.11-12.39-.19-4.82-.09-9.35.03-12.3-.29-1.48-.15-2.57-.4-3.28-.62-.71-.22-1.07-.38-1.07-.38Z"></path> <path class="cls-5" d="m438.89,139.5s.2.17.57.24c.37.07.72.07.78,0,.06-.06-.2-.17-.57-.24-.37-.07-.78,0-.78,0Z"></path> <path class="cls-5" d="m375.31,75.65s.24.89.68,2.5c.19.82.55,1.74.92,2.83.36,1.11.85,2.3,1.41,3.6,2.19,5.26,5.87,11.98,10.67,18.76,4.79,6.79,9.76,12.38,13.73,16.07,3.95,3.72,7.01,5.42,7.01,5.42,0,0-.68-.51-1.94-1.4-1.22-.93-2.93-2.32-4.9-4.18-3.92-3.73-8.86-9.34-13.65-16.13-4.8-6.78-8.54-13.44-10.78-18.64-.58-1.29-1.08-2.47-1.45-3.57-.39-1.08-.76-1.98-.96-2.8-.46-1.59-.72-2.47-.72-2.47Z"></path> </g> </g> </g> </svg> 