<?xml version="1.0" encoding="UTF-8"?> <svg xmlns="http://www.w3.org/2000/svg" id="Layer_2" data-name="Layer 2" viewBox="0 0 310.14 477.23"> <defs> <style> .cls-1 { fill: #83919a; } .cls-2 { fill: #9fafb8; } .cls-3 { fill: #899da7; } .cls-4 { fill: #bdc4ca; } .cls-5 { fill: #acb8c2; } .cls-6 { fill: #c6cbd1; } .cls-7 { fill: #b6bfc7; } .cls-8 { fill: #d9d8d9; } .cls-9 { fill: #d2d4d7; } .cls-10 { fill: #78838a; } .cls-11 { fill: #b9bfc5; } .cls-12 { fill: #aca5a6; } .cls-13 { fill: #d3d2d5; } .cls-14 { fill: #dae1e8; } </style> </defs> <g id="clipping_mask" data-name="clipping mask"> <g> <path class="cls-12" d="m169.04,155.68c-8.19,13.51-16.41,27.77-23.59,43.07-.72,1.52-1.42,3.05-2.1,4.58-7.88,12.17-18.25,26.82-30.8,41.64-7.68,9.23-15.63,17.5-22.61,25.43-6.98,7.93-12.83,15.56-16.82,22.55-4.02,6.98-6.19,13.18-7.26,17.52-.59,2.16-.81,3.89-.99,5.04-.18,1.15-.29,1.77-.29,1.77,0,0,.17-.59.49-1.74.29-1.13.73-2.79,1.5-4.85,1.48-4.15,4.17-9.99,8.59-16.46,4.4-6.48,10.54-13.56,17.77-21.09,7.22-7.51,15.5-15.69,23.3-25.07,7.37-8.7,13.9-17.4,19.54-25.66-2.68,7.61-4.93,15.24-6.78,22.82-3.81,15.46-6.28,30.56-8.35,44.94-4.02,28.76-6.88,54.71-8.99,76.52-2.09,21.85-3.39,39.54-4.18,51.77-.67,10.71-1.03,17.23-1.12,18.69.16-1.46.9-7.94,2.09-18.61,1.4-12.15,3.47-29.77,6.35-51.49,2.89-21.69,6.53-47.52,11.13-76.06,2.33-14.25,5.02-29.16,8.93-44.28,3.9-15.13,9.22-30.33,16.31-45.28,1.56-3.33,3.18-6.62,4.82-9.84,5.79-11.38,12.06-22.25,18.36-32.71,8.1-13.48,16.08-26.41,23.8-38.62,8.76-13.77,17.35-26.53,25.67-38.08-.55,2.23-.99,4.5-1.32,6.81-1.87,13.23-1.96,25.29-1.58,34,.35,8.06,1.07,13.24,1.17,13.94.06-.61.52-5.82,1.23-13.89.82-8.59,2.11-20.45,3.96-33.34.95-6.38,2.39-12.29,4.68-17.21.65-1.4,1.32-2.74,2.06-4.01,2.88-3.73,5.71-7.29,8.49-10.67.69-.85,1.37-1.67,2.02-2.48,3.15-2.95,5.3-4.42,5.02-4.88-.05-.12-.37-.1-.9.05,5.15-6.05,10.12-11.4,14.68-16.12-.3.49-.45.75-.45.75,0,0,.2-.24.56-.7.23-.25.46-.57.75-.94,0,0,0-.02.04-.03,1.31-1.35,2.6-2.64,3.85-3.89.02,0,.03-.01.03-.01,1.24-1.06,2.76-2.18,4.53-3.34,3.53-2.33,8.14-4.66,13.42-7.62,2.64-1.47,5.44-3.16,8.2-5.34,2.76-2.18,5.51-4.88,7.62-8.3l3.01-4.95-5.61,1.89c-4.98,1.68-12.59,5.41-19.57,10.59-8.11,5.9-14.79,12.62-20.61,18.87-5.78,6.31-10.67,12.15-14.75,17.13-1.22,1.49-2.33,2.94-3.35,4.29-.64.72-1.26,1.45-1.9,2.19-10.28,11.8-21.1,25.92-32.18,41.83-4.82,3.69-11.24,7.19-18.7,9.42-10.51,3.15-20.68,4.32-28.03,5.38-6.93.93-11.37,1.71-11.9,1.81.54.05,5.01.39,12.04.6,7.43.13,17.99.19,29.3-3.16,3.89-1.18,7.52-2.73,10.78-4.53-2.38,3.54-4.76,7.12-7.15,10.8-7.92,12.2-15.99,25.08-24.23,38.57ZM277.07,20.91c.25-.24.51-.48.75-.7.25-.24.51-.45.74-.68.25-.02.54-.07.86-.19-.81.53-1.59,1.06-2.36,1.56Z"></path> <g> <path class="cls-14" d="m143.21,133.25c-28.97,16.57-50.81,44.23-61.35,66.52.23-.22.45-.44.69-.65,16.32-30.07,43.09-53.63,73.98-71.29,8.92-5.1,21.21-11.07,21.6-11.29,4.65-2.66,8.83-6.08,12.47-10.05-.28-.67-.56-1.33-.85-2-.68-.31-1.38-.62-2.08-.94-3.78,4.44-9.39,10.1-23.91,18.4-6.82,3.9-13.77,7.43-20.55,11.32Z"></path> <path class="cls-4" d="m141.82,115.26c-2.17-3.8-13.7-7.44-22.2-2.59-19.57,11.19-38.33,52.83-34.99,64.34,1.83,2.65,3.61,2.5,6.42.95,2.84-5.22,12.58-20.61,37.75-41.28,6.86-5.64,15.9-16.39,13.02-21.43Zm-44.1,35.74c-.34-.6-.47-1.31-.6-2.01-.2-1.09,4.32-22.13,25.87-34.46,3.36-1.92,10.35-1.68,12.26,1.67,6.04,10.56-30.56,35-31.46,35.52-2.02,1.16-5.1.97-6.07-.72Z"></path> <path class="cls-11" d="m86.21,147.32c-1.92,5.07-3.55,10.22-4.91,15.33-.82,11.02-1.45,30.29,1.34,35.17.03.04.06.1.08.15,10.84-21.96,32.28-48.59,60.48-64.72,1-.57,2-1.12,3-1.68,2.4-6.38,3.23-14.92.05-20.5-4.03-7.05-15.69-7.1-27.25-.49-10.06,5.75-22.79,20.95-32.8,36.73Zm55.61-32.06c2.88,5.04-6.16,15.79-13.02,21.43-25.17,20.67-34.91,36.07-37.75,41.28-2.81,1.54-4.59,1.69-6.42-.95-3.34-11.51,15.42-53.15,34.99-64.34,8.49-4.86,20.02-1.21,22.2,2.59Z"></path> <path class="cls-6" d="m81.3,162.65c-4.52,17.02-6.01,33.55-5.26,45.09,1.43-3.04,3.43-5.67,5.82-7.97.28-.6.58-1.2.87-1.8-.03-.05-.06-.1-.08-.15-2.79-4.89-2.17-24.15-1.34-35.17Z"></path> <path class="cls-5" d="m160.46,106.14c-5.93-10.37-31.49-6.62-41.89-.67-5.59,3.2-10.33,6.47-14.41,9.77-7.67,9.34-13.57,20.51-17.94,32.08,10.01-15.78,22.74-30.98,32.8-36.73,11.56-6.61,23.21-6.57,27.25.49,3.19,5.58,2.35,14.12-.05,20.5,4.08-2.27,8.21-4.47,12.31-6.71,2.68-6.67,5.12-13.17,1.94-18.72Z"></path> <path class="cls-2" d="m127.95,96.19c-1.4.63-2.8,1.34-4.19,2.14-7.53,4.31-14.03,10.13-19.6,16.91,4.08-3.29,8.83-6.57,14.41-9.77,10.41-5.95,35.96-9.7,41.89.67,3.17,5.55.74,12.05-1.94,18.72,1.75-.96,3.5-1.93,5.24-2.93,5.14-2.94,9.15-5.55,12.37-7.89.56-2.57.61-5.49-.37-7.19-4.77-8.34-25.84-14.63-47.82-10.66Z"></path> <path class="cls-3" d="m175.77,106.86c.98,1.71.93,4.63.37,7.19,5.87-4.27,9.09-7.65,11.53-10.51-16.48-7.46-38.15-17.07-59.72-7.35,21.98-3.96,43.05,2.32,47.82,10.66Z"></path> <path class="cls-6" d="m135.25,116.2c-1.91-3.35-8.9-3.59-12.26-1.67-21.56,12.33-26.07,33.36-25.87,34.46.13.7.26,1.41.6,2.01.97,1.69,4.05,1.88,6.07.72.9-.51,37.5-24.96,31.46-35.52Z"></path> <path class="cls-2" d="m179.18,139.05c-4.76-8.32-11.68-12.01-19.58-12.95-1.05.58-2.09,1.16-3.08,1.72-22.05,12.61-42.01,28.23-57.56,47.08-.94,3.03-2.4,5.2-.95,7.73.61,1.08,2.38,1.29,3.71,1.26,17.55-.39,26.21.55,31.25,2.04,3.66.11,7.3.28,10.9.4,6.38-1.43,13.21-3.8,20.37-7.9,17.87-10.22,21.74-27.48,14.93-39.39Zm-69.69,36.53c-.26-.45-.67-.94-.97-1.46-2.9-5.08,18.8-25.42,33.29-33.71,8.38-4.79,26.45-7.82,31.38.81,6.17,10.8-1.61,27.8-12.84,34.22-1.05.6-2.12,1.16-3.17,1.75-11.73,6.71-34.72,1.91-47.7-1.62Z"></path> <path class="cls-3" d="m101.73,183.89c-1.33.03-3.09-.18-3.71-1.26-1.45-2.53,0-4.71.95-7.73-6.23,7.55-11.76,15.62-16.42,24.22,2-1.82,4.25-3.43,6.68-4.82,14.43-8.25,29.28-8.8,43.77-8.36-5.05-1.49-13.7-2.43-31.25-2.04Z"></path> <path class="cls-3" d="m179.18,139.05c6.81,11.91,2.95,29.17-14.93,39.39-7.17,4.1-13.99,6.47-20.37,7.9,4.55.16,9.03.24,13.44.04,1.36-.76,2.76-1.55,4.24-2.4,22.23-12.71,35.14-36.25,27.72-49.22-5.16-9.03-11.96-12.26-20.82-13.35-2.81,1.45-5.92,3.08-8.86,4.7,7.9.94,14.82,4.63,19.58,12.95Z"></path> <path class="cls-1" d="m189.28,134.75c7.42,12.97-5.49,36.51-27.72,49.22-1.49.85-2.89,1.64-4.24,2.4,8.88-.41,17.43-2,25.42-6.57,3.54-2.03,6.49-4.3,8.92-6.77,6.65-14.84,8.65-33.17,1.04-46.49-2.57-4.5-7.63-9.19-12.81-11.08-.58.37-1.17.72-1.77,1.06-.22.13-4.43,2.18-9.65,4.87,8.86,1.09,15.65,4.32,20.82,13.35Z"></path> <path class="cls-10" d="m191.66,173.04c16.4-16.66,9.08-42.55-1.07-66.56-3.18,3.46-6.76,6.51-10.71,8.99,5.18,1.89,10.24,6.58,12.81,11.08,7.62,13.32,5.62,31.65-1.04,46.49Z"></path> <path class="cls-5" d="m173.19,141.23c-4.94-8.63-23-5.6-31.38-.81-14.49,8.29-36.19,28.63-33.29,33.71.29.52.71,1.01.97,1.46,12.97,3.53,35.96,8.33,47.7,1.62,1.05-.6,2.12-1.16,3.17-1.75,11.23-6.42,19.01-23.42,12.84-34.22Zm-34.96,32.52c-1.44-3.05-2.88-6.1-4.01-9.62-1.72-5.33,4.6-15.65,14.37-21.23,6.58-3.76,18.44-6.3,22.35.53,3.06,5.35.84,17.27-15.11,26.39-7.31,4.18-11.69,4.85-17.59,3.93Z"></path> <path class="cls-7" d="m170.93,143.42c-3.91-6.83-15.77-4.3-22.35-.53-9.77,5.59-16.09,15.9-14.37,21.23,1.14,3.52,2.57,6.57,4.01,9.62,5.91.92,10.29.25,17.59-3.93,15.95-9.12,18.18-21.04,15.11-26.39Z"></path> </g> <g> <path class="cls-3" d="m108.4,335.9c.38.21.75.46,1.09.77,1.59-3.89,3.47-7.87,5.68-11.96,1.39-2.57,2.84-5.1,4.33-7.62-.49-.33-.99-.66-1.49-.99-13.88,9.99-27.63,23.72-36.09,39.41-.56,1.03-1.08,2.05-1.58,3.05,9.65-13.34,21.29-26.32,28.06-22.67Z"></path> <path class="cls-2" d="m80.34,358.57c-9.56,19.27-8.49,33.45-2.6,45.18-3.47-14.74-.94-35.18,4.81-45.85,4.09-7.58,9.58-13.67,18.6-8.81,1.19.64,2.36,1.53,3.41,2.69,1.17-4.88,2.79-9.91,4.92-15.11-.34-.31-.71-.56-1.09-.77-6.77-3.65-18.42,9.32-28.06,22.67Z"></path> <g> <path class="cls-14" d="m124.94,470.75c.03,2.08-.12,4.23-.48,6.48.39-.61.77-1.24,1.11-1.88,3.37-6.25,3.43-11.02,2.9-16.12-8.44-38.7-40.88-77.93-13.35-128.98,2.13-3.94,4.35-7.83,6.54-11.67-.71-.5-1.44-1-2.17-1.49-1.49,2.52-2.94,5.05-4.33,7.62-36.19,67.07,14.19,106.89,9.77,146.03Z"></path> <path class="cls-6" d="m124.94,470.75c.74-6.59-.07-13.19-1.75-19.94-10.55-7.08-19.53-20.71-31.8-28.95,14.78,15.26,33.25,28.24,33.55,48.89Z"></path> <path class="cls-5" d="m82.56,357.91c-5.76,10.67-8.28,31.11-4.81,45.85,2.94,5.85,7.08,11.09,11.69,16.06-8.45-13.02-16.75-30.28-8.6-45.39,5.67-10.52,13.17-13.47,21.64-10.39.41-3.97,1.08-8.05,2.09-12.24-1.06-1.16-2.22-2.05-3.41-2.69-9.02-4.87-14.51,1.22-18.6,8.81Z"></path> <path class="cls-11" d="m80.84,374.42c-8.15,15.11.14,32.37,8.6,45.39.64.69,1.29,1.37,1.95,2.05,12.27,8.24,21.25,21.88,31.8,28.95-6.2-24.85-24.29-51.67-20.7-86.78-8.47-3.07-15.97-.12-21.64,10.39Zm14.36-4.01c9.72,5.24.41,24.08,8.08,39.23,4.14,8.18,8.72,15.43,9.18,24.52-.2.37-.34.92-.59,1.38-.66,1.22-1.99.85-3.2.2-10.67-5.75-36.22-39.15-25.19-59.6,2.99-5.54,8.96-7.21,11.71-5.73Z"></path> <path class="cls-4" d="m108.68,435.75c1.21.65,2.54,1.02,3.2-.2.25-.46.39-1.01.59-1.38-.46-9.09-5.04-16.34-9.18-24.52-7.67-15.16,1.64-33.99-8.08-39.23-2.75-1.48-8.72.19-11.71,5.73-11.04,20.45,14.52,53.85,25.19,59.6Zm-16.26-57.22c.05.03.1.06.15.09,8.74,6.02,5.42,21.54,6.33,32.14-.57-.24-1.14-.51-1.69-.81-10.49-5.66-15.76-20.12-11.68-27.67,1.29-2.38,5.06-4.74,6.89-3.75Z"></path> <path class="cls-6" d="m97.21,409.95c.56.3,1.12.57,1.69.81-.91-10.59,2.41-26.12-6.33-32.14-.05-.03-.1-.06-.15-.09-1.83-.99-5.6,1.37-6.89,3.75-4.07,7.55,1.19,22.01,11.68,27.67Z"></path> <path class="cls-10" d="m116.37,328c2.48-2.97,5.59-4.7,11.13-1.71,3.54,1.91,14.42,14.79,19.33,20.82-4.93-10.8-13.47-20.31-25.16-28.52-1.77,3.1-3.55,6.25-5.3,9.42Z"></path> <path class="cls-2" d="m131.35,344.17c-10.65-5.74-19.06-1.68-24.8,8.1-7.47,30.9,4.91,57.57,14.44,83.04,3.75-.67,7.2-4.84,8.46-7.18,1.18-2.19,1.2-3.14,3.28-7,3.5-6.49,7.59-12.51,11.14-18.8,3.36-7.35,5.59-14.37,6.79-21.06-1.35-15.33-6.46-30.17-19.32-37.1Zm-8.06,81.64c-2.52-2.94-4.45-6.07-5.92-9.5-6.45-15.12-16.19-39.44-7.65-55.27,4.39-8.13,12.52-13.52,21.08-8.9,11.69,6.31,19.78,31.78,6.63,56.14-3.55,6.57-8.37,12.55-14.15,17.54Z"></path> <path class="cls-3" d="m129.46,428.14c-1.26,2.33-4.71,6.51-8.46,7.18,3.02,8.06,5.75,16,7.47,23.91-.98-9.58-4.02-20.35,8.92-44.34.96-1.78,1.93-3.55,2.88-5.32,1.32-2.45,2.52-4.86,3.61-7.23-3.54,6.29-7.64,12.3-11.14,18.8-2.08,3.86-2.1,4.81-3.28,7Z"></path> <path class="cls-1" d="m116.37,328c-.41.75-.84,1.5-1.24,2.25-1.78,3.31-3.31,6.57-4.62,9.78,6.72-5.71,15.1-5.04,20.51-2.13,9.89,5.33,16.26,22.76,20.67,34.1.32-8.95-1.36-17.25-4.86-24.9-4.9-6.03-15.79-18.91-19.33-20.82-5.54-2.99-8.64-1.26-11.13,1.71Z"></path> <path class="cls-3" d="m110.51,340.03c-1.69,4.16-2.99,8.24-3.96,12.24,5.74-9.78,14.16-13.85,24.8-8.1,12.86,6.94,17.97,21.77,19.32,37.1.57-3.16.91-6.25,1.01-9.27-4.41-11.35-10.78-28.77-20.67-34.1-5.41-2.92-13.79-3.58-20.51,2.13Z"></path> <path class="cls-5" d="m130.8,352.13c-8.56-4.62-16.69.77-21.08,8.9-8.54,15.84,1.2,40.16,7.65,55.27,1.47,3.44,3.4,6.57,5.92,9.5,5.78-5,10.6-10.97,14.15-17.54,13.14-24.36,5.06-49.83-6.63-56.14Zm1.78,50.61c-2.99-.09-6.38.04-9.19-1.48-8.53-4.6-17.93-19.77-10.23-34.04,4.84-8.98,14.13-12.47,16.28-11.31.49.26,1.17.46,1.73.76,4.19,2.26,14.25,23.09,4.11,41.88-.79,1.47-1.69,2.87-2.69,4.19Z"></path> <path class="cls-7" d="m131.17,356.67c-.56-.3-1.24-.5-1.73-.76-2.15-1.16-11.43,2.34-16.28,11.31-7.7,14.27,1.7,29.43,10.23,34.04,2.81,1.52,6.2,1.38,9.19,1.48,1.01-1.32,1.9-2.72,2.69-4.19,10.14-18.79.09-39.61-4.11-41.88Z"></path> </g> </g> <g> <path class="cls-14" d="m243.7,204.53c3.6,27.33-.87,53.28,1.21,79.3.13,1.58.28,3.16.44,4.73,2.11,5.39,3.7,10.95,4.53,16.76.13-1.39.25-2.78.37-4.17-.22-3.02-.36-6.05-.42-9.06-2.96-162.49-23.57-135.83-23.99-196.97-.53-.51-1.06-1.02-1.59-1.53-.76,1-1.5,2.02-2.25,3.03-.29,27.78,14.66,54.45,21.7,107.91Z"></path> <path class="cls-9" d="m204,219.29c.11.56.22,1.12.35,1.68,12.68,24.04,31.86,44.25,41,67.58-.16-1.57-.31-3.14-.44-4.73-.49-6.08-.61-12.17-.56-18.26-1.08.11-2.21-.1-3.24-.56-1.27-.57-24.08-24.9-37.11-45.72Z"></path> <path class="cls-6" d="m205.52,172.39c-5.62,12.49-5.09,29.39-1.52,46.9,13.03,20.82,35.84,45.14,37.11,45.72,1.03.46,2.16.67,3.24.56.14-19.97,2.11-40.1-.65-61.03-1.29-9.81-2.85-18.71-4.53-26.89-4.59-6.25-11.24-13.2-15.81-15.25-7.09-3.19-15.3,4.34-17.84,9.99Zm30.36,72.09c-.13.29-.27.56-.44.83,0,.01-.01.03-.02.04-.05.12-.07.29-.13.42-.19.43-2.5-.56-2.92-.75-18.75-8.43-33.31-44.18-23.08-66.92,2.78-6.18,10.51-13.02,16.71-10.23,14.19,6.38,15.96,63.08,9.88,76.6Z"></path> <path class="cls-5" d="m203.06,128.74c-8.98,19.96-11.83,37.07-10.81,52.25,3.15-19.6,8.18-35.52,11.67-43.27,2.6-5.79,8.14-16.19,13.96-13.57,3,1.35,8.76,11.38,12.9,19.26-4.89-17.97-8.92-32.23-8.77-46.79-7.34,10.03-13.87,20.83-18.95,32.11Z"></path> <path class="cls-11" d="m203.92,137.72c-3.49,7.76-8.52,23.68-11.67,43.27.75,11.13,3.58,21.24,7.63,30.67-1.09-22.88-5.46-43.55,2.51-61.27,2.88-6.4,9.11-8.43,13.86-6.29,4.48,2.01,12.62,10.74,19.97,20.26-1.82-7.59-3.68-14.51-5.43-20.96-4.14-7.88-9.9-17.91-12.9-19.26-5.82-2.62-11.35,7.78-13.96,13.57Z"></path> <path class="cls-4" d="m199.88,211.66c.4.92.8,1.84,1.22,2.75,1.02,2.22,2.1,4.4,3.24,6.56-.12-.56-.23-1.12-.35-1.68-3.57-17.51-4.1-34.41,1.52-46.9,2.54-5.65,10.75-13.18,17.84-9.99,4.57,2.06,11.22,9.01,15.81,15.25-.96-4.65-1.95-9.07-2.96-13.28-7.35-9.52-15.49-18.25-19.97-20.26-4.75-2.13-10.98-.11-13.86,6.29-7.96,17.71-3.6,38.39-2.51,61.27Z"></path> <path class="cls-13" d="m209.29,178.1c-10.22,22.74,4.34,58.49,23.08,66.92.42.19,2.73,1.17,2.92.75.06-.13.08-.3.13-.42,0-.01.01-.03.02-.04.16-.27.31-.55.44-.83,6.08-13.52,4.31-70.22-9.88-76.6-6.2-2.79-13.93,4.05-16.71,10.23Zm16.27-7.76c5.57,2.5,10.35,37.21,5.56,47.86-.7,1.55-3.55,7.2-5.15,6.48-.06-.03-.13-.07-.19-.13-.45.37-.87.33-1.23.17s-.66-.44-.9-.55c-13.94-6.27-17.2-37.06-14.84-42.31,1.4-3.11,11.51-13.87,16.76-11.51Z"></path> <path class="cls-8" d="m223.64,224.17c.24.11.55.39.9.55s.77.2,1.23-.17c.07.06.13.1.19.13,1.6.72,4.45-4.93,5.15-6.48,4.79-10.65.01-45.35-5.56-47.86-5.25-2.36-15.36,8.4-16.76,11.51-2.36,5.25.9,36.04,14.84,42.31Z"></path> <path class="cls-2" d="m251.35,268.77c-.33.73-1.09,2.39-1.98,4.01.18,6.13.34,12.54.46,19.3.05,3.01.19,6.04.42,9.06,1.27-14.51,2.54-29.13,8.09-41.48,4.64-10.31,14.9-19.44,25.21-30.5-10.11,7.19-21.7,15.54-27.84,29.21-1.55,3.44-2.8,6.95-4.35,10.4Z"></path> <path class="cls-11" d="m280.99,155.97c-13.29-5.97-27.07-1.6-33.79,13.34-2.26,5.02-3.69,9.91-4.56,14.75,2.96,19.5,5.49,46.98,6.73,88.73.89-1.63,1.65-3.28,1.98-4.01,1.55-3.45,2.81-6.96,4.35-10.4,6.14-13.66,17.73-22.02,27.84-29.21,5.28-5.67,10.57-11.86,15.12-18.97,3.67-32.29-9.34-50.49-17.67-54.23Zm-22.51,83.57c-.63-.03-1.22-.22-1.76-.46-6.42-2.89-13.55-55.41-5-74.43,3.61-8.04,12.57-11.19,19.81-7.94,15.28,6.87,26.88,32.76,18.97,50.35-7.03,15.63-27.65,32.65-32.02,32.47Z"></path> <path class="cls-2" d="m232.67,127.2c-.81,1.81-1.36,4.6-1.69,7.91,2.5,8.92,5.6,17.75,8.58,31.8.23-7.52.88-14.87,4.53-22.98,4.48-9.97,7.32-13.41,21.77-6.91,22.57,10.15,37.81,38.35,39.07,61.54,3.52-8,5.16-14.91,5.21-21.05-9.51-20.9-39.89-45.77-56.19-53.09-6.92-3.11-18.17-4.13-21.28,2.79Z"></path> <path class="cls-3" d="m225.85,95.12c.13,19.07,2.22,29.6,5.13,39.99.33-3.31.87-6.1,1.69-7.91,3.11-6.92,14.37-5.9,21.28-2.79,16.3,7.33,46.68,32.2,56.19,53.09.31-32.75-44.01-43.85-84.3-82.38Z"></path> <path class="cls-5" d="m265.86,137.02c-14.45-6.5-17.29-3.06-21.77,6.91-3.65,8.11-4.3,15.47-4.53,22.98,1.05,4.98,2.09,10.62,3.08,17.14.87-4.84,2.31-9.72,4.56-14.75,6.72-14.94,20.5-19.31,33.79-13.34,8.32,3.74,21.34,21.93,17.67,54.23,2.2-3.45,4.24-7.11,6.01-11.04.09-.2.17-.4.26-.6-1.26-23.2-16.5-51.4-39.07-61.54Z"></path> <path class="cls-4" d="m271.53,156.72c-7.24-3.26-16.19-.1-19.81,7.94-8.55,19.02-1.42,71.54,5,74.43.53.24,1.13.43,1.76.46,4.36.18,24.99-16.84,32.02-32.47,7.91-17.59-3.69-43.48-18.97-50.35Zm-5.61,63.71c-3.75-8.31-7-16.62-9.06-25.96-1.02-4.6-2.95-20.05.5-27.74,3.69-8.2,12.32-7.79,17.55-5.44,9.11,4.09,19.2,20.37,10.97,38.66-2.17,4.84-14.32,21.77-19.96,20.47Z"></path> <path class="cls-6" d="m274.92,161.29c-5.23-2.35-13.86-2.77-17.55,5.44-3.46,7.69-1.52,23.14-.5,27.74,2.06,9.33,5.31,17.65,9.06,25.96,5.64,1.29,17.79-15.64,19.96-20.47,8.22-18.29-1.86-34.57-10.97-38.66Z"></path> </g> <g> <path class="cls-14" d="m22.25,337.48c-7.17,3.59-14.81,6.41-22.05,9.64.21-.91.4-1.83.57-2.76,86.92-31.45,78.53-58.52,99-87.16,1.53.37,2.88.75,4.03,1.14-18.06,13.92-1.49,39.01-81.56,79.14Z"></path> <path class="cls-6" d="m8.9,296.49c-3.2,18.01-2.77,35.99-2.15,37.83.88,2.59,1.88,5.77,4.5,6.08-3.34,1.31-6.82,2.63-10.48,3.95,2.63-14.23,1.65-31.79,8.13-47.86Z"></path> <path class="cls-2" d="m44.31,268.86c-8.42,2.86-16.68,6.61-24.72,10.78,5.37-5.73,12.58-10.94,22.33-15.33,17.22-4.39,45.76-9.28,52.52,1.32-3.49,6.2-6.19,12.35-9.39,18.51,1.44-4.39,1.8-8.66.44-12.64-4.38-12.9-23.95-8.48-41.18-2.63Z"></path> <path class="cls-3" d="m41.92,264.31c2.96-1.33,6.15-2.59,9.6-3.76,20.82-7.07,38.34-5.71,48.25-3.35-2.02,2.82-3.75,5.63-5.33,8.43-6.76-10.59-35.31-5.7-52.52-1.32Z"></path> <path class="cls-11" d="m11.25,340.4c24.96-9.81,40.97-19.21,51.89-28.39,8.96-10.03,15.51-21.55,11.99-31.91-2.64-7.77-8.37-15.76-40.17-4.96-6.3,2.14-12.7,5.15-18.93,8.7-3.08,4.05-5.38,8.3-7.14,12.66-3.2,18.01-2.77,35.99-2.15,37.83.88,2.59,1.88,5.77,4.5,6.08Zm17.61-12.19c-1.15.39-2.33.51-3.41.61-3.74.37-6.84-.86-10.6-1.3-2.91-17.52-.17-40.16,20.45-47.16,9.93-3.37,32.24-2.73,35.18,5.92,6.09,17.93-28.5,37.47-41.62,41.92Z"></path> <path class="cls-5" d="m75.13,280.1c-2.64-7.77-8.37-15.76-40.17-4.96-6.3,2.14-12.7,5.15-18.93,8.7,1.08-1.43,2.27-2.82,3.55-4.19,8.04-4.17,16.31-7.92,24.72-10.78,17.23-5.85,36.8-10.27,41.18,2.63,1.35,3.99.99,8.25-.44,12.64-4.77,9.19-10.65,18.41-21.91,27.88,8.96-10.03,15.51-21.55,11.99-31.91Z"></path> <path class="cls-4" d="m25.45,328.82c1.09-.11,2.26-.22,3.41-.61,13.12-4.46,47.71-24,41.62-41.92-2.94-8.65-25.25-9.3-35.18-5.92-20.62,7-23.36,29.64-20.45,47.16,3.75.44,6.85,1.67,10.6,1.3Zm5.23-7.79c-2.46.84-5.3.68-7.25-.1-1.6-.64-2.58-1.82-4.2-2.74-2.92-15.49,10.38-32.89,19.55-36.01,8.32-2.83,21.53,3.09,23.17,7.91,4.31,12.69-26.24,29.22-31.27,30.93Z"></path> <path class="cls-6" d="m23.42,320.94c-1.6-.64-2.58-1.82-4.2-2.74-2.92-15.49,10.38-32.89,19.55-36.01,8.32-2.83,21.53,3.09,23.17,7.91,4.31,12.69-26.24,29.22-31.27,30.93-2.46.84-5.3.68-7.25-.1Z"></path> <path class="cls-5" d="m84.34,291.01c-8.67,12.52-25.01,27.88-62.1,46.47-4.49,2.25-9.17,4.2-13.82,6.13,6.81,2.37,30.3,1.78,49.49-.2,2.95-.36,5.85-.78,8.66-1.26,21.26-10.63,37.54-25.11,31.7-42.3-2.36-6.94-7.18-9.62-13.93-8.84Zm3.19,5.36c3.21-1.09,5.09,1.41,5.89,3.78,6.19,18.24-11.54,33.38-30.94,39.97-15,5.09-37.48,4.78-38.54,1.67-.14-.41.05-.99.33-1.41,36.49-19.29,63.25-44.01,63.25-44.01Z"></path> <path class="cls-3" d="m57.92,343.41c-20.68,2.55-43.98,2.51-57.92,4.55.07-.28.13-.56.19-.84,2.71-1.2,5.47-2.35,8.24-3.5,6.81,2.37,30.3,1.78,49.49-.2Z"></path> <path class="cls-2" d="m103.14,286.86c.58,1.7,1.51,3.43,2.1,5.18,3.76,11.06-6.57,32.07-23.75,46.51-4.49,1.51-9.54,2.67-14.91,3.6,21.26-10.63,37.54-25.11,31.7-42.3-2.36-6.94-7.18-9.62-13.93-8.84,1.74-2.51,3.17-4.91,4.4-7.2,1.12-.57,2.29-1.1,3.55-1.53,6.1-2.07,9.93,1.87,10.85,4.58Z"></path> <path class="cls-1" d="m104.08,277.98c-1.28-3.76-3.63-9.6-8.98-7.78-.03,0-.05.02-.08.03,2.15-4.63,4.48-8.59,8.78-11.9.19.06.38.13.56.19-.88,25.83,20.75,56.63-10.36,74.53,12.46-14.02,17.61-32.88,10.07-55.07Z"></path> <path class="cls-3" d="m104.08,277.98c7.54,22.19,2.39,41.05-10.07,55.07-3.43,1.97-7.49,3.79-12.31,5.43-.07.02-.14.05-.21.07,17.18-14.44,27.51-35.44,23.75-46.51-.59-1.75-1.52-3.48-2.1-5.18-.92-2.71-4.75-6.65-10.85-4.58-1.26.43-2.43.96-3.55,1.53,2.71-5.06,4.42-9.57,6.28-13.57.03,0,.05-.02.08-.03,5.35-1.82,7.71,4.02,8.98,7.78Z"></path> <path class="cls-7" d="m87.54,296.36s-26.77,24.72-63.25,44.01c-.29.42-.47,1-.33,1.41,1.06,3.11,23.54,3.42,38.54-1.67,19.4-6.59,37.13-21.73,30.94-39.97-.81-2.38-2.69-4.87-5.89-3.78Zm-2.19,6.07c4.22-1.43,7.24-.14,8.11,2.44,2.3,6.77-9.07,24.58-24.6,29.86-5.53,1.88-17.25,3.28-18.32.13-.45-1.32-.09-2.87-.13-4.25-.07-2.58,31.52-27.01,34.94-28.17Z"></path> <path class="cls-4" d="m93.46,304.88c2.3,6.77-9.07,24.58-24.6,29.86-5.53,1.88-17.25,3.28-18.32.13-.45-1.32-.09-2.87-.13-4.25-.07-2.58,31.52-27.01,34.94-28.17,4.22-1.43,7.24-.14,8.11,2.44Z"></path> </g> </g> </g> </svg> 