<?xml version="1.0" encoding="UTF-8"?> <svg xmlns="http://www.w3.org/2000/svg" id="Layer_2" data-name="Layer 2" viewBox="0 0 807.94 264.08"> <defs> <style> .cls-1 { fill: #90757a; } .cls-2 { fill: #d5dbd7; } .cls-3 { fill: #9e909f; } .cls-4 { fill: #cfbfc3; } .cls-5 { fill: #aa9698; } .cls-6 { fill: #b9a4ae; } .cls-7 { fill: #967c80; } .cls-8 { fill: #ccb7be; } .cls-9 { fill: #a58c8f; } .cls-10 { fill: #d7cace; } .cls-11 { fill: #e2d2d3; } .cls-12 { fill: #c8b5c1; } .cls-13 { fill: #e3d9dc; } .cls-14 { fill: #decacf; } .cls-15 { fill: #bca3a9; } .cls-16 { fill: #908393; } .cls-17 { fill: #ded1d5; } .cls-18 { fill: #b2989c; } .cls-19 { fill: #c4acb3; } .cls-20 { fill: #c9b8ba; } .cls-21 { fill: #c1aeb9; } .cls-22 { fill: #b7a6a8; } .cls-23 { opacity: .56; } .cls-24 { fill: #cdbbc7; } </style> </defs> <g id="clipping_mask" data-name="clipping mask"> <g class="cls-23"> <path class="cls-2" d="m773.27,153.12c3.94,3.83,6.01,5.84,6.01,5.84,0,0-2.13-1.94-6.19-5.63-2.09-1.77-4.87-3.72-8.07-6.12-3.44-2.05-7.24-4.68-11.97-6.85-9.27-4.64-21.35-8.86-35.83-11.54-14.47-2.79-31.29-3.8-49.84-3.65-15.15.22-31.52,1.26-48.89,2.53.47.05.91.09,1.39.15,7,.91,15.01,2.68,22.25,7.16,3.58,2.2,6.74,4.75,9.65,7.27,2.9,2.53,5.59,5.01,8.19,7.37,5.17,4.73,9.77,9.05,13.61,12.7,7.68,7.31,12.31,11.97,12.31,11.97,0,0-5.27-3.93-13.58-10.51-4.16-3.29-9.08-7.24-14.49-11.7-5.47-4.38-11.11-9.71-17.71-13.8-6.59-4.08-13.96-5.85-20.74-6.93-3.41-.53-6.69-.91-9.77-1.26-3.09-.35-5.96-.69-8.56-.89-.44-.04-.85-.06-1.28-.09-19.82,1.64-40.74,3.77-62.58,6.76-24.38,3.26-49.94,7.3-76.61,10.68-3.33.42-6.68.84-10.05,1.26-3.37.37-6.76.74-10.16,1.11-3.33.39-6.68.72-10.05,1.02,6.27,1.62,13.5,3.65,21.16,6.18,11.52,3.81,21.57,8.41,28.5,12.34,3.48,1.93,6.2,3.66,8.05,4.89,1.83,1.25,2.85,1.94,2.85,1.94,0,0-1.12-.5-3.14-1.41-2.02-.91-4.94-2.2-8.59-3.67-7.28-3.02-17.49-6.64-28.87-10.41-11.02-3.64-21.13-6.66-28.57-9.1-.64.06-1.28.11-1.93.17-6.93.6-13.95.88-21,1.31-3.53.09-7.08.17-10.64.26-3.56.1-7.12.19-10.71.08-3.58-.06-7.16-.11-10.72-.17-3.56-.05-7.11-.39-10.65-.56l-5.3-.32c-1.76-.09-3.52-.22-5.27-.45-3.5-.4-6.99-.79-10.47-1.18-3.49-.31-6.92-.96-10.35-1.54-3.43-.59-6.84-1.17-10.24-1.76-3.36-.79-6.7-1.59-10.04-2.37-3.33-.81-6.67-1.48-9.89-2.59-6.47-2.06-12.98-3.85-19.18-6.28-3.69-1.39-7.3-2.85-10.88-4.32,1.86,1.13,3.74,2.3,5.62,3.52,7.64,4.98,14.6,10.2,20.71,15.19,6.07,5.05,11.32,9.85,15.52,14.07,2.15,2.06,3.97,4.06,5.6,5.77,1.64,1.7,2.99,3.23,4.08,4.49,2.18,2.51,3.39,3.9,3.39,3.9,0,0-1.36-1.24-3.82-3.47-1.21-1.13-2.71-2.5-4.5-4.03-1.78-1.54-3.76-3.35-6.05-5.22-4.5-3.84-10.01-8.23-16.23-12.93-6.26-4.65-13.26-9.6-20.8-14.51-7.56-4.87-14.97-9.18-21.81-12.92-4.34-2.32-8.44-4.43-12.23-6.29-3.96-1.49-7.92-2.93-11.88-4.2-23.22-7.61-46.13-12.49-67.39-18.07-10.64-2.77-20.89-5.67-30.61-8.92-9.72-3.25-18.92-6.85-27.46-10.78-3.9-1.81-7.65-3.67-11.29-5.56.15.14.3.27.46.41,5.31,5.01,10.8,10.9,15.95,17.59,5.09,6.73,9.26,13.63,12.6,20.11,1.59,3.29,3.13,6.39,4.29,9.42.6,1.5,1.24,2.93,1.73,4.35.49,1.42.96,2.78,1.4,4.08.94,2.58,1.53,5.01,2.12,7.1.61,2.09,1.02,3.92,1.32,5.43.62,3,.96,4.65.96,4.65,0,0-.55-1.6-1.54-4.49-.47-1.45-1.08-3.21-1.9-5.21-.8-2.01-1.61-4.33-2.77-6.79-.55-1.24-1.12-2.54-1.72-3.89-.6-1.35-1.33-2.71-2.02-4.14-1.35-2.88-3.05-5.83-4.76-8.96-3.59-6.17-7.85-12.75-12.81-19.31-5.02-6.52-10.29-12.32-15.34-17.36-2.59-2.44-5.01-4.83-7.46-6.85-1.21-1.03-2.33-2.07-3.49-2.99-.59-.47-1.13-.89-1.69-1.34-6.41-3.91-12.38-7.82-17.8-11.75-7.49-5.37-14.02-10.7-19.68-15.72-5.48-4.45-13.04-10.96-21.27-18.39-2.37-2.16-4.76-4.26-6.72-6.54C3.22,8.17,1.8,5.73,1.14,3.62L0,0l3.2,1.71c3.32,1.77,5.56,4.16,7.4,6.2,1.82,2.07,3.28,3.88,4.5,5.36,2.43,2.97,3.72,4.65,3.72,4.65,0,0-.46-.38-1.31-1.11,5.63,5.14,10.69,9.91,14.73,13.87.48.41.98.83,1.47,1.25,2.21,1.51,5.12,3.21,8.83,4.69,4.86,1.95,10.91,3.97,17.7,4.66,3.4.34,6.94.26,10.58-.41,3.65-.65,7.4-1.8,11.33-2.99,7.9-2.47,15.84-3.91,23.02-4.3,7.21-.47,13.7.01,19.07.75,5.37.76,9.63,1.83,12.52,2.68,1.46.39,2.56.79,3.31,1.03.75.25,1.15.38,1.15.38,0,0-.41-.08-1.19-.22-.78-.13-1.92-.39-3.41-.6-2.96-.49-7.26-1.08-12.58-1.35-10.63-.57-25.38.36-40.79,5.33-3.91,1.18-7.83,2.37-11.81,3.02-3.98.68-7.97.68-11.62.22-5.97-.78-11.13-2.51-15.52-4.4,3.32,2.53,6.84,5.09,10.62,7.67,6.05,4.18,12.73,8.33,19.95,12.48,7.28,4.06,15.12,8.06,23.57,11.81,16.89,7.51,36.3,13.45,57.51,18.67,10.64,2.67,21.74,5.19,33.16,7.99,6.63.45,13.74.23,21.1-1.45,7.84-1.72,15.49-3.94,22.66-4.83,7.14-.98,13.63-1.12,19.04-.87,5.42.23,9.75.85,12.73,1.35,1.49.25,2.63.48,3.41.64.78.16,1.18.25,1.18.25,0,0-.42-.03-1.21-.08-.79-.06-1.95-.14-3.45-.21-3-.14-7.33-.27-12.66-.01-5.32.23-11.64.86-18.52,2.16-6.89,1.21-14.22,3.6-22.38,5.39-2.62.57-5.26.99-7.87,1.26,6.83,1.82,13.74,3.78,20.72,6.02,11.88,3.74,23.71,8.6,35.59,13.56,5.95,2.47,11.95,4.92,18.05,7.2,6.07,2.36,12.41,4.06,18.72,6.05,3.14,1.07,6.41,1.71,9.65,2.49,3.25.76,6.52,1.53,9.8,2.29,3.32.56,6.66,1.13,10.01,1.69,3.35.57,6.7,1.19,10.12,1.49,3.41.38,6.82.76,10.25,1.14,1.71.22,3.44.35,5.17.43l5.2.31c3.47.17,6.95.5,10.46.55,3.5.05,7.02.11,10.55.16,3.52.11,7.04.02,10.55-.08,3.14-.07,6.28-.15,9.4-.22-.56-.24-.83-.44-.8-.51.08-.32,2.27.3,6.21.09,3.94-.15,9.51-1.57,16.13-4.31,6.66-2.68,14.47-6.19,22.79-10.73,8.34-4.5,17.06-10.27,26.43-16.18,4.69-2.95,9.35-5.73,14-8.21,4.65-2.47,9.27-4.6,13.74-6.43,8.95-3.65,17.28-6.1,24.3-7.94,7.03-1.82,12.79-2.98,16.76-3.76,3.98-.77,6.19-1.14,6.19-1.14,0,0-2.15.62-6.05,1.73-3.89,1.13-9.51,2.76-16.36,5.03-6.84,2.28-14.92,5.17-23.56,9.08-8.67,3.85-17.67,9.01-26.97,14.91-9.3,5.86-18.2,11.62-26.81,16.05-8.57,4.45-16.63,7.76-23.51,10.15-1.09.39-2.16.74-3.21,1.06.85-.06,1.72-.1,2.57-.17,6.87-.58,13.69-1.07,20.45-1.83,3.38-.35,6.75-.7,10.1-1.05,3.35-.4,6.68-.8,10.01-1.19,26.57-3.19,52.16-6.98,76.67-9.95,8.41-1.05,16.69-1.95,24.82-2.75,2.49-.88,7.71-2.31,14.82-4.22,10.23-2.76,24.32-6.62,39.76-11.35,15.43-4.74,29.36-9.18,39.43-12.51,10.07-3.34,16.32-5.41,16.32-5.41,0,0-1.48.72-4.16,2.01-2.68,1.29-6.59,3.09-11.47,5.21-9.75,4.24-23.45,9.63-38.98,14.4-15.53,4.75-29.83,8.23-40.27,10.31-.45.09-.88.17-1.32.26,10.58-.91,20.9-1.65,30.88-2.25,21.9-1.26,42.32-2.36,61.05-2.23,18.71.26,35.68,1.68,50.24,4.88,14.58,3.08,26.68,7.69,35.9,12.65,4.7,2.33,8.46,5.1,11.85,7.26,3.14,2.51,5.87,4.56,7.91,6.4Z"></path> <g> <path class="cls-11" d="m342.01,227.96c1.2,2.93,2.15,5.93,2.86,9-.72-.11-1.43-.23-2.12-.41-.06-.15-.11-.29-.17-.44-9.65-23.61-30.7-42.47-40.05-65.35-1.17-2.87-2.13-5.77-2.84-8.71.47-.33.93-.68,1.38-1.07.62,2.8,1.47,5.8,2.62,8.61,12.24,29.97,29.77,37.41,38.33,58.36Z"></path> <path class="cls-4" d="m317.42,193.74c9.37,12.44,18.94,20.39,24.59,34.23.51,1.25.97,2.52,1.39,3.8,4.23,2.21,8.09,4.55,23.25-1.64,10.33-4.22,16.39-10.63,19.88-17.07,2.36-6.29,2.8-13.76-.59-22.06-.13-.31-.26-.61-.39-.91-15.6-12.04-40.38-18.41-57.57-11.39-8.33,3.4-11.03,8.62-10.57,15.04Zm9.92,4.47c-2.08-5.09.29-13.89,6.76-16.53,9.5-3.88,45.82.92,51.36,14.46,6.89,16.87-22.48,33-24.55,33.84-1.03.42-2.1.72-3.2.86-12.06,1.47-29.75-31.13-30.37-32.63Z"></path> <path class="cls-22" d="m321.43,170.33c-6.53,2.67-9.59,9.49-9.33,15.71-2.05-3.26-4.06-6.85-5.96-10.88.56-3.21,2.76-5.85,7.52-7.8l29.23,2.56c3.84.42,17.22,2.37,29.64,6.11,3.1,1.67,5.85,3.74,8.19,6.39-20.55-9.86-52.65-14.8-59.28-12.1Z"></path> <path class="cls-14" d="m366.65,230.13c10.33-4.22,16.39-10.63,19.88-17.07-3.91,10.4-13.09,17.58-18.99,19.99-7.01,2.86-15.38,5.01-22.68,3.92-.41-1.76-.9-3.49-1.47-5.2,4.23,2.21,8.09,4.55,23.25-1.64Z"></path> <path class="cls-5" d="m313.65,167.36c-4.75,1.94-6.96,4.59-7.52,7.8-.84-1.77-1.65-3.61-2.45-5.56-1.15-2.81-1.99-5.81-2.62-8.61.42-.35.82-.73,1.22-1.13,26.56,10.12,53.47,7.15,70.23,16.17-12.41-3.74-25.8-5.69-29.64-6.11l-29.23-2.56Z"></path> <path class="cls-20" d="m321.43,170.33c6.63-2.71,38.72,2.23,59.28,12.1,1.9,2.15,3.53,4.68,4.84,7.66-15.6-12.04-40.38-18.41-57.57-11.39-8.33,3.4-11.03,8.62-10.57,15.04-1.79-2.38-3.57-4.92-5.32-7.7-.26-6.22,2.8-13.04,9.33-15.71Z"></path> <path class="cls-10" d="m327.34,198.2c.61,1.5,18.31,34.11,30.37,32.63,1.09-.13,2.16-.44,3.2-.86,2.07-.85,31.45-16.97,24.55-33.84-5.53-13.55-41.85-18.34-51.36-14.46-6.47,2.64-8.84,11.44-6.76,16.53Zm17.39,15.31c-4.11-10.05,1.04-21.03,9.05-24.3,6.74-2.75,27.19-.09,29.79,6.27,6.34,15.53-23.77,30.65-24.82,31.09-.56.23-1.14.42-1.75.55-.58.12-1.32-.27-1.8-.47-.07.04-.14.08-.21.1-.56.23-7.11-5.56-10.25-13.23Z"></path> <path class="cls-17" d="m353.78,189.21c6.74-2.75,27.19-.09,29.79,6.27,6.34,15.53-23.77,30.65-24.82,31.09-.56.23-1.14.42-1.75.55-.58.12-1.32-.27-1.8-.47-.07.04-.14.08-.21.1-.56.23-7.11-5.56-10.25-13.23-4.11-10.05,1.04-21.03,9.05-24.3Z"></path> <path class="cls-18" d="m340,230.42c.93,1.87,1.8,3.76,2.58,5.69.06.15.11.29.17.44-.46-.11-.92-.24-1.37-.39-3.33,2.13-6.56,4.5-10.37,6.05-8.43,3.44-29.11,6.08-45.54.11,14.73,1.84,35.4.45,43.64-2.91,2.84-1.16,8.48-6.41,10.88-8.99Z"></path> <path class="cls-9" d="m294.21,176.5c-1.33.54-2.49,1.35-3.87,1.91-11.06,4.52-22.97,25.51-23.93,48.19-.41-.8-.8-1.63-1.15-2.48-.34-.83-.63-1.67-.9-2.52,4-20.55,13.57-45.7,29.91-52.37,2.55-1.04,5.07-1.14,7.42-.61.26.72.54,1.43.83,2.14,1.03,2.52,2.2,4.98,3.48,7.41-3.96-2.21-8.07-3.21-11.8-1.68Z"></path> <path class="cls-7" d="m264.37,221.6c-5.04-16,3.35-33.2,15.86-46.77.4-.13.79-.26,1.16-.41,3.25-1.33,5.99-3.59,7.37-6.51.28-.59.52-1.19.68-1.83.09-.34.15-.69.2-1.05.4-.02.79-.04,1.18-.08,2.18-.18,4.22-.61,6.06-1.36.97-.4,1.92-.92,2.82-1.54.53,2.21,1.21,4.4,2.01,6.57-2.35-.53-4.87-.43-7.42.61-16.34,6.67-25.91,31.82-29.91,52.37Z"></path> <path class="cls-15" d="m340,230.42c-6.8-13.71-17-25.97-25.67-38.67-9.5-4.08-22.09-4.22-29.87-1.04-14.07,5.75-17.38,26.57-13.83,42,3.98,4.45,9.16,7.54,14.84,9.61,14.73,1.84,35.4.45,43.64-2.91,2.84-1.16,8.48-6.41,10.88-8.99Zm-9.04-14.01c3.08,7.53,2.71,13.52,1.32,16.46-.59,1.24-1.83,2.29-3.01,2.85-.96.45-1.92.9-2.92,1.3-3.08,1.26-40.41,10.95-48.08-7.83-2.73-6.69-2.63-25.77,17.96-34.19l.36-.15c14.33-5.85,31.66,14.92,34.37,21.55Z"></path> <path class="cls-18" d="m284.46,190.71c-14.07,5.75-17.38,26.57-13.83,42-1.62-1.81-3.04-3.84-4.22-6.12.96-22.69,12.86-43.67,23.93-48.19,1.39-.57,2.54-1.37,3.87-1.91,3.74-1.53,7.84-.53,11.8,1.68,2.44,4.63,5.28,9.13,8.31,13.58-9.5-4.08-22.09-4.22-29.87-1.04Z"></path> <path class="cls-19" d="m330.96,216.41c-2.71-6.63-20.04-27.41-34.37-21.55l-.36.15c-20.6,8.41-20.7,27.49-17.96,34.19,7.67,18.78,45,9.09,48.08,7.83.99-.41,1.96-.85,2.92-1.3,1.18-.56,2.42-1.61,3.01-2.85,1.39-2.94,1.76-8.93-1.32-16.46Zm-7.65-.96c1.98,4.85,1.77,9.75.23,14.73-.5,1.6-1.29,3.08-2.28,4.64-11.27,3.21-35.83,2.73-40.37-8.4-3.9-9.54,6.98-19.36,14.37-22.38,8.98-3.67,24.64,3.07,28.05,11.41Z"></path> <path class="cls-8" d="m321.26,234.82c-11.27,3.21-35.83,2.73-40.37-8.4-3.9-9.54,6.98-19.36,14.37-22.38,8.98-3.67,24.64,3.07,28.05,11.41,1.98,4.85,1.77,9.75.23,14.73-.5,1.6-1.29,3.08-2.28,4.64Z"></path> </g> <g> <path class="cls-11" d="m730.72,58.27c-.13-.54-.29-1.07-.44-1.59-18.74,23.9-68.73,28.53-96.53,51.32.25.14.5.27.75.41,24.76-14.51,67.81-22.74,96.22-50.14Z"></path> <path class="cls-3" d="m645.92,72.65c4.24-11.34,16.91-25.15,27.68-34.94-1.4.65-2.77,1.36-4.14,2.12-12,13.78-22.07,20.57-27,33.77-3.56,9.54-.28,23.06,3.09,24.32.76.29,1.56.54,2.35.74,3.85-2.09,7.89-4.02,12.03-5.83-1.63-.09-3.21-.39-4.51-.87-7.8-2.91-12.7-10.78-9.51-19.31Z"></path> <path class="cls-16" d="m642.47,73.6c4.93-13.2,15-19.99,27-33.77-10.18,5.74-19.35,14.83-26.21,27.12-2.11,3.78-4.01,7.84-5.64,12.21-3.4,9.1-5.28,18.71-5.4,28,.49.27,1,.56,1.53.84,4.26-3.49,9.05-6.56,14.17-9.34-.79-.2-1.59-.45-2.35-.74-3.37-1.26-6.65-14.79-3.09-24.32Z"></path> <path class="cls-6" d="m653.34,64.7c4.79-12.84,20.88-24.99,36.64-31.71-5.57.68-11.08,2.27-16.37,4.72-10.77,9.79-23.45,23.6-27.68,34.94-3.19,8.53,1.72,16.4,9.51,19.31,1.3.49,2.88.79,4.51.87,3.14-1.38,6.33-2.69,9.55-3.97-3.71-.81-6.91-1.8-8.45-2.38-9.11-3.4-11.04-12.87-7.71-21.79Z"></path> <path class="cls-24" d="m714.21,35.85c-3.59-1.34-7.26-2.25-10.97-2.76,1.93.64,3.96,1.35,6.11,2.16,12.47,4.66,15.18,17.15,12.81,23.5-.68,1.83-4.45,7.11-8.28,11.34,6.61-3.8,12.27-8.14,16.41-13.41-2.89-9.96-8.97-18.18-16.07-20.83Z"></path> <path class="cls-21" d="m709.35,35.25c-2.16-.81-4.19-1.52-6.11-2.16-4.4-.6-8.84-.64-13.26-.1-15.76,6.72-31.85,18.87-36.64,31.71-3.33,8.92-1.4,18.38,7.71,21.79,1.54.57,4.73,1.57,8.45,2.38,15.58-6.18,31.72-11.49,44.38-18.78,3.83-4.23,7.6-9.51,8.28-11.34,2.37-6.35-.34-18.84-12.81-23.5Zm-37.36,47.08c-2.77.89-5.72.7-8.68.13-.41-.08-.8-.19-1.16-.32-3.37-1.26-8.44-8.57-5.89-15.39,3.92-10.49,25.22-37.99,51.86-28.04,9.79,3.66,9.96,12.47,6.3,22.26-4.41,11.8-30.46,17.52-42.43,21.38Z"></path> <path class="cls-12" d="m708.12,38.69c-26.63-9.95-47.94,17.55-51.86,28.04-2.55,6.82,2.53,14.14,5.89,15.39.37.14.75.24,1.16.32,2.96.58,5.91.77,8.68-.13,11.97-3.85,38.02-9.57,42.43-21.38,3.66-9.79,3.48-18.6-6.3-22.26Zm-30.54,27.49c-4.23-1.58-8.16-4.84-6.47-9.36,2.41-6.46,18.49-19.7,31.7-14.77.18.07.37.14.55.22.13.06.27.11.41.16.78.29,1.61.49,2.39.78,3.59,1.34,7.55,7.69,5.99,11.86-4.67,12.52-22.26,15.71-34.57,11.11Z"></path> <path class="cls-24" d="m706.16,43.21c-.78-.29-1.61-.49-2.39-.78-.14-.05-.27-.11-.41-.16-.18-.08-.37-.15-.55-.22-13.21-4.93-29.29,8.31-31.7,14.77-1.69,4.52,2.24,7.78,6.47,9.36,12.31,4.6,29.9,1.41,34.57-11.11,1.56-4.17-2.4-10.52-5.99-11.86Z"></path> <path class="cls-18" d="m723.8,94.52c2.39-3.76,4.37-7.8,5.95-12.01,2.93-7.84,2.92-16.49.98-24.24-2.16,2.09-4.42,4.05-6.74,5.92.63.03,1.26.16,1.73.33,7.64,2.85,1.31,21.27-1.91,29.99Z"></path> <path class="cls-15" d="m682.78,106.98c8.39,3.13,21.99,2.49,33.75-3.19,2.74-2.83,5.16-5.94,7.27-9.27,3.23-8.71,9.55-27.13,1.91-29.99-.47-.18-1.09-.31-1.73-.33-14.75,11.93-32.34,19.83-49.04,26.56-2.69,7.73-2.7,12.28,7.84,16.22Zm23.96-26.41c4.92-2.32,9.25-5.6,14.18-7.54,1.09,1.04,2.52,1.76,3,3.23.5,1.52.73,2.54-1.88,9.53-5.59,14.95-19.17,24.62-32.04,19.82-2.4-.9-10.83-5.07-9.07-9.77,2.34-6.27,23.41-14.13,25.81-15.26Z"></path> <path class="cls-9" d="m708.31,110.73c-16.91,4.21-34.49,5.33-41.07,2.88-5.17-1.93-6.5-5.67-4.94-9.85.37-.99.7-1.99,1.07-3,.73-1.96,2.07-4.56,3.69-6.86-5.75,2.27-11.32,4.46-16.53,6.68-.39.73-.75,1.52-1.07,2.37-2.05,5.5,8.22,9.66,16.36,12.7,6.38,2.38,18.99,2.6,32.32.47,3.66-1.44,7.05-3.25,10.16-5.38Z"></path> <path class="cls-18" d="m662.3,103.75c-1.56,4.18-.23,7.92,4.94,9.85,6.58,2.46,24.16,1.33,41.07-2.88,3-2.04,5.73-4.38,8.21-6.95-11.76,5.69-25.36,6.33-33.75,3.19-10.53-3.93-10.53-8.49-7.84-16.22-2.65,1.07-5.27,2.11-7.86,3.13-1.63,2.3-2.96,4.91-3.69,6.86-.38,1.01-.71,2.01-1.07,3Z"></path> <path class="cls-7" d="m649.48,102.94c.32-.85.68-1.64,1.07-2.37-5.86,2.5-11.29,5.05-16.04,7.84,3.54,1.9,7.75,3.97,11.88,5.52,20.92,7.81,38.22,7.53,51.78,2.18-13.32,2.14-25.94,1.92-32.32-.47-8.14-3.04-18.41-7.2-16.36-12.7Z"></path> <path class="cls-19" d="m690,105.6c12.87,4.81,26.46-4.86,32.04-19.82,2.61-6.99,2.38-8,1.88-9.53-.48-1.46-1.92-2.19-3-3.23-4.94,1.94-9.26,5.22-14.18,7.54-2.41,1.14-23.47,8.99-25.81,15.26-1.76,4.7,6.67,8.87,9.07,9.77Zm23.23-23.24c.28.95.63,1.71.9,2.65.44,1.5-.27,4.36-.77,5.71-2.86,7.64-14.9,13.29-20.65,11.14-4.41-1.65-4.75-3.86-4-5.88,2.98-7.97,18.74-12.68,24.51-13.62Z"></path> <path class="cls-8" d="m692.71,101.87c5.75,2.15,17.79-3.5,20.65-11.14.51-1.36,1.21-4.21.77-5.71-.28-.95-.63-1.71-.9-2.65-5.77.94-21.53,5.65-24.51,13.62-.76,2.02-.42,4.24,4,5.88Z"></path> </g> <g> <path class="cls-11" d="m720.18,226.08c-.3.37-.62.72-.93,1.08-5.74-25.47-42.84-47.5-56.03-75.46.24-.01.49-.03.73-.04,13.87,20.4,44.27,42.66,56.22,74.42Z"></path> <path class="cls-3" d="m659.64,183.64c-.89,10.37,3.86,25.76,8.61,37.34-.85-1.02-1.65-2.08-2.43-3.18-4.23-15.13-9.55-24.11-8.51-36.18.75-8.72,8.29-18.01,11.37-17.75.7.06,1.41.16,2.1.3,2.22,3.04,4.64,6.03,7.19,8.97-1.3-.53-2.64-.88-3.82-.99-7.13-.61-13.84,3.69-14.51,11.48Z"></path> <path class="cls-16" d="m657.31,181.63c-1.04,12.07,4.27,21.05,8.51,36.18-5.79-8.21-9.56-18.65-10.35-30.72-.24-3.71-.22-7.56.13-11.56.72-8.32,2.8-16.47,6.13-23.73.48-.03.98-.06,1.5-.09,2.02,4.29,4.61,8.43,7.56,12.47-.69-.14-1.4-.23-2.1-.3-3.08-.27-10.62,9.03-11.37,17.75Z"></path> <path class="cls-6" d="m662.46,192.55c-1.01,11.74,6.99,27.11,16.75,38.14-4.07-2.58-7.77-5.85-10.97-9.7-4.75-11.58-9.5-26.97-8.61-37.34.67-7.8,7.38-12.1,14.51-11.48,1.19.1,2.53.45,3.82.99,1.93,2.22,3.92,4.42,5.95,6.6-3.18-.74-6.03-1.15-7.43-1.27-8.33-.72-13.32,5.92-14.02,14.07Z"></path> <path class="cls-24" d="m699.09,237.41c-3.28-.28-6.47-.93-9.53-1.91,1.73.21,3.57.41,5.54.58,11.4.98,18.11-7.72,18.61-13.52.14-1.67-.83-7.16-2.25-11.86,3.73,5.39,6.53,10.84,7.79,16.47-5.91,6.67-13.67,10.81-20.16,10.25Z"></path> <path class="cls-21" d="m713.71,222.55c.14-1.67-.83-7.16-2.25-11.86-7.15-10.32-17.72-20.41-27.54-30.95-3.18-.74-6.03-1.15-7.43-1.27-8.33-.72-13.32,5.92-14.02,14.07-1.01,11.74,6.99,27.11,16.75,38.14,3.23,2.05,6.7,3.66,10.34,4.81,1.73.21,3.57.41,5.54.58,11.4.98,18.11-7.72,18.61-13.52Zm-5.2-4.56c-.77,8.95-4.16,15.73-13.11,14.96-24.35-2.1-30.75-31.31-29.92-40.9.54-6.24,7.18-10.04,10.25-9.78.33.03.67.09,1.02.18,2.51.64,4.87,1.58,6.69,3.3,7.87,7.41,25.99,21.46,25.06,32.25Z"></path> <path class="cls-12" d="m708.51,217.99c.93-10.79-17.19-24.84-25.06-32.25-1.82-1.71-4.18-2.65-6.69-3.3-.35-.09-.69-.15-1.02-.18-3.08-.27-9.72,3.54-10.25,9.78-.83,9.59,5.57,38.8,29.92,40.9,8.95.77,12.33-6.01,13.11-14.96Zm-3.93,3.73c-.33,3.81-5.74,7.28-9.03,7-.72-.06-1.43-.22-2.14-.28-.12-.01-.25-.02-.38-.02-.17,0-.34-.02-.51-.03-12.08-1.04-19.68-17.25-19.17-23.16.36-4.13,4.61-5.21,8.47-4.88,11.26.97,23.74,9.93,22.75,21.38Z"></path> <path class="cls-24" d="m695.56,228.72c-.72-.06-1.43-.22-2.14-.28-.12-.01-.25-.02-.38-.02-.17,0-.34-.02-.51-.03-12.08-1.04-19.68-17.25-19.17-23.16.36-4.13,4.61-5.21,8.47-4.88,11.26.97,23.74,9.93,22.75,21.38-.33,3.81-5.74,7.28-9.03,7Z"></path> <path class="cls-18" d="m728.17,195.39c.46,3.8.52,7.67.19,11.52-.62,7.17-3.81,13.88-8.18,19.18-.91-2.42-1.94-4.77-3.05-7.09.5.21,1.03.34,1.46.38,6.98.6,8.87-16.03,9.57-23.99Z"></path> <path class="cls-15" d="m688.85,180.28c10.48,11.39,21.23,24.01,28.28,38.72.5.21,1.03.34,1.46.38,6.98.6,8.87-16.03,9.57-23.99-.41-3.36-1.14-6.67-2.23-9.88-7.03-8.75-17.36-14.27-25.03-14.93-9.63-.83-11.31,2.71-12.07,9.7Zm6.52-1.73c.37-4.3,8.46-4.43,10.65-4.24,11.76,1.01,18.75,13.53,17.57,27.21-.55,6.39-1.1,7.09-2.05,8.09-.91.96-2.3.99-3.52,1.4-3.11-3.33-5.27-7.47-8.23-11.09-1.45-1.77-14.91-15.64-14.41-21.37Z"></path> <path class="cls-9" d="m722.13,177.09c-11.58-9.51-24.82-16.86-30.83-17.38-4.73-.41-7.14,2.01-7.47,5.83-.08.9-.19,1.8-.27,2.72-.15,1.79-.08,4.3.34,6.69-3.63-3.88-7.14-7.63-10.37-11.29-.03-.71-.02-1.45.05-2.23.43-5.03,9.95-4.47,17.39-3.83,5.83.5,15.71,4.99,25.26,11.56,2.31,2.47,4.27,5.13,5.91,7.92Z"></path> <path class="cls-18" d="m683.83,165.54c.33-3.82,2.74-6.24,7.47-5.83,6.01.52,19.25,7.88,30.83,17.38,1.57,2.69,2.83,5.51,3.82,8.42-7.03-8.75-17.36-14.27-25.03-14.93-9.63-.83-11.31,2.71-12.07,9.7-1.66-1.81-3.32-3.58-4.95-5.33-.41-2.39-.49-4.9-.34-6.69.08-.92.19-1.82.27-2.72Z"></path> <path class="cls-7" d="m673.57,161.43c-.07.78-.08,1.52-.05,2.23-3.63-4.1-6.9-8.09-9.56-12,3.45-.17,7.48-.23,11.26.1,19.12,1.65,32.45,8.25,41.01,17.4-9.56-6.57-19.43-11.06-25.26-11.56-7.44-.64-16.95-1.2-17.39,3.83Z"></path> <path class="cls-19" d="m695.37,178.55c-.49,5.73,12.97,19.6,14.41,21.37,2.96,3.62,5.11,7.76,8.23,11.09,1.23-.4,2.61-.44,3.52-1.4.95-1,1.5-1.7,2.05-8.09,1.18-13.67-5.81-26.19-17.57-27.21-2.19-.19-10.28-.06-10.65,4.24Zm6.1,2.75c.16-1.85,1.24-3.44,5.27-3.09,5.25.45,12.53,9.28,11.92,16.27-.11,1.24-.61,3.72-1.51,4.72-.56.63-1.12,1.09-1.68,1.73-4.13-2.86-14.64-12.33-14.01-19.62Z"></path> <path class="cls-8" d="m706.75,178.21c5.25.45,12.53,9.28,11.92,16.27-.11,1.24-.61,3.72-1.51,4.72-.56.63-1.12,1.09-1.68,1.73-4.13-2.86-14.64-12.33-14.01-19.62.16-1.85,1.24-3.44,5.27-3.09Z"></path> </g> <g> <path class="cls-11" d="m493.14,100.37c.01-.09.02-.18.04-.27-.31-.11-.62-.24-.91-.39-.55-.27-1.05-.61-1.52-.98,42.55-7.92,53.21-48.81,75.07-75.77.16.29.32.57.47.87,1.79.25,3.57.92,5.27,1.9-33.28,26.35-37.05,67.32-78.42,74.64Z"></path> <path class="cls-15" d="m516.56,90.54c-.08.81-.07,1.61.06,2.36,1.13,6.47,14.35,10.72,25.28,8.83,7.38-1.28,17.01-5.87,26.47-12.51,1.52-2.39,2.93-4.81,4.24-7.24,4.45-12.11,10.26-22.05,8.59-31.65-1.4-8.06-5.89-18.57-13.29-21.55-11.95,10.51-19.93,22.9-27.73,34.44m36.54-10.9c2.58,14.82-14.81,41.56-28.09,43.87-9.28,1.61-26.3-.83-26.79-3.62-.04-.24-.01-.49.04-.72,1.15-4.6,6.6-6.14,9.65-9.48,9.88-10.83,28.6-42.78,34.68-43.83,2.4-.42,8.87,4.38,10.51,13.79Z"></path> <path class="cls-9" d="m523.36,114.65c8.65-1.5,23.04-8.97,38.22-15.93-6.56,8.18-14.42,15.34-23.36,20.03-2.49.72-5.01,1.33-7.58,1.78-14.54,2.53-28.32.19-30.84-14.35-.43-2.48-.35-5.04.28-7.45,3.96-1.19,7.55-2.72,10.83-4.55-1.56,3.94-2.45,7.96-1.78,11.82,1.32,7.61,7.1,9.89,14.25,8.65Z"></path> <path class="cls-1" d="m530.64,120.53c2.57-.45,5.09-1.05,7.58-1.78-4.64,2.44-9.58,4.22-14.78,5.12-9.45,1.64-18.61-1.74-24.4-7-1.46-1.33-2.71-2.77-3.69-4.29-.59-.91-1.08-1.84-1.47-2.79-.39-.94-.67-1.9-.84-2.86-.31-1.81-.3-3.75-.03-5.76.04-.27.08-.54.12-.81,2.44-.43,4.74-.98,6.93-1.64-.62,2.41-.71,4.97-.28,7.45,2.53,14.54,16.3,16.87,30.84,14.35Z"></path> <path class="cls-18" d="m541.9,101.73c7.38-1.28,17.01-5.87,26.47-12.51-2.08,3.26-4.34,6.46-6.79,9.51-15.18,6.96-29.57,14.43-38.22,15.93-7.14,1.24-12.92-1.04-14.25-8.65-.67-3.86.22-7.88,1.78-11.82,1.99-1.11,3.87-2.33,5.66-3.64-.08.81-.07,1.61.06,2.36,1.13,6.47,14.35,10.72,25.28,8.83Z"></path> <path class="cls-8" d="m567.92,28.77c1.18-1.03,2.39-2.05,3.64-3.05,5.83,3.35,10.75,10.38,11.87,16.79,1.46,8.4-2.52,24.05-10.81,39.45,4.45-12.11,10.26-22.05,8.59-31.65-1.4-8.06-5.89-18.57-13.29-21.55Z"></path> <path class="cls-19" d="m576.73,52.31c-1.64-9.41-8.1-14.21-10.51-13.79-6.08,1.06-24.79,33-34.68,43.83-3.05,3.35-8.5,4.88-9.65,9.48-.06.23-.09.48-.04.72.49,2.8,17.51,5.23,26.79,3.62,13.28-2.31,30.67-29.06,28.09-43.87Zm-20.14,35.53c-1.52.26-9.11-.33-16.4-3.75-.87-.41-1.53-1.08-2.15-1.51,9.69-10.44,12.6-33.27,26.27-35.65,5.5-.96,9.46.98,10.43,6.59,2.03,11.69-8.67,32.67-18.15,34.32Z"></path> <path class="cls-8" d="m540.19,84.09c-.87-.41-1.53-1.08-2.15-1.51,9.69-10.44,12.6-33.27,26.27-35.65,5.5-.96,9.46.98,10.43,6.59,2.03,11.69-8.67,32.67-18.15,34.32-1.52.26-9.11-.33-16.4-3.75Z"></path> <path class="cls-6" d="m544.74,17.24c-7.2,1.25-14.05,5.45-20.84,9.05,7.49-6.45,15.12-11.02,21.89-12.2,1.7-.3,3.42-.46,5.25-.78,2.85-.5,10.57,1.91,14.79,9.66-2.64,3.26-5.12,6.72-7.51,10.3,1.42-3.65,2.56-7.38,2.05-10.35-1.08-6.21-9.84-6.67-15.62-5.67Z"></path> <path class="cls-21" d="m524.05,75.86c3.18-.55,5.82-1.57,8.07-2.81,10-12.22,17.52-26.8,26.19-39.79,1.42-3.65,2.56-7.38,2.05-10.35-1.08-6.21-9.84-6.67-15.62-5.67-7.2,1.25-14.05,5.45-20.84,9.05-3.81,3.28-7.59,7.05-11.19,11.11-3.67,11.78-5.17,22.54-4.18,28.26,1.61,9.25,7.08,11.68,15.52,10.21Zm.08-4.49c-5.85,1.02-9.55-3.98-10.48-9.33-.32-1.85-.33-3.78-.07-5.62,2.4-16.7,16.52-31.16,32.66-33.97,2.95-.51,8.11-1.13,8.69,2.18,2.82,16.24-23.82,45.52-30.8,46.73Z"></path> <path class="cls-6" d="m502.61,77.03c-2.43-13.98,1.97-24.84,6.54-35.47,1.16-1.41,2.35-2.8,3.55-4.16-3.67,11.78-5.17,22.54-4.18,28.26,1.61,9.25,7.08,11.68,15.52,10.21,3.18-.55,5.82-1.57,8.07-2.81-1.91,2.33-3.9,4.57-6.01,6.7-2.44,1.22-5.04,2.12-7.69,2.58-5.3.92-14.91-.17-15.8-5.32Z"></path> <path class="cls-3" d="m492.42,88.27c-1.19-6.85,3.61-21.66,8.95-36.35,2.42-3.53,5.04-7.01,7.79-10.36-4.57,10.63-8.97,21.49-6.54,35.47.89,5.14,10.5,6.24,15.8,5.32,2.65-.46,5.25-1.36,7.69-2.58-3.19,3.22-6.65,6.19-10.46,8.8-3.6,1.73-7.28,3.18-11.08,3.84-5.3.92-11.26.97-12.15-4.13Z"></path> <path class="cls-16" d="m486.32,90.77c-.06-.36-.11-.74-.15-1.13-.86-9.06,5.59-23.71,15.2-37.73-5.34,14.69-10.14,29.5-8.95,36.35.89,5.1,6.85,5.05,12.15,4.13,3.79-.66,7.48-2.11,11.08-3.84-6.95,4.77-15.07,8.35-24.9,10.18-2.37-1.83-3.87-4.75-4.43-7.96Z"></path> <path class="cls-12" d="m524.13,71.37c6.98-1.21,33.62-30.49,30.8-46.73-.58-3.31-5.74-2.7-8.69-2.18-16.14,2.81-30.25,17.27-32.66,33.97-.26,1.84-.26,3.77.07,5.62.93,5.35,4.63,10.35,10.48,9.33Zm.93-12.62c-4.81.84-6.81-1.46-7.11-3.14-.03-.17-.04-.34-.02-.48,1.69-11.73,9.18-24.8,21.73-26.98,2.68-.47,6.31-1.69,7.48,5.08,1.51,8.67-8.14,23.1-22.09,25.52Z"></path> <path class="cls-24" d="m517.95,55.61c-.03-.17-.04-.34-.02-.48,1.69-11.73,9.18-24.8,21.73-26.98,2.68-.47,6.31-1.69,7.48,5.08,1.51,8.67-8.14,23.1-22.09,25.52-4.81.84-6.81-1.46-7.11-3.14Z"></path> </g> <g> <path class="cls-11" d="m774.79,144.81c9.23,4.88,22.31,2.62,32.68-.76.08-.59.15-1.18.21-1.77-25.9,13.42-43.79-9.94-69.43-11.78-.72.68-1.43,1.36-2.1,2.06-.05.51-.05,1.01,0,1.49,13.7-.95,32.39,7.09,33.01,7.42,1.93,1.02,3.7,2.33,5.64,3.35Z"></path> <path class="cls-7" d="m748.84,125.93c2.67-5.05,16.25-10.2,27.4-13.76-13.97,1.33-28.16,9.11-37.99,18.31,3.69.27,7.22.98,10.64,1.96-1.3-2.11-.97-4.77-.05-6.52Z"></path> <path class="cls-9" d="m759.85,123.9c3.93-7.43,17.03-9.14,26.23-11.51-3.23-.48-6.52-.53-9.84-.21-11.14,3.55-24.72,8.7-27.4,13.76-.93,1.75-1.25,4.41.05,6.52,4.36,1.25,8.53,2.95,12.61,4.73-2.85-3.84-3.89-9.06-1.66-13.28Z"></path> <path class="cls-8" d="m801.21,118.92c5.33,7.76,6.9,16.46,4.68,20.67-.95,1.8-2.34,3.48-3.71,5.03,1.8-.61,3.63-1.38,5.5-2.35.84-8.28-.2-17.46-6.47-23.35Z"></path> <path class="cls-15" d="m801.21,118.92c-1.21-1.14-2.62-2.16-4.25-3.02-1.82-.96-3.69-1.73-5.6-2.33-10.28.3-20.21,2.85-24.78,11.48-3.18,6-1.54,11.39,1.65,15.08,10.91,4.77,21.57,8.66,33.94,4.48,1.37-1.55,2.76-3.23,3.71-5.03,2.22-4.2.65-12.9-4.68-20.67Zm-23.73,21.47c-6.52-3.45-9.58-7.47-4.91-16.28,2.68-5.07,15.37-9.24,22.56-5.43,2.35,1.24,4.33,3.31,5.66,6.42,1.72,4.02,4.71,9.42,2.79,13.05-2.33,4.41-14.65,8.31-26.1,2.25Z"></path> <path class="cls-18" d="m766.58,125.07c4.57-8.64,14.5-11.18,24.78-11.48-1.73-.54-3.5-.93-5.29-1.2-9.2,2.37-22.3,4.08-26.23,11.51-2.23,4.22-1.19,9.44,1.66,13.28,2.27.99,4.51,2,6.73,2.97-3.2-3.7-4.83-9.08-1.65-15.08Z"></path> <path class="cls-19" d="m800.79,125.1c-1.33-3.11-3.31-5.18-5.66-6.42-7.19-3.81-19.88.37-22.56,5.43-4.66,8.82-1.61,12.83,4.91,16.28,11.45,6.06,23.76,2.17,26.1-2.25,1.92-3.63-1.07-9.03-2.79-13.05Zm1.78,13.33c-2.79,5.27-8.59,2.94-13.57.3-5.93-3.14-12.44-8.79-9.3-14.72,2.18-4.12,7.5-5.76,11.28-3.76.53.28,1.02.63,1.46,1.05,4.47,4.23,10.65,8.52,10.63,15.15,0,.71-.19,1.37-.5,1.97Z"></path> <path class="cls-8" d="m792.44,121.31c-.44-.42-.94-.77-1.46-1.05-3.78-2-9.1-.36-11.28,3.76-3.14,5.93,3.37,11.58,9.3,14.72,4.98,2.63,10.78,4.97,13.57-.3.32-.6.5-1.26.5-1.97.02-6.64-6.16-10.92-10.63-15.15Z"></path> <path class="cls-22" d="m796.38,167.19c2.7-1.7,4.96-4.01,6.54-7.01,1.15-2.17,3.54-8.65,4.55-16.15-1.06.35-2.16.68-3.27,1,.52,5.31-.83,10.73-3.44,15.67-1.15,2.16-2.63,4.37-4.38,6.48Z"></path> <path class="cls-4" d="m755.56,144.66c-3.41,6.44,3.75,17.02,12.64,21.73,5.65,2.99,13.26,4.83,20.9,3.76,2.64-.61,5.1-1.58,7.27-2.95,1.75-2.11,3.23-4.32,4.38-6.48,2.61-4.94,3.97-10.36,3.44-15.67-9.74,2.77-21.12,4.14-29.4-.24-1.93-1.02-3.71-2.33-5.64-3.35-.21-.11-2.46-1.09-5.88-2.31-3.25.82-6.26,2.77-7.71,5.51Zm9.98-.7c.33-.24.78-.38,1.15-.22,25.86,11.23,33.66,6.89,33.66,6.89,1.34.71,1.81,5.85.14,9.02-2.65,5-15.84,10.59-20.82,7.95-7.84-4.15-21.94-13.72-17.77-21.62.75-1.43,2.16-2.54,3.63-2.03Z"></path> <path class="cls-22" d="m748.47,140.57c1.12-2.13,2.94-3.5,5.06-4.42-2.56-.65-5.26-1.23-7.97-1.63-1.73.73-3.35,2-4.23,3.65-3.86,7.3,10.13,19.92,21.02,28.38,2.27,1.06,4.66,1.95,7.1,2.65-12.21-6.97-26.81-17.63-20.99-28.64Z"></path> <path class="cls-5" d="m741.33,138.18c.88-1.66,2.5-2.92,4.23-3.65-3.22-.47-6.43-.69-9.42-.49.14,1.37.64,2.67,1.18,4.1,4.91,12.94,13.8,22.54,23.09,27.46.63.34,1.29.65,1.94.96-10.89-8.46-24.88-21.09-21.02-28.38Z"></path> <path class="cls-20" d="m768.2,166.38c-8.89-4.71-16.05-15.29-12.64-21.73,1.45-2.74,4.46-4.7,7.71-5.51-2.67-.95-6.06-2.05-9.74-2.99-2.12.91-3.93,2.29-5.06,4.42-5.83,11.01,8.77,21.67,20.99,28.64,6.6,1.88,13.59,2.34,19.64.93-7.64,1.08-15.25-.76-20.9-3.76Z"></path> <path class="cls-10" d="m779.67,167.59c4.98,2.64,18.17-2.95,20.82-7.95,1.67-3.17,1.2-8.31-.14-9.02,0,0-7.8,4.33-33.66-6.89-.38-.16-.82-.02-1.15.22-1.48-.51-2.88.6-3.63,2.03-4.18,7.89,9.92,17.47,17.77,21.62Zm.86-15.5s.35.19.57.31c7.92,4.19,13.12.82,16.43,2.57,1.9,1.01,1.04,3.55.03,5.45-3.26,6.17-12.97,7.5-18.91,4.35-4.84-2.56-9.81-8.28-7.06-13.48,2.98-.25,6.39-.56,8.94.79Z"></path> <path class="cls-17" d="m778.65,164.78c5.95,3.15,15.65,1.82,18.91-4.35,1.01-1.9,1.87-4.45-.03-5.45-3.31-1.75-8.51,1.62-16.43-2.57-.23-.12-.53-.29-.57-.31-2.54-1.35-5.95-1.04-8.94-.79-2.75,5.2,2.22,10.92,7.06,13.48Z"></path> </g> <g> <path class="cls-11" d="m453.94,157.58c-.19.77-.39,1.55-.59,2.32,27.11,25.67,45.59,62.32,48.52,98.93.65-.06,1.31-.11,1.98-.15,1.07-38.27-32.19-87.39-49.92-101.1Z"></path> <path class="cls-7" d="m504.2,158.12c7.23,3.16,15.12,8.32,22.75,15.14-5.66-9.2-12.92-16.41-20.9-19.91-3.89-1.7-8-2.75-12.22-3.27-3.1-.38-6.26-.48-9.44-.34-4.34.19-8.71.84-13.03,1.79-5.95,1.31-11.8,3.21-17.26,5.43-.05.21-.11.42-.16.62,3.08,2.38,6.64,5.86,10.4,10.14.01-1.41.26-2.79.85-4.13,3.4-7.78,18.98-14.24,39.01-5.48Z"></path> <path class="cls-15" d="m535.91,235.47c1.16-3.45,1.99-7.02,2.49-10.67.36-2.67.56-5.37.6-8.1-7.81-19.22-21.02-35.56-37.97-42.97-11.71-5.12-19.91-.06-24.46,9.94,13.07,19.25,25.38,44.9,27.11,67.85.89.44,1.78.87,2.69,1.27,6.99,3.06,16.72,7.47,29.54-17.32Zm-34.38-19.75c-4.29-17.4-17.65-30.63-15.3-35.98.71-1.62,4.65-5.02,10.82-2.33,23.31,10.2,41,37.94,33.29,55.57-.32.73-.66,1.4-1.02,2.22s-.66,1.67-1.02,2.49c-3.3,7.54-14.49,12.44-17.93,10.93-5.57-2.44-5.83-20.76-8.83-32.91Z"></path> <path class="cls-9" d="m510.65,258.71c8.24.62,15.75-.94,23.66-19.02.6-1.38,1.12-2.79,1.6-4.22-12.82,24.79-22.55,20.38-29.54,17.32-.91-.4-1.8-.83-2.69-1.27.18,2.42.25,4.81.18,7.16,2.2-.14,4.45-.15,6.79.03Z"></path> <path class="cls-18" d="m501.03,173.73c16.95,7.41,30.16,23.75,37.97,42.97.06-3.91-.21-7.85-.76-11.77-9.14-15.55-23.26-34.43-41.66-42.47-7.63-3.34-20.49,1.7-23.25,8.01-.71,1.62-1.04,4.23-1.18,6.97,1.48,1.99,2.95,4.07,4.42,6.24,4.55-10.01,12.76-15.06,24.46-9.94Z"></path> <path class="cls-9" d="m496.58,162.46c18.39,8.04,32.52,26.92,41.66,42.47-1.61-11.4-5.66-22.52-11.29-31.67-7.63-6.82-15.52-11.98-22.75-15.14-20.03-8.76-35.6-2.31-39.01,5.48-.58,1.33-.84,2.72-.85,4.13,2.54,2.89,5.16,6.15,7.8,9.71.14-2.74.47-5.34,1.18-6.97,2.76-6.31,15.62-11.34,23.25-8.01Z"></path> <path class="cls-19" d="m528.3,237.69c.36-.82.66-1.67,1.02-2.49s.7-1.49,1.02-2.22c7.71-17.63-9.98-45.38-33.29-55.57-6.17-2.7-10.11.7-10.82,2.33-2.34,5.35,11.01,18.58,15.3,35.98,3,12.15,3.26,30.47,8.83,32.91,3.45,1.51,14.64-3.39,17.93-10.93Zm-22.82-26.3c2.06-4.72,7.02-8.85,12.51-6.45,8.45,3.7,9.59,19.15,7.95,22.91-.81,1.85-1.43,3.69-2.2,5.46-1.99,4.54-6.61,10.39-11.16,8.4-2.64-1.15-9.29-25.31-7.09-30.32Z"></path> <path class="cls-8" d="m523.73,233.31c.77-1.77,1.39-3.61,2.2-5.46,1.65-3.76.5-19.22-7.95-22.91-5.48-2.4-10.44,1.73-12.51,6.45-2.19,5.01,4.46,29.16,7.09,30.32,4.55,1.99,9.17-3.86,11.16-8.4Z"></path> <path class="cls-20" d="m448.22,249.95c-5.85-17.86-7.02-36.41.66-53.96,4.41-10.08,11.58-17.19,22.05-12.61,1.17.51,2.41.9,3.58,1.41.06.02.11.06.17.08-4.4-6.37-9.24-12.42-14.48-18.05-2.98.4-6.14,2.83-8.64,8.54-.74,1.7-5.88,24.68-10.57,46.92-.17,10.78,1.76,20.35,7.23,27.65Z"></path> <path class="cls-22" d="m460.2,166.83c-2.22-2.38-4.5-4.7-6.85-6.92-5.19,20.42-12.05,43.27-12.36,62.39,4.69-22.24,9.83-45.23,10.57-46.92,2.5-5.71,5.65-8.15,8.64-8.54Z"></path> <path class="cls-14" d="m457.83,258.29c1.06.59,2.16,1.16,3.33,1.67,14.59,6.38,26.4.24,40.72-1.13-.22-2.78-.55-5.55-.94-8.32-.01.03-.02.06-.03.09-1.55,3.54-17.47,17.01-43.07,7.69Z"></path> <path class="cls-4" d="m470.93,183.38c-10.47-4.58-17.64,2.52-22.05,12.61-7.68,17.55-6.51,36.1-.66,53.96,1.06,1.42,2.26,2.75,3.61,3.99-8.75-15.9-8.9-36.71-3.52-49.01,6.28-14.37,17.12-17.59,27.46-13.07,1.23.54,2.51.99,3.74,1.53.33.14.62.29.92.44-1.82-3.05-3.74-6.03-5.76-8.95-.06-.03-.11-.06-.17-.08-1.18-.51-2.41-.9-3.58-1.41Z"></path> <path class="cls-10" d="m475.77,191.86c-10.34-4.52-21.18-1.3-27.46,13.07-5.38,12.31-5.24,33.12,3.52,49.01,1.75,1.61,3.73,3.08,6,4.35,25.6,9.32,41.53-4.15,43.07-7.69.01-.03.02-.06.03-.09-2.83-19.7-10.02-39.17-20.5-56.69-.3-.15-.6-.3-.92-.44-1.23-.54-2.51-.99-3.74-1.53Zm20.78,54.8h0c-2.27,5.2-16.65,13.92-31.82,7.29-18.39-8.04-15.62-32.53-8.3-49.26,4.03-9.22,12.27-8.78,13.92-8.06,15.31,6.69,27.31,47.47,26.19,50.03Z"></path> <path class="cls-17" d="m456.44,204.69c-7.32,16.74-10.1,41.22,8.3,49.26,15.16,6.63,29.54-2.09,31.82-7.29h0c1.12-2.56-10.89-43.34-26.19-50.03-1.65-.72-9.89-1.17-13.92,8.06Zm35.48,35.79c.06.81.38,1.58.42,2.39.08,1.48-.36,2.76-.96,4.12-4.47,10.21-15.43,9.16-25.68,4.67-12.28-5.37-12.03-27.37-9.05-34.19,3.68-8.4,8.4-12.03,16.56-8.46,7.14,3.12,17.74,18.58,18.71,31.47Z"></path> <path class="cls-13" d="m456.66,217.47c-2.98,6.82-3.23,28.82,9.05,34.19,10.25,4.48,21.22,5.53,25.68-4.67.59-1.36,1.03-2.63.96-4.12-.04-.81-.36-1.58-.42-2.39-.96-12.89-11.57-28.35-18.71-31.47-8.16-3.57-12.88.06-16.56,8.46Z"></path> </g> <g> <path class="cls-11" d="m379.25,71.59c.04-.69.05-1.38.06-2.07-31.23,21.71-92.77,8.87-134.44,25.92.25.25.5.51.75.77,34.98-8.26,89.54-2.27,133.63-24.62Z"></path> <path class="cls-3" d="m272.45,57.6c9.24-12.02,29.5-23.88,45.99-31.64-1.91.26-3.82.6-5.73,1.02-19.43,12.09-33.98,16.51-44.74,30.49-7.77,10.11-8.82,27.51-5.25,30.25.81.62,1.67,1.22,2.54,1.75,5.38-1.09,10.92-1.91,16.55-2.56-1.92-.7-3.7-1.65-5.08-2.7-8.26-6.36-11.24-17.58-4.28-26.62Z"></path> <path class="cls-16" d="m267.97,57.48c10.76-13.99,25.31-18.41,44.74-30.49-14.3,3.12-28.62,10.63-41.35,22.82-3.91,3.74-7.68,7.91-11.24,12.54-7.42,9.64-13.2,20.45-16.77,31.53.48.51,1,1.04,1.52,1.57,6.39-2.61,13.25-4.52,20.39-5.97-.88-.53-1.73-1.13-2.54-1.75-3.57-2.75-2.53-20.15,5.25-30.25Z"></path> <path class="cls-6" d="m284.25,50.82c10.46-13.6,34.19-22.23,55.53-24.48-6.91-1.23-14.1-1.36-21.34-.38-16.5,7.76-36.75,19.62-45.99,31.64-6.95,9.04-3.98,20.26,4.28,26.62,1.38,1.06,3.16,2,5.08,2.7,4.26-.49,8.57-.89,12.89-1.23-4.14-2.34-7.6-4.7-9.23-5.95-9.66-7.43-8.49-19.47-1.22-28.92Z"></path> <path class="cls-24" d="m367.74,38.67c-3.8-2.92-7.87-5.36-12.12-7.33,2.07,1.48,4.24,3.07,6.53,4.83,13.21,10.16,11.86,26.11,6.68,32.84-1.49,1.94-7.94,6.87-14.09,10.53,9.31-2.12,17.68-5.23,24.58-10.02.21-12.98-4.05-25.06-11.58-30.85Z"></path> <path class="cls-21" d="m362.15,36.17c-2.29-1.76-4.45-3.36-6.53-4.83-5.04-2.34-10.35-4.02-15.84-5-21.34,2.25-45.07,10.88-55.53,24.48-7.27,9.45-8.44,21.49,1.22,28.92,1.63,1.25,5.09,3.62,9.23,5.95,20.92-1.66,42.2-2.09,60.03-6.15,6.14-3.65,12.6-8.59,14.09-10.53,5.18-6.73,6.53-22.68-6.68-32.84Zm-62.04,42.61c-3.64.05-7.1-1.26-10.43-3.04-.46-.25-.88-.52-1.27-.82-3.57-2.74-6.95-13.37-1.39-20.6,8.55-11.12,44.17-36.2,72.39-14.49,10.37,7.98,7.33,18.6-.64,28.97-9.62,12.51-42.91,9.77-58.66,9.98Z"></path> <path class="cls-12" d="m359.4,39.84c-28.22-21.71-63.84,3.37-72.39,14.49-5.56,7.23-2.18,17.85,1.39,20.6.39.3.81.57,1.27.82,3.33,1.78,6.79,3.09,10.43,3.04,15.74-.21,49.04,2.53,58.66-9.98,7.98-10.37,11.01-20.99.64-28.97Zm-46.67,21.67c-4.48-3.45-7.98-8.79-4.3-13.58,5.27-6.85,29.38-16.78,43.39-6.02.19.15.39.31.58.47.14.12.28.23.43.34.83.64,1.75,1.17,2.57,1.81,3.8,2.92,6.21,11.98,2.81,16.4-10.2,13.26-32.43,10.61-45.47.58Z"></path> <path class="cls-24" d="m355.4,44.53c-.83-.64-1.74-1.17-2.57-1.81-.14-.11-.29-.23-.43-.34-.19-.16-.38-.32-.58-.47-14-10.77-38.12-.83-43.39,6.02-3.68,4.79-.18,10.13,4.3,13.58,13.05,10.03,35.27,12.69,45.47-.58,3.4-4.42.99-13.47-2.81-16.4Z"></path> <path class="cls-18" d="m357.63,112.43c4.24-3.63,8.1-7.73,11.53-12.19,6.39-8.31,9.56-18.66,10.09-28.65-3.36,1.7-6.78,3.22-10.25,4.61.75.27,1.45.65,1.94,1.04,8.1,6.23-6.25,25.95-13.32,35.19Z"></path> <path class="cls-15" d="m303.94,112.26c8.89,6.84,25.41,11.07,41.58,8.59,4.32-2.38,8.36-5.21,12.11-8.42,7.07-9.24,21.42-28.96,13.32-35.19-.5-.38-1.2-.77-1.94-1.04-22.05,8.86-46.01,11.84-68.48,13.76-6.07,8.26-7.75,13.71,3.42,22.3Zm38.4-22.79c6.74-.97,13.13-3.3,19.75-3.81.92,1.64,2.37,3.04,2.41,4.97.04,2.01-.06,3.3-5.76,10.71-12.19,15.85-32.01,22.42-45.65,11.93-2.54-1.95-11.1-10.05-7.27-15.03,5.11-6.65,33.22-8.3,36.51-8.77Z"></path> <path class="cls-9" d="m333.13,126.15c-21.79-1.18-43.25-6.31-50.22-11.67-5.48-4.21-5.69-9.18-2.28-13.61.8-1.05,1.57-2.12,2.39-3.19,1.59-2.07,4.15-4.7,6.95-6.86-7.72.6-15.19,1.17-22.25,1.92-.74.73-1.45,1.54-2.15,2.45-4.48,5.83,6.29,14.59,14.91,21.22,6.76,5.2,21.78,10.1,38.51,12.45,4.91-.38,9.64-1.3,14.14-2.7Z"></path> <path class="cls-18" d="m280.62,100.87c-3.41,4.43-3.19,9.4,2.28,13.61,6.97,5.36,28.43,10.49,50.22,11.67,4.34-1.34,8.47-3.13,12.39-5.29-16.17,2.48-32.69-1.76-41.58-8.59-11.16-8.59-9.48-14.04-3.42-22.3-3.57.3-7.09.58-10.56.85-2.8,2.16-5.35,4.79-6.95,6.86-.82,1.07-1.58,2.15-2.39,3.19Z"></path> <path class="cls-7" d="m265.57,95.18c.7-.9,1.41-1.71,2.15-2.45-7.94.84-15.37,1.89-22.08,3.48,3.53,3.58,7.81,7.61,12.19,10.97,22.16,17.05,42.98,23.08,61.18,21.66-16.73-2.34-31.75-7.25-38.51-12.45-8.63-6.63-19.39-15.39-14.91-21.22Z"></path> <path class="cls-19" d="m313.1,113.27c13.64,10.49,33.46,3.91,45.65-11.93,5.7-7.41,5.8-8.7,5.76-10.71-.04-1.93-1.49-3.33-2.41-4.97-6.62.51-13.01,2.84-19.75,3.81-3.3.47-31.4,2.13-36.51,8.77-3.83,4.98,4.73,13.08,7.27,15.03Zm36.35-19.27c-.01,1.23.12,2.27.11,3.51-.02,1.96-1.92,5.12-3.03,6.55-6.23,8.1-22.73,10.42-28.81,5.74-4.68-3.6-4.27-6.37-2.62-8.51,6.5-8.45,27.1-8.28,34.36-7.29Z"></path> <path class="cls-8" d="m317.71,109.8c6.09,4.68,22.58,2.36,28.81-5.74,1.11-1.44,3-4.6,3.03-6.55.01-1.23-.12-2.27-.11-3.51-7.25-1-27.86-1.16-34.36,7.29-1.65,2.14-2.06,4.92,2.62,8.51Z"></path> </g> <g> <path class="cls-11" d="m133.7,260.65c-.7.25-1.41.48-2.12.71,12.7-38.92-19.6-98.37-14.94-146.61.34.18.68.35,1.02.54,2.32,38.62,25.4,93,16.03,145.37Z"></path> <path class="cls-3" d="m86.19,154.9c-9.52,13.25-15.48,37.8-18.37,57.21-.32-2.05-.56-4.13-.72-6.23,6.44-23.78,6.49-40.15,17.57-55.57,8.01-11.14,25.62-17.61,29.56-14.78.89.64,1.77,1.34,2.59,2.08.55,5.88,1.42,11.85,2.49,17.85-1.32-1.76-2.84-3.31-4.36-4.4-9.11-6.55-21.6-6.13-28.76,3.83Z"></path> <path class="cls-16" d="m84.67,150.31c-11.08,15.42-11.13,31.79-17.57,55.57-1.22-15.71,2.09-32.8,10.71-49.69,2.65-5.19,5.77-10.36,9.44-15.47,7.64-10.63,16.99-19.94,27.3-27.05.67.34,1.38.71,2.09,1.08-.72,7.4-.56,15.06.17,22.87-.82-.74-1.7-1.44-2.59-2.08-3.94-2.83-21.55,3.64-29.56,14.78Z"></path> <path class="cls-6" d="m82.85,169.16c-10.78,15-12.33,42.13-8.03,64.82-3.41-6.74-5.77-14.11-7-21.88,2.89-19.41,8.84-43.96,18.37-57.21,7.16-9.96,19.65-10.38,28.76-3.83,1.52,1.09,3.04,2.64,4.36,4.4.81,4.54,1.74,9.11,2.72,13.67-3.69-3.55-7.2-6.38-9-7.67-10.65-7.65-22.7-2.71-30.19,7.71Z"></path> <path class="cls-24" d="m96.2,258.98c-4.19-3.01-7.96-6.45-11.32-10.22,2.16,1.68,4.48,3.42,7,5.23,14.57,10.47,30.59,4.14,35.92-3.29,1.54-2.14,4.62-10.32,6.49-17.78.7,10.25.09,19.85-2.71,28.44-13.32,4.24-27.08,3.59-35.39-2.38Z"></path> <path class="cls-21" d="m127.82,250.7c1.54-2.14,4.62-10.32,6.49-17.78-1.34-19.64-7.5-41.71-12.27-63.79-3.69-3.55-7.2-6.38-9-7.67-10.65-7.65-22.7-2.71-30.19,7.71-10.78,15-12.33,42.13-8.03,64.82,2.71,5.35,6.09,10.3,10.06,14.78,2.16,1.68,4.48,3.42,7,5.23,14.57,10.47,30.59,4.14,35.92-3.29Zm-3.34-10.31c-8.22,11.44-18.22,17.86-29.66,9.64-31.12-22.37-16.3-66.86-7.49-79.12,5.73-7.97,17.73-7.78,21.66-4.95.43.31.84.66,1.23,1.06,2.87,2.88,5.29,6.04,6.37,9.81,4.66,16.29,17.8,49.76,7.89,63.56Z"></path> <path class="cls-12" d="m124.48,240.39c9.91-13.79-3.23-47.26-7.89-63.56-1.08-3.77-3.5-6.93-6.37-9.81-.4-.4-.81-.75-1.23-1.06-3.94-2.83-15.93-3.03-21.66,4.95-8.81,12.26-23.63,56.75,7.49,79.12,11.44,8.22,21.44,1.8,29.66-9.64Zm-8.29,1.87c-3.5,4.87-13.58,5.2-17.77,2.18-.91-.66-1.75-1.44-2.66-2.09-.16-.11-.32-.23-.49-.33-.23-.14-.44-.29-.66-.45-15.44-11.1-12.67-39.04-7.24-46.59,3.8-5.28,10.39-3.33,15.33.22,14.39,10.34,24.01,32.43,13.5,47.05Z"></path> <path class="cls-24" d="m98.42,244.44c-.91-.66-1.75-1.44-2.66-2.09-.16-.11-.32-.23-.49-.33-.23-.14-.44-.29-.66-.45-15.44-11.1-12.67-39.04-7.24-46.59,3.8-5.28,10.39-3.33,15.33.22,14.39,10.34,24.01,32.43,13.5,47.05-3.5,4.87-13.58,5.2-17.77,2.18Z"></path> <path class="cls-18" d="m169.1,225.71c-2.43,5.5-5.45,10.75-8.99,15.67-6.59,9.16-16.27,15.64-26.41,19.28.71-3.99,1.22-7.99,1.58-11.99.51.69,1.12,1.29,1.67,1.68,8.93,6.42,24.81-14.49,32.15-24.64Z"></path> <path class="cls-15" d="m128.24,173.8c4.99,23.76,9.34,49.38,7.04,74.85.51.69,1.12,1.29,1.67,1.68,8.93,6.42,24.81-14.49,32.15-24.64,2.14-4.86,3.81-9.91,4.93-15.09-2.45-17.44-11.94-33.15-21.74-40.2-12.31-8.85-17.41-5.43-24.04,3.39Zm10.17,2.9c3.95-5.49,14.94.82,17.75,2.83,15.04,10.81,14.4,33.28,1.84,50.75-5.87,8.17-7.18,8.68-9.26,9.26-2,.56-3.89-.51-5.87-.94-1.52-6.99-1.1-14.29-2.19-21.54-.53-3.55-7.54-33.03-2.27-40.36Z"></path> <path class="cls-9" d="m175.65,196.2c-7.97-22.1-19.9-42.63-27.59-48.16-6.04-4.34-11.23-3.02-14.74,1.86-.83,1.15-1.7,2.27-2.55,3.45-1.64,2.29-3.56,5.73-4.92,9.29-1.77-8.14-3.5-16.02-4.92-23.53.53-.99,1.14-1.98,1.86-2.97,4.62-6.43,16.98,1.96,26.5,8.8,7.46,5.36,17.16,19.32,24.76,35.84,1.13,5.18,1.64,10.34,1.6,15.42Z"></path> <path class="cls-18" d="m133.32,149.91c3.51-4.88,8.7-6.2,14.74-1.86,7.69,5.52,19.62,26.06,27.59,48.16-.04,4.89-.61,9.7-1.62,14.41-2.45-17.44-11.94-33.15-21.74-40.2-12.31-8.85-17.41-5.43-24.04,3.39-.79-3.77-1.6-7.49-2.39-11.15,1.36-3.55,3.27-7,4.92-9.29.85-1.18,1.72-2.3,2.55-3.45Z"></path> <path class="cls-7" d="m122.79,136.15c-.72,1-1.33,1.99-1.86,2.97-1.6-8.44-2.81-16.44-3.26-23.84,4.78,2.53,10.26,5.7,15.09,9.16,24.44,17.57,37.1,37.15,41.29,56.35-7.6-16.52-17.31-30.49-24.76-35.84-9.51-6.84-21.88-15.22-26.5-8.8Z"></path> <path class="cls-19" d="m138.42,176.71c-5.27,7.33,1.74,36.81,2.27,40.36,1.09,7.25.67,14.55,2.19,21.54,1.98.44,3.87,1.5,5.87.94,2.08-.58,3.39-1.09,9.26-9.26,12.56-17.47,13.19-39.95-1.84-50.75-2.8-2.01-13.8-8.32-17.75-2.83Zm6.01,8.61c1.7-2.36,4.43-3.64,9.59.06,6.71,4.83,9.43,22.55,3.01,31.48-1.14,1.58-3.81,4.52-5.82,5.15-1.27.4-2.38.58-3.65.98-3.27-7.17-9.83-28.36-3.13-37.67Z"></path> <path class="cls-8" d="m154.02,185.38c6.71,4.83,9.43,22.55,3.01,31.48-1.14,1.58-3.81,4.52-5.82,5.15-1.27.4-2.38.58-3.65.98-3.27-7.17-9.83-28.36-3.13-37.67,1.7-2.36,4.43-3.64,9.59.06Z"></path> </g> <g> <path class="cls-11" d="m214.51,61.34c.25-.59.48-1.19.7-1.78-33.97,9.18-83.58-21.19-125.2-19.33.14.3.27.6.42.9,33.05,3.71,78.71,25.94,124.09,20.21Z"></path> <path class="cls-3" d="m125.83,15.86c11.8-7.59,33.14-11.61,49.93-13.23-1.74-.37-3.52-.66-5.31-.9-20.7,4.47-34.75,3.79-48.48,12.62-9.92,6.38-16.26,21.21-14,24.72.51.79,1.07,1.58,1.67,2.32,5.03.73,10.11,1.74,15.21,2.93-1.45-1.21-2.71-2.59-3.58-3.94-5.22-8.11-4.31-18.82,4.56-24.52Z"></path> <path class="cls-16" d="m121.96,14.35c13.73-8.83,27.78-8.15,48.48-12.62-13.43-1.74-28.25.34-43.14,6.99-4.57,2.04-9.15,4.5-13.7,7.42-9.47,6.09-17.88,13.7-24.44,22.24.26.59.55,1.21.84,1.84,6.38-.29,12.95.19,19.63,1.16-.6-.74-1.16-1.52-1.67-2.32-2.26-3.51,4.08-18.34,14-24.72Z"></path> <path class="cls-6" d="m138.22,13.63c13.35-8.59,36.71-8.71,56.01-4.02-5.64-3.23-11.85-5.58-18.47-6.98-16.79,1.62-38.13,5.64-49.93,13.23-8.87,5.71-9.78,16.41-4.56,24.52.87,1.35,2.13,2.73,3.58,3.94,3.86.9,7.74,1.9,11.61,2.94-2.88-3.33-5.16-6.46-6.19-8.07-6.1-9.48-1.32-19.61,7.96-25.57Z"></path> <path class="cls-24" d="m214.74,29.08c-2.4-3.73-5.18-7.12-8.27-10.17,1.35,1.93,2.73,4,4.18,6.25,8.34,12.97,2.19,26.44-4.42,30.69-1.91,1.23-9.06,3.51-15.56,4.78,8.77,1.06,17.03.96,24.53-1.07,4.23-11.24,4.29-23.09-.47-30.48Z"></path> <path class="cls-21" d="m210.64,25.15c-1.44-2.25-2.83-4.31-4.18-6.25-3.66-3.61-7.76-6.73-12.24-9.3-19.29-4.7-42.65-4.57-56.01,4.02-9.28,5.97-14.05,16.09-7.96,25.57,1.03,1.6,3.31,4.74,6.19,8.07,18.75,5.07,37.41,11.34,54.22,13.36,6.49-1.27,13.65-3.55,15.56-4.78,6.61-4.25,12.76-17.72,4.42-30.69Zm-67.33,17.78c-3.19-1.09-5.79-3.31-8.14-5.9-.32-.36-.61-.73-.85-1.11-2.25-3.5-1.89-13.81,5.21-18.38,10.92-7.02,49.77-17.77,67.59,9.94,6.55,10.18.59,18.49-9.59,25.03-12.28,7.9-40.43-4.87-54.21-9.59Z"></path> <path class="cls-12" d="m207.11,27.49C189.29-.22,150.44,10.53,139.52,17.55c-7.1,4.57-7.46,14.87-5.21,18.38.24.38.53.75.85,1.11,2.35,2.59,4.95,4.81,8.14,5.9,13.78,4.73,41.93,17.49,54.21,9.59,10.18-6.55,16.14-14.85,9.59-25.03Zm-47.41,4.33c-2.83-4.4-4.21-10.15.49-13.17,6.72-4.32,30.83-5.46,39.67,8.29.12.19.24.39.36.59.08.15.17.29.26.43.52.81,1.15,1.57,1.68,2.38,2.4,3.73,1.68,12.37-2.66,15.16-13.02,8.37-31.56-.87-39.8-13.67Z"></path> <path class="cls-24" d="m202.16,30.33c-.52-.81-1.15-1.57-1.68-2.38-.09-.14-.18-.29-.26-.43-.11-.2-.23-.4-.36-.59-8.84-13.75-32.95-12.61-39.67-8.29-4.7,3.02-3.32,8.77-.49,13.17,8.24,12.81,26.77,22.05,39.8,13.67,4.34-2.79,5.06-11.43,2.66-15.16Z"></path> <path class="cls-18" d="m182.94,90.18c4.83-1.84,9.47-4.2,13.85-7.02,8.16-5.25,14.15-13.28,17.72-21.82-3.46.44-6.91.69-10.36.82.57.46,1.06,1.02,1.37,1.51,5.11,7.95-13.54,20.66-22.58,26.5Z"></path> <path class="cls-15" d="m136.22,73.29c5.61,8.73,18.68,17.57,33.54,20.45,4.5-.73,8.91-1.93,13.18-3.56,9.04-5.85,27.69-18.56,22.58-26.5-.31-.49-.8-1.04-1.37-1.51-21.97.84-43.77-4.03-63.95-9.37-7.86,5.31-11.02,9.53-3.97,20.49Zm40.56-7.89c6.18,1.26,12.46,1.22,18.39,2.84.29,1.72,1.12,3.39.55,5.08-.59,1.76-1.09,2.86-8.36,7.54-15.56,10-34.88,9.55-43.49-3.83-1.6-2.49-6.53-12.22-1.64-15.36,6.53-4.2,31.52,3.13,34.55,3.74Z"></path> <path class="cls-9" d="m157.32,94.49c-18.61-7.82-35.72-18.98-40.12-25.82-3.46-5.38-2.1-9.77,2.25-12.57,1.03-.66,2.03-1.36,3.08-2.04,2.03-1.31,5.08-2.8,8.19-3.81-6.91-1.88-13.59-3.71-19.98-5.27-.87.41-1.75.89-2.63,1.46-5.72,3.68.93,14.67,6.38,23.14,4.27,6.64,15.83,15.59,29.67,22.85,4.4,1.2,8.8,1.87,13.16,2.06Z"></path> <path class="cls-18" d="m119.46,56.1c-4.35,2.8-5.71,7.19-2.25,12.57,4.4,6.84,21.5,18,40.12,25.82,4.2.18,8.36-.09,12.44-.75-14.86-2.88-27.93-11.72-33.54-20.45-7.05-10.96-3.89-15.18,3.97-20.49-3.2-.85-6.36-1.7-9.47-2.55-3.11,1.01-6.16,2.5-8.19,3.81-1.05.67-2.05,1.38-3.08,2.04Z"></path> <path class="cls-7" d="m108.11,46.45c.89-.57,1.76-1.05,2.63-1.46-7.18-1.75-13.98-3.14-20.32-3.85,1.96,4.22,4.44,9.06,7.2,13.36,13.99,21.76,30.25,33.5,46.54,37.94-13.85-7.26-25.4-16.21-29.67-22.85-5.45-8.47-12.1-19.46-6.38-23.14Z"></path> <path class="cls-19" d="m143.88,77.03c8.61,13.39,27.93,13.84,43.49,3.83,7.27-4.68,7.77-5.78,8.36-7.54.57-1.69-.26-3.36-.55-5.08-5.93-1.62-12.22-1.58-18.39-2.84-3.02-.62-28.02-7.94-34.55-3.74-4.89,3.14.04,12.87,1.64,15.36Zm37.68-5.46c-.4,1.07-.6,2.02-1,3.09-.63,1.7-3.27,3.86-4.68,4.77-7.95,5.11-23.05,2-26.89-3.98-2.95-4.59-1.73-6.88.37-8.23,8.3-5.33,26.19,1.23,32.2,4.36Z"></path> <path class="cls-8" d="m148.98,75.44c3.84,5.98,18.94,9.1,26.89,3.98,1.41-.91,4.05-3.07,4.68-4.77.4-1.07.6-2.02,1-3.09-6.01-3.13-23.91-9.7-32.2-4.36-2.1,1.35-3.32,3.64-.37,8.23Z"></path> </g> </g> </g> </svg> 